<?xml version="1.0" encoding="UTF-8"?>
<svg width="133px" height="34px" viewBox="0 0 133 34" version="1.1" xmlns="http://www.w3.org/2000/svg" xmlns:xlink="http://www.w3.org/1999/xlink">
    <!-- Generator: Sketch 53.2 (72643) - https://sketchapp.com -->
    <title>Artboard</title>
    <desc>Created with Sketch.</desc>
    <g id="Artboard" stroke="none" stroke-width="1" fill="none" fill-rule="evenodd">
        <path d="M58.4915081,22.9808649 L58.4915081,18.5008649 L53.4515081,18.5008649 L53.4515081,22.9808649 L51.1795081,22.9808649 L51.1795081,12.3088649 L53.4515081,12.3088649 L53.4515081,16.5008649 L58.4915081,16.5008649 L58.4915081,12.3088649 L60.7795081,12.3088649 L60.7795081,22.9808649 L58.4915081,22.9808649 Z M71.236397,22.9808649 L70.564397,21.1408649 L65.796397,21.1408649 L65.124397,22.9808649 L62.628397,22.9808649 L66.756397,12.3088649 L69.604397,12.3088649 L73.716397,22.9808649 L71.236397,22.9808649 Z M68.180397,14.2768649 L66.404397,19.1728649 L69.940397,19.1728649 L68.180397,14.2768649 Z M75.5972859,22.9808649 L75.5972859,12.3088649 L77.8692859,12.3088649 L77.8692859,20.9808649 L82.3812859,20.9808649 L82.3812859,22.9808649 L75.5972859,22.9808649 Z M83.9101748,17.6528649 C83.9101748,14.4368649 86.2621748,12.1328649 89.4781748,12.1328649 C92.7101748,12.1328649 95.0621748,14.4368649 95.0621748,17.6528649 C95.0621748,20.8688649 92.7101748,23.1728649 89.4781748,23.1728649 C86.2621748,23.1728649 83.9101748,20.8688649 83.9101748,17.6528649 Z M92.7261748,17.6528649 C92.7261748,15.6528649 91.4461748,14.1488649 89.4781748,14.1488649 C87.5101748,14.1488649 86.2461748,15.6528649 86.2461748,17.6528649 C86.2461748,19.6368649 87.5101748,21.1568649 89.4781748,21.1568649 C91.4461748,21.1568649 92.7261748,19.6368649 92.7261748,17.6528649 Z M102.535953,22.9808649 L102.535953,12.3088649 L104.807953,12.3088649 L104.807953,20.9808649 L109.319953,20.9808649 L109.319953,22.9808649 L102.535953,22.9808649 Z M119.264842,22.9808649 L118.592842,21.1408649 L113.824842,21.1408649 L113.152842,22.9808649 L110.656842,22.9808649 L114.784842,12.3088649 L117.632842,12.3088649 L121.744842,22.9808649 L119.264842,22.9808649 Z M116.208842,14.2768649 L114.432842,19.1728649 L117.968842,19.1728649 L116.208842,14.2768649 Z M123.62573,22.9808649 L123.62573,12.3088649 L129.24173,12.3088649 C131.27373,12.3088649 132.31373,13.6048649 132.31373,15.0288649 C132.31373,16.3728649 131.48173,17.2688649 130.47373,17.4768649 C131.60973,17.6528649 132.52173,18.7568649 132.52173,20.1008649 C132.52173,21.7008649 131.44973,22.9808649 129.41773,22.9808649 L123.62573,22.9808649 Z M125.89773,16.5968649 L128.74573,16.5968649 C129.51373,16.5968649 129.99373,16.1008649 129.99373,15.4128649 C129.99373,14.7568649 129.51373,14.2448649 128.74573,14.2448649 L125.89773,14.2448649 L125.89773,16.5968649 Z M125.89773,21.0448649 L128.82573,21.0448649 C129.68973,21.0448649 130.20173,20.5488649 130.20173,19.7808649 C130.20173,19.1088649 129.72173,18.5328649 128.82573,18.5328649 L125.89773,18.5328649 L125.89773,21.0448649 Z" id="HALOLAB" fill="#FFFFFF" fill-rule="nonzero"></path>
        <path d="M32.5746114,7.10585909 C29.7398855,7.99409148 27.5834191,10.1543686 26.697692,12.9949797 C26.5593802,13.4374301 25.9529364,13.4374301 25.8146246,12.9949797 C24.9288975,10.1543686 22.7724311,7.99409148 19.9377052,7.10585909 C19.4961715,6.96726019 19.4961715,6.35955731 19.9377052,6.22095841 C22.7724311,5.33339236 24.9288975,3.17311525 25.8146246,0.331837756 C25.9529364,-0.110612585 26.5593802,-0.110612585 26.697692,0.331837756 C27.5834191,3.17311525 29.7398855,5.33339236 32.5746114,6.22095841 C33.0161451,6.35955731 33.0161451,6.96726019 32.5746114,7.10585909" id="Fill-1" fill="#FFE336"></path>
        <path d="M15.959048,33.0453099 C7.15896296,33.0453099 0,25.8708177 0,17.0531289 C0,9.57211994 5.07763711,3.16591877 12.3476485,1.47407928 C13.779973,1.14424055 15.2083078,2.03380562 15.540788,3.46777118 C15.8726032,4.90173674 14.9822213,6.33370329 13.5512267,6.66687372 C8.78146618,7.77699762 5.31968268,12.1448621 5.31968268,17.0531289 C5.31968268,22.9315881 10.092768,27.7145829 15.959048,27.7145829 C21.0646135,27.7145829 25.4613312,24.069032 26.4122245,19.0461545 C26.6855232,17.6001948 28.0766202,16.6493264 29.521579,16.9251915 C30.9645429,17.1990576 31.9127764,18.5943754 31.6388127,20.0403351 C30.2111429,27.575984 23.6173962,33.0453099 15.959048,33.0453099" id="Fill-22" fill="#FFFFFF"></path>
    </g>
</svg>