<svg width="118" height="36" fill="none" xmlns="http://www.w3.org/2000/svg"><path fill-rule="evenodd" clip-rule="evenodd" d="M20.699.857a3.837 3.837 0 00-3.84 3.827 3.837 3.837 0 003.84 3.828 3.837 3.837 0 003.84-3.828 3.837 3.837 0 00-3.84-3.827zm0 1.35a2.484 2.484 0 012.485 2.477 2.484 2.484 0 01-2.485 2.478 2.484 2.484 0 01-2.486-2.478A2.484 2.484 0 0120.7 2.207zm11.32 16.652a3.837 3.837 0 00-3.84 3.827 3.837 3.837 0 003.84 3.828 3.837 3.837 0 003.839-3.828 3.837 3.837 0 00-3.84-3.827zm0 1.35a2.484 2.484 0 012.485 2.477 2.484 2.484 0 01-2.485 2.478 2.484 2.484 0 01-2.486-2.478 2.484 2.484 0 012.486-2.477zm-11.314-1.35a3.837 3.837 0 00-3.84 3.827 3.837 3.837 0 003.84 3.828 3.837 3.837 0 003.84-3.828 3.837 3.837 0 00-3.84-3.827zm0 1.35a2.484 2.484 0 012.485 2.477 2.484 2.484 0 01-2.485 2.478 2.484 2.484 0 01-2.485-2.478 2.484 2.484 0 012.485-2.477zM9.56 18.859a3.837 3.837 0 00-3.838 3.827 3.837 3.837 0 003.839 3.828 3.837 3.837 0 003.84-3.828 3.837 3.837 0 00-3.84-3.827zm0 1.35a2.484 2.484 0 012.486 2.477 2.484 2.484 0 01-2.485 2.478 2.484 2.484 0 01-2.485-2.478 2.484 2.484 0 012.485-2.477zM15.22 9.86a3.837 3.837 0 00-3.84 3.828 3.837 3.837 0 003.84 3.827 3.837 3.837 0 003.838-3.827A3.837 3.837 0 0015.22 9.86zm0 1.35a2.484 2.484 0 012.484 2.478 2.484 2.484 0 01-2.485 2.477 2.484 2.484 0 01-2.485-2.477 2.484 2.484 0 012.485-2.478zm11.142-1.35a3.837 3.837 0 00-3.84 3.828 3.837 3.837 0 003.84 3.827 3.837 3.837 0 003.839-3.827 3.837 3.837 0 00-3.84-3.828zm0 1.35a2.484 2.484 0 012.485 2.478 2.484 2.484 0 01-2.485 2.477 2.484 2.484 0 01-2.485-2.477 2.484 2.484 0 012.485-2.478zM3.871 27.846A3.871 3.871 0 000 31.706c0 2.132 1.743 3.86 3.871 3.86a3.871 3.871 0 003.872-3.86c.01-2.132-1.733-3.86-3.872-3.86zm11.282 0a3.871 3.871 0 00-3.871 3.86c0 2.132 1.743 3.86 3.871 3.86s3.872-1.738 3.872-3.86c0-2.132-1.744-3.86-3.872-3.86zm11.272 0a3.871 3.871 0 00-3.871 3.86c0 2.132 1.743 3.86 3.871 3.86a3.871 3.871 0 003.872-3.86 3.865 3.865 0 00-3.872-3.86zm11.273 0a3.871 3.871 0 00-3.871 3.86 3.871 3.871 0 007.743 0 3.865 3.865 0 00-3.872-3.86zm15.76-9.545v-10.7h-4.104V5.248h11.105V7.6h-4.104v10.701h-2.897zm10.175 0V5.25h9.026v2.24h-6.203v3.055h5.831v2.24h-5.83v3.277h6.202v2.24h-9.026zm16.039 0v-10.7h-4.105V5.248h11.106V7.6h-4.104v10.701h-2.897zm17.565-7.692c.372-.29.558-.744.558-1.36 0-.63-.186-1.087-.558-1.371-.37-.284-.971-.426-1.8-.426h-2.768v3.592h2.767c.83 0 1.43-.145 1.801-.435zm3.975 7.692h-3.157l-2.266-4.165c-.186-.32-.409-.552-.668-.694-.26-.142-.589-.213-.985-.213h-1.43V18.3h-2.86V5.25h6.017c1.535 0 2.696.337 3.482 1.009.787.673 1.18 1.645 1.18 2.916 0 .988-.276 1.814-.827 2.48-.55.667-1.328 1.106-2.33 1.315.68.173 1.256.66 1.727 1.463l2.117 3.87zm7.285-5.072h4.198l-2.099-4.888-2.099 4.888zm6.388 5.072l-1.243-2.888h-6.092l-1.244 2.888h-2.915l6.016-13.052h2.322l6.017 13.052h-2.861zM50.416 31.076h1.398v-7.614h-1.398v7.614zm10.591-7.614h1.31v7.614h-1.05l-4.095-5.314v5.314h-1.3v-7.614h1.04l4.095 5.303v-5.303zm6.241 7.474a3.816 3.816 0 01-1.3-.67l.466-1.015c.368.28.757.486 1.165.615.407.13.85.195 1.327.195.527 0 .933-.092 1.218-.276a.869.869 0 00.428-.772c0-.288-.132-.508-.395-.659-.264-.15-.703-.295-1.316-.432-.636-.136-1.153-.295-1.55-.475s-.696-.41-.899-.691c-.202-.28-.303-.637-.303-1.07 0-.445.123-.845.368-1.198.246-.353.593-.628 1.04-.826.448-.198.965-.297 1.55-.297a4.78 4.78 0 011.527.243c.484.162.88.383 1.192.664l-.466 1.015c-.68-.54-1.43-.81-2.254-.81-.49 0-.879.1-1.164.297a.95.95 0 00-.428.826c0 .296.126.522.38.68.252.16.682.307 1.288.444.643.144 1.165.304 1.566.48.4.177.707.402.92.675.213.274.32.62.32 1.037 0 .454-.121.851-.363 1.193-.242.342-.592.605-1.05.789-.46.183-1 .275-1.62.275a5.6 5.6 0 01-1.647-.237zm8.352.14h1.397v-7.614H75.6v7.614zm11.758-4.115v3.65a5.13 5.13 0 01-1.262.41c-.495.101-1 .152-1.512.152-.787 0-1.47-.156-2.047-.47a3.172 3.172 0 01-1.327-1.35c-.307-.587-.46-1.283-.46-2.09 0-.799.153-1.492.46-2.078a3.198 3.198 0 011.31-1.35c.568-.314 1.234-.47 2-.47.534 0 1.036.077 1.505.232.47.155.86.376 1.17.664l-.466 1.005a3.722 3.722 0 00-1.045-.589 3.442 3.442 0 00-1.132-.178c-.787 0-1.382.232-1.782.696-.4.465-.601 1.154-.601 2.069 0 1.872.823 2.808 2.47 2.808.49 0 .982-.069 1.473-.206v-1.911h-1.647v-.994h2.892zm9.252-3.499h1.365v7.614H96.61V27.77H92.7v3.305h-1.376v-7.614H92.7v3.186h3.91v-3.186zm7.201 7.614v-6.47h-2.492v-1.144h6.381v1.145h-2.492v6.469h-1.397zm8.195-.14a3.809 3.809 0 01-1.3-.67l.465-1.015c.369.28.757.486 1.165.615.407.13.85.195 1.327.195.527 0 .934-.092 1.218-.276a.869.869 0 00.429-.772c0-.288-.132-.508-.396-.659-.263-.15-.702-.295-1.316-.432-.635-.136-1.153-.295-1.55-.475s-.696-.41-.898-.691c-.202-.28-.304-.637-.304-1.07 0-.445.124-.845.369-1.198s.592-.628 1.04-.826c.448-.198.964-.297 1.549-.297a4.79 4.79 0 011.528.243c.483.162.88.383 1.191.664l-.466 1.015c-.678-.54-1.43-.81-2.253-.81-.491 0-.88.1-1.164.297a.95.95 0 00-.429.826c0 .296.126.522.38.68.253.16.682.307 1.289.444.642.144 1.164.304 1.565.48.401.177.708.402.921.675.213.274.32.62.32 1.037 0 .454-.122.851-.364 1.193-.242.342-.592.605-1.05.789-.459.183-.998.275-1.62.275a5.55 5.55 0 01-1.646-.237z" fill="#80808E"/></svg>