<svg width="141" height="35" fill="none" xmlns="http://www.w3.org/2000/svg"><path d="M19.22 21.746l-2.716-8.305 7.075-5.136a11.52 11.52 0 01-4.378 13.441h.02zM23.6 8.305L20.872 0h-8.746l2.697 8.305H23.6zM12.126 0H3.389L.69 8.305h8.737L12.126 0zM.68 8.305a11.521 11.521 0 004.38 13.441l2.689-8.305L.68 8.305zm4.38 13.441l7.067 5.137 7.095-5.137-7.095-5.136-7.067 5.136zM58.093 7.842a4.441 4.441 0 00-4.257 3.18l-6.779 23.315h4.458l1.985-6.729a.151.151 0 01.151-.134h8.95a.15.15 0 01.151.134l1.985 6.73h4.441L62.45 11.004a4.474 4.474 0 00-4.272-3.18l-.084.017zm3.549 16.25a.202.202 0 01-.135 0h-6.863a.134.134 0 01-.118 0 .1.1 0 010-.134l3.365-11.776a.168.168 0 01.151-.117.135.135 0 01.118.117l3.364 11.776a.202.202 0 010 .135h.118zm20.742-6.46h4.222v16.705h-3.364l-.455-1.43a.185.185 0 00-.1-.117.235.235 0 00-.152 0 9.27 9.27 0 01-5.467 1.884 5.518 5.518 0 01-5.148-3.365 5.45 5.45 0 01-.454-2.153V17.633h4.273v11.304a2.456 2.456 0 002.473 2.423 9.42 9.42 0 003.97-1.094s.1 0 .084-.134v-12.5h.118zm36.352 5.165v11.54h-4.289V23.05a2.391 2.391 0 00-.724-1.682 2.421 2.421 0 00-1.682-.723 9.206 9.206 0 00-3.987 1.11.144.144 0 00-.018.067c0 .024.007.047.018.068v12.448h-4.424V8.18h4.29v10.497a.137.137 0 00-.024.076c0 .027.009.053.024.075a.117.117 0 00.151 0 9.388 9.388 0 015.047-1.548 5.585 5.585 0 015.551 5.518h.067zm-21.868-5.164h2.59v3.364h-2.574a.168.168 0 00-.168.168v8.983a1.295 1.295 0 001.312 1.296c.482.031.965.031 1.447 0v2.893a8.411 8.411 0 01-2.59.37 4.408 4.408 0 01-4.442-4.373v-9.219a.202.202 0 00-.168-.168h-2.557v-3.365h2.59a.185.185 0 00.169-.168v-5.467h4.222v5.568a.168.168 0 00.135.168l.034-.05zm41.012-6.09a7.975 7.975 0 00-13.458 0 17.211 17.211 0 00-2.489 9.723 17.359 17.359 0 002.523 9.707 7.975 7.975 0 0013.458 0 17.214 17.214 0 002.523-9.656 17.395 17.395 0 00-2.523-9.774h-.034zm-3.499 17.613a3.633 3.633 0 01-3.196 2.254 3.704 3.704 0 01-3.18-2.254 17.251 17.251 0 01-1.547-7.84 17.279 17.279 0 011.547-7.906 3.365 3.365 0 016.359 0 17.14 17.14 0 011.531 7.856 17.234 17.234 0 01-1.514 7.89z" fill="#80808E"/></svg>