<svg width="74" height="43" fill="none" xmlns="http://www.w3.org/2000/svg"><path fill="#80808E" d="M.831 0h72.624v42.422H.831z"/><g clip-path="url(#clip0)"><path fill-rule="evenodd" clip-rule="evenodd" d="M52.483 12.57v9.432h-.136l-4.925-8.088c-.622-1-1.244-1.343-2.49-1.343h-4.95V22h-.123l-4.925-8.087c-.622-1-1.245-1.343-2.49-1.343h-.582v-.002h-4.39v9.43h-.134l-4.925-8.087c-.622-1.001-1.244-1.343-2.49-1.343h-4.951v18.44h5.493V20.47h.135l5.845 9.194c.332.512.65.85 1.048 1.059v.002l.007.001c.379.2.83.282 1.434.282h.226l.013.002h3.813V20.474h.135l5.845 9.194c.323.497.633.831 1.015 1.043.387.213.849.3 1.474.3h4.02V20.474h.134l5.845 9.194c.65 1 1.245 1.343 2.49 1.343h4.032v-18.44h-5.493z" fill="#02021E"/></g><defs><clipPath id="clip0"><path fill="#fff" d="M15.286 12.813h43.362v18.575H15.286z"/></clipPath></defs></svg>