<svg width="124" height="35" fill="none" xmlns="http://www.w3.org/2000/svg"><path fill-rule="evenodd" clip-rule="evenodd" d="M113.467 30.108h3.508l6.07-15.381h-3.473l-2.509 7.66-2.643-7.66h-3.875l4.615 11.11-1.693 4.271zm-17.412-11.73v7.885h-3.539V14.727h2.487l.739 1.008c.963-.806 1.993-1.277 3.18-1.277 1.591 0 2.801.47 3.54 1.636 1.075-.987 2.218-1.636 3.674-1.636 2.732 0 4.323 1.411 4.323 5.242v6.563h-3.539v-6.16c0-1.77-.717-2.285-1.86-2.285-.672 0-1.231.179-1.859.582.045.404.067.83.067 1.3v6.563h-3.539v-6.16c0-1.77-.717-2.285-1.882-2.285-.65 0-1.187.157-1.792.56zm-12.344.986h4.548c-.246-1.5-1.053-2.218-2.262-2.218-1.031 0-2.016.605-2.285 2.218zm2.532 7.123c-3.405 0-6.138-1.68-6.138-6.115 0-4.145 2.644-5.936 5.69-5.936 3.673 0 5.309 2.575 5.309 6.63h-7.415c.247 1.994 1.479 2.576 3.114 2.576 1.582 0 2.819-.39 3.776-1.034l-.48 2.807c-.914.706-2.01 1.072-3.856 1.072zm-13.179-2.979c.807 0 1.412-.135 2.039-.605v-5.018c-.56-.336-1.12-.492-1.926-.492-1.725 0-2.71 1.164-2.71 3.113 0 1.904 1.007 3.002 2.597 3.002zm2.733 1.904c-.918.694-1.97 1.12-3.472 1.12-3.158 0-5.443-1.949-5.443-5.959 0-3.987 2.621-6.137 5.98-6.137.785 0 1.547.112 2.24.38V9.92h3.54v16.343h-2.24l-.605-.851zM51.886 19.43v-8.55h3.673v8.483c0 3.046 1.367 3.673 3.248 3.673 2.039 0 3.091-.896 3.091-3.673V10.88h3.697v8.55c0 5.04-2.195 7.146-6.967 7.146-4.435 0-6.742-1.815-6.742-7.146zM42.523 20.071a1.13 1.13 0 00-.5-.234c-1.077 1.074-2.391 2.205-3.559 2.965-.539.358-1.216.537-1.665.537-1.032 0-1.481-.984-1.616-2.55-.18-2.102-.3-4.62-.3-8.511 0-3.991-.906-6.705-3.32-6.918a3.506 3.506 0 00-.312-.015c-1.481 0-2.2.76-3.142 2.684-.808 1.655-2.065 4.07-4.399 8.632-2.02 3.937-4.264 7.425-6.195 9.84-.537.67-.962 1.13-1.361 1.392-.267.176-.523.263-.793.263-.762 0-1.318-.642-1.504-2.14a9.912 9.912 0 01-.067-1.214c0-3.086 1.167-8.096 3.187-15.476C18.458 3.958 17.83.29 14.597.29H14.56c-.732.01-1.338.274-1.923.734-.575.454-1.152 1.432-1.69 2.748-.605 1.483-4.29 8.875-10.156 12.683-.07 1.448.75 2.895 2.411 3.052 1.512.144 2.585-.494 3.968-1.422a376.623 376.623 0 00-.548 2.481c-.106.483-.172.794-.192.88-.192.881-.33 1.718-.418 2.512-.827 7.393 2.6 11.04 6.612 11.04.67 0 1.335-.08 1.995-.247 4.421-1.12 8.678-6.192 13.716-17.867a32.424 32.424 0 00-.03 3.557c.332 6.69 2.979 8.698 6.718 8.698 2.828 0 5.476-1.475 6.822-3.31.988-1.297 1.392-2.728 1.392-3.846 0-.868-.275-1.56-.713-1.913z" fill="#80808E"/></svg>