<?xml version="1.0" encoding="UTF-8" standalone="no"?>
<svg
   xmlns:dc="http://purl.org/dc/elements/1.1/"
   xmlns:cc="http://creativecommons.org/ns#"
   xmlns:rdf="http://www.w3.org/1999/02/22-rdf-syntax-ns#"
   xmlns:svg="http://www.w3.org/2000/svg"
   xmlns="http://www.w3.org/2000/svg"
   version="1.1"
   width="960"
   height="203"
   id="Layer_1">
  <metadata
     id="metadata55">
    <rdf:RDF>
      <cc:Work
         rdf:about="">
        <dc:format>image/svg+xml</dc:format>
        <dc:type
           rdf:resource="http://purl.org/dc/dcmitype/StillImage" />
        <dc:title></dc:title>
      </cc:Work>
    </rdf:RDF>
  </metadata>
  <defs
     id="defs53" />
  <path
     d="m 193.2,203 h -34.4 l 2.4,-29 h -16.9 l -2.4,29 H 70.6 L 68.2,174 H 51.3 l 2.4,29 H 19.3 L 0,77.3 48.3,0 H 164.2 L 212.5,77.3 193.2,203 z M 154.5,38.7 h -31 l 2.1,14.5 H 86.9 L 89,38.7 H 58 l -19.4,38.6 9.7,77.3 H 164.2 L 173.9,77.3 154.5,38.7 z M 137.6,129 c -2.7,0 -4.8,-8 -4.8,-18 0,-10 2.2,-18 4.8,-18 2.7,0 4.8,8 4.8,18 0,10 -2.1,18 -4.8,18 z m -60.9,1.5 c -2.7,0 -4.8,-8 -4.8,-18 0,-10 2.2,-18 4.8,-18 2.7,0 4.8,8 4.8,18 0,10 -2.2,18 -4.8,18 z"
     id="path9"
     style="fill:#ffffff" />
  <g
     id="g13"
     style="fill:#a5b0b8">
    <path
       d="M 251.3,47.7 260,28.8 c 0.1,-0.2 0.2,-0.3 0.5,-0.3 h 0.3 c 0.3,0 0.4,0.1 0.5,0.3 l 8.6,18.9 c 0.2,0.4 -0.1,0.7 -0.5,0.7 H 267 c -0.4,0 -0.6,-0.2 -0.8,-0.6 l -1.4,-3 h -8.4 l -1.4,3 c -0.1,0.3 -0.4,0.6 -0.8,0.6 h -2.4 c -0.4,0 -0.6,-0.4 -0.5,-0.7 z m 12.2,-6 -2.8,-6.2 h -0.1 l -2.8,6.2 h 5.7 z"
       id="path15" />
    <path
       d="m 275.3,29.3 c 0,-0.3 0.2,-0.5 0.5,-0.5 h 6.6 c 3.5,0 6.3,2.8 6.3,6.2 0,3.5 -2.8,6.3 -6.3,6.3 H 279 v 6.6 c 0,0.3 -0.3,0.5 -0.5,0.5 h -2.6 c -0.3,0 -0.5,-0.3 -0.5,-0.5 V 29.3 z m 6.9,8.5 c 1.6,0 2.9,-1.3 2.9,-2.9 0,-1.5 -1.3,-2.7 -2.9,-2.7 H 279 v 5.6 h 3.2 z"
       id="path17" />
    <path
       d="m 291.1,47.7 8.7,-18.9 c 0.1,-0.2 0.2,-0.3 0.5,-0.3 h 0.3 c 0.3,0 0.4,0.1 0.5,0.3 l 8.6,18.9 c 0.2,0.4 -0.1,0.7 -0.5,0.7 h -2.4 c -0.4,0 -0.6,-0.2 -0.8,-0.6 l -1.4,-3 h -8.4 l -1.4,3 c -0.1,0.3 -0.4,0.6 -0.8,0.6 h -2.4 c -0.5,0 -0.7,-0.4 -0.5,-0.7 z m 12.1,-6 -2.8,-6.2 h -0.1 l -2.8,6.2 h 5.7 z"
       id="path19" />
    <path
       d="m 323.6,28.5 c 2.8,0 4.9,0.9 6.8,2.6 0.3,0.2 0.3,0.6 0,0.8 l -1.7,1.8 c -0.2,0.2 -0.5,0.2 -0.7,0 -1.2,-1 -2.8,-1.7 -4.3,-1.7 -3.6,0 -6.3,3 -6.3,6.5 0,3.5 2.7,6.5 6.3,6.5 1.7,0 3.1,-0.6 4.3,-1.6 0.2,-0.2 0.5,-0.2 0.7,0 l 1.7,1.8 c 0.2,0.2 0.2,0.6 0,0.8 -1.9,1.9 -4.3,2.7 -6.8,2.7 -5.6,0 -10.1,-4.5 -10.1,-10.1 0,-5.6 4.5,-10.1 10.1,-10.1 z"
       id="path21" />
    <path
       d="m 336.9,29.3 c 0,-0.3 0.3,-0.5 0.5,-0.5 h 2.6 c 0.3,0 0.5,0.3 0.5,0.5 v 7.4 h 9.1 v -7.4 c 0,-0.3 0.2,-0.5 0.5,-0.5 h 2.6 c 0.3,0 0.5,0.3 0.5,0.5 v 18.6 c 0,0.3 -0.3,0.5 -0.5,0.5 h -2.6 c -0.3,0 -0.5,-0.3 -0.5,-0.5 v -7.7 h -9.1 v 7.7 c 0,0.3 -0.2,0.5 -0.5,0.5 h -2.6 c -0.3,0 -0.5,-0.3 -0.5,-0.5 V 29.3 z"
       id="path23" />
    <path
       d="m 361.3,29.3 c 0,-0.3 0.2,-0.5 0.5,-0.5 h 11.4 c 0.3,0 0.5,0.3 0.5,0.5 v 2.3 c 0,0.3 -0.2,0.5 -0.5,0.5 h -8.3 v 4.6 h 6.9 c 0.3,0 0.5,0.3 0.5,0.5 v 2.3 c 0,0.3 -0.3,0.5 -0.5,0.5 h -6.9 v 5 h 8.3 c 0.3,0 0.5,0.3 0.5,0.5 v 2.3 c 0,0.3 -0.2,0.5 -0.5,0.5 h -11.4 c -0.3,0 -0.5,-0.3 -0.5,-0.5 V 29.3 z"
       id="path25" />
  </g>
  <g
     id="g29"
     style="fill:#ffffff">
    <path
       d="m 936.7,71.6 h -10.5 c -0.5,0 -1,0.4 -1,1 v 2 c 0,0.5 0.4,1 1,1 h 3.2 v 13 c 0,0.5 0.4,1 1,1 h 2.2 c 0.5,0 1,-0.4 1,-1 v -13 h 3.2 c 0.5,0 1,-0.4 1,-1 v -2 c -0.1,-0.5 -0.6,-1 -1.1,-1 z"
       id="path31" />
    <path
       d="m 960,88.3 -2.8,-16.1 c -0.1,-0.5 -0.4,-0.8 -0.9,-0.8 h -0.4 c -0.4,0 -0.7,0.2 -0.9,0.5 l -4.9,10.5 -4.9,-10.5 c -0.2,-0.3 -0.5,-0.5 -0.9,-0.5 H 944 c -0.5,0 -0.9,0.3 -0.9,0.8 l -2.9,16.2 c 0,0.3 0,0.6 0.2,0.8 0.2,0.2 0.4,0.3 0.7,0.3 h 2.2 c 0.5,0 0.9,-0.4 0.9,-0.8 l 1.2,-7.6 3.6,8 c 0.2,0.3 0.5,0.5 0.9,0.5 h 0.4 c 0.4,0 0.8,-0.2 0.9,-0.6 l 3.6,-8 1.2,7.6 c 0.1,0.4 0.5,0.7 0.9,0.7 h 2.2 c 0.3,0 0.6,-0.1 0.8,-0.3 0.1,-0.1 0.1,-0.4 0.1,-0.7 z"
       id="path33" />
  </g>
  <g
     id="g35"
     style="fill:#ffffff">
    <path
       d="m 322.4,139 c -0.8,-0.8 -1.9,-1.2 -3,-1.2 -1.1,0 -2.1,0.4 -2.9,1.1 -5.6,4.6 -11.8,6.9 -18.4,6.9 -15,0 -26.7,-12.1 -26.7,-27.6 0,-15.6 11.7,-27.9 26.6,-27.9 6.6,0 13.3,2.6 18.4,7 0.9,0.8 1.9,1.3 3,1.3 1.1,0 2.2,-0.5 3,-1.4 l 7.8,-8 c 0.9,-0.9 1.4,-2.1 1.3,-3.3 0,-1.2 -0.6,-2.4 -1.5,-3.2 -9.6,-8.6 -19.6,-12.4 -32.4,-12.4 -26.6,0 -48.3,21.7 -48.3,48.3 0,12.9 5,25 14.1,34.1 9.1,9 21.2,14 34.2,14 12.5,0 23.8,-4.5 32.6,-13 0.9,-0.9 1.4,-2.2 1.4,-3.5 0,-1.1 -0.5,-2.1 -1.3,-2.8 l -7.9,-8.4 z"
       id="path37" />
    <path
       d="m 389.5,70.1 c -12.9,0 -25,5 -34.1,14.1 -9,9.1 -14,21.2 -14,34.2 0,27 21.1,48.1 48.1,48.1 13,0 25.1,-5 34.1,-14 9.1,-9 14.1,-21.1 14.1,-34.1 0,-26.6 -21.6,-48.3 -48.2,-48.3 z m 0,75.7 c -15.1,0 -27.4,-12.3 -27.4,-27.4 0,-15.2 12.3,-27.6 27.4,-27.6 14.9,0 27.5,12.7 27.5,27.6 0,15.1 -12.3,27.4 -27.5,27.4 z"
       id="path39" />
    <path
       d="m 534.3,101 c 0,-16.3 -13.4,-29.6 -30,-29.6 h -41.7 c -2.4,0 -4.4,2 -4.4,4.4 v 84.9 c 0,2.4 2,4.4 4.4,4.4 h 11.8 c 2.4,0 4.4,-2 4.4,-4.4 V 130 h 15 l 17.5,32.9 c 0.5,1.1 1.8,2.3 3.8,2.3 h 13.5 c 1.7,0 3.1,-0.8 3.9,-2.1 0.8,-1.4 0.8,-3.1 0,-4.6 L 516,127.8 c 11.4,-5.2 18.3,-15.4 18.3,-26.8 z m -20.6,0.3 c 0,6 -4.9,11.1 -10.7,11.1 H 479 V 90.8 h 24 c 5.8,0 10.7,4.8 10.7,10.5 z"
       id="path41" />
    <path
       d="m 591.1,71.4 h -30.4 c -2.3,0 -4.3,2 -4.3,4.4 v 84.9 c 0,2.4 2,4.4 4.3,4.4 h 30.4 c 25.9,0 47,-21.1 47,-47 0,-25.7 -21.1,-46.7 -47,-46.7 z m 25.3,46.8 c 0,15.9 -11.3,27.4 -26.9,27.4 H 576.9 V 90.9 h 12.6 c 15.6,0 26.9,11.5 26.9,27.3 z"
       id="path43" />
    <path
       d="m 701.4,70.1 c -12.9,0 -25,5 -34.1,14.1 -9,9.1 -14,21.2 -14,34.2 0,27 21.1,48.1 48.1,48.1 13,0 25.1,-5 34.1,-14 9.1,-9 14.1,-21.1 14.1,-34.1 0,-26.6 -21.6,-48.3 -48.2,-48.3 z m 0,75.7 c -15.1,0 -27.4,-12.3 -27.4,-27.4 0,-15.2 12.3,-27.6 27.4,-27.6 14.9,0 27.5,12.7 27.5,27.6 0,15.1 -12.3,27.4 -27.5,27.4 z"
       id="path45" />
    <path
       d="m 843.4,73.4 c -0.8,-1.3 -2.2,-2 -3.8,-2 h -13.1 c -2.1,0 -3.5,1.3 -4,2.6 l -23.3,52.1 -23.2,-52 c -0.5,-1.3 -2,-2.7 -4,-2.7 h -13.1 c -1.6,0 -3,0.7 -3.8,2 -0.8,1.2 -0.9,2.8 -0.2,4.2 l 39.7,86.4 c 0.8,1.6 2.2,2.5 4,2.5 h 1.3 c 1.7,0 3.2,-0.9 4,-2.6 l 39.8,-86.3 c 0.6,-1.4 0.5,-3 -0.3,-4.2 z"
       id="path47" />
    <path
       d="M 922,159.1 882.5,72.7 c -0.3,-0.6 -1.3,-2.5 -4,-2.5 h -1.3 c -1.7,0 -3.2,0.9 -4,2.6 L 833.3,159 c -0.7,1.4 -0.6,3 0.2,4.2 0.8,1.2 2.2,2 3.8,2 h 11.2 c 2.5,0 4.6,-1.4 5.5,-3.7 l 5.8,-12.7 h 35.8 l 5.8,12.7 c 0.9,1.8 2.3,3.7 5.5,3.7 H 918 c 1.6,0 3,-0.7 3.8,-2 0.8,-1.2 0.8,-2.7 0.2,-4.1 z m -34.6,-28.5 h -19.6 l 9.7,-21.8 9.9,21.8 z"
       id="path49" />
  </g>
</svg>
