<svg width="90" height="126" viewBox="0 0 90 126" fill="none" xmlns="http://www.w3.org/2000/svg">
<path d="M81.418 115.982L44.9998 125.788L8.58115 115.982L0.177246 24.9365H89.823L81.418 115.982Z" fill="#2062AF"/>
<path d="M44.999 32.311V117.967L45.0814 117.989L74.553 110.053L81.356 32.311H44.999Z" fill="#3C9CD7"/>
<path d="M24.3307 11.5606V6.1416H32.237V0.211914H18.401V16.9716H32.237V11.5606H24.3307ZM46.4596 6.1416H51.9872V0.211914H38.1498V6.1416C40.0011 7.9929 40.9666 8.8789 43.644 11.5563C42.0788 11.5563 38.1498 11.5619 38.1498 11.5617V16.9716H51.9872V11.5606L46.4596 6.1416ZM66.0716 6.1416H71.5989V0.211914H57.761V6.1416C59.6123 7.9929 60.5783 8.8789 63.2557 11.5563C61.6911 11.5563 57.761 11.5619 57.761 11.5617V16.9716H71.5992V11.5606L66.0716 6.1416Z" fill="white"/>
<path d="M44.9672 55.0766L18.9015 65.9322L19.7659 76.6801L44.9672 65.905L71.7748 54.4434L72.8863 43.4487L44.9672 55.0766Z" fill="white"/>
<path d="M18.901 65.9318L19.7654 76.6797L44.9666 65.9045V55.0762L18.901 65.9318Z" fill="url(#paint0_linear)"/>
<path d="M72.8858 43.4487L44.9668 55.0763V65.9047L71.7744 54.4432L72.8858 43.4487Z" fill="url(#paint1_linear)"/>
<path d="M18.9409 65.9321L19.8056 76.68L58.4736 76.8033L57.6087 91.134L44.8847 94.716L32.6531 91.628L31.912 82.7327H20.5467L22.0293 99.904L45.0082 106.699L67.8625 100.028L70.8276 65.9321H18.9409Z" fill="url(#paint2_linear)"/>
<path opacity="0.05" d="M44.9672 65.9321H18.9015L19.7659 76.6801L44.9672 76.7605V65.9321ZM44.9672 94.682L44.8437 94.716L32.6137 91.628L31.8726 82.733H20.5075L21.9898 99.905L44.9672 106.699V94.682Z" fill="black"/>
<path d="M16.5537 43.4487H72.886L71.7745 54.4434H17.9125L16.5537 43.4487Z" fill="url(#paint3_linear)"/>
<path opacity="0.05" d="M44.9668 43.4487H16.5537L17.9125 54.4434H44.9668V43.4487Z" fill="black"/>
<defs>
<linearGradient id="paint0_linear" x1="31.9338" y1="76.68" x2="31.9338" y2="55.0764" gradientUnits="userSpaceOnUse">
<stop offset="0.387" stop-color="#D1D3D4" stop-opacity="0"/>
<stop offset="1" stop-color="#D1D3D4"/>
</linearGradient>
<linearGradient id="paint1_linear" x1="58.926" y1="65.9049" x2="58.926" y2="43.449" gradientUnits="userSpaceOnUse">
<stop offset="0.387" stop-color="#D1D3D4" stop-opacity="0"/>
<stop offset="1" stop-color="#D1D3D4"/>
</linearGradient>
<linearGradient id="paint2_linear" x1="18.9409" y1="86.3157" x2="70.8273" y2="86.3157" gradientUnits="userSpaceOnUse">
<stop stop-color="#E8E7E5"/>
<stop offset="1" stop-color="white"/>
</linearGradient>
<linearGradient id="paint3_linear" x1="16.5537" y1="48.9461" x2="72.8857" y2="48.9461" gradientUnits="userSpaceOnUse">
<stop stop-color="#E8E7E5"/>
<stop offset="1" stop-color="white"/>
</linearGradient>
</defs>
</svg>
