<svg width="40" height="40" viewBox="0 0 40 40" fill="none" xmlns="http://www.w3.org/2000/svg">
<path d="M19.9997 1.19999C23.7456 1.19404 27.407 2.31225 30.5104 4.40998C33.5337 6.45045 35.9002 9.32417 37.3228 12.6827C38.5415 15.5636 39.0214 18.7032 38.7188 21.8165C38.4162 24.9298 37.3407 27.9182 35.59 30.5104C33.5495 33.5337 30.6758 35.9002 27.3173 37.3228C24.4364 38.5415 21.2968 39.0214 18.1835 38.7188C15.0702 38.4162 12.0818 37.3407 9.48955 35.59C6.46626 33.5495 4.09983 30.6758 2.67719 27.3173C1.45847 24.4364 0.978623 21.2968 1.28123 18.1835C1.58383 15.0702 2.6593 12.0818 4.40998 9.48955C5.76279 7.48714 7.48714 5.76279 9.48955 4.40998C12.5928 2.31237 16.254 1.19416 19.9997 1.19999ZM19.9997 0C8.95435 0 0 8.95435 0 19.9997C0 31.045 8.95435 40 19.9997 40C31.045 40 40 31.0456 40 19.9997C40 8.95375 31.0456 0 19.9997 0Z" fill="white"/>
<path d="M3.33399 19.9985C3.33399 26.5985 7.16737 32.2985 12.7275 34.9985L4.77698 13.2186C3.82429 15.3519 3.33258 17.6622 3.33399 19.9985ZM31.2519 19.1585C31.2519 17.0982 30.5115 15.6726 29.8779 14.5626C29.0331 13.1892 28.2405 12.027 28.2405 10.6536C28.2405 9.12179 29.4021 7.6956 31.0395 7.6956C31.1133 7.6956 31.1834 7.7046 31.2548 7.7094C28.1856 4.88952 24.168 3.32728 20.0001 3.33302C14.1801 3.33302 9.05496 6.32041 6.07477 10.8444C6.46597 10.857 6.83497 10.8648 7.14757 10.8648C8.88756 10.8648 11.5875 10.653 11.5875 10.653C12.4875 10.6002 12.5919 11.9202 11.6943 12.0264C11.6943 12.0264 10.7914 12.132 9.78696 12.1848L15.8577 30.2393L19.5057 19.3007L16.9089 12.1848C16.0089 12.132 15.1611 12.0264 15.1611 12.0264C14.2611 11.9736 14.3679 10.6002 15.2667 10.653C15.2667 10.653 18.0183 10.8648 19.6563 10.8648C21.3963 10.8648 24.0963 10.653 24.0963 10.653C24.9963 10.6002 25.1007 11.9202 24.2025 12.0264C24.2025 12.0264 23.2983 12.132 22.2951 12.1848L28.3203 30.1001L30.0393 24.6521C30.8037 22.2713 31.2519 20.5841 31.2519 19.1579V19.1585ZM20.2929 21.4565L15.2919 35.9867C18.6495 36.9756 22.2333 36.8826 25.5351 35.7209C25.4886 35.6478 25.4484 35.571 25.4151 35.4911L20.2929 21.4565ZM34.6256 12.0036C34.7024 12.5715 34.7407 13.144 34.7402 13.7172C34.7402 15.4074 34.4234 17.3088 33.4724 19.6865L28.3803 34.4039C33.335 31.5155 36.6674 26.1473 36.6674 19.9985C36.6713 17.2041 35.9689 14.454 34.6256 12.0036Z" fill="white"/>
</svg>
