<svg width="60" height="60" fill="none" xmlns="http://www.w3.org/2000/svg"><path d="M4.312 49.66h39.881v-4.093H4.312a.227.227 0 01-.228-.228v-.247a76.149 76.149 0 00-3.296 2.722 4.302 4.302 0 003.524 1.845z" fill="url(#paint0_radial)"/><path d="M49.038 4.5H4.312A4.318 4.318 0 000 8.812v36.535c0 .887.276 1.752.788 2.475A71.493 71.493 0 014.084 45.1V22.436h39.402v-4.084H4.084v-9.54a.228.228 0 01.228-.228h44.726a.228.228 0 01.228.228v.555A32.169 32.169 0 0052.998 7.1a4.315 4.315 0 00-3.96-2.6z" fill="url(#paint1_radial)"/><path d="M49.266 49.243h4.084V8.812a4.297 4.297 0 00-.352-1.712 32.17 32.17 0 01-3.73 2.264l-.002 39.879z" fill="url(#paint2_radial)"/><path d="M52.998 7.1a4.315 4.315 0 00-3.96-2.6H4.312A4.318 4.318 0 000 8.812v36.535a4.326 4.326 0 004.312 4.312h30.8v-4.093h-30.8a.227.227 0 01-.228-.227V22.436h39.402v-4.084H4.084v-9.54a.228.228 0 01.228-.228h44.726a.228.228 0 01.228.228v40.431h4.084V8.812a4.295 4.295 0 00-.352-1.712z" fill="url(#paint3_radial)"/><path d="M41.988 15.854a1.981 1.981 0 100-3.962 1.981 1.981 0 000 3.962zM36.234 15.854a1.981 1.981 0 100-3.962 1.981 1.981 0 000 3.962zM30.479 15.854a1.981 1.981 0 100-3.962 1.981 1.981 0 000 3.962z" fill="#FFE336"/><path d="M41.49 54.446a2.045 2.045 0 01-1.998-2.489l4.098-18.283a2.043 2.043 0 013.987.893L43.48 52.85a2.045 2.045 0 01-1.99 1.596zM35.115 49.825c-.507.001-.997-.188-1.371-.53l-5.569-5.041a2.044 2.044 0 01.03-3.052l5.57-4.837a2.044 2.044 0 012.68 3.083l-3.832 3.33 3.862 3.496a2.042 2.042 0 01-1.37 3.557v-.006zM52.404 49.773a2.043 2.043 0 01-1.387-3.557l3.862-3.496-3.83-3.33a2.043 2.043 0 012.679-3.086l5.569 4.84a2.04 2.04 0 01.033 3.052l-5.555 5.047c-.375.341-.864.53-1.371.53z" fill="#fff"/><defs><radialGradient id="paint0_radial" cx="0" cy="0" r="1" gradientUnits="userSpaceOnUse" gradientTransform="translate(46.405 47.845) scale(54.5684)"><stop offset=".24" stop-color="#7F60FE" stop-opacity="0"/><stop offset=".25" stop-color="#7E61FE" stop-opacity=".01"/><stop offset=".52" stop-color="#5D8BFE" stop-opacity=".43"/><stop offset=".73" stop-color="#46AAFE" stop-opacity=".74"/><stop offset=".88" stop-color="#37BEFE" stop-opacity=".93"/><stop offset=".96" stop-color="#31C5FE"/><stop offset="1" stop-color="#31C5FE"/></radialGradient><radialGradient id="paint1_radial" cx="0" cy="0" r="1" gradientUnits="userSpaceOnUse" gradientTransform="translate(51.172 43.835) scale(61.0891)"><stop stop-color="#7F60FE" stop-opacity="0"/><stop offset=".17" stop-color="#7073FE" stop-opacity=".19"/><stop offset=".58" stop-color="#4F9FFE" stop-opacity=".62"/><stop offset=".87" stop-color="#39BAFE" stop-opacity=".89"/><stop offset="1" stop-color="#31C5FE"/></radialGradient><radialGradient id="paint2_radial" cx="0" cy="0" r="1" gradientUnits="userSpaceOnUse" gradientTransform="translate(51.172 43.835) scale(61.0891)"><stop stop-color="#7F60FE" stop-opacity="0"/><stop offset=".13" stop-color="#7E61FE" stop-opacity="0"/><stop offset=".26" stop-color="#7C64FE" stop-opacity=".04"/><stop offset=".34" stop-color="#6F74FE" stop-opacity=".2"/><stop offset=".47" stop-color="#5D8DFE" stop-opacity=".44"/><stop offset=".6" stop-color="#4DA1FE" stop-opacity=".64"/><stop offset=".72" stop-color="#41B0FE" stop-opacity=".8"/><stop offset=".83" stop-color="#38BCFE" stop-opacity=".91"/><stop offset=".93" stop-color="#33C3FE" stop-opacity=".98"/><stop offset="1" stop-color="#31C5FE"/></radialGradient><radialGradient id="paint3_radial" cx="0" cy="0" r="1" gradientUnits="userSpaceOnUse" gradientTransform="translate(15.106 6.562) scale(47.5233)"><stop stop-color="#31C5FE"/><stop offset="1" stop-color="#3719CA" stop-opacity="0"/></radialGradient></defs></svg>