<svg width="60" height="60" fill="none" xmlns="http://www.w3.org/2000/svg"><path d="M23.812 24.323a7.364 7.364 0 01-4.94-4.922.371.371 0 00-.727 0 7.358 7.358 0 01-4.922 4.922.37.37 0 000 .727 7.37 7.37 0 014.922 4.925.371.371 0 00.727 0 7.374 7.374 0 014.94-4.925.37.37 0 000-.727z" fill="#FFE336"/><path d="M4.684 54.06h43.313v-4.425h-43.3a.263.263 0 01-.26-.26v-.256A89.207 89.207 0 00.862 52.07v.015a4.672 4.672 0 003.822 1.975z" fill="url(#paint0_radial)"/><path d="M53.272 5.002H4.696A4.7 4.7 0 000 9.698v39.677c0 .958.296 1.893.847 2.677h.018a79.22 79.22 0 013.57-2.945V9.698a.262.262 0 01.258-.26H53.26a.262.262 0 01.26.26v.567h.017a34.91 34.91 0 004.037-2.442v-.015a4.69 4.69 0 00-4.302-2.806z" fill="url(#paint1_radial)"/><path d="M57.574 7.823a4.693 4.693 0 00-4.299-2.825H4.696A4.7 4.7 0 000 9.698v39.677a4.7 4.7 0 004.684 4.684h33.46v-4.425H4.695a.262.262 0 01-.259-.259V9.698a.262.262 0 01.26-.26H53.26a.262.262 0 01.26.26v43.9h4.412V9.686a4.679 4.679 0 00-.358-1.863z" fill="url(#paint2_radial)"/><path d="M16.067 3H11.63v8.654h4.437V3zM31.215 3h-4.437v8.654h4.437V3zM46.364 3h-4.437v8.654h4.437V3zM44.19 58.34A15.81 15.81 0 1160 42.53a15.828 15.828 0 01-15.81 15.81zm0-27.18a11.374 11.374 0 1011.37 11.37 11.382 11.382 0 00-11.37-11.37z" fill="#fff"/><path d="M42.058 48.85l-3.138-3.137 3.361-3.361v-7.213h4.438v9.052l-4.66 4.66z" fill="#fff"/><defs><radialGradient id="paint0_radial" cx="0" cy="0" r="1" gradientUnits="userSpaceOnUse" gradientTransform="translate(50.412 52.088) scale(59.2735)"><stop offset=".24" stop-color="#7F60FE" stop-opacity="0"/><stop offset=".25" stop-color="#7E61FE" stop-opacity=".01"/><stop offset=".52" stop-color="#5D8BFE" stop-opacity=".43"/><stop offset=".73" stop-color="#46AAFE" stop-opacity=".74"/><stop offset=".88" stop-color="#37BEFE" stop-opacity=".93"/><stop offset=".96" stop-color="#31C5FE"/><stop offset="1" stop-color="#31C5FE"/></radialGradient><radialGradient id="paint1_radial" cx="0" cy="0" r="1" gradientUnits="userSpaceOnUse" gradientTransform="translate(55.587 47.727) scale(66.3542)"><stop stop-color="#7F60FE" stop-opacity="0"/><stop offset=".17" stop-color="#7073FE" stop-opacity=".19"/><stop offset=".58" stop-color="#4F9FFE" stop-opacity=".62"/><stop offset=".87" stop-color="#39BAFE" stop-opacity=".89"/><stop offset="1" stop-color="#31C5FE"/></radialGradient><radialGradient id="paint2_radial" cx="0" cy="0" r="1" gradientUnits="userSpaceOnUse" gradientTransform="translate(16.41 7.24) scale(51.6262)"><stop stop-color="#31C5FE"/><stop offset=".08" stop-color="#4FAAFE" stop-opacity=".83"/><stop offset=".16" stop-color="#6894FE" stop-opacity=".68"/><stop offset=".24" stop-color="#7D81FD" stop-opacity=".56"/><stop offset=".33" stop-color="#8D72FD" stop-opacity=".47"/><stop offset=".42" stop-color="#9968FD" stop-opacity=".4"/><stop offset=".52" stop-color="#A062FD" stop-opacity=".36"/><stop offset=".65" stop-color="#A260FD" stop-opacity=".35"/><stop offset="1" stop-color="#9D60FD" stop-opacity="0"/></radialGradient></defs></svg>