<svg width="60" height="60" fill="none" xmlns="http://www.w3.org/2000/svg"><path d="M27.947 18.367v10.345h-10.5a64.423 64.423 0 01-4.153 3.735 2.194 2.194 0 001.566.657h15.27a2.196 2.196 0 002.197-2.196V15.622c0-.28-.054-.557-.159-.817a31.157 31.157 0 01-4.22 3.562z" fill="url(#paint0_linear)"/><path d="M17.054 28.712v-3.237c-.155.114-.298.224-.459.34.152-.116.298-.226.46-.34v-7.658h10.89v.55a31.149 31.149 0 004.234-3.563 2.192 2.192 0 00-2.05-1.363H14.86a2.195 2.195 0 00-2.199 2.196v15.27c0 .577.227 1.13.633 1.54 1.432-1.193 2.825-2.42 4.152-3.735h-.39z" fill="url(#paint1_linear)"/><path d="M37.96 3H4.506A4.508 4.508 0 000 7.505v46.99A4.508 4.508 0 004.505 59H37.96a4.508 4.508 0 004.504-4.505V7.505A4.508 4.508 0 0037.961 3zm.114 51.495a.114.114 0 01-.113.114H4.505a.114.114 0 01-.114-.114v-8.91h27.004v-4.4H4.39V7.505a.113.113 0 01.114-.114H37.96a.113.113 0 01.113.114v46.99z" fill="url(#paint2_linear)"/><path d="M20.688 52.282a2.369 2.369 0 100-4.737 2.369 2.369 0 000 4.737zM21.82 24.085H9.962v11.858H21.82V24.085z" fill="#FFE336"/><path d="M32.179 14.804a2.192 2.192 0 00-2.05-1.363H14.86a2.195 2.195 0 00-2.199 2.196v15.27a2.198 2.198 0 002.199 2.196h15.27a2.195 2.195 0 002.196-2.195V15.622a2.191 2.191 0 00-.146-.818zm-4.233 13.908H17.054V17.817h10.892v10.895z" fill="url(#paint3_linear)"/><defs><linearGradient id="paint0_linear" x1="16.477" y1="23.954" x2="30.146" y2="23.954" gradientUnits="userSpaceOnUse"><stop offset=".29" stop-color="#fff" stop-opacity="0"/><stop offset=".32" stop-color="#fff" stop-opacity="0"/><stop offset=".61" stop-color="#fff" stop-opacity=".42"/><stop offset="1" stop-color="#fff"/></linearGradient><linearGradient id="paint1_linear" x1="22.421" y1="25.41" x2="22.421" y2="12.439" gradientUnits="userSpaceOnUse"><stop offset=".11" stop-color="#fff" stop-opacity="0"/><stop offset=".13" stop-color="#fff" stop-opacity=".05"/><stop offset=".25" stop-color="#fff" stop-opacity=".3"/><stop offset=".37" stop-color="#fff" stop-opacity=".51"/><stop offset=".48" stop-color="#fff" stop-opacity=".69"/><stop offset=".59" stop-color="#fff" stop-opacity=".82"/><stop offset=".69" stop-color="#fff" stop-opacity=".92"/><stop offset=".78" stop-color="#fff" stop-opacity=".98"/><stop offset=".86" stop-color="#fff"/></linearGradient><linearGradient id="paint2_linear" x1="6.124" y1="52.861" x2="40.529" y2="3.081" gradientUnits="userSpaceOnUse"><stop stop-color="#54B7FE"/><stop offset="1" stop-color="#3719CA"/></linearGradient><linearGradient id="paint3_linear" x1="19.608" y1="27.34" x2="29.697" y2="13.119" gradientUnits="userSpaceOnUse"><stop offset=".12" stop-color="#fff" stop-opacity="0"/><stop offset=".2" stop-color="#fff" stop-opacity=".04"/><stop offset=".32" stop-color="#fff" stop-opacity=".14"/><stop offset=".48" stop-color="#fff" stop-opacity=".3"/><stop offset=".67" stop-color="#fff" stop-opacity=".53"/><stop offset=".88" stop-color="#fff" stop-opacity=".82"/><stop offset="1" stop-color="#fff"/></linearGradient></defs></svg>