<svg width="60" height="60" fill="none" xmlns="http://www.w3.org/2000/svg"><path d="M46.53 19.099H.834v4.296H46.53v-4.296z" fill="url(#paint0_radial)"/><path d="M51.58 52H4.535A4.541 4.541 0 010 47.465V9.035A4.541 4.541 0 014.535 4.5H51.58a4.541 4.541 0 014.536 4.535v38.43A4.542 4.542 0 0151.58 52zM4.535 8.796a.24.24 0 00-.239.24v38.428a.239.239 0 00.24.24H51.58a.24.24 0 00.24-.24V9.035a.24.24 0 00-.24-.239H4.535z" fill="url(#paint1_radial)"/><path d="M25.505 28.867h-15.23V41.29h15.23V28.867z" fill="url(#paint2_radial)"/><path d="M21.381 32.23h-6.984v5.696h6.984V32.23z" fill="#FFE336"/><path d="M45.697 28.864H31.165v4.296h14.532v-4.296zM45.697 37.083H31.165v4.296h14.532v-4.296zM44.088 15.99a2.084 2.084 0 100-4.167 2.084 2.084 0 000 4.168zM38.034 15.99a2.084 2.084 0 100-4.167 2.084 2.084 0 000 4.168zM31.982 15.99a2.084 2.084 0 100-4.167 2.084 2.084 0 000 4.168z" fill="#fff"/><defs><radialGradient id="paint0_radial" cx="0" cy="0" r="1" gradientUnits="userSpaceOnUse" gradientTransform="translate(.995 20.943) scale(45.1418)"><stop stop-color="#5944FE" stop-opacity=".99"/><stop offset=".52" stop-color="#7B52FE" stop-opacity=".9"/><stop offset=".83" stop-color="#905BFD" stop-opacity=".33"/><stop offset="1" stop-color="#9D60FD" stop-opacity="0"/></radialGradient><radialGradient id="paint1_radial" cx="0" cy="0" r="1" gradientUnits="userSpaceOnUse" gradientTransform="translate(2.548 49.867) scale(70.2621)"><stop offset=".01" stop-color="#413BFE"/><stop offset=".22" stop-color="#4E40FE" stop-opacity=".99"/><stop offset=".6" stop-color="#714EFD" stop-opacity=".97"/><stop offset="1" stop-color="#9D60FD" stop-opacity=".94"/></radialGradient><radialGradient id="paint2_radial" cx="0" cy="0" r="1" gradientUnits="userSpaceOnUse" gradientTransform="matrix(3554.8 0 0 2899.43 149.166 1929.48)"><stop offset=".01" stop-color="#413BFE"/><stop offset=".22" stop-color="#4E40FE" stop-opacity=".99"/><stop offset=".6" stop-color="#714EFD" stop-opacity=".97"/><stop offset="1" stop-color="#9D60FD" stop-opacity=".94"/></radialGradient></defs></svg>