<svg xmlns="http://www.w3.org/2000/svg" width="20" height="16" viewBox="0 0 20 16">
  <metadata><?xpacket begin="﻿" id="W5M0MpCehiHzreSzNTczkc9d"?>
<x:xmpmeta xmlns:x="adobe:ns:meta/" x:xmptk="Adobe XMP Core 5.6-c138 79.159824, 2016/09/14-01:09:01        ">
   <rdf:RDF xmlns:rdf="http://www.w3.org/1999/02/22-rdf-syntax-ns#">
      <rdf:Description rdf:about=""/>
   </rdf:RDF>
</x:xmpmeta>
                                                                                                    
                                                                                                    
                                                                                                    
                                                                                                    
                                                                                                    
                                                                                                    
                                                                                                    
                                                                                                    
                                                                                                    
                                                                                                    
                                                                                                    
                                                                                                    
                                                                                                    
                                                                                                    
                                                                                                    
                                                                                                    
                                                                                                    
                                                                                                    
                                                                                                    
                                                                                                    
                           
<?xpacket end="w"?></metadata>
<defs>
    <style>
      .cls-1 {
        fill: #fff;
        fill-rule: evenodd;
      }
    </style>
  </defs>
  <path id="medium_logo" class="cls-1" d="M1179.57,792.927l-5.96-2.911a0.227,0.227,0,0,0-.09-0.021h0a0.22,0.22,0,0,0-.19.1l-3.67,5.832,4.1,6.511,5.87-9.312A0.136,0.136,0,0,0,1179.57,792.927Zm-12.58,1.08v6.217l5.99,2.763Zm7.54,9.427,4.97,2.513a0.312,0.312,0,0,0,.49-0.308V794.457Zm-8.59-9.687-5.27-2.561-0.33-.161a0.335,0.335,0,0,0-.14-0.035,0.168,0.168,0,0,0-.14.064,0.282,0.282,0,0,0-.05.17v11.689a0.646,0.646,0,0,0,.33.524l5.17,2.516a0.464,0.464,0,0,0,.21.051,0.3,0.3,0,0,0,.29-0.351V793.864A0.136,0.136,0,0,0,1165.94,793.747Z" transform="translate(-1160 -790)"/>
</svg>
