<svg width="35" height="39" viewBox="0 0 35 39" fill="none" xmlns="http://www.w3.org/2000/svg">
<path d="M27.1975 27.7116C25.1981 29.4908 22.5995 30.4837 19.799 30.4837C13.4035 30.4837 8.7988 25.9323 8.7988 19.4019C8.7988 12.8714 13.3968 8.51325 19.799 8.51325C22.5995 8.51325 25.1981 9.30624 27.1975 11.2854L28.5978 12.4715L34.5961 6.53411L33.1958 5.14804C29.3989 1.98275 24.7942 0.00361285 19.799 0.00361285C8.40162 -0.1963 0 7.92017 0 19.4019C0 30.4837 8.59685 39 19.799 39C24.9962 39 29.7961 37.2208 33.5997 33.8556L35 32.4695L28.6045 26.1389L27.1975 27.7116Z" fill="white"/>
<path d="M19.5 26C23.0899 26 26 23.0899 26 19.5C26 15.9102 23.0899 13 19.5 13C15.9101 13 13 15.9102 13 19.5C13 23.0899 15.9101 26 19.5 26Z" fill="white"/>
</svg>
