<svg width="25" height="25" viewBox="0 0 25 25" fill="none" xmlns="http://www.w3.org/2000/svg">
<path fill-rule="evenodd" clip-rule="evenodd" d="M20.4531 6.01712C20.2369 6.31174 18.518 8.53113 14.7252 10.0905C14.964 10.5825 15.1927 11.0831 15.4058 11.5869C15.4813 11.7654 15.5549 11.943 15.6268 12.1201C19.0399 11.6877 22.4312 12.3805 22.7694 12.4525C22.7469 10.0143 21.8818 7.77516 20.4531 6.01712ZM9.89888 2.44765C10.1864 2.83609 12.0752 5.43165 13.7795 8.5912C17.4775 7.19232 19.0431 5.06902 19.2302 4.80025C17.3935 3.15606 14.9785 2.15585 12.3359 2.15585C11.4968 2.15585 10.6808 2.25738 9.89888 2.44765ZM2.17648 10.5209C2.64341 10.5269 6.94527 10.5449 11.8295 9.28926C10.0994 6.31168 8.23356 3.80835 7.95808 3.44301C5.03703 4.77697 2.85352 7.38407 2.17648 10.5209ZM4.53929 19.5313C4.77573 19.1309 7.64156 14.4395 13.027 12.7185C13.1633 12.6749 13.3004 12.6342 13.4384 12.5958C13.1765 12.0092 12.8908 11.4221 12.5919 10.8435C7.37731 12.3865 2.31701 12.3221 1.86024 12.3129C1.85685 12.4176 1.85472 12.5227 1.85472 12.6283C1.85472 15.2799 2.87141 17.701 4.53929 19.5313ZM16.3342 22.2466C16.1816 21.3369 15.5863 18.1663 14.1473 14.3832C14.1246 14.391 14.1021 14.3983 14.0796 14.4064C8.29755 16.4443 6.22198 20.5004 6.03758 20.8818C7.77559 22.2529 9.95992 23.0709 12.3297 23.0709C13.7497 23.0709 15.1033 22.7769 16.3342 22.2466ZM22.4478 14.3367C22.0944 14.2272 19.2501 13.3938 16.0125 13.9028C17.3639 17.5512 17.9137 20.5224 18.0195 21.1402C20.3373 19.6004 21.9873 17.161 22.4478 14.3367ZM12.312 24.6797C5.65874 24.6797 0.24585 19.2668 0.24585 12.6133C0.24585 5.95995 5.65874 0.547058 12.312 0.547058C18.9656 0.547058 24.3784 5.95995 24.3784 12.6133C24.3784 19.2668 18.9656 24.6797 12.312 24.6797Z" fill="white"/>
</svg>
