<svg width="25" height="25" viewBox="0 0 25 25" fill="none" xmlns="http://www.w3.org/2000/svg">
<path fill-rule="evenodd" clip-rule="evenodd" d="M1.94774 0.861877H22.4736C23.4562 0.861877 24.2519 1.63447 24.2519 2.58722V23.219C24.2519 24.1718 23.4562 24.9453 22.4736 24.9453H1.94774C0.965137 24.9453 0.168457 24.1727 0.168457 23.219V2.58722C0.168457 1.63447 0.965137 0.861877 1.94774 0.861877ZM15.1994 13.8102C16.0066 14.4643 16.8939 14.866 17.8418 14.866C19.1182 14.866 20.1596 13.8227 20.1634 12.5453C20.1634 11.2641 19.1221 10.2208 17.8418 10.2208C16.1348 10.2208 15.5799 11.871 15.4046 12.8536L15.3959 12.8873L15.1994 13.8102ZM13.2833 11.6176C13.9701 9.2844 15.6608 7.86541 17.8418 7.86541C20.4158 7.86541 22.5111 9.96356 22.513 12.5357C22.513 15.1126 20.4178 17.2242 17.8437 17.2242C16.6396 17.2242 15.5895 16.8572 14.6763 16.2715L13.6349 21.1816H11.2314L12.6696 14.4123C11.9905 13.5568 11.4318 12.5954 10.9751 11.6427V12.6686C10.9751 15.1733 8.93863 17.2291 6.43781 17.2291C3.93698 17.2291 1.90049 15.1733 1.90916 12.6686V6.55334H4.25681V12.6686C4.25681 13.8737 5.23749 14.8563 6.44166 14.8563C7.64583 14.8563 8.62747 13.8737 8.62747 12.6686V6.55334H10.9742C11.4395 8.14767 12.2332 10.0406 13.2833 11.6176Z" fill="white"/>
</svg>
