<svg width="60" height="60" viewBox="0 0 60 60" fill="none" xmlns="http://www.w3.org/2000/svg">
<path d="M29.8528 24.7022C31.0563 26.3172 32.4902 27.7468 34.1088 28.9454C32.4928 30.1488 31.0621 31.5828 29.8624 33.2014C28.6573 31.5869 27.2236 30.1565 25.6064 28.955C27.2208 27.751 28.6513 26.3184 29.8528 24.7022ZM29.8528 16.5375C29.6665 16.5395 29.4862 16.6031 29.3398 16.7184C29.1935 16.8336 29.0893 16.994 29.0437 17.1746C28.2663 19.7648 26.8595 22.1221 24.949 24.036C23.0384 25.9499 20.6835 27.3608 18.0947 28.1427C17.9101 28.183 17.7449 28.2853 17.6264 28.4324C17.508 28.5796 17.4434 28.7629 17.4434 28.9518C17.4434 29.1407 17.508 29.324 17.6264 29.4712C17.7449 29.6183 17.9101 29.7206 18.0947 29.761C20.6823 30.5409 23.0366 31.9492 24.9476 33.8602C26.8586 35.7712 28.2669 38.1255 29.0468 40.7131C29.0872 40.8977 29.1894 41.0629 29.3366 41.1814C29.4838 41.2998 29.6671 41.3644 29.856 41.3644C30.0449 41.3644 30.2282 41.2998 30.3754 41.1814C30.5225 41.0629 30.6248 40.8977 30.6651 40.7131C31.4451 38.1255 32.8533 35.7712 34.7643 33.8602C36.6754 31.9492 39.0297 30.5409 41.6173 29.761C42.4901 29.5125 42.4901 28.2669 41.6173 28.1427C39.0304 27.3633 36.6766 25.956 34.7656 24.0462C32.8546 22.1363 31.446 19.7833 30.6651 17.1969C30.6199 17.016 30.516 16.8553 30.3695 16.74C30.223 16.6247 30.0424 16.5613 29.856 16.5598L29.8528 16.5375Z" fill="#FFE336"/>
<path d="M11.482 5.50897C10.2529 5.13993 9.13423 4.47231 8.22595 3.56569C7.31767 2.65908 6.64799 1.54168 6.2767 0.313232C6.25859 0.224793 6.2105 0.145318 6.14056 0.088245C6.07061 0.0311715 5.98311 0 5.89283 0C5.80256 0 5.71505 0.0311715 5.64511 0.088245C5.57516 0.145318 5.52707 0.224793 5.50897 0.313232C5.13857 1.54059 4.47034 2.65728 3.56381 3.56381C2.65728 4.47034 1.54059 5.13857 0.313232 5.50897C0.224793 5.52707 0.145318 5.57516 0.088245 5.64511C0.0311715 5.71505 0 5.80256 0 5.89283C0 5.98311 0.0311715 6.07061 0.088245 6.14056C0.145318 6.2105 0.224793 6.25859 0.313232 6.2767C1.54168 6.64799 2.65908 7.31767 3.56569 8.22595C4.47231 9.13423 5.13993 10.2529 5.50897 11.482C5.52707 11.5704 5.57516 11.6499 5.64511 11.707C5.71505 11.7641 5.80256 11.7952 5.89283 11.7952C5.98311 11.7952 6.07061 11.7641 6.14056 11.707C6.2105 11.6499 6.25859 11.5704 6.2767 11.482C6.64663 10.2518 7.3157 9.13243 8.22407 8.22407C9.13243 7.3157 10.2518 6.64663 11.482 6.2767C11.5704 6.25859 11.6499 6.2105 11.707 6.14056C11.7641 6.07061 11.7952 5.98311 11.7952 5.89283C11.7952 5.80256 11.7641 5.71505 11.707 5.64511C11.6499 5.57516 11.5704 5.52707 11.482 5.50897Z" fill="white"/>
<path d="M59.6861 5.5089C58.4574 5.13967 57.3393 4.47193 56.4316 3.5653C55.5239 2.65868 54.8547 1.54138 54.484 0.313168C54.4644 0.225582 54.4155 0.14729 54.3455 0.0911877C54.2754 0.0350851 54.1883 0.0045166 54.0985 0.0045166C54.0088 0.0045166 53.9217 0.0350851 53.8516 0.0911877C53.7816 0.14729 53.7327 0.225582 53.7131 0.313168C53.3418 1.54112 52.6726 2.65815 51.7649 3.5647C50.8572 4.47125 49.7394 5.13916 48.511 5.5089C48.4225 5.52701 48.3431 5.5751 48.286 5.64504C48.2289 5.71499 48.1978 5.80249 48.1978 5.89277C48.1978 5.98304 48.2289 6.07055 48.286 6.14049C48.3431 6.21043 48.4225 6.25853 48.511 6.27663C49.7405 6.64727 50.859 7.31663 51.7668 8.22494C52.6745 9.13324 53.3432 10.2522 53.7131 11.4819C53.7327 11.5695 53.7816 11.6478 53.8516 11.7039C53.9217 11.76 54.0088 11.7906 54.0985 11.7906C54.1883 11.7906 54.2754 11.76 54.3455 11.7039C54.4155 11.6478 54.4644 11.5695 54.484 11.4819C54.8539 10.2522 55.5226 9.13324 56.4303 8.22494C57.3381 7.31663 58.4566 6.64727 59.6861 6.27663C59.7746 6.25853 59.854 6.21043 59.9111 6.14049C59.9682 6.07055 59.9993 5.98304 59.9993 5.89277C59.9993 5.80249 59.9682 5.71499 59.9111 5.64504C59.854 5.5751 59.7746 5.52701 59.6861 5.5089Z" fill="white"/>
<path d="M11.4823 53.7137C10.2526 53.3438 9.1336 52.6751 8.2253 51.7674C7.317 50.8596 6.64764 49.7411 6.277 48.5116C6.25889 48.4232 6.2108 48.3437 6.14086 48.2866C6.07091 48.2295 5.98341 48.1984 5.89313 48.1984C5.80286 48.1984 5.71535 48.2295 5.64541 48.2866C5.57547 48.3437 5.52738 48.4232 5.50927 48.5116C5.13952 49.74 4.47161 50.8578 3.56506 51.7655C2.65851 52.6732 1.54148 53.3425 0.313534 53.7137C0.225948 53.7333 0.147657 53.7822 0.0915539 53.8523C0.0354513 53.9223 0.00488281 54.0094 0.00488281 54.0992C0.00488281 54.1889 0.0354513 54.276 0.0915539 54.3461C0.147657 54.4161 0.225948 54.465 0.313534 54.4846C1.54325 54.8545 2.66222 55.5232 3.57052 56.4309C4.47883 57.3387 5.14818 58.4572 5.51882 59.6867C5.53693 59.7752 5.58502 59.8546 5.65497 59.9117C5.72491 59.9688 5.81242 60 5.90269 60C5.99297 60 6.08047 59.9688 6.15041 59.9117C6.22036 59.8546 6.26845 59.7752 6.28656 59.6867C6.65669 58.457 7.32587 57.3381 8.23425 56.4303C9.14263 55.5225 10.2619 54.854 11.4918 54.4846C11.5792 54.4639 11.6569 54.4141 11.7122 54.3433C11.7674 54.2726 11.7969 54.1851 11.7958 54.0953C11.7947 54.0056 11.7631 53.9188 11.7061 53.8495C11.6491 53.7801 11.5701 53.7322 11.4823 53.7137Z" fill="white"/>
<path d="M59.6874 53.7138C58.458 53.3439 57.3394 52.6752 56.4316 51.7674C55.5238 50.8596 54.8551 49.741 54.4853 48.5117C54.4657 48.4241 54.4168 48.3458 54.3467 48.2897C54.2767 48.2336 54.1896 48.203 54.0998 48.203C54.0101 48.203 53.923 48.2336 53.8529 48.2897C53.7829 48.3458 53.734 48.4241 53.7144 48.5117C53.344 49.7408 52.6751 50.8591 51.7674 51.7668C50.8597 52.6745 49.7414 53.3434 48.5123 53.7138C48.4247 53.7334 48.3464 53.7822 48.2903 53.8523C48.2342 53.9224 48.2036 54.0095 48.2036 54.0992C48.2036 54.189 48.2342 54.2761 48.2903 54.3461C48.3464 54.4162 48.4247 54.4651 48.5123 54.4847C49.7414 54.855 50.8597 55.5239 51.7674 56.4316C52.6751 57.3393 53.344 58.4577 53.7144 59.6868C53.734 59.7744 53.7829 59.8527 53.8529 59.9088C53.923 59.9649 54.0101 59.9954 54.0998 59.9954C54.1896 59.9954 54.2767 59.9649 54.3467 59.9088C54.4168 59.8527 54.4657 59.7744 54.4853 59.6868C54.8551 58.4574 55.5238 57.3388 56.4316 56.431C57.3394 55.5232 58.458 54.8545 59.6874 54.4847C59.775 54.4651 59.8533 54.4162 59.9094 54.3461C59.9655 54.2761 59.996 54.189 59.996 54.0992C59.996 54.0095 59.9655 53.9224 59.9094 53.8523C59.8533 53.7822 59.775 53.7334 59.6874 53.7138Z" fill="white"/>
<path d="M25.7097 46.9729C19.2201 44.5679 13.6222 40.2337 9.6688 34.553C5.71537 28.8723 3.59586 22.1174 3.59521 15.1964H8.27806C8.29352 21.1566 10.1258 26.9704 13.5306 31.8624C16.9353 36.7544 21.7507 40.492 27.3344 42.5767L25.7097 46.9729Z" fill="url(#paint0_radial)"/>
<path d="M17.8052 25.5432L13.5142 23.6318C16.1736 17.6311 20.5171 12.531 26.0179 8.94997C31.5186 5.36896 37.9402 3.46095 44.5038 3.45734V8.16249C38.849 8.16527 33.3164 9.80892 28.5773 12.8941C23.8382 15.9792 20.0962 20.3732 17.8052 25.5432Z" fill="url(#paint1_radial)"/>
<path d="M56.491 44.1217H51.7986C51.8058 38.3821 50.1182 32.7682 46.9474 27.984C43.7767 23.1998 39.2639 19.4583 33.9751 17.2287L35.8005 12.9091C41.9397 15.4959 47.1783 19.8381 50.8592 25.3909C54.5401 30.9436 56.4993 37.4597 56.491 44.1217Z" fill="url(#paint2_radial)"/>
<path d="M15.5811 56.1061V51.4169C21.6702 51.4175 27.6071 49.5137 32.5603 45.9721C37.5135 42.4304 41.2349 37.4282 43.2035 31.6661L47.6411 33.1856C45.3556 39.8728 41.0361 45.6778 35.2872 49.7878C29.5383 53.8979 22.648 56.107 15.5811 56.1061Z" fill="url(#paint3_radial)"/>
<defs>
<radialGradient id="paint0_radial" cx="0" cy="0" r="1" gradientUnits="userSpaceOnUse" gradientTransform="translate(25.2223 44.7716) scale(37.329)">
<stop stop-color="#3619C8" stop-opacity="0"/>
<stop offset="0.06" stop-color="#3719CA" stop-opacity="0"/>
<stop offset="0.38" stop-color="#7F60FE" stop-opacity="0.6"/>
<stop offset="0.47" stop-color="#7869FE" stop-opacity="0.63"/>
<stop offset="0.63" stop-color="#677FFE" stop-opacity="0.72"/>
<stop offset="0.83" stop-color="#4AA4FE" stop-opacity="0.87"/>
<stop offset="1" stop-color="#31C5FE"/>
</radialGradient>
<radialGradient id="paint1_radial" cx="0" cy="0" r="1" gradientUnits="userSpaceOnUse" gradientTransform="translate(1618.47 1617.49) scale(3151.96 2246.35)">
<stop stop-color="#3619C8" stop-opacity="0"/>
<stop offset="0.06" stop-color="#3719CA" stop-opacity="0"/>
<stop offset="0.38" stop-color="#7F60FE" stop-opacity="0.6"/>
<stop offset="0.47" stop-color="#7869FE" stop-opacity="0.63"/>
<stop offset="0.63" stop-color="#677FFE" stop-opacity="0.72"/>
<stop offset="0.83" stop-color="#4AA4FE" stop-opacity="0.87"/>
<stop offset="1" stop-color="#31C5FE"/>
</radialGradient>
<radialGradient id="paint2_radial" cx="0" cy="0" r="1" gradientUnits="userSpaceOnUse" gradientTransform="translate(2645.82 1553.56) scale(2316.66 3211.47)">
<stop stop-color="#3619C8" stop-opacity="0"/>
<stop offset="0.06" stop-color="#3719CA" stop-opacity="0"/>
<stop offset="0.38" stop-color="#7F60FE" stop-opacity="0.6"/>
<stop offset="0.47" stop-color="#7869FE" stop-opacity="0.63"/>
<stop offset="0.63" stop-color="#677FFE" stop-opacity="0.72"/>
<stop offset="0.83" stop-color="#4AA4FE" stop-opacity="0.87"/>
<stop offset="1" stop-color="#31C5FE"/>
</radialGradient>
<radialGradient id="paint3_radial" cx="0" cy="0" r="1" gradientUnits="userSpaceOnUse" gradientTransform="translate(4521.29 2597.38) scale(3629.51 2766.85)">
<stop stop-color="#3619C8" stop-opacity="0"/>
<stop offset="0.06" stop-color="#3719CA" stop-opacity="0"/>
<stop offset="0.38" stop-color="#7F60FE" stop-opacity="0.6"/>
<stop offset="0.47" stop-color="#7869FE" stop-opacity="0.63"/>
<stop offset="0.63" stop-color="#677FFE" stop-opacity="0.72"/>
<stop offset="0.83" stop-color="#4AA4FE" stop-opacity="0.87"/>
<stop offset="1" stop-color="#31C5FE"/>
</radialGradient>
</defs>
</svg>
