<svg width="60" height="60" viewBox="0 0 60 60" fill="none" xmlns="http://www.w3.org/2000/svg">
<path d="M44.8982 19.6348H4.78027V23.7046H44.8982V19.6348Z" fill="url(#paint0_linear)"/>
<path d="M50.2763 50.9773H5.70966C4.57059 50.9758 3.47859 50.5227 2.67314 49.7172C1.86769 48.9118 1.41455 47.8198 1.41309 46.6807V10.2787C1.41382 9.13916 1.86664 8.04645 2.67216 7.2404C3.47769 6.43436 4.57011 5.98083 5.70966 5.97937H50.2763C51.4158 5.98083 52.5082 6.43436 53.3138 7.2404C54.1193 8.04645 54.5721 9.13916 54.5729 10.2787V46.6807C54.5714 47.8198 54.1182 48.9118 53.3128 49.7172C52.5074 50.5227 51.4153 50.9758 50.2763 50.9773ZM5.70966 10.052C5.64953 10.052 5.59187 10.0759 5.54935 10.1184C5.50683 10.1609 5.48294 10.2186 5.48294 10.2787V46.6807C5.48294 46.7409 5.50683 46.7985 5.54935 46.841C5.59187 46.8836 5.64953 46.9074 5.70966 46.9074H50.2763C50.3364 46.9074 50.3941 46.8836 50.4366 46.841C50.4791 46.7985 50.503 46.7409 50.503 46.6807V10.2787C50.503 10.2186 50.4791 10.1609 50.4366 10.1184C50.3941 10.0759 50.3364 10.052 50.2763 10.052H5.70966Z" fill="url(#paint1_linear)"/>
<path d="M48.9752 42.2961L45.4326 45.8386L55.9547 56.3607L59.4972 52.8181L48.9752 42.2961Z" fill="white"/>
<path d="M6.8983 4.5H0V11.3983H6.8983V4.5Z" fill="white"/>
<path d="M6.8983 45.1819H0V52.0802H6.8983V45.1819Z" fill="white"/>
<path d="M55.7606 4.5H48.8623V11.3983H55.7606V4.5Z" fill="white"/>
<path d="M24.695 29.2676H10.8984V33.3374H24.695V29.2676Z" fill="#FFE336"/>
<path d="M24.695 37.0063H10.8984V41.0762H24.695V37.0063Z" fill="#FFE336"/>
<path d="M54.2 51.0656L48.4021 56.8662L46.2787 48.9422L44.1553 41.0209L52.0793 43.1415L60.0006 45.2649L54.2 51.0656Z" fill="white"/>
<defs>
<linearGradient id="paint0_linear" x1="41.6053" y1="21.4955" x2="-4.6368" y2="21.9794" gradientUnits="userSpaceOnUse">
<stop stop-color="#A260FD" stop-opacity="0"/>
<stop offset="0.23" stop-color="#A260FD"/>
<stop offset="0.46" stop-color="#757BF9"/>
<stop offset="0.7" stop-color="#4F91F5"/>
<stop offset="0.82" stop-color="#409AF4"/>
</linearGradient>
<linearGradient id="paint1_linear" x1="51.1583" y1="48.1737" x2="4.34382" y2="8.37097" gradientUnits="userSpaceOnUse">
<stop stop-color="#A260FD" stop-opacity="0"/>
<stop offset="0.23" stop-color="#A260FD"/>
<stop offset="0.29" stop-color="#9A65FC"/>
<stop offset="0.77" stop-color="#598BF6"/>
<stop offset="1" stop-color="#409AF4"/>
</linearGradient>
</defs>
</svg>
