<svg xmlns="http://www.w3.org/2000/svg" width="960" height="203"><path d="M193.2 203h-34.4l2.4-29h-16.9l-2.4 29H70.6l-2.4-29H51.3l2.4 29H19.3L0 77.3 48.3 0h115.9l48.3 77.3L193.2 203zM154.5 38.7h-31l2.1 14.5H86.9L89 38.7H58L38.6 77.3l9.7 77.3h115.9l9.7-77.3-19.4-38.6zM137.6 129c-2.7 0-4.8-8-4.8-18s2.2-18 4.8-18c2.7 0 4.8 8 4.8 18s-2.1 18-4.8 18zm-60.9 1.5c-2.7 0-4.8-8-4.8-18s2.2-18 4.8-18c2.7 0 4.8 8 4.8 18s-2.2 18-4.8 18z" fill="#fff"/><g fill="#a5b0b8"><path d="M251.3 47.7l8.7-18.9c.1-.2.2-.3.5-.3h.3c.3 0 .4.1.5.3l8.6 18.9c.2.4-.1.7-.5.7H267c-.4 0-.6-.2-.8-.6l-1.4-3h-8.4l-1.4 3c-.1.3-.4.6-.8.6h-2.4c-.4 0-.6-.4-.5-.7zm12.2-6l-2.8-6.2h-.1l-2.8 6.2h5.7zM275.3 29.3c0-.3.2-.5.5-.5h6.6c3.5 0 6.3 2.8 6.3 6.2 0 3.5-2.8 6.3-6.3 6.3H279v6.6c0 .3-.3.5-.5.5h-2.6c-.3 0-.5-.3-.5-.5V29.3zm6.9 8.5c1.6 0 2.9-1.3 2.9-2.9 0-1.5-1.3-2.7-2.9-2.7H279v5.6h3.2zM291.1 47.7l8.7-18.9c.1-.2.2-.3.5-.3h.3c.3 0 .4.1.5.3l8.6 18.9c.2.4-.1.7-.5.7h-2.4c-.4 0-.6-.2-.8-.6l-1.4-3h-8.4l-1.4 3c-.1.3-.4.6-.8.6h-2.4c-.5 0-.7-.4-.5-.7zm12.1-6l-2.8-6.2h-.1l-2.8 6.2h5.7zM323.6 28.5c2.8 0 4.9.9 6.8 2.6.3.2.3.6 0 .8l-1.7 1.8c-.2.2-.5.2-.7 0-1.2-1-2.8-1.7-4.3-1.7-3.6 0-6.3 3-6.3 6.5s2.7 6.5 6.3 6.5c1.7 0 3.1-.6 4.3-1.6.2-.2.5-.2.7 0l1.7 1.8c.2.2.2.6 0 .8-1.9 1.9-4.3 2.7-6.8 2.7-5.6 0-10.1-4.5-10.1-10.1s4.5-10.1 10.1-10.1zM336.9 29.3c0-.3.3-.5.5-.5h2.6c.3 0 .5.3.5.5v7.4h9.1v-7.4c0-.3.2-.5.5-.5h2.6c.3 0 .5.3.5.5v18.6c0 .3-.3.5-.5.5h-2.6c-.3 0-.5-.3-.5-.5v-7.7h-9.1v7.7c0 .3-.2.5-.5.5h-2.6c-.3 0-.5-.3-.5-.5V29.3zM361.3 29.3c0-.3.2-.5.5-.5h11.4c.3 0 .5.3.5.5v2.3c0 .3-.2.5-.5.5h-8.3v4.6h6.9c.3 0 .5.3.5.5v2.3c0 .3-.3.5-.5.5h-6.9v5h8.3c.3 0 .5.3.5.5v2.3c0 .3-.2.5-.5.5h-11.4c-.3 0-.5-.3-.5-.5V29.3z"/></g><g fill="#fff"><path d="M936.7 71.6h-10.5c-.5 0-1 .4-1 1v2c0 .5.4 1 1 1h3.2v13c0 .5.4 1 1 1h2.2c.5 0 1-.4 1-1v-13h3.2c.5 0 1-.4 1-1v-2c-.1-.5-.6-1-1.1-1zM960 88.3l-2.8-16.1c-.1-.5-.4-.8-.9-.8h-.4c-.4 0-.7.2-.9.5l-4.9 10.5-4.9-10.5c-.2-.3-.5-.5-.9-.5h-.3c-.5 0-.9.3-.9.8l-2.9 16.2c0 .3 0 .6.2.8.2.2.4.3.7.3h2.2c.5 0 .9-.4.9-.8l1.2-7.6 3.6 8c.2.3.5.5.9.5h.4c.4 0 .8-.2.9-.6l3.6-8 1.2 7.6c.1.4.5.7.9.7h2.2c.3 0 .6-.1.8-.3.1-.1.1-.4.1-.7z"/></g><g fill="#fff"><path d="M322.4 139c-.8-.8-1.9-1.2-3-1.2s-2.1.4-2.9 1.1c-5.6 4.6-11.8 6.9-18.4 6.9-15 0-26.7-12.1-26.7-27.6 0-15.6 11.7-27.9 26.6-27.9 6.6 0 13.3 2.6 18.4 7 .9.8 1.9 1.3 3 1.3s2.2-.5 3-1.4l7.8-8c.9-.9 1.4-2.1 1.3-3.3 0-1.2-.6-2.4-1.5-3.2-9.6-8.6-19.6-12.4-32.4-12.4-26.6 0-48.3 21.7-48.3 48.3 0 12.9 5 25 14.1 34.1 9.1 9 21.2 14 34.2 14 12.5 0 23.8-4.5 32.6-13 .9-.9 1.4-2.2 1.4-3.5 0-1.1-.5-2.1-1.3-2.8l-7.9-8.4zM389.5 70.1c-12.9 0-25 5-34.1 14.1-9 9.1-14 21.2-14 34.2 0 27 21.1 48.1 48.1 48.1 13 0 25.1-5 34.1-14 9.1-9 14.1-21.1 14.1-34.1 0-26.6-21.6-48.3-48.2-48.3zm0 75.7c-15.1 0-27.4-12.3-27.4-27.4 0-15.2 12.3-27.6 27.4-27.6 14.9 0 27.5 12.7 27.5 27.6 0 15.1-12.3 27.4-27.5 27.4zM534.3 101c0-16.3-13.4-29.6-30-29.6h-41.7c-2.4 0-4.4 2-4.4 4.4v84.9c0 2.4 2 4.4 4.4 4.4h11.8c2.4 0 4.4-2 4.4-4.4V130h15l17.5 32.9c.5 1.1 1.8 2.3 3.8 2.3h13.5c1.7 0 3.1-.8 3.9-2.1.8-1.4.8-3.1 0-4.6L516 127.8c11.4-5.2 18.3-15.4 18.3-26.8zm-20.6.3c0 6-4.9 11.1-10.7 11.1h-24V90.8h24c5.8 0 10.7 4.8 10.7 10.5zM591.1 71.4h-30.4c-2.3 0-4.3 2-4.3 4.4v84.9c0 2.4 2 4.4 4.3 4.4h30.4c25.9 0 47-21.1 47-47 0-25.7-21.1-46.7-47-46.7zm25.3 46.8c0 15.9-11.3 27.4-26.9 27.4h-12.6V90.9h12.6c15.6 0 26.9 11.5 26.9 27.3zM701.4 70.1c-12.9 0-25 5-34.1 14.1-9 9.1-14 21.2-14 34.2 0 27 21.1 48.1 48.1 48.1 13 0 25.1-5 34.1-14 9.1-9 14.1-21.1 14.1-34.1 0-26.6-21.6-48.3-48.2-48.3zm0 75.7c-15.1 0-27.4-12.3-27.4-27.4 0-15.2 12.3-27.6 27.4-27.6 14.9 0 27.5 12.7 27.5 27.6 0 15.1-12.3 27.4-27.5 27.4zM843.4 73.4c-.8-1.3-2.2-2-3.8-2h-13.1c-2.1 0-3.5 1.3-4 2.6l-23.3 52.1-23.2-52c-.5-1.3-2-2.7-4-2.7h-13.1c-1.6 0-3 .7-3.8 2-.8 1.2-.9 2.8-.2 4.2l39.7 86.4c.8 1.6 2.2 2.5 4 2.5h1.3c1.7 0 3.2-.9 4-2.6l39.8-86.3c.6-1.4.5-3-.3-4.2zM922 159.1l-39.5-86.4c-.3-.6-1.3-2.5-4-2.5h-1.3c-1.7 0-3.2.9-4 2.6L833.3 159c-.7 1.4-.6 3 .2 4.2.8 1.2 2.2 2 3.8 2h11.2c2.5 0 4.6-1.4 5.5-3.7l5.8-12.7h35.8l5.8 12.7c.9 1.8 2.3 3.7 5.5 3.7H918c1.6 0 3-.7 3.8-2 .8-1.2.8-2.7.2-4.1zm-34.6-28.5h-19.6l9.7-21.8 9.9 21.8z"/></g></svg>