<svg width="90" height="126" fill="none" xmlns="http://www.w3.org/2000/svg"><path d="M81.418 115.982L45 125.788 8.58 115.982.177 24.936h89.646l-8.405 91.046z" fill="#2062AF"/><path d="M44.999 32.311v85.656l.082.022 29.472-7.936 6.803-77.742H44.999z" fill="#3C9CD7"/><path d="M24.33 11.56V6.143h7.907V.212H18.401v16.76h13.836V11.56h-7.906zm22.13-5.418h5.527V.212H38.15v5.93c1.851 1.85 2.817 2.737 5.494 5.414-1.565 0-5.494.006-5.494.006v5.41h13.837V11.56L46.46 6.14zm19.612 0h5.527V.212H57.76v5.93c1.851 1.85 2.817 2.737 5.495 5.414-1.565 0-5.495.006-5.495.006v5.41h13.838V11.56l-5.527-5.42zM44.967 55.077L18.901 65.932l.865 10.748 25.201-10.775 26.808-11.462 1.111-10.994-27.919 11.628z" fill="#fff"/><path d="M18.901 65.932l.864 10.748 25.202-10.776V55.076L18.9 65.932z" fill="url(#paint0_linear)"/><path d="M72.886 43.449l-27.92 11.627v10.829l26.808-11.462 1.112-10.994z" fill="url(#paint1_linear)"/><path d="M18.94 65.932l.866 10.748 38.668.123-.865 14.331-12.724 3.582-12.232-3.088-.741-8.895H20.547l1.482 17.171 22.98 6.795 22.853-6.671 2.966-34.096H18.94z" fill="url(#paint2_linear)"/><path opacity=".05" d="M44.967 65.932H18.901l.865 10.748 25.201.08V65.932zm0 28.75l-.123.034-12.23-3.088-.741-8.895H20.507l1.483 17.172 22.977 6.794V94.682z" fill="#000"/><path d="M16.554 43.449h56.332l-1.111 10.994H17.912L16.555 43.45z" fill="url(#paint3_linear)"/><path opacity=".05" d="M44.967 43.449H16.554l1.359 10.994h27.054V43.45z" fill="#000"/><defs><linearGradient id="paint0_linear" x1="31.934" y1="76.68" x2="31.934" y2="55.076" gradientUnits="userSpaceOnUse"><stop offset=".387" stop-color="#D1D3D4" stop-opacity="0"/><stop offset="1" stop-color="#D1D3D4"/></linearGradient><linearGradient id="paint1_linear" x1="58.926" y1="65.905" x2="58.926" y2="43.449" gradientUnits="userSpaceOnUse"><stop offset=".387" stop-color="#D1D3D4" stop-opacity="0"/><stop offset="1" stop-color="#D1D3D4"/></linearGradient><linearGradient id="paint2_linear" x1="18.941" y1="86.316" x2="70.827" y2="86.316" gradientUnits="userSpaceOnUse"><stop stop-color="#E8E7E5"/><stop offset="1" stop-color="#fff"/></linearGradient><linearGradient id="paint3_linear" x1="16.554" y1="48.946" x2="72.886" y2="48.946" gradientUnits="userSpaceOnUse"><stop stop-color="#E8E7E5"/><stop offset="1" stop-color="#fff"/></linearGradient></defs></svg>