<svg width="40" height="40" viewBox="0 0 40 40" fill="none" xmlns="http://www.w3.org/2000/svg">
<rect width="40" height="40" fill="white"/>
<path d="M3.22127 22.7978V18.9551H7.94567V18.7303H3.22127V15.2247H8.24437V15H3V23.0225H8.28859V22.7978H3.22127ZM12.5484 17.2472L10.59 19.8652L8.67588 17.2472H8.3882L10.4572 20.0338L8.18898 23.0224H8.45454L10.5899 20.2021L12.7364 23.0224H13.0129L10.7337 20.0336L12.8138 17.2471L12.5484 17.2472ZM13.6769 25V21.4046H13.699C13.8318 21.9289 14.0936 22.3502 14.4846 22.6686C14.8755 22.9869 15.3733 23.1461 15.9782 23.1461C16.3691 23.1461 16.7158 23.0656 17.0182 22.9046C17.3206 22.7435 17.5733 22.5244 17.7761 22.2473C17.9789 21.9701 18.1339 21.648 18.2408 21.2809C18.3477 20.9139 18.4013 20.5281 18.4013 20.1237C18.4013 19.6892 18.3459 19.2884 18.2353 18.9214C18.1246 18.5544 17.9642 18.236 17.754 17.9664C17.5438 17.6967 17.2893 17.4869 16.9905 17.3372C16.6918 17.1873 16.3544 17.1124 15.9782 17.1124C15.6905 17.1124 15.4231 17.1555 15.1761 17.2416C14.929 17.3278 14.7095 17.4495 14.5178 17.6068C14.3249 17.7653 14.157 17.9529 14.0199 18.163C13.8797 18.3765 13.7728 18.6105 13.699 18.8653H13.6769V17.2472H13.4556V25H13.6769ZM15.9782 22.9326C15.2849 22.9326 14.7279 22.691 14.3075 22.2079C13.8871 21.7248 13.6769 21.0299 13.6769 20.1236C13.6769 19.749 13.7285 19.3932 13.8318 19.0562C13.9351 18.7191 14.0844 18.4232 14.2798 18.1686C14.4753 17.9138 14.7169 17.7116 15.0045 17.5618C15.2922 17.412 15.6168 17.3371 15.9782 17.3371C16.347 17.3371 16.6697 17.412 16.9463 17.5618C17.2229 17.7116 17.4516 17.9157 17.6323 18.1742C17.813 18.4326 17.9494 18.7285 18.0417 19.0618C18.1339 19.3951 18.1799 19.749 18.1799 20.1236C18.1799 20.4607 18.1376 20.7959 18.0527 21.1292C17.9679 21.4626 17.8369 21.7622 17.6599 22.0282C17.4829 22.294 17.2562 22.5112 16.9795 22.6798C16.7029 22.8483 16.3691 22.9326 15.9782 22.9326ZM19.6183 23.0225V19.7528C19.6183 19.4382 19.6625 19.131 19.7511 18.8315C19.8396 18.5318 19.976 18.2678 20.1604 18.0393C20.3448 17.8109 20.579 17.6311 20.863 17.5C21.147 17.3689 21.4844 17.3146 21.8754 17.3371V17.1124C21.536 17.1049 21.2392 17.1423 20.9847 17.2247C20.7302 17.3071 20.5108 17.4195 20.3264 17.5618C20.142 17.7041 19.9945 17.8708 19.8839 18.0618C19.7733 18.2526 19.6913 18.4589 19.6404 18.6741H19.6183V17.2472H19.397V23.0225L19.6183 23.0225ZM22.152 20.1798H26.9095C26.9243 19.7827 26.8856 19.4008 26.7934 19.0337C26.7012 18.6667 26.5536 18.3408 26.3508 18.0562C26.148 17.7716 25.8861 17.5431 25.5652 17.3708C25.2444 17.1985 24.8627 17.1124 24.4201 17.1124C24.1029 17.1124 23.7931 17.1798 23.4907 17.3147C23.1883 17.4495 22.9227 17.6461 22.6941 17.9045C22.4655 18.1629 22.2811 18.4794 22.1409 18.854C22.0008 19.2285 21.9307 19.6554 21.9307 20.1348C21.9307 20.5618 21.9786 20.9607 22.0745 21.3315C22.1704 21.7022 22.3179 22.0244 22.5171 22.2978C22.7163 22.5712 22.9726 22.7828 23.286 22.9326C23.5995 23.0824 23.9775 23.1536 24.4201 23.1461C25.0692 23.1461 25.615 22.9606 26.0576 22.5899C26.5002 22.2191 26.762 21.6966 26.8432 21.0225H26.6219C26.526 21.6592 26.2807 22.1367 25.8861 22.455C25.4915 22.7734 24.9955 22.9326 24.398 22.9326C23.9923 22.9326 23.6493 22.8614 23.369 22.7191C23.0888 22.5768 22.8601 22.382 22.683 22.1348C22.506 21.8876 22.3751 21.5974 22.2903 21.264C22.2054 20.9307 22.1593 20.5693 22.152 20.1798ZM26.6882 19.9551H22.152C22.1741 19.5506 22.2479 19.1873 22.3732 18.8652C22.4987 18.543 22.6628 18.2678 22.8656 18.0393C23.0684 17.8109 23.3045 17.6367 23.5737 17.5168C23.8429 17.397 24.1325 17.3371 24.4422 17.3371C24.8111 17.3371 25.1355 17.4064 25.4159 17.545C25.6961 17.6835 25.9303 17.8727 26.1185 18.1124C26.3065 18.3521 26.4485 18.6311 26.5444 18.9494C26.6403 19.2678 26.6882 19.603 26.6882 19.9551ZM31.5012 18.9551H31.7224C31.7224 18.3109 31.538 17.8427 31.1693 17.5506C30.8004 17.2584 30.2988 17.1124 29.6645 17.1124C29.3104 17.1124 29.0117 17.1573 28.7683 17.2472C28.5249 17.3371 28.3257 17.4532 28.1708 17.5955C28.016 17.7378 27.9053 17.8951 27.8389 18.0674C27.7725 18.2397 27.7393 18.4045 27.7393 18.5618C27.7393 18.8764 27.7946 19.1273 27.9053 19.3146C28.016 19.5019 28.1893 19.6479 28.4253 19.7528C28.5876 19.8277 28.7719 19.8951 28.9785 19.9551C29.185 20.015 29.4248 20.0787 29.6977 20.146C29.9411 20.2061 30.1808 20.2659 30.4169 20.3258C30.6529 20.3858 30.8613 20.4663 31.042 20.5674C31.2227 20.6685 31.3702 20.7978 31.4846 20.9551C31.5988 21.1124 31.656 21.3184 31.656 21.573C31.656 21.8202 31.5989 22.03 31.4846 22.2022C31.3712 22.3736 31.222 22.5175 31.0475 22.6236C30.8705 22.7322 30.6731 22.8108 30.4556 22.8595C30.238 22.9082 30.0259 22.9326 29.8194 22.9326C29.1482 22.9326 28.6337 22.7809 28.2759 22.4776C27.9182 22.1742 27.7394 21.6966 27.7394 21.0449H27.5181C27.5181 21.7716 27.7117 22.3034 28.0989 22.6405C28.4862 22.9775 29.0597 23.1461 29.8194 23.1461C30.0628 23.1461 30.308 23.1179 30.5552 23.0618C30.8022 23.0056 31.0236 22.9139 31.219 22.7865C31.4128 22.6609 31.5755 22.4918 31.6947 22.2922C31.8165 22.0899 31.8774 21.8427 31.8774 21.5506C31.8774 21.2734 31.8238 21.0487 31.7169 20.8764C31.6099 20.7042 31.4698 20.5618 31.2964 20.4494C31.1231 20.3371 30.9277 20.2491 30.7101 20.1854C30.4912 20.1214 30.2718 20.0596 30.0517 20C29.7809 19.9278 29.5098 19.8567 29.2385 19.7865C29.0062 19.7266 28.7905 19.6554 28.5913 19.573C28.3995 19.4906 28.2465 19.3727 28.1321 19.2191C28.0178 19.0655 27.9606 18.8464 27.9606 18.5618C27.9606 18.5094 27.9754 18.4157 28.0049 18.2809C28.0344 18.146 28.1045 18.0093 28.2151 17.8708C28.3257 17.7322 28.4954 17.6086 28.7241 17.5C28.9527 17.3914 29.2662 17.3371 29.6645 17.3371C29.9374 17.3371 30.1863 17.3671 30.4113 17.4269C30.6363 17.4869 30.8299 17.5824 30.9922 17.7135C31.1545 17.8446 31.2798 18.0112 31.3684 18.2135C31.4569 18.4158 31.5012 18.6629 31.5012 18.9551ZM36.6238 18.9551H36.8451C36.8451 18.3109 36.6607 17.8427 36.2919 17.5506C35.9231 17.2584 35.4215 17.1124 34.7871 17.1124C34.4331 17.1124 34.1344 17.1573 33.891 17.2472C33.6475 17.3371 33.4484 17.4532 33.2935 17.5955C33.1386 17.7378 33.028 17.8951 32.9616 18.0674C32.8952 18.2397 32.862 18.4045 32.862 18.5618C32.862 18.8764 32.9173 19.1273 33.028 19.3146C33.1386 19.5019 33.312 19.6479 33.548 19.7528C33.7103 19.8277 33.8946 19.8951 34.1012 19.9551C34.3077 20.015 34.5474 20.0787 34.8203 20.146C35.0638 20.2061 35.3035 20.2659 35.5395 20.3258C35.7756 20.3858 35.9839 20.4663 36.1647 20.5674C36.3454 20.6685 36.4929 20.7978 36.6072 20.9551C36.7216 21.1124 36.7787 21.3184 36.7787 21.573C36.7787 21.8202 36.7216 22.03 36.6072 22.2022C36.4938 22.3736 36.3447 22.5175 36.1703 22.6236C35.9931 22.7322 35.7959 22.8108 35.5782 22.8595C35.3607 22.9082 35.1486 22.9326 34.9421 22.9326C34.2708 22.9326 33.7564 22.7809 33.3987 22.4776C33.0409 22.1742 32.862 21.6966 32.862 21.0449H32.6408C32.6408 21.7716 32.8343 22.3034 33.2216 22.6405C33.6088 22.9775 34.1823 23.1461 34.9421 23.1461C35.1855 23.1461 35.4308 23.1179 35.6779 23.0618C35.9249 23.0056 36.1462 22.9139 36.3417 22.7865C36.5355 22.6609 36.6983 22.4918 36.8175 22.2922C36.9392 22.0899 37 21.8427 37 21.5506C37 21.2734 36.9465 21.0487 36.8396 20.8764C36.7327 20.7042 36.5925 20.5618 36.4191 20.4494C36.2458 20.3371 36.0503 20.2491 35.8328 20.1854C35.6139 20.1214 35.3945 20.0596 35.1744 20C34.9036 19.9278 34.6325 19.8567 34.3612 19.7865C34.1289 19.7266 33.9131 19.6554 33.714 19.573C33.5222 19.4906 33.3691 19.3727 33.2548 19.2191C33.1405 19.0655 33.0833 18.8464 33.0833 18.5618C33.0833 18.5094 33.098 18.4157 33.1276 18.2809C33.1571 18.146 33.2272 18.0093 33.3378 17.8708C33.4484 17.7322 33.6181 17.6086 33.8467 17.5C34.0754 17.3914 34.3888 17.3371 34.7872 17.3371C35.0601 17.3371 35.309 17.3671 35.534 17.4269C35.759 17.4869 35.9526 17.5824 36.1149 17.7135C36.2772 17.8446 36.4025 18.0112 36.4911 18.2135C36.5796 18.4158 36.6238 18.6629 36.6238 18.9551Z" stroke="#02021E"/>
</svg>
