<svg width="40" height="40" fill="none" xmlns="http://www.w3.org/2000/svg"><path fill="#fff" d="M0 0h40v40H0z"/><path d="M3.221 22.798v-3.843h4.725v-.225H3.22v-3.505h5.023V15H3v8.023h5.289v-.225H3.22zm9.327-5.55l-1.958 2.617-1.914-2.618h-.288l2.07 2.787-2.269 2.988h.266l2.135-2.82 2.146 2.82h.277l-2.28-2.988 2.08-2.787h-.265zM13.677 25v-3.595h.022c.133.524.395.945.786 1.264.39.318.888.477 1.493.477.391 0 .738-.08 1.04-.241.303-.162.555-.38.758-.658.203-.277.358-.599.465-.966.107-.367.16-.753.16-1.157 0-.435-.055-.836-.166-1.203a2.895 2.895 0 00-.481-.955c-.21-.27-.465-.48-.764-.629a2.226 2.226 0 00-1.012-.225 2.42 2.42 0 00-.802.13 2.138 2.138 0 00-.658.365c-.193.158-.361.346-.498.556-.14.213-.247.447-.321.702h-.022v-1.618h-.221V25h.22zm2.301-2.067c-.693 0-1.25-.242-1.67-.725-.42-.483-.631-1.178-.631-2.084 0-.375.052-.73.155-1.068a2.78 2.78 0 01.448-.887 2.077 2.077 0 011.698-.832c.369 0 .692.075.968.225.277.15.506.354.686.612.181.259.317.555.41.888.092.333.138.687.138 1.062 0 .337-.042.672-.127 1.005a2.898 2.898 0 01-.393.9 2.152 2.152 0 01-.68.65c-.277.17-.61.254-1.002.254zm3.64.09v-3.27c0-.315.045-.622.133-.922.089-.3.225-.563.41-.792.184-.228.418-.408.702-.539.284-.131.621-.185 1.012-.163v-.225a2.7 2.7 0 00-.89.113 2.152 2.152 0 00-.659.337 1.714 1.714 0 00-.442.5c-.11.19-.193.397-.244.612h-.022v-1.427h-.221v5.776h.221zm2.534-2.843h4.758a4.06 4.06 0 00-.117-1.146 2.873 2.873 0 00-.442-.978 2.263 2.263 0 00-.786-.685c-.32-.172-.702-.259-1.145-.259a2.313 2.313 0 00-1.726.792 3.005 3.005 0 00-.553.95c-.14.375-.21.801-.21 1.28 0 .428.048.827.143 1.197.096.371.244.693.443.967.2.273.456.485.769.635.313.15.691.22 1.134.213.65 0 1.195-.185 1.638-.556.442-.37.704-.893.785-1.567h-.221c-.096.636-.341 1.114-.736 1.432-.395.318-.89.478-1.488.478-.406 0-.749-.072-1.029-.214a1.872 1.872 0 01-.686-.584 2.566 2.566 0 01-.393-.871 4.747 4.747 0 01-.138-1.084zm4.536-.225h-4.536c.022-.404.096-.768.221-1.09.126-.322.29-.597.493-.826a2.06 2.06 0 011.576-.702c.37 0 .694.07.974.208.28.138.514.328.703.567.188.24.33.52.425.837.096.319.144.654.144 1.006zm4.813-1h.221c0-.644-.184-1.112-.553-1.404-.369-.293-.87-.439-1.505-.439-.354 0-.652.045-.896.135-.243.09-.442.206-.597.349-.155.142-.266.3-.332.471-.066.173-.1.337-.1.495 0 .314.056.565.166.753.111.187.284.333.52.438.163.075.347.142.553.202.207.06.447.124.72.191l.719.18c.236.06.444.14.625.241.18.102.328.23.443.388.114.157.171.363.171.618 0 .247-.057.457-.171.63a1.391 1.391 0 01-.438.42 1.928 1.928 0 01-.591.236 2.91 2.91 0 01-.637.074c-.67 0-1.185-.152-1.543-.455-.358-.304-.537-.781-.537-1.433h-.22c0 .727.193 1.258.58 1.595.387.337.96.506 1.72.506.244 0 .489-.028.736-.084.247-.056.469-.148.664-.276.194-.125.357-.294.476-.494.122-.202.182-.45.182-.741 0-.278-.053-.502-.16-.675a1.358 1.358 0 00-.42-.427 2.215 2.215 0 00-.587-.264 34.197 34.197 0 00-.658-.185c-.271-.072-.542-.143-.814-.213a4.88 4.88 0 01-.647-.214 1.1 1.1 0 01-.459-.354c-.114-.154-.171-.373-.171-.657 0-.053.014-.146.044-.281.03-.135.1-.272.21-.41.11-.139.28-.262.51-.371.228-.109.541-.163.94-.163.272 0 .521.03.746.09.225.06.419.155.581.287.162.13.288.297.376.5.089.202.133.449.133.741zm5.123 0h.221c0-.644-.184-1.112-.553-1.404-.369-.293-.87-.439-1.505-.439-.354 0-.653.045-.896.135-.243.09-.443.206-.597.349-.155.142-.266.3-.332.471-.067.173-.1.337-.1.495 0 .314.055.565.166.753.11.187.284.333.52.438.162.075.347.142.553.202.207.06.446.124.72.191.243.06.483.12.718.18.237.06.445.14.626.241.18.102.328.23.442.388.115.157.172.363.172.618 0 .247-.057.457-.172.63a1.391 1.391 0 01-.437.42 1.93 1.93 0 01-.592.236c-.217.05-.43.074-.636.074-.671 0-1.186-.152-1.543-.455-.358-.304-.537-.781-.537-1.433h-.221c0 .727.193 1.258.58 1.595.388.337.961.506 1.721.506.243 0 .489-.028.736-.084.247-.056.468-.148.664-.276.194-.125.356-.294.476-.494.121-.202.182-.45.182-.741 0-.278-.053-.502-.16-.675a1.357 1.357 0 00-.42-.427 2.217 2.217 0 00-.587-.264 34.197 34.197 0 00-.659-.185c-.27-.072-.541-.143-.813-.213a4.876 4.876 0 01-.647-.214 1.1 1.1 0 01-.46-.354c-.113-.154-.17-.373-.17-.657 0-.053.014-.146.044-.281.03-.135.1-.272.21-.41.11-.139.28-.262.509-.371.228-.109.542-.163.94-.163.273 0 .522.03.747.09.225.06.419.155.58.287.163.13.289.297.377.5.089.202.133.449.133.741z" stroke="#02021E"/></svg>