<svg width="102" height="142" viewBox="0 0 102 142" fill="none" xmlns="http://www.w3.org/2000/svg">
<path d="M10.064 0H16.4429V6.32344H22.3226V0H28.7015V19.1367H22.3226V12.7578H16.4983V19.1367H10.064V0ZM37.1327 6.37891H31.5026V0H49.1694V6.37891H43.5116V19.1367H37.1327V6.37891ZM51.9706 0H58.6546L62.7593 6.73945L66.864 0H73.548V19.1367H67.169V9.65156L62.7038 16.5297L58.2386 9.65156V19.1367H51.9706V0ZM76.7097 0H83.089V12.8133H92.13V19.1367H76.7097" fill="white"/>
<path d="M9.84234 130.629L0.689941 27.9009H101.31L92.158 130.574L50.9169 142" fill="#E44D26"/>
<path d="M51 133.264V36.332H92.13L84.281 123.973" fill="#F16529"/>
<path d="M19.3828 48.896H51V61.4874H33.1945L34.3594 74.3839H51V86.9476H22.8219L19.3828 48.896ZM23.3766 93.271H36.0234L36.9109 103.339L51 107.11V120.257L25.1516 113.046" fill="#EBEBEB"/>
<path d="M82.507 48.896H50.9448V61.4874H81.342L82.507 48.896ZM80.205 74.3839H50.9448V86.9753H66.4761L65.0062 103.339L50.9448 107.11V120.201L76.7378 113.046" fill="white"/>
</svg>
