<svg width="102" height="142" fill="none" xmlns="http://www.w3.org/2000/svg"><path d="M10.064 0h6.379v6.323h5.88V0H28.7v19.137h-6.378v-6.38h-5.825v6.38h-6.434V0zm27.069 6.379h-5.63V0h17.666v6.379h-5.657v12.758h-6.38V6.379zM51.97 0h6.684l4.104 6.74L66.864 0h6.684v19.137h-6.379V9.652l-4.465 6.878-4.465-6.878v9.485H51.97V0zM76.71 0h6.379v12.813h9.041v6.324H76.71" fill="#fff"/><path d="M9.842 130.629L.69 27.901h100.62l-9.152 102.673L50.917 142" fill="#E44D26"/><path d="M51 133.264V36.332h41.13l-7.849 87.641" fill="#F16529"/><path d="M19.383 48.896H51v12.591H33.194l1.165 12.897H51v12.564H22.822l-3.44-38.052zm3.994 44.375h12.646l.888 10.068L51 107.11v13.147l-25.848-7.211" fill="#EBEBEB"/><path d="M82.507 48.896H50.945v12.591h30.397l1.165-12.591zm-2.302 25.488h-29.26v12.591h15.531l-1.47 16.364-14.061 3.771v13.091l25.793-7.155" fill="#fff"/></svg>