<svg width="116" height="116" fill="none" xmlns="http://www.w3.org/2000/svg"><path d="M0 0h116v116H0V0z" fill="#F7DF1E"/><path d="M30.5 96.938l8.878-5.372c1.712 3.036 3.27 5.605 7.007 5.605 3.582 0 5.841-1.4 5.841-6.85V53.254h10.9v37.22c0 11.29-6.617 16.429-16.274 16.429-8.72 0-13.782-4.516-16.351-9.967v.001zm38.548-1.168l8.876-5.14c2.336 3.817 5.373 6.62 10.745 6.62 4.518 0 7.398-2.259 7.398-5.374 0-3.737-2.96-5.06-7.943-7.24l-2.724-1.17c-7.865-3.347-13.082-7.552-13.082-16.428 0-8.177 6.23-14.406 15.963-14.406 6.93 0 11.913 2.414 15.495 8.721l-8.488 5.451c-1.87-3.348-3.893-4.672-7.008-4.672-3.192 0-5.217 2.025-5.217 4.672 0 3.27 2.025 4.595 6.696 6.62l2.725 1.167c9.267 3.972 14.484 8.02 14.484 17.13 0 9.812-7.709 15.184-18.065 15.184-10.123 0-16.663-4.827-19.856-11.135" fill="#000"/></svg>