<svg width="100" height="50" viewBox="0 0 100 50" fill="none" xmlns="http://www.w3.org/2000/svg">
<path d="M7.579 11.123H21.783C25.952 11.158 28.973 12.36 30.846 14.727C32.719 17.094 33.337 20.327 32.701 24.426C32.454 26.299 31.906 28.136 31.058 29.938C30.245 31.74 29.115 33.365 27.666 34.814C25.899 36.651 24.009 37.817 21.995 38.312C19.981 38.807 17.896 39.054 15.741 39.054H9.381L7.367 49.124H0L7.579 11.123V11.123ZM13.78 17.165L10.6 33.065C10.812 33.1 11.024 33.118 11.236 33.118C11.483 33.118 11.731 33.118 11.978 33.118C15.37 33.153 18.197 32.818 20.458 32.111C22.719 31.369 24.239 28.79 25.016 24.373C25.652 20.663 25.016 18.525 23.108 17.96C21.235 17.395 18.886 17.13 16.059 17.165C15.635 17.2 15.229 17.218 14.84 17.218C14.487 17.218 14.116 17.218 13.727 17.218L13.78 17.165" fill="white"/>
<path d="M41.093 1H48.407L46.34 11.123H52.912C56.516 11.194 59.201 11.936 60.968 13.349C62.77 14.762 63.3 17.448 62.558 21.405L59.007 39.054H51.587L54.979 22.2C55.332 20.433 55.226 19.179 54.661 18.437C54.096 17.695 52.877 17.324 51.004 17.324L45.121 17.271L40.775 39.054H33.461L41.093 1Z" fill="white"/>
<path d="M70.412 11.123H84.616C88.785 11.158 91.806 12.36 93.679 14.727C95.552 17.094 96.17 20.327 95.534 24.426C95.287 26.299 94.739 28.136 93.891 29.938C93.078 31.74 91.948 33.365 90.499 34.814C88.732 36.651 86.842 37.817 84.828 38.312C82.814 38.807 80.729 39.054 78.574 39.054H72.214L70.2 49.124H62.833L70.412 11.123V11.123ZM76.613 17.165L73.433 33.065C73.645 33.1 73.857 33.118 74.069 33.118C74.316 33.118 74.564 33.118 74.811 33.118C78.203 33.153 81.03 32.818 83.291 32.111C85.552 31.369 87.072 28.79 87.849 24.373C88.485 20.663 87.849 18.525 85.941 17.96C84.068 17.395 81.719 17.13 78.892 17.165C78.468 17.2 78.062 17.218 77.673 17.218C77.32 17.218 76.949 17.218 76.56 17.218L76.613 17.165" fill="white"/>
</svg>
