<svg width="158" height="142" fill="none" xmlns="http://www.w3.org/2000/svg"><path d="M.465 70.846c0 11.863 11.58 22.937 29.836 29.179-3.646 18.36-.653 33.158 9.341 38.924 10.273 5.927 25.577 1.824 40.103-10.879 14.16 12.19 28.47 16.987 38.456 11.205 10.263-5.944 13.384-21.745 9.638-40.678 19.015-6.289 29.651-15.732 29.651-27.751 0-11.588-11.601-21.613-29.611-27.815 4.033-19.715.616-34.154-9.792-40.158-10.035-5.789-24.512-.744-38.88 11.765C64.26 1.36 49.928-2.692 39.53 3.329c-10.025 5.805-12.886 20.873-9.228 39.572C12.66 49.053.465 59.305.465 70.846z" fill="#fff"/><path d="M124.065 49.19a93.583 93.583 0 00-4.489-1.415c.25-1.017.481-2.038.693-3.063 3.398-16.502 1.177-29.795-6.411-34.172-7.274-4.196-19.172.18-31.188 10.64a93.27 93.27 0 00-3.472 3.188 84.924 84.924 0 00-2.31-2.135c-12.594-11.186-25.217-15.9-32.796-11.51-7.268 4.208-9.42 16.706-6.361 32.345.304 1.549.648 3.09 1.03 4.62a92.476 92.476 0 00-5.161 1.624c-14.764 5.15-24.193 13.22-24.193 21.59 0 8.646 10.122 17.318 25.5 22.576 1.247.424 2.504.817 3.771 1.179a91.27 91.27 0 00-1.095 4.98c-2.917 15.367-.64 27.569 6.61 31.752 7.486 4.318 20.052-.121 32.287-10.82a79.378 79.378 0 002.91-2.683 91.61 91.61 0 003.77 3.44c11.852 10.203 23.557 14.323 30.799 10.129 7.48-4.332 9.911-17.44 6.755-33.388a79.144 79.144 0 00-.837-3.728c.883-.261 1.749-.53 2.594-.81 15.987-5.299 26.388-13.865 26.388-22.627 0-8.4-9.733-16.525-24.794-21.712z" fill="#53C1DE"/><path d="M120.597 87.872a77.75 77.75 0 01-2.342.733c-1.765-5.59-4.147-11.533-7.062-17.673 2.782-5.995 5.072-11.862 6.787-17.415 1.427.413 2.812.849 4.146 1.309 12.905 4.443 20.776 11.014 20.776 16.077 0 5.392-8.501 12.394-22.304 16.97h-.001zm-5.727 11.353c1.395 7.052 1.595 13.428.67 18.412-.831 4.479-2.501 7.464-4.566 8.66-4.394 2.545-13.793-.763-23.928-9.488a85.217 85.217 0 01-3.507-3.198c3.93-4.299 7.856-9.298 11.69-14.848 6.741-.598 13.11-1.577 18.886-2.912.284 1.148.537 2.274.755 3.374zm-57.92 26.633c-4.294 1.517-7.714 1.56-9.78.368-4.4-2.538-6.228-12.336-3.734-25.477a85.476 85.476 0 011.018-4.632c5.712 1.264 12.035 2.174 18.793 2.722 3.858 5.431 7.898 10.423 11.97 14.795a72.171 72.171 0 01-2.657 2.447c-5.41 4.732-10.832 8.088-15.61 9.777zm-20.116-38.02c-6.8-2.324-12.415-5.346-16.265-8.643-3.458-2.963-5.205-5.905-5.205-8.292 0-5.08 7.571-11.56 20.198-15.963a86.018 86.018 0 014.8-1.51c1.744 5.677 4.034 11.614 6.796 17.618-2.798 6.093-5.12 12.124-6.881 17.869a73.428 73.428 0 01-3.443-1.078zm6.743-45.915c-2.62-13.399-.88-23.506 3.5-26.042 4.665-2.702 14.981 1.15 25.854 10.808a77.93 77.93 0 012.092 1.933c-4.05 4.352-8.054 9.306-11.879 14.706-6.558.608-12.837 1.585-18.608 2.893a87.291 87.291 0 01-.959-4.298zm60.153 14.86a189.142 189.142 0 00-4.24-6.977c4.449.562 8.712 1.309 12.715 2.223-1.202 3.853-2.699 7.882-4.463 12.012a208.675 208.675 0 00-4.012-7.259zM79.2 32.88c2.747 2.978 5.5 6.303 8.206 9.91-5.49-.259-10.99-.26-16.482-.003A131.39 131.39 0 0179.2 32.88zM54.512 56.823a176.112 176.112 0 00-3.936 7.214 131.569 131.569 0 01-4.431-12.071c3.978-.891 8.221-1.619 12.642-2.171a175.049 175.049 0 00-4.275 7.028zm4.402 35.613c-4.567-.51-8.874-1.2-12.852-2.067 1.232-3.977 2.749-8.111 4.52-12.316a175.083 175.083 0 008.332 14.383zm20.45 16.91c-2.823-3.048-5.64-6.419-8.39-10.045 2.67.105 5.392.158 8.16.158 2.842 0 5.652-.064 8.417-.187-2.715 3.692-5.457 7.068-8.186 10.074zm28.434-31.507c1.864 4.25 3.436 8.362 4.683 12.272-4.043.923-8.408 1.666-13.008 2.218a208.33 208.33 0 004.281-7.099 188.724 188.724 0 004.044-7.391zm-9.204 4.414a195.339 195.339 0 01-6.69 10.799c-4.138.295-8.414.448-12.77.448-4.34 0-8.561-.135-12.627-.4a169.123 169.123 0 01-12.765-22.054 169.114 169.114 0 015.932-11.247v.002a167.526 167.526 0 016.762-10.769 168.689 168.689 0 0125.42.004 179.44 179.44 0 016.718 10.732 195.36 195.36 0 016.012 11.193 179.625 179.625 0 01-5.992 11.292zm12.289-66.55c4.669 2.695 6.486 13.559 3.552 27.807a81.999 81.999 0 01-.627 2.773c-5.786-1.336-12.068-2.33-18.646-2.947-3.832-5.458-7.802-10.422-11.788-14.717a87.64 87.64 0 013.207-2.943c10.295-8.963 19.918-12.502 24.302-9.973z" fill="#fff"/><path d="M79.133 58.445c6.878 0 12.453 5.578 12.453 12.457 0 6.88-5.575 12.458-12.453 12.458-6.877 0-12.452-5.577-12.452-12.458 0-6.88 5.575-12.457 12.452-12.457z" fill="#53C1DE"/></svg>