<svg width="42" height="40" fill="none" xmlns="http://www.w3.org/2000/svg"><path d="M21 23.39a3.732 3.732 0 100-7.463 3.732 3.732 0 000 7.463z" fill="#00D8FF"/><path d="M21 12.071c5.01 0 9.664.72 13.173 1.927C38.4 15.453 41 17.659 41 19.657c0 2.082-2.755 4.426-7.295 5.93-3.432 1.136-7.949 1.73-12.704 1.73-4.877 0-9.493-.557-12.964-1.743C3.645 24.074 1 21.699 1 19.657c0-1.982 2.482-4.17 6.65-5.624 3.523-1.227 8.292-1.962 13.35-1.962v0z" stroke="#00D8FF" stroke-miterlimit="10"/><path d="M14.397 15.887c2.502-4.34 5.45-8.012 8.25-10.448 3.373-2.935 6.583-4.084 8.314-3.087 1.803 1.04 2.457 4.598 1.492 9.283-.73 3.542-2.472 7.75-4.848 11.871-2.436 4.224-5.225 7.945-7.987 10.36-3.493 3.054-6.872 4.159-8.64 3.14-1.717-.991-2.374-4.235-1.551-8.572.696-3.668 2.442-8.165 4.97-12.547v0z" stroke="#00D8FF" stroke-miterlimit="10"/><path d="M14.403 23.515c-2.51-4.336-4.219-8.724-4.932-12.366-.858-4.388-.251-7.743 1.478-8.743 1.801-1.044 5.21.166 8.786 3.342 2.705 2.4 5.48 6.012 7.864 10.128 2.443 4.22 4.274 8.495 4.985 12.092.902 4.553.172 8.032-1.595 9.055-1.716.992-4.853-.059-8.2-2.938-2.827-2.433-5.852-6.192-8.386-10.57v0z" stroke="#00D8FF" stroke-miterlimit="10"/></svg>