<svg width="158" height="142" viewBox="0 0 158 142" fill="none" xmlns="http://www.w3.org/2000/svg">
<path d="M0.465332 70.8457C0.465332 82.7088 12.0451 93.783 30.3008 100.025C26.6552 118.385 29.6478 133.183 39.6422 138.949C49.9148 144.876 65.2192 140.773 79.7453 128.07C93.9049 140.26 108.215 145.057 118.201 139.275C128.464 133.331 131.585 117.53 127.839 98.5968C146.854 92.3081 157.49 82.865 157.49 70.8457C157.49 59.2578 145.889 49.2333 127.879 43.0309C131.912 23.3158 128.495 8.87685 118.087 2.87271C108.052 -2.91595 93.5753 2.12937 79.2078 14.6377C64.2601 1.36134 49.9265 -2.69184 39.5292 3.32896C29.504 9.1343 26.6435 24.2017 30.3008 42.9007C12.6611 49.053 0.465332 59.3048 0.465332 70.8457Z" fill="white"/>
<path d="M124.065 49.1899C122.58 48.6805 121.084 48.2087 119.576 47.7748C119.826 46.7582 120.057 45.7371 120.269 44.7119C123.667 28.2103 121.446 14.9166 113.858 10.5405C106.584 6.34352 94.686 10.7196 82.6699 21.1801C81.4858 22.2132 80.3281 23.276 79.1977 24.3676C78.4408 23.6418 77.6704 22.93 76.8871 22.2327C64.2939 11.0468 51.6711 6.33364 44.0917 10.7227C36.824 14.9314 34.6714 27.4293 37.7306 43.0678C38.035 44.6165 38.3787 46.1572 38.7613 47.6884C36.9752 48.1959 35.2503 48.7367 33.6 49.3121C18.8362 54.4612 9.40723 62.5317 9.40723 70.9023C9.40723 79.5482 19.5287 88.2201 34.9071 93.4778C36.1541 93.9022 37.4114 94.2954 38.678 94.657C38.2665 96.3067 37.9012 97.9675 37.5825 99.6375C34.6658 115.004 36.9438 127.206 44.1923 131.389C51.6791 135.707 64.2445 131.268 76.4804 120.569C77.4475 119.723 78.4183 118.826 79.3903 117.886C80.6146 119.067 81.8717 120.215 83.1599 121.326C95.0119 131.529 106.717 135.649 113.959 131.455C121.439 127.123 123.87 114.015 120.714 98.0675C120.473 96.8494 120.192 95.6054 119.877 94.3385C120.76 94.0779 121.626 93.8087 122.471 93.5285C138.458 88.23 148.859 79.6637 148.859 70.9023C148.859 62.5014 139.126 54.3766 124.065 49.1899Z" fill="#53C1DE"/>
<path d="M120.597 87.8722C119.835 88.1247 119.052 88.3686 118.255 88.605C116.49 83.0158 114.108 77.0721 111.193 70.9322C113.975 64.9373 116.265 59.0702 117.98 53.5168C119.407 53.9305 120.792 54.3657 122.126 54.8257C135.031 59.269 142.902 65.8399 142.902 70.9025C142.902 76.2955 134.401 83.2967 120.598 87.8722H120.597ZM114.87 99.2254C116.265 106.277 116.465 112.653 115.54 117.637C114.709 122.116 113.039 125.101 110.974 126.297C106.58 128.842 97.1808 125.534 87.0458 116.809C85.8837 115.809 84.7129 114.741 83.539 113.611C87.4685 109.312 91.3955 104.313 95.2281 98.763C101.97 98.1647 108.339 97.1861 114.115 95.8507C114.399 96.9991 114.652 98.1246 114.87 99.2254ZM56.9492 125.858C52.6556 127.375 49.236 127.418 47.1691 126.226C42.77 123.688 40.9419 113.89 43.4359 100.749C43.7324 99.1961 44.072 97.6516 44.4542 96.1174C50.166 97.3812 56.4888 98.2906 63.2468 98.8389C67.1046 104.27 71.1452 109.262 75.2172 113.634C74.3518 114.472 73.4659 115.288 72.5604 116.081C67.1497 120.813 61.7279 124.169 56.9499 125.858H56.9492ZM36.8341 87.8388C30.0342 85.5137 24.4186 82.4922 20.5694 79.1954C17.1108 76.2319 15.3643 73.29 15.3643 70.9025C15.3643 65.8233 22.935 59.3437 35.5615 54.9399C37.1463 54.3896 38.7469 53.8858 40.3612 53.4291C42.1065 59.1073 44.3956 65.0441 47.158 71.0476C44.3598 77.1407 42.038 83.172 40.2766 88.9168C39.1205 88.5857 37.9726 88.2263 36.8341 87.8388ZM43.5772 41.9234C40.9561 28.5242 42.6965 18.4169 47.0765 15.8806C51.7422 13.1789 62.0581 17.0314 72.9313 26.6893C73.6262 27.3067 74.3242 27.9531 75.0234 28.6217C70.9724 32.9737 66.9689 37.9283 63.1443 43.328C56.5857 43.9361 50.3074 44.9128 44.5357 46.2211C44.1801 44.7966 43.8605 43.3634 43.5772 41.9228V41.9234ZM103.73 56.7822C102.367 54.4265 100.953 52.1004 99.4896 49.8057C103.939 50.3675 108.202 51.1145 112.205 52.0289C111.003 55.882 109.506 59.9111 107.742 64.0415C106.453 61.5952 105.115 59.175 103.73 56.7822ZM79.1998 32.8805C81.9474 35.8582 84.6993 39.1834 87.4062 42.7909C81.9153 42.5313 76.4153 42.5301 70.9243 42.7872C73.6336 39.2131 76.409 35.8927 79.1998 32.8805ZM54.5121 56.8229C53.1441 59.1967 51.8316 61.6021 50.5758 64.0372C48.841 59.921 47.3567 55.874 46.1446 51.9659C50.1234 51.075 54.3664 50.3471 58.7872 49.7946C57.3073 52.1035 55.8819 54.447 54.5121 56.8229ZM58.9143 92.4359C54.3473 91.926 50.0401 91.2351 46.0625 90.3689C47.2937 86.3917 48.8107 82.2576 50.5826 78.0532C51.8437 80.49 53.1619 82.8969 54.5361 85.2717C55.9384 87.6943 57.3982 90.083 58.9143 92.4359ZM79.3646 109.346C76.541 106.298 73.7249 102.927 70.9743 99.3007C73.6441 99.4057 76.3664 99.4588 79.1331 99.4588C81.9758 99.4588 84.7857 99.3952 87.5512 99.2717C84.8357 102.964 82.0937 106.34 79.3646 109.346ZM107.798 77.8389C109.662 82.0891 111.234 86.2009 112.481 90.1108C108.438 91.0338 104.073 91.7772 99.4729 92.3291C100.947 89.9915 102.374 87.6248 103.754 85.2303C105.157 82.7969 106.505 80.3325 107.798 77.8389ZM98.5935 82.2533C96.4811 85.9243 94.2499 89.5256 91.9034 93.0515C87.766 93.3472 83.4903 93.4997 79.1331 93.4997C74.7939 93.4997 70.5725 93.3645 66.5072 93.1009C64.1 89.5832 61.8266 85.9756 59.6919 82.286C57.5672 78.616 55.5827 74.8665 53.7425 71.0458C55.578 67.2239 57.5566 63.4725 59.674 59.7994V59.8006C61.7908 56.1268 64.0463 52.5347 66.4356 49.0321C70.583 48.7184 74.8352 48.5542 79.1337 48.5542C83.4514 48.5542 87.7092 48.7197 91.8553 49.0358C94.2205 52.533 96.4616 56.1126 98.5743 59.7679C100.699 63.4328 102.704 67.1659 104.586 70.9612C102.723 74.7952 100.725 78.5616 98.5941 82.2533H98.5935ZM110.883 15.7034C115.552 18.3977 117.369 29.262 114.435 43.5095C114.242 44.4376 114.033 45.3622 113.808 46.2828C108.022 44.9474 101.74 43.9534 95.1621 43.336C91.3301 37.8777 87.3599 32.9144 83.3743 28.6186C84.4187 27.6114 85.4879 26.6303 86.581 25.6762C96.8765 16.7129 106.499 13.174 110.883 15.7034Z" fill="white"/>
<path d="M79.1331 58.4453C86.0107 58.4453 91.5856 64.0228 91.5856 70.9024C91.5856 77.7826 86.0107 83.3601 79.1331 83.3601C72.2561 83.3601 66.6807 77.7826 66.6807 70.9024C66.6807 64.0228 72.2561 58.4453 79.1331 58.4453Z" fill="#53C1DE"/>
</svg>
