<svg width="40" height="40" fill="none" xmlns="http://www.w3.org/2000/svg"><path d="M20 1.2a18.716 18.716 0 0110.51 3.21 18.851 18.851 0 016.813 8.273A18.78 18.78 0 0135.59 30.51a18.851 18.851 0 01-8.273 6.813A18.78 18.78 0 019.49 35.59a18.852 18.852 0 01-6.813-8.273A18.78 18.78 0 014.41 9.49a18.896 18.896 0 015.08-5.08A18.716 18.716 0 0120 1.2zM20 0C8.954 0 0 8.954 0 20c0 11.045 8.954 20 20 20 11.045 0 20-8.954 20-20S31.046 0 20 0z" fill="#fff"/><path d="M3.334 19.998c0 6.6 3.833 12.3 9.393 15l-7.95-21.78a16.602 16.602 0 00-1.443 6.78zm27.918-.84c0-2.06-.74-3.485-1.374-4.595-.845-1.374-1.637-2.536-1.637-3.91 0-1.531 1.161-2.957 2.799-2.957.073 0 .143.009.215.013A16.601 16.601 0 0020 3.333c-5.82 0-10.945 2.987-13.925 7.511.391.013.76.02 1.073.02 1.74 0 4.44-.211 4.44-.211.9-.053 1.004 1.267.106 1.373 0 0-.903.106-1.907.159l6.07 18.054 3.649-10.938-2.597-7.116c-.9-.053-1.748-.159-1.748-.159-.9-.052-.793-1.426.106-1.373 0 0 2.751.212 4.39.212 1.74 0 4.44-.212 4.44-.212.9-.053 1.004 1.267.105 1.373 0 0-.904.106-1.907.159L28.32 30.1l1.72-5.448c.764-2.38 1.212-4.068 1.212-5.494zm-10.96 2.298l-5 14.53c3.357.99 6.941.897 10.243-.265a1.512 1.512 0 01-.12-.23l-5.122-14.035zm14.334-9.452c.076.568.115 1.14.114 1.713 0 1.69-.317 3.592-1.268 5.97L28.38 34.404c4.955-2.889 8.287-8.257 8.287-14.406a16.584 16.584 0 00-2.041-7.994z" fill="#fff"/></svg>