<svg width="81" height="40" viewBox="0 0 81 40" fill="none" xmlns="http://www.w3.org/2000/svg">
<path fill-rule="evenodd" clip-rule="evenodd" d="M4.96311 12L0 24.9618H2.90434L3.93373 22.0753H8.84169L9.83431 24.9618H12.8306L7.9226 12H4.96311ZM6.39681 15.1954H6.43357L8.08794 19.9515H4.68729L6.39681 15.1954ZM16.1557 15.5764V16.8834H16.2109C16.5418 16.3388 16.9707 15.9427 17.4976 15.6944C18.0243 15.4465 18.5638 15.3222 19.1152 15.3222C19.8137 15.3222 20.3864 15.416 20.8339 15.6036C21.2812 15.7914 21.6335 16.0514 21.8909 16.3842C22.1482 16.7173 22.329 17.1225 22.4331 17.6005C22.5371 18.0788 22.5894 18.608 22.5894 19.189V24.9619H19.9792V19.661C19.9792 18.8866 19.8566 18.3085 19.6115 17.9273C19.3662 17.546 18.9314 17.3554 18.3064 17.3554C17.5956 17.3554 17.081 17.5642 16.7623 17.9817C16.4435 18.3993 16.2844 19.0863 16.2844 20.0422V24.9619H13.6742V15.5764H16.1557ZM29.7342 22.5293C30.0161 22.384 30.2489 22.1906 30.4327 21.9483C30.6166 21.7063 30.7544 21.431 30.8463 21.1223C30.9382 20.8137 30.9842 20.49 30.9842 20.1511C30.9842 19.7638 30.9474 19.3977 30.8739 19.0528C30.8004 18.7079 30.6776 18.4023 30.5063 18.136C30.3344 17.87 30.1077 17.658 29.8261 17.5007C29.544 17.3436 29.1886 17.2647 28.76 17.2647C28.3923 17.2647 28.0765 17.3373 27.8133 17.4825C27.5496 17.6277 27.329 17.8247 27.1516 18.0725C26.9736 18.3206 26.8452 18.6053 26.7655 18.9257C26.6856 19.2465 26.6461 19.5823 26.6461 19.9333C26.6461 20.2721 26.6798 20.608 26.7472 20.9408C26.8143 21.2739 26.931 21.5732 27.0964 21.8394C27.2619 22.1057 27.4791 22.3235 27.749 22.493C28.0183 22.6626 28.3556 22.7471 28.76 22.7471C29.1276 22.7471 29.4521 22.6745 29.7342 22.5293ZM33.3096 25.6517C33.2054 26.1358 32.9815 26.5866 32.6386 27.0042C32.2953 27.4214 31.799 27.7757 31.1497 28.0662C30.5 28.3566 29.6299 28.5019 28.5395 28.5019C28.0736 28.5019 27.5987 28.4444 27.1149 28.3294C26.6306 28.2144 26.1894 28.0357 25.7914 27.7939C25.3931 27.5516 25.0622 27.2404 24.7988 26.8589C24.535 26.4777 24.3852 26.0208 24.3484 25.4881H26.9403C27.0626 25.9722 27.3015 26.308 27.6572 26.4956C28.0123 26.6834 28.4228 26.7775 28.8887 26.7775C29.624 26.7775 30.1599 26.5591 30.4972 26.1237C30.8342 25.688 30.9963 25.1371 30.9843 24.4717V23.2373H30.9475C30.6654 23.7337 30.2643 24.0996 29.7435 24.3356C29.2224 24.5718 28.6743 24.6893 28.0983 24.6893C27.3876 24.6893 26.7748 24.5655 26.2601 24.3174C25.7454 24.0693 25.3227 23.7304 24.9918 23.3008C24.6609 22.8714 24.4189 22.3689 24.2657 21.794C24.1123 21.2194 24.0359 20.6113 24.0359 19.9696C24.0359 19.3644 24.1245 18.7805 24.3025 18.2177C24.4799 17.655 24.7403 17.1588 25.0837 16.7291C25.4266 16.2995 25.8524 15.9576 26.3612 15.7034C26.8695 15.4493 27.455 15.3222 28.1167 15.3222C28.7417 15.3222 29.2898 15.4374 29.7619 15.6671C30.2334 15.8971 30.6286 16.2844 30.9475 16.829H30.9843V15.5764H33.4658V24.3628C33.4658 24.7382 33.4135 25.1676 33.3096 25.6517ZM41.0812 17.773C40.7685 17.4344 40.2936 17.2647 39.6566 17.2647C39.2397 17.2647 38.8938 17.3345 38.6181 17.4734C38.3421 17.6129 38.1217 17.7851 37.9563 17.9908C37.7906 18.1968 37.6742 18.4147 37.6071 18.6444C37.5394 18.8746 37.4996 19.08 37.4876 19.2616H41.7338C41.6112 18.608 41.3937 18.1121 41.0812 17.773ZM38.1306 22.7108C38.5228 23.0862 39.0868 23.2736 39.822 23.2736C40.3487 23.2736 40.8022 23.1437 41.1823 22.8833C41.5619 22.6233 41.7948 22.3477 41.8808 22.0573H44.1785C43.8107 23.1828 43.2469 23.9876 42.4874 24.4717C41.7274 24.9558 40.8085 25.1979 39.7301 25.1979C38.9823 25.1979 38.3083 25.0799 37.7081 24.8441C37.1076 24.6079 36.5988 24.272 36.1824 23.8366C35.7655 23.4006 35.4438 22.8805 35.2174 22.2751C34.9904 21.6702 34.8773 21.0043 34.8773 20.2782C34.8773 19.5765 34.9935 18.923 35.2266 18.3176C35.4591 17.7127 35.79 17.1893 36.2192 16.7473C36.6478 16.3058 37.1595 15.9576 37.7541 15.7034C38.3482 15.4493 39.0069 15.3222 39.7301 15.3222C40.5389 15.3222 41.2433 15.4765 41.844 15.7851C42.4443 16.0937 42.9375 16.5085 43.3235 17.0287C43.7098 17.5493 43.9883 18.1423 44.1604 18.8077C44.3315 19.4736 44.3927 20.1693 44.3437 20.8954H37.4875C37.5243 21.7305 37.7385 22.3359 38.1306 22.7108ZM45.7332 24.9618H48.3434V12H45.7332V24.9618ZM53.3104 12V22.5655H59.7071V24.9618H50.4242V12H53.3104ZM60.7874 24.9617H63.3979V15.5762H60.7874V24.9617ZM60.7874 14.124H63.3979V12H60.7874V14.124ZM67.4692 22.6291C67.5854 22.8288 67.736 22.9922 67.9196 23.1193C68.1034 23.2463 68.315 23.3401 68.5538 23.4006C68.7927 23.4614 69.0409 23.4914 69.2982 23.4914C69.4823 23.4914 69.6753 23.4705 69.8773 23.4279C70.0797 23.3855 70.263 23.3189 70.4287 23.2282C70.5941 23.1374 70.7323 23.0166 70.8426 22.8651C70.9529 22.7138 71.0075 22.5235 71.0075 22.2933C71.0075 21.906 70.7473 21.6155 70.2268 21.4219C69.7057 21.2285 68.9796 21.0346 68.0483 20.841C67.6681 20.7565 67.2977 20.6566 66.9361 20.5414C66.5746 20.4264 66.253 20.2754 65.9714 20.0876C65.689 19.9 65.4628 19.664 65.2912 19.3796C65.1191 19.0954 65.0339 18.7472 65.0339 18.3357C65.0339 17.7306 65.1531 17.2344 65.3923 16.8471C65.6313 16.4598 65.9463 16.1545 66.3387 15.9304C66.7306 15.7065 67.1721 15.5491 67.6622 15.4584C68.1524 15.3676 68.6551 15.3222 69.1695 15.3222C69.6842 15.3222 70.1834 15.3706 70.6674 15.4674C71.1517 15.5643 71.5835 15.7279 71.9636 15.9576C72.3435 16.1875 72.659 16.4931 72.9103 16.8744C73.1612 17.2556 73.3119 17.7367 73.3606 18.3176H70.8788C70.8426 17.8214 70.6521 17.4855 70.3095 17.31C69.9658 17.1346 69.5614 17.0468 69.0963 17.0468C68.9492 17.0468 68.7897 17.0559 68.6181 17.074C68.4465 17.0922 68.29 17.1315 68.1494 17.192C68.0082 17.2528 67.8892 17.3403 67.7909 17.4553C67.6926 17.5705 67.6439 17.7248 67.6439 17.9182C67.6439 18.1484 67.7296 18.3357 67.9009 18.481C68.0725 18.6262 68.2964 18.7442 68.5721 18.835C68.8479 18.9257 69.1632 19.0074 69.5186 19.08C69.8742 19.1527 70.2357 19.2316 70.6031 19.316C70.9832 19.4008 71.3542 19.5036 71.7157 19.6247C72.0767 19.7457 72.3984 19.906 72.6805 20.1057C72.9623 20.3054 73.1891 20.5538 73.3606 20.85C73.5322 21.1468 73.618 21.5126 73.618 21.9483C73.618 22.5656 73.4924 23.0829 73.2409 23.5005C72.9897 23.918 72.6621 24.2539 72.2577 24.5083C71.8533 24.7622 71.3904 24.9409 70.8699 25.0436C70.3488 25.1464 69.8188 25.1979 69.2798 25.1979C68.7284 25.1979 68.1892 25.1434 67.6622 25.0347C67.135 24.9256 66.6663 24.744 66.256 24.4899C65.8452 24.236 65.5085 23.9001 65.2453 23.4823C64.9815 23.0648 64.8373 22.5414 64.813 21.912H67.2946C67.2946 22.1906 67.3526 22.4294 67.4692 22.6291ZM80.2335 15.5764V17.301H78.3218V21.9483C78.3218 22.384 78.3956 22.6745 78.5426 22.8197C78.6897 22.965 78.9838 23.0376 79.4247 23.0376C79.5717 23.0376 79.7124 23.0315 79.8475 23.0194C79.9823 23.0076 80.1109 22.9894 80.2335 22.965V24.9619C80.0132 24.9982 79.7678 25.0224 79.4985 25.0347C79.2286 25.0466 78.9654 25.0526 78.7081 25.0526C78.3036 25.0526 77.9202 25.0254 77.5592 24.9712C77.1972 24.9165 76.8791 24.8106 76.6033 24.6533C76.3276 24.4962 76.1098 24.272 75.9508 23.9816C75.7912 23.6911 75.7118 23.3099 75.7118 22.8379V17.301H74.1307V15.5764H75.7118V12.7625H78.3218V15.5764H80.2335Z" fill="#80808E"/>
</svg>
