<svg width="81" height="18" fill="none" xmlns="http://www.w3.org/2000/svg"><path fill-rule="evenodd" clip-rule="evenodd" d="M5.603.078L.63 13.722h2.91l1.03-3.038h4.917l.994 3.038h3.002L8.566.078H5.603zm1.436 3.364h.037l1.657 5.006H5.327l1.712-5.006zm9.775.4V5.22h.056c.331-.574.76-.99 1.288-1.252a3.618 3.618 0 011.62-.392c.7 0 1.274.099 1.722.296.448.198.801.472 1.06.822.257.35.438.777.542 1.28.104.504.157 1.061.157 1.673v6.076h-2.615v-5.58c0-.815-.122-1.423-.368-1.825-.246-.4-.681-.602-1.307-.602-.712 0-1.228.22-1.547.66-.32.44-.479 1.162-.479 2.169v5.178H14.33v-9.88h2.485zm13.602 7.32c.282-.153.515-.357.7-.612.183-.255.322-.545.414-.87a3.73 3.73 0 00.138-1.022c0-.407-.037-.793-.11-1.156a2.957 2.957 0 00-.369-.965c-.172-.28-.4-.503-.681-.669-.283-.165-.639-.248-1.068-.248-.369 0-.685.076-.949.23a2.02 2.02 0 00-.662.62c-.179.261-.307.561-.387.898-.08.338-.12.692-.12 1.061 0 .357.034.71.102 1.06.067.351.184.666.35.946.165.28.383.51.653.688.27.179.608.268 1.013.268.368 0 .693-.076.976-.23zm3.581 3.286c-.104.51-.328.984-.672 1.424-.344.44-.84.812-1.491 1.118-.651.306-1.523.459-2.615.459-.467 0-.942-.061-1.427-.182a4.443 4.443 0 01-1.326-.564 3.316 3.316 0 01-.994-.984c-.264-.401-.414-.882-.451-1.443h2.596c.123.51.362.863.718 1.06.356.198.767.297 1.234.297.736 0 1.273-.23 1.611-.688.338-.458.5-1.038.488-1.739v-1.3h-.037a2.628 2.628 0 01-1.206 1.157 3.783 3.783 0 01-1.648.372c-.712 0-1.326-.13-1.841-.391a3.524 3.524 0 01-1.27-1.07 4.535 4.535 0 01-.728-1.586 7.773 7.773 0 01-.23-1.92c0-.638.089-1.252.267-1.845a4.877 4.877 0 01.782-1.567 3.81 3.81 0 011.28-1.08c.51-.267 1.096-.4 1.759-.4.626 0 1.175.12 1.648.362.472.242.868.65 1.187 1.223h.037V3.843h2.486v9.249c0 .395-.053.847-.157 1.356zm7.784-8.293c-.313-.356-.789-.535-1.427-.535-.417 0-.764.073-1.04.22a1.996 1.996 0 00-1.013 1.232 3.198 3.198 0 00-.12.65h4.254c-.123-.688-.34-1.21-.654-1.567zm-2.955 5.198c.393.395.958.592 1.694.592.528 0 .982-.137 1.363-.41.38-.274.613-.565.7-.87h2.301c-.368 1.185-.933 2.032-1.694 2.541-.761.51-1.681.765-2.762.765-.749 0-1.424-.124-2.025-.373a4.21 4.21 0 01-1.528-1.06 4.802 4.802 0 01-.967-1.644 6.214 6.214 0 01-.34-2.102c0-.739.116-1.426.35-2.064a4.87 4.87 0 01.993-1.653c.43-.464.942-.83 1.538-1.098a4.773 4.773 0 011.98-.402c.81 0 1.515.163 2.117.488a4.275 4.275 0 011.482 1.309c.387.548.666 1.172.838 1.872.172.701.233 1.433.184 2.198h-6.868c.037.879.251 1.516.644 1.91zm7.615 2.37h2.615V.077h-2.614v13.644zM54.031.077V11.2h6.408v2.522h-9.298V.078h2.89zm7.49 13.644h2.615v-9.88H61.52v9.88zm0-11.408h2.615V.078H61.52v2.236zm6.693 8.953c.117.21.268.382.451.516.185.133.397.232.636.296.24.064.488.095.745.095.185 0 .378-.022.58-.066.203-.045.387-.115.553-.21a1.27 1.27 0 00.414-.383c.11-.16.166-.36.166-.602 0-.408-.261-.713-.782-.917-.522-.204-1.25-.408-2.183-.612-.38-.088-.751-.194-1.114-.315a3.732 3.732 0 01-.966-.478 2.284 2.284 0 01-.681-.745c-.173-.299-.258-.665-.258-1.099 0-.637.12-1.159.359-1.567.24-.407.555-.729.948-.965a4.059 4.059 0 011.326-.496 7.889 7.889 0 011.51-.144c.515 0 1.015.051 1.5.153a3.89 3.89 0 011.298.516c.38.242.697.564.949.965.251.401.402.908.45 1.52H71.63c-.037-.523-.227-.877-.57-1.061-.345-.185-.75-.277-1.216-.277-.147 0-.307.01-.479.028a1.55 1.55 0 00-.47.125.973.973 0 00-.358.277c-.099.12-.148.283-.148.487 0 .242.086.44.258.592.172.153.396.277.672.373.276.095.592.181.948.258.356.076.719.16 1.087.248.38.09.752.198 1.114.325.362.128.684.296.966.507.283.21.51.471.682.783.171.312.258.697.258 1.156 0 .65-.126 1.194-.378 1.634-.252.44-.58.793-.985 1.06a3.955 3.955 0 01-1.39.564 7.818 7.818 0 01-3.213-.009 4.191 4.191 0 01-1.409-.574 3.212 3.212 0 01-1.012-1.06c-.264-.44-.409-.99-.433-1.653h2.485c0 .293.058.544.175.755zM81 3.843v1.815h-1.915v4.892c0 .459.074.764.222.917.147.153.442.23.883.23.147 0 .288-.007.424-.02A3.41 3.41 0 0081 11.62v2.102a6.05 6.05 0 01-.736.077c-.27.012-.534.019-.792.019-.405 0-.789-.029-1.15-.086a2.65 2.65 0 01-.958-.335 1.74 1.74 0 01-.654-.707c-.16-.305-.239-.707-.239-1.204V5.658h-1.584V3.843h1.584V.88h2.614v2.962H81z" fill="#80808E"/></svg>