<svg width="110" height="41" viewBox="0 0 110 41" fill="none" xmlns="http://www.w3.org/2000/svg">
<path fill-rule="evenodd" clip-rule="evenodd" d="M54.2234 22.1488H49.4585C49.4413 22.1489 49.4243 22.145 49.4088 22.1373C49.3933 22.1295 49.3798 22.1182 49.3693 22.1043C49.359 22.0904 49.3519 22.0744 49.3488 22.0573C49.3456 22.0402 49.3464 22.0226 49.3511 22.0059L51.7326 13.6337C51.7389 13.6095 51.7528 13.5881 51.7722 13.5728C51.7917 13.5576 51.8155 13.5493 51.8401 13.5493C51.8646 13.5493 51.8885 13.5576 51.9079 13.5728C51.9273 13.5881 51.9413 13.6095 51.9475 13.6337L54.329 22.0059C54.3337 22.0226 54.3345 22.0402 54.3314 22.0573C54.3282 22.0744 54.3212 22.0904 54.3108 22.1043C54.3005 22.118 54.2873 22.1291 54.2722 22.1368C54.257 22.1446 54.2403 22.1487 54.2234 22.1488ZM56.4411 29.4H59.5363L54.817 12.806C54.6255 12.1531 54.2324 11.5806 53.6963 11.1736C53.1601 10.7666 52.5095 10.5468 51.841 10.5468C51.1725 10.5468 50.5218 10.7666 49.9857 11.1736C49.4495 11.5806 49.0565 12.1531 48.865 12.806L44.1438 29.4018H47.2482L48.6119 24.5968C48.6186 24.5731 48.6328 24.5523 48.6522 24.5376C48.6715 24.5228 48.6951 24.515 48.7193 24.5151H54.9572C54.9814 24.515 55.0049 24.5228 55.0243 24.5376C55.0437 24.5523 55.0578 24.5731 55.0646 24.5968L56.4411 29.4ZM73.8874 19.8697H75.7081C75.7376 19.8697 75.7658 19.8816 75.7867 19.9029C75.8075 19.9241 75.8192 19.9529 75.8192 19.9829V26.5288C75.825 27.3606 76.154 28.156 76.7342 28.7408C77.3145 29.3257 78.0985 29.6521 78.9144 29.6487C79.5308 29.6498 80.1441 29.5598 80.7352 29.3814V27.2304C80.3929 27.2601 80.0069 27.2805 79.721 27.2805C79.4796 27.2805 79.248 27.1827 79.0773 27.0087C78.9066 26.8347 78.8107 26.5986 78.8107 26.3525V19.9811C78.8107 19.951 78.8224 19.9222 78.8432 19.901C78.864 19.8798 78.8923 19.8678 78.9217 19.8678H80.7425V17.5034H78.9217C78.8923 17.5034 78.864 17.4914 78.8432 17.4702C78.8224 17.449 78.8107 17.4202 78.8107 17.3902V13.4611H75.8083V17.3902C75.8083 17.4202 75.7966 17.449 75.7757 17.4702C75.7549 17.4914 75.7267 17.5034 75.6972 17.5034H73.8765L73.8874 19.8697ZM91.0988 29.4H94.0757V21.1837C94.0676 20.137 93.6527 19.1363 92.922 18.4009C92.1913 17.6655 91.2044 17.2553 90.1775 17.2602C88.9462 17.2841 87.7468 17.6631 86.7181 18.3534C86.7008 18.3638 86.681 18.3693 86.6608 18.3693C86.6406 18.3693 86.6208 18.3638 86.6034 18.3534C86.586 18.3438 86.5714 18.3296 86.5611 18.3123C86.5509 18.295 86.5454 18.2752 86.5452 18.255V10.7904H83.5537V29.4H86.5379V20.5044C86.5377 20.4837 86.5433 20.4633 86.5539 20.4456C86.5645 20.4279 86.5798 20.4135 86.598 20.4042C87.1587 20.1128 88.2658 19.6229 89.3746 19.6229C89.8287 19.6213 90.2648 19.8035 90.5872 20.1295C90.7456 20.2878 90.8717 20.4767 90.9579 20.685C91.0442 20.8934 91.089 21.1172 91.0897 21.3433V29.3925L91.0988 29.4ZM61.2059 17.5034V25.7196C61.2127 26.7673 61.6269 27.7694 62.3578 28.506C63.0886 29.2427 64.0764 29.6536 65.1041 29.6487C66.4821 29.6244 67.817 29.1553 68.9168 28.3087C68.9311 28.2975 68.9478 28.29 68.9655 28.2868C68.9833 28.2835 69.0015 28.2847 69.0187 28.2901C69.0358 28.2956 69.0514 28.3052 69.0641 28.3181C69.0768 28.331 69.0862 28.3469 69.0916 28.3643L69.4065 29.4018H71.7353V17.5034H68.7438V26.4008C68.7437 26.4215 68.7381 26.4418 68.7275 26.4594C68.7169 26.4771 68.7018 26.4915 68.6837 26.501C68.1229 26.7924 67.0159 27.2823 65.9071 27.2823C65.4551 27.2843 65.0207 27.1035 64.6992 26.7797C64.3777 26.4558 64.1953 26.0152 64.192 25.5545V17.5034H61.2059ZM102.799 27.2823C101.889 27.2823 101.16 26.759 100.583 25.6825C99.8894 24.3834 99.507 22.3993 99.507 20.098C99.507 17.7966 99.8894 15.8126 100.583 14.5134C101.157 13.437 101.881 12.9136 102.799 12.9136C103.717 12.9136 104.438 13.437 105.015 14.5134C105.708 15.8126 106.091 17.7966 106.091 20.098C106.091 22.3993 105.708 24.3834 105.015 25.6825C104.441 26.7571 103.717 27.2823 102.799 27.2823ZM102.799 10.5454C100.88 10.5454 99.2557 11.4567 98.105 13.1809C96.9543 14.905 96.3553 17.2862 96.3553 20.098C96.3553 22.9097 96.9598 25.2946 98.105 27.0151C99.2503 28.7355 100.88 29.6505 102.799 29.6505C104.718 29.6505 106.342 28.7392 107.493 27.0151C108.643 25.2909 109.242 22.906 109.242 20.0961C109.242 17.2862 108.638 14.8995 107.493 13.179C106.348 11.4586 104.718 10.5436 102.799 10.5436V10.5454Z" fill="#80808E"/>
<path d="M34.4102 12.42L30.4446 0H17.6321L21.5922 12.42H34.4102ZM17.6321 0H4.82137L0.863084 12.42H13.6738L17.6321 0ZM0.863084 12.42C-0.287651 16.03 -0.287696 19.9187 0.862957 23.5288C2.01361 27.1388 4.25589 30.2849 7.26844 32.5161L11.2267 20.0962L0.863084 12.42ZM34.4029 12.42L24.032 20.0962L27.9903 32.5161C31.0054 30.2869 33.2506 27.1416 34.4039 23.5315C35.5572 19.9213 35.5594 16.0315 34.4102 12.42H34.4029ZM7.26844 32.5161L17.6339 40.1923L27.9976 32.5161L17.6321 24.8399L7.26844 32.5161Z" fill="#80808E"/>
</svg>
