<svg xmlns="http://www.w3.org/2000/svg" width="21" height="14"><path d="M13.42.634h5.56v1.7h-5.56v-1.7zm1.32 5.409a2.778 2.778 0 00-.67 1.564h4.32a2.239 2.239 0 00-.67-1.6 2.119 2.119 0 00-1.49-.545 1.916 1.916 0 00-1.49.581zm3.75-2.282a4 4 0 011.66 1.5 5.084 5.084 0 01.76 2.088A13.408 13.408 0 0121 9.356h-6.99a2.467 2.467 0 001 2.132 2.434 2.434 0 001.38.38 2.057 2.057 0 001.4-.464 2.291 2.291 0 00.51-.7h2.57a3.392 3.392 0 01-.93 1.826 4.576 4.576 0 01-3.62 1.473 4.68 4.68 0 01-4.84-5.286 5.654 5.654 0 011.32-4.028 4.512 4.512 0 013.43-1.4 5.238 5.238 0 012.26.472zM2.59 7.644v3.644h3.15a2.916 2.916 0 001.31-.24 1.747 1.747 0 00.86-1.706 1.481 1.481 0 00-.83-1.465 3.148 3.148 0 00-1.3-.233H2.59zm0-5.275v3.015h3.15a2.532 2.532 0 001.38-.34 1.315 1.315 0 00.52-1.2 1.237 1.237 0 00-.69-1.262 4.677 4.677 0 00-1.54-.214H2.59zm7.05-.916a3.653 3.653 0 01.59 2.085 3.159 3.159 0 01-.6 2.012 3.027 3.027 0 01-.99.778 2.936 2.936 0 011.5 1.205 3.734 3.734 0 01.5 2 4.2 4.2 0 01-.57 2.179 3.735 3.735 0 01-.92 1.075 3.5 3.5 0 01-1.47.686 8.466 8.466 0 01-1.83.185H0V0h6.27a3.917 3.917 0 013.37 1.453z" fill="#fff" fill-rule="evenodd"/></svg>