<svg width="80" height="23" fill="none" xmlns="http://www.w3.org/2000/svg"><path d="M24.924 0H21.29v22.596h3.634V0zM37.646 15.406c0 3.397-2.923 3.713-3.713 3.713-2.134 0-2.607-2.053-2.607-3.32V7.27h-3.633v8.61c0 2.134.71 3.87 1.816 5.137 1.027 1.027 2.607 1.58 4.347 1.58 1.263 0 2.923-.317 3.713-1.264v1.264h3.633V7.27H37.57v8.136h.077zM48.39 1.816h-3.634V7.27h-2.687v3.634h2.687v11.693h3.633V10.903h2.687V7.269h-2.687V1.816zM62.452 18.013a4.34 4.34 0 01-2.923 1.106c-2.527 0-4.347-1.816-4.347-4.423S57 10.35 59.53 10.35c1.106 0 2.133.316 2.923 1.106l.553.474 2.37-2.37-.553-.553c-1.5-1.264-3.32-2.054-5.293-2.054-4.503-.08-7.823 3.16-7.823 7.743 0 4.423 3.397 7.823 7.823 7.823 2.053 0 3.95-.71 5.453-2.054l.553-.553-2.527-2.527-.556.628zM78.412 8.613c-1.027-1.027-2.29-1.58-3.95-1.58-1.264 0-2.607.316-3.557 1.263V0h-3.633v22.596h3.633v-8.533c0-3.397 2.527-3.713 3.32-3.713 2.133 0 2.133 2.053 2.133 3.32v8.926h3.633v-9.007c.08-1.976-.393-3.793-1.58-4.976z" fill="#fff"/><path d="M59.372 17.38a2.607 2.607 0 100-5.214 2.607 2.607 0 000 5.213z" fill="#FF3D2E"/><path d="M16.314 16.907c-1.344 1.343-3.32 2.133-5.214 2.133-4.11 0-7.033-3.16-7.033-7.506 0-4.347 2.924-7.507 6.953-7.507 1.897 0 3.714.79 5.214 2.134l.553.553 2.37-2.37-.553-.553C16.55 1.737 13.864.633 11.02.633 5.014.71.59 5.373.59 11.613c0 6.243 4.424 10.903 10.43 10.903 2.924 0 5.69-1.106 7.584-3.16l.553-.553-2.37-2.527-.473.63z" fill="#fff"/></svg>