<svg width="83" height="16" viewBox="0 0 83 16" fill="none" xmlns="http://www.w3.org/2000/svg">
    <path d="M23.4386 15.3565C22.0534 15.2472 20.8439 14.9409 19.8787 14.4548C18.4081 13.7143 17.3273 12.4682 16.8135 10.9212C16.4179 9.72973 16.3856 8.79165 16.6978 7.55541C17.2155 5.50559 18.5311 3.76688 20.6265 2.36307C21.9584 1.47078 23.3122 0.880409 24.9868 0.461659C26.9195 -0.0216431 28.399 -0.053289 30.359 0.346752C33.7375 1.03631 35.6852 2.79352 36.0356 5.46831C36.1094 6.03149 36.0619 7.1555 35.9398 7.73731C35.611 9.30336 34.7259 10.8061 33.3454 12.1419C31.5116 13.9165 29.066 14.982 26.116 15.2917C25.6327 15.3424 23.8176 15.3863 23.4386 15.3565ZM26.3809 11.6854C27.9631 11.478 29.2183 10.8761 30.1819 9.86264C30.7717 9.24226 31.1736 8.54785 31.3594 7.82807C31.4769 7.37317 31.4877 6.59629 31.3822 6.19439C31.0314 4.85845 29.8817 4.03187 27.9746 3.74442C27.158 3.62134 26.51 3.66375 25.5665 3.90203C23.9904 4.30009 22.5684 5.21696 21.8216 6.31664C21.2321 7.18478 20.9884 8.18783 21.1668 9.01178C21.2613 9.44767 21.5724 10.1064 21.8295 10.4147C22.3895 11.0864 23.2216 11.5271 24.2253 11.6834C24.7608 11.7668 25.7527 11.7677 26.3809 11.6854ZM6.08067 15.2012C3.02697 14.6575 0.848892 13.041 0.21248 10.8459C0.0637491 10.3328 -0.000268214 9.79441 8.44385e-07 9.05874C0.0004158 7.9242 0.164563 7.0543 0.564142 6.06908C1.8177 2.97825 5.04913 0.703037 9.03107 0.107624C9.48803 0.039296 10.0793 0.0275512 13.8293 0.0123143C16.1817 0.00275639 18.1064 0.00118079 18.1063 0.00881328C18.1063 0.0164453 17.9051 0.808901 17.6592 1.76983L17.2121 3.51696L13.4729 3.54054C9.78898 3.56377 9.72644 3.56566 9.23707 3.66868C7.71534 3.98904 6.45087 4.61139 5.62687 5.44556C5.16665 5.91146 4.87122 6.38712 4.66854 6.98854C4.5395 7.37142 4.5209 7.49149 4.50223 8.06172C4.47225 8.97747 4.59965 9.51661 4.99331 10.1399C5.34496 10.6967 5.93212 11.134 6.68715 11.4015C7.4151 11.6593 7.47793 11.6627 11.5797 11.6627H15.3423L15.3139 11.8102C15.2983 11.8913 15.1178 12.703 14.9128 13.614L14.54 15.2704L10.5486 15.2782C6.82998 15.2855 6.52459 15.2802 6.08067 15.2012ZM33.8081 15.2591C33.8086 15.1632 35.121 12.5973 35.4503 12.0484C36.8939 9.64208 38.255 8.2143 39.8822 7.39951C40.4573 7.11159 40.9457 6.97102 42.2551 6.71663C43.9651 6.38445 46.1003 5.93155 46.9455 5.72181C48.1981 5.41093 48.7136 5.20983 48.9363 4.94518C49.0418 4.81976 49.0557 4.76415 49.0557 4.465C49.0557 4.05548 48.9761 3.84507 48.7748 3.72233C48.6263 3.63183 48.5607 3.63075 43.215 3.63058L37.8055 3.63041L37.777 3.46024C37.6408 2.64762 37.1554 1.89627 36.0437 0.77705C35.6377 0.368299 35.3055 0.0262461 35.3055 0.0169327C35.3055 0.00761978 38.3329 0.000120263 42.0331 0.000267295C49.3871 0.000559997 49.1082 -0.00861949 50.1648 0.267823C51.6328 0.651893 52.6937 1.39026 53.1844 2.36944C53.4487 2.89686 53.5188 3.28196 53.4909 4.05477C53.4657 4.75544 53.3839 5.14739 53.1415 5.72957C52.717 6.74929 51.7284 7.74569 50.4624 8.42963C49.7205 8.83045 48.5363 9.22783 47.9064 9.28734C47.325 9.34225 47.2709 9.55011 47.7736 9.79671C48.2535 10.0321 48.7916 10.4135 49.2453 10.84C49.9915 11.5414 50.4674 12.3017 50.6171 13.0315C50.7119 13.4931 50.7551 14.304 50.7141 14.8506L50.6809 15.2931H45.4608L45.4899 15.1772C45.6336 14.6045 45.6904 13.6466 45.6067 13.2055C45.4789 12.5312 44.1347 11.2025 43.0589 10.6869C42.6539 10.4928 42.5219 10.4896 42.1705 10.6652C41.397 11.0517 40.2428 12.6267 39.203 14.7145L38.9149 15.2931H36.3614C34.957 15.2931 33.808 15.2778 33.8081 15.2591ZM52.4577 15.2592C52.4569 15.2404 53.227 11.7994 54.1691 7.61252L55.8819 0H62.7928C66.5937 0 69.7036 0.0101928 69.7036 0.022651C69.7036 0.0430957 69.0117 3.23861 68.9544 3.48292L68.9304 3.58503H64.2571C61.6868 3.58503 59.5839 3.59119 59.5839 3.59871C59.5839 3.60624 59.4715 4.17187 59.3343 4.85567C59.197 5.53948 59.0847 6.11532 59.0847 6.13533C59.0847 6.15533 60.8205 6.1717 62.942 6.1717C65.0635 6.1717 66.7997 6.18701 66.8003 6.20573C66.8008 6.22445 66.6425 6.95957 66.4486 7.83932L66.0959 9.43888L58.2855 9.43907L58.0498 10.5439C57.9201 11.1515 57.814 11.6722 57.814 11.701C57.814 11.7403 58.9678 11.7535 62.4201 11.7535C66.7776 11.7535 67.026 11.7577 67.0235 11.8329C67.022 11.8765 66.8533 12.6679 66.6484 13.5913L66.276 15.2704L59.3676 15.2819C55.568 15.2882 52.4585 15.278 52.4577 15.2592ZM67.9792 15.2331C67.9792 15.1911 71.1619 1.49807 71.4961 0.102105L71.5206 0H73.7464C75.8451 0 75.9708 0.00453302 75.9481 0.0794152C75.9043 0.223499 73.3794 11.5587 73.3794 11.6113C73.3794 11.6493 74.6364 11.6627 78.1897 11.6627C80.8354 11.6627 83 11.6734 83 11.6866C83 11.7127 82.4022 14.4936 82.2906 14.9868L82.2213 15.2931H75.1002C69.2277 15.2931 67.9792 15.2826 67.9792 15.2331Z" fill="#80808E"/>
</svg>
