<svg xmlns="http://www.w3.org/2000/svg" width="18" height="18"><path d="M14.95 4.152a10.233 10.233 0 01-4.29 3.03q.27.549.51 1.114c.05.132.11.263.16.395a18.04 18.04 0 015.36.248 7.67 7.67 0 00-1.74-4.787zM7.2 1.539a41.427 41.427 0 012.87 4.5 8.735 8.735 0 004.03-2.776 7.687 7.687 0 00-6.9-1.724zm-5.73 5.9a28.669 28.669 0 007.11-.937 48.859 48.859 0 00-2.85-4.444 7.723 7.723 0 00-4.26 5.38zm1.82 6.712A12.159 12.159 0 019.54 9.08c.1-.033.2-.063.3-.091-.19-.437-.4-.874-.62-1.3a28.48 28.48 0 01-7.9 1.093 1.832 1.832 0 00-.01.234 7.644 7.644 0 001.98 5.134zM12 16.088a31.5 31.5 0 00-1.64-5.829.378.378 0 01-.05.018 10.565 10.565 0 00-6.03 4.8 7.673 7.673 0 007.72 1.01zm4.59-5.855a11.29 11.29 0 00-4.79-.329 33.136 33.136 0 011.5 5.48 7.7 7.7 0 003.29-5.152zM9 18a9 9 0 119-9 9.011 9.011 0 01-9 9z" fill="#fff" fill-rule="evenodd"/></svg>