<svg width="70" height="40" viewBox="0 0 70 40" fill="none" xmlns="http://www.w3.org/2000/svg">
<path fill-rule="evenodd" clip-rule="evenodd" d="M39.7759 11C39.7769 11 39.7769 11 39.7769 11C39.8259 11 39.8309 11.6486 39.8079 13.8825C39.7899 15.4668 39.7879 16.7629 39.8019 16.7629C39.8169 16.7629 40.0048 16.683 40.2197 16.5852C40.8694 16.2881 41.4661 16.1608 42.3338 16.1302C42.9105 16.1114 43.1774 16.1233 43.4752 16.1835C45.4134 16.5803 46.8477 18.1449 47.3475 20.4154C47.4784 21.0067 47.5264 22.4775 47.4404 23.2139C47.3655 23.8407 47.1556 24.6867 46.9347 25.2356C46.107 27.3066 44.3288 28.658 41.9699 29.0084C41.4262 29.0894 39.7199 29.1002 38.9883 29.0272C38.4885 28.9758 36.9642 28.7261 36.4304 28.6057L36.0626 28.5228L36.0916 26.581C36.1616 21.902 36.1686 19.3473 36.1236 16.8616C36.0806 14.4293 36.0686 14.1707 35.9736 13.8114C35.8517 13.3543 35.6798 13.0375 35.4699 12.8914C35.3889 12.8321 35.168 12.7512 34.9781 12.7097C34.3524 12.5705 34.3874 12.5932 34.3704 12.3119C34.3604 12.149 34.3784 12.0414 34.4214 12.0089C34.4763 11.9654 39.596 11 39.7759 11ZM40.1808 28.0519C40.3997 28.0696 40.5356 28.0785 40.6435 28.0785C40.7705 28.0785 40.8604 28.0667 41.0034 28.04C41.3692 27.9709 41.6541 27.8268 41.9589 27.5563C42.7226 26.8781 43.2963 25.4774 43.5222 23.743C43.6152 23.0352 43.6012 21.4252 43.5002 20.8358C43.2244 19.2416 42.6306 18.1933 41.767 17.7698C41.4082 17.5951 41.3532 17.5822 40.9264 17.5822C40.6236 17.5822 40.3617 17.6138 40.1398 17.68L39.8059 17.7767L39.7809 19.592C39.75 21.9178 39.8259 27.7399 39.8899 27.9087C39.9319 28.0134 39.9758 28.038 40.1808 28.0519ZM0.165925 11.3238C0.228896 11.313 1.82617 11.307 4.09414 11.307C5.0547 11.307 6.13521 11.308 7.2707 11.31L14.2115 11.3228L14.2435 11.5222C14.2615 11.6308 14.2915 12.7522 14.3095 14.0138L14.3425 16.3059L13.9836 16.4115C13.4459 16.5744 13.4499 16.5764 13.206 15.9427C12.6123 14.3889 11.9296 13.4906 10.995 13.0395C10.3503 12.7275 10.0524 12.689 8.23526 12.689H6.65198L6.62299 12.9496C6.57301 13.4402 6.49205 16.5853 6.49205 18.067V19.5437L6.95884 19.5418C7.21472 19.5398 7.71849 19.523 8.08033 19.5013C8.62208 19.4697 8.78301 19.4411 9.0109 19.3364C9.56865 19.0818 9.94648 18.5211 10.1794 17.607L10.3003 17.1361L10.7101 17.1223L11.1209 17.1065V23.0757L10.7101 23.0619L10.3003 23.0471L10.1834 22.5753C9.96447 21.6878 9.54166 21.0541 9.0219 20.826C8.78101 20.7214 8.18428 20.6612 7.0338 20.6276L6.49205 20.6099V21.7322C6.49205 22.9533 6.56002 24.6068 6.64798 25.5031C6.76992 26.7538 7.09278 27.4448 7.67351 27.6965C7.78446 27.742 8.1363 27.8219 8.45516 27.8683C8.77301 27.9137 9.07388 27.9739 9.12185 27.9986C9.2438 28.0608 9.2508 28.7084 9.12885 28.7548C9.03389 28.7903 0.156929 28.7883 0.0679691 28.7528C0.0249886 28.735 0.00299864 28.6116 0.00299864 28.3816C0.00299864 27.971 -0.02199 27.9878 0.782644 27.8417C1.40136 27.7281 1.62326 27.6117 1.89614 27.2592C2.4249 26.5722 2.53985 25.2534 2.54184 19.8182C2.54184 14.7146 2.44289 13.6397 1.89414 12.8519C1.65225 12.5015 1.24343 12.3119 0.556747 12.231L0.0299864 12.1668L0.0139936 11.7601L0 11.3524L0.165925 11.3238ZM32.5062 16.1963C32.98 15.982 33.2949 15.9179 33.8796 15.9179C34.5733 15.9179 35.265 16.141 35.265 16.3641C35.265 16.5141 34.0445 19.7026 33.9765 19.7282C33.9446 19.7401 33.7057 19.6503 33.4478 19.5279C32.908 19.2712 32.4023 19.1468 31.9115 19.1468C31.2998 19.1488 30.6151 19.3719 30.3462 19.6572C30.2312 19.7796 30.2302 19.7865 30.2013 21.6117C30.1723 23.4192 30.2332 25.6244 30.3372 26.5119C30.4252 27.2661 30.6281 27.6392 31.0469 27.811C31.1868 27.8692 32.0744 27.9896 32.3633 27.9896C32.3843 27.9896 32.3953 28.1634 32.3883 28.3746L32.3743 28.7606L28.651 28.7705C26.6039 28.7784 24.8987 28.7655 24.8627 28.7428C24.8177 28.7142 24.8017 28.5997 24.8127 28.3578L24.8287 28.0153L25.0046 27.9778C25.1016 27.9561 25.3095 27.9156 25.4674 27.887C25.9532 27.7971 26.2321 27.5365 26.39 27.0252C26.5189 26.6086 26.5769 25.276 26.5779 22.5989C26.5819 19.3265 26.5119 18.5545 26.1791 18.1153C25.9962 17.8774 25.8652 17.8102 25.4244 17.7273C25.2075 17.6849 24.9776 17.6424 24.9167 17.6286C24.8167 17.6089 24.8017 17.5753 24.8017 17.3325C24.8017 17.0955 24.8177 17.0531 24.9167 17.0116C25.0676 16.9524 30.0503 15.9672 30.2083 15.9672H30.3342L30.3092 16.7007C30.2942 17.1044 30.2742 17.6898 30.2602 18.0057L30.2392 18.5753L30.4182 18.2554C30.9969 17.2249 31.6446 16.5852 32.5062 16.1963ZM15.7888 16.5941C16.6774 16.1539 17.7389 15.9357 18.7945 15.9357C19.9639 15.9357 21.1234 16.2032 22.036 16.7323C23.5993 17.6405 24.5439 19.2535 24.8077 21.4598C24.8877 22.132 24.8357 23.5535 24.7088 24.1398C24.192 26.5426 22.6817 28.2207 20.4707 28.8525C20.2328 28.9196 19.863 28.9995 19.6501 29.0292C19.1983 29.0914 17.8219 29.0914 17.3841 29.0272C16.1657 28.8525 15.0971 28.3421 14.2825 27.5455C13.6038 26.8802 13.163 26.1487 12.8382 25.1487C12.3304 23.5841 12.3304 21.5723 12.8382 20.0412C13.329 18.5576 14.4355 17.2654 15.7888 16.5941ZM18.1158 28.1367C18.2748 28.2078 18.4977 28.2433 18.7256 28.2433C18.9705 28.2413 19.2233 28.2008 19.4023 28.1179C20.3528 27.6816 20.8616 26.425 21.0285 24.1062C21.2594 20.8753 20.7237 18.1784 19.6611 17.2297C19.1824 16.8033 18.4387 16.6631 17.9009 16.901C17.1173 17.2446 16.6135 18.2653 16.3746 19.9918C16.2067 21.2218 16.2247 23.7321 16.4086 24.8604C16.7035 26.6392 17.2892 27.7655 18.1158 28.1367ZM64.9474 15.9643C63.543 16.0897 62.5125 16.5309 61.7189 17.3433C60.9302 18.1488 60.5744 19.0955 60.6374 20.2179C60.6893 21.1478 60.9672 21.8151 61.5479 22.4014C62.0857 22.9444 62.5375 23.201 63.8319 23.7005C65.92 24.506 66.4747 24.9838 66.4687 25.9769C66.4657 26.8159 66.0159 27.4309 65.1923 27.7172C64.9004 27.8189 64.1588 27.8189 63.7619 27.7162C62.7244 27.4447 61.9288 26.5583 61.2511 24.9098L61.0772 24.4883L60.8742 24.4971C60.7613 24.5031 60.6074 24.5356 60.5304 24.5722L60.3925 24.6383L60.4045 25.3579C60.4115 25.7538 60.4314 26.5879 60.4494 27.2108L60.4794 28.348L60.7133 28.4447C61.1881 28.6471 62.6145 28.9551 63.5091 29.0508C63.621 29.0607 64.2317 29.0666 64.8684 29.0597C65.9719 29.0469 66.0509 29.04 66.6066 28.8968C68.2459 28.4734 69.3064 27.5721 69.7782 26.2019C69.9211 25.7804 69.9431 25.6531 69.9631 25.0263C69.9911 24.1931 69.9121 23.7588 69.6383 23.2168C69.2155 22.3817 68.4358 21.8101 66.8046 21.1369C65.4722 20.5861 64.8035 20.206 64.3966 19.7648C64.0648 19.4074 63.9678 19.1192 64.0008 18.5822C64.0288 18.0886 64.1528 17.7945 64.4666 17.4638C64.8684 17.0393 65.4222 16.8902 66.0839 17.0284C67.1694 17.2545 67.8691 17.9978 68.4698 19.5703C68.6827 20.13 68.7077 20.1478 69.0935 20.0056L69.3374 19.9178L69.3284 19.2712C69.3224 18.9158 69.3044 18.1706 69.2864 17.6138L69.2544 16.603L69.0735 16.527C68.2369 16.1765 66.7596 15.9376 65.5761 15.9376C65.3542 15.9376 65.1423 15.9465 64.9474 15.9643ZM51.8844 16.5378C52.711 16.1409 53.6966 15.9396 54.6472 15.9396C55.4928 15.9396 56.3104 16.0985 56.9611 16.4213C58.5174 17.1903 59.431 18.7272 59.6629 20.9602C59.6949 21.2612 59.7128 21.6186 59.7039 21.7548L59.6879 22.0046L55.9646 22.0174L52.2432 22.0292L52.2572 22.4626C52.2892 23.4705 52.5081 24.3589 52.9129 25.1328C53.0979 25.4852 53.2448 25.6777 53.5996 26.0321C54.4053 26.8346 55.2059 27.1436 56.4683 27.1436C57.3819 27.1436 58.0416 26.963 58.7303 26.5247C58.9222 26.4003 59.1171 26.3006 59.1641 26.3006C59.2701 26.3006 59.5099 26.6086 59.5099 26.7419C59.5099 26.961 58.7893 27.6658 58.0846 28.1367C57.5098 28.5207 56.5953 28.8701 55.8016 29.0064C55.2469 29.1021 53.9994 29.1001 53.4497 29.0024C50.9538 28.5582 49.1686 26.809 48.5859 24.2404C48.5109 23.9097 48.479 23.5396 48.459 22.8239C48.43 21.6916 48.5229 20.9888 48.8188 20.1152C49.3875 18.439 50.4051 17.2505 51.8844 16.5378ZM52.1493 21.047C52.1583 21.0628 52.4152 21.0678 52.792 21.0678C53.5467 21.0678 54.7811 21.0411 55.4818 21.0046L56.0055 20.974L55.9755 20.1971C55.9126 18.6236 55.6027 17.5595 55.057 17.0659C54.8551 16.8793 54.5822 16.7638 54.3513 16.7628C54.2953 16.7628 54.1254 16.7984 53.9765 16.8418C53.7596 16.906 53.6396 16.9869 53.3737 17.2525C52.881 17.7431 52.5221 18.5397 52.2982 19.6443C52.2053 20.1013 52.1123 20.9868 52.1493 21.047Z" fill="#80808E"/>
</svg>
