<svg width="71" height="19" fill="none" xmlns="http://www.w3.org/2000/svg"><path fill-rule="evenodd" clip-rule="evenodd" d="M39.823.156h.001c.05 0 .054.666.031 2.958-.018 1.626-.02 2.956-.006 2.956.015 0 .204-.082.419-.182.65-.305 1.248-.436 2.116-.467.578-.02.845-.008 1.143.054 1.94.408 3.377 2.013 3.877 4.343.131.607.18 2.116.093 2.872a9.48 9.48 0 01-.506 2.075c-.829 2.125-2.61 3.512-4.971 3.871-.544.083-2.253.095-2.985.02-.5-.053-2.027-.31-2.561-.433l-.368-.085.029-1.993c.07-4.801.077-7.423.032-9.974-.043-2.496-.055-2.761-.15-3.13-.123-.469-.295-.794-.505-.944-.08-.06-.302-.144-.492-.186-.627-.143-.592-.12-.609-.409-.01-.167.008-.277.051-.31.055-.045 5.181-1.036 5.361-1.036zm.405 17.499c.22.018.356.027.464.027.127 0 .217-.012.36-.04.366-.07.652-.218.957-.496.764-.696 1.339-2.133 1.565-3.913.093-.726.079-2.379-.022-2.983-.276-1.636-.87-2.712-1.735-3.147-.36-.18-.415-.192-.842-.192a2.71 2.71 0 00-.788.1l-.334.1-.025 1.862c-.03 2.387.045 8.362.11 8.535.041.107.085.133.29.147zM.166.488C.23.478 1.828.471 4.1.471l3.18.003 6.95.013.032.205c.018.111.048 1.262.066 2.557L14.36 5.6l-.36.108c-.538.168-.534.17-.778-.48-.595-1.595-1.278-2.517-2.214-2.98-.645-.32-.944-.36-2.763-.36H6.66l-.03.268c-.05.503-.13 3.73-.13 5.251v1.516l.467-.002c.256-.002.76-.02 1.123-.042.542-.032.703-.062.932-.17.558-.26.936-.836 1.17-1.774l.12-.483.41-.014.412-.016v6.125l-.411-.014-.41-.015-.118-.484c-.219-.911-.642-1.562-1.162-1.796-.242-.107-.839-.169-1.99-.203l-.543-.018v1.151c0 1.254.068 2.95.156 3.87.122 1.284.445 1.993 1.027 2.251.11.047.463.129.782.176.318.047.62.109.668.134.122.064.129.728.007.776-.095.037-8.983.034-9.072-.002-.043-.018-.065-.145-.065-.38 0-.422-.025-.405.78-.555.62-.116.842-.236 1.115-.598.53-.705.645-2.058.647-7.636 0-5.237-.1-6.34-.649-7.149-.242-.36-.651-.554-1.339-.637L.03 1.353.014.936 0 .518l.166-.03zm32.379 5c.474-.22.79-.285 1.375-.285.694 0 1.387.229 1.387.458 0 .154-1.222 3.426-1.29 3.452-.032.012-.271-.08-.53-.206-.54-.263-1.046-.39-1.537-.39-.613.001-1.298.23-1.568.523-.115.126-.116.133-.145 2.006-.029 1.855.032 4.118.136 5.029.088.773.292 1.156.71 1.333.141.06 1.03.183 1.319.183.02 0 .032.178.025.395l-.014.396-3.728.01c-2.05.008-3.757-.005-3.793-.028-.045-.03-.06-.147-.05-.395l.016-.352.176-.038c.098-.023.306-.064.464-.093.486-.093.765-.36.924-.885.129-.427.187-1.795.188-4.542.004-3.358-.066-4.15-.4-4.601-.183-.244-.314-.313-.755-.398-.217-.044-.448-.087-.509-.102-.1-.02-.115-.054-.115-.303 0-.244.016-.287.115-.33.151-.06 5.14-1.071 5.298-1.071h.126l-.025.752c-.015.415-.035 1.015-.049 1.34l-.02.584.178-.328c.58-1.058 1.228-1.714 2.091-2.113zm-16.737.409c.89-.452 1.952-.676 3.009-.676 1.17 0 2.332.275 3.245.818 1.565.932 2.511 2.587 2.775 4.85.08.69.028 2.15-.099 2.751-.517 2.466-2.03 4.188-4.243 4.836a7.332 7.332 0 01-.822.182c-.452.063-1.83.063-2.268-.002-1.22-.18-2.29-.703-3.106-1.521-.679-.683-1.12-1.433-1.446-2.46-.508-1.605-.508-3.67 0-5.24.492-1.523 1.6-2.85 2.955-3.538zm2.33 11.845c.159.073.382.11.61.11.245-.003.498-.044.677-.13.952-.447 1.461-1.737 1.629-4.116.23-3.316-.306-6.083-1.37-7.057-.479-.437-1.223-.581-1.762-.337-.784.352-1.289 1.4-1.528 3.172-.168 1.262-.15 3.838.034 4.996.295 1.825.882 2.98 1.71 3.362zM65.024 5.25c-1.406.13-2.438.582-3.232 1.416-.79.826-1.146 1.798-1.083 2.95.052.954.33 1.639.911 2.24.539.557.991.82 2.287 1.333 2.09.827 2.646 1.317 2.64 2.336-.003.861-.453 1.492-1.278 1.786-.292.105-1.035.105-1.432 0-1.039-.28-1.835-1.189-2.514-2.88l-.174-.433-.203.009c-.113.006-.267.04-.344.077l-.138.068.012.738c.007.406.027 1.262.045 1.902l.03 1.167.234.099c.475.207 1.903.524 2.799.622.112.01.723.016 1.36.009 1.106-.013 1.185-.02 1.741-.167 1.641-.435 2.703-1.36 3.175-2.766.144-.432.166-.563.186-1.206.028-.855-.051-1.3-.326-1.857-.423-.857-1.204-1.444-2.837-2.134-1.334-.566-2.003-.956-2.41-1.409-.333-.366-.43-.662-.397-1.213.028-.507.152-.808.467-1.148.402-.435.956-.588 1.619-.447 1.087.232 1.787.995 2.389 2.609.213.574.238.593.624.447l.244-.09-.009-.664c-.006-.365-.024-1.13-.042-1.7l-.032-1.038-.181-.078c-.838-.36-2.317-.605-3.502-.605-.222 0-.434.01-.629.027zm-13.079.589c.828-.407 1.815-.614 2.767-.614.846 0 1.665.163 2.316.495 1.558.789 2.473 2.366 2.705 4.657.032.31.05.676.041.816l-.016.256-3.727.013-3.726.012.014.445c.032 1.034.251 1.946.656 2.74.185.362.333.56.688.923.806.824 1.608 1.14 2.872 1.14.915 0 1.575-.185 2.265-.634.192-.128.387-.23.434-.23.106 0 .346.316.346.453 0 .224-.721.948-1.427 1.43-.575.395-1.491.753-2.286.893-.555.099-1.804.096-2.354-.004-2.5-.456-4.287-2.25-4.87-4.886-.075-.34-.107-.72-.127-1.454-.029-1.162.064-1.883.36-2.78.57-1.72 1.588-2.94 3.07-3.671zm.266 4.627c.009.017.266.022.643.022.756 0 1.992-.028 2.693-.065l.524-.031-.03-.798c-.063-1.614-.373-2.707-.92-3.213-.201-.191-.474-.31-.706-.311-.056 0-.226.036-.375.081-.217.066-.337.149-.603.421-.494.504-.853 1.321-1.077 2.455-.093.469-.186 1.378-.15 1.44z" fill="#80808E"/></svg>