<svg width="23" height="18" viewBox="0 0 23 18" fill="none" xmlns="http://www.w3.org/2000/svg">
<path d="M8.71875 12.4219C8.71875 11.4375 8.20312 9.84375 6.98438 9.84375C5.76562 9.84375 5.25 11.4375 5.25 12.4219C5.25 13.4062 5.76562 15 6.98438 15C8.20312 15 8.71875 13.4062 8.71875 12.4219ZM22.5 10.0781C22.5 8.10938 21.9375 6.23438 20.6719 4.6875C20.9062 3.98438 21 3.23438 21 2.4375C21 1.45312 20.7656 0.9375 20.3438 0C18.2344 0 16.875 0.421875 15.2812 1.6875C14.0625 1.35938 12.75 1.21875 11.4844 1.21875C10.125 1.21875 8.71875 1.40625 7.35938 1.6875C5.71875 0.421875 4.35938 0 2.25 0C1.78125 0.9375 1.54688 1.45312 1.54688 2.4375C1.54688 3.23438 1.6875 3.98438 1.92188 4.73438C0.609375 6.23438 0 8.10938 0 10.0781C0 11.5781 0.234375 13.1719 0.9375 14.5312C2.76562 18.1406 7.96875 18 11.4844 18C15 18 19.875 18.0938 21.6562 14.5312C22.3125 13.125 22.5 11.5781 22.5 10.0781ZM19.4531 12.4219C19.4531 16.5469 15.7031 17.1562 12.4219 17.1562H10.125C6.84375 17.1562 3.09375 16.5469 3.09375 12.4219C3.09375 10.3594 4.35938 8.57812 6.5625 8.57812C7.45312 8.57812 8.29688 8.71875 9.1875 8.85938C9.89062 8.95312 10.5469 9 11.2969 9C12 9 12.7031 8.95312 13.4062 8.85938C14.2969 8.71875 15.1406 8.57812 16.0312 8.57812C18.2344 8.57812 19.4531 10.3594 19.4531 12.4219ZM15.6094 9.84375C14.3906 9.84375 13.875 11.4375 13.875 12.4219C13.875 13.4062 14.3906 15 15.6094 15C16.7812 15 17.2969 13.4062 17.2969 12.4219C17.2969 11.4375 16.7812 9.84375 15.6094 9.84375Z" fill="white"/>
</svg>
