<svg width="114" height="40" viewBox="0 0 114 40" fill="none" xmlns="http://www.w3.org/2000/svg">
<path fill-rule="evenodd" clip-rule="evenodd" d="M84.3238 14.0281C82.4285 12.8545 80.0444 12.8176 77.9189 13.2637C75.9525 13.707 74.2021 15.0198 73.2644 16.8072C72.2158 18.7934 71.9913 21.1406 72.2925 23.3428C72.5994 25.42 74.2277 27.1789 76.2566 27.6961C79.0157 28.3752 82.2523 27.9689 84.3721 25.94C86.2646 24.11 86.8613 21.3395 86.7562 18.7934C86.7733 16.9436 85.9236 15.0255 84.3238 14.0281ZM77.2341 20.2426C77.4955 19.0378 77.8336 17.5829 79.0498 16.9975C80.124 16.4463 81.6271 17.0118 81.8175 18.2734C82.0818 19.8334 81.6811 21.4702 81.0418 22.8967C80.4735 24.1924 78.5241 24.7352 77.541 23.6071C76.867 22.6767 77.0524 21.4477 77.2141 20.3753L77.2341 20.2426ZM93.7321 13.0421C91.9931 13.1501 90.1148 13.8434 89.2112 15.4262C88.1257 17.3215 88.2905 20.1461 90.1802 21.4759C90.7986 21.9575 91.5304 22.198 92.2623 22.4384C92.7007 22.5824 93.1391 22.7264 93.5531 22.9223C94.2266 23.2434 94.1158 24.363 93.3912 24.5477C92.4222 24.8944 91.4504 24.3033 90.9588 23.4793C90.3038 23.6631 89.6475 23.8398 88.9911 24.0164C88.2778 24.2084 87.5645 24.4004 86.8527 24.6017C87.2477 26.1219 88.4866 27.3182 90.0182 27.6649C92.192 28.1849 94.6102 28.1252 96.6476 27.1364C99.4437 25.7951 99.8756 21.2429 97.25 19.5181C96.6137 19.0476 95.8725 18.8069 95.1309 18.5661C94.6274 18.4026 94.1237 18.2391 93.6526 18.0035C92.8314 17.654 93.2349 16.3952 94.039 16.3384C94.7892 16.1338 95.3888 16.7191 95.8406 17.2306C96.3544 17.0884 96.8695 16.9489 97.3847 16.8093L97.3848 16.8093L97.3857 16.8091C98.2491 16.5752 99.1129 16.3413 99.9723 16.094L99.9515 16.0411C99.6678 15.3202 99.3652 14.551 98.7106 14.085C97.3069 12.9995 95.4257 12.9427 93.7321 13.0421ZM1 27.6762C1.83543 22.891 2.67085 18.1086 3.50912 13.3262C3.90412 13.3262 4.29929 13.326 4.69456 13.3259C5.88028 13.3253 7.0668 13.3248 8.25172 13.3291C8.13346 13.9911 8.01349 14.6535 7.89347 15.3162L7.89344 15.3164L7.89342 15.3165L7.8934 15.3166L7.89337 15.3167L7.89335 15.3168C7.70482 16.3578 7.51617 17.3994 7.33389 18.4411H11.2837C11.3694 17.9656 11.4563 17.4904 11.5431 17.0152L11.5431 17.0151L11.5431 17.015L11.5431 17.015L11.5431 17.0149L11.5432 17.0147L11.5432 17.0146L11.5432 17.0145C11.7672 15.7887 11.9911 14.5632 12.1958 13.3347C13.7814 13.3205 15.367 13.3234 16.9498 13.3319L16.8126 14.1197L16.8124 14.1209L16.8122 14.1217L16.8121 14.1222C16.0254 18.6386 15.2383 23.1574 14.4435 27.6762L13.495 27.6764H13.4948H13.4946H13.4944H13.4942H13.494C12.2314 27.6769 10.9699 27.6773 9.70661 27.6705C10.0107 25.8945 10.3204 24.1214 10.6358 22.3482C10.3066 22.3482 9.97742 22.3481 9.64818 22.3479H9.64805H9.64792H9.64779H9.64766H9.64752C8.65831 22.3474 7.6687 22.3468 6.67748 22.3511C6.52314 23.2201 6.37152 24.0892 6.21996 24.9579L6.21996 24.9579L6.21995 24.9579L6.21995 24.9579L6.21994 24.958L6.21994 24.958C6.06177 25.8645 5.90367 26.7707 5.7426 27.6762H1ZM20.8753 13.2543C20.4233 13.2548 19.971 13.2552 19.5186 13.2552C19.3084 14.4462 19.0952 15.6366 18.8819 16.8272C18.5934 18.4376 18.3049 20.0482 18.0239 21.6606C17.7824 23.1496 17.8506 24.829 18.7997 26.0764C19.834 27.4205 21.6157 27.8837 23.2382 27.9576C25.1137 28.0087 27.1426 27.9348 28.7708 26.8863C30.2598 25.9258 30.9134 24.1499 31.2202 22.4818C31.4945 20.9445 31.7623 19.4065 32.0301 17.8685L32.0303 17.8672C32.2981 16.3296 32.5658 14.7921 32.84 13.2552C32.2475 13.2542 31.6551 13.2543 31.0626 13.2544C30.0751 13.2546 29.0877 13.2549 28.1002 13.2495C27.8567 14.4723 27.6487 15.7028 27.4407 16.9332C27.1122 18.8766 26.7837 20.8197 26.3157 22.7319C26.0912 24.1271 24.2925 24.8489 23.1843 23.9651C22.5204 23.3386 22.657 22.3344 22.7703 21.5016C22.7777 21.4468 22.7851 21.3927 22.7921 21.3395C23.1523 19.3192 23.522 17.2989 23.8918 15.2786L23.8918 15.2783C24.0151 14.6049 24.1383 13.9315 24.2612 13.2581C23.1329 13.252 22.0046 13.2531 20.8753 13.2543ZM34.0556 21.0443L34.0567 21.0381C34.5045 18.4673 34.9523 15.8963 35.4058 13.3262H45.6185C45.3968 14.6305 45.1667 15.9348 44.9365 17.2391C44.0724 17.2337 43.2082 17.2341 42.3441 17.2344C41.3839 17.2348 40.4238 17.2352 39.4636 17.2277C39.3158 18.0802 39.1738 18.9355 39.0345 19.7908C39.3239 19.7908 39.6135 19.7905 39.9031 19.7903H39.9035H39.9038H39.9041C40.9195 19.7893 41.9363 19.7883 42.9531 19.7994L42.953 19.8L42.9528 19.8007L42.9527 19.8013L42.9526 19.802C42.734 21.0287 42.5153 22.2554 42.2995 23.482C40.9952 23.4849 39.6909 23.4849 38.3838 23.4849C38.2838 24.044 38.1856 24.6032 38.0874 25.1623C37.9401 26.0012 37.7928 26.8402 37.6393 27.6791C36.0594 27.6762 34.4766 27.6762 32.8967 27.6762C33.2854 25.466 33.6705 23.2551 34.0556 21.0443ZM50.1902 13.3259L50.1899 13.3259C49.3385 13.3261 48.4872 13.3263 47.6361 13.3263C46.7922 18.1086 45.9596 22.8939 45.1298 27.6791C46.7069 27.6763 48.284 27.6762 49.8611 27.6762C50.114 26.2839 50.3527 24.8887 50.5857 23.4906C51.638 23.4838 52.6885 23.4842 53.7401 23.4847L54.5298 23.4849C54.624 22.941 54.7199 22.3977 54.8157 21.8547L54.8161 21.8525L54.8163 21.8509L54.8166 21.8492C54.9373 21.1656 55.0578 20.4825 55.1748 19.7994C54.2639 19.7894 53.3515 19.7892 52.4387 19.789C52.0475 19.789 51.6561 19.7889 51.2648 19.788C51.4041 18.9327 51.5461 18.0802 51.6882 17.2277C52.754 17.2344 53.8189 17.2342 54.8839 17.2341C55.6447 17.234 56.4055 17.2339 57.1668 17.2363C57.3045 16.436 57.4455 15.6368 57.5863 14.838C57.6751 14.3349 57.7638 13.832 57.8516 13.3291C55.2986 13.3248 52.744 13.3254 50.1902 13.3259ZM59.8692 13.329C61.9606 13.3262 64.052 13.3234 66.1434 13.3234C67.7148 13.3319 69.4538 13.7524 70.4512 15.0653C71.4003 16.2587 71.3662 17.8983 71.1531 19.3276C70.9116 20.9104 70.025 22.442 68.5786 23.1979C67.1028 24.0453 65.3936 24.0133 63.7351 23.9823C63.4138 23.9763 63.0944 23.9703 62.7789 23.9708C62.7323 24.2304 62.6854 24.4898 62.6385 24.7492L62.6383 24.7504C62.4625 25.7229 62.2869 26.6944 62.1254 27.6677C60.5426 27.6819 58.957 27.679 57.3743 27.6705C57.7247 25.6435 58.0793 23.6176 58.4338 21.5917L58.4344 21.5883C58.9162 18.8356 59.3979 16.0833 59.8692 13.329ZM63.998 17.0743C63.8949 17.6481 63.7887 18.2211 63.6827 18.7939L63.6826 18.7941C63.5813 19.3416 63.48 19.8887 63.3814 20.4358C63.5465 20.4324 63.7134 20.4336 63.8811 20.4349C64.536 20.4398 65.2018 20.4447 65.8081 20.1687C66.7799 19.7198 67.0726 18.2592 66.3565 17.4664C65.8427 17.0945 65.2054 17.0918 64.5859 17.0891C64.3865 17.0882 64.189 17.0874 63.998 17.0743ZM106.491 13.326C104.889 13.3267 103.287 13.3274 101.686 13.3263C101.632 13.6285 101.578 13.9309 101.525 14.2334C101.347 15.2307 101.169 16.2292 101.001 17.2278C102.24 17.2363 103.482 17.2363 104.721 17.2306L104.514 18.4225C103.981 21.5057 103.447 24.5873 102.916 27.6734C104.103 27.6777 105.289 27.6771 106.475 27.6766C106.871 27.6764 107.266 27.6763 107.662 27.6763C107.89 26.3803 108.118 25.0839 108.345 23.7876C108.728 21.602 109.111 19.4166 109.5 17.2334C109.733 17.2334 109.966 17.2333 110.199 17.2332C111.132 17.2328 112.066 17.2323 112.998 17.2391C113.118 16.5884 113.233 15.9363 113.349 15.2841C113.465 14.632 113.581 13.9798 113.7 13.3291C111.296 13.324 108.893 13.325 106.491 13.326Z" fill="#80808E"/>
</svg>
