<svg width="113" height="15" viewBox="0 0 113 15" fill="none" xmlns="http://www.w3.org/2000/svg">
<path fill-rule="evenodd" clip-rule="evenodd" d="M83.3238 1.02809C81.4285 -0.145486 79.0444 -0.182427 76.9189 0.263702C74.9525 0.706989 73.2021 2.0198 72.2644 3.80716C71.2158 5.79342 70.9913 8.14057 71.2925 10.3428C71.5994 12.42 73.2277 14.1789 75.2566 14.6961C78.0157 15.3752 81.2523 14.9689 83.3721 12.94C85.2646 11.11 85.8613 8.33948 85.7562 5.79342C85.7733 3.94355 84.9236 2.02548 83.3238 1.02809ZM76.2341 7.24263C76.4955 6.0378 76.8336 4.58291 78.0498 3.99754C79.124 3.44627 80.6271 4.01175 80.8175 5.27341C81.0818 6.83344 80.6811 8.47019 80.0418 9.89667C79.4735 11.1924 77.5241 11.7352 76.541 10.6071C75.867 9.67668 76.0524 8.44766 76.2141 7.37526L76.2341 7.24263ZM92.7321 0.0421224C90.9931 0.150103 89.1148 0.843449 88.2112 2.42621C87.1257 4.32155 87.2905 7.14608 89.1802 8.47594C89.7986 8.95755 90.5304 9.19797 91.2623 9.43842C91.7007 9.58243 92.1391 9.72645 92.5531 9.9223C93.2266 10.2434 93.1158 11.363 92.3912 11.5477C91.4222 11.8944 90.4504 11.3033 89.9588 10.4793C89.3038 10.6631 88.6475 10.8398 87.9911 11.0164C87.2778 11.2084 86.5645 11.4004 85.8527 11.6017C86.2477 13.1219 87.4866 14.3182 89.0182 14.6649C91.192 15.1849 93.6102 15.1252 95.6476 14.1364C98.4437 12.7951 98.8756 8.24293 96.25 6.51809C95.6137 6.04758 94.8725 5.80691 94.1309 5.56612C93.6274 5.40264 93.1237 5.2391 92.6526 5.00353C91.8314 4.65401 92.2349 3.39519 93.039 3.33836C93.7892 3.13377 94.3888 3.71913 94.8406 4.23062C95.3544 4.08836 95.8695 3.94887 96.3847 3.80934L96.3848 3.8093L96.3857 3.80907C97.2491 3.57524 98.1129 3.3413 98.9723 3.09398L98.9515 3.04112C98.6678 2.32017 98.3652 1.55096 97.7106 1.08498C96.3069 -0.000501861 94.4257 -0.057333 92.7321 0.0421224ZM0 14.6762C0.835425 9.89098 1.67085 5.1086 2.50912 0.326216C2.90412 0.326216 3.29929 0.326038 3.69456 0.325861C4.88028 0.325327 6.0668 0.324794 7.25172 0.329056C7.13346 0.991066 7.01349 1.65351 6.89347 2.31621L6.89344 2.31637L6.89342 2.31649L6.8934 2.31661L6.89337 2.31673L6.89335 2.31684C6.70482 3.35782 6.51617 4.39944 6.33389 5.44107H10.2837C10.3694 4.9656 10.4563 4.49036 10.5431 4.01515L10.5431 4.01508L10.5431 4.01502L10.5431 4.01495L10.5431 4.01488L10.5432 4.01471L10.5432 4.01458L10.5432 4.01446C10.7672 2.78871 10.9911 1.5632 11.1958 0.33474C12.7814 0.320533 14.367 0.323376 15.9498 0.3319L15.8126 1.1197L15.8124 1.12093L15.8122 1.12175L15.8121 1.1222C15.0254 5.63861 14.2383 10.1574 13.4435 14.6762L12.495 14.6764H12.4948H12.4946H12.4944H12.4942H12.494C11.2314 14.6769 9.96991 14.6773 8.70661 14.6705C9.01066 12.8945 9.32039 11.1214 9.63581 9.34824C9.30661 9.34824 8.97742 9.34807 8.64818 9.34789H8.64805H8.64792H8.64779H8.64766H8.64752C7.65831 9.34736 6.6687 9.34682 5.67748 9.35109C5.52314 10.2201 5.37152 11.0892 5.21996 11.9579L5.21996 11.9579L5.21995 11.9579L5.21995 11.9579L5.21994 11.958L5.21994 11.958C5.06177 12.8645 4.90367 13.7707 4.7426 14.6762H0ZM19.8753 0.254294C19.4233 0.254758 18.971 0.255223 18.5186 0.255223C18.3084 1.44619 18.0952 2.63665 17.8819 3.82724C17.5934 5.43757 17.3049 7.04816 17.0239 8.66062C16.7824 10.1496 16.8506 11.829 17.7997 13.0764C18.834 14.4205 20.6157 14.8837 22.2382 14.9576C24.1137 15.0087 26.1426 14.9348 27.7708 13.8863C29.2598 12.9258 29.9134 11.1499 30.2202 9.48184C30.4945 7.94455 30.7623 6.40654 31.0301 4.86853L31.0303 4.86715C31.2981 3.32961 31.5658 1.79206 31.84 0.255223C31.2475 0.254157 30.6551 0.25429 30.0626 0.254423C29.0751 0.254645 28.0877 0.254867 27.1002 0.249538C26.8567 1.47233 26.6487 2.70281 26.4407 3.93319C26.1122 5.87655 25.7837 7.81968 25.3157 9.7319C25.0912 11.1271 23.2925 11.8489 22.1843 10.9651C21.5204 10.3386 21.657 9.33435 21.7703 8.50157C21.7777 8.44676 21.7851 8.3927 21.7921 8.33953C22.1523 6.31922 22.522 4.2989 22.8918 2.27859L22.8918 2.27834C23.0151 1.60492 23.1383 0.931489 23.2612 0.258063C22.1329 0.251975 21.0046 0.253134 19.8753 0.254294ZM33.0556 8.04425L33.0567 8.03813C33.5045 5.46726 33.9523 2.89633 34.4058 0.326225H44.6185C44.3968 1.63051 44.1667 2.9348 43.9365 4.23909C43.0724 4.2337 42.2082 4.23406 41.3441 4.23441C40.3839 4.2348 39.4238 4.2352 38.4636 4.22772C38.3158 5.08019 38.1738 5.93551 38.0345 6.79083C38.3239 6.79083 38.6135 6.79055 38.9031 6.79027H38.9035H38.9038H38.9041C39.9195 6.78928 40.9363 6.7883 41.9531 6.79935L41.953 6.80001L41.9528 6.80067L41.9527 6.80133L41.9526 6.80199C41.734 8.02868 41.5153 9.25536 41.2995 10.482C39.9952 10.4849 38.6909 10.4849 37.3838 10.4849C37.2838 11.044 37.1856 11.6032 37.0874 12.1623C36.9401 13.0012 36.7928 13.8402 36.6393 14.6791C35.0594 14.6762 33.4766 14.6762 31.8967 14.6762C32.2854 12.466 32.6705 10.2551 33.0556 8.04425ZM49.1902 0.3259L49.1899 0.3259C48.3385 0.326078 47.4872 0.326256 46.6361 0.326256C45.7922 5.10864 44.9596 9.89387 44.1298 14.6791C45.7069 14.6763 47.284 14.6762 48.8611 14.6762C49.114 13.2839 49.3527 11.8887 49.5857 10.4906C50.638 10.4838 51.6885 10.4842 52.7401 10.4847L53.5298 10.4849C53.624 9.94104 53.7199 9.39773 53.8157 8.85472L53.8161 8.85255L53.8163 8.85091L53.8166 8.84922C53.9373 8.16561 54.0578 7.4825 54.1748 6.79938C53.2639 6.78944 52.3515 6.78924 51.4387 6.78904C51.0475 6.78895 50.6561 6.78887 50.2648 6.78802C50.4041 5.9327 50.5461 5.08022 50.6882 4.22775C51.754 4.23438 52.8189 4.23424 53.8839 4.2341C54.6447 4.234 55.4055 4.2339 56.1668 4.23627C56.3045 3.436 56.4455 2.63681 56.5863 1.83802C56.6751 1.33494 56.7638 0.832017 56.8516 0.329096C54.2986 0.324833 51.744 0.325367 49.1902 0.3259ZM58.8692 0.329045C60.9606 0.326204 63.052 0.323365 65.1434 0.323365C66.7148 0.33189 68.4538 0.752441 69.4512 2.06525C70.4003 3.25872 70.3662 4.89831 70.1531 6.32763C69.9116 7.91039 69.025 9.442 67.5786 10.1979C66.1028 11.0453 64.3936 11.0133 62.7351 10.9823C62.4138 10.9763 62.0944 10.9703 61.7789 10.9708C61.7323 11.2304 61.6854 11.4898 61.6385 11.7492L61.6383 11.7504C61.4625 12.7229 61.2869 13.6944 61.1254 14.6677C59.5426 14.6819 57.957 14.679 56.3743 14.6705C56.7247 12.6435 57.0793 10.6176 57.4338 8.59175L57.4344 8.58827C57.9162 5.83564 58.3979 3.08328 58.8692 0.329045ZM62.998 4.07425C62.8949 4.64807 62.7887 5.22115 62.6827 5.79386L62.6826 5.79411C62.5813 6.34158 62.48 6.88871 62.3814 7.43585C62.5465 7.43237 62.7134 7.43362 62.8811 7.43487C63.536 7.43977 64.2018 7.44474 64.8081 7.16874C65.7799 6.71977 66.0726 5.2592 65.3565 4.46639C64.8427 4.0945 64.2054 4.09176 63.5859 4.0891C63.3865 4.08825 63.189 4.0874 62.998 4.07425ZM105.491 0.326041C103.889 0.326723 102.287 0.327405 100.686 0.326269C100.632 0.628506 100.578 0.930898 100.525 1.23341C100.347 2.23067 100.169 3.22921 100.001 4.22776C101.24 4.23629 102.482 4.23629 103.721 4.23061L103.514 5.42253C102.981 8.50565 102.447 11.5873 101.916 14.6734C103.103 14.6777 104.289 14.6771 105.475 14.6766C105.871 14.6764 106.266 14.6763 106.662 14.6763C106.89 13.3803 107.118 12.0839 107.345 10.7876C107.728 8.60203 108.111 6.41662 108.5 4.23345C108.733 4.23345 108.966 4.23333 109.199 4.23322C110.132 4.23276 111.066 4.23231 111.998 4.23913C112.118 3.58841 112.233 2.93626 112.349 2.28412C112.465 1.63198 112.581 0.979831 112.7 0.329109C110.296 0.323994 107.893 0.325017 105.491 0.326041Z" fill="#80808E"/>
</svg>
