<svg width="69" height="37" fill="none" xmlns="http://www.w3.org/2000/svg"><path fill-rule="evenodd" clip-rule="evenodd" d="M.357 0v37h36.552v-4.665h-2.305v2.333H2.661V2.334h31.943v18.98h2.305V0H.357zm8.03 31.19h2.306v-8.734H8.387v8.735zm8.234-4.69v-4.043h2.198v8.734h-2.117l-2.642-4.538h-.037v4.538h-2.187v-8.734h2.421l2.33 4.043h.034zm3.35-4.043h2.863c2.748 0 4.064.754 4.064 4.36 0 3.678-1.293 4.374-4.028 4.374h-2.898v-8.733zm2.306 6.717v-4.595h.708c.98 0 1.572.058 1.572 2.25 0 2.205-.615 2.345-1.479 2.345h-.801zm5.446 2.017h2.304v-8.735h-2.304v8.735zm21.348-8.839c-3.212 0-3.783 2.13-3.783 4.477 0 2.334.57 4.467 3.783 4.467 3.203 0 3.773-2.133 3.773-4.467 0-2.346-.559-4.477-3.773-4.477zm-1.443 4.56c0 1.437.174 2.322 1.443 2.322 1.258 0 1.434-.885 1.434-2.322 0-1.427-.176-2.309-1.434-2.309-1.269 0-1.443.882-1.443 2.309zm17.603-4.56c-3.214 0-3.785 2.13-3.785 4.477 0 2.334.57 4.467 3.785 4.467 3.2 0 3.769-2.133 3.769-4.467 0-2.346-.558-4.477-3.769-4.477zm-1.445 4.56c0 1.437.174 2.322 1.445 2.322 1.255 0 1.43-.885 1.43-2.322 0-1.427-.175-2.309-1.43-2.309-1.27 0-1.445.882-1.445 2.309zM41.04 31.296c-2.829 0-3.526-1.828-3.526-4.467 0-3.027.954-4.477 3.934-4.477 1.07 0 2.026.282 2.678.706l-1.234 1.944a3.01 3.01 0 00-1.549-.399c-.908 0-1.513.247-1.513 2.297 0 1.969.36 2.463 1.42 2.463 1.106 0 1.106-.403 1.105-1.317V27.818H40.87l.255-1.896h3.339v5.269h-2.12c-.372.07-.8.105-1.303.105zm12.63-4.467c0 2.64.7 4.467 3.528 4.467.5 0 .931-.034 1.301-.105h2.122v-5.269h-3.34l-.255 1.896h1.487v.223c.001.917.001 1.322-1.105 1.322-1.06 0-1.422-.494-1.422-2.462 0-2.05.606-2.298 1.514-2.298.676 0 1.153.176 1.549.4l1.235-1.945c-.654-.424-1.609-.706-2.678-.706-2.982 0-3.936 1.45-3.936 4.477zM31.18 31.19v-8.734h5.727v2.133h-3.47v1.145h2.556l-.278 2.07h-2.278v1.31h3.47v2.076H31.18z" fill="#80808E"/></svg>