<svg width="70" height="40" viewBox="0 0 70 40" fill="none" xmlns="http://www.w3.org/2000/svg">
<path fill-rule="evenodd" clip-rule="evenodd" d="M0 1V38H37V33.3351H34.667V35.6681H2.33194V3.33396H34.667V22.3146H37V1H0ZM8.12889 32.1906H10.4629V23.4565H8.12889V32.1906ZM16.4633 27.4996V23.4567H18.6889V32.1908H16.5454L13.871 27.6526H13.8335V32.1908H11.6201V23.4567H14.0706L16.4289 27.4996H16.4633ZM19.8554 23.4575H22.7526C25.5343 23.4575 26.8664 24.2112 26.8664 27.8175C26.8664 31.4947 25.5576 32.1906 22.789 32.1906H19.8554V23.4575ZM22.1883 30.1737V25.5787H22.9055C23.8972 25.5787 24.4969 25.6375 24.4969 27.8286C24.4969 30.0339 23.8739 30.1737 22.9997 30.1737H22.1883ZM27.7022 32.1906H30.0341V23.4565H27.7022V32.1906ZM49.3115 23.3521C46.0597 23.3521 45.4823 25.4825 45.4823 27.8286C45.4823 30.1626 46.0597 32.296 49.3115 32.296C52.5531 32.296 53.1305 30.1626 53.1305 27.8286C53.1305 25.4825 52.5653 23.3521 49.3115 23.3521ZM47.8507 27.9117C47.8507 29.3492 48.027 30.2335 49.3115 30.2335C50.5849 30.2335 50.7631 29.3492 50.7631 27.9117C50.7631 26.4854 50.5849 25.6031 49.3115 25.6031C48.027 25.6031 47.8507 26.4854 47.8507 27.9117ZM65.6696 23.3521C62.4158 23.3521 61.8384 25.4825 61.8384 27.8286C61.8384 30.1626 62.4158 32.296 65.6696 32.296C68.9092 32.296 69.4846 30.1626 69.4846 27.8286C69.4846 25.4825 68.9193 23.3521 65.6696 23.3521ZM64.2067 27.9117C64.2067 29.3492 64.383 30.2335 65.6695 30.2335C66.9398 30.2335 67.1171 29.3492 67.1171 27.9117C67.1171 26.4854 66.9398 25.6031 65.6695 25.6031C64.383 25.6031 64.2067 26.4854 64.2067 27.9117ZM41.1822 32.296C38.3184 32.296 37.6124 30.4685 37.6124 27.8286C37.6124 24.8017 38.5788 23.3521 41.5945 23.3521C42.6784 23.3521 43.6458 23.6338 44.3053 24.0582L43.0563 26.0022C42.6551 25.7793 42.1719 25.603 41.4891 25.603C40.5693 25.603 39.9575 25.8502 39.9575 27.9005C39.9575 29.8688 40.3222 30.3631 41.3939 30.3631C42.5145 30.3631 42.5141 29.9597 42.5133 29.0463L42.5133 28.9713V28.8183H41.009L41.2673 26.922H44.6467V32.1906H42.5011C42.1243 32.2615 41.6907 32.296 41.1822 32.296ZM53.9662 27.8286C53.9662 30.4685 54.6743 32.296 57.5381 32.296C58.0446 32.296 58.4802 32.2615 58.855 32.1906H61.0026V26.922H57.6212L57.3639 28.8183H58.8692V28.9713L58.8692 29.0419C58.8699 29.9584 58.8702 30.3631 57.7508 30.3631C56.677 30.3631 56.3113 29.8688 56.3113 27.9005C56.3113 25.8502 56.9242 25.603 57.843 25.603C58.5278 25.603 59.011 25.7793 59.4111 26.0022L60.6612 24.0582C59.9997 23.6338 59.0333 23.3521 57.9504 23.3521C54.9327 23.3521 53.9662 24.8017 53.9662 27.8286ZM31.2012 32.1908V23.4567H36.9976V25.5901H33.4855V26.7348H36.0728L35.7911 28.8054H33.4855V30.1152H36.9976V32.1908H31.2012Z" fill="#80808E"/>
</svg>
