<svg xmlns="http://www.w3.org/2000/svg" width="19" height="19"><path d="M13.47 19H5.53A5.474 5.474 0 010 13.62V5.38A5.474 5.474 0 015.53 0h7.94A5.474 5.474 0 0119 5.38v8.24A5.474 5.474 0 0113.47 19zm0-1.422a4.088 4.088 0 002.87-1.164 3.885 3.885 0 001.2-2.794V5.38a3.885 3.885 0 00-1.2-2.794 4.088 4.088 0 00-2.87-1.164H5.53a4.088 4.088 0 00-2.87 1.164 3.885 3.885 0 00-1.2 2.794v8.24a3.885 3.885 0 001.2 2.794 4.088 4.088 0 002.87 1.164h7.94zm1.29-8.151a5.232 5.232 0 11-5.23-5.093 5.162 5.162 0 015.23 5.093zM9.5 6.096a3.336 3.336 0 103.43 3.335A3.377 3.377 0 009.5 6.1zm6.58-1.841a1.235 1.235 0 11-1.23-1.206 1.218 1.218 0 011.23 1.206z" fill="#fff" fill-rule="evenodd"/></svg>