<svg width="134" height="12" fill="none" xmlns="http://www.w3.org/2000/svg"><path fill-rule="evenodd" clip-rule="evenodd" d="M40.097 5.265l-1.627 5.753h-3.273L38.254.195h3.274L40.185 4.95l-.088.315zm.726-.299l5.082-4.77h3.819l-5.361 4.768 2.627 6.054h-4l-2.167-6.052zM3.727 6.648a4.37 4.37 0 01-.104.291c-.283.748-.894 2.363.465 2.25 1.172-.098 1.474-1.05 1.635-1.618L7.776.299h3.274L9.025 7.466c-.127.449-.556 1.798-1.527 2.607-1.32 1.079-2.944 1.289-4.023 1.289-1.388 0-2.799-.312-3.343-1.468C-.2 9.19.162 7.473.49 6.648h3.238zm68.79 0c-.018.064-.055.164-.102.287-.283.746-.898 2.368.464 2.255 1.171-.099 1.474-1.05 1.634-1.62L76.566.3h3.274l-2.025 7.167c-.126.449-.556 1.798-1.527 2.607-1.32 1.079-2.942 1.289-4.024 1.289-1.386 0-2.798-.312-3.342-1.468-.333-.704.03-2.421.357-3.246h3.238zm-57.744.309l2.896-4.542h.049l.215 4.542h-3.16zm-5.949 4.165h3.225l1.404-2.174h4.66l.191 2.174h3.646L20.41.299h-3.933L8.825 11.122zm23.24-7.418c.164-1.096-.543-1.498-1.465-1.498-1.95 0-3.019 1.663-3.578 3.64-.186.66-.94 3.387 1.557 3.387 1.71 0 2.216-1.153 2.399-1.571h3.354c-.973 3.387-4.762 3.67-6.279 3.67-1.13 0-3.075-.18-4.012-1.437-.917-1.26-.656-2.984-.338-4.11.418-1.482 1.21-2.965 2.632-4.121C27.882.404 29.507.077 31.203.077c1.887 0 3.203.42 3.867 1.318.658.91.425 1.859.322 2.28l-.007.03h-3.32zm51.202 2.039c.522-1.863 1.589-3.569 3.716-3.569.707 0 1.417.181 1.716.78.218.48.397 1.229-.034 2.742-.429 1.498-1.37 3.478-3.677 3.478-2.145 0-2.21-1.708-1.721-3.431zm-3.328.016c-1.137 4.031 1.3 5.618 4.396 5.618 2.772 0 6.436-1.322 7.655-5.634.743-2.64.364-5.743-4.281-5.743-.854 0-3.111.122-4.967 1.502-1.86 1.378-2.6 3.534-2.803 4.257zm15.41-5.46h4.45l1.655 8.065 2.248-8.065h2.824l-3.062 10.823h-4.354l-1.639-8.41-2.343 8.41H92.29L95.347.299zm13.456.034h8.737l-.582 2.066h-5.55l-.635 2.25h5.225l-.585 2.068h-5.226l-.65 2.307h5.676l-.593 2.098h-8.874L108.804.333zm11.483 7.34l-.003.014c-.108.448-.404 1.666 1.494 1.666.275 0 1.729 0 2.074-1.227.143-.51.016-.858-.705-1.049l-2.657-.689c-.751-.195-2.687-.707-2.048-2.97.495-1.754 2.377-3.387 5.859-3.387 4.55 0 4.09 2.296 3.783 3.447h-3.271l.004-.014c.097-.347.414-1.484-1.116-1.484-.931 0-1.674.494-1.849 1.139-.228.795.425.988.859 1.11l2.031.524c1.441.376 3.152.822 2.505 3.12-.685 2.411-3.211 3.489-6.131 3.489-1.209 0-3.109-.18-3.859-1.289-.599-.851-.339-1.887-.218-2.368l.008-.031h3.24zM132.429.579c1.018 0 1.506.6 1.262 1.487-.245.888-1.062 1.487-2.085 1.487-1.022 0-1.767-.6-1.522-1.487.247-.887 1.323-1.487 2.345-1.487zm-.086.31c-.841 0-1.638.504-1.825 1.177-.187.673.336 1.177 1.175 1.177.828 0 1.379-.504 1.562-1.177.188-.673-.084-1.178-.912-1.178zm-.494 1.292h-.344l-.205.733h-.37l.469-1.695h.625c.596 0 .836.08.826.446-.01.313-.346.468-.619.505l.427.744h-.435l-.374-.733zm.116-.24c.278 0 .526-.018.594-.255.054-.199-.207-.23-.428-.23h-.429l-.133.486h.396zm-66.716 8.955c.48.55-16.055.55-15.26 0-.795.55 2.484-10.989 2.966-10.44-.482-.549 16.055-.549 15.26 0 .795-.549-2.485 10.99-2.966 10.44zm-13.09-3.869l.87-2.051s.474-1.045 1.878-1.025H65.98l-.477 1.163-7.304.002c-1.38-.005-1.571.95-1.571.95l-.395.961h-4.075zm4.7-.58l-.237.579 7.762.001s.38-.006.519-.39l.452-1.122h-3.478l-.252.614c-.196.312-.482.318-.482.318H56.86z" fill="#80808E"/></svg>