<svg width="44" height="25" viewBox="0 0 44 25" fill="none" xmlns="http://www.w3.org/2000/svg">
    <path d="M43.5484 24.5053H31.5187V0.325233H35.4884V21.0159C35.4884 22.1454 36.4063 23.0632 37.5343 23.0632C38.6644 23.0632 39.5801 22.1454 39.5801 21.0159L39.578 16.806H43.5484V24.5053ZM28.6303 8.38524C28.6303 9.5885 27.5776 11.7233 26.0151 11.7233C27.5776 11.7233 28.6303 13.0757 28.6303 14.0997V21.3472C28.6303 22.5799 27.6385 24.5053 24.6612 24.5053H16.7217V0.325233H24.6612C26.1943 0.325233 28.6303 1.58875 28.6303 4.2649V8.38524ZM13.7142 20.2946C13.7142 22.7025 12.151 24.8652 7.69862 24.8652C3.24768 24.8652 1.68443 22.0385 1.68443 20.2946V16.806H5.65348L5.65565 21.0159C5.65565 22.1454 6.5728 23.0632 7.70148 23.0632C8.83089 23.0632 9.74517 22.1167 9.74517 20.9873L9.74445 0.325233H13.7142V20.2946ZM3.66931 9.57632C4.93712 9.57632 5.96541 10.6039 5.96541 11.8746C5.96541 13.1424 4.93712 14.1714 3.66931 14.1714C2.40008 14.1714 1.3725 13.1424 1.3725 11.8746C1.3725 10.6039 2.40008 9.57632 3.66931 9.57632ZM7.33863 0.325233L3.66931 8.685L0 0.325233H7.33863ZM22.857 2.61059H20.6914V10.7301L22.857 10.7373C24.3005 10.7373 24.6612 10.4899 24.6612 6.70156C24.6612 2.91249 24.3005 2.61059 22.857 2.61059ZM23.0973 12.7781H20.6914V22.5197L23.0973 22.5254C24.6612 22.5254 24.6612 21.4663 24.6612 17.6786C24.6612 13.8882 24.6612 12.7781 23.0973 12.7781Z" fill="#80808E"/>
</svg>
