<svg width="131" height="16" viewBox="0 0 131 16" fill="none" xmlns="http://www.w3.org/2000/svg">
<path d="M5.00295 5.66359L7.6891 1.7463C8.19275 1.0188 8.86429 0.655051 9.67572 0.655051C10.3473 0.655051 10.9069 0.878896 11.3825 1.35457C11.8582 1.83024 12.11 2.38985 12.11 3.03341C12.11 3.50908 11.9701 3.92879 11.7183 4.32052L9.284 7.84608L12.2499 11.6235C12.5577 11.9872 12.6976 12.4349 12.6976 12.9386C12.6976 13.6101 12.4738 14.1697 11.9981 14.6454C11.5224 15.1211 10.9628 15.3729 10.2913 15.3729C9.5638 15.3729 9.00419 15.149 8.61246 14.6734L4.97497 10.1405V12.6588C4.97497 13.3863 4.86305 13.9179 4.61123 14.3376C4.16353 15.0651 3.492 15.4288 2.6246 15.4288C1.84114 15.4288 1.22557 15.177 0.805856 14.6454C0.414126 14.0858 0.218262 13.4422 0.218262 12.6308V3.34119C0.218262 2.58572 0.414126 1.94216 0.833836 1.43851C1.25355 0.934857 1.86912 0.655051 2.6246 0.655051C3.3521 0.655051 3.93969 0.934857 4.41536 1.43851C4.69517 1.71832 4.86305 2.0261 4.91901 2.30591C4.97497 2.50177 4.97497 2.83754 4.97497 3.34119V5.66359H5.00295ZM18.3777 3.621V12.6028C18.3777 13.3863 18.1818 14.0298 17.7621 14.5335C17.3424 15.0931 16.7269 15.3729 15.9714 15.3729C15.2719 15.3729 14.6843 15.1211 14.2086 14.5894C13.8169 14.1697 13.593 13.4982 13.593 12.6028V3.621C13.593 2.6137 13.7889 1.8862 14.2086 1.43851C14.6843 0.906877 15.2719 0.655051 15.9994 0.655051C16.7269 0.655051 17.3144 0.906877 17.7621 1.41053C18.1818 1.8862 18.3777 2.6137 18.3777 3.621ZM26.9958 0.375244C28.7585 0.375244 30.3814 0.962838 31.8644 2.13803C33.0116 3.06139 33.5992 4.04071 33.5992 5.04801C33.5992 5.88743 33.2354 6.55897 32.5359 7.03464C32.1442 7.31445 31.6965 7.42637 31.2208 7.42637C30.8291 7.42637 30.4654 7.34243 30.1016 7.14656C29.9617 7.06262 29.598 6.69887 29.0104 6.0833C28.4787 5.4957 27.7792 5.18792 26.9678 5.18792C26.1843 5.18792 25.5128 5.46772 24.9811 5.99936C24.4495 6.55897 24.1697 7.2305 24.1697 8.01396C24.1697 8.79742 24.4495 9.46896 24.9811 10.0286C25.5128 10.5882 26.1843 10.84 26.9678 10.84C27.6113 10.84 28.2269 10.6162 28.7865 10.1685C29.1223 9.83271 29.486 9.49694 29.8218 9.16117C30.1855 8.85338 30.6612 8.6855 31.2208 8.6855C31.8644 8.6855 32.424 8.90934 32.9277 9.35703C33.4033 9.80473 33.6552 10.3643 33.6552 11.0079C33.6552 11.9033 33.1235 12.7987 32.0882 13.694C30.6332 14.9811 28.9544 15.5967 27.0237 15.5967C25.8485 15.5967 24.7293 15.3449 23.6661 14.8412C22.351 14.1977 21.2877 13.2743 20.5042 12.0432C19.7208 10.812 19.3291 9.46896 19.3291 7.98598C19.3291 5.80349 20.1405 3.92879 21.7634 2.38985C23.1904 1.07476 24.9252 0.403225 26.9958 0.375244ZM39.2513 5.66359L41.9374 1.7463C42.4411 1.0188 43.1126 0.655051 43.924 0.655051C44.5956 0.655051 45.1552 0.878896 45.6309 1.35457C46.1065 1.83024 46.3584 2.38985 46.3584 3.03341C46.3584 3.50908 46.2185 3.92879 45.9666 4.32052L43.5323 7.84608L46.4983 11.6235C46.8061 11.9872 46.946 12.4349 46.946 12.9386C46.946 13.6101 46.7221 14.1697 46.2464 14.6454C45.7708 15.1211 45.2112 15.3729 44.5396 15.3729C43.8121 15.3729 43.2525 15.149 42.8608 14.6734L39.2233 10.1405V12.6588C39.2233 13.3863 39.1114 13.9179 38.8596 14.3376C38.4119 15.0651 37.7403 15.4288 36.8729 15.4288C36.0895 15.4288 35.4739 15.177 35.0542 14.6454C34.6625 14.1697 34.4386 13.4982 34.4386 12.7147V3.34119C34.4386 2.58572 34.6345 1.94216 35.0542 1.43851C35.5299 0.934857 36.1174 0.655051 36.8729 0.655051C37.6004 0.655051 38.188 0.906877 38.6917 1.43851C38.9715 1.71832 39.1394 2.0261 39.1953 2.30591C39.2513 2.50177 39.2513 2.83754 39.2513 3.34119V5.66359Z" fill="#80808E"/>
<path d="M49.9399 9.77674C50.4715 9.77674 51.0312 10.0006 51.6467 10.4763C52.4022 11.0639 52.9059 11.3437 53.1857 11.3437C53.6054 11.3437 53.8012 11.1198 53.8012 10.7001C53.8012 10.4763 53.6893 10.2804 53.4375 10.1125C53.2976 10.0286 52.5981 9.74876 51.283 9.30107C49.1565 8.5456 48.0932 7.17454 48.0932 5.13196C48.0932 3.59302 48.6528 2.38985 49.772 1.52245C50.7793 0.766973 51.9825 0.375244 53.4375 0.375244C54.6966 0.375244 55.7879 0.683031 56.7112 1.27063C57.6346 1.85822 58.1103 2.64168 58.1103 3.59302C58.1103 4.15263 57.9424 4.6283 57.5786 5.02003C57.2149 5.41176 56.7672 5.57965 56.2076 5.57965C55.62 5.57965 54.9764 5.29984 54.2489 4.74023C53.8013 4.40446 53.4655 4.20859 53.2416 4.20859C52.8499 4.20859 52.654 4.40446 52.654 4.76821C52.654 5.13196 53.1297 5.46772 54.109 5.74753C55.4521 6.16724 56.4594 6.67089 57.1869 7.28647C58.1662 8.09791 58.6419 9.21713 58.6419 10.6721C58.6419 12.267 58.1103 13.4982 57.019 14.3936C56.0117 15.233 54.6966 15.6247 53.0737 15.6247C51.4509 15.6247 50.1078 15.205 49.0445 14.3376C48.2051 13.6381 47.7574 12.8546 47.7574 11.9313C47.7574 11.3157 47.9533 10.812 48.373 10.3923C48.8207 10.0006 49.3243 9.77674 49.9399 9.77674ZM62.7271 5.2159H61.4679C60.7684 5.2159 60.1808 5.02003 59.7331 4.65628C59.2575 4.23658 59.0056 3.70494 59.0056 3.00543C59.0056 2.58572 59.1176 2.19399 59.3414 1.83024C59.5653 1.43851 59.8731 1.18668 60.2368 1.0188C60.6005 0.850915 61.4679 0.766973 62.839 0.766973H67.6517C68.8269 0.766973 69.6103 0.850915 69.9461 0.990819C70.3378 1.1587 70.6456 1.41053 70.8694 1.80226C71.0933 2.19399 71.2332 2.58572 71.2332 3.00543C71.2332 3.67696 70.9814 4.23658 70.4497 4.71225C70.086 5.04801 69.4704 5.24388 68.603 5.24388H67.5118V12.4629C67.5118 13.2463 67.3719 13.8619 67.12 14.2816C66.6724 15.0091 66.0008 15.3729 65.1614 15.3729C64.294 15.3729 63.6504 15.0371 63.1748 14.3936C62.895 13.9738 62.7271 13.3583 62.7271 12.5189V5.2159ZM74.3391 13.3863C74.1152 13.9179 73.8914 14.3376 73.6395 14.5894C73.1639 15.1211 72.5763 15.3729 71.8768 15.3729C71.0373 15.3729 70.3658 15.0371 69.9181 14.3656C69.6383 13.9738 69.4984 13.4982 69.4984 12.9945C69.4984 12.5748 69.6103 12.1551 69.8062 11.7354L74.3391 2.08206C74.7867 1.13072 75.5142 0.683031 76.5495 0.683031C77.5848 0.683031 78.3403 1.1587 78.788 2.13803L83.3768 11.8473C83.5727 12.239 83.6566 12.6308 83.6566 12.9945C83.6566 13.5541 83.4608 14.0578 83.097 14.5055C82.6213 15.0931 82.0058 15.3729 81.2503 15.3729C80.6347 15.3729 80.1311 15.177 79.7113 14.8133C79.4036 14.5335 79.0958 14.0578 78.788 13.4142H74.3391V13.3863ZM94.2053 9.66482L95.3245 11.4836C95.6323 11.9872 95.8002 12.4909 95.8002 13.0225C95.8002 13.694 95.5764 14.2537 95.1007 14.7013C94.625 15.149 94.0654 15.3729 93.3939 15.3729C92.5265 15.3729 91.8829 15.0091 91.4352 14.2816L89.4486 11.0079V12.9665C89.4486 13.6381 89.2248 14.1977 88.7771 14.6734C88.3294 15.149 87.7698 15.3729 87.0982 15.3729C86.2868 15.3729 85.6432 15.0931 85.2235 14.4775C84.8318 13.9738 84.6639 13.2743 84.6639 12.4349V3.50908C84.6639 1.66235 85.6432 0.766973 87.6299 0.766973H90.6798C91.6871 0.766973 92.6104 1.04678 93.4498 1.63437C94.3172 2.22197 94.9328 2.94946 95.3245 3.87283C95.6323 4.57234 95.7722 5.27186 95.7722 5.97138C95.7722 7.28647 95.2406 8.51762 94.2053 9.66482ZM99.8854 5.2159H98.6263C97.9268 5.2159 97.3392 5.02003 96.8915 4.65628C96.4158 4.23658 96.164 3.70494 96.164 3.00543C96.164 2.58572 96.2759 2.19399 96.4997 1.83024C96.7236 1.43851 97.0314 1.18668 97.3951 1.0188C97.7589 0.850915 98.6263 0.766973 99.9973 0.766973H104.81C105.985 0.766973 106.769 0.850915 107.104 0.990819C107.496 1.1587 107.804 1.41053 108.028 1.80226C108.252 2.19399 108.392 2.58572 108.392 3.00543C108.392 3.67696 108.14 4.23658 107.608 4.71225C107.244 5.04801 106.629 5.24388 105.761 5.24388H104.67V12.4629C104.67 13.2463 104.53 13.8619 104.278 14.2816C103.831 15.0091 103.159 15.3729 102.32 15.3729C101.452 15.3729 100.809 15.0371 100.333 14.3936C100.053 13.9738 99.8854 13.3583 99.8854 12.5189V5.2159ZM114.044 10.784H116.226C117.121 10.784 117.793 10.9799 118.241 11.3437C118.744 11.7914 119.024 12.351 119.024 13.0505C119.024 13.75 118.772 14.3376 118.241 14.7573C117.849 15.0931 117.177 15.261 116.254 15.261H112.533C111.665 15.261 111.05 15.205 110.714 15.0651C110.07 14.8133 109.651 14.3656 109.455 13.778C109.315 13.3863 109.259 12.7707 109.259 11.9033V4.01273C109.259 3.34119 109.287 2.92148 109.315 2.69764C109.399 2.24995 109.567 1.85822 109.874 1.52245C110.21 1.1587 110.658 0.934857 111.162 0.822935C111.413 0.766973 111.917 0.766973 112.673 0.766973H115.527C116.31 0.766973 116.758 0.766973 116.898 0.794954C117.401 0.850915 117.821 0.990819 118.157 1.24264C118.744 1.69034 119.024 2.24995 119.024 2.94946C119.024 3.70494 118.772 4.29254 118.269 4.71225C117.821 5.07599 117.205 5.24388 116.422 5.24388H114.072V6.2232H115.946C116.506 6.2232 116.954 6.36311 117.317 6.67089C117.709 6.97868 117.877 7.39839 117.877 7.958C117.877 9.10521 117.177 9.6928 115.778 9.6928H114.072V10.784H114.044ZM129.405 9.66482L130.524 11.4836C130.832 11.9872 131 12.4909 131 13.0225C131 13.694 130.776 14.2537 130.3 14.7013C129.825 15.149 129.265 15.3729 128.594 15.3729C127.726 15.3729 127.083 15.0091 126.635 14.2816L124.648 11.0079V12.9665C124.648 13.6381 124.424 14.1977 123.977 14.6734C123.529 15.149 122.969 15.3729 122.298 15.3729C121.486 15.3729 120.843 15.0931 120.423 14.4775C120.031 13.9738 119.864 13.2743 119.864 12.4349V3.50908C119.864 1.66235 120.843 0.766973 122.83 0.766973H125.879C126.887 0.766973 127.81 1.04678 128.65 1.63437C129.517 2.22197 130.132 2.94946 130.524 3.87283C130.832 4.57234 130.972 5.27186 130.972 5.97138C130.972 7.28647 130.44 8.51762 129.405 9.66482Z" fill="#80808E"/>
</svg>
