<svg width="131" height="40" viewBox="0 0 131 40" fill="none" xmlns="http://www.w3.org/2000/svg">
<path d="M5.00295 18.6636L7.6891 14.7463C8.19275 14.0188 8.86429 13.6551 9.67572 13.6551C10.3473 13.6551 10.9069 13.8789 11.3825 14.3546C11.8582 14.8302 12.11 15.3899 12.11 16.0334C12.11 16.5091 11.9701 16.9288 11.7183 17.3205L9.284 20.8461L12.2499 24.6235C12.5577 24.9872 12.6976 25.4349 12.6976 25.9386C12.6976 26.6101 12.4738 27.1697 11.9981 27.6454C11.5224 28.1211 10.9628 28.3729 10.2913 28.3729C9.5638 28.3729 9.00419 28.149 8.61246 27.6734L4.97497 23.1405V25.6588C4.97497 26.3863 4.86305 26.9179 4.61123 27.3376C4.16353 28.0651 3.492 28.4288 2.6246 28.4288C1.84114 28.4288 1.22557 28.177 0.805856 27.6454C0.414126 27.0858 0.218262 26.4422 0.218262 25.6308V16.3412C0.218262 15.5857 0.414126 14.9422 0.833836 14.4385C1.25355 13.9349 1.86912 13.6551 2.6246 13.6551C3.3521 13.6551 3.93969 13.9349 4.41536 14.4385C4.69517 14.7183 4.86305 15.0261 4.91901 15.3059C4.97497 15.5018 4.97497 15.8375 4.97497 16.3412V18.6636H5.00295ZM18.3777 16.621V25.6028C18.3777 26.3863 18.1818 27.0298 17.7621 27.5335C17.3424 28.0931 16.7269 28.3729 15.9714 28.3729C15.2719 28.3729 14.6843 28.1211 14.2086 27.5894C13.8169 27.1697 13.593 26.4982 13.593 25.6028V16.621C13.593 15.6137 13.7889 14.8862 14.2086 14.4385C14.6843 13.9069 15.2719 13.6551 15.9994 13.6551C16.7269 13.6551 17.3144 13.9069 17.7621 14.4105C18.1818 14.8862 18.3777 15.6137 18.3777 16.621ZM26.9958 13.3752C28.7585 13.3752 30.3814 13.9628 31.8644 15.138C33.0116 16.0614 33.5992 17.0407 33.5992 18.048C33.5992 18.8874 33.2354 19.559 32.5359 20.0346C32.1442 20.3144 31.6965 20.4264 31.2208 20.4264C30.8291 20.4264 30.4654 20.3424 30.1016 20.1466C29.9617 20.0626 29.598 19.6989 29.0104 19.0833C28.4787 18.4957 27.7792 18.1879 26.9678 18.1879C26.1843 18.1879 25.5128 18.4677 24.9811 18.9994C24.4495 19.559 24.1697 20.2305 24.1697 21.014C24.1697 21.7974 24.4495 22.469 24.9811 23.0286C25.5128 23.5882 26.1843 23.84 26.9678 23.84C27.6113 23.84 28.2269 23.6162 28.7865 23.1685C29.1223 22.8327 29.486 22.4969 29.8218 22.1612C30.1855 21.8534 30.6612 21.6855 31.2208 21.6855C31.8644 21.6855 32.424 21.9093 32.9277 22.357C33.4033 22.8047 33.6552 23.3643 33.6552 24.0079C33.6552 24.9033 33.1235 25.7987 32.0882 26.694C30.6332 27.9811 28.9544 28.5967 27.0237 28.5967C25.8485 28.5967 24.7293 28.3449 23.6661 27.8412C22.351 27.1977 21.2877 26.2743 20.5042 25.0432C19.7208 23.812 19.3291 22.469 19.3291 20.986C19.3291 18.8035 20.1405 16.9288 21.7634 15.3899C23.1904 14.0748 24.9252 13.4032 26.9958 13.3752ZM39.2513 18.6636L41.9374 14.7463C42.4411 14.0188 43.1126 13.6551 43.924 13.6551C44.5956 13.6551 45.1552 13.8789 45.6309 14.3546C46.1065 14.8302 46.3584 15.3899 46.3584 16.0334C46.3584 16.5091 46.2185 16.9288 45.9666 17.3205L43.5323 20.8461L46.4983 24.6235C46.8061 24.9872 46.946 25.4349 46.946 25.9386C46.946 26.6101 46.7221 27.1697 46.2464 27.6454C45.7708 28.1211 45.2112 28.3729 44.5396 28.3729C43.8121 28.3729 43.2525 28.149 42.8608 27.6734L39.2233 23.1405V25.6588C39.2233 26.3863 39.1114 26.9179 38.8596 27.3376C38.4119 28.0651 37.7403 28.4288 36.8729 28.4288C36.0895 28.4288 35.4739 28.177 35.0542 27.6454C34.6625 27.1697 34.4386 26.4982 34.4386 25.7147V16.3412C34.4386 15.5857 34.6345 14.9422 35.0542 14.4385C35.5299 13.9349 36.1174 13.6551 36.8729 13.6551C37.6004 13.6551 38.188 13.9069 38.6917 14.4385C38.9715 14.7183 39.1394 15.0261 39.1953 15.3059C39.2513 15.5018 39.2513 15.8375 39.2513 16.3412V18.6636Z" fill="#80808E"/>
<path d="M49.9399 22.7767C50.4715 22.7767 51.0312 23.0006 51.6467 23.4763C52.4022 24.0639 52.9059 24.3437 53.1857 24.3437C53.6054 24.3437 53.8012 24.1198 53.8012 23.7001C53.8012 23.4763 53.6893 23.2804 53.4375 23.1125C53.2976 23.0286 52.5981 22.7488 51.283 22.3011C49.1565 21.5456 48.0932 20.1745 48.0932 18.132C48.0932 16.593 48.6528 15.3899 49.772 14.5225C50.7793 13.767 51.9825 13.3752 53.4375 13.3752C54.6966 13.3752 55.7879 13.683 56.7112 14.2706C57.6346 14.8582 58.1103 15.6417 58.1103 16.593C58.1103 17.1526 57.9424 17.6283 57.5786 18.02C57.2149 18.4118 56.7672 18.5796 56.2076 18.5796C55.62 18.5796 54.9764 18.2998 54.2489 17.7402C53.8013 17.4045 53.4655 17.2086 53.2416 17.2086C52.8499 17.2086 52.654 17.4045 52.654 17.7682C52.654 18.132 53.1297 18.4677 54.109 18.7475C55.4521 19.1672 56.4594 19.6709 57.1869 20.2865C58.1662 21.0979 58.6419 22.2171 58.6419 23.6721C58.6419 25.267 58.1103 26.4982 57.019 27.3936C56.0117 28.233 54.6966 28.6247 53.0737 28.6247C51.4509 28.6247 50.1078 28.205 49.0445 27.3376C48.2051 26.6381 47.7574 25.8546 47.7574 24.9313C47.7574 24.3157 47.9533 23.812 48.373 23.3923C48.8207 23.0006 49.3243 22.7767 49.9399 22.7767ZM62.7271 18.2159H61.4679C60.7684 18.2159 60.1808 18.02 59.7331 17.6563C59.2575 17.2366 59.0056 16.7049 59.0056 16.0054C59.0056 15.5857 59.1176 15.194 59.3414 14.8302C59.5653 14.4385 59.8731 14.1867 60.2368 14.0188C60.6005 13.8509 61.4679 13.767 62.839 13.767H67.6517C68.8269 13.767 69.6103 13.8509 69.9461 13.9908C70.3378 14.1587 70.6456 14.4105 70.8694 14.8023C71.0933 15.194 71.2332 15.5857 71.2332 16.0054C71.2332 16.677 70.9814 17.2366 70.4497 17.7122C70.086 18.048 69.4704 18.2439 68.603 18.2439H67.5118V25.4629C67.5118 26.2463 67.3719 26.8619 67.12 27.2816C66.6724 28.0091 66.0008 28.3729 65.1614 28.3729C64.294 28.3729 63.6504 28.0371 63.1748 27.3936C62.895 26.9738 62.7271 26.3583 62.7271 25.5189V18.2159ZM74.3391 26.3863C74.1152 26.9179 73.8914 27.3376 73.6395 27.5894C73.1639 28.1211 72.5763 28.3729 71.8768 28.3729C71.0373 28.3729 70.3658 28.0371 69.9181 27.3656C69.6383 26.9738 69.4984 26.4982 69.4984 25.9945C69.4984 25.5748 69.6103 25.1551 69.8062 24.7354L74.3391 15.0821C74.7867 14.1307 75.5142 13.683 76.5495 13.683C77.5848 13.683 78.3403 14.1587 78.788 15.138L83.3768 24.8473C83.5727 25.239 83.6566 25.6308 83.6566 25.9945C83.6566 26.5541 83.4608 27.0578 83.097 27.5055C82.6213 28.0931 82.0058 28.3729 81.2503 28.3729C80.6347 28.3729 80.1311 28.177 79.7113 27.8133C79.4036 27.5335 79.0958 27.0578 78.788 26.4142H74.3391V26.3863ZM94.2053 22.6648L95.3245 24.4836C95.6323 24.9872 95.8002 25.4909 95.8002 26.0225C95.8002 26.694 95.5764 27.2537 95.1007 27.7013C94.625 28.149 94.0654 28.3729 93.3939 28.3729C92.5265 28.3729 91.8829 28.0091 91.4352 27.2816L89.4486 24.0079V25.9665C89.4486 26.6381 89.2248 27.1977 88.7771 27.6734C88.3294 28.149 87.7698 28.3729 87.0982 28.3729C86.2868 28.3729 85.6432 28.0931 85.2235 27.4775C84.8318 26.9738 84.6639 26.2743 84.6639 25.4349V16.5091C84.6639 14.6624 85.6432 13.767 87.6299 13.767H90.6798C91.6871 13.767 92.6104 14.0468 93.4498 14.6344C94.3172 15.222 94.9328 15.9495 95.3245 16.8728C95.6323 17.5723 95.7722 18.2719 95.7722 18.9714C95.7722 20.2865 95.2406 21.5176 94.2053 22.6648ZM99.8854 18.2159H98.6263C97.9268 18.2159 97.3392 18.02 96.8915 17.6563C96.4158 17.2366 96.164 16.7049 96.164 16.0054C96.164 15.5857 96.2759 15.194 96.4997 14.8302C96.7236 14.4385 97.0314 14.1867 97.3951 14.0188C97.7589 13.8509 98.6263 13.767 99.9973 13.767H104.81C105.985 13.767 106.769 13.8509 107.104 13.9908C107.496 14.1587 107.804 14.4105 108.028 14.8023C108.252 15.194 108.392 15.5857 108.392 16.0054C108.392 16.677 108.14 17.2366 107.608 17.7122C107.244 18.048 106.629 18.2439 105.761 18.2439H104.67V25.4629C104.67 26.2463 104.53 26.8619 104.278 27.2816C103.831 28.0091 103.159 28.3729 102.32 28.3729C101.452 28.3729 100.809 28.0371 100.333 27.3936C100.053 26.9738 99.8854 26.3583 99.8854 25.5189V18.2159ZM114.044 23.784H116.226C117.121 23.784 117.793 23.9799 118.241 24.3437C118.744 24.7914 119.024 25.351 119.024 26.0505C119.024 26.75 118.772 27.3376 118.241 27.7573C117.849 28.0931 117.177 28.261 116.254 28.261H112.533C111.665 28.261 111.05 28.205 110.714 28.0651C110.07 27.8133 109.651 27.3656 109.455 26.778C109.315 26.3863 109.259 25.7707 109.259 24.9033V17.0127C109.259 16.3412 109.287 15.9215 109.315 15.6976C109.399 15.2499 109.567 14.8582 109.874 14.5225C110.21 14.1587 110.658 13.9349 111.162 13.8229C111.413 13.767 111.917 13.767 112.673 13.767H115.527C116.31 13.767 116.758 13.767 116.898 13.795C117.401 13.8509 117.821 13.9908 118.157 14.2426C118.744 14.6903 119.024 15.2499 119.024 15.9495C119.024 16.7049 118.772 17.2925 118.269 17.7122C117.821 18.076 117.205 18.2439 116.422 18.2439H114.072V19.2232H115.946C116.506 19.2232 116.954 19.3631 117.317 19.6709C117.709 19.9787 117.877 20.3984 117.877 20.958C117.877 22.1052 117.177 22.6928 115.778 22.6928H114.072V23.784H114.044ZM129.405 22.6648L130.524 24.4836C130.832 24.9872 131 25.4909 131 26.0225C131 26.694 130.776 27.2537 130.3 27.7013C129.825 28.149 129.265 28.3729 128.594 28.3729C127.726 28.3729 127.083 28.0091 126.635 27.2816L124.648 24.0079V25.9665C124.648 26.6381 124.424 27.1977 123.977 27.6734C123.529 28.149 122.969 28.3729 122.298 28.3729C121.486 28.3729 120.843 28.0931 120.423 27.4775C120.031 26.9738 119.864 26.2743 119.864 25.4349V16.5091C119.864 14.6624 120.843 13.767 122.83 13.767H125.879C126.887 13.767 127.81 14.0468 128.65 14.6344C129.517 15.222 130.132 15.9495 130.524 16.8728C130.832 17.5723 130.972 18.2719 130.972 18.9714C130.972 20.2865 130.44 21.5176 129.405 22.6648Z" fill="#80808E"/>
</svg>
