<svg width="89" height="46" fill="none" xmlns="http://www.w3.org/2000/svg"><path fill-rule="evenodd" clip-rule="evenodd" d="M55.225 29.797c.002.38.002.76-.001 1.139.927.006 1.855-.005 2.783.007-1.042 1.452-2.054 2.926-3.08 4.388l.001.876c1.63.003 3.26.005 4.89 0-.003-.38-.004-.759-.004-1.138-1.03-.008-2.062.007-3.093-.01.97-1.354 1.905-2.736 2.871-4.093.283-.325.127-.785.155-1.172-1.507.006-3.014 0-4.522.003zm-8.606-.001c-.005 1.563.001 3.124-.005 4.685-.015.431.112.87.38 1.21.775.94 2.244.789 3.12.069l-.012.447c.432.003.864.003 1.297.003-.005-2.138-.002-4.276-.002-6.414h-1.292c-.009 1.546.024 3.094-.013 4.639-.464.44-1.09.835-1.758.727-.307-.083-.449-.38-.426-.678.003-1.543-.018-3.088.013-4.63-.426-.11-.87-.045-1.302-.058zm32.383.531l-.004-.531c-.422 0-.842 0-1.26-.002-.011 2.154 0 4.307-.008 6.46l1.274.001c.004-1.544-.006-3.09.004-4.634.527-.393 1.145-.893 1.85-.688.36.09.392.528.407.837.008 1.495.002 2.989 0 4.484.431 0 .862 0 1.293-.002-.006-1.498.006-2.995-.005-4.491-.02-.663-.215-1.426-.843-1.763-.854-.526-1.971-.292-2.708.33zm-6.51.181c.01-.238.015-.476.021-.712-.408 0-.816.001-1.223-.003-.016 2.14-.003 4.279-.007 6.419a66.8 66.8 0 011.226.001c.006-1.081-.006-2.16.001-3.242.13-.981.833-2.127 1.971-2a86.44 86.44 0 01-.001-1.267c-.755-.074-1.508.212-1.988.804zm-8.061-.698c-.971.308-1.583 1.28-1.729 2.25-.208 1.139-.09 2.432.655 3.363.82.97 2.33 1.197 3.446.63.575-.308.977-.855 1.262-1.43-.351-.17-.7-.343-1.044-.522-.303.635-.937 1.158-1.676 1.075-.884-.063-1.389-.982-1.452-1.783 1.3.005 2.6.006 3.9-.001.025-1.003.025-2.123-.667-2.93-.638-.788-1.774-.904-2.695-.652zm-23.084-2.322c.003 2.907.003 5.815 0 8.722.43 0 .862 0 1.293-.004-.006-2.905.002-5.81-.003-8.714-.43-.003-.86-.004-1.29-.004zM1.322 23.404c.003 6.914.002 13.83.002 20.744 7.186-.003 14.37 0 21.557-.002.021-6.914-.003-13.826.018-20.74-7.192-.01-14.385-.003-21.577-.002zm65.032-22.08c-.005 6.914.006 13.83-.006 20.745 7.11.001 14.22.001 21.33-.002-.005-6.914 0-13.828-.002-20.742-7.108-.003-14.216.002-21.322-.002zm-65.03.001c0 6.914.003 13.828-.002 20.74 21.235.008 42.47.002 63.705.004-.013-6.916-.003-13.83-.004-20.746-21.234.002-42.467 0-63.7.002zM0 45.472h89V0H0v45.472zM6.5 5.178a157.18 157.18 0 012.064.002c-.015 2.007.006 4.014-.012 6.02 1.6-2.005 3.215-3.998 4.792-6.02.848-.008 1.697-.002 2.546-.006-1.388 1.704-2.795 3.392-4.186 5.093l.003.101c1.497 2.726 3.04 5.424 4.525 8.153-.694.021-1.388.014-2.082.014-.249.068-.357-.185-.455-.35-1.14-2.065-2.304-4.116-3.446-6.179-.557.707-1.155 1.381-1.7 2.098.018 1.477.012 2.954.005 4.431-.681-.002-1.362 0-2.042 0-.02-4.452.003-8.905-.012-13.357zm16.884-.001c.671 0 1.345-.003 2.018.001-.012 2.015-.002 4.028-.006 6.04 1.617-2.003 3.21-4.027 4.819-6.038.846-.008 1.692-.003 2.539-.005-1.408 1.72-2.84 3.421-4.227 5.156 1.546 2.725 3.06 5.467 4.582 8.206-.77.003-1.54-.019-2.31.013-1.277-2.152-2.464-4.36-3.686-6.545-.573.697-1.14 1.399-1.722 2.09.01 1.48.01 2.96 0 4.441-.665-.003-1.331-.004-1.998 0-.017-4.453.003-8.906-.01-13.36zm17.517.001c.692-.003 1.387-.003 2.081.002-.01 3.838-.002 7.676-.005 11.514 2.002-.002 4.003.001 6.006-.002.002.614 0 1.229.002 1.843-2.693-.002-5.384-.002-8.077 0-.012-4.452.003-8.905-.007-13.357zm23.028 27.028c.09-.778.755-1.546 1.603-1.347.649.102.92.792.984 1.37-.862-.042-1.725-.009-2.587-.023z" fill="#80808E"/></svg>