<svg width="91" height="16" viewBox="0 0 91 16" fill="none" xmlns="http://www.w3.org/2000/svg">
<path fill-rule="evenodd" clip-rule="evenodd" d="M39.4489 0.273193V15.603H42.9445V8.43295C43.3538 7.92746 44.0343 7.35207 45.057 7.35207C46.1679 7.35207 46.8734 7.78766 46.8734 9.14306V15.603H50.369V7.69649C50.369 5.65124 49.2331 4.22695 46.7373 4.22695C44.8989 4.22695 43.603 5.07585 42.9445 5.8589V0.273193H39.4489ZM8.77801 8.7331L11.9333 0.273493H17.3603V15.6033H13.4545V5.46514L9.64165 15.6033H7.91437L4.07554 5.46514V15.6033H0.170654V0.273493H5.59766L8.77801 8.7331ZM23.5111 4.22697C21.8309 4.22697 19.9465 4.73043 18.5365 5.94908L19.8324 8.40764C20.7171 7.64991 21.8059 7.21331 22.8977 7.21331C24.3067 7.21331 25.1233 7.88088 25.1233 8.84526V9.94741C24.4658 9.1208 23.1699 8.63759 21.7168 8.63759C20.0366 8.63759 17.947 9.53511 17.947 12.2246C17.947 14.7055 20.0366 15.8796 21.7168 15.8796C23.1238 15.8796 24.4448 15.3254 25.1233 14.4988V15.603H28.6189V8.6619C28.6189 5.21364 26.1461 4.22697 23.5111 4.22697ZM21.4224 12.2712C21.4224 13.1454 22.264 13.5557 23.1697 13.5557C23.9432 13.5557 24.7598 13.2832 25.1231 12.7514V11.7647C24.7598 11.2359 23.9432 10.9817 23.1697 10.9817C22.264 10.9817 21.4224 11.396 21.4224 12.2712ZM33.806 11.5383C31.9225 11.2231 29.2775 10.7804 29.2775 7.88087C29.2775 5.92577 30.9577 4.22493 33.9759 4.22493C35.8393 4.22493 37.3825 4.82261 38.5623 5.69683L37.2253 8.20199C36.5658 7.55671 35.3189 6.98436 34.002 6.98436C33.1813 6.98436 32.6379 7.3065 32.6379 7.74209C32.6379 8.15715 33.3766 8.28383 34.3503 8.45082C36.233 8.77371 38.9946 9.24732 38.9946 12.2479C38.9946 14.3631 37.1563 15.8775 34.023 15.8775C32.0485 15.8775 30.026 15.211 28.8682 14.1554L30.3202 11.628C31.1388 12.3624 32.8871 13.1211 34.1811 13.1211C35.2259 13.1211 35.6562 12.8223 35.6562 12.3381C35.6562 11.8479 34.8475 11.7126 33.806 11.5383ZM56.4323 4.22691C54.7501 4.22691 52.8677 4.73038 51.4566 5.94902L52.7506 8.40758C53.6373 7.64986 54.7271 7.21325 55.8159 7.21325C57.2269 7.21325 58.0415 7.88082 58.0415 8.8452V9.94735C57.385 9.12074 56.0891 8.63754 54.637 8.63754C52.9578 8.63754 50.8662 9.53506 50.8662 12.2246C50.8662 14.7054 52.9578 15.8795 54.637 15.8795C56.042 15.8795 57.363 15.3254 58.0415 14.4988V15.603H61.5401V8.66185C61.5401 5.21358 59.0653 4.22691 56.4323 4.22691ZM54.3408 12.2713C54.3408 13.1455 55.1824 13.5558 56.0891 13.5558C56.8627 13.5558 57.6793 13.2833 58.0416 12.7514V11.7648C57.6793 11.236 56.8627 10.9817 56.0891 10.9817C55.1824 10.9817 54.3408 11.396 54.3408 12.2713ZM66.2386 0.273193H62.742V15.603H66.2386V14.3175C67.1482 15.373 68.259 15.8795 69.485 15.8795C72.188 15.8795 74.3215 13.812 74.3215 10.0416C74.3215 6.40896 72.235 4.22695 69.485 4.22695C68.2811 4.22695 67.1012 4.70813 66.2386 5.81129V0.273193ZM66.2388 11.7648C66.6691 12.3624 67.5788 12.7514 68.3273 12.7514C69.7133 12.7514 70.7561 11.7172 70.7561 10.0416C70.7561 8.38538 69.7133 7.35212 68.3273 7.35212C67.5788 7.35212 66.6691 7.76542 66.2388 8.36411V11.7648ZM78.3166 15.604H74.82V0.27417H78.3166V15.604ZM78.814 10.0406C78.814 6.82127 81.2007 4.22493 84.6293 4.22493C87.8757 4.22493 90.2354 6.63994 90.2354 10.4093V11.2126H82.4266C82.6748 12.2003 83.5845 13.031 85.1727 13.031C85.9442 13.031 87.2192 12.6835 87.8526 12.0879L89.3728 14.4066C88.283 15.3984 86.4666 15.8775 84.7874 15.8775C81.4039 15.8775 78.814 13.6479 78.814 10.0406ZM82.3806 8.7997C82.5167 7.99437 83.1072 7.0776 84.6293 7.0776C86.2405 7.0776 86.8079 8.01665 86.8979 8.7997H82.3806Z" fill="#80808E"/>
</svg>
