<svg width="90" height="40" viewBox="0 0 90 40" fill="none" xmlns="http://www.w3.org/2000/svg">
<path fill-rule="evenodd" clip-rule="evenodd" d="M39.2492 12V27.133H42.7422V20.055C43.1512 19.556 43.8312 18.988 44.8532 18.988C45.9632 18.988 46.6682 19.418 46.6682 20.756V27.133H50.1612V19.328C50.1612 17.309 49.0262 15.903 46.5322 15.903C44.6952 15.903 43.4002 16.741 42.7422 17.514V12H39.2492ZM8.601 20.3513L11.754 12.0003H17.177V27.1333H13.274V17.1253L9.464 27.1333H7.738L3.902 17.1253V27.1333H0V12.0003H5.423L8.601 20.3513ZM23.3232 15.903C21.6442 15.903 19.7612 16.4 18.3522 17.603L19.6472 20.03C20.5312 19.282 21.6192 18.851 22.7102 18.851C24.1182 18.851 24.9342 19.51 24.9342 20.462V21.55C24.2772 20.734 22.9822 20.257 21.5302 20.257C19.8512 20.257 17.7632 21.143 17.7632 23.798C17.7632 26.247 19.8512 27.406 21.5302 27.406C22.9362 27.406 24.2562 26.859 24.9342 26.043V27.133H28.4272V20.281C28.4272 16.877 25.9562 15.903 23.3232 15.903ZM21.2362 23.844C21.2362 24.707 22.0772 25.112 22.9822 25.112C23.7552 25.112 24.5712 24.843 24.9342 24.318V23.344C24.5712 22.822 23.7552 22.571 22.9822 22.571C22.0772 22.571 21.2362 22.98 21.2362 23.844ZM33.6104 23.1205C31.7283 22.8093 29.0852 22.3723 29.0852 19.51C29.0852 17.58 30.7642 15.901 33.7802 15.901C35.6422 15.901 37.1842 16.491 38.3632 17.354L37.0272 19.827C36.3682 19.19 35.1222 18.625 33.8062 18.625C32.9862 18.625 32.4432 18.943 32.4432 19.373C32.4432 19.7827 33.1813 19.9078 34.1543 20.0726C36.0356 20.3914 38.7952 20.8589 38.7952 23.821C38.7952 25.909 36.9582 27.404 33.8272 27.404C31.8542 27.404 29.8332 26.746 28.6762 25.704L30.1272 23.209C30.9452 23.934 32.6922 24.683 33.9852 24.683C35.0292 24.683 35.4592 24.388 35.4592 23.91C35.4592 23.4261 34.6511 23.2925 33.6104 23.1205ZM56.2202 15.903C54.5392 15.903 52.6582 16.4 51.2482 17.603L52.5412 20.03C53.4272 19.282 54.5162 18.851 55.6042 18.851C57.0142 18.851 57.8282 19.51 57.8282 20.462V21.55C57.1722 20.734 55.8772 20.257 54.4262 20.257C52.7482 20.257 50.6582 21.143 50.6582 23.798C50.6582 26.247 52.7482 27.406 54.4262 27.406C55.8302 27.406 57.1502 26.859 57.8282 26.043V27.133H61.3242V20.281C61.3242 16.877 58.8512 15.903 56.2202 15.903ZM54.1302 23.844C54.1302 24.707 54.9712 25.112 55.8772 25.112C56.6502 25.112 57.4662 24.843 57.8282 24.318V23.344C57.4662 22.822 56.6502 22.571 55.8772 22.571C54.9712 22.571 54.1302 22.98 54.1302 23.844ZM66.0192 12H62.5252V27.133H66.0192V25.864C66.9282 26.906 68.0382 27.406 69.2632 27.406C71.9642 27.406 74.0962 25.365 74.0962 21.643C74.0962 18.057 72.0112 15.903 69.2632 15.903C68.0602 15.903 66.8812 16.378 66.0192 17.467V12ZM66.0192 23.344C66.4492 23.934 67.3582 24.318 68.1062 24.318C69.4912 24.318 70.5332 23.297 70.5332 21.643C70.5332 20.008 69.4912 18.988 68.1062 18.988C67.3582 18.988 66.4492 19.396 66.0192 19.987V23.344ZM78.0882 27.134H74.5942V12.001H78.0882V27.134ZM78.5852 21.642C78.5852 18.464 80.9702 15.901 84.3962 15.901C87.6402 15.901 89.9982 18.285 89.9982 22.006V22.799H82.1952C82.4432 23.774 83.3522 24.594 84.9392 24.594C85.7102 24.594 86.9842 24.251 87.6172 23.663L89.1362 25.952C88.0472 26.931 86.2322 27.404 84.5542 27.404C81.1732 27.404 78.5852 25.203 78.5852 21.642ZM82.1492 20.417C82.2852 19.622 82.8752 18.717 84.3962 18.717C86.0062 18.717 86.5732 19.644 86.6632 20.417H82.1492Z" fill="#80808E"/>
</svg>
