<svg width="91" height="16" fill="none" xmlns="http://www.w3.org/2000/svg"><path fill-rule="evenodd" clip-rule="evenodd" d="M39.449.273v15.33h3.495v-7.17c.41-.506 1.09-1.08 2.113-1.08 1.11 0 1.816.435 1.816 1.79v6.46h3.496V7.696c0-2.045-1.136-3.469-3.632-3.469-1.838 0-3.134.849-3.793 1.632V.273H39.45zM8.778 8.733l3.155-8.46h5.427v15.33h-3.905V5.465L9.641 15.603H7.914L4.076 5.465v10.138H.17V.273h5.427l3.18 8.46zm14.733-4.506c-1.68 0-3.564.503-4.974 1.722l1.295 2.459c.885-.758 1.974-1.195 3.066-1.195 1.409 0 2.225.668 2.225 1.632v1.102c-.657-.826-1.953-1.31-3.406-1.31-1.68 0-3.77.898-3.77 3.588 0 2.48 2.09 3.655 3.77 3.655 1.407 0 2.728-.555 3.406-1.381v1.104h3.496V8.662c0-3.448-2.473-4.435-5.108-4.435zm-2.089 8.044c0 .874.842 1.285 1.748 1.285.773 0 1.59-.273 1.953-.805v-.986c-.363-.53-1.18-.783-1.953-.783-.906 0-1.748.414-1.748 1.29zm12.384-.733c-1.883-.315-4.528-.758-4.528-3.657 0-1.955 1.68-3.656 4.698-3.656 1.863 0 3.407.598 4.586 1.472l-1.337 2.505c-.66-.645-1.906-1.218-3.223-1.218-.82 0-1.364.322-1.364.758 0 .415.739.542 1.712.709 1.883.323 4.645.796 4.645 3.797 0 2.115-1.839 3.63-4.972 3.63-1.975 0-3.997-.667-5.155-1.723l1.452-2.527c.819.734 2.567 1.493 3.861 1.493 1.045 0 1.475-.299 1.475-.783 0-.49-.809-.625-1.85-.8zm22.626-7.311c-1.682 0-3.564.503-4.975 1.722l1.294 2.459c.886-.758 1.976-1.195 3.065-1.195 1.41 0 2.225.668 2.225 1.632v1.102c-.656-.826-1.952-1.31-3.404-1.31-1.68 0-3.77.898-3.77 3.588 0 2.48 2.09 3.655 3.77 3.655 1.405 0 2.726-.555 3.404-1.381v1.104h3.5V8.662c0-3.448-2.476-4.435-5.109-4.435zm-2.091 8.044c0 .874.841 1.285 1.748 1.285.774 0 1.59-.273 1.953-.805v-.986c-.363-.529-1.18-.783-1.953-.783-.907 0-1.748.414-1.748 1.29zM66.239.273h-3.497v15.33h3.497v-1.285c.91 1.055 2.02 1.562 3.246 1.562 2.703 0 4.837-2.068 4.837-5.838 0-3.633-2.087-5.815-4.837-5.815-1.204 0-2.384.481-3.246 1.584V.273zm0 11.492c.43.597 1.34.986 2.088.986 1.386 0 2.43-1.034 2.43-2.71 0-1.656-1.044-2.689-2.43-2.689-.748 0-1.658.413-2.088 1.012v3.4zm12.078 3.839H74.82V.274h3.497v15.33zm.497-5.563c0-3.22 2.387-5.816 5.815-5.816 3.247 0 5.606 2.415 5.606 6.184v.804h-7.808c.248.987 1.157 1.818 2.746 1.818.771 0 2.046-.348 2.68-.943l1.52 2.319c-1.09.991-2.906 1.47-4.586 1.47-3.383 0-5.973-2.23-5.973-5.836zM82.381 8.8c.136-.806.726-1.722 2.248-1.722 1.611 0 2.179.939 2.269 1.722H82.38z" fill="#80808E"/></svg>