<svg width="129" height="32" viewBox="0 0 129 32" fill="none" xmlns="http://www.w3.org/2000/svg">
    <path fill-rule="evenodd" clip-rule="evenodd" d="M46.5105 15.9424L45.4461 18.144L44.1483 20.7191H42.5003L41.2189 18.1991L40.1022 15.9424H40.0375V22.3662H37.7524V10.4004H39.8546L41.9057 14.6199L43.2904 17.5725H43.3916L44.792 14.5505L46.7608 10.4004H48.8636V22.3662H46.5778V15.9424H46.5105ZM57.4854 14.777C57.4854 14.3901 57.422 14.0671 57.2973 13.8005C57.1732 13.5373 57.0077 13.3192 56.8035 13.1477C56.5987 12.9782 56.3685 12.8545 56.113 12.7721C55.8588 12.6943 55.5933 12.6578 55.3224 12.6578C55.0488 12.6578 54.7813 12.6943 54.5211 12.7721C54.2595 12.8545 54.028 12.9782 53.8219 13.1477C53.6177 13.3192 53.4536 13.5373 53.3275 13.8005C53.2027 14.0671 53.1407 14.3901 53.1407 14.777V18.1886C53.1407 18.5749 53.2027 18.9006 53.3275 19.1725C53.4536 19.4457 53.6177 19.6644 53.8219 19.8353C54.028 20.0048 54.2595 20.1271 54.5211 20.2002C54.7813 20.2753 55.0488 20.3106 55.3224 20.3106C55.5933 20.3106 55.8588 20.2753 56.113 20.2002C56.3685 20.1271 56.5987 20.0048 56.8035 19.8353C57.0077 19.6644 57.1732 19.4457 57.2973 19.1725C57.422 18.9006 57.4854 18.5749 57.4854 18.1886V14.777ZM59.8195 18.5975C59.8195 19.2291 59.7001 19.7842 59.4619 20.2595C59.2237 20.7368 58.9008 21.1383 58.4931 21.466C58.0848 21.7937 57.6071 22.041 57.056 22.2032C56.5075 22.3681 55.9251 22.4472 55.3139 22.4472C54.7008 22.4472 54.1197 22.3681 53.5719 22.2032C53.0201 22.041 52.5418 21.7937 52.1348 21.466C51.7258 21.1383 51.4035 20.7368 51.164 20.2595C50.9258 19.7842 50.8071 19.2291 50.8071 18.5975V14.3038C50.8071 13.6796 50.9338 13.1305 51.182 12.6578C51.4322 12.1825 51.7645 11.7837 52.1848 11.4686C52.6045 11.1502 53.0869 10.9142 53.6306 10.7553C54.1737 10.5984 54.7348 10.5173 55.3139 10.5173C55.8904 10.5173 56.4522 10.6024 56.9973 10.7726C57.5404 10.9428 58.0227 11.188 58.4431 11.5111C58.8621 11.8329 59.195 12.2331 59.4459 12.7144C59.6947 13.1943 59.8195 13.7474 59.8195 14.371V18.5975ZM68.1839 18.7754C68.1839 18.3233 68.0405 17.9597 67.7569 17.6845C67.4734 17.4106 67.081 17.2723 66.5813 17.2723H64.0947V20.2418H66.598C67.1211 20.2418 67.5154 20.1115 67.7829 19.8463C68.0498 19.5817 68.1839 19.2227 68.1839 18.7754ZM68.0465 14.0471C68.0465 13.6203 67.919 13.2912 67.6628 13.0632C67.4086 12.8379 67.0083 12.7235 66.4612 12.7235H64.0947V15.2849H66.4959C66.9836 15.2849 67.3653 15.1739 67.6375 14.9472C67.9104 14.7218 68.0465 14.4227 68.0465 14.0471ZM70.6533 18.8573C70.6533 19.3326 70.5785 19.7786 70.4311 20.1974C70.283 20.6116 70.0681 20.9805 69.7833 21.2983C69.5004 21.614 69.1481 21.8647 68.7278 22.0521C68.3081 22.2383 67.8184 22.33 67.2633 22.33H61.7596V10.6381H67.0418C67.6316 10.6381 68.1393 10.7225 68.5663 10.8933C68.992 11.0615 69.3442 11.2955 69.6218 11.59C69.8987 11.8832 70.1082 12.2229 70.2443 12.6078C70.3797 12.994 70.4478 13.3962 70.4478 13.8157C70.4478 14.2484 70.3324 14.6898 70.0988 15.1412C69.8666 15.5952 69.5004 15.9469 69.002 16.1969C69.2849 16.3345 69.5291 16.5033 69.7332 16.714C69.938 16.9221 70.1082 17.1501 70.2443 17.3908C70.3797 17.6348 70.4818 17.884 70.5519 18.136C70.6186 18.3926 70.6533 18.6306 70.6533 18.8573ZM75.3887 17.9702H78.2162L77.7565 16.4778L76.8371 13.386H76.7697L75.8657 16.4233L75.3887 17.9702ZM78.8471 19.9215H74.7599L73.9926 22.33H71.5053L75.6272 10.6381H78.0124L82.1023 22.33H79.5623L78.8471 19.9215ZM83.3102 22.3301V10.6369H84.5024V21.2625H90.9762V22.3301H83.3102ZM94.1779 22.3301H92.9856V17.9001C92.3952 16.6776 91.8047 15.4691 91.2136 14.2698C90.6231 13.0706 90.0266 11.8594 89.4248 10.6369H90.7379C90.7832 10.728 90.874 10.9161 91.0101 11.2059C91.1462 11.4931 91.3043 11.8335 91.4871 12.223C91.6693 12.6139 91.8648 13.0327 92.0756 13.4808C92.2858 13.9248 92.4892 14.3569 92.6881 14.7691C92.8862 15.1806 93.0677 15.5582 93.2298 15.8972C93.3913 16.2362 93.5181 16.4915 93.6068 16.6603C93.6642 16.5367 93.7642 16.3186 93.9097 16.0022C94.0551 15.6825 94.2253 15.3208 94.4161 14.914C94.6096 14.5058 94.8111 14.077 95.0232 13.6223C95.2314 13.1716 95.4302 12.7435 95.619 12.344C95.8058 11.9405 95.9733 11.5822 96.1214 11.2711C96.2682 10.96 96.371 10.7479 96.4283 10.6369H97.7047L94.1779 17.8682V22.3301ZM103.838 11.7384V22.3301H102.646V11.7384H99.103V10.6369H107.348V11.7384H103.838ZM108.619 22.3313H109.811V10.6381H108.619V22.3313ZM116.285 10.5173C117.534 10.5173 118.59 10.841 119.454 11.4832L118.839 12.4185C118.499 12.1579 118.105 11.9598 117.657 11.8249C117.207 11.6906 116.751 11.6188 116.285 11.6188C115.91 11.6188 115.547 11.6786 115.194 11.7897C114.842 11.9027 114.525 12.0788 114.241 12.3155C113.957 12.5535 113.729 12.8619 113.56 13.2422C113.388 13.6224 113.304 14.0765 113.304 14.6083V18.3423C113.304 18.8734 113.391 19.3295 113.567 19.7084C113.743 20.0873 113.97 20.3997 114.25 20.641C114.528 20.8857 114.842 21.0652 115.194 21.1861C115.547 21.3045 115.899 21.3636 116.25 21.3636C116.728 21.3636 117.192 21.2985 117.648 21.1682C118.103 21.0392 118.511 20.8252 118.874 20.5307L119.47 21.4467C119.141 21.7087 118.697 21.9407 118.141 22.1434C117.584 22.3482 116.967 22.4472 116.285 22.4472C115.682 22.4472 115.13 22.3581 114.623 22.1767C114.119 21.9965 113.679 21.7372 113.304 21.3975C112.929 21.0585 112.636 20.6497 112.426 20.1757C112.216 19.6991 112.111 19.1692 112.111 18.5783V14.3537C112.111 13.776 112.219 13.2535 112.435 12.7815C112.651 12.3135 112.946 11.908 113.32 11.5716C113.695 11.2313 114.136 10.97 114.641 10.7918C115.147 10.6064 115.695 10.5173 116.285 10.5173ZM128.753 19.1727C128.753 19.6833 128.655 20.138 128.456 20.5415C128.258 20.941 127.979 21.2801 127.621 21.5579C127.264 21.8351 126.832 22.0519 126.326 22.2028C125.821 22.355 125.263 22.4321 124.648 22.4321C123.865 22.4321 123.135 22.3237 122.459 22.1097C121.785 21.8963 121.127 21.5672 120.49 21.1252L121.122 20.241C121.645 20.5734 122.207 20.8393 122.809 21.0514C123.411 21.2575 124.03 21.3632 124.666 21.3632C125.518 21.3632 126.205 21.175 126.728 20.7941C127.249 20.4165 127.511 19.8761 127.511 19.1727C127.511 18.7559 127.42 18.4142 127.238 18.1543C127.056 17.8957 126.821 17.681 126.532 17.5195C126.242 17.3566 125.917 17.227 125.56 17.1372C125.203 17.0462 124.848 16.9664 124.495 16.8979C124.03 16.8208 123.578 16.7058 123.141 16.5589C122.703 16.412 122.314 16.2185 121.974 15.9739C121.634 15.7319 121.358 15.4248 121.148 15.0578C120.939 14.6882 120.833 14.2342 120.833 13.6924C120.833 13.2151 120.919 12.779 121.093 12.3828C121.263 11.9879 121.514 11.6463 121.841 11.3584C122.169 11.0699 122.562 10.8479 123.022 10.6863C123.482 10.5288 124.001 10.4503 124.582 10.4503C125.228 10.4503 125.864 10.5088 126.488 10.6278C127.113 10.7475 127.704 10.9695 128.261 11.2966L127.716 12.315C127.217 12.0444 126.693 11.8463 126.147 11.7227C125.603 11.5971 125.063 11.5352 124.529 11.5352C124.2 11.5352 123.886 11.5758 123.583 11.6629C123.284 11.7486 123.016 11.8789 122.783 12.0631C122.55 12.2425 122.366 12.4719 122.23 12.7484C122.094 13.0263 122.025 13.3527 122.025 13.7256C122.025 14.0859 122.116 14.3897 122.297 14.6244C122.478 14.8631 122.711 15.0598 122.995 15.218C123.276 15.3789 123.589 15.5026 123.93 15.5897C124.268 15.6827 124.603 15.7638 124.931 15.8303C125.44 15.942 125.929 16.0683 126.392 16.2125C126.856 16.3548 127.262 16.5463 127.608 16.7882C127.953 17.0315 128.232 17.3453 128.44 17.7216C128.65 18.0998 128.753 18.5844 128.753 19.1727Z" fill="#80808E"/>
    <path fill-rule="evenodd" clip-rule="evenodd" d="M16.1004 29.3997L22.5929 21.2565C22.669 21.2798 22.7485 21.2962 22.8327 21.2962C23.1139 21.2962 23.3621 21.1547 23.5094 20.9398L26.2982 22.2883C26.2898 22.336 26.2834 22.3841 26.2834 22.4341C26.2834 22.5652 26.318 22.6874 26.374 22.7972L16.1004 29.3997ZM3.19437 23.2449L6.71148 21.3165C6.8611 21.5117 7.09526 21.6402 7.36129 21.6402C7.45421 21.6402 7.54177 21.6212 7.62497 21.5931L14.2278 29.5938L3.14405 23.7608C3.19001 23.6584 3.21685 23.5459 3.21685 23.4275C3.21685 23.3644 3.20813 23.3036 3.19437 23.2449ZM14.0178 2.62663L14.2194 5.10265C13.889 5.1784 13.6377 5.45137 13.5938 5.79174L4.8973 7.93307L2.76738 8.41693L13.4317 2.31896C13.5713 2.49482 13.78 2.61094 14.0178 2.62663ZM25.7151 7.74445L15.2097 5.75061C15.1473 5.40723 14.8702 5.14261 14.5217 5.09256L14.3352 2.58549C14.5136 2.52443 14.6639 2.40663 14.7632 2.2508L25.7151 7.74445ZM6.77098 20.2622C6.63008 20.409 6.54185 20.6079 6.54185 20.8275C6.54185 20.9216 6.5613 21.011 6.59116 21.0954L3.05729 22.9491C2.92444 22.7683 2.71913 22.6458 2.48363 22.6211L1.98713 10.0497L6.77098 20.2622ZM26.4176 21.9894L23.6154 20.709C23.6369 20.6366 23.652 20.5615 23.652 20.4824C23.652 20.2355 23.5383 20.0149 23.3625 19.8644L26.9849 9.54153V21.63C26.7477 21.6647 26.5434 21.7975 26.4176 21.9894ZM26.2983 8.45529C26.3332 8.64282 26.4335 8.806 26.5734 8.92513L22.8037 19.6675C22.7084 19.6708 22.6178 19.6899 22.5336 19.7232L14.9459 6.50316C15.0036 6.45211 15.0546 6.39471 15.0959 6.32964L26.2983 8.45529ZM2.62897 9.09882L13.7358 6.36551C13.7942 6.44727 13.867 6.51868 13.9512 6.57407L7.5809 20.0424C7.51078 20.0227 7.43765 20.0087 7.36083 20.0087C7.34305 20.0087 7.32594 20.013 7.30816 20.0144L2.40924 9.55799C2.528 9.43519 2.60583 9.27568 2.62897 9.09882ZM8.16638 20.6895C8.12713 20.4629 7.99697 20.268 7.81212 20.1459L14.0788 6.8604L14.168 6.67219C14.2428 6.69488 14.321 6.71023 14.4032 6.71023C14.5095 6.71023 14.6102 6.68888 14.7031 6.6525L22.327 19.8439C22.1627 19.9737 22.0503 20.1635 22.0224 20.3805L8.16638 20.6895ZM15.0962 29.3695C15.007 29.3695 14.9228 29.3872 14.8423 29.4139L8.0731 21.2226C8.12409 21.1318 8.15764 21.0317 8.17073 20.9243L22.0261 20.6169C22.0429 20.7161 22.0781 20.8078 22.1274 20.8912L15.3364 29.4092C15.2599 29.3858 15.1804 29.3695 15.0962 29.3695ZM27.2226 21.6301V9.1115C27.6178 9.05344 27.9231 8.71674 27.9231 8.30629C27.9231 7.85747 27.5554 7.4904 27.1035 7.4904C26.8267 7.4904 26.5822 7.62922 26.4339 7.83911L14.8574 2.03446C14.8775 1.96372 14.8916 1.89064 14.8916 1.81389C14.8916 1.36673 14.5243 1 14.0721 1C13.6202 1 13.2525 1.36673 13.2525 1.81389C13.2525 1.92034 13.2743 2.02111 13.3115 2.11421L2.35431 8.38137C2.21039 8.2569 2.02454 8.17848 1.81923 8.17848C1.36701 8.17848 1 8.54588 1 8.99437C1 9.41616 1.32507 9.76054 1.73938 9.80125L2.24561 22.6272C1.86485 22.6983 1.57668 23.0307 1.57668 23.4278C1.57668 23.8776 1.94369 24.246 2.39725 24.246C2.64415 24.246 2.86322 24.1339 3.01318 23.961L14.3267 29.9145C14.2965 29.9989 14.277 30.089 14.277 30.1841C14.277 30.6363 14.644 31 15.0963 31C15.5495 31 15.9162 30.6363 15.9162 30.1841C15.9162 30.0636 15.888 29.9502 15.841 29.8471L26.5091 22.9916C26.6587 23.1491 26.8694 23.2489 27.1035 23.2489C27.5554 23.2489 27.9231 22.8825 27.9231 22.4343C27.9231 22.0232 27.6178 21.6879 27.2226 21.6301Z" fill="#80808E"/>
    <path d="M16.1004 29.3997L15.9808 29.3043L16.1832 29.5285L16.1004 29.3997ZM22.5929 21.2565L22.6377 21.1102L22.5381 21.0796L22.4732 21.1611L22.5929 21.2565ZM23.5094 20.9398L23.576 20.802L23.4575 20.7447L23.3831 20.8533L23.5094 20.9398ZM26.2982 22.2883L26.4489 22.3148L26.4689 22.2008L26.3648 22.1505L26.2982 22.2883ZM26.374 22.7972L26.4567 22.9259L26.5733 22.851L26.5103 22.7276L26.374 22.7972ZM6.71148 21.3165L6.83296 21.2234L6.75306 21.1191L6.63789 21.1823L6.71148 21.3165ZM7.62497 21.5931L7.74302 21.4957L7.67595 21.4144L7.5761 21.4481L7.62497 21.5931ZM14.2278 29.5938L14.1565 29.7293L14.3458 29.4964L14.2278 29.5938ZM3.14405 23.7608L3.0044 23.6982L2.94556 23.8293L3.07277 23.8963L3.14405 23.7608ZM14.2194 5.10265L14.2536 5.25185L14.3827 5.22225L14.372 5.09023L14.2194 5.10265ZM13.5938 5.79174L13.6304 5.94036L13.7322 5.9153L13.7456 5.81134L13.5938 5.79174ZM4.8973 7.93307L4.93121 8.08235L4.93389 8.08169L4.8973 7.93307ZM2.76738 8.41693L2.6914 8.28406L2.80129 8.56619L2.76738 8.41693ZM13.4317 2.31896L13.5516 2.22381L13.4699 2.12082L13.3558 2.18608L13.4317 2.31896ZM25.7151 7.74445L25.6865 7.89482L25.7837 7.60763L25.7151 7.74445ZM15.2097 5.75061L15.0591 5.77797L15.0779 5.88139L15.1812 5.90098L15.2097 5.75061ZM14.5217 5.09256L14.369 5.10391L14.3782 5.22658L14.4999 5.24407L14.5217 5.09256ZM14.3352 2.58549L14.2856 2.44068L14.1737 2.47895L14.1825 2.59685L14.3352 2.58549ZM14.7632 2.2508L14.8319 2.11398L14.7084 2.05205L14.6341 2.16854L14.7632 2.2508ZM6.77098 20.2622L6.88141 20.3682L6.95414 20.2924L6.90958 20.1973L6.77098 20.2622ZM6.59116 21.0954L6.66226 21.231L6.77967 21.1694L6.73546 21.0444L6.59116 21.0954ZM3.05729 22.9491L2.93393 23.0397L3.01184 23.1458L3.12839 23.0847L3.05729 22.9491ZM2.48363 22.6211L2.33068 22.6271L2.33591 22.7595L2.46766 22.7733L2.48363 22.6211ZM1.98713 10.0497L2.12573 9.98482L1.83418 10.0558L1.98713 10.0497ZM23.6154 20.709L23.4687 20.6655L23.4309 20.793L23.5518 20.8482L23.6154 20.709ZM23.3625 19.8644L23.2181 19.8138L23.1834 19.9126L23.2629 19.9807L23.3625 19.8644ZM26.9849 9.54153H27.138L26.8405 9.49085L26.9849 9.54153ZM26.9849 21.63L27.0071 21.7815L27.138 21.7623V21.63H26.9849ZM26.2983 8.45529L26.4488 8.42729L26.4297 8.32442L26.3269 8.30491L26.2983 8.45529ZM26.5734 8.92513L26.7178 8.97581L26.7526 8.8767L26.6727 8.8086L26.5734 8.92513ZM22.8037 19.6675L22.8091 19.8205L22.9135 19.8168L22.9481 19.7182L22.8037 19.6675ZM22.5336 19.7232L22.4009 19.7994L22.4669 19.9143L22.59 19.8655L22.5336 19.7232ZM14.9459 6.50316L14.8445 6.38853L14.7511 6.47118L14.8132 6.57935L14.9459 6.50316ZM15.0959 6.32964L15.1244 6.17926L15.0223 6.15988L14.9666 6.24767L15.0959 6.32964ZM13.7358 6.36551L13.8604 6.27657L13.8001 6.19208L13.6992 6.21689L13.7358 6.36551ZM13.9512 6.57407L14.0896 6.63952L14.1464 6.51929L14.0353 6.4462L13.9512 6.57407ZM7.5809 20.0424L7.53952 20.1898L7.66398 20.2247L7.71926 20.1078L7.5809 20.0424ZM7.30816 20.0144L7.16955 20.0793L7.21434 20.1749L7.31961 20.167L7.30816 20.0144ZM2.40924 9.55799L2.29921 9.45158L2.22589 9.52741L2.27064 9.62293L2.40924 9.55799ZM8.16638 20.6895L8.01557 20.7156L8.03806 20.8454L8.16979 20.8425L8.16638 20.6895ZM7.81212 20.1459L7.67369 20.0806L7.61713 20.2005L7.72774 20.2736L7.81212 20.1459ZM14.0788 6.8604L13.9405 6.79482L13.9403 6.7951L14.0788 6.8604ZM14.168 6.67219L14.2124 6.52572L14.0862 6.48743L14.0297 6.60662L14.168 6.67219ZM14.7031 6.6525L14.8356 6.57591L14.7698 6.46203L14.6473 6.50997L14.7031 6.6525ZM22.327 19.8439L22.4219 19.964L22.5258 19.8819L22.4596 19.7673L22.327 19.8439ZM22.0224 20.3805L22.0258 20.5335L22.1575 20.5305L22.1743 20.3999L22.0224 20.3805ZM14.8423 29.4139L14.7243 29.5114L14.791 29.5921L14.8905 29.5591L14.8423 29.4139ZM8.0731 21.2226L7.93966 21.1476L7.88823 21.2392L7.95512 21.3201L8.0731 21.2226ZM8.17073 20.9243L8.16733 20.7713L8.03481 20.7742L8.01879 20.9058L8.17073 20.9243ZM22.0261 20.6169L22.177 20.5914L22.155 20.461L22.0227 20.4639L22.0261 20.6169ZM22.1274 20.8912L22.2471 20.9867L22.3129 20.9042L22.2592 20.8134L22.1274 20.8912ZM15.3364 29.4092L15.2917 29.5556L15.3912 29.586L15.4561 29.5046L15.3364 29.4092ZM27.2226 9.1115L27.2004 8.96006L27.0695 8.97928V9.1115H27.2226ZM26.4339 7.83911L26.3653 7.97594L26.483 8.03494L26.5589 7.92743L26.4339 7.83911ZM14.8574 2.03446L14.7102 1.99257L14.6755 2.11448L14.7888 2.17128L14.8574 2.03446ZM13.3115 2.11421L13.3875 2.24708L13.5031 2.18098L13.4537 2.05737L13.3115 2.11421ZM2.35431 8.38137L2.25418 8.49714L2.33619 8.56806L2.4303 8.51423L2.35431 8.38137ZM1.73938 9.80125L1.89233 9.79521L1.88707 9.66196L1.75435 9.64892L1.73938 9.80125ZM2.24561 22.6272L2.2737 22.7777L2.40377 22.7534L2.39855 22.6212L2.24561 22.6272ZM3.01318 23.961L3.08445 23.8256L2.97707 23.769L2.89756 23.8607L3.01318 23.961ZM14.3267 29.9145L14.4708 29.966L14.5155 29.8409L14.398 29.779L14.3267 29.9145ZM15.841 29.8471L15.7583 29.7183L15.6468 29.7899L15.7017 29.9105L15.841 29.8471ZM26.5091 22.9916L26.62 22.8862L26.5328 22.7944L26.4263 22.8628L26.5091 22.9916ZM16.2201 29.4951L22.7125 21.3519L22.4732 21.1611L15.9808 29.3043L16.2201 29.4951ZM22.548 21.4028C22.6333 21.429 22.7286 21.4493 22.8327 21.4493V21.1431C22.7685 21.1431 22.7047 21.1307 22.6377 21.1102L22.548 21.4028ZM22.8327 21.4493C23.1664 21.4493 23.461 21.2812 23.6356 21.0263L23.3831 20.8533C23.2632 21.0282 23.0614 21.1431 22.8327 21.1431V21.4493ZM23.4427 21.0776L26.2315 22.4261L26.3648 22.1505L23.576 20.802L23.4427 21.0776ZM26.1474 22.2618C26.1384 22.3134 26.1303 22.3713 26.1303 22.4341H26.4365C26.4365 22.3968 26.4412 22.3586 26.4489 22.3148L26.1474 22.2618ZM26.1303 22.4341C26.1303 22.5928 26.1723 22.7386 26.2376 22.8667L26.5103 22.7276C26.4637 22.6362 26.4365 22.5377 26.4365 22.4341H26.1303ZM26.2912 22.6684L16.0177 29.2709L16.1832 29.5285L26.4567 22.9259L26.2912 22.6684ZM3.26796 23.3791L6.78506 21.4507L6.63789 21.1823L3.12079 23.1107L3.26796 23.3791ZM6.58999 21.4096C6.76656 21.64 7.04442 21.7932 7.36129 21.7932V21.4871C7.1461 21.4871 6.95564 21.3834 6.83296 21.2234L6.58999 21.4096ZM7.36129 21.7932C7.47533 21.7932 7.57982 21.7698 7.67384 21.7382L7.5761 21.4481C7.50373 21.4725 7.43309 21.4871 7.36129 21.4871V21.7932ZM7.50692 21.6905L14.1097 29.6913L14.3458 29.4964L7.74302 21.4957L7.50692 21.6905ZM14.299 29.4584L3.21534 23.6254L3.07277 23.8963L14.1565 29.7293L14.299 29.4584ZM3.2837 23.8235C3.33772 23.7031 3.36991 23.5694 3.36991 23.4275H3.06379C3.06379 23.5225 3.04231 23.6137 3.0044 23.6982L3.2837 23.8235ZM3.36991 23.4275C3.36991 23.3502 3.35922 23.2775 3.3434 23.21L3.04535 23.2798C3.05704 23.3298 3.06379 23.3786 3.06379 23.4275H3.36991ZM13.8653 2.63905L14.0669 5.11508L14.372 5.09023L14.1704 2.6142L13.8653 2.63905ZM14.1852 4.95346C13.7929 5.04341 13.4942 5.36767 13.442 5.77214L13.7456 5.81134C13.7812 5.53507 13.9851 5.3134 14.2536 5.25185L14.1852 4.95346ZM13.5572 5.64312L4.8607 7.78445L4.93389 8.08169L13.6304 5.94036L13.5572 5.64312ZM4.86339 7.78381L2.73347 8.26767L2.80129 8.56619L4.93121 8.08233L4.86339 7.78381ZM2.84336 8.5498L13.5077 2.45183L13.3558 2.18608L2.6914 8.28406L2.84336 8.5498ZM13.3118 2.4141C13.4773 2.62256 13.7253 2.76073 14.0077 2.77936L14.0279 2.4739C13.8347 2.46116 13.6653 2.36707 13.5516 2.22381L13.3118 2.4141ZM25.7436 7.59407L15.2383 5.60023L15.1812 5.90098L25.6865 7.89482L25.7436 7.59407ZM15.3603 5.72324C15.286 5.31411 14.9562 5.00032 14.5434 4.94105L14.4999 5.24407C14.7843 5.2849 15.0087 5.50036 15.0591 5.77797L15.3603 5.72324ZM14.6743 5.0812L14.4878 2.57414L14.1825 2.59685L14.369 5.10391L14.6743 5.0812ZM14.3847 2.73031C14.5955 2.6582 14.774 2.51864 14.8923 2.33305L14.6341 2.16854C14.5538 2.29463 14.4318 2.39066 14.2856 2.44068L14.3847 2.73031ZM14.6946 2.38761L25.6465 7.88126L25.7837 7.60763L14.8319 2.11398L14.6946 2.38761ZM6.66054 20.1562C6.49402 20.3297 6.38879 20.566 6.38879 20.8275H6.69491C6.69491 20.6498 6.76613 20.4883 6.88141 20.3682L6.66054 20.1562ZM6.38879 20.8275C6.38879 20.9429 6.41268 21.0498 6.44686 21.1465L6.73546 21.0444C6.70993 20.9722 6.69491 20.9003 6.69491 20.8275H6.38879ZM6.52006 20.9599L2.98619 22.8136L3.12839 23.0847L6.66226 21.231L6.52006 20.9599ZM3.18064 22.8585C3.02273 22.6435 2.77873 22.4981 2.49959 22.4689L2.46766 22.7733C2.65952 22.7934 2.82614 22.893 2.93393 23.0397L3.18064 22.8585ZM2.63657 22.6151L2.14007 10.0437L1.83418 10.0558L2.33068 22.6271L2.63657 22.6151ZM1.84852 10.1147L6.63237 20.3271L6.90958 20.1973L2.12573 9.98482L1.84852 10.1147ZM26.4813 21.8502L23.679 20.5698L23.5518 20.8482L26.354 22.1286L26.4813 21.8502ZM23.7622 20.7525C23.7862 20.6715 23.8051 20.5811 23.8051 20.4824H23.4989C23.4989 20.542 23.4876 20.6017 23.4687 20.6655L23.7622 20.7525ZM23.8051 20.4824C23.8051 20.1871 23.6689 19.9252 23.462 19.7482L23.2629 19.9807C23.4077 20.1046 23.4989 20.2839 23.4989 20.4824H23.8051ZM23.5069 19.9151L27.1294 9.59221L26.8405 9.49085L23.2181 19.8138L23.5069 19.9151ZM26.8319 9.54153V21.63H27.138V9.54153H26.8319ZM26.9628 21.4786C26.6823 21.5196 26.4394 21.677 26.2896 21.9055L26.5456 22.0733C26.6474 21.9181 26.8132 21.8098 27.0071 21.7815L26.9628 21.4786ZM26.1478 8.48328C26.1896 8.70756 26.3093 8.90128 26.4742 9.04166L26.6727 8.8086C26.5577 8.71072 26.4769 8.57809 26.4488 8.42729L26.1478 8.48328ZM26.429 8.87445L22.6593 19.6168L22.9481 19.7182L26.7178 8.97581L26.429 8.87445ZM22.7983 19.5145C22.6859 19.5185 22.5781 19.541 22.4773 19.5809L22.59 19.8655C22.6576 19.8387 22.7309 19.8232 22.8091 19.8205L22.7983 19.5145ZM22.6664 19.647L15.0787 6.42697L14.8132 6.57935L22.4009 19.7994L22.6664 19.647ZM15.0473 6.61779C15.1142 6.55867 15.1751 6.49055 15.2251 6.41161L14.9666 6.24767C14.9341 6.29887 14.8931 6.34554 14.8445 6.38853L15.0473 6.61779ZM15.0673 6.48002L26.2698 8.60567L26.3269 8.30491L15.1244 6.17926L15.0673 6.48002ZM2.66555 9.24745L13.7724 6.51414L13.6992 6.21689L2.5924 8.9502L2.66555 9.24745ZM13.6113 6.45445C13.68 6.55077 13.7663 6.63566 13.8671 6.70195L14.0353 6.4462C13.9677 6.4017 13.9084 6.34376 13.8604 6.27657L13.6113 6.45445ZM13.8128 6.50863L7.44253 19.977L7.71926 20.1078L14.0896 6.63952L13.8128 6.50863ZM7.62228 19.895C7.54397 19.8731 7.45623 19.8556 7.36083 19.8556V20.1618C7.41907 20.1618 7.47759 20.1724 7.53952 20.1898L7.62228 19.895ZM7.36083 19.8556C7.34031 19.8556 7.32245 19.8581 7.31276 19.8595C7.30013 19.8613 7.29889 19.8616 7.2967 19.8617L7.31961 20.167C7.32828 20.1664 7.33599 20.1654 7.34196 20.1646C7.34691 20.1639 7.35395 20.1629 7.35623 20.1625C7.36397 20.1614 7.36356 20.1618 7.36083 20.1618V19.8556ZM7.44676 19.9494L2.54784 9.49305L2.27064 9.62293L7.16955 20.0793L7.44676 19.9494ZM2.51927 9.66439C2.66103 9.51781 2.75336 9.32789 2.78074 9.11869L2.47721 9.07896C2.45829 9.22347 2.39497 9.35257 2.29921 9.45158L2.51927 9.66439ZM8.3172 20.6633C8.27069 20.3949 8.11629 20.1634 7.8965 20.0182L7.72774 20.2736C7.87764 20.3726 7.98357 20.5309 8.01557 20.7156L8.3172 20.6633ZM7.95056 20.2112L14.2172 6.92569L13.9403 6.7951L7.67369 20.0806L7.95056 20.2112ZM14.2171 6.92597L14.3063 6.73777L14.0297 6.60662L13.9405 6.79482L14.2171 6.92597ZM14.1236 6.81866C14.2082 6.84434 14.3018 6.86329 14.4032 6.86329V6.55717C14.3401 6.55717 14.2774 6.54542 14.2124 6.52572L14.1236 6.81866ZM14.4032 6.86329C14.5303 6.86329 14.6498 6.83772 14.7589 6.79503L14.6473 6.50997C14.5705 6.54004 14.4887 6.55717 14.4032 6.55717V6.86329ZM14.5706 6.72909L22.1945 19.9205L22.4596 19.7673L14.8356 6.57591L14.5706 6.72909ZM22.2322 19.7237C22.0374 19.8775 21.9037 20.103 21.8706 20.361L22.1743 20.3999C22.1968 20.2241 22.2879 20.0698 22.4219 19.964L22.2322 19.7237ZM22.019 20.2274L8.16297 20.5364L8.16979 20.8425L22.0258 20.5335L22.019 20.2274ZM15.0962 29.2164C14.9865 29.2164 14.8857 29.2382 14.7941 29.2686L14.8905 29.5591C14.9599 29.5361 15.0275 29.5225 15.0962 29.5225V29.2164ZM14.9603 29.3164L8.19109 21.1251L7.95512 21.3201L14.7243 29.5114L14.9603 29.3164ZM8.20655 21.2976C8.26718 21.1897 8.30713 21.0704 8.32266 20.9428L8.01879 20.9058C8.00816 20.9931 7.98101 21.074 7.93966 21.1476L8.20655 21.2976ZM8.17412 21.0773L22.0295 20.77L22.0227 20.4639L8.16733 20.7713L8.17412 21.0773ZM21.8752 20.6425C21.8953 20.7613 21.9375 20.8707 21.9957 20.9691L22.2592 20.8134C22.2187 20.7449 22.1905 20.6708 22.177 20.5914L21.8752 20.6425ZM22.0077 20.7958L15.2168 29.3138L15.4561 29.5046L22.2471 20.9867L22.0077 20.7958ZM15.3811 29.2628C15.2956 29.2367 15.2004 29.2164 15.0962 29.2164V29.5225C15.1605 29.5225 15.2243 29.535 15.2917 29.5556L15.3811 29.2628ZM27.3757 21.6301V9.1115H27.0695V21.6301H27.3757ZM27.2449 9.26293C27.7126 9.19421 28.0761 8.79526 28.0761 8.30629H27.77C27.77 8.63822 27.523 8.91266 27.2004 8.96006L27.2449 9.26293ZM28.0761 8.30629C28.0761 7.77241 27.6394 7.33734 27.1035 7.33734V7.64346C27.4714 7.64346 27.77 7.94252 27.77 8.30629H28.0761ZM27.1035 7.33734C26.7743 7.33734 26.4842 7.50259 26.3089 7.7508L26.5589 7.92743C26.6801 7.75585 26.8792 7.64346 27.1035 7.64346V7.33734ZM26.5025 7.70229L14.926 1.89764L14.7888 2.17128L26.3653 7.97594L26.5025 7.70229ZM15.0046 2.07635C15.0271 1.99725 15.0447 1.9094 15.0447 1.81389H14.7386C14.7386 1.87188 14.7279 1.93018 14.7102 1.99257L15.0046 2.07635ZM15.0447 1.81389C15.0447 1.28143 14.608 0.846939 14.0721 0.846939V1.15306C14.4405 1.15306 14.7386 1.45203 14.7386 1.81389H15.0447ZM14.0721 0.846939C13.5364 0.846939 13.0994 1.28139 13.0994 1.81389H13.4056C13.4056 1.45207 13.7039 1.15306 14.0721 1.15306V0.846939ZM13.0994 1.81389C13.0994 1.94157 13.1256 2.06158 13.1694 2.17105L13.4537 2.05737C13.423 1.98064 13.4056 1.8991 13.4056 1.81389H13.0994ZM13.2355 1.98135L2.27831 8.24851L2.4303 8.51423L13.3875 2.24708L13.2355 1.98135ZM2.45443 8.2656C2.28531 8.11933 2.06461 8.02542 1.81923 8.02542V8.33154C1.98446 8.33154 2.13547 8.39447 2.25418 8.49714L2.45443 8.2656ZM1.81923 8.02542C1.28283 8.02542 0.846939 8.46099 0.846939 8.99437H1.15306C1.15306 8.63078 1.45118 8.33154 1.81923 8.33154V8.02542ZM0.846939 8.99437C0.846939 9.49759 1.23445 9.90543 1.72442 9.95358L1.75435 9.64892C1.41569 9.61565 1.15306 9.33474 1.15306 8.99437H0.846939ZM1.58644 9.80729L2.09267 22.6333L2.39855 22.6212L1.89233 9.79521L1.58644 9.80729ZM2.21753 22.4768C1.7665 22.5609 1.42362 22.9547 1.42362 23.4278H1.72974C1.72974 23.1066 1.9632 22.8356 2.2737 22.7777L2.21753 22.4768ZM1.42362 23.4278C1.42362 23.9622 1.85927 24.399 2.39725 24.399V24.0929C2.0281 24.0929 1.72974 23.7929 1.72974 23.4278H1.42362ZM2.39725 24.399C2.692 24.399 2.95213 24.2649 3.12879 24.0613L2.89756 23.8607C2.77431 24.0028 2.59631 24.0929 2.39725 24.0929V24.399ZM2.9419 24.0965L14.2554 30.0499L14.398 29.779L3.08445 23.8256L2.9419 24.0965ZM14.1826 29.8629C14.1478 29.9602 14.124 30.0679 14.124 30.1841H14.4301C14.4301 30.1101 14.4452 30.0376 14.4708 29.966L14.1826 29.8629ZM14.124 30.1841C14.124 30.7216 14.5603 31.1531 15.0963 31.1531V30.8469C14.7278 30.8469 14.4301 30.5509 14.4301 30.1841H14.124ZM15.0963 31.1531C15.6332 31.1531 16.0692 30.7217 16.0692 30.1841H15.7631C15.7631 30.5509 15.4658 30.8469 15.0963 30.8469V31.1531ZM16.0692 30.1841C16.0692 30.0394 16.0353 29.9044 15.9803 29.7836L15.7017 29.9105C15.7407 29.996 15.7631 30.0879 15.7631 30.1841H16.0692ZM15.9238 29.9758L26.5918 23.1204L26.4263 22.8628L15.7583 29.7183L15.9238 29.9758ZM26.3981 23.097C26.5748 23.283 26.8248 23.402 27.1035 23.402V23.0958C26.9139 23.0958 26.7426 23.0152 26.62 22.8862L26.3981 23.097ZM27.1035 23.402C27.6392 23.402 28.0761 22.9678 28.0761 22.4343H27.77C27.77 22.7972 27.4716 23.0958 27.1035 23.0958V23.402ZM28.0761 22.4343C28.0761 21.9445 27.7124 21.547 27.2447 21.4787L27.2005 21.7816C27.5232 21.8287 27.77 22.102 27.77 22.4343H28.0761Z" fill="#80808E"/>
    <path fill-rule="evenodd" clip-rule="evenodd" d="M14.4144 6.35742L2.53857 9.29734L7.7416 20.4627L15.0588 29.3759L22.3627 20.1656L26.3844 8.64321L14.4724 6.36999L14.4144 6.35742Z" stroke="#80808E" stroke-width="0.612245"/>
    <path fill-rule="evenodd" clip-rule="evenodd" d="M15.8997 13.8203L14.6756 15.9305L13.4309 13.8203H12.1118V18.9485H13.3943V16.0736L14.639 18.0227H14.6756L15.9389 16.046V18.9485H17.24V13.8203H15.8997Z" fill="#80808E"/>
</svg>
