<svg width="130" height="19" fill="none" xmlns="http://www.w3.org/2000/svg"><path fill-rule="evenodd" clip-rule="evenodd" d="M.184 6.358V.04h18.27v6.318h-6.09V19H6.276V6.358H.184zm68.44-.902v10.383h2.74v-4.742c0-1.041.351-1.327.929-1.327.564 0 .914.286.914 1.36v4.708h2.757v-5.072c0-2.18-.838-3.397-2.59-3.397-.945 0-1.506.331-2.01.726V4.318l-2.74 1.138zm-25.682 1.99v-2.67h8.922v2.67H48.88v8.393h-2.953V7.447h-2.985zm12.271-.077c-2.102 0-3.653 1.468-3.653 4.329 0 2.542 1.322 4.315 3.73 4.315 1.247 0 2.268-.348 3.256-.95l-1.05-1.817c-.79.427-1.37.585-2.069.585-.747 0-1.264-.41-1.355-1.327h4.69c.013-.141.013-.317.013-.554 0-3.08-1.37-4.581-3.562-4.581zm-.077 2.1c-.623 0-.973.443-1.064 1.264h2.284c-.139-.836-.414-1.264-1.22-1.264zm8.723 6.544c-2.343 0-3.746-1.548-3.746-4.348 0-2.543 1.25-4.296 3.807-4.296 1.509 0 2.376.726 3.076 1.894L65.11 10.75c-.381-.727-.642-1.073-1.233-1.073-.701 0-1.052.726-1.052 2.038 0 1.313.382 1.99 1.127 1.99.516 0 .883-.3 1.385-1.073l1.738 1.405c-.93 1.423-1.799 1.977-3.215 1.977zm18.666 0c-3.168 0-4.86-2.435-4.86-5.706 0-3.555 2.012-5.704 4.873-5.704 2.62 0 3.655 1.169 4.386 3.255l-2.68 1.09c-.38-1.026-.746-1.675-1.72-1.675-1.233 0-1.767 1.28-1.767 3.034 0 1.69.518 3.034 1.797 3.034.93 0 1.324-.522 1.903-1.563l2.497 1.375c-.714 1.453-1.903 2.86-4.43 2.86zm8.812-7.871v-.6h-2.742v8.297h2.742v-4.52c0-1.012.412-1.344 1.082-1.344.532 0 .928.3 1.278.695l.641-2.955c-.32-.205-.717-.346-1.295-.346-.7 0-1.233.3-1.706.773zm8.876 4.14v-4.74h2.756v8.296h-2.756v-.553c-.489.395-1.066.728-1.995.728-1.75 0-2.59-1.217-2.59-3.399V7.541h2.759v4.712c0 1.07.348 1.359.912 1.359.564 0 .914-.288.914-1.33zm7.473-4.187v-.554h-2.74v8.297h2.74v-4.74c0-1.042.351-1.328.931-1.328.563 0 .912.286.912 1.36v4.708h2.758v-5.072c0-2.18-.839-3.397-2.589-3.397-.945 0-1.509.331-2.012.726zm9.94 7.918c-2.342 0-3.745-1.548-3.745-4.348 0-2.543 1.25-4.296 3.807-4.296 1.508 0 2.375.726 3.075 1.894l-1.886 1.486c-.381-.727-.64-1.073-1.235-1.073-.699 0-1.05.726-1.05 2.038 0 1.313.382 1.99 1.127 1.99.518 0 .883-.3 1.385-1.073l1.737 1.405c-.929 1.423-1.798 1.977-3.215 1.977zm4.766-10.557v10.383h2.741v-4.742c0-1.041.35-1.327.928-1.327.564 0 .914.286.914 1.36v4.708h2.756v-5.072c0-2.18-.839-3.397-2.589-3.397-.945 0-1.509.331-2.009.726V4.318l-2.741 1.138zm-103.938.903v12.64h18.268v-6.32h-12.18V6.36h-6.088zm18.268 0h-12.18V.04h12.18v6.319z" fill="#80808E"/></svg>