<svg width="130" height="40" viewBox="0 0 130 40" fill="none" xmlns="http://www.w3.org/2000/svg">
<path fill-rule="evenodd" clip-rule="evenodd" d="M0 17.0028V11H18.2387V17.0028H12.1595V29.0124H6.08124V17.0028H0ZM68.3252 16.1454V26.0089H71.061V21.5046C71.061 20.5155 71.4108 20.244 71.9875 20.244C72.5503 20.244 72.9001 20.5155 72.9001 21.5352V26.0089H75.6519V21.1897C75.6519 19.1187 74.8163 17.9627 73.067 17.9627C72.1235 17.9627 71.5627 18.2776 71.061 18.6527V15.0645L68.3252 16.1454ZM42.6857 18.0369V15.5H51.5927V18.0369H48.614V26.0091H45.6654V18.0369H42.6857ZM54.9363 17.9628C52.8372 17.9628 51.2889 19.3576 51.2889 22.0752C51.2889 24.4908 52.6093 26.1748 55.0123 26.1748C56.2577 26.1748 57.2772 25.8441 58.2638 25.2716L57.2162 23.5461C56.4266 23.9518 55.8469 24.1018 55.1502 24.1018C54.4045 24.1018 53.8878 23.7119 53.7968 22.8413H58.4787C58.4927 22.707 58.4927 22.5402 58.4927 22.3151C58.4927 19.3892 57.1253 17.9628 54.9363 17.9628ZM54.8594 19.9578C54.2376 19.9578 53.8878 20.3783 53.7968 21.1592H56.0768C55.9389 20.3645 55.664 19.9578 54.8594 19.9578ZM63.5674 26.1748C61.2285 26.1748 59.8281 24.704 59.8281 22.0446C59.8281 19.6281 61.0765 17.9628 63.6284 17.9628C65.1347 17.9628 66.0003 18.6528 66.7 19.7623L64.8158 21.1739C64.435 20.4829 64.1751 20.1542 63.5844 20.1542C62.8847 20.1542 62.5349 20.8442 62.5349 22.091C62.5349 23.3378 62.9157 23.9814 63.6593 23.9814C64.1751 23.9814 64.5409 23.6961 65.0427 22.9617L66.7769 24.2963C65.8484 25.6487 64.9818 26.1748 63.5674 26.1748ZM82.2019 26.1749C79.0394 26.1749 77.3511 23.8611 77.3511 20.7545C77.3511 17.3765 79.3592 15.3351 82.2159 15.3351C84.8317 15.3351 85.8643 16.4457 86.5939 18.4278L83.9191 19.4634C83.5393 18.4881 83.1735 17.8721 82.2019 17.8721C80.9705 17.8721 80.4377 19.0882 80.4377 20.7545C80.4377 22.3596 80.9545 23.636 82.2319 23.636C83.1595 23.636 83.5533 23.1405 84.131 22.1513L86.6239 23.4573C85.9112 24.8383 84.7238 26.1749 82.2019 26.1749ZM90.9999 18.6972V18.1266H88.2622V26.009H90.9999V21.7149C90.9999 20.7544 91.4108 20.4385 92.0795 20.4385C92.6112 20.4385 93.006 20.7238 93.3559 21.0989L93.9956 18.2915C93.6767 18.097 93.2799 17.9628 92.7032 17.9628C92.0035 17.9628 91.4717 18.2471 90.9999 18.6972ZM99.8608 22.631V18.1266H102.613V26.009H99.8608V25.4828C99.373 25.8579 98.7963 26.1748 97.8687 26.1748C96.1215 26.1748 95.2839 25.0189 95.2839 22.9459V18.1266H98.0376V22.6023C98.0376 23.6201 98.3855 23.8935 98.9482 23.8935C99.511 23.8935 99.8608 23.6201 99.8608 22.631ZM107.321 18.6528V18.1266H104.586V26.009H107.321V21.5046C107.321 20.5155 107.671 20.2441 108.25 20.2441C108.813 20.2441 109.161 20.5155 109.161 21.5352V26.009H111.914V21.1897C111.914 19.1187 111.077 17.9628 109.33 17.9628C108.386 17.9628 107.823 18.2777 107.321 18.6528ZM117.245 26.1748C114.906 26.1748 113.506 24.704 113.506 22.0446C113.506 19.6281 114.754 17.9628 117.306 17.9628C118.812 17.9628 119.678 18.6528 120.376 19.7623L118.493 21.1739C118.112 20.4829 117.855 20.1542 117.261 20.1542C116.562 20.1542 116.212 20.8442 116.212 22.091C116.212 23.3378 116.593 23.9814 117.337 23.9814C117.855 23.9814 118.218 23.6961 118.72 22.9617L120.454 24.2963C119.527 25.6487 118.659 26.1748 117.245 26.1748ZM122.003 16.1454V26.0089H124.739V21.5046C124.739 20.5155 125.088 20.244 125.665 20.244C126.228 20.244 126.578 20.5155 126.578 21.5352V26.0089H129.329V21.1897C129.329 19.1187 128.492 17.9627 126.745 17.9627C125.801 17.9627 125.238 18.2776 124.739 18.6527V15.0645L122.003 16.1454ZM18.2386 17.0033V29.0109H36.4763V23.0081H24.3168V17.0033H18.2386ZM36.4766 17.0033H24.3171V11.0005H36.4766V17.0033Z" fill="#80808E"/>
</svg>
