<svg width="20" height="17" fill="none" xmlns="http://www.w3.org/2000/svg"><mask id="a" maskUnits="userSpaceOnUse" x="0" y="-1" width="20" height="18"><path fill-rule="evenodd" clip-rule="evenodd" d="M11.037 1.115a4.106 4.106 0 00-1.189 3.92A11.65 11.65 0 011.392.749a4.106 4.106 0 001.27 5.477A4.078 4.078 0 01.8 5.713v.052a4.106 4.106 0 003.291 4.023 4.095 4.095 0 01-1.852.07 4.109 4.109 0 003.834 2.849A8.24 8.24 0 010 14.408a11.607 11.607 0 006.29 1.84v.003c7.546 0 11.675-6.253 11.675-11.675 0-.178 0-.355-.013-.531A8.333 8.333 0 0020 1.922a8.184 8.184 0 01-2.358.645 4.121 4.121 0 001.806-2.27 8.213 8.213 0 01-2.608.997 4.088 4.088 0 00-2.991-1.295c-1.01 0-2.019.37-2.812 1.116z" fill="#fff"/></mask><g mask="url(#a)"><path fill-rule="evenodd" clip-rule="evenodd" d="M-5 21.251h30V-5H-5v26.251z" fill="#fff"/></g></svg>