<svg width="20" height="16" viewBox="0 0 20 16" fill="none" xmlns="http://www.w3.org/2000/svg">
  <path d="M20 1.88782C19.2513 2.21474 18.4993 2.46154 17.666 2.54487C18.4993 2.05128 19.1667 1.23077 19.4987 0.326924C18.6654 0.820513 17.832 1.14744 16.9173 1.3141C16.084 0.493591 15 4.46683e-07 13.8346 4.46683e-07C11.582 4.46683e-07 9.74935 1.80449 9.74935 4.01923C9.74935 4.34936 9.74935 4.67628 9.83398 4.92308C6.41602 4.75962 3.41797 3.19872 1.41602 0.73718C0.999349 1.3141 0.833333 2.05128 0.833333 2.78846C0.833333 4.1859 1.58203 5.41667 2.66602 6.15385C1.9987 6.07051 1.33464 5.90705 0.833333 5.66026C0.833333 5.66026 0.833333 5.66026 0.833333 5.74359C0.833333 7.71154 2.24935 9.35257 4.08203 9.68269C3.75 9.76282 3.41797 9.84615 3.0013 9.84615C2.75065 9.84615 2.5 9.84616 2.24935 9.76282C2.75065 11.4038 4.2513 12.5545 6.08398 12.5545C4.66797 13.6218 2.91667 14.2756 0.999349 14.2756C0.667317 14.2756 0.332032 14.2756 0 14.1955C1.83268 15.3429 4.00065 16 6.25 16C13.8346 16 17.9167 9.84615 17.9167 4.51282C17.9167 4.34936 17.9167 4.1859 17.9167 4.01923C18.75 3.44551 19.4173 2.70833 20 1.88782Z" fill="white"/>
</svg>
