<svg width="80" height="27" fill="none" xmlns="http://www.w3.org/2000/svg"><path fill-rule="evenodd" clip-rule="evenodd" d="M19.537 9.024c-.804.13-1.574.56-2.033 1.244-.705 1.072-.801 2.412-.77 3.662.048 1.13.223 2.364 1.033 3.22.718.756 1.834.908 2.826.894 1.085-.025 2.26-.46 2.803-1.46.722-1.232.372-2.707.484-4.057.081-.893-.15-1.854-.81-2.493-.891-.94-2.287-1.266-3.533-1.01zM26.275 0h.209c.347.136.506.472.474.83-.004 4.595.006 9.19-.006 13.784.003 1.524-.352 3.117-1.362 4.3-1.2 1.47-3.168 2.074-5.013 2.072-1.835.044-3.813-.438-5.096-1.832-1.439-1.547-1.83-3.762-1.79-5.806.022-1.937.43-4.032 1.837-5.46 1.223-1.289 3.07-1.747 4.795-1.736 1.263-.018 2.498.414 3.538 1.119 0-1.454 0-2.906-.002-4.359.002-.732.105-1.522.597-2.098C24.9.278 25.608.074 26.275 0zm6.846 9.334c-1.056.443-1.632 1.543-1.796 2.628 2.084.007 4.168-.001 6.254.005.234.01.465-.05.673-.155-.064-1.011-.516-2.13-1.531-2.511-1.138-.431-2.471-.43-3.6.033zM30.165 7.9c1.087-1.112 2.643-1.625 4.167-1.724 1.586-.099 3.28.127 4.606 1.068 1.46 1.037 2.265 2.814 2.371 4.57.034.697.055 1.438-.275 2.074-.248.494-.825.726-1.354.72-2.794.003-5.587 0-8.38 0 .102.922.41 1.87 1.13 2.497.965.878 2.368 1.035 3.614.891 1.018-.102 1.934-.6 2.748-1.192.37-.227.756-.598 1.226-.47.584.22.82.925.69 1.5-.19.972-.98 1.689-1.796 2.174-1.868 1.11-4.196 1.225-6.251.62-1.396-.41-2.659-1.317-3.398-2.581-.879-1.485-1.086-3.263-1.046-4.96.067-1.865.566-3.849 1.948-5.187zm12.583-.952c-.046-.396.302-.743.681-.785.913.006 1.879.308 2.467 1.045 1.006-.736 2.263-1.085 3.502-1.056 1.649.003 3.371.438 4.61 1.578 1.046-1.07 2.554-1.57 4.029-1.585 1.73-.037 3.602.247 4.96 1.407 1.2 1.004 1.708 2.61 1.732 4.135.004 2.831-.001 5.662.003 8.494.015.37-.162.851-.587.889-.52.005-1.033-.162-1.503-.372-.78-.348-1.269-1.186-1.25-2.031-.004-1.958 0-3.915 0-5.873-.022-.868-.002-1.818-.524-2.56-.427-.591-1.184-.81-1.877-.865-.887-.064-1.845-.074-2.639.383-.66.388-.935 1.188-.942 1.92-.005 2.836.004 5.673-.004 8.509.047.431-.25.93-.736.861-.81-.092-1.685-.369-2.182-1.059-.285-.381-.407-.86-.419-1.33-.005-2.092.01-4.183-.006-6.276-.035-.797-.042-1.699-.603-2.332-.506-.586-1.331-.697-2.062-.725-.892-.026-1.877.034-2.593.63-.564.496-.722 1.285-.72 2.005.005 2.508 0 5.016.003 7.525-.005.363.028.731-.039 1.09-.075.36-.49.518-.82.445-.727-.122-1.506-.357-1.98-.96-.391-.463-.512-1.089-.504-1.68.006-3.808 0-7.617.003-11.427zm22.788-.562c1.167-.477 2.92-.277 3.446 1.028 1.144 2.654 2.289 5.305 3.442 7.953 1.227-2.669 2.445-5.343 3.666-8.013.415-.944 1.566-1.286 2.52-1.185.541.063 1.231.192 1.39.808v.234C77.79 12.125 75.484 17 73.238 21.9c-.66 1.457-1.533 2.891-2.885 3.801-.796.55-1.759.804-2.715.874h-.355c-.974-.033-1.992-.494-2.458-1.386-.24-.462-.387-1.111.02-1.526.382-.422 1.007-.305 1.516-.323.83.038 1.761-.02 2.399-.624.893-.855 1.3-2.061 1.796-3.162-1.775-4.002-3.569-7.997-5.354-11.994-.232-.402-.145-1.005.334-1.173zM9.831 7.615c.448-.611 1.223-.88 1.953-.92.354-.014.63.312.593.657.014 2.699.001 5.398.006 8.096-.01 1.526-.418 3.19-1.637 4.206-1.309 1.111-3.11 1.34-4.768 1.323-1.643-.028-3.432-.372-4.613-1.607C.346 18.339.043 16.842 0 15.443v-6.14c.053-.59.154-1.208.525-1.69.459-.61 1.248-.88 1.988-.896.334-.001.569.324.544.64.014 2.603-.003 5.208.005 7.811.017.744.121 1.565.654 2.133.57.608 1.453.742 2.247.765.85.013 1.785-.03 2.49-.563.663-.512.862-1.393.867-2.189.006-1.905-.001-3.81.002-5.713.01-.685.09-1.419.509-1.986z" fill="#80808E"/></svg>