<svg width="98" height="29" viewBox="0 0 98 29" fill="none" xmlns="http://www.w3.org/2000/svg">
    <path fill-rule="evenodd" clip-rule="evenodd" d="M90.1659 24.3669H93.0326L97.9923 11.7966H95.1547L93.1044 18.0571L90.9445 11.7966H87.7778L91.5492 20.8764L90.1659 24.3669ZM75.9367 14.7808V21.2242H73.0439V11.7966H75.0763L75.6802 12.6201C76.4671 11.9614 77.3092 11.5767 78.2796 11.5767C79.5795 11.5767 80.5677 11.9614 81.1724 12.9131C82.0511 12.1071 82.9849 11.5767 84.1748 11.5767C86.4077 11.5767 87.7076 12.7305 87.7076 15.8607V21.2242H84.8119V16.1898C84.8119 14.7438 84.2259 14.3221 83.292 14.3221C82.7429 14.3221 82.2856 14.4687 81.773 14.7982C81.8113 15.1508 81.8297 15.5052 81.8282 15.8599V21.2234H78.9354V16.189C78.9354 14.743 78.3493 14.3213 77.3977 14.3213C76.8664 14.3213 76.4273 14.45 75.9326 14.7791L75.9367 14.7808ZM65.8492 15.5859H69.5655C69.3642 14.3595 68.7051 13.7735 67.7165 13.7735C66.8739 13.7735 66.0692 14.2682 65.8492 15.5859ZM67.9182 21.4073C65.1357 21.4073 62.902 20.0343 62.902 16.4102C62.902 13.0235 65.0627 11.5592 67.5521 11.5592C70.5541 11.5592 71.8905 13.6643 71.8905 16.9776H65.8309C66.0326 18.6066 67.0395 19.0831 68.376 19.0831C69.6684 19.0831 70.6794 18.7643 71.4618 18.2376L71.0691 20.532C70.3221 21.113 69.4264 21.4035 67.9182 21.4035V21.4073ZM57.1479 18.9727C57.8066 18.9727 58.3009 18.8627 58.8135 18.4788V14.3782C58.3561 14.1034 57.8987 13.9756 57.2392 13.9756C55.8298 13.9756 55.0242 14.9273 55.0242 16.5198C55.0242 18.0762 55.8484 18.9727 57.1479 18.9727ZM59.3808 20.529C58.6304 21.0964 57.7705 21.4442 56.5436 21.4442C53.9621 21.4442 52.0956 19.8517 52.0956 16.5746C52.0956 13.3165 54.2372 11.5588 56.9831 11.5588C57.6235 11.5588 58.2465 11.6501 58.8093 11.8701V7.86913H61.7021V21.2251H59.8718L59.3808 20.529ZM39.84 15.6411V8.65355H42.8419V15.5859C42.8419 18.0753 43.9626 18.5879 45.4961 18.5879C47.1621 18.5879 48.0225 17.8558 48.0225 15.5859V8.65355H51.0431V15.6403C51.0431 19.7596 49.2493 21.4799 45.35 21.4799C41.7251 21.4799 39.84 19.9982 39.84 15.6411Z" fill="#80808E"/>
    <path fill-rule="evenodd" clip-rule="evenodd" d="M34.1078 16.1645C33.99 16.0678 33.8497 16.0026 33.6999 15.9728C32.8191 16.8502 31.7492 17.7749 30.7904 18.3966C30.3505 18.6892 29.7964 18.8353 29.4299 18.8353C28.5862 18.8353 28.2193 18.0301 28.1093 16.7518C27.9628 15.0335 27.8636 12.9762 27.8636 9.79574C27.8636 6.53354 27.1232 4.3164 25.1513 4.14292C25.0665 4.13494 24.9813 4.13078 24.8961 4.13046C23.6854 4.13046 23.0989 4.75178 22.3282 6.32353C21.6683 7.67572 20.6407 9.64965 18.734 13.3779C17.0834 16.5945 15.2493 19.4458 13.6713 21.4201C13.2322 21.9672 12.8848 22.3432 12.559 22.5573C12.3411 22.7009 12.1315 22.7732 11.9116 22.7732C11.289 22.7732 10.8346 22.2477 10.6831 21.0242C10.647 20.7337 10.6279 20.4033 10.6279 20.0314C10.6279 17.5092 11.5825 13.4157 13.2322 7.38395C14.4421 2.99658 13.9283 0 11.2869 0H11.2562C10.6586 0.00705566 10.1622 0.224121 9.68448 0.599731C9.21424 0.969945 8.74359 1.77014 8.30406 2.84509C7.80892 4.05617 4.79699 10.0975 0.00329225 13.2098C-0.053153 14.3927 0.616719 15.5756 1.97389 15.7001C3.20946 15.8171 4.08644 15.2962 5.21659 14.538L4.76835 16.5654L4.61064 17.2847C4.46158 17.9625 4.34756 18.6475 4.26906 19.3371C3.59255 25.3788 6.39323 28.36 9.67286 28.36C10.2207 28.36 10.7644 28.2948 11.3031 28.1579C14.9165 27.2419 18.3949 23.0973 22.5121 13.5568C22.4498 14.5944 22.4432 15.5639 22.488 16.4633C22.7636 21.9348 24.9218 23.5759 27.9777 23.5759C30.2887 23.5759 32.4531 22.3697 33.5533 20.871C34.3606 19.811 34.6906 18.641 34.6906 17.7275C34.6906 17.0178 34.4656 16.4521 34.1078 16.1645Z" fill="#80808E"/>
</svg>
