<svg width="83" height="29" viewBox="0 0 83 29" fill="none" xmlns="http://www.w3.org/2000/svg">
<path id="udemy" fill-rule="evenodd" clip-rule="evenodd" d="M20.194 9.54442C19.3627 9.68128 18.5674 10.136 18.0929 10.86C17.3637 11.9946 17.2645 13.4117 17.2961 14.7332C17.3465 15.9281 17.5277 17.2334 18.3647 18.1399C19.1067 18.9389 20.2601 19.0993 21.2855 19.0846C22.4072 19.0581 23.6225 18.599 24.1833 17.5409C24.9297 16.2371 24.5673 14.6773 24.6838 13.2498C24.7672 12.3051 24.5285 11.2882 23.8454 10.6128C22.925 9.61947 21.4825 9.27365 20.194 9.54442ZM27.1589 0H27.3746C27.7341 0.144214 27.8981 0.498863 27.865 0.878529C27.8607 5.73766 27.8708 10.5983 27.8593 15.4574C27.8621 17.0688 27.4954 18.7537 26.4513 20.0046C25.2102 21.56 23.1767 22.1987 21.2698 22.1972C19.3729 22.2428 17.3278 21.7337 16.0019 20.2591C14.5149 18.6227 14.1108 16.28 14.1525 14.1183C14.174 12.0698 14.5968 9.85365 16.0508 8.34382C17.3149 6.97967 19.2233 6.49552 21.0066 6.50729C22.3124 6.48816 23.5895 6.94435 24.6637 7.69044C24.6637 6.15264 24.6637 4.61632 24.6623 3.08C24.6637 2.30595 24.7702 1.4701 25.2793 0.86087C25.738 0.294315 26.47 0.0779933 27.1589 0ZM34.2361 9.87263C33.1446 10.3406 32.5492 11.5046 32.3795 12.6524C34.5338 12.6598 36.6881 12.651 38.8439 12.6568C39.0855 12.6686 39.3242 12.6053 39.54 12.4935C39.4738 11.4237 39.0064 10.2405 37.9566 9.83731C36.7802 9.38112 35.4025 9.38259 34.2361 9.87263ZM31.1801 8.35514C32.3032 7.17935 33.9125 6.63634 35.4873 6.53186C37.1267 6.42738 38.8784 6.66577 40.2489 7.66203C41.7575 8.75835 42.5902 10.6375 42.6995 12.4961C42.734 13.2319 42.7556 14.0163 42.4147 14.6888C42.1587 15.2112 41.5619 15.4569 41.0154 15.4496C38.1277 15.454 35.2399 15.4496 32.3536 15.4511C32.4586 16.4252 32.7778 17.4289 33.5213 18.0911C34.5194 19.0196 35.969 19.1859 37.2576 19.0343C38.3089 18.9254 39.2566 18.3986 40.0979 17.7732C40.479 17.5333 40.8788 17.1404 41.3649 17.2758C41.9689 17.5083 42.2119 18.2544 42.0782 18.8622C41.8812 19.8908 41.0643 20.6487 40.2216 21.1622C38.2902 22.3351 35.8842 22.4572 33.7601 21.8171C32.3176 21.3844 31.0118 20.425 30.2482 19.0873C29.3393 17.5171 29.125 15.6365 29.1667 13.8426C29.2357 11.8693 29.752 9.77079 31.1801 8.35514ZM44.1862 7.34905C44.1387 6.92966 44.4982 6.56323 44.8909 6.51909C45.8343 6.52497 46.8323 6.8443 47.4407 7.62424C48.4804 6.84578 49.7791 6.47641 51.0604 6.50731C52.7646 6.51026 54.545 6.97086 55.8249 8.17608C56.9064 7.04444 58.4653 6.51467 59.9898 6.49996C61.7788 6.46022 63.7131 6.76042 65.1167 7.98772C66.3578 9.05019 66.8827 10.7484 66.9072 12.3612C66.9115 15.3559 66.9057 18.3505 66.91 21.3452C66.9258 21.7366 66.7432 22.2458 66.3031 22.2855C65.7667 22.2914 65.236 22.1148 64.75 21.8926C63.9446 21.5247 63.4384 20.6374 63.4571 19.7441C63.4542 17.6736 63.4571 15.6031 63.4571 13.5326C63.4355 12.6143 63.4556 11.6093 62.9163 10.8249C62.4748 10.1995 61.6925 9.96698 60.9763 9.90959C60.0588 9.8419 59.0694 9.8316 58.2482 10.3143C57.5651 10.7248 57.2818 11.571 57.2746 12.345C57.2688 15.3456 57.2789 18.3461 57.2703 21.3452C57.3192 21.8014 57.0114 22.3297 56.5095 22.2561C55.6725 22.159 54.7679 21.8661 54.2545 21.1362C53.9597 20.733 53.8331 20.2268 53.8216 19.7294C53.8159 17.5161 53.8317 15.3044 53.8144 13.0911C53.7785 12.2479 53.7713 11.2943 53.1917 10.6248C52.6683 10.0052 51.8154 9.88752 51.0604 9.85808C50.1386 9.83012 49.1204 9.8934 48.3798 10.5232C47.7973 11.0486 47.6334 11.883 47.6362 12.6452C47.6406 15.297 47.6348 17.9503 47.6391 20.6035C47.6334 20.9876 47.6679 21.3776 47.5989 21.7572C47.5212 22.1369 47.0912 22.3046 46.7504 22.2281C45.9997 22.0986 45.1943 21.8499 44.7039 21.2113C44.2998 20.7227 44.1747 20.0605 44.1833 19.4351C44.189 15.4074 44.1833 11.3782 44.1862 7.34905ZM67.7416 6.75497C68.9481 6.25022 70.7602 6.46213 71.3038 7.84246C72.4859 10.6488 73.6695 13.4536 74.8617 16.254C76.1301 13.4315 77.3885 10.6031 78.6512 7.77918C79.0798 6.77999 80.2691 6.41798 81.2556 6.5254C81.8151 6.59163 82.5284 6.72848 82.6923 7.38039V7.62761C80.4071 12.8252 78.0242 17.9801 75.703 23.163C75.0214 24.7037 74.1182 26.2209 72.7204 27.1833C71.8977 27.7646 70.9026 28.0339 69.9146 28.1075H69.5478C68.5412 28.0722 67.4884 27.5851 67.0067 26.6418C66.7593 26.1532 66.6069 25.466 67.0268 25.0275C67.4223 24.5816 68.068 24.7052 68.5944 24.6861C69.4529 24.7258 70.415 24.6655 71.0737 24.0253C71.997 23.1218 72.4169 21.8459 72.9303 20.6819C71.0953 16.4482 69.2415 12.2233 67.3964 7.99551C67.1562 7.57022 67.2468 6.93303 67.7416 6.75497ZM10.1618 8.05373C10.6249 7.40771 11.4259 7.1237 12.1809 7.08102C12.5462 7.06631 12.8324 7.41065 12.7936 7.7756C12.808 10.6305 12.795 13.4853 12.7993 16.3387C12.7893 17.953 12.3679 19.713 11.1081 20.7872C9.75482 21.963 7.89388 22.2058 6.17963 22.1867C4.48121 22.1573 2.63177 21.7938 1.4108 20.487C0.358094 19.3966 0.044582 17.8132 0 16.3343V9.84022C0.0546489 9.21627 0.159632 8.56142 0.542174 8.05226C1.01676 7.40624 1.83217 7.12075 2.59726 7.10457C2.94241 7.1031 3.18545 7.44744 3.15957 7.78149C3.17395 10.5348 3.15669 13.2896 3.16532 16.0429C3.18258 16.8302 3.29044 17.6984 3.84124 18.2988C4.43087 18.9419 5.34264 19.0832 6.16381 19.1082C7.04251 19.1214 8.00893 19.0773 8.73663 18.5122C9.42261 17.9707 9.62826 17.0392 9.63402 16.1974C9.63977 14.1828 9.63258 12.1682 9.63545 10.1551C9.64552 9.42965 9.72893 8.65413 10.1618 8.05373Z" fill="#80808E"/>
</svg>
