<svg width="25" height="25" fill="none" xmlns="http://www.w3.org/2000/svg"><path fill-rule="evenodd" clip-rule="evenodd" d="M1.948.862h20.526c.982 0 1.778.772 1.778 1.725V23.22c0 .953-.796 1.726-1.778 1.726H1.948c-.983 0-1.78-.772-1.78-1.726V2.587c0-.953.797-1.725 1.78-1.725zM15.199 13.81c.808.654 1.695 1.056 2.643 1.056a2.33 2.33 0 002.321-2.32 2.326 2.326 0 00-2.321-2.325c-1.707 0-2.262 1.65-2.437 2.633l-.01.033-.196.923zm-1.916-2.192c.687-2.334 2.378-3.753 4.559-3.753a4.68 4.68 0 014.671 4.67c0 2.578-2.095 4.69-4.67 4.69-1.203 0-2.254-.368-3.167-.954l-1.041 4.91H11.23l1.439-6.769c-.68-.855-1.238-1.817-1.695-2.77v1.027c0 2.504-2.036 4.56-4.537 4.56S1.9 15.173 1.909 12.67V6.553h2.348v6.116a2.19 2.19 0 002.185 2.187 2.19 2.19 0 002.185-2.187V6.553h2.347c.466 1.595 1.26 3.488 2.31 5.065z" fill="#fff"/></svg>