<svg width="67" height="40" viewBox="0 0 67 40" fill="none" xmlns="http://www.w3.org/2000/svg">
<path fill-rule="evenodd" clip-rule="evenodd" d="M17.0225 17.5505C17.9303 15.2967 20.0498 13.5651 22.4649 13.1169C24.8898 12.7342 27.5226 13.283 29.4117 14.8833C29.4091 15.5829 29.4096 16.2824 29.4101 16.9819C29.4105 17.4484 29.4108 17.9149 29.4102 18.3813H27.0065L27.0063 17.7759V17.7757V17.7756V17.7755C27.0061 17.1708 27.0058 16.5665 27.0079 15.9614C25.1146 14.8456 22.4479 14.8847 20.7865 16.4054C18.732 18.2431 18.5327 21.7285 20.416 23.7519C21.3493 24.7993 22.7901 25.3648 24.1941 25.2782C25.659 25.2098 27.0701 24.4753 27.9553 23.3191C28.4633 23.7083 28.974 24.092 29.4853 24.4762L29.4855 24.4763L29.8556 24.7546C28.781 26.1594 27.1932 27.2067 25.42 27.4915C23.6427 27.8155 21.7438 27.539 20.1785 26.6327C18.7334 25.8061 17.5825 24.4851 16.9815 22.9462C16.2873 21.2328 16.3071 19.2527 17.0225 17.5505ZM0 13.3193H4.43701C4.93503 14.7209 5.42173 16.1266 5.90841 17.5322L5.90845 17.5323L5.90847 17.5324C6.62527 19.6026 7.34204 21.6728 8.09492 23.7296C8.99944 21.1614 9.8993 18.5916 10.7991 16.022L10.7992 16.0217C11.1147 15.1209 11.4301 14.22 11.7458 13.3193C13.1314 13.3193 14.5171 13.3193 15.9042 13.3207C15.9 13.9051 15.9005 14.4894 15.901 15.0738L15.901 15.0769C15.9012 15.2707 15.9014 15.4645 15.9014 15.6583C15.1223 15.6513 14.3432 15.6499 13.5641 15.6583C12.0766 19.599 10.5821 23.5383 9.07338 27.4734C8.50501 27.4692 7.93585 27.4697 7.36708 27.4702H7.36687H7.36673H7.3666H7.36647C7.17703 27.4704 6.98763 27.4706 6.79832 27.4706C5.38436 23.5229 3.93788 19.585 2.4914 15.6485C1.96718 15.6547 1.4424 15.6542 0.917771 15.6537C0.61175 15.6534 0.305779 15.6531 0 15.6541V13.3193ZM40.1513 13.5163C39.0124 13.5201 37.8738 13.524 36.7361 13.5065C36.7355 13.7968 36.7354 14.0874 36.7353 14.3779V14.378V14.378C36.7351 14.8142 36.7349 15.2505 36.7332 15.6863C37.2999 15.6711 37.8666 15.6736 38.4327 15.6761H38.4328H38.4329C38.645 15.677 38.8571 15.678 39.0691 15.678C39.0651 17.8921 39.066 20.1062 39.0669 22.3203C39.0673 23.269 39.0677 24.2178 39.0677 25.1666C38.6613 25.1622 38.2552 25.1624 37.8494 25.1626H37.8492C37.4771 25.1628 37.1052 25.1629 36.7332 25.1596C36.7363 25.6973 36.7357 26.2357 36.7351 26.7738L36.7351 26.7844C36.7349 26.996 36.7346 27.2076 36.7346 27.419C39.6326 27.4045 42.5314 27.4078 45.4305 27.4112H45.4306H45.4307C46.1555 27.412 46.8803 27.4129 47.6052 27.4134C47.5941 26.771 47.5969 26.1297 47.5997 25.4875L47.6009 25.1903C46.8729 25.1893 46.145 25.1899 45.4172 25.1906H45.4161H45.416H45.4158C44.1215 25.1917 42.8276 25.1928 41.5336 25.1847C41.5323 24.3641 41.5325 23.5435 41.5327 22.7228V22.7184C41.5329 21.7349 41.5331 20.7515 41.5308 19.7681C41.5789 17.6553 43.3661 15.5648 45.6016 15.6207C45.5987 15.7609 45.5966 15.9012 45.5944 16.0417V16.0419C45.5858 16.6023 45.5772 17.1641 45.5252 17.7223H47.9488C47.9482 17.1148 47.9483 16.5073 47.9485 15.8996V15.8996V15.8995C47.9487 15.0895 47.949 14.2794 47.9473 13.4688C47.6299 13.4799 47.3102 13.4752 46.9901 13.4706C46.2152 13.4595 45.4382 13.4483 44.6868 13.6587C43.2332 13.9967 42.013 15.03 41.2961 16.3049C41.2423 15.7614 41.2117 15.2164 41.1812 14.6714L41.1812 14.6713L41.1812 14.6712L41.1812 14.671L41.1812 14.6709C41.1595 14.285 41.1379 13.899 41.108 13.5135C40.7891 13.5141 40.4702 13.5152 40.1513 13.5163ZM50.6706 13.512C52.216 13.519 53.7629 13.5245 55.3098 13.5078C55.3068 15.5308 55.3073 17.5545 55.3079 19.5779L55.3079 19.6172C55.3082 20.4132 55.3084 21.2091 55.3084 22.005C55.3437 22.9699 55.4936 24.0116 56.1497 24.7726C56.9005 25.6105 58.1858 25.7711 59.2222 25.4276C60.8568 24.9053 61.9455 23.252 61.9823 21.5846C61.9939 20.1575 61.9913 18.7297 61.9886 17.3022V17.3013V17.3011C61.9878 16.8251 61.9869 16.3491 61.9865 15.8733C61.4159 15.88 60.8446 15.8795 60.2735 15.8789C60.014 15.8787 59.7545 15.8785 59.4951 15.8789C59.5008 15.0885 59.5008 14.2982 59.4951 13.5078C60.5437 13.5209 61.5928 13.5192 62.6417 13.5175C63.2633 13.5165 63.8848 13.5155 64.5062 13.5176C64.5098 14.7482 64.5075 15.9789 64.5053 17.2096C64.5004 19.8516 64.4956 22.4936 64.5486 25.1343C64.9697 25.1704 65.3914 25.1666 65.8133 25.1628C66.0275 25.1609 66.2418 25.159 66.456 25.1622V27.4091C65.9902 27.4101 65.5243 27.4096 65.0585 27.4092C64.2433 27.4084 63.4281 27.4076 62.6129 27.4147C62.5309 26.845 62.442 26.2762 62.3529 25.7069L62.3527 25.7056C62.322 25.5092 62.2913 25.3127 62.2608 25.1162C61.7801 25.9568 61.141 26.7374 60.2813 27.222C59.4244 27.7275 58.3936 27.8741 57.4095 27.7805C56.1002 27.6953 54.7923 27.1172 53.9778 26.0811C53.121 25.0142 52.8127 23.6248 52.8 22.287C52.7933 21.1624 52.7945 20.0377 52.7956 18.9131V18.9115C52.7966 17.8987 52.7976 16.886 52.7929 15.8733C52.2606 15.8796 51.729 15.8788 51.1976 15.878H51.1975C51.0205 15.8778 50.8434 15.8775 50.6663 15.8775C50.6739 15.1773 50.6725 14.4761 50.6711 13.7747V13.7746L50.6706 13.512ZM34.2178 25.0632C33.4019 25.1023 32.5804 25.1037 31.7646 25.0604C31.7628 25.402 31.763 25.7436 31.7632 26.0853C31.7635 26.555 31.7638 27.0247 31.7589 27.4944L31.7601 27.4944C32.5798 27.4916 33.3981 27.4888 34.2178 27.4958C34.2178 27.2259 34.2176 26.9559 34.2175 26.6857C34.2172 26.1452 34.2169 25.6042 34.2178 25.0632Z" fill="#80808E"/>
</svg>
