<svg width="68" height="16" fill="none" xmlns="http://www.w3.org/2000/svg"><path fill-rule="evenodd" clip-rule="evenodd" d="M17.492 4.868c.91-2.372 3.033-4.195 5.452-4.667 2.429-.403 5.066.175 6.959 1.86-.003.736-.003 1.473-.002 2.21v1.472h-2.408v-.638c0-.637 0-1.273.002-1.91-1.897-1.174-4.568-1.133-6.232.468-2.058 1.934-2.258 5.603-.371 7.733a4.632 4.632 0 003.784 1.607c1.468-.072 2.881-.846 3.768-2.063.509.41 1.02.814 1.532 1.218l.371.293c-1.076 1.48-2.667 2.582-4.443 2.881-1.78.341-3.682.05-5.25-.904a7.684 7.684 0 01-3.203-3.88 7.88 7.88 0 01.041-5.68zM.442.414h4.444c.5 1.476.987 2.955 1.474 4.435.718 2.18 1.436 4.358 2.19 6.524A4932.086 4932.086 0 0012.207.414c1.387 0 2.775 0 4.165.002-.004.615-.004 1.23-.003 1.845v.615c-.78-.007-1.56-.008-2.341 0A2654.49 2654.49 0 019.53 15.313c-.57-.004-1.14-.004-1.71-.003h-.57c-1.416-4.155-2.865-8.3-4.313-12.444-.526.007-1.051.006-1.577.006H.44V.414zm40.22.208c-1.142.004-2.282.008-3.422-.01v.918c0 .459-.001.918-.003 1.376.568-.016 1.136-.013 1.703-.01l.637.001c-.004 2.33-.003 4.661-.002 6.991v2.997c-.407-.005-.813-.004-1.22-.004-.373 0-.745 0-1.118-.003.003.565.003 1.131.002 1.697v.682c2.903-.016 5.806-.013 8.71-.01l2.179.003c-.012-.676-.009-1.35-.006-2.027l.001-.313h-2.188c-1.297.002-2.593.003-3.89-.006v-2.596c0-1.035 0-2.07-.002-3.106.048-2.224 1.838-4.424 4.078-4.365l-.008.442v.001c-.008.59-.017 1.181-.069 1.77h2.428V3.13c0-.852 0-1.705-.002-2.558-.318.011-.638.006-.959.002-.776-.012-1.554-.024-2.307.198-1.456.355-2.678 1.443-3.396 2.785a42.41 42.41 0 01-.115-1.72c-.022-.406-.044-.812-.074-1.218l-.958.003zM51.196.617c1.548.007 3.098.013 4.647-.004-.003 2.127-.002 4.254-.002 6.382v2.562c.036 1.016.186 2.112.843 2.913.752.882 2.04 1.051 3.078.69 1.637-.55 2.728-2.29 2.765-4.045.011-1.503.009-3.006.006-4.51l-.002-1.502c-.571.007-1.144.006-1.716.006h-.78c.006-.832.006-1.664 0-2.496 1.05.014 2.102.012 3.152.01.623-.001 1.246-.002 1.868 0 .004 1.295.001 2.591 0 3.887-.006 2.78-.01 5.562.043 8.341.421.038.844.034 1.266.03.215-.002.43-.004.644 0v2.365H65.61c-.817-.001-1.634-.002-2.45.005-.083-.6-.172-1.199-.261-1.798l-.092-.62c-.482.884-1.122 1.706-1.983 2.216-.858.532-1.89.686-2.877.588-1.311-.09-2.621-.699-3.437-1.79-.858-1.122-1.167-2.585-1.18-3.993-.007-1.184-.005-2.369-.004-3.553v-.002c0-1.066.002-2.13-.003-3.196-.533.006-1.066.006-1.598.005h-.532c.007-.738.006-1.476.005-2.214V.617zm-16.48 12.16c-.818.04-1.64.042-2.458-.004-.002.36-.002.72-.001 1.08 0 .494 0 .988-.005 1.482h.002c.82-.003 1.64-.005 2.461.002v-.853-1.708z" fill="#80808E"/></svg>