<svg width="120" height="121" viewBox="0 0 120 121" fill="none" xmlns="http://www.w3.org/2000/svg">
<path d="M70.6346 0.93431L67.3155 8.40879L66.1745 8.30498L65.3448 3.84105L63.6852 8.20117L62.5442 8.09735L60.6772 0L62.2331 0.103812L63.4778 5.70967L65.1373 1.45337L66.2783 1.55718L67.108 6.02111L69.3899 0.726686L70.6346 0.93431Z" fill="#80808E"/>
<path d="M75.7177 9.03154L75.4065 10.2773L70.6353 9.03154L72.606 1.45325L77.2735 2.59518L76.9623 3.84093L73.6432 3.01043L73.1246 5.08667L76.0288 5.81336L75.7177 6.95529L72.8134 6.22861L72.2948 8.09723L75.7177 9.03154Z" fill="#80808E"/>
<path d="M82.7708 10.6926C82.3559 11.7307 81.215 12.4574 79.7628 11.8345L76.7549 10.5888L79.6591 3.3219L82.4596 4.46383C83.7043 4.9829 84.2229 6.02102 83.808 7.16295C83.4968 7.78582 82.9782 8.30489 82.1484 8.30489C82.9782 8.82395 83.082 9.86207 82.7708 10.6926ZM81.5261 10.0697C81.7336 9.55063 81.6298 8.92776 80.8001 8.61632L79.2442 7.99345L78.4144 10.0697L79.9703 10.6926C80.6963 10.9002 81.3187 10.5888 81.5261 10.0697ZM80.3852 5.08671L79.6591 6.85151L81.1112 7.47439C81.6298 7.68201 82.0447 7.47439 82.2522 6.95533C82.4596 6.43627 82.3559 5.9172 81.7336 5.70958L80.3852 5.08671Z" fill="#80808E"/>
<path d="M83.8076 11.1079L85.0523 11.7307C84.7411 12.2498 85.0523 12.9765 85.7783 13.3917C86.5044 13.807 87.1267 13.5994 87.4379 13.0803C87.749 12.5612 87.4379 12.146 86.9193 11.6269L86.1932 10.9002C84.9485 9.7583 85.156 8.72018 85.4671 8.09731C86.0895 6.85156 87.6453 6.64394 88.89 7.37062C90.1347 8.09731 90.6533 9.34305 90.0309 10.6926L88.7863 10.0697C89.0974 9.55068 88.89 8.82399 88.2677 8.51256C87.6453 8.20112 87.023 8.30493 86.7118 8.82399C86.6081 9.03162 86.4006 9.44686 87.1267 10.0697L87.8528 10.6926C88.7863 11.6269 89.3049 12.5612 88.6825 13.7032C87.9565 14.9489 86.5044 15.1565 85.156 14.4299C83.6001 13.7032 83.1853 12.2498 83.8076 11.1079Z" fill="#80808E"/>
<path d="M92.9351 10.0698L94.076 10.7965L89.7197 17.2329L88.5787 16.5062L92.9351 10.0698Z" fill="#80808E"/>
<path d="M99.3662 16.4024L97.6029 14.949L93.454 20.0358L92.4167 19.2053L96.5656 14.1185L94.8024 12.6651L95.6321 11.7308L100.196 15.4681L99.3662 16.4024Z" fill="#80808E"/>
<path d="M100.196 24.915L99.2621 25.7455L95.8392 22.2159L101.44 16.8176L104.759 20.2434L103.826 21.0739L101.544 18.6862L99.9881 20.1396L102.063 22.3197L101.129 23.1502L99.0546 20.9701L97.6025 22.3197L100.196 24.915Z" fill="#80808E"/>
<path d="M101.752 25.0189L102.582 26.057C102.063 26.4722 102.063 27.1989 102.582 27.9256C103.1 28.5485 103.723 28.6523 104.241 28.3408C104.656 28.0294 104.656 27.4065 104.345 26.7837L103.93 25.8494C103.308 24.2922 103.93 23.4617 104.449 23.0464C105.59 22.2159 106.938 22.6312 107.872 23.7731C108.701 24.915 108.701 26.3684 107.561 27.1989L106.731 26.1608C107.249 25.7455 107.353 25.1227 106.834 24.4998C106.42 23.9807 105.797 23.7731 105.279 24.1884C105.071 24.2922 104.76 24.6036 105.175 25.5379L105.59 26.4722C106.108 27.6142 106.108 28.7561 105.071 29.5866C103.93 30.4171 102.478 30.1057 101.545 28.8599C100.507 27.4065 100.611 25.8494 101.752 25.0189Z" fill="#80808E"/>
<path d="M110.154 37.6837C111.087 37.2685 112.021 37.7876 112.332 38.6181C112.643 39.4486 112.332 40.4867 111.502 40.9019C110.569 41.3172 109.635 40.7981 109.22 39.9676C108.805 39.1371 109.22 38.099 110.154 37.6837Z" fill="#80808E"/>
<path d="M113.887 54.8129L113.472 51.8023L111.502 51.3871L111.294 49.9337L119.385 51.9061L119.592 53.3595L112.228 57.2006L112.02 55.7472L113.887 54.8129ZM115.028 54.2938L118.036 52.8405L114.821 52.1138L115.028 54.2938Z" fill="#80808E"/>
<path d="M117.414 63.6369C116.169 63.6369 114.924 62.9102 114.924 61.1454V59.3806H112.124V58.031L119.903 58.1348L119.799 61.2492C119.903 62.9102 118.658 63.6369 117.414 63.6369ZM117.414 62.1835C118.036 62.1835 118.658 61.8721 118.658 61.1454V59.3806H116.169V61.0416C116.169 61.8721 116.791 62.1835 117.414 62.1835Z" fill="#80808E"/>
<path d="M116.584 70.9038C115.339 70.6962 114.198 69.8657 114.406 68.1009L114.613 66.3361L111.812 65.9208L112.02 64.5713L119.695 65.6094L119.281 68.7238C119.177 70.4886 117.828 71.1115 116.584 70.9038ZM116.791 69.5543C117.414 69.6581 118.036 69.4505 118.14 68.62L118.347 66.8552L115.858 66.5437L115.65 68.2047C115.547 69.0352 116.169 69.4505 116.791 69.5543Z" fill="#80808E"/>
<path d="M118.658 73.1875L118.347 74.537L112.02 72.9798L111.294 75.8866L110.049 75.5752L111.086 71.3188L118.658 73.1875Z" fill="#80808E"/>
<path d="M116.895 79.1049L116.48 80.4545L109.116 77.963L109.531 76.6134L116.895 79.1049Z" fill="#80808E"/>
<path d="M112.332 80.8696C114.302 81.8039 115.236 84.1916 114.302 86.164C113.784 87.306 112.747 88.0327 111.606 88.3441L111.294 87.0984C112.02 86.8907 112.747 86.4755 113.058 85.645C113.68 84.2954 113.058 82.7382 111.709 82.1154C110.361 81.4925 108.805 82.0116 108.183 83.3611C107.872 84.0878 107.872 84.9183 108.286 85.645L107.145 86.2678C106.627 85.2297 106.523 83.984 107.042 82.8421C107.975 80.7658 110.257 79.9353 112.332 80.8696Z" fill="#80808E"/>
<path d="M104.552 91.0433L106.212 88.448L104.967 86.787L105.797 85.5413L110.776 92.2891L109.946 93.5348L101.856 91.77L102.685 90.5242L104.552 91.0433ZM105.797 91.3547L109.012 92.1852L106.938 89.5899L105.797 91.3547Z" fill="#80808E"/>
<path d="M103.515 99.8673L104.967 98.1025L99.8843 93.95L100.714 92.9119L105.796 97.0644L107.249 95.2995L108.182 96.13L104.448 100.594L103.515 99.8673Z" fill="#80808E"/>
<path d="M103.204 101.944L102.27 102.878L96.7732 97.3758L97.7067 96.4415L103.204 101.944Z" fill="#80808E"/>
<path d="M98.2251 101.424C99.5735 103.189 99.3661 105.577 97.6028 107.03C95.8395 108.38 93.4539 108.172 92.0018 106.407C90.6534 104.643 90.8608 102.151 92.5204 100.802C94.3874 99.452 96.8767 99.7635 98.2251 101.424ZM93.1427 105.577C94.0762 106.719 95.7358 107.03 96.8767 106.096C98.0177 105.162 98.1214 103.501 97.1879 102.359C96.2544 101.217 94.6986 100.905 93.4539 101.84C92.313 102.774 92.2092 104.331 93.1427 105.577Z" fill="#80808E"/>
<path d="M87.5422 113.674L83.6007 106.927L84.6379 106.304L89.9278 109.314L87.3347 104.746L88.5794 104.02L92.5208 110.768L91.3799 111.39L86.09 108.38L88.6831 112.844L87.5422 113.674Z" fill="#80808E"/>
<path d="M83.3932 109.522L82.1485 110.041C81.9411 109.522 81.215 109.21 80.3853 109.522C79.6592 109.833 79.348 110.456 79.5555 110.975C79.7629 111.494 80.2815 111.598 81.0076 111.494L82.0448 111.39C83.7044 111.183 84.4304 112.013 84.6379 112.636C85.1565 113.882 84.4304 115.232 83.082 115.751C81.7336 116.27 80.3853 115.958 79.8666 114.609L81.1113 114.09C81.3188 114.712 81.9411 114.92 82.6671 114.609C83.2895 114.401 83.6007 113.778 83.3932 113.155C83.2895 112.948 83.082 112.532 82.1485 112.636L81.215 112.74C79.9704 112.844 78.8294 112.636 78.4145 111.494C77.8959 110.145 78.622 108.899 79.9704 108.276C81.4225 107.757 82.8746 108.38 83.3932 109.522Z" fill="#80808E"/>
<path d="M68.9757 114.505C69.0794 115.439 68.3533 116.27 67.4198 116.373C66.4863 116.477 65.5528 115.854 65.4491 114.92C65.3454 113.986 66.0714 113.155 67.0049 113.051C67.9384 112.844 68.8719 113.467 68.9757 114.505Z" fill="#80808E"/>
<path d="M48.1277 111.183L47.9203 116.477L50.7208 112.532L51.8617 112.74L53.2101 117.412L54.6623 112.325L56.0106 112.532L53.8325 120.111L52.6915 119.903L51.032 114.193L47.7128 119.073L46.5719 118.865L46.8831 110.975L48.1277 111.183Z" fill="#80808E"/>
<path d="M44.8084 114.401C44.0823 116.477 41.8004 117.619 39.726 116.789C37.6515 116.062 36.6143 113.778 37.3404 111.702C38.0664 109.626 40.3483 108.484 42.4228 109.314C44.4972 110.041 45.5344 112.325 44.8084 114.401ZM38.585 112.221C38.0664 113.674 38.6888 115.128 40.1409 115.647C41.4893 116.166 42.9414 115.335 43.46 113.986C43.9786 112.636 43.3563 111.079 42.0079 110.56C40.5558 110.041 39.1037 110.768 38.585 112.221Z" fill="#80808E"/>
<path d="M31.5317 106.719C32.0504 105.785 33.295 105.162 34.6434 105.888L37.5476 107.446L33.8136 114.297L31.1168 112.844C29.8722 112.221 29.561 111.079 30.0796 110.041C30.3908 109.522 30.9094 109.003 31.7392 109.107C31.1168 108.484 31.1168 107.446 31.5317 106.719ZM33.295 112.636L34.2285 110.975L32.7764 110.249C32.2578 109.937 31.8429 110.145 31.5317 110.664C31.3243 111.183 31.3243 111.702 31.8429 111.91L33.295 112.636ZM32.6727 107.549C32.3615 108.068 32.4652 108.691 33.1913 109.107L34.6434 109.937L35.6806 107.965L34.2285 107.134C33.6062 106.719 32.9839 107.03 32.6727 107.549Z" fill="#80808E"/>
<path d="M27.1755 110.456L26.0345 109.73L30.3909 103.293L31.5318 104.02L27.1755 110.456Z" fill="#80808E"/>
<path d="M23.9597 108.276L22.9225 107.446L26.9677 102.359L24.582 100.49L25.3081 99.5558L28.7309 102.359L23.9597 108.276Z" fill="#80808E"/>
<path d="M20.3294 96.1301L21.1592 95.2996L24.582 98.7254L19.0847 104.227L15.6619 100.802L16.4916 99.9711L18.8773 102.359L20.3294 100.905L18.2549 98.8292L19.1884 97.8949L21.2629 99.9711L22.8187 98.6215L20.3294 96.1301Z" fill="#80808E"/>
<path d="M13.3803 89.2785C12.5505 89.7976 11.5133 89.3824 11.0984 88.5519C10.5798 87.7214 10.7873 86.6832 11.617 86.1642C12.4468 85.6451 13.484 86.0604 14.0026 86.787C14.4175 87.7214 14.2101 88.7595 13.3803 89.2785Z" fill="#80808E"/>
<path d="M2.80088 78.2745L2.38599 76.925L9.85401 74.6411L10.2689 75.9907L2.80088 78.2745Z" fill="#80808E"/>
<path d="M1.76332 74.5373L1.45215 73.1877L7.88294 71.8382L7.26061 68.8276L8.50528 68.62L9.33506 72.8763L1.76332 74.5373Z" fill="#80808E"/>
<path d="M0.518517 68.4123L0.414795 67.0627L6.94931 66.336L6.63814 63.3255L7.88281 63.2217L8.2977 67.5818L0.518517 68.4123Z" fill="#80808E"/>
<path d="M5.0824 62.4949L0 62.3911V61.0416L4.97868 61.1454C6.11963 61.1454 6.63824 60.4187 6.63824 59.5882C6.63824 58.7577 6.22335 58.031 5.0824 58.031L0.103722 57.9272V56.5776H5.18612C6.94941 56.5776 7.98663 58.031 7.98663 59.5882C7.88291 61.1454 6.84568 62.4949 5.0824 62.4949Z" fill="#80808E"/>
<path d="M5.70454 55.0204L5.91198 53.6708C6.53432 53.7747 7.15665 53.2556 7.26037 52.4251C7.3641 51.5946 6.9492 51.0755 6.43059 50.9717C5.91198 50.8679 5.49709 51.2832 5.18592 51.906L4.77103 52.8403C4.1487 54.5013 3.11147 54.6052 2.38542 54.5013C1.03702 54.2937 0.310967 52.9442 0.518412 51.5946C0.725857 50.1412 1.76308 49.2069 3.2152 49.4145L3.00775 50.7641C2.38542 50.6603 1.8668 51.0755 1.76308 51.8022C1.65936 52.4251 1.97053 53.048 2.59286 53.1518C2.80031 53.1518 3.31892 53.1518 3.63009 52.3213L4.04498 51.387C4.56359 50.245 5.28965 49.4145 6.53432 49.5184C7.98643 49.726 8.71249 51.0755 8.50504 52.5289C8.2976 54.2937 7.05293 55.228 5.70454 55.0204Z" fill="#80808E"/>
<path d="M4.04542 42.2516L3.42308 44.4316L9.75015 46.0926L9.43899 47.4422L3.11192 45.7812L2.48958 47.9612L1.34863 47.6498L2.80075 42.0439L4.04542 42.2516Z" fill="#80808E"/>
<path d="M8.81626 39.9677L8.50509 40.5905L11.0982 41.6287L10.5795 42.8744L3.31897 39.9677L4.45992 37.1647C5.08225 35.5037 6.53437 35.2961 7.67531 35.8152C8.71254 36.2304 9.4386 37.1647 9.23115 38.5143L12.654 37.6838L12.0317 39.241L8.81626 39.9677ZM7.46787 40.1753L7.98648 38.9295C8.40137 37.9952 7.98648 37.4762 7.36415 37.1647C6.74181 36.8533 6.01575 37.0609 5.70459 37.7876L5.08225 39.241L7.46787 40.1753Z" fill="#80808E"/>
<path d="M13.7951 32.0779L12.2393 34.777L13.5877 36.3342L12.8616 37.5799L7.57178 31.1436L8.29783 29.8978L16.4919 31.2474L15.7659 32.4931L13.7951 32.0779ZM12.5505 31.8703L9.23134 31.2474L11.4095 33.7389L12.5505 31.8703Z" fill="#80808E"/>
<path d="M14.3138 23.1501L12.9654 24.915L18.2552 28.756L17.4255 29.8979L12.1356 26.0569L10.7872 27.8217L9.75 27.095L13.1728 22.4235L14.3138 23.1501Z" fill="#80808E"/>
<path d="M14.5211 21.1776L15.4546 20.1395L21.2631 25.3301L20.3296 26.3683L14.5211 21.1776Z" fill="#80808E"/>
<path d="M19.3962 21.2814C17.9441 19.6204 17.9441 17.1289 19.6037 15.6756C21.2632 14.2222 23.7526 14.326 25.2047 15.987C26.6568 17.648 26.5531 20.1395 24.9973 21.5929C23.3377 23.15 20.8484 22.9424 19.3962 21.2814ZM24.2712 16.9213C23.234 15.7794 21.6781 15.6756 20.5372 16.6099C19.3962 17.648 19.5 19.2052 20.4335 20.3471C21.367 21.489 23.0265 21.5929 24.1675 20.6585C25.2047 19.6204 25.2047 18.0632 24.2712 16.9213Z" fill="#80808E"/>
<path d="M29.3536 8.51257L33.6063 15.0527L32.569 15.7794L27.0717 13.0803L29.976 17.4404L28.835 18.1671L24.5824 11.6269L25.6196 10.9003L31.0132 13.5994L28.109 9.23926L29.3536 8.51257Z" fill="#80808E"/>
<path d="M33.814 12.3536L35.0587 11.7307C35.3699 12.2498 36.0959 12.5612 36.822 12.1459C37.548 11.8345 37.7555 11.2116 37.548 10.5888C37.3406 10.0697 36.7182 9.96588 36.0959 10.1735L35.0587 10.3811C33.3991 10.6926 32.6731 9.96589 32.3619 9.34301C31.7396 8.09727 32.4656 6.74771 33.7103 6.12483C34.955 5.50196 36.4071 5.8134 37.0294 7.16296L35.7847 7.78583C35.4736 7.16296 34.8512 6.95533 34.2289 7.26677C33.6066 7.5782 33.2954 8.20108 33.6066 8.72014C33.7103 8.92776 33.9177 9.34301 34.8512 9.13539L35.7847 8.92776C37.0294 8.72014 38.1704 8.92776 38.689 9.96589C39.3113 11.2116 38.689 12.5612 37.2369 13.2879C35.8885 14.0146 34.4364 13.4955 33.814 12.3536Z" fill="#80808E"/>
<path d="M47.9196 6.64391C47.7121 5.7096 48.4382 4.8791 49.3717 4.67148C50.3052 4.46385 51.2387 5.08673 51.4461 6.02104C51.6536 6.95535 50.9275 7.88966 49.994 7.99347C49.0605 8.09728 48.127 7.57822 47.9196 6.64391Z" fill="#80808E"/>
</svg>
