<svg width="128" height="129" fill="none" xmlns="http://www.w3.org/2000/svg"><path d="M75.34.997L71.8 8.969l-1.217-.11-.885-4.762-1.77 4.65-1.217-.11L64.719 0l1.66.11 1.327 5.98 1.77-4.54 1.217.11.885 4.762L74.012.775l1.328.222zM80.76 9.633l-.331 1.329-5.09-1.329 2.103-8.083 4.978 1.218-.332 1.329-3.54-.886-.553 2.214 3.098.776-.332 1.218-3.098-.776-.553 1.994 3.65.996zM88.283 11.405c-.442 1.107-1.66 1.882-3.208 1.218l-3.208-1.329 3.097-7.75 2.987 1.217c1.328.554 1.881 1.661 1.439 2.88-.332.663-.886 1.217-1.77 1.217.884.554.995 1.661.663 2.547zm-1.327-.665c.221-.553.11-1.218-.775-1.55l-1.66-.664-.884 2.214 1.66.665c.774.221 1.438-.11 1.659-.665zm-1.217-5.314l-.775 1.882 1.55.664c.552.222.995 0 1.216-.553.221-.554.11-1.108-.553-1.33l-1.438-.663zM89.39 11.848l1.328.664c-.332.554 0 1.329.774 1.772.774.443 1.438.221 1.77-.332.332-.554 0-.997-.553-1.55l-.775-.776c-1.327-1.218-1.106-2.325-.774-2.99.664-1.328 2.323-1.55 3.65-.774 1.328.775 1.882 2.103 1.218 3.543L94.7 10.74c.332-.554.11-1.33-.553-1.661-.664-.333-1.327-.222-1.66.332-.11.221-.331.664.443 1.329l.775.664c.995.996 1.549 1.993.885 3.21-.775 1.33-2.324 1.551-3.762.776-1.66-.775-2.102-2.325-1.438-3.543zM99.126 10.74l1.216.776-4.646 6.865-1.217-.776 4.647-6.864zM105.985 17.495l-1.881-1.55-4.425 5.425-1.107-.886 4.426-5.425-1.881-1.55.885-.997 4.868 3.986-.885.997zM106.87 26.574l-.996.886-3.651-3.765 5.974-5.757 3.54 3.654-.995.886-2.434-2.547-1.66 1.55 2.213 2.325-.996.886-2.212-2.325-1.549 1.44 2.766 2.767zM108.529 26.685l.885 1.108c-.553.442-.553 1.217 0 1.992.553.665 1.217.776 1.77.443.442-.332.442-.996.111-1.66l-.443-.997c-.664-1.66 0-2.547.553-2.99 1.217-.885 2.655-.442 3.651.776.885 1.218.885 2.768-.332 3.653l-.885-1.107c.553-.443.664-1.107.111-1.771-.443-.554-1.107-.776-1.66-.333-.221.111-.553.443-.11 1.44l.442.996c.553 1.218.553 2.436-.553 3.322-1.217.886-2.766.554-3.761-.775-1.107-1.55-.996-3.211.221-4.097zM117.49 40.194c.996-.443 1.991.11 2.323.996.332.886 0 1.993-.885 2.436-.996.443-1.991-.11-2.434-.996-.442-.886 0-1.993.996-2.436zM121.473 58.464l-.443-3.211-2.102-.443-.221-1.55 8.629 2.103.222 1.55-7.855 4.097-.222-1.55 1.992-.996zm1.217-.554l3.208-1.55-3.43-.775.222 2.325zM125.234 67.876c-1.327 0-2.655-.776-2.655-2.658v-1.882h-2.987v-1.44l8.298.111-.111 3.322c.111 1.771-1.217 2.547-2.545 2.547zm0-1.55c.664 0 1.328-.333 1.328-1.108v-1.882h-2.655v1.771c0 .886.664 1.218 1.327 1.218zM124.349 75.626c-1.327-.221-2.544-1.107-2.323-2.99l.221-1.882-2.987-.443.222-1.439 8.186 1.107-.442 3.322c-.111 1.882-1.549 2.547-2.877 2.325zm.222-1.439c.663.11 1.327-.11 1.438-.997l.221-1.882-2.655-.332-.221 1.772c-.111.885.553 1.328 1.217 1.439zM126.562 78.062l-.332 1.44-6.749-1.661-.774 3.1-1.328-.332 1.107-4.54 8.076 1.993zM124.681 84.374l-.442 1.44-7.855-2.658.442-1.44 7.855 2.658zM119.813 86.256c2.102.996 3.098 3.543 2.102 5.647-.553 1.218-1.659 1.993-2.876 2.325l-.332-1.328c.775-.222 1.549-.665 1.881-1.55.664-1.44 0-3.101-1.438-3.765-1.439-.665-3.098-.111-3.762 1.328-.332.776-.332 1.661.111 2.436l-1.217.665c-.553-1.108-.664-2.436-.111-3.654.996-2.215 3.43-3.1 5.642-2.104zM111.516 97.107l1.77-2.768-1.327-1.772.885-1.328 5.31 7.197-.885 1.329-8.629-1.883.885-1.328 1.991.553zm1.328.332l3.429.886-2.212-2.768-1.217 1.882zM110.41 106.519l1.549-1.882-5.421-4.429.885-1.108 5.421 4.429 1.548-1.882.996.886-3.983 4.761-.995-.775zM110.078 108.733l-.996.997-5.863-5.868.995-.997 5.864 5.868zM104.767 108.18c1.439 1.882 1.217 4.429-.663 5.979-1.881 1.44-4.426 1.218-5.974-.664-1.439-1.883-1.217-4.54.553-5.979 1.991-1.44 4.646-1.108 6.084.664zm-5.42 4.429c.995 1.218 2.765 1.55 3.982.554 1.217-.997 1.328-2.769.332-3.987s-2.655-1.55-3.983-.553c-1.216.996-1.327 2.657-.331 3.986zM93.372 121.246l-4.204-7.198 1.107-.664 5.642 3.211-2.766-4.872 1.328-.775 4.204 7.197-1.217.665-5.642-3.211 2.765 4.761-1.217.886zM88.947 116.817l-1.327.553c-.222-.553-.996-.886-1.881-.553-.775.332-1.106.996-.885 1.55.221.553.774.664 1.549.553l1.106-.11c1.77-.222 2.544.664 2.766 1.328.553 1.329-.222 2.769-1.66 3.322-1.438.554-2.876.222-3.43-1.218l1.328-.553c.222.664.885.885 1.66.553.664-.221.995-.886.774-1.55-.11-.221-.332-.664-1.327-.554l-.996.111c-1.328.111-2.545-.111-2.987-1.329-.553-1.439.221-2.768 1.66-3.432 1.548-.554 3.097.111 3.65 1.329zM73.57 122.131c.11.997-.664 1.883-1.66 1.993-.996.111-1.992-.553-2.102-1.55-.11-.996.664-1.882 1.66-1.993.995-.221 1.99.443 2.101 1.55zM51.333 118.588l-.221 5.647 2.987-4.207 1.217.221 1.438 4.983 1.549-5.426 1.438.222-2.324 8.083-1.216-.222-1.77-6.09-3.54 5.204-1.218-.221.332-8.415 1.328.221zM47.792 122.021c-.774 2.214-3.208 3.432-5.42 2.547-2.213-.776-3.32-3.212-2.545-5.426.774-2.215 3.208-3.433 5.42-2.547 2.214.775 3.32 3.211 2.545 5.426zm-6.638-2.325c-.553 1.55.111 3.1 1.66 3.654 1.438.553 2.987-.333 3.54-1.772.553-1.44-.11-3.1-1.549-3.654-1.548-.554-3.097.221-3.65 1.772zM33.632 113.827c.553-.997 1.88-1.661 3.319-.886l3.098 1.661-3.983 7.308-2.877-1.55c-1.327-.664-1.659-1.882-1.106-2.99.332-.553.885-1.107 1.77-.996-.663-.665-.663-1.772-.221-2.547zm1.88 6.311l.996-1.771-1.548-.775c-.554-.332-.996-.111-1.328.443-.221.553-.221 1.107.332 1.328l1.549.775zm-.663-5.425c-.332.553-.221 1.218.553 1.661l1.549.886 1.106-2.104-1.549-.886c-.663-.443-1.327-.111-1.66.443zM28.985 117.813l-1.216-.775 4.646-6.865 1.217.775-4.646 6.865zM25.555 115.488l-1.106-.886 4.315-5.426-2.545-1.993.775-.996 3.65 2.989-5.088 6.312zM21.683 102.533l.886-.886 3.65 3.654-5.863 5.868-3.65-3.654.884-.885 2.545 2.546 1.548-1.55-2.212-2.214.995-.997 2.213 2.215 1.66-1.44-2.655-2.657zM14.272 95.225c-.886.554-1.992.11-2.434-.775-.553-.886-.332-1.993.553-2.547.885-.553 1.991-.11 2.544.664.443.997.222 2.104-.663 2.658zM2.987 83.488l-.443-1.44 7.966-2.436.442 1.44-7.965 2.436zM1.88 79.502l-.331-1.44 6.859-1.439-.664-3.211 1.328-.222.885 4.54-8.076 1.772zM.553 72.969l-.11-1.44 6.97-.775-.333-3.21 1.328-.111.442 4.65-8.297.886zM5.42 66.657L0 66.547v-1.44l5.31.11c1.217 0 1.77-.774 1.77-1.66 0-.886-.442-1.66-1.66-1.66l-5.31-.112v-1.44h5.422c1.88 0 2.987 1.551 2.987 3.212-.111 1.66-1.217 3.1-3.098 3.1zM6.085 58.685l.22-1.44c.665.111 1.328-.442 1.439-1.328.11-.886-.332-1.44-.885-1.55-.553-.111-.996.332-1.328.996l-.442.997c-.664 1.771-1.77 1.882-2.545 1.771-1.438-.221-2.212-1.66-1.991-3.1.221-1.55 1.328-2.547 2.876-2.325l-.22 1.44c-.665-.111-1.218.331-1.328 1.106-.111.665.22 1.33.885 1.44.22 0 .774 0 1.106-.886l.442-.996c.554-1.218 1.328-2.104 2.656-1.994 1.548.222 2.323 1.661 2.102 3.212-.222 1.882-1.55 2.879-2.987 2.657zM4.314 45.066l-.663 2.325 6.748 1.772-.332 1.439L3.32 48.83l-.664 2.326-1.217-.332 1.549-5.98 1.327.222zM9.403 42.63l-.331.664 2.765 1.107-.553 1.33L3.54 42.63l1.217-2.99c.664-1.772 2.213-1.993 3.43-1.44 1.106.444 1.88 1.44 1.659 2.88l3.65-.886-.663 1.66-3.43.776zm-1.438.221l.553-1.328c.443-.997 0-1.55-.663-1.883-.664-.332-1.439-.11-1.77.664l-.664 1.55 2.544.997zM14.714 34.214l-1.66 2.88 1.439 1.66-.775 1.329-5.642-6.865.775-1.329 8.74 1.44-.775 1.328-2.102-.443zm-1.328-.221l-3.54-.664 2.323 2.657 1.217-1.993zM15.267 24.692l-1.438 1.882 5.642 4.097-.885 1.218-5.642-4.097-1.438 1.883-1.107-.775 3.651-4.983 1.217.775zM15.488 22.588l.996-1.107 6.195 5.536-.995 1.108-6.196-5.537zM20.688 22.699c-1.549-1.772-1.549-4.43.221-5.98 1.77-1.55 4.426-1.439 5.974.333 1.55 1.771 1.439 4.429-.22 5.98-1.77 1.66-4.426 1.439-5.975-.333zm5.2-4.65c-1.107-1.219-2.766-1.33-3.983-.333-1.217 1.107-1.106 2.768-.11 3.986.995 1.218 2.765 1.33 3.982.332 1.106-1.107 1.106-2.768.11-3.986zM31.309 9.08l4.536 6.975-1.107.776-5.863-2.88 3.098 4.651-1.217.775-4.536-6.976 1.106-.775 5.753 2.88-3.098-4.651 1.328-.775zM36.066 13.176l1.327-.664c.332.554 1.107.886 1.881.443.774-.332.996-.997.774-1.661-.22-.554-.885-.664-1.548-.443l-1.107.222c-1.77.332-2.544-.443-2.876-1.108-.664-1.328.11-2.768 1.438-3.432 1.328-.665 2.877-.332 3.54 1.107l-1.327.664c-.332-.664-.996-.885-1.66-.553-.664.332-.995.996-.664 1.55.111.221.332.664 1.328.443l.996-.222c1.327-.221 2.544 0 3.097 1.108.664 1.328 0 2.768-1.548 3.543-1.439.775-2.987.221-3.651-.997zM51.111 7.086c-.221-.996.553-1.882 1.55-2.103.995-.222 1.99.443 2.212 1.44.221.996-.553 1.992-1.55 2.103-.995.11-1.99-.443-2.212-1.44z" fill="#fff"/></svg>