<svg width="51" height="51" viewBox="0 0 51 51" fill="none" xmlns="http://www.w3.org/2000/svg">
<path fill-rule="evenodd" clip-rule="evenodd" d="M42.7049 11.5601C42.2479 12.1827 38.6153 16.873 30.6 20.1685C31.1045 21.2082 31.5879 22.2662 32.0382 23.3308C32.1977 23.708 32.3533 24.0835 32.5053 24.4576C39.7182 23.5438 46.8853 25.0078 47.6 25.1601C47.5524 20.0074 45.7242 15.2754 42.7049 11.5601ZM20.4 4.01659C21.0076 4.83748 24.9993 10.3227 28.601 16.9999C36.416 14.0436 39.7246 9.55639 40.12 8.98839C36.2387 5.51367 31.135 3.3999 25.5502 3.3999C23.777 3.3999 22.0526 3.61448 20.4 4.01659ZM4.08002 21.078C5.06678 21.0906 14.158 21.1288 24.48 18.4752C20.8236 12.1826 16.8806 6.8922 16.2984 6.12012C10.1253 8.93921 5.51082 14.4489 4.08002 21.078ZM9.07337 40.1198C9.57307 39.2736 15.6295 29.3592 27.0107 25.7222C27.2987 25.63 27.5885 25.544 27.88 25.4628C27.3265 24.2233 26.7227 22.9824 26.0912 21.7598C15.071 25.0207 4.37698 24.8845 3.41169 24.865C3.40451 25.0863 3.40002 25.3085 3.40002 25.5315C3.40002 31.1353 5.54861 36.2517 9.07337 40.1198ZM34 45.8582C33.6777 43.9357 32.4196 37.2352 29.3785 29.2402C29.3305 29.2567 29.2829 29.2723 29.2354 29.2892C17.0161 33.5961 12.6297 42.1678 12.24 42.974C15.913 45.8715 20.5292 47.6002 25.5373 47.6002C28.5383 47.6002 31.3988 46.9789 34 45.8582ZM46.92 29.142C46.1731 28.9105 40.1622 27.1494 33.32 28.225C36.1759 35.9352 37.3378 42.2144 37.5615 43.5199C42.4598 40.2658 45.9467 35.1107 46.92 29.142ZM25.4998 51C11.4392 51 0 39.5608 0 25.4998C0 11.4392 11.4392 0 25.4998 0C39.5608 0 51 11.4392 51 25.4998C51 39.5608 39.5608 51 25.4998 51Z" fill="#EA4C89"/>
</svg>
