<svg width="49" height="49" viewBox="0 0 49 49" fill="none" xmlns="http://www.w3.org/2000/svg">
<path fill-rule="evenodd" clip-rule="evenodd" d="M40.6024 11.4652C40.174 12.0489 36.7682 16.4463 29.2534 19.536C29.7264 20.5109 30.1796 21.5028 30.6019 22.5009C30.7514 22.8546 30.8972 23.2066 31.0398 23.5573C37.8022 22.7006 44.5217 24.0732 45.1918 24.2159C45.1472 19.385 43.4332 14.9485 40.6024 11.4652ZM19.6911 4.39287C20.2607 5.16251 24.0032 10.3052 27.38 16.5654C34.707 13.7937 37.809 9.58674 38.1797 9.05421C34.5407 5.79647 29.7557 3.8147 24.5196 3.8147C22.8572 3.8147 21.2404 4.01588 19.6911 4.39287ZM4.38989 20.3888C5.31504 20.4006 13.8386 20.4364 23.516 17.9485C20.0879 12.0489 16.3911 7.08886 15.8453 6.36499C10.0577 9.00804 5.73135 14.1736 4.38989 20.3888ZM9.07176 38.2414C9.54025 37.4481 15.2185 28.1528 25.889 24.743C26.159 24.6565 26.4307 24.5758 26.704 24.4998C26.1851 23.3376 25.619 22.1743 25.0269 21.028C14.6949 24.0852 4.66864 23.9576 3.76362 23.9393C3.75689 24.1468 3.75269 24.3551 3.75269 24.5642C3.75269 29.8181 5.7671 34.615 9.07176 38.2414ZM32.4416 43.6216C32.1394 41.8192 30.9599 35.5371 28.1087 28.0414C28.0637 28.0568 28.0192 28.0714 27.9746 28.0873C16.5183 32.1252 12.4058 40.1617 12.0405 40.9176C15.4841 43.6341 19.812 45.2549 24.5074 45.2549C27.321 45.2549 30.0029 44.6723 32.4416 43.6216ZM44.5549 27.9493C43.8547 27.7322 38.2191 26.0811 31.8042 27.0896C34.4818 34.3183 35.5711 40.2054 35.7808 41.4293C40.3732 38.3785 43.6424 33.5453 44.5549 27.9493ZM24.4719 48.4423C11.2893 48.4423 0.564453 37.7175 0.564453 24.5345C0.564453 11.3519 11.2893 0.627075 24.4719 0.627075C37.6548 0.627075 48.3797 11.3519 48.3797 24.5345C48.3797 37.7175 37.6548 48.4423 24.4719 48.4423Z" fill="url(#paint0_linear)"/>
<defs>
<linearGradient id="paint0_linear" x1="10.5" y1="45.9999" x2="41.5" y2="12" gradientUnits="userSpaceOnUse">
<stop offset="0.015625" stop-color="#F78C91"/>
<stop offset="0.503925" stop-color="#F5C3BB"/>
<stop offset="0.984375" stop-color="#F5E3DC"/>
</linearGradient>
</defs>
</svg>
