<svg width="51" height="51" fill="none" xmlns="http://www.w3.org/2000/svg"><path fill-rule="evenodd" clip-rule="evenodd" d="M42.705 11.56c-.457.623-4.09 5.313-12.105 8.609a67.457 67.457 0 011.905 4.289c7.213-.914 14.38.55 15.095.702a21.822 21.822 0 00-4.895-13.6zM20.4 4.017c.608.82 4.6 6.306 8.201 12.983 7.815-2.956 11.124-7.444 11.519-8.012C36.239 5.514 31.135 3.4 25.55 3.4c-1.773 0-3.497.214-5.15.617zM4.08 21.078c.987.013 10.078.05 20.4-2.603-3.656-6.292-7.6-11.583-8.182-12.355C10.125 8.94 5.511 14.45 4.08 21.078zM9.073 40.12c.5-.846 6.556-10.76 17.938-14.398.288-.092.578-.178.869-.26a72.673 72.673 0 00-1.789-3.702c-11.02 3.26-21.714 3.124-22.68 3.105-.006.221-.011.444-.011.667 0 5.603 2.149 10.72 5.673 14.588zM34 45.858c-.322-1.922-1.58-8.623-4.622-16.618-.047.017-.095.032-.143.05C17.016 33.595 12.63 42.167 12.24 42.973A21.399 21.399 0 0025.537 47.6c3.001 0 5.862-.621 8.463-1.742zm12.92-16.716c-.747-.232-6.758-1.993-13.6-.917 2.856 7.71 4.018 13.99 4.242 15.295 4.898-3.254 8.385-8.41 9.358-14.378zM25.5 51C11.44 51 0 39.56 0 25.5S11.44 0 25.5 0 51 11.44 51 25.5 39.56 51 25.5 51z" fill="#EA4C89"/></svg>