<svg width="47" height="52" viewBox="0 0 47 52" fill="none" xmlns="http://www.w3.org/2000/svg">
<path d="M1.46106 13.2136L22.8139 1.52344L23.3801 8.71737L1.46106 13.2136Z" fill="#575582"/>
<path d="M45.2991 12.4829L22.6495 1.52344L23.2943 8.4696L45.2991 12.4829Z" fill="#827CA9"/>
<path d="M24.8416 51.2069L38.0043 34.4023L45.2993 37.7633L24.8416 51.2069Z" fill="#302C58"/>
<path d="M24.8413 51.2069L11.1892 34.4023L1.46106 37.3825L24.8413 51.2069Z" fill="#302F51"/>
<path d="M45.2993 12.4834V37.3249L37.993 33.9153L45.2993 12.4834Z" fill="#353457"/>
<path d="M1.46106 13.9443V37.3246L10.9593 34.4714L1.46106 13.9443Z" fill="#282747"/>
<path d="M45.299 13.0382L37.9661 34.4023L23.38 8.83008L45.299 13.0382Z" fill="#47467E"/>
<path d="M1.46106 12.947L11.086 34.4023L23.3801 8.83008L1.46106 12.947Z" fill="#3D396B"/>
<path d="M24.517 51.2069L37.9931 34.4023L10.9597 34.9625L24.517 51.2069Z" fill="#4F4E8A"/>
<path d="M23.2992 8.83008L10.9597 34.4023L37.9931 33.8481L23.2992 8.83008Z" fill="#3C3A69"/>
<path d="M10.9597 35.1331L23.2907 8.09961L37.9931 34.5614L10.9597 35.1331ZM23.2907 8.998L11.592 34.7247L37.2817 34.153L23.2907 8.998Z" fill="white"/>
<path d="M1.62047 13.2136L1.46106 12.8132L22.7424 1.52344L23.3801 9.04997L1.62047 13.2136ZM22.4236 2.16399L2.89575 12.573L22.9815 8.72969L22.4236 2.16399Z" fill="white"/>
<path d="M45.1391 13.2137L23.2097 8.76576L22.6495 0.792969L45.2991 12.7102L45.1391 13.2137ZM23.6099 8.43007L43.7785 12.4584L23.1297 1.54829L23.6099 8.43007Z" fill="white"/>
<path d="M24.3518 51.2071L24.111 50.8824L37.5946 33.6719L45.2994 37.4874L24.3518 51.2071ZM37.6748 34.2401L25.1544 50.1517L44.4166 37.5686L37.6748 34.2401Z" fill="white"/>
<path d="M24.5954 51.2069L0.730499 37.4724L11.1458 34.4023L11.2278 34.4831L24.8414 50.8838L24.5954 51.2069ZM1.71462 37.634L23.7753 50.3182L10.9817 34.9679L1.71462 37.634Z" fill="white"/>
<path d="M45.2994 38.0556L37.2624 34.3554L44.8894 12.4834L45.2994 12.5656V38.0556ZM37.8365 34.1088L44.8894 37.3978V13.799L37.8365 34.1088Z" fill="white"/>
<path d="M1.46106 38.0553V14.0247L1.84099 13.9443L10.9593 35.0012L1.46106 38.0553ZM1.91697 14.9088V37.4927L10.5034 34.7601L1.91697 14.9088Z" fill="white"/>
<path d="M37.6953 34.4024L22.6495 8.09961L45.2991 12.4699L37.6953 34.4024ZM23.4584 8.66613L37.6144 33.4312L44.8138 12.7127L23.4584 8.66613Z" fill="white"/>
<path d="M11.1243 35.1331L1.46106 12.4152L23.3801 8.09961L11.1243 35.1331ZM2.08956 12.7409L11.1243 34.1559L22.673 8.66959L2.08956 12.7409Z" fill="white"/>
<path d="M46.0297 12.8487C46.0297 13.0575 45.7166 13.214 45.2991 13.214C44.8816 13.214 44.5685 13.0575 44.5685 12.8487C44.5685 12.64 44.8816 12.4834 45.2991 12.4834C45.6122 12.4834 46.0297 12.64 46.0297 12.8487Z" fill="white"/>
<path d="M45.2992 13.9445C44.4874 13.9445 43.8379 13.2951 43.8379 12.4832C43.8379 11.6714 44.4874 11.022 45.2992 11.022C46.111 11.022 46.7604 11.6714 46.7604 12.4832C46.7604 13.2951 46.111 13.9445 45.2992 13.9445ZM45.2992 12.3209C45.1368 12.3209 45.0556 12.4021 45.0556 12.5644C45.0556 12.7268 45.1368 12.808 45.2992 12.808C45.4615 12.808 45.5427 12.7268 45.5427 12.5644C45.5427 12.4021 45.4615 12.3209 45.2992 12.3209Z" fill="white"/>
<path d="M38.7237 34.0412C38.7237 34.2477 38.4106 34.4025 37.9931 34.4025C37.5756 34.4025 37.2624 34.2477 37.2624 34.0412C37.2624 33.8347 37.5756 33.6799 37.9931 33.6799C38.3062 33.6283 38.7237 33.8347 38.7237 34.0412Z" fill="white"/>
<path d="M37.9927 35.1325C37.1809 35.1325 36.5314 34.483 36.5314 33.6712C36.5314 32.8594 37.1809 32.21 37.9927 32.21C38.8045 32.21 39.454 32.8594 39.454 33.6712C39.454 34.483 38.8045 35.1325 37.9927 35.1325ZM37.9927 33.5089C37.8303 33.5089 37.7492 33.59 37.7492 33.7524C37.7492 33.9148 37.8303 33.996 37.9927 33.996C38.1551 33.996 38.2362 33.9148 38.2362 33.7524C38.2362 33.59 38.1551 33.5089 37.9927 33.5089Z" fill="white"/>
<path d="M46.0297 37.3244C46.0297 37.7419 45.7166 38.055 45.2991 38.055C44.8816 38.055 44.5685 37.7419 44.5685 37.3244C44.5685 36.9069 44.8816 36.5938 45.2991 36.5938C45.6122 36.5938 46.0297 36.9069 46.0297 37.3244Z" fill="white"/>
<path d="M45.2992 38.7858C44.4874 38.7858 43.8379 38.1364 43.8379 37.3246C43.8379 36.5127 44.4874 35.8633 45.2992 35.8633C46.111 35.8633 46.7604 36.5127 46.7604 37.3246C46.7604 38.1364 46.111 38.7858 45.2992 38.7858ZM45.2992 37.081C45.1368 37.081 45.0556 37.1622 45.0556 37.3246C45.0556 37.4869 45.1368 37.5681 45.2992 37.5681C45.4615 37.5681 45.5427 37.4869 45.5427 37.3246C45.5427 37.1622 45.4615 37.081 45.2992 37.081Z" fill="white"/>
<path d="M24.8417 50.4843C24.8417 50.8972 24.6851 51.2069 24.4764 51.2069C24.2676 51.2069 24.111 50.8972 24.111 50.4843C24.111 50.0713 24.2676 49.7616 24.4764 49.7616C24.6851 49.6584 24.8417 50.0713 24.8417 50.4843Z" fill="white"/>
<path d="M24.476 51.9372C23.8671 51.9372 23.38 51.2877 23.38 50.4759C23.38 49.6641 23.8671 49.0146 24.476 49.0146C25.0848 49.0146 25.5719 49.6641 25.5719 50.4759C25.5111 51.2877 25.0848 51.9372 24.476 51.9372ZM24.476 50.3135C24.3542 50.3135 24.2933 50.3947 24.2933 50.5571C24.2933 50.7195 24.3542 50.8006 24.476 50.8006C24.5978 50.8006 24.6586 50.7195 24.6586 50.5571C24.6586 50.3947 24.5369 50.3135 24.476 50.3135Z" fill="white"/>
<path d="M11.6899 34.7677C11.6899 34.9764 11.3768 35.133 10.9593 35.133C10.5418 35.133 10.2287 34.9764 10.2287 34.7677C10.2287 34.5589 10.5418 34.4023 10.9593 34.4023C11.2724 34.4023 11.6899 34.5589 11.6899 34.7677Z" fill="white"/>
<path d="M10.9594 35.8639C10.1475 35.8639 9.49809 35.2145 9.49809 34.4027C9.49809 33.5909 10.1475 32.9414 10.9594 32.9414C11.7712 32.9414 12.4206 33.5909 12.4206 34.4027C12.4206 35.2145 11.7712 35.8639 10.9594 35.8639ZM10.9594 34.1591C10.797 34.1591 10.7158 34.2403 10.7158 34.4027C10.7158 34.565 10.797 34.6462 10.9594 34.6462C11.1217 34.6462 11.2029 34.565 11.2029 34.4027C11.2029 34.3215 11.1217 34.1591 10.9594 34.1591Z" fill="white"/>
<path d="M2.19177 12.8487C2.19177 13.0575 1.87864 13.214 1.46113 13.214C1.04363 13.214 0.730499 13.0575 0.730499 12.8487C0.730499 12.64 1.04363 12.4834 1.46113 12.4834C1.87864 12.4834 2.19177 12.64 2.19177 12.8487Z" fill="white"/>
<path d="M1.46121 13.9445C0.649391 13.9445 -6.10352e-05 13.2951 -6.10352e-05 12.4832C-6.10352e-05 11.6714 0.649391 11.022 1.46121 11.022C2.27302 11.022 2.92247 11.6714 2.92247 12.4832C2.92247 13.2951 2.27302 13.9445 1.46121 13.9445ZM1.46121 12.2397C1.29884 12.2397 1.21766 12.3209 1.21766 12.4832C1.21766 12.6456 1.29884 12.7268 1.46121 12.7268C1.62357 12.7268 1.70475 12.6456 1.70475 12.4832C1.70475 12.3209 1.62357 12.2397 1.46121 12.2397Z" fill="white"/>
<path d="M24.1108 8.46493C24.1108 8.67368 23.7976 8.83024 23.3801 8.83024C22.9626 8.83024 22.6495 8.67368 22.6495 8.46493C22.6495 8.25617 22.9626 8.09961 23.3801 8.09961C23.7976 8.09961 24.1108 8.25617 24.1108 8.46493Z" fill="white"/>
<path d="M23.3802 10.2917C22.5684 10.2917 21.9189 9.64222 21.9189 8.83041C21.9189 8.01859 22.5684 7.36914 23.3802 7.36914C24.192 7.36914 24.8415 8.01859 24.8415 8.83041C24.8415 9.64222 24.192 10.2917 23.3802 10.2917ZM23.3802 8.58686C23.2178 8.58686 23.1366 8.66805 23.1366 8.83041C23.1366 8.99277 23.2178 9.07395 23.3802 9.07395C23.5426 9.07395 23.6237 8.99277 23.6237 8.83041C23.6237 8.74923 23.4614 8.58686 23.3802 8.58686Z" fill="white"/>
<path d="M23.3802 1.53162C23.3802 1.94455 23.0671 2.25424 22.6496 2.25424C22.2321 2.25424 21.9189 1.94455 21.9189 1.53162C21.9189 1.1187 22.2321 0.809013 22.6496 0.809013C23.0671 0.705782 23.3802 1.1187 23.3802 1.53162Z" fill="white"/>
<path d="M22.6496 2.98504C21.8378 2.98504 21.1884 2.33558 21.1884 1.52377C21.1884 0.711952 21.8378 0.0625 22.6496 0.0625C23.4614 0.0625 24.1109 0.711952 24.1109 1.52377C24.0297 2.33558 23.4614 2.98504 22.6496 2.98504ZM22.6496 1.28022C22.4873 1.28022 22.4061 1.3614 22.4061 1.52377C22.4061 1.60495 22.4873 1.76731 22.6496 1.76731C22.812 1.76731 22.8932 1.68613 22.8932 1.52377C22.8932 1.3614 22.7308 1.28022 22.6496 1.28022Z" fill="white"/>
<path d="M2.19169 37.3244C2.19169 37.7419 2.03513 38.055 1.82637 38.055C1.61762 38.055 1.46106 37.7419 1.46106 37.3244C1.46106 36.9069 1.61762 36.5938 1.82637 36.5938C2.03513 36.5938 2.19169 36.9069 2.19169 37.3244Z" fill="white"/>
<path d="M1.46121 38.7858C0.649391 38.7858 -6.10352e-05 38.1364 -6.10352e-05 37.3245C-6.10352e-05 36.5127 0.649391 35.8633 1.46121 35.8633C2.27302 35.8633 2.92247 36.5127 2.92247 37.3245C2.92247 38.1364 2.27302 38.7858 1.46121 38.7858ZM1.46121 37.081C1.29884 37.081 1.21766 37.1622 1.21766 37.3245C1.21766 37.4869 1.29884 37.5681 1.46121 37.5681C1.62357 37.5681 1.70475 37.4869 1.70475 37.3245C1.70475 37.2434 1.62357 37.081 1.46121 37.081Z" fill="white"/>
<path d="M24.5086 51.9376L10.6448 34.9524L0.730499 12.3864L23.2995 8.09961H23.3801L46.0298 12.4672L38.3724 34.3862L38.2918 34.4671L24.5086 51.9376ZM11.5314 34.4671L24.5086 50.32L37.4858 33.901L44.6595 13.2761L23.2995 9.15107L2.18137 13.1952L11.5314 34.4671Z" fill="white"/>
<path d="M27.1262 22.1987C26.8074 22.838 26.5683 23.3974 26.3292 23.9568C26.09 24.5162 25.7712 25.0756 25.5321 25.555C25.2133 26.1943 24.8945 26.7537 24.6553 27.3131C24.3365 27.8725 24.0974 28.5118 23.7786 29.0712H23.2206L21.3874 25.4751L19.7933 22.1987V30.7494H18.9962V20.5205H19.7136C20.1121 21.3196 20.4309 22.0389 20.8295 22.838C21.228 23.6371 21.5468 24.3563 21.9453 25.1555C22.1845 25.6349 22.4236 26.1943 22.6627 26.6738C22.9018 27.1533 23.1409 27.7127 23.38 28.1922L23.938 27.1533L24.8945 25.1555C25.293 24.3563 25.6118 23.6371 26.0103 22.838C26.4089 22.0389 26.7277 21.3196 27.1262 20.5205H27.7639V30.7494H27.0465V22.1987H27.1262Z" fill="white"/>
</svg>
