<svg width="60" height="42" viewBox="0 0 60 42" fill="none" xmlns="http://www.w3.org/2000/svg">
<path fill-rule="evenodd" clip-rule="evenodd" d="M19.9337 25.2083V31.7553C19.4697 31.117 19.1415 30.4693 18.9565 29.8244C18.4473 28.0467 18.748 26.5965 19.9337 25.2083ZM19.1728 15.4486C19.4442 15.6508 19.872 15.8903 19.8895 15.9019L19.9356 15.9276L19.9347 16.3152C19.7724 16.3924 19.6092 16.4846 19.4451 16.584C19.1756 16.3676 18.9162 16.1778 18.6551 16.0154C18.3178 15.8024 17.9725 15.6065 17.6283 15.429C17.643 15.3918 17.6592 15.3616 17.6817 15.3305C17.7785 15.1993 17.9802 14.864 18.1285 14.6139C18.4543 14.8782 18.9906 15.3128 19.1728 15.4486ZM14.2606 26.1131C14.798 26.7553 15.3536 27.4206 15.8739 28.1115C15.8872 28.1514 15.903 28.1894 15.9167 28.2278C14.0082 26.4014 12.2748 25.3218 10.741 25.0036C11.4569 24.8899 12.1859 24.7656 12.8777 24.544C13.1714 24.9183 13.4937 25.2669 13.7834 25.5802C13.9617 25.7743 14.1299 25.9552 14.2606 26.1131ZM13.0686 22.0054C13.2227 21.5973 13.7115 21.4519 14.0843 21.4519C14.4341 21.4519 14.7424 21.5769 14.8351 21.7534C14.9105 21.9007 14.8215 22.0959 14.7346 22.2334C14.412 22.7406 13.8026 23.1097 13.252 23.4076C12.9773 22.8675 12.9183 22.4055 13.0686 22.0054ZM15.3055 25.9543L13.7876 24.1785C14.4061 23.8716 14.9164 23.4752 15.3375 22.9759C15.1873 23.7821 15.1277 24.7872 15.3055 25.9543ZM17.749 18.0583C17.0602 18.8538 16.4709 19.8083 16.0085 20.8771C15.9897 20.8079 15.9648 20.7413 15.9327 20.6748C15.7314 20.2552 15.3174 19.9998 14.6963 19.9164C14.5418 19.8943 14.3885 19.8845 14.2407 19.8845C13.6872 19.8845 13.2703 20.0309 12.9616 20.2243C13.9066 19.0499 15.0943 17.9607 16.8176 17.9607C17.1161 17.9607 17.4284 17.9943 17.749 18.0583ZM16.6625 14.0489L16.5343 13.6984L17.0414 13.7305L17.4306 14.0178L16.8209 15.0495C16.6134 14.9704 16.3981 14.8934 16.1744 14.8179C16.4075 14.5838 16.5915 14.3806 16.6016 14.3673L16.7285 14.2281L16.6625 14.0489ZM45.0274 26.8635C45.242 26.6127 45.4567 26.3614 45.6659 26.1131C45.7955 25.9552 45.9657 25.7743 46.1429 25.5802C46.4326 25.2669 46.7562 24.9183 47.049 24.544C47.7013 24.7524 48.3894 24.8767 49.0672 24.9848C47.6128 25.2581 45.9777 26.2222 44.1828 27.8651C44.4619 27.5261 44.7464 27.1907 45.0274 26.8635ZM40.7561 29.8244C40.5721 30.4647 40.2485 31.1052 39.7903 31.7367V25.2216C40.9672 26.6061 41.2637 28.0504 40.7561 29.8244ZM42.2037 15.367C41.8154 15.5594 41.4405 15.7776 41.0848 16.0207C40.826 16.1945 40.5551 16.3835 40.2878 16.5981C40.1224 16.4943 39.9574 16.402 39.7903 16.3223V16.0038L39.9727 15.9019C39.9896 15.8903 40.4172 15.6508 40.6895 15.4486C40.8702 15.3128 41.4066 14.8782 41.7335 14.6139C41.8817 14.864 42.0827 15.1993 42.1799 15.3305C42.1883 15.3422 42.1968 15.3545 42.2037 15.367ZM45.6849 19.8845C45.5383 19.8845 45.3851 19.8943 45.2301 19.9164C44.6102 19.9998 44.1946 20.2552 43.9936 20.6748C43.9016 20.869 43.8677 21.0749 43.8677 21.2771C43.384 20.0478 42.74 18.955 41.9688 18.0644C42.2992 17.997 42.6209 17.9607 42.931 17.9607C44.5744 17.9607 45.7325 18.9532 46.6572 20.0647C46.3933 19.9554 46.073 19.8845 45.6849 19.8845ZM45.1926 22.2334C45.1058 22.0959 45.0154 21.9007 45.0921 21.7534C45.1841 21.5769 45.4906 21.4519 45.8416 21.4519C46.2145 21.4519 46.7049 21.5973 46.8567 22.0054C47.0082 22.4055 46.9487 22.8675 46.6743 23.4068C46.1413 23.1168 45.5127 22.7381 45.1926 22.2334ZM44.2951 22.5925C44.3122 22.6192 44.3308 22.6457 44.3478 22.6715C44.3821 22.7193 44.4109 22.7558 44.4398 22.7842C44.445 22.794 44.4501 22.8019 44.4551 22.809C44.8996 23.3882 45.4532 23.8388 46.1379 24.1785L44.3546 26.2656C44.6323 24.7727 44.5165 23.5292 44.2951 22.5925ZM43.3278 13.6984L43.1984 14.0489L43.1335 14.2281L43.2596 14.3673C43.2697 14.3798 43.4384 14.5651 43.6547 14.7868C43.4401 14.8525 43.2273 14.927 43.0177 15.0078L42.4317 14.0178L42.8202 13.7305L43.3278 13.6984ZM55.4438 25.5135C56.3804 25.2723 56.704 24.7347 56.7942 24.2646C56.8744 23.854 56.7687 23.4007 56.5183 23.084C56.3037 22.8109 56.0006 22.6592 55.6685 22.6592C54.8748 22.7043 54.3895 23.1007 54.3605 23.665C54.3605 24.1839 54.7234 24.5467 55.1694 24.5467C55.4301 24.5467 55.6615 24.4215 55.8097 24.23C55.7758 24.3472 55.7196 24.4004 55.6923 24.4261C55.3381 24.7666 54.7811 24.9404 54.0334 24.9404C53.5889 24.9404 53.0968 24.882 52.4854 24.7587C51.7191 24.5609 50.9713 24.4384 50.37 24.3418C49.9989 24.2815 49.7485 24.2469 49.5049 24.215C48.8236 24.1226 48.1748 24.0331 47.5464 23.8113C47.761 23.4353 47.8853 23.0867 47.9261 22.754C47.9875 22.4187 47.9926 22.0868 47.9432 21.7747C48.0131 21.8687 48.0811 21.9601 48.1492 22.0471C49.1592 23.3341 50.4723 24.0739 51.7497 24.0739C53.2535 24.0739 54.4252 23.0796 54.7335 21.5379C55.1729 19.3487 53.1412 16.1928 48.9803 14.7017C48.517 14.535 47.6298 14.3558 46.5415 14.3558C45.8925 14.3558 45.2437 14.4205 44.6118 14.5465L44.3546 14.2166C44.5047 14.0195 44.8229 13.6702 45.3901 13.317C46.3728 12.7024 47.4373 11.9174 47.8768 10.7501C48.0793 10.2108 48.1698 9.61911 48.2072 9.12687L48.3741 9.42667L48.4405 8.4322C48.4405 8.42778 48.4762 7.90981 48.5478 7.46539C48.604 7.10355 48.7419 6.49243 48.8492 6.16958C49.0213 6.10121 50.6715 5.46781 50.6715 5.46781L48.3979 5.20719C48.6228 4.90201 50.009 2.89829 50.009 2.89829C50.009 2.89829 49.0792 3.49789 48.1901 3.72586C48.0948 3.75063 47.9773 3.75236 47.8733 3.75236C47.6366 3.73392 47.3504 3.69033 46.9861 3.69033C46.6642 3.69033 46.3627 3.7249 46.0902 3.79327C45.4703 3.94672 45.1602 4.81059 44.91 5.50257C44.818 5.75705 44.6935 6.10294 44.622 6.18111C44.4348 6.29634 42.454 7.56122 41.279 9.1624C40.8361 9.66962 40.2468 10.445 39.7903 11.0615V10.9222C39.8517 10.6933 39.8908 10.4528 39.9214 10.2179C40.08 8.8722 39.8755 6.9163 39.8108 6.45959C39.7103 5.82273 39.3133 5.30552 39.024 4.96673C38.6459 4.53653 38.2662 4.23327 38.1161 4.11957C38.0837 4.09403 34.5772 1.60056 31.0279 1.12599L30.7093 1.08527C30.2662 1.02746 29.7918 1 29.3006 1C26.1588 1 23.1578 2.14331 23.123 2.15848C22.8528 2.27372 22.4332 2.53991 21.9649 2.89464C21.5113 3.2557 21.123 3.5653 20.934 3.98225C20.9204 4.01855 20.1155 6.1039 19.9308 7.60828C19.886 8.01717 19.8563 8.4491 20.0267 8.85895C20.1272 9.08519 20.2754 9.36732 20.4878 9.7282C20.7198 10.1042 20.9676 10.5053 21.1761 10.8158L20.2147 10.8963L19.9986 10.9115C19.484 10.1611 18.6333 9.00875 17.2267 7.76346C16.4241 6.98659 15.4662 6.31055 15.2396 6.17842C15.1661 6.10025 15.0425 5.75455 14.9516 5.50257C14.7023 4.81059 14.3922 3.94672 13.7723 3.79327C13.4995 3.7249 13.1971 3.69033 12.8748 3.69033C12.5103 3.69033 12.2247 3.73392 12.1258 3.75236C11.8845 3.75236 11.7665 3.7489 11.6719 3.72663C11.5609 3.69647 9.87696 2.91692 9.87696 2.91692C9.88451 2.92652 11.2395 4.90201 11.4634 5.20719L9.10791 5.54598C9.10791 5.54598 10.8413 6.10121 11.0103 6.16958C11.1176 6.48878 11.2561 7.10183 11.3147 7.46539C11.3843 7.90981 11.4208 8.42778 11.4208 8.4322L11.4875 9.42667L11.6551 9.12687C11.6933 9.61911 11.7814 10.2108 11.985 10.7501C12.4247 11.9174 13.4897 12.7024 14.4722 13.317C15.0387 13.6702 15.3567 14.0195 15.507 14.2166L15.2544 14.5429C15.1216 14.5056 15.0007 14.4754 14.8875 14.4489C14.3227 14.3425 13.7707 14.2874 13.2325 14.2874C12.3639 14.2874 11.5336 14.4259 10.7668 14.7017C8.93422 15.3581 7.33713 16.4394 6.26883 17.7433C5.24018 19.0028 4.78255 20.3858 5.01376 21.5379C5.32241 23.0796 6.49359 24.0739 7.99794 24.0739C9.27477 24.0739 10.5872 23.3341 11.598 22.0471C11.7499 21.852 11.9031 21.6434 12.0631 21.4235C11.94 21.8314 11.9151 22.2875 12.0016 22.754C12.0406 23.0867 12.1658 23.4353 12.3795 23.8113C11.7528 24.0331 11.1034 24.1226 10.4218 24.215C10.1797 24.2469 9.92784 24.2815 9.67635 24.3222C8.95506 24.4384 8.20685 24.5609 7.4402 24.7587C6.83728 24.8793 6.33152 24.9404 5.89418 24.9404C5.14523 24.9404 4.58711 24.7666 4.23328 24.4261C4.20766 24.4004 4.15142 24.3472 4.11657 24.23C4.26481 24.4224 4.49621 24.5467 4.75729 24.5467C5.18265 24.5467 5.53445 24.215 5.56377 23.7944L5.56635 23.6677C5.53777 23.1007 5.05193 22.7043 4.32769 22.6609C3.92445 22.6592 3.62317 22.8109 3.40634 23.084C3.15688 23.4007 3.05289 23.854 3.13217 24.2646C3.22325 24.7347 3.54555 25.2704 4.48367 25.5135C3.4281 25.854 2.43429 26.3472 1.72794 27.2105C1.07486 28.0077 0.818946 29.1476 1.13479 29.8619C1.33576 30.314 1.73605 30.5633 2.26448 30.5633C2.36497 30.5633 2.4684 30.5544 2.577 30.5366C3.01896 30.4647 3.4694 30.0595 3.45963 29.5006C3.44893 28.9233 2.9985 28.4725 2.43429 28.4725C2.31684 28.4725 2.2064 28.4912 2.10186 28.5275C2.19884 28.312 2.31795 28.1026 2.44019 27.934C2.80987 27.4295 3.29701 27.039 3.97515 26.71C4.05315 26.6718 4.13317 26.6357 4.21448 26.5982C4.062 26.8193 3.94547 27.0551 3.86489 27.3035C3.65673 27.9467 3.70817 28.5399 4.00797 28.9765C4.29026 29.3834 4.76079 29.6187 5.30029 29.6187C5.75534 29.6187 6.21057 29.4484 6.57878 29.1361C6.94975 28.8257 7.09356 28.5196 7.09356 28.0477C7.09356 27.3496 6.5218 26.758 5.84642 26.758C5.54072 26.758 5.26194 26.8804 5.05027 27.0836C5.12771 26.9753 5.21345 26.8769 5.30029 26.7934C5.75534 26.3499 6.38923 26.0067 7.26891 25.728C7.04802 26.0563 6.99824 26.3837 7.09965 26.671C7.31021 27.2672 7.94392 27.6077 8.83835 27.6077C8.90196 27.6077 8.96225 27.6058 9.02051 27.6025C9.66695 27.5677 10.1069 27.3893 10.4955 27.2307C10.8715 27.0809 11.1967 26.9495 11.6737 26.9495C11.9558 26.9495 12.2689 26.9941 12.6292 27.0897C13.9964 27.4491 16.1208 29.5069 17.1717 30.6794C15.9703 30.0435 14.8993 29.7153 13.9077 29.7153C13.7607 29.7153 13.614 29.7242 13.4709 29.7393C12.4666 29.843 11.7521 30.3841 11.5096 31.2276C11.2956 31.9772 11.517 32.7888 12.0617 33.2482C12.495 33.6146 13.1375 33.799 13.972 33.799C14.6605 33.799 15.4817 33.6678 16.224 33.4355C16.9691 33.2013 17.4898 33.1011 17.962 33.1011C18.5594 33.1011 19.124 33.2678 19.9337 33.6838V33.9932C19.5773 33.9473 19.2573 33.925 18.9779 33.925C18.8149 33.925 18.6612 33.9331 18.5236 33.9473C17.4511 34.0714 16.9947 34.49 16.801 34.82C16.5945 35.1713 16.5734 35.5953 16.7383 36.0468C16.9354 36.5808 17.4253 36.8771 18.1204 36.8771C18.5236 36.8771 18.9774 36.7732 19.3633 36.5923C19.8358 36.3741 20.1764 36.1363 20.4788 35.9278C20.7727 35.723 21.0135 35.5581 21.2947 35.4605L29.8388 40.8465L29.9933 40.9431L30.1456 40.8446L38.4449 35.4693C38.7156 35.5686 38.949 35.7292 39.2335 35.9278C39.5349 36.1363 39.8755 36.3724 40.349 36.5923C40.7354 36.7732 41.1885 36.8771 41.5923 36.8771C42.287 36.8771 42.7776 36.5808 42.9734 36.0468C43.1386 35.5953 43.1165 35.1713 42.9122 34.82C42.7179 34.49 42.2617 34.0714 41.187 33.9473C41.0505 33.9331 40.8973 33.925 40.7338 33.925C40.458 33.925 40.1414 33.9473 39.7903 33.9924V33.6776C40.5959 33.2651 41.1564 33.1011 41.7506 33.1011C42.2225 33.1011 42.7419 33.2013 43.4879 33.4355C44.2304 33.6678 45.0514 33.799 45.7393 33.799C46.5738 33.799 47.2177 33.6146 47.6502 33.2482C48.1952 32.7888 48.4183 31.9772 48.2019 31.2276C47.9602 30.3841 47.2466 29.843 46.2417 29.7393C46.0987 29.7242 45.9504 29.7153 45.8042 29.7153C44.813 29.7153 43.7434 30.0435 42.5035 30.7328C43.5917 29.5096 45.7155 27.4491 47.0831 27.0897C47.4441 26.9941 47.7557 26.9495 48.0385 26.9495C48.5155 26.9495 48.8406 27.0809 49.2171 27.2307C49.6054 27.3893 50.0449 27.5677 50.6919 27.6025C50.75 27.6058 50.8096 27.6077 50.8743 27.6077C51.7683 27.6077 52.4019 27.2672 52.613 26.671C52.7153 26.3837 52.6642 26.0563 52.4751 25.7751C52.4461 25.7317 52.4138 25.6891 52.3746 25.6439C53.4067 25.9376 54.1254 26.3056 54.6262 26.7934C54.7131 26.8769 54.7982 26.9753 54.8766 27.0836C54.6653 26.8823 54.386 26.758 54.0812 26.758C53.4032 26.758 52.8329 27.3496 52.8329 28.0477C52.8329 28.5196 52.9758 28.8257 53.3472 29.1361C53.7169 29.4484 54.1714 29.6187 54.6262 29.6187C55.1661 29.6187 55.6362 29.3844 55.9189 28.9765C56.2187 28.5399 56.2696 27.9467 56.0618 27.3035C55.982 27.0551 55.8643 26.8193 55.7111 26.5982C55.7928 26.6357 55.8728 26.6718 55.9512 26.71C56.629 27.039 57.1161 27.4295 57.4858 27.934C57.6084 28.1026 57.7277 28.312 57.8246 28.5275C57.7207 28.4912 57.6084 28.4725 57.4924 28.4725C56.9287 28.4725 56.4774 28.9233 56.4672 29.5006C56.4571 30.0595 56.9066 30.4666 57.3495 30.5366C57.4568 30.5544 57.5623 30.5633 57.6628 30.5633C58.1908 30.5633 58.5909 30.314 58.7902 29.8634C59.107 29.1476 58.8533 28.0077 58.1975 27.2105C57.4907 26.3472 56.498 25.854 55.4438 25.5135Z" fill="#FEFEFE" stroke="white" stroke-width="0.756818"/>
<path fill-rule="evenodd" clip-rule="evenodd" d="M23.8879 10.7646C25.1871 11.4234 28.4259 12.51 32.4465 12.6623C32.2646 12.3243 32.0378 11.8442 31.7724 10.5982C31.7724 10.5982 27.4195 9.43222 23.8879 10.7646Z" fill="#00161D"/>
<path fill-rule="evenodd" clip-rule="evenodd" d="M34.4478 11.5688L34.4719 11.5698L35.4155 12.6374L36.1145 12.6622C35.6389 12.2536 34.9943 11.8037 34.2805 11.394C34.3367 11.4503 34.3931 11.5096 34.4478 11.5688Z" fill="#00161D"/>
<path fill-rule="evenodd" clip-rule="evenodd" d="M57.7715 29.4512C57.5292 29.2672 57.613 28.9875 57.613 28.9875C57.613 28.9875 57.5821 29.1813 57.7597 29.3589C57.9031 29.506 58.0925 29.5238 58.1351 29.5071C58.1351 29.5071 57.9833 29.6146 57.7715 29.4512ZM57.6521 28.9327C57.6708 28.8856 57.717 28.8687 57.7493 28.8572C57.7512 28.8572 57.7526 28.8545 57.7526 28.8545H57.7597C57.7562 28.8545 57.7526 28.8572 57.7493 28.8572C57.717 28.8785 57.6948 28.9298 57.6845 29.001C57.676 29.0525 57.6896 29.1298 57.6896 29.1298C57.6896 29.1298 57.6215 29.0135 57.6521 28.9327ZM58.0361 29.0081C58.0361 29.0081 57.8962 28.9425 57.8467 28.9938C57.838 29.0017 57.8365 29.0115 57.833 29.0223C57.8722 28.9929 57.9406 29.0017 58.0038 29.0525C58.072 29.1075 58.0991 29.1884 58.067 29.2334C58.0635 29.2397 58.0583 29.2397 58.0514 29.2443C58.0991 29.2461 58.1333 29.214 58.1266 29.1163C58.118 29.0108 58.2307 29.2255 58.0769 29.2974C58.0259 29.3224 57.8757 29.2841 57.7783 29.1536C57.6793 29.0223 57.7443 28.9679 57.7937 28.9298C57.8415 28.8952 57.9594 28.921 58.0361 29.0081ZM54.1564 27.3664C54.1564 27.3664 54.1156 27.6301 54.3545 27.8724C54.5507 28.0704 54.805 28.0944 54.8649 28.0732C54.8649 28.0732 54.6583 28.2161 54.3698 27.9967C54.0405 27.7474 54.1564 27.3664 54.1564 27.3664ZM54.4005 27.2926C54.467 27.2422 54.6243 27.2784 54.7281 27.3958C54.7281 27.3958 54.5406 27.307 54.4739 27.3762C54.4604 27.3887 54.4535 27.4039 54.45 27.4189C54.5012 27.3753 54.6003 27.387 54.6838 27.4552C54.7778 27.5298 54.817 27.64 54.771 27.7011C54.7658 27.7084 54.7573 27.7109 54.7521 27.7155C54.8153 27.718 54.8613 27.6753 54.8512 27.544C54.841 27.3983 54.9946 27.6915 54.7847 27.7891C54.7163 27.8228 54.5099 27.7705 54.3802 27.5938C54.2469 27.4152 54.334 27.3406 54.4005 27.2926ZM46.8632 23.7778C46.2231 23.436 45.4276 23.0116 45.0181 22.3653C44.1406 20.9874 46.7453 20.6306 47.2062 21.8547C47.4418 22.4806 47.2437 23.1396 46.8632 23.7778ZM46.5354 20.4147C47.0578 20.6438 47.1515 20.8197 47.3325 21.1098C47.2932 21.0504 47.1465 20.8568 46.8 20.6554C46.7231 20.6829 46.5559 20.7246 46.3972 20.6517C46.1802 20.5541 46.1002 20.3988 46.1002 20.3988C46.1002 20.3988 46.1241 20.3988 46.1616 20.4014C45.8016 20.3295 45.5097 20.3713 45.5097 20.3713C45.5097 20.3713 45.9245 20.1458 46.5354 20.4147ZM43.6526 23.2336C43.5637 22.6698 43.383 21.838 43.0347 21.0523L42.6899 21.5031C43.1354 22.3795 43.2976 22.9975 43.3453 23.5862C43.3078 23.6286 43.2736 23.6723 43.2344 23.7184C43.1217 23.1998 42.9186 22.4693 42.5568 21.7519C42.55 21.7367 42.5415 21.7217 42.5328 21.7065L42.1795 22.1673C42.6302 22.9789 42.8111 23.5631 42.8913 24.1365C42.8625 24.1738 42.8333 24.2128 42.8007 24.2511C42.671 23.7815 42.4474 23.1306 42.0703 22.4647C42.0516 22.4345 42.0344 22.408 42.0191 22.3786L41.6623 22.8447C42.125 23.5994 42.3229 24.1552 42.4356 24.7278C42.4118 24.759 42.3896 24.7909 42.3656 24.8247C42.2189 24.3983 41.9713 23.808 41.5686 23.1777C41.5429 23.1396 41.5191 23.1013 41.4934 23.0633L41.1521 23.5089C41.6316 24.2138 41.8519 24.7455 42.0038 25.3209C41.9849 25.3476 41.9644 25.376 41.9458 25.4053C41.7837 25.0252 41.5139 24.4872 41.0821 23.8897C41.0462 23.8401 41.0087 23.7913 40.9729 23.7432L40.6399 24.1765C41.1382 24.8282 41.3859 25.3405 41.5838 25.9272C41.5686 25.9512 41.5516 25.9743 41.5344 26.001C41.3587 25.6636 41.0651 25.1753 40.5939 24.6017C40.2646 24.1996 39.913 23.8578 39.5936 23.5798L39.6005 23.2486C39.8446 23.398 40.104 23.5915 40.3481 23.8391L40.6913 23.3909C40.4557 23.1085 40.2202 22.8616 40.0066 22.6565L40.1552 22.4806C40.391 22.6548 40.6417 22.8749 40.8772 23.1511L41.2323 22.685C41.0207 22.3928 40.8125 22.1388 40.6212 21.9241L40.7578 21.7607C40.9712 21.9506 41.1929 22.1842 41.4029 22.4629L41.775 21.9764C41.5873 21.679 41.4012 21.418 41.2305 21.1952L41.3587 21.0443C41.5479 21.2467 41.746 21.4872 41.9337 21.7688L42.3092 21.2823C42.1403 20.9795 41.9781 20.7148 41.8262 20.4858L41.9441 20.3438C42.1148 20.5577 42.2906 20.8028 42.4596 21.0852L42.8264 20.6075C42.6779 20.3028 42.5363 20.0339 42.4031 19.7969L42.516 19.6629C42.7274 19.9745 42.9493 20.3438 43.1507 20.77C43.1559 20.7788 43.1594 20.7886 43.1644 20.7982L43.2054 20.8311L43.1882 20.8507C43.6373 21.8167 43.772 22.4745 43.784 23.0933C43.7498 23.1288 43.7073 23.1759 43.6526 23.2336ZM43.738 23.9243C43.738 23.9243 43.7276 23.7557 43.6901 23.4883C43.7226 23.452 43.7516 23.4191 43.7788 23.3882C43.772 23.5648 43.7566 23.7415 43.738 23.9243ZM43.3573 24.4349C43.3573 24.4349 43.3386 24.2565 43.2858 23.9633C43.3111 23.9331 43.3351 23.9039 43.3608 23.8737C43.3658 24.0575 43.3623 24.2422 43.3573 24.4349ZM42.8639 24.4891C42.8846 24.4641 42.9033 24.4366 42.9238 24.4128C42.9408 24.5875 42.9512 24.7634 42.9597 24.9489C42.9597 24.9489 42.934 24.774 42.8639 24.4891ZM42.4406 25.0519C42.4559 25.0316 42.4698 25.011 42.4835 24.9916C42.5073 25.1442 42.5295 25.2978 42.5481 25.4602C42.5481 25.4602 42.5175 25.3066 42.4406 25.0519ZM42.0328 25.6192C42.0431 25.604 42.055 25.589 42.0651 25.5721C42.0941 25.7026 42.1233 25.8359 42.1507 25.9743C42.1507 25.9743 42.1182 25.843 42.0328 25.6192ZM41.6351 26.2024C41.6436 26.1909 41.6523 26.1767 41.659 26.1661C41.693 26.2691 41.7222 26.3756 41.7545 26.4866C41.7545 26.4866 41.7205 26.3828 41.6351 26.2024ZM41.0991 29.8806C40.8175 30.8618 40.2578 31.7549 39.5561 32.555V24.4339C40.8278 25.6778 41.828 27.3372 41.0991 29.8806ZM39.8259 22.2588L39.7165 22.3876C39.6842 22.3591 39.6519 22.3307 39.621 22.304L39.6245 22.1442C39.6877 22.1788 39.7542 22.2161 39.8259 22.2588ZM39.7422 21.0656C39.7422 21.0656 39.8429 21.1098 40 21.2032L39.9606 21.2528C39.8224 21.1304 39.7422 21.0656 39.7422 21.0656ZM40.454 21.5102L40.3498 21.6329C40.2611 21.5406 40.1792 21.4589 40.104 21.3888L40.1672 21.307C40.2542 21.3639 40.3498 21.4305 40.454 21.5102ZM40.3465 20.2034C40.3465 20.2034 40.4523 20.2621 40.6196 20.3872L40.5835 20.4353C40.4353 20.2825 40.3465 20.2034 40.3465 20.2034ZM41.0769 20.7646L40.9797 20.8799C40.8857 20.7646 40.7971 20.666 40.7186 20.5808L40.7764 20.5052C40.867 20.5791 40.9694 20.666 41.0769 20.7646ZM40.937 19.3388C40.937 19.3388 41.0514 19.4213 41.2323 19.582L41.1965 19.6291C41.0344 19.4347 40.937 19.3388 40.937 19.3388ZM39.5561 14.7087C40.0495 14.4378 40.3875 14.2471 40.3875 14.2471L39.8906 15.5885C39.8906 15.5885 40.3191 15.348 40.5785 15.1545C40.8396 14.9609 41.8759 14.1156 41.8759 14.1156C41.8759 14.1156 42.3299 14.8996 42.4783 15.1012C42.5603 15.2121 42.6028 15.3382 42.637 15.4847C42.1948 15.6871 41.7495 15.9347 41.3057 16.234C40.9932 16.4472 40.6743 16.67 40.3686 16.9272C40.0988 16.7471 39.8259 16.5979 39.5561 16.4791V14.7087ZM41.4472 11.4407C41.8927 11.3475 42.9646 11.3784 42.9646 11.3784L42.579 11.4717C42.579 11.4717 41.804 11.5338 41.5651 11.5641C41.3278 11.5951 40.763 11.7185 40.763 11.7185C40.763 11.7185 41 11.5338 41.4472 11.4407ZM43.8849 11.3269C44.8868 10.5874 45.8236 8.87211 45.8236 8.87211C45.5335 9.85154 45.3082 10.369 44.8099 10.9034C43.499 12.3169 41.9151 12.26 41.9151 12.26C41.9151 12.26 43.1644 11.8571 43.8849 11.3269ZM45.921 4.97556C46.3255 4.04766 47.8941 4.46672 47.8941 4.46672L47.4434 5.23834L48.1127 5.99036L47.9505 7.71987L47.7455 7.5955L47.6245 8.18508L47.3804 7.00323L46.7743 7.93114L46.8547 7.00323L45.5559 8.10145L46.2043 6.83368L45.2314 7.71987L45.88 6.41115L44.9875 6.79293C44.9875 6.79293 45.7384 5.39194 45.921 4.97556ZM46.5252 11.2489C45.8835 12.0968 44.3028 12.9836 44.3028 12.9836C44.3028 12.9836 45.7809 11.8581 46.4177 11.0224C46.9604 10.3042 47.2762 8.22314 47.2762 8.22314C47.2762 8.22314 47.1653 10.4002 46.5252 11.2489ZM45.9738 10.836C46.4092 10.2385 46.6875 8.28004 46.6875 8.28004C46.6875 8.28004 46.7113 10.1364 46.0627 11.0251C45.5437 11.7283 44.2842 12.4705 44.2842 12.4705C44.2842 12.4705 45.467 11.5338 45.9738 10.836ZM44.2653 11.9599C44.2653 11.9599 45.1528 11.2081 45.5318 10.6514C45.8578 10.1737 46.0984 8.33848 46.0984 8.33848C46.0984 8.33848 46.2571 9.87364 45.5984 10.8031C45.2007 11.3598 44.2653 11.9599 44.2653 11.9599ZM44.3149 14.8951C43.8745 15.0036 43.4205 15.15 42.9613 15.3409L42.101 13.8884L42.7839 13.384L43.8318 13.3156L43.5399 14.1129C43.5399 14.1129 43.9481 14.5649 44.3149 14.8951ZM44.6853 17.3801C44.6732 17.3899 44.6632 17.3988 44.651 17.4086C44.4736 17.3286 44.3729 17.2977 44.3729 17.2977C44.4802 17.3251 44.5846 17.3526 44.6853 17.3801ZM45.2332 16.9291C45.2194 16.9424 45.204 16.9549 45.1904 16.9655C44.9719 16.8892 44.8457 16.8599 44.8457 16.8599C44.9804 16.8813 45.1085 16.9061 45.2332 16.9291ZM45.3629 16.4276V16.4311C45.3339 16.4249 45.3184 16.4232 45.3184 16.4232C45.3339 16.4249 45.3476 16.4249 45.3629 16.4276ZM45.4208 17.0312C45.4208 17.0383 45.4226 17.0474 45.4226 17.0543C45.4158 17.0526 45.409 17.0489 45.4021 17.0464C45.409 17.041 45.4139 17.0356 45.4208 17.0312ZM45.8356 17.0783C46.271 17.2123 46.7113 17.4157 47.2609 17.7779L47.6705 17.4024C47.633 17.3774 47.5972 17.3526 47.5595 17.3286C46.9349 16.9407 46.3545 16.7125 45.9398 16.582C45.9687 16.5545 45.9995 16.5287 46.0285 16.503C46.5814 16.5935 47.1261 16.7719 47.8736 17.216L48.3038 16.8236C48.2731 16.8067 48.2474 16.7907 48.2184 16.7738C47.5613 16.4144 46.9245 16.2127 46.467 16.0999C46.5031 16.0672 46.5389 16.0343 46.5712 16.0005C47.1276 16.0574 47.6977 16.2154 48.4967 16.6441L48.9113 16.265C48.901 16.2588 48.8892 16.2527 48.879 16.249C48.1656 15.9038 47.4486 15.7279 46.9451 15.6383C46.9861 15.5966 47.0254 15.5566 47.063 15.5184C47.633 15.538 48.2337 15.6719 49.1007 16.0929L49.5104 15.7183C48.7356 15.3942 47.9281 15.2485 47.3837 15.1854C47.4333 15.1314 47.4776 15.0833 47.5118 15.046C48.1057 15.022 48.7458 15.1277 49.6965 15.546L49.7307 15.5132L49.7937 15.5895C50.2067 15.7777 50.5653 15.9836 50.8724 16.1879L50.7479 16.3121C50.5141 16.1833 50.2479 16.0493 49.9491 15.9117L49.5122 16.3104C49.792 16.4718 50.0378 16.6423 50.2529 16.8084L50.1217 16.939C49.8912 16.7925 49.63 16.6371 49.3297 16.4782L48.8925 16.8796C49.1708 17.0614 49.4132 17.255 49.6163 17.4432L49.4781 17.5825C49.2543 17.4167 48.995 17.2373 48.7014 17.0553L48.2524 17.4653C48.5325 17.6714 48.7646 17.8917 48.9575 18.102L48.809 18.2521C48.5905 18.0647 48.3378 17.8613 48.0477 17.6537L47.6193 18.047C47.8941 18.2759 48.1177 18.5272 48.2969 18.7634L48.1349 18.9259C47.9281 18.7154 47.6809 18.4828 47.3974 18.2494L46.9826 18.6294C47.254 18.8903 47.4623 19.1737 47.6227 19.4372L47.4519 19.6087C47.1431 19.2419 46.7283 18.8034 46.2384 18.4099C45.6649 17.9501 45.1819 17.6687 44.8507 17.5028C44.8729 17.4849 44.8951 17.4672 44.9174 17.4476C45.4908 17.6252 45.9944 17.8551 46.6446 18.3426L47.0441 17.9759C46.9962 17.9413 46.9486 17.9057 46.8972 17.8703C46.4142 17.5293 45.9773 17.2994 45.6309 17.1448L45.8356 17.0783ZM45.7708 16.4674C45.7538 16.4836 45.7349 16.4976 45.7162 16.5145C45.6991 16.5118 45.6872 16.5074 45.6719 16.503C45.6684 16.487 45.6649 16.4718 45.6632 16.4559C45.6991 16.4586 45.7366 16.4632 45.7708 16.4674ZM46.305 15.9818C46.2811 16.0041 46.2588 16.0245 46.2349 16.0468C45.9585 15.9889 45.7894 15.973 45.7894 15.973C45.9687 15.9703 46.1377 15.973 46.305 15.9818ZM46.6771 15.522C46.7028 15.5282 46.7198 15.5326 46.7198 15.5326C46.7198 15.5326 46.7146 15.5282 46.7078 15.521C46.7335 15.5201 46.7606 15.5184 46.7863 15.5176C46.759 15.5441 46.7335 15.5708 46.7043 15.5991C46.4314 15.5593 46.2623 15.5478 46.2623 15.5478C46.4057 15.5362 46.5406 15.5282 46.6771 15.522ZM47.225 15.0647C47.1977 15.0939 47.1703 15.1252 47.138 15.1589C46.887 15.1358 46.7351 15.1339 46.7351 15.1339C46.9007 15.1056 47.0629 15.0816 47.225 15.0647ZM50.8179 17.4263C50.7156 17.3473 50.5943 17.2594 50.4578 17.1635L50.5585 17.0614C50.683 17.1689 50.7889 17.2736 50.8828 17.3669L50.8179 17.4263ZM51.0193 17.5089C51.1882 17.6944 51.2754 17.8134 51.2754 17.8134C51.2754 17.8134 51.1729 17.7131 50.975 17.5489L51.0193 17.5089ZM51.2036 16.4178C51.3486 16.527 51.4783 16.6281 51.5894 16.7223L51.5297 16.7773C51.4085 16.6975 51.2686 16.6095 51.1064 16.5137L51.2036 16.4178ZM51.7413 16.8538C51.9597 17.0499 52.0741 17.1796 52.0741 17.1796C52.0741 17.1796 51.9495 17.0695 51.6969 16.8936L51.7413 16.8538ZM50.2392 18.2192L50.2837 18.1775C50.4099 18.3471 50.475 18.4553 50.475 18.4553C50.475 18.4553 50.3946 18.3657 50.2392 18.2192ZM50.0925 18.0843C50.0073 18.006 49.9081 17.9226 49.792 17.8276L49.8996 17.7219C50.0003 17.8303 50.0891 17.9307 50.1623 18.0203L50.0925 18.0843ZM49.4847 18.9055L49.5309 18.8628C49.6264 19.0228 49.6762 19.1248 49.6762 19.1248C49.6762 19.1248 49.6094 19.0414 49.4847 18.9055ZM49.3483 18.7617C49.2783 18.6898 49.1929 18.6089 49.1007 18.5193L49.2151 18.4065C49.2955 18.5085 49.3637 18.6062 49.4234 18.6923L49.3483 18.7617ZM48.7304 19.5908L48.7764 19.55C48.8431 19.6913 48.8755 19.78 48.8755 19.78C48.8755 19.78 48.8243 19.7088 48.7304 19.5908ZM48.6042 19.4382C48.5479 19.3715 48.4813 19.2971 48.4078 19.2136L48.5257 19.0964C48.587 19.194 48.6382 19.2846 48.6828 19.367L48.6042 19.4382ZM47.9726 20.2798L48.0135 20.2425C48.0562 20.3624 48.0767 20.4353 48.0767 20.4353C48.0767 20.4353 48.0392 20.3757 47.9726 20.2798ZM47.8566 20.1191C47.8104 20.0587 47.7609 19.9912 47.7029 19.9193L47.8224 19.7986C47.8668 19.8882 47.9044 19.9708 47.9351 20.0464L47.8566 20.1191ZM41.6863 20.0391L41.5941 20.1475C41.4951 20.0081 41.4047 19.8882 41.3227 19.7871L41.3774 19.7188C41.4694 19.8074 41.5754 19.9132 41.6863 20.0391ZM41.8297 18.7963L41.7955 18.8397C41.6198 18.5966 41.5104 18.4757 41.5104 18.4757C41.5104 18.4757 41.6368 18.5868 41.8297 18.7963ZM41.9628 18.9455C42.0601 19.0547 42.166 19.186 42.2767 19.3307L42.1915 19.4347C42.0908 19.273 41.9969 19.1292 41.9151 19.0093L41.9628 18.9455ZM51.0568 25.4327C51.6201 25.5827 52.0741 26.0169 52.0741 26.0169C52.0741 26.0169 51.4205 25.5827 50.6028 25.4887C49.787 25.3945 48.9335 25.47 48.9335 25.47C49.8227 25.2063 50.4936 25.2818 51.0568 25.4327ZM45.9158 32.7014C45.2826 32.6515 44.6632 32.4909 44.3028 32.3648C44.3028 32.3648 45.1802 32.4909 45.9073 32.5336C45.9038 32.4263 45.9005 32.3106 45.9023 32.1936C45.4175 32.1136 44.9413 32.0044 44.5743 31.9254C44.5743 31.9254 45.2536 31.9529 45.9055 32.0115C45.9073 31.961 45.9092 31.9112 45.9123 31.8633C45.9158 31.7985 45.921 31.7374 45.9245 31.6776C45.5455 31.6067 45.1613 31.5377 44.8047 31.4921C44.8047 31.4921 45.3594 31.4621 45.9415 31.4983C45.9568 31.3535 45.9722 31.2232 45.9892 31.1069C45.6137 31.0367 45.2075 30.9827 44.7929 30.9533C44.7929 30.9533 45.4073 30.867 46.0217 30.9008C46.0455 30.7543 46.0712 30.639 46.0882 30.5573C45.6922 30.48 45.2366 30.4304 44.7229 30.4206C44.7229 30.4206 45.9177 30.1569 46.6396 30.4125C47.4316 30.6932 47.7284 31.3341 47.7284 31.3341C47.4879 31.0455 47.0458 30.7979 46.4245 30.6353C46.4057 30.6976 46.375 30.7979 46.3441 30.931C46.4517 30.9452 46.5559 30.9658 46.6514 30.9925C47.4795 31.2161 47.8974 31.6209 47.8974 31.6209C47.5833 31.5056 47.0014 31.3164 46.2931 31.1655C46.271 31.2737 46.2488 31.3893 46.2281 31.5207C46.3595 31.5357 46.4877 31.5517 46.6071 31.5755C47.4708 31.7453 48.005 31.9112 48.005 31.9112C47.633 31.9884 46.9417 31.8675 46.1993 31.7284C46.1958 31.762 46.1889 31.7933 46.1873 31.8252C46.1769 31.8971 46.1719 31.9671 46.1684 32.038C46.2213 32.0419 46.271 32.0498 46.3203 32.0532C47.2182 32.1641 47.8719 32.0978 47.8719 32.0978C47.4929 32.3347 46.8375 32.3258 46.1634 32.2335C46.1651 32.3437 46.1703 32.4485 46.1769 32.5442C47.0271 32.5486 47.6977 32.2877 47.6977 32.2877C47.3427 32.6251 46.7778 32.7282 46.1924 32.7172C46.2146 32.9029 46.2384 33.0255 46.2384 33.0255L46.1106 33.0565C46.8904 32.9296 47.5236 32.555 47.5236 32.555C46.6344 33.6238 44.5778 33.1966 44.0331 32.8779C44.0331 32.8779 44.9189 33.1088 45.6649 33.0965C45.7588 33.0957 45.851 33.0886 45.9432 33.0796C45.938 33.0326 45.9245 32.8896 45.9158 32.7014ZM40.6179 35.5469C40.6179 35.5469 41.0531 35.6703 41.4285 35.7618C41.4372 35.6791 41.4507 35.5876 41.4661 35.4998C41.2458 35.4217 41.0276 35.3373 40.8396 35.2743C40.8396 35.2743 41.1623 35.3241 41.4866 35.404C41.5104 35.2954 41.5361 35.1962 41.5601 35.1109C41.3653 35.0417 41.1604 34.9752 40.9507 34.9254C40.9507 34.9254 41.2715 34.9388 41.5908 35.0078C41.6266 34.89 41.659 34.8002 41.6811 34.7424C41.4762 34.6662 41.2373 34.5995 40.9625 34.548C40.9625 34.548 41.6231 34.5134 41.9866 34.7105C42.3878 34.9308 42.4953 35.2993 42.4953 35.2993C42.3913 35.1243 42.1727 34.9565 41.8537 34.8135C41.8314 34.8579 41.7955 34.9388 41.7545 35.0478C41.8177 35.0665 41.8774 35.0878 41.9337 35.1109C42.3621 35.2973 42.5738 35.5192 42.5738 35.5192C42.4031 35.4554 42.0875 35.3081 41.7102 35.166C41.6863 35.2424 41.659 35.3275 41.6316 35.4279C41.63 35.4323 41.63 35.4367 41.6283 35.4404C41.6811 35.4554 41.729 35.4698 41.7785 35.4857C42.2377 35.6376 42.5517 35.7147 42.5517 35.7147C42.3332 35.7706 41.9748 35.6728 41.6026 35.5469C41.5873 35.6337 41.5754 35.7174 41.5719 35.7927C42.0344 35.8894 42.4203 35.8327 42.4203 35.8327C42.2017 35.9694 41.8826 35.9605 41.5634 35.8894C41.5601 35.9988 41.5634 36.0715 41.5634 36.0715L41.4917 36.0778C41.9184 36.0778 42.287 35.9331 42.287 35.9331C41.7255 36.4267 40.6604 36.0192 40.396 35.8025C40.396 35.8025 40.8517 36.0023 41.2512 36.0611C41.3005 36.069 41.3519 36.0734 41.3995 36.0751C41.4012 36.052 41.4066 35.9686 41.4184 35.8542C41.1042 35.7689 40.8056 35.6391 40.6179 35.5469ZM39.0731 27.0477L39.1108 32.6251L38.8153 32.5744L38.7965 23.1085L38.8 23.1058L38.7965 22.7834L38.795 22.7853L38.7863 21.0806L38.7795 21.0833L38.7335 14.0109L39.1515 13.6602L39.092 25.5969L39.0696 25.6609L39.0578 27.0884L39.0731 27.0477ZM37.6412 35.0932C37.6651 34.9769 37.7076 34.8446 37.7776 34.747C37.8356 34.6662 37.9092 34.5713 37.979 34.4842L38.6396 34.0642L39.1054 34.152L37.6412 35.0932ZM36.1238 36.067L30.1292 39.9203L30.1115 39.503L36.3489 35.5257L36.1238 36.067ZM30.0204 39.2243L21.316 33.8839L21.3399 12.1935L21.8789 12.1412L22.0064 12.8631L22.0236 12.1278L22.5053 12.0799L22.7233 13.3584L22.7549 12.0578L23.138 12.0186L23.4414 13.8536L23.4867 12.0265C23.6177 12.0878 23.7529 12.1474 23.8973 12.2068L24.2167 14.2231L24.2663 12.3525C24.4012 12.4038 24.5403 12.4528 24.6848 12.5024L25.0019 14.5703L25.0557 12.6251C25.1896 12.6675 25.3271 12.7102 25.4675 12.7492L25.7874 14.9182L25.8465 12.8586C25.9829 12.895 26.12 12.9313 26.2608 12.9669L26.5838 15.2227L26.649 13.0618C26.8011 13.0974 26.9571 13.132 27.1151 13.1675L27.4179 15.363L27.4828 13.2429C27.6411 13.2731 27.8004 13.3042 27.9616 13.3344L28.2513 15.5041L28.3187 13.3965C28.4793 13.424 28.6406 13.4507 28.8047 13.4765L29.0847 15.6445L29.1551 13.5253C29.2362 13.5376 29.3182 13.5491 29.4014 13.5599C29.5305 13.5776 29.6612 13.5918 29.79 13.607L29.9574 15.6135L30.1191 13.6441C30.2954 13.662 30.4685 13.6789 30.6409 13.6958L30.7728 15.3853L30.9247 13.7169C31.1141 13.7329 31.3019 13.7444 31.4863 13.7562L31.5887 15.1589L31.7269 13.7685C31.9316 13.7783 32.1314 13.7844 32.3278 13.7898L32.4045 14.9297L32.5274 13.7942C32.7443 13.7961 32.954 13.7969 33.1606 13.7942L33.2151 14.6795L33.3193 13.7925C33.5481 13.7871 33.7698 13.7783 33.9834 13.7658L34.0191 14.4051L34.1028 13.7587C34.3453 13.7419 34.579 13.7214 34.8026 13.6966L34.8248 14.1316L34.8861 13.6885C35.1422 13.6558 35.383 13.6195 35.6099 13.5776L35.6184 13.8342L35.6594 13.568C36.0401 13.4941 36.3764 13.4028 36.6545 13.2954C36.5471 13.1693 36.3967 13.0307 36.2175 12.8832C35.7755 12.9926 34.1163 13.5138 31.2644 13.3069C28.9993 13.1435 24.5436 12.3986 22.9528 10.8919L22.7813 10.9088L22.7891 10.6105C24.4485 9.60106 26.9883 9.35865 29.8085 9.76523C34.999 10.5145 36.8389 12.7048 37.124 13.0645C37.199 13.0193 37.2809 12.9669 37.3629 12.9126C37.6189 12.8469 38.0849 12.7235 38.4604 12.5939L38.4962 33.8075L30.0204 39.2243ZM26.198 37.508C26.1682 37.4248 26.14 37.3463 26.1185 37.2869C26.0923 37.2133 26.0624 37.1405 26.0345 37.0774C27.3824 37.9423 29.9548 39.9603 29.9548 39.9603L26.198 37.508ZM21.013 34.1255C21.013 34.1255 23.7509 35.7873 25.1116 36.5492L25.2354 36.8821L21.013 34.1255ZM20.7229 34.1255L20.4808 11.3971L20.7707 11.9511L20.9636 33.9256L20.7229 34.1255ZM19.2461 24.6017C18.7764 25.1753 18.4809 25.6636 18.3065 26.001C18.2898 25.9743 18.2739 25.9512 18.2577 25.9272C18.4545 25.3405 18.7023 24.8309 19.2001 24.1765L18.8689 23.7449C18.8318 23.7913 18.7958 23.8401 18.7586 23.8897C18.3277 24.4872 18.0563 25.0252 17.8959 25.4053C17.8755 25.376 17.8561 25.3476 17.838 25.3209C17.9894 24.7465 18.2107 24.2138 18.6891 23.5089L18.3478 23.0633C18.3227 23.1013 18.298 23.1396 18.2723 23.1777C17.8696 23.808 17.622 24.4003 17.4757 24.8247C17.4522 24.7909 17.4278 24.759 17.4043 24.7278C17.5191 24.1569 17.7155 23.5994 18.1784 22.8447L17.8221 22.3786C17.8059 22.408 17.7883 22.4364 17.7713 22.4647C17.3946 23.1306 17.1689 23.7815 17.039 24.2511C17.008 24.2128 16.978 24.1738 16.9481 24.1365C17.0298 23.5631 17.2092 22.9789 17.6617 22.1683L17.3071 21.7065C17.2994 21.7217 17.2909 21.7367 17.284 21.7519C16.9222 22.4693 16.7186 23.1998 16.607 23.7184C16.5689 23.673 16.5322 23.6286 16.496 23.5862C16.5451 22.9975 16.7046 22.3812 17.1505 21.5031L16.8069 21.0539C16.4575 21.838 16.2766 22.6698 16.187 23.2353C16.1336 23.1767 16.0915 23.1288 16.058 23.0933C16.0676 22.4772 16.2045 21.8176 16.6521 20.8526L16.6355 20.8311L16.6772 20.7982C16.6811 20.7876 16.6854 20.7788 16.6892 20.77C16.8925 20.3438 17.1129 19.9745 17.3249 19.6629L17.4378 19.7969C17.3049 20.0339 17.1617 20.3028 17.0139 20.6075L17.3818 21.0852C17.5494 20.8053 17.7251 20.5577 17.8959 20.3445L18.0145 20.4858C17.8628 20.7148 17.7002 20.9812 17.5328 21.284L17.9058 21.7688C18.0938 21.4872 18.292 21.2484 18.4831 21.0443L18.6097 21.1969C18.4388 21.418 18.254 21.679 18.0649 21.9764L18.4375 22.4629C18.6474 22.1842 18.8702 21.9516 19.0831 21.7617L19.2204 21.9241C19.0284 22.1388 18.8214 22.3937 18.6082 22.685L18.9639 23.1511C19.1986 22.8749 19.4499 22.6531 19.6857 22.4806L19.8328 22.6565C19.6212 22.8634 19.3865 23.1085 19.1487 23.3909L19.4922 23.8391C19.7561 23.571 20.0377 23.3678 20.2988 23.2123L20.4559 23.3997C20.0883 23.7032 19.6472 24.1127 19.2461 24.6017ZM20.2454 32.5701C19.5362 31.7656 18.97 30.8652 18.6878 29.8806C17.9565 27.3274 18.9652 25.668 20.2454 24.4214V32.5701ZM18.0862 26.4866C18.1182 26.3756 18.1488 26.2691 18.1814 26.1661C18.1895 26.1767 18.1976 26.1909 18.2054 26.2024C18.1217 26.3835 18.0862 26.4866 18.0862 26.4866ZM17.6902 25.9743C17.717 25.8359 17.7458 25.7036 17.7752 25.574C17.7857 25.589 17.7965 25.604 17.8077 25.6192C17.7233 25.843 17.6902 25.9743 17.6902 25.9743ZM17.2933 25.4602C17.3127 25.2986 17.3326 25.1442 17.357 24.9916C17.3705 25.011 17.3855 25.0316 17.4018 25.0519C17.3229 25.3066 17.2933 25.4602 17.2933 25.4602ZM16.8825 24.9489C16.8906 24.7642 16.9001 24.5885 16.9165 24.4145C16.9367 24.4393 16.9559 24.4641 16.976 24.4891C16.9073 24.774 16.8825 24.9489 16.8825 24.9489ZM16.4845 24.4349C16.4778 24.243 16.4764 24.0575 16.4806 23.8737C16.5057 23.9039 16.5305 23.9331 16.5569 23.9652C16.5026 24.2565 16.4845 24.4349 16.4845 24.4349ZM16.102 23.9243C16.0844 23.7415 16.0689 23.5648 16.0619 23.3882C16.0892 23.4191 16.1179 23.452 16.1499 23.4883C16.114 23.7557 16.102 23.9243 16.102 23.9243ZM17.8772 18.9455L17.9262 19.0093C17.8439 19.1292 17.7504 19.273 17.6501 19.4347L17.5631 19.3307C17.6758 19.186 17.7811 19.0547 17.8772 18.9455ZM18.3296 18.4757C18.3296 18.4757 18.2211 18.5966 18.0444 18.8407L18.0106 18.7963C18.2032 18.5868 18.3296 18.4757 18.3296 18.4757ZM18.5169 19.7871C18.4365 19.8882 18.3453 20.0091 18.2471 20.1475L18.1549 20.0391C18.2658 19.9132 18.37 19.8074 18.4652 19.7188L18.5169 19.7871ZM18.6435 19.63L18.6082 19.582C18.7895 19.4213 18.9033 19.3388 18.9033 19.3388C18.9033 19.3388 18.8057 19.4347 18.6435 19.63ZM19.0643 20.5052L19.1213 20.5808C19.0434 20.666 18.956 20.7646 18.8608 20.8799L18.7642 20.7646C18.8713 20.666 18.973 20.5791 19.0643 20.5052ZM19.2575 20.4353L19.2204 20.3872C19.388 20.2621 19.4952 20.2034 19.4952 20.2034C19.4952 20.2034 19.4052 20.2825 19.2575 20.4353ZM19.6735 21.307L19.7359 21.387C19.6617 21.4589 19.5794 21.5406 19.4902 21.6329L19.3873 21.5102C19.4902 21.4305 19.5874 21.3639 19.6735 21.307ZM17.285 15.5512C17.3234 15.3728 17.3652 15.229 17.4581 15.1012C17.6058 14.8996 18.0607 14.1156 18.0607 14.1156C18.0607 14.1156 19.0979 14.9609 19.3577 15.1545C19.6182 15.348 20.0456 15.5885 20.0456 15.5885L19.5489 14.2471C19.5489 14.2471 19.8285 14.4051 20.2485 14.636L20.2454 16.4718C19.9774 16.5881 19.7078 16.7365 19.4386 16.9149C19.1382 16.661 18.8312 16.4328 18.5164 16.234C18.0943 15.9693 17.6839 15.7438 17.285 15.5512ZM16.7574 15.3098C16.7574 15.3081 16.758 15.3061 16.7587 15.3061C16.3862 15.1606 15.9922 15.0284 15.6023 14.9111C15.9749 14.5801 16.3952 14.1129 16.3952 14.1129L16.1038 13.3156L17.1543 13.384L17.8371 13.8884L16.9461 15.3915C16.8825 15.364 16.8193 15.3363 16.7574 15.3098ZM15.1903 17.4086C15.1783 17.3988 15.1663 17.3899 15.1552 17.3801C15.2568 17.3526 15.3597 17.3251 15.4676 17.2977C15.4676 17.2977 15.3677 17.3286 15.1903 17.4086ZM14.6505 16.9655C14.6359 16.9549 14.6226 16.9424 14.608 16.9291C14.7337 16.9061 14.8612 16.8813 14.9951 16.8599C14.9951 16.8599 14.8684 16.8892 14.6505 16.9655ZM13.6028 18.4099C13.1116 18.8034 12.6987 19.2419 12.3891 19.6087L12.2177 19.4382C12.3777 19.1737 12.5878 18.8903 12.8585 18.6294L12.4446 18.2494C12.16 18.4828 11.9133 18.7154 11.7056 18.9259L11.5434 18.7634C11.7232 18.5272 11.9464 18.2759 12.2228 18.047L11.7936 17.6537C11.5022 17.8613 11.2494 18.0647 11.0332 18.2538L10.8826 18.1037C11.0772 17.8917 11.3093 17.6714 11.589 17.4653L11.1408 17.0543C10.8449 17.2373 10.5857 17.4167 10.3634 17.5825L10.2242 17.4432C10.4286 17.2558 10.6688 17.0614 10.9488 16.8796L10.5095 16.4782C10.2113 16.6371 9.94927 16.7925 9.71922 16.939L9.58821 16.8084C9.80237 16.6423 10.0481 16.4718 10.3283 16.3104L9.89125 15.9117C9.59098 16.0493 9.32637 16.1833 9.09262 16.3121L8.96752 16.1879C9.27334 15.9836 9.63385 15.7777 10.0454 15.5895L10.1097 15.5132L10.1448 15.546C11.0949 15.1277 11.7337 15.022 12.3308 15.046C12.3642 15.0833 12.4063 15.1314 12.4571 15.1854C11.9133 15.2485 11.1049 15.3949 10.3308 15.7183L10.7409 16.0929C11.6066 15.6729 12.2066 15.538 12.7779 15.5184C12.8141 15.5566 12.8544 15.5966 12.8958 15.6383C12.3923 15.7279 11.6737 15.9038 10.9619 16.249C10.9499 16.2527 10.9403 16.2588 10.9281 16.265L11.3433 16.6441C12.1434 16.2154 12.7127 16.0574 13.2678 16.0005C13.3025 16.0343 13.3373 16.0672 13.3733 16.0999C12.9167 16.2127 12.2805 16.4144 11.6229 16.7738C11.5935 16.7907 11.5652 16.8067 11.5371 16.8236L11.9658 17.216C12.714 16.7719 13.2582 16.5935 13.8131 16.503C13.8417 16.5287 13.8713 16.5545 13.9007 16.582C13.4868 16.7125 12.9073 16.9407 12.2825 17.3286C12.2432 17.3526 12.207 17.3774 12.1694 17.4024L12.5808 17.7779C13.1512 17.4005 13.6034 17.1983 14.0542 17.0633L14.2497 17.1245C13.897 17.2807 13.4444 17.516 12.9428 17.8703C12.8927 17.9057 12.8454 17.9413 12.7966 17.9759L13.1954 18.3426C13.8473 17.8551 14.3491 17.6252 14.9238 17.4476C14.9456 17.4672 14.9671 17.4849 14.9905 17.5028C14.659 17.6687 14.1762 17.9501 13.6028 18.4099ZM11.9847 20.1191L11.9054 20.0464C11.9374 19.9716 11.9739 19.8882 12.0177 19.7986L12.1384 19.9193C12.0802 19.9912 12.0296 20.0587 11.9847 20.1191ZM11.7642 20.4353C11.7642 20.4353 11.7851 20.3624 11.8272 20.2425L11.8686 20.2825C11.8026 20.3757 11.7642 20.4353 11.7642 20.4353ZM11.2367 19.4391L11.1572 19.367C11.2017 19.2846 11.2542 19.194 11.3161 19.0964L11.4342 19.2136C11.3592 19.2971 11.2936 19.3715 11.2367 19.4391ZM10.9648 19.78C10.9648 19.78 10.9977 19.6913 11.0652 19.55L11.1106 19.5908C11.0157 19.7088 10.9648 19.78 10.9648 19.78ZM10.4929 18.7617L10.4175 18.6942C10.4763 18.6062 10.5459 18.5085 10.6256 18.4065L10.7396 18.5193C10.647 18.6089 10.5633 18.6898 10.4929 18.7617ZM10.1651 19.1248C10.1651 19.1248 10.2126 19.0228 10.3096 18.8628L10.3576 18.9055C10.2322 19.0414 10.1651 19.1248 10.1651 19.1248ZM9.74823 18.0843L9.67838 18.022C9.75266 17.9307 9.84043 17.8303 9.94243 17.7219L10.0481 17.8276C9.93393 17.9226 9.8336 18.006 9.74823 18.0843ZM9.36647 18.4553C9.36647 18.4553 9.43003 18.3471 9.55587 18.1775L9.60188 18.2192C9.44592 18.3657 9.36647 18.4553 9.36647 18.4553ZM8.95847 17.3678C9.05067 17.2736 9.15785 17.1689 9.28147 17.0614L9.38347 17.1635C9.2458 17.2594 9.12606 17.3473 9.02295 17.4263L8.95847 17.3678ZM8.56672 17.8134C8.56672 17.8134 8.65265 17.6944 8.82154 17.5089L8.86718 17.5489C8.66614 17.7131 8.56672 17.8134 8.56672 17.8134ZM8.25056 16.7223C8.36143 16.6281 8.49133 16.527 8.63768 16.4178L8.73451 16.5137C8.57319 16.6095 8.43146 16.6975 8.3108 16.7792L8.25056 16.7223ZM7.76846 17.1796C7.76846 17.1796 7.88192 17.0499 8.1007 16.8538L8.14357 16.8936C7.89097 17.0695 7.76846 17.1796 7.76846 17.1796ZM13.1056 15.1339C13.1056 15.1339 12.9524 15.1358 12.7035 15.1589C12.6713 15.1252 12.6427 15.0939 12.6159 15.0647C12.7766 15.0816 12.9389 15.1056 13.1056 15.1339ZM14.0509 15.973C14.0509 15.973 13.8815 15.9889 13.6052 16.0468C13.5819 16.0245 13.5581 16.0041 13.5357 15.9818C13.7031 15.973 13.873 15.9703 14.0509 15.973ZM13.2447 15.5272C13.3532 15.5326 13.4646 15.538 13.5767 15.5478C13.5767 15.5478 13.4086 15.5593 13.1359 15.5991C13.1074 15.5708 13.0821 15.5441 13.0558 15.5176C13.1109 15.5201 13.1675 15.522 13.2247 15.5247C13.2205 15.5291 13.2166 15.5326 13.2166 15.5326C13.2166 15.5326 13.2273 15.5291 13.2447 15.5272ZM14.2752 16.4443C14.2737 16.4559 14.2715 16.4674 14.2702 16.4772C14.2259 16.487 14.178 16.5003 14.1243 16.5145C14.1056 16.4976 14.0875 16.4836 14.0692 16.4674C14.137 16.4586 14.2065 16.4507 14.2752 16.4443ZM15.1262 10.9034C14.6287 10.369 14.4038 9.85154 14.1135 8.87211C14.1135 8.87211 15.0508 10.5874 16.0527 11.3269C16.7737 11.8571 18.0228 12.26 18.0228 12.26C18.0228 12.26 16.439 12.3169 15.1262 10.9034ZM14.3384 10.8031C13.6793 9.87364 13.8388 8.33848 13.8388 8.33848C13.8388 8.33848 14.0773 10.1737 14.4042 10.6514C14.7847 11.2081 15.6705 11.9599 15.6705 11.9599C15.6705 11.9599 14.7353 11.3598 14.3384 10.8031ZM13.875 11.0251C13.2247 10.1364 13.2501 8.28004 13.2501 8.28004C13.2501 8.28004 13.5261 10.2385 13.962 10.836C14.4698 11.5338 15.6519 12.4705 15.6519 12.4705C15.6519 12.4705 14.3944 11.7283 13.875 11.0251ZM13.4121 11.2489C12.7713 10.4002 12.6602 8.22314 12.6602 8.22314C12.6602 8.22314 12.9764 10.3042 13.5208 11.0224C14.1562 11.8581 15.633 12.9836 15.633 12.9836C15.633 12.9836 14.0529 12.0968 13.4121 11.2489ZM12.3112 8.18508L12.1894 7.5955L11.9874 7.71987L11.8243 5.99036L12.493 5.23834L12.043 4.46672C12.043 4.46672 13.6109 4.04766 14.0163 4.97556C14.1978 5.39194 14.9491 6.79293 14.9491 6.79293L14.0568 6.41115L14.7061 7.71987L13.7325 6.83368L14.3817 8.10145L13.0834 7.00323L13.1638 7.93114L12.5556 7.00323L12.3112 8.18508ZM18.489 11.4407C18.9358 11.5338 19.1744 11.7185 19.1744 11.7185C19.1744 11.7185 18.6082 11.5951 18.37 11.5641C18.1322 11.5338 17.3583 11.4717 17.3583 11.4717L16.9721 11.3784C16.9721 11.3784 18.0441 11.3475 18.489 11.4407ZM19.881 21.2528L19.8409 21.2032C19.9996 21.1098 20.0994 21.0656 20.0994 21.0656C20.0994 21.0656 20.0172 21.1304 19.881 21.2528ZM20.2834 22.1079L20.3483 22.1931C20.2812 22.2498 20.2047 22.3155 20.1229 22.3876L20.0153 22.2588C20.1122 22.2002 20.2023 22.1504 20.2834 22.1079ZM30.8769 8.45132C30.8769 8.95208 30.4864 9.35788 30.0054 9.35788C29.5246 9.35788 29.1355 8.95208 29.1355 8.45132C29.1355 7.94959 29.5246 7.54571 30.0054 7.54571C30.4864 7.54571 30.8769 7.94959 30.8769 8.45132ZM39.0561 10.0486C39.0441 10.5839 38.8205 10.9817 38.5696 11.2631L37.9278 11.3333C38.1413 11.1902 38.4485 10.939 38.8 10.5084C38.9896 10.2748 39.0578 9.94458 39.0561 10.0486ZM21.7329 9.87807C21.5307 9.55934 21.3142 9.20602 21.142 8.89518C21.0797 8.72832 21.0187 8.54628 20.9653 8.34828C20.908 8.14144 20.8792 7.9346 20.8657 7.73121C20.8688 7.71276 20.8701 7.69315 20.8724 7.67451C21.0115 6.50516 21.6843 4.61763 21.8079 4.31313C21.8042 4.26603 22.1653 3.88964 22.5415 3.61802C22.9162 3.33044 23.3497 3.05862 23.4931 3.00287C23.84 2.85447 27.5741 1.58132 30.6324 1.98981C30.6827 1.99692 30.7335 2.00403 30.7847 2.01192L30.8 2.01461C30.8497 2.01999 30.899 2.02614 30.9519 2.03229C34.0106 2.42387 37.3254 4.61859 37.6274 4.85292C37.7879 4.9746 38.1087 5.2445 38.3903 5.56764C38.6755 5.88809 38.9111 6.27006 38.9486 6.5586C38.9877 6.81503 39.1261 8.1547 39.1054 9.27792C38.9929 9.67295 38.6568 10.4019 38.0064 10.9559C37.7127 11.1654 37.4755 11.2746 37.4755 11.2746L37.2502 10.9196C37.2502 10.9196 37.2809 10.9009 37.3236 10.8725C37.3509 10.8556 37.3799 10.836 37.4158 10.8121C37.6224 10.6639 38.1106 10.265 38.2128 10.0042C38.2128 9.99956 38.2163 9.9961 38.2181 9.99341C38.416 9.50264 38.4757 8.66892 38.4757 8.66892C38.4757 8.66892 38.4177 8.95112 38.3153 9.28311C38.2811 9.39787 38.0696 10.0999 37.7127 10.3362C37.4226 10.5732 37.1342 10.7233 37.1342 10.7233L36.9771 10.5199V10.5226C36.9634 10.5032 36.9498 10.488 36.9361 10.4676C36.9498 10.4586 36.9618 10.4473 36.9736 10.4357V10.4375C37.083 10.345 37.3936 10.0557 37.5318 9.6793C37.6922 9.18372 37.7419 8.48765 37.7419 8.48765C37.7419 8.48765 37.6019 9.18122 37.3578 9.6793C37.2179 10.0513 36.8116 10.3229 36.8116 10.3229L36.5163 9.98552C36.5505 9.949 36.5863 9.9144 36.6186 9.87364C36.9243 9.49725 37.0096 8.30926 37.0096 8.30926C37.0096 8.30926 36.7776 9.46073 36.3867 9.85673C36.2637 9.73774 36.134 9.61971 35.9956 9.5061C36.2125 9.02398 36.2757 8.12817 36.2757 8.12817C36.2757 8.12817 36.1219 8.89076 35.854 9.39153C35.7005 9.26715 35.5366 9.14835 35.3658 9.03282C35.499 8.54897 35.5415 7.94786 35.5415 7.94786C35.5415 7.94786 35.4325 8.48515 35.2413 8.95208C35.0637 8.83578 34.8795 8.7239 34.6882 8.61741C34.7786 8.19565 34.8078 7.7687 34.8078 7.7687C34.8078 7.7687 34.7309 8.15836 34.5875 8.56147C34.3964 8.45766 34.1948 8.35635 33.9884 8.26043C34.0516 7.90345 34.0755 7.58742 34.0755 7.58742C34.0755 7.58742 34.0156 7.88135 33.9066 8.22314C33.7033 8.1299 33.4919 8.04205 33.2768 7.95766C33.3245 7.65317 33.3415 7.4073 33.3415 7.4073C33.3415 7.4073 33.2955 7.6399 33.2083 7.93017C32.995 7.84924 32.7764 7.77389 32.5547 7.70296C32.5922 7.43383 32.6076 7.22795 32.6076 7.22795C32.6076 7.22795 32.5684 7.42499 32.4932 7.68431C31.7609 7.45613 30.9776 7.2812 30.1566 7.17374C30.0673 7.16221 29.9799 7.1524 29.8925 7.14183C29.8685 7.02899 29.8504 6.91096 29.836 6.79985C29.8003 6.79812 29.7628 6.79293 29.7281 6.79024C29.7231 6.89231 29.7231 7.00496 29.727 7.12587C29.5681 7.10896 29.4099 7.09569 29.255 7.08493C29.2264 6.99612 29.2007 6.90923 29.1795 6.83099C29.1719 6.80619 29.1674 6.78139 29.1619 6.75563C29.0965 6.75294 29.0344 6.75294 28.9699 6.75294C28.9777 6.85944 28.9849 6.96517 28.9963 7.07166C28.8838 7.06455 28.7711 7.06013 28.66 7.05744C28.6222 6.95882 28.5846 6.85156 28.5493 6.74852C28.4518 6.74852 28.3551 6.75121 28.2598 6.75294C28.2748 6.85406 28.2884 6.95613 28.3095 7.05475C28.1707 7.05475 28.0316 7.05744 27.8947 7.06282C27.8592 6.97401 27.8217 6.87809 27.7842 6.7787C27.6685 6.78658 27.5554 6.79812 27.4427 6.80792C27.4625 6.90115 27.4863 6.9917 27.5135 7.08051C27.3767 7.08935 27.2416 7.09915 27.1079 7.11338C27.0757 7.03783 27.0387 6.9519 27.0023 6.86213C26.8756 6.87809 26.752 6.89769 26.6304 6.91807C26.655 7.00054 26.6806 7.08051 26.7113 7.15682C26.5496 7.17912 26.39 7.20315 26.2325 7.23064C26.2032 7.16567 26.1695 7.09127 26.1379 7.01476C26.0093 7.04148 25.884 7.07166 25.7621 7.10185C25.7846 7.17201 25.8068 7.24218 25.833 7.30792C25.6817 7.33983 25.5315 7.37539 25.3851 7.41345C25.3587 7.35751 25.3288 7.29446 25.3005 7.22968C25.1684 7.2687 25.0385 7.30965 24.9124 7.35232C24.9359 7.41172 24.9601 7.47036 24.9878 7.52802C24.8311 7.57685 24.6789 7.62741 24.5312 7.68239C24.5061 7.63183 24.4804 7.57685 24.4544 7.51822C24.3219 7.57051 24.1912 7.62299 24.0674 7.67624C24.0902 7.73121 24.1136 7.78542 24.1412 7.83963C23.9932 7.90345 23.8503 7.97189 23.7115 8.04205C23.6855 7.99054 23.6591 7.9346 23.6317 7.8752C23.4974 7.94094 23.3697 8.00553 23.2477 8.0705C23.2747 8.13356 23.305 8.19296 23.3361 8.25255C23.1953 8.33771 23.0613 8.42556 22.9355 8.51879C22.9022 8.45478 22.8673 8.3848 22.8309 8.30926C22.6939 8.38923 22.5692 8.46919 22.4545 8.54455C22.4946 8.63336 22.5372 8.71948 22.5868 8.79926C22.4622 8.91037 22.3453 9.02398 22.2399 9.14201C22.1887 9.04801 22.1309 8.93863 22.0727 8.81271C21.9129 8.93171 21.7931 9.03032 21.71 9.10125C21.7795 9.2485 21.8567 9.3871 21.9489 9.51129C21.8685 9.62855 21.7961 9.75119 21.7329 9.87807ZM17.4265 35.9605C17.4265 35.9605 17.7952 36.1043 18.2227 36.1034L18.152 36.1001C18.152 36.1001 18.1549 36.0263 18.1498 35.9181C17.8319 35.9863 17.5132 35.9961 17.2951 35.8594C17.2951 35.8594 17.68 35.9181 18.1442 35.8204C18.1392 35.7449 18.1285 35.6614 18.1113 35.5726C17.741 35.7005 17.3809 35.7973 17.1636 35.7424C17.1636 35.7424 17.4779 35.6639 17.9373 35.5113C17.9835 35.4971 18.0341 35.4811 18.0862 35.4671C18.0845 35.4632 18.0845 35.458 18.0832 35.4536C18.0563 35.3569 18.0295 35.27 18.0025 35.1935C17.6263 35.3356 17.3127 35.4811 17.1407 35.5469C17.1407 35.5469 17.3524 35.3241 17.7824 35.1376C17.838 35.1145 17.8977 35.0932 17.9609 35.0755C17.918 34.9655 17.8837 34.8846 17.8619 34.84C17.5435 34.9821 17.3245 35.1516 17.2192 35.326C17.2192 35.326 17.3267 34.9582 17.7283 34.7391C18.0923 34.5382 18.752 34.5765 18.752 34.5765C18.4776 34.6263 18.2396 34.691 18.0328 34.7691C18.0559 34.8277 18.0884 34.9156 18.1239 35.0346C18.4425 34.9655 18.7631 34.9511 18.7631 34.9511C18.5544 35.0034 18.349 35.0674 18.1549 35.1376C18.1791 35.2237 18.2035 35.3221 18.2274 35.4306C18.5513 35.3523 18.8756 35.302 18.8756 35.302C18.6869 35.3658 18.4687 35.4482 18.2482 35.5265C18.2645 35.6143 18.2771 35.7058 18.2863 35.7873C18.6623 35.6951 19.0966 35.5726 19.0966 35.5726C18.91 35.6668 18.6115 35.7973 18.2961 35.8815C18.3087 35.9961 18.314 36.0778 18.314 36.1018C18.3636 36.1001 18.414 36.0938 18.4637 36.0866C18.8634 36.029 19.3174 35.8283 19.3174 35.8283C19.0535 36.0469 17.9884 36.4534 17.4265 35.9605ZM12.3128 32.5115C12.3128 32.5115 12.947 32.886 13.7262 33.0103L13.5986 32.98C13.5986 32.98 13.6237 32.8602 13.6455 32.6713C13.0614 32.6836 12.4952 32.5824 12.1401 32.246C12.1401 32.246 12.8125 32.5044 13.6612 32.4998C13.669 32.4048 13.6728 32.2991 13.6741 32.1882C13.0021 32.2806 12.3454 32.291 11.9658 32.0532C11.9658 32.0532 12.6199 32.1199 13.518 32.0105C13.5673 32.0044 13.6187 31.9982 13.669 31.9931C13.6664 31.9235 13.6599 31.8518 13.6514 31.7797C13.6472 31.747 13.6425 31.7185 13.6386 31.6847C12.8967 31.8233 12.2066 31.9431 11.8324 31.8675C11.8324 31.8675 12.3683 31.7009 13.2312 31.5311C13.3498 31.5081 13.4786 31.4902 13.6109 31.4761C13.5899 31.3447 13.5673 31.2293 13.5461 31.1228C12.8363 31.273 12.2544 31.4621 11.9416 31.5767C11.9416 31.5767 12.3585 31.1716 13.185 30.9488C13.2822 30.9204 13.387 30.9008 13.4945 30.8877C13.4629 30.7543 13.4343 30.6542 13.4151 30.5901C12.792 30.7543 12.3492 31.0021 12.109 31.2904C12.109 31.2904 12.4063 30.6488 13.1991 30.3683C13.9204 30.1142 15.1158 30.3752 15.1158 30.3752C14.6021 30.386 14.1464 30.4348 13.7484 30.5146C13.7674 30.5955 13.7913 30.7109 13.817 30.8566C14.4301 30.8227 15.0447 30.9098 15.0447 30.9098C14.6302 30.9365 14.2253 30.9931 13.8486 31.0615C13.8648 31.1797 13.8815 31.3101 13.8964 31.4531C14.4798 31.4167 15.0327 31.4479 15.0327 31.4479C14.6771 31.4921 14.2928 31.563 13.9127 31.6342C13.9173 31.6928 13.9228 31.7549 13.9264 31.8187C13.9291 31.8675 13.9317 31.9175 13.9339 31.9671C14.5842 31.9077 15.264 31.8819 15.264 31.8819C14.8957 31.961 14.4208 32.0701 13.9369 32.1491C13.9369 32.2664 13.9349 32.3818 13.931 32.4909C14.6572 32.4448 15.5345 32.3204 15.5345 32.3204C15.1744 32.4448 14.5555 32.6082 13.9228 32.658C13.9127 32.8452 13.9001 32.9873 13.8964 33.0344C13.9868 33.045 14.0799 33.0521 14.1738 33.0538C14.9192 33.0653 15.8038 32.8337 15.8038 32.8337C15.2614 33.1524 13.2029 33.5794 12.3128 32.5115ZM12.1208 26.1013C11.7892 25.9629 10.4037 25.4433 9.19961 25.6148C7.97154 25.7897 7.62359 26.1936 7.62359 26.1936C7.81614 25.9547 7.98909 25.7149 8.87273 25.5348C9.55587 25.3964 9.96904 25.4151 10.5822 25.5348C11.1106 25.6369 11.8786 25.9912 12.1208 26.1013C12.1759 26.1234 12.2053 26.1377 12.1972 26.135C12.189 26.1315 12.1619 26.1182 12.1208 26.1013ZM12.7951 21.8547C13.2567 20.6306 15.8594 20.9874 14.9835 22.3653C14.5727 23.0116 13.7795 23.436 13.1377 23.7778C12.7572 23.1396 12.5603 22.4806 12.7951 21.8547ZM13.4675 20.4147C14.0781 20.1458 14.492 20.3713 14.492 20.3713C14.492 20.3713 14.2002 20.3295 13.8404 20.4014C13.8766 20.3988 13.9023 20.3988 13.9023 20.3988C13.9023 20.3988 13.8212 20.5541 13.6052 20.6517C13.4454 20.7246 13.2785 20.6829 13.2029 20.6554C12.8544 20.8568 12.7072 21.0514 12.6696 21.1098C12.8505 20.8197 12.9444 20.6438 13.4675 20.4147ZM5.13678 28.0732C5.19573 28.0944 5.45165 28.0704 5.64808 27.8724C5.887 27.6301 5.84653 27.3664 5.84653 27.3664C5.84653 27.3664 5.95999 27.7474 5.63181 27.9967C5.34263 28.2161 5.13678 28.0732 5.13678 28.0732ZM5.14935 27.544C5.13955 27.6753 5.18686 27.718 5.2495 27.7155C5.24359 27.7109 5.23583 27.7084 5.23084 27.7011C5.18464 27.64 5.22437 27.5298 5.31695 27.4552C5.40231 27.387 5.50006 27.3753 5.55162 27.4189C5.54774 27.4039 5.5409 27.3887 5.52815 27.3762C5.46255 27.307 5.2726 27.3958 5.2726 27.3958C5.37718 27.2784 5.53499 27.2422 5.60151 27.2926C5.66859 27.3406 5.75562 27.4152 5.62239 27.5938C5.49101 27.7705 5.28627 27.8228 5.21624 27.7891C5.00854 27.6915 5.16117 27.3983 5.14935 27.544ZM1.87591 29.1163C1.86778 29.214 1.90271 29.2461 1.94927 29.2443C1.94502 29.2397 1.93911 29.2397 1.93523 29.2334C1.9016 29.1884 1.92932 29.1075 1.9988 29.0525C2.0594 29.0017 2.12944 28.9929 2.16954 29.0223C2.16565 29.0115 2.1627 29.0017 2.15512 28.9938C2.1056 28.9425 1.96646 29.0081 1.96646 29.0081C2.04185 28.921 2.15974 28.8952 2.20889 28.9298C2.25786 28.9679 2.3218 29.0223 2.2246 29.1536C2.12648 29.2841 1.97625 29.3224 1.92507 29.2974C1.77133 29.2255 1.88405 29.0108 1.87591 29.1163ZM2.23107 29.4512C2.01801 29.6146 1.86612 29.5071 1.86612 29.5071C1.90973 29.5238 2.09839 29.506 2.24289 29.3589C2.42047 29.1813 2.38924 28.9875 2.38924 28.9875C2.38924 28.9875 2.47369 29.2672 2.23107 29.4512ZM4.61662 23.5027C4.55065 23.5915 4.44902 23.6171 4.41409 23.6012C4.30988 23.5514 4.38712 23.4049 4.38028 23.4777C4.37511 23.5443 4.3995 23.5648 4.43146 23.5631C4.42758 23.5612 4.42352 23.5612 4.42075 23.5567C4.39783 23.5266 4.41779 23.4714 4.46491 23.4324C4.50612 23.3997 4.55361 23.3943 4.57966 23.4147C4.57744 23.4078 4.57523 23.3997 4.56987 23.3943C4.53642 23.3605 4.44218 23.4049 4.44218 23.4049C4.49466 23.3445 4.57393 23.3268 4.60645 23.3526C4.63935 23.3774 4.68332 23.4147 4.61662 23.5027ZM4.62142 23.7042C4.47729 23.8151 4.37381 23.7424 4.37381 23.7424C4.40375 23.7538 4.53143 23.7415 4.62955 23.6419C4.74948 23.5204 4.72841 23.3899 4.72841 23.3899C4.72841 23.3899 4.78569 23.5798 4.62142 23.7042ZM55.3939 23.3526C55.4279 23.3268 55.5083 23.3445 55.5595 23.4049C55.5595 23.4049 55.4639 23.3605 55.4316 23.3943C55.4264 23.3997 55.4248 23.4078 55.4229 23.4147C55.4486 23.3943 55.4963 23.3997 55.5373 23.4324C55.5851 23.4714 55.604 23.5266 55.5816 23.5567C55.5783 23.5612 55.5731 23.5612 55.5698 23.5631C55.6021 23.5648 55.6262 23.5443 55.6208 23.4777C55.6158 23.4049 55.6927 23.5514 55.5885 23.6012C55.5526 23.6171 55.4519 23.5915 55.3854 23.5027C55.3189 23.4147 55.3632 23.3774 55.3939 23.3526ZM55.3804 23.7042C55.2165 23.5798 55.2729 23.3899 55.2729 23.3899C55.2729 23.3899 55.2522 23.5204 55.3717 23.6419C55.4708 23.7415 55.597 23.7538 55.6276 23.7424C55.6276 23.7424 55.5255 23.8151 55.3804 23.7042ZM58.0738 27.3752C56.9592 26.0169 55.0696 25.6209 53.3458 25.2419C54.6396 25.392 56.3738 25.3493 56.6007 24.1694C56.7149 23.5842 56.3566 22.8901 55.708 22.9308C55.2932 22.9549 54.7727 23.1413 54.7453 23.6473C54.7453 23.6527 54.7488 23.6554 54.7505 23.6588C54.7505 23.674 54.747 23.6865 54.747 23.7005C54.747 23.9795 54.9776 24.205 55.2625 24.205C55.5476 24.205 55.7781 23.9795 55.7781 23.7005C55.7781 23.4591 55.6021 23.2567 55.3684 23.2096C55.6687 23.0614 56.1569 23.3065 56.2149 23.7724C56.2524 24.0744 56.2165 24.3949 55.9863 24.615C55.138 25.4318 53.5812 25.2382 52.5092 25.0225C51.6986 24.813 50.8981 24.6878 50.287 24.5902C49.2151 24.4162 48.1757 24.3664 47.1771 23.927C47.4554 23.516 47.6637 23.0879 47.7097 22.6671C47.976 21.2626 47.138 19.9353 45.3389 20.1804C43.8505 20.3828 44.1783 21.5983 44.5264 22.2367C44.5639 22.3155 44.6085 22.3884 44.651 22.446C44.6853 22.4958 44.7142 22.5304 44.7382 22.5544C44.7432 22.5633 44.7485 22.5704 44.7552 22.5792C45.2962 23.2851 45.967 23.7282 46.7028 24.031L44.646 26.4316C44.3695 26.7805 44.0844 27.1321 43.8012 27.4827C44.559 25.1273 44.3064 23.2326 43.9069 22.0262C43.3283 20.2763 42.4474 18.8557 41.4679 17.8524C45.3288 16.6921 47.0543 20.0295 48.4557 21.8132C50.7427 24.7278 54.0027 24.0938 54.5389 21.4366C54.9689 19.2944 52.7825 16.313 48.9642 14.9467C48.3753 14.7344 46.6361 14.3865 44.5639 14.8382L44.0552 14.1858C44.0552 14.1858 44.3592 13.5999 45.3101 13.0068C46.2606 12.4155 47.2693 11.6777 47.679 10.5891C48.0903 9.50264 48.0101 8.16451 48.0033 8.05801C47.9981 7.95324 48.2252 8.36078 48.2252 8.36078C48.2252 8.36078 48.2611 7.82983 48.3344 7.36386C48.3976 6.96517 48.5667 6.22296 48.6911 5.90328C48.9147 5.72123 49.9252 5.60493 49.9252 5.60493L49.9578 5.52592L48.2509 5.4523C48.2302 5.43884 48.0186 5.27199 48.0186 5.27199C48.0186 5.27199 48.7151 4.31044 48.9847 4.00421C49.3073 3.63936 49.4901 3.39868 49.4901 3.39868C49.4901 3.39868 48.5359 3.92155 48.3344 3.97057C48.1349 4.01844 47.8941 3.99806 47.7934 4.00421C47.7934 4.00421 47.0014 3.84428 46.2316 4.03612C45.4601 4.22797 45.204 6.18913 44.8439 6.38982C44.692 6.47421 44.2328 6.84002 43.6936 7.30331H44.7363C44.7363 7.30331 44.0674 7.62568 43.5007 7.78542C43.342 7.83079 43.1082 7.92748 42.8554 8.04205C42.6455 8.23371 42.4441 8.42383 42.2545 8.60587C42.7547 8.44324 43.3641 8.30926 43.5144 8.27639C43.2821 8.34578 42.2922 8.89787 41.5686 9.31079C40.9097 10.0584 39.8941 11.4557 39.5561 11.9246V11.1539L39.3823 11.137C39.5698 10.8671 39.6363 10.528 39.6894 10.131C39.8429 8.81617 39.6347 6.84522 39.5783 6.45825C39.4965 5.93692 39.184 5.49228 38.8632 5.11839C38.5389 4.74911 38.1941 4.46134 38.0012 4.31582C37.6137 4.02824 34.3111 1.81123 31.0304 1.37351C30.9776 1.3664 30.7643 1.33814 30.7126 1.3318C27.429 0.911962 23.7012 2.20722 23.2572 2.38754C22.9938 2.49846 22.5792 2.76931 22.1647 3.08342C21.7516 3.41021 21.3829 3.6953 21.2175 4.05919C21.0784 4.41617 20.4015 6.27621 20.2391 7.59108C20.1938 8.00553 20.1781 8.36078 20.3102 8.68123C20.4156 8.92017 20.5749 9.21121 20.7532 9.51398C21.0775 10.0405 21.5481 10.8006 21.7582 11.0295L20.2548 11.153L20.2535 11.7452C19.8348 11.1681 18.9584 9.97937 18.37 9.31079C17.6446 8.89787 16.6534 8.34578 16.4226 8.27639C16.5726 8.30926 17.1808 8.44324 17.6839 8.60587C17.494 8.42383 17.2905 8.23371 17.081 8.04205C16.8287 7.92748 16.5954 7.83079 16.4363 7.78542C15.869 7.62568 15.1995 7.30331 15.1995 7.30331H16.2437C15.704 6.84002 15.2455 6.47421 15.0936 6.38982C14.7315 6.18913 14.4753 4.22797 13.7055 4.03612C12.9352 3.84428 12.1438 4.00421 12.1438 4.00421C12.0423 3.99806 11.8038 4.01844 11.6025 3.97057C11.4019 3.92155 10.4474 3.39868 10.4474 3.39868C10.4474 3.39868 10.63 3.63936 10.9521 4.00421C11.2222 4.31044 11.9178 5.27199 11.9178 5.27199C11.9178 5.27199 11.7073 5.43884 11.686 5.4523L9.97921 5.52592L10.0112 5.60493C10.0112 5.60493 11.0216 5.72123 11.2457 5.90328C11.3712 6.22296 11.5388 6.96517 11.6025 7.36386C11.6753 7.82983 11.7115 8.36078 11.7115 8.36078C11.7115 8.36078 11.9405 7.95324 11.934 8.05801C11.9274 8.16451 11.847 9.50264 12.257 10.5891C12.6678 11.6777 13.6765 12.4155 14.6269 13.0068C15.5772 13.5999 15.8819 14.1858 15.8819 14.1858L15.3693 14.8436C15.1858 14.7931 15.0046 14.7442 14.8279 14.7033L14.825 14.7069C13.1512 14.3767 11.791 14.612 10.8586 14.9467C7.04208 16.313 4.85517 19.2944 5.2859 21.4366C5.81919 24.0938 9.08061 24.7278 11.3673 21.8132C12.7659 20.0339 14.4861 16.7073 18.3277 17.8446C17.3443 18.8486 16.4605 20.27 15.8797 22.0262C15.5026 23.1696 15.2549 24.9258 15.8716 27.1063C15.703 26.8799 15.531 26.6544 15.3553 26.4316L13.2994 24.031C14.0356 23.7282 14.706 23.2851 15.2464 22.5792C15.2537 22.5704 15.2585 22.5633 15.2644 22.5544C15.2871 22.5304 15.3156 22.4958 15.352 22.446C15.3932 22.3884 15.4373 22.3155 15.4758 22.2367C15.8217 21.5983 16.1524 20.3828 14.6627 20.1804C12.8639 19.9353 12.0257 21.2626 12.2901 22.6671C12.3385 23.0879 12.5462 23.516 12.8245 23.927C11.8252 24.3664 10.7882 24.4162 9.7146 24.5902C9.10481 24.6878 8.30212 24.813 7.49258 25.0225C6.42213 25.2382 4.86386 25.4318 4.01496 24.615C3.78454 24.3949 3.74925 24.0744 3.78731 23.7724C3.84478 23.3065 4.33261 23.0614 4.63417 23.2096C4.3995 23.2567 4.2234 23.4591 4.2234 23.7005C4.2234 23.9795 4.45456 24.205 4.73876 24.205C5.02425 24.205 5.2543 23.9795 5.2543 23.7005C5.2543 23.6865 5.25209 23.674 5.25042 23.6588C5.25209 23.6554 5.25671 23.6527 5.25634 23.6473C5.23084 23.1413 4.7079 22.9549 4.29325 22.9308C3.6454 22.8901 3.2871 23.5842 3.40019 24.1694C3.6284 25.3493 5.36259 25.392 6.65718 25.2419C4.93075 25.6209 3.04263 26.0169 1.92839 27.3752C1.01483 28.4867 0.911532 30.4577 2.51009 30.204C2.78523 30.1586 3.15092 29.895 3.145 29.476C3.13687 29.0719 2.81683 28.747 2.41105 28.747C2.006 28.747 1.67764 29.0719 1.67764 29.476C1.67764 29.6544 1.7462 29.8168 1.85374 29.9439C1.21291 29.6686 1.71257 28.3608 2.18321 27.7163C2.6265 27.1107 3.18418 26.713 3.83073 26.3997C4.37344 26.135 4.94664 25.9414 5.5337 25.7782C4.87199 26.1634 4.34868 26.674 4.1238 27.3681C3.55541 29.1269 5.28405 29.7876 6.38074 28.867C6.70707 28.5917 6.78708 28.3608 6.78708 28.0135C6.78708 27.4712 6.33251 27.0317 5.83064 27.0317C5.32969 27.0317 4.92262 27.4712 4.92262 28.0129C4.92262 28.4673 5.21199 28.8466 5.60151 28.9575C5.10315 29.1845 4.5403 29.0863 4.40541 28.3466C4.28013 27.6628 4.6181 26.9866 5.0819 26.5354C5.73991 25.8953 6.65847 25.5331 7.58146 25.2801C7.76846 25.2365 7.95288 25.1896 8.13544 25.1407C8.44772 25.0679 8.75373 25.0048 9.04291 24.9435C10.3155 24.6773 11.7274 24.5902 12.9832 24.1517C13.4757 24.8166 14.1106 25.4274 14.4861 25.8766C15.0485 26.5479 15.614 27.2236 16.1408 27.9266C16.3396 28.4735 16.5954 29.0408 16.9145 29.6313C15.1045 27.6824 12.3973 25.2517 9.91767 25.1761C7.67496 25.1096 7.18676 26.0294 7.36379 26.531C7.59384 27.1846 8.43664 27.2945 8.99782 27.2643C10.5284 27.1792 10.7716 26.253 12.7012 26.7582C14.2057 27.1534 16.4213 29.3499 17.4121 30.4552C17.6582 30.821 17.9398 31.1753 18.2477 31.5179C18.3277 31.6413 18.3811 31.7374 18.417 31.8108C16.8542 30.7312 15.1343 29.8426 13.5021 30.0121C11.5033 30.2199 11.3486 32.2255 12.245 32.9829C13.1429 33.7393 15.0142 33.4684 16.1463 33.1134C17.89 32.5692 18.7145 32.6526 20.2454 33.4684V34.3171C19.6071 34.2178 19.0203 34.1751 18.5685 34.2258C17.1743 34.3846 16.7164 35.0807 17.022 35.9117C17.3284 36.7429 18.5245 36.6301 19.2575 36.2873C20.2339 35.8335 20.6434 35.2929 21.3557 35.1013L30.0285 40.5622L38.4604 35.1099C39.1552 35.3081 39.5665 35.8398 40.5292 36.2873C41.263 36.6301 42.4596 36.7429 42.7651 35.9117C43.0705 35.0807 42.6132 34.3846 41.217 34.2258C40.7681 34.1751 40.1877 34.2178 39.5561 34.3146V33.4613C41.0769 32.6515 41.9031 32.5701 43.6406 33.1134C44.774 33.4684 46.6446 33.7393 47.5408 32.9829C48.4385 32.2255 48.2831 30.2199 46.2863 30.0121C44.651 29.8426 42.934 30.7312 41.3705 31.8108C41.4066 31.7374 41.4594 31.6413 41.5394 31.5179C41.8484 31.1753 42.1283 30.821 42.3741 30.4552C43.3677 29.3499 45.5812 27.1534 47.0849 26.7582C49.0154 26.253 49.2578 27.1792 50.7889 27.2643C51.3505 27.2945 52.1936 27.1846 52.4241 26.531C52.6 26.0294 52.1116 25.1096 49.8689 25.1761C47.3889 25.2517 44.6835 27.6824 42.8724 29.6313C43.1236 29.1661 43.3368 28.7132 43.5127 28.2764C44.1493 27.45 44.8524 26.6678 45.5147 25.8766C45.892 25.4274 46.5271 24.8166 47.0186 24.1517C48.2731 24.5902 49.6863 24.6773 50.9578 24.9435C51.2479 25.0048 51.5552 25.0679 51.8658 25.1407C52.0502 25.1896 52.2345 25.2365 52.4205 25.2801C53.3422 25.5331 54.2623 25.8953 54.9194 26.5354C55.3819 26.9866 55.7217 27.6628 55.597 28.3466C55.4623 29.0863 54.8989 29.1845 54.4023 28.9575C54.7897 28.8466 55.0783 28.4673 55.0783 28.0129C55.0783 27.4712 54.6719 27.0317 54.1719 27.0317C53.67 27.0317 53.2144 27.4712 53.2144 28.0135C53.2144 28.3608 53.2946 28.5917 53.6205 28.867C54.7163 29.7876 56.4453 29.1269 55.8788 27.3681C55.6533 26.674 55.1293 26.1634 54.4689 25.7782C55.0543 25.9414 55.6295 26.135 56.1705 26.3997C56.8175 26.713 57.3755 27.1107 57.8177 27.7163C58.2906 28.3608 58.7889 29.6686 58.147 29.9439C58.2564 29.8168 58.3246 29.6544 58.3246 29.476C58.3246 29.0719 57.9951 28.747 57.5908 28.747C57.1861 28.747 56.8653 29.0719 56.8585 29.476C56.85 29.895 57.2168 30.1586 57.4916 30.204C59.091 30.4577 58.9868 28.4867 58.0738 27.3752Z" fill="#00161D"/>
<path fill-rule="evenodd" clip-rule="evenodd" d="M21.8618 7.46272C21.503 6.27522 22.054 5.05322 22.054 5.05322C22.054 5.05322 21.3548 6.24904 21.4519 7.22185C21.4846 7.54896 21.5429 7.89373 21.6401 8.22368C21.7476 8.14495 21.8791 8.05221 22.0334 7.95379C21.9723 7.79917 21.9142 7.63703 21.8618 7.46272Z" fill="#00161D"/>
<path fill-rule="evenodd" clip-rule="evenodd" d="M22.2437 7.58959C22.3756 7.52745 22.5154 7.46531 22.665 7.4025C22.5972 7.26648 22.5305 7.12178 22.4729 6.96771C22.1201 6.02885 22.6378 5.05322 22.6378 5.05322C22.6378 5.05322 21.9681 5.99498 22.0629 6.77653C22.0949 7.04228 22.1509 7.32232 22.2437 7.58959Z" fill="#00161D"/>
<path fill-rule="evenodd" clip-rule="evenodd" d="M30.0012 7.90659C30.0012 8.08222 30.1378 8.22394 30.3065 8.22394C30.4763 8.22394 30.6125 8.08222 30.6125 7.90659C30.6125 7.73215 30.4763 7.58984 30.3065 7.58984C30.1378 7.58984 30.0012 7.73215 30.0012 7.90659Z" fill="#00161D"/>
<path fill-rule="evenodd" clip-rule="evenodd" d="M13.4954 5.36156C13.4954 5.29324 13.4743 5.2302 13.4414 5.17819C13.4057 5.22712 13.3523 5.25886 13.2901 5.25886C13.1833 5.25886 13.0969 5.16717 13.0946 5.05322C12.9729 5.09796 12.884 5.21698 12.884 5.36156C12.884 5.54163 13.02 5.68731 13.1895 5.68731C13.3569 5.68731 13.4954 5.54163 13.4954 5.36156Z" fill="#00161D"/>
<path fill-rule="evenodd" clip-rule="evenodd" d="M29.5406 5.68701C29.5406 5.68701 29.4447 5.94168 29.3896 6.31988C29.4428 6.31988 29.4963 6.31988 29.5498 6.3211C29.5211 5.96227 29.5406 5.68701 29.5406 5.68701Z" fill="#00161D"/>
<path fill-rule="evenodd" clip-rule="evenodd" d="M23.4534 6.9558C23.5931 6.90235 23.7363 6.84691 23.8879 6.79274C23.8179 6.65033 23.749 6.49976 23.6914 6.33906C23.3493 5.40361 23.8237 4.41943 23.8237 4.41943C23.8237 4.41943 23.1938 5.35343 23.2858 6.14827C23.3173 6.41352 23.3683 6.69055 23.4534 6.9558Z" fill="#00161D"/>
<path fill-rule="evenodd" clip-rule="evenodd" d="M47.4243 5.68731C47.5943 5.68731 47.7297 5.54163 47.7297 5.36156C47.7297 5.21698 47.642 5.09796 47.5198 5.05322C47.5178 5.16717 47.4319 5.25886 47.325 5.25886C47.2619 5.25886 47.2084 5.22712 47.172 5.17819C47.1395 5.2302 47.1184 5.29324 47.1184 5.36156C47.1184 5.54163 47.2559 5.68731 47.4243 5.68731Z" fill="#00161D"/>
<path fill-rule="evenodd" clip-rule="evenodd" d="M27.0424 6.32171C27.2112 6.30598 27.3837 6.29045 27.5559 6.27393C27.5097 6.19013 27.4618 6.10473 27.4233 6.02012C27.0702 5.26526 27.3928 4.41943 27.3928 4.41943C27.3928 4.41943 26.8622 5.14762 26.9556 5.86485C26.9744 6.01554 27.0032 6.17102 27.0424 6.32171Z" fill="#00161D"/>
<path fill-rule="evenodd" clip-rule="evenodd" d="M27.5812 5.68762C27.6744 5.67998 27.7679 5.67451 27.8613 5.66853C27.8587 5.66239 27.8556 5.65543 27.8534 5.64779C27.6422 5.07684 27.7977 4.41943 27.7977 4.41943C27.7977 4.41943 27.5091 4.965 27.5622 5.52899C27.5681 5.58192 27.575 5.63485 27.5812 5.68762Z" fill="#00161D"/>
<path fill-rule="evenodd" clip-rule="evenodd" d="M24.0459 6.9558C24.1908 6.90793 24.342 6.86202 24.4993 6.81591C24.4304 6.67329 24.3641 6.52265 24.309 6.36576C23.9707 5.42542 24.4089 4.41943 24.4089 4.41943C24.4089 4.41943 23.807 5.35313 23.8971 6.17254C23.9244 6.43141 23.9707 6.69771 24.0459 6.9558Z" fill="#00161D"/>
<path fill-rule="evenodd" clip-rule="evenodd" d="M28.4723 6.31531C28.3213 5.68743 28.4249 5.05322 28.4249 5.05322C28.4249 5.05322 28.1397 5.64338 28.1694 6.3214C28.2681 6.3196 28.3705 6.3196 28.4723 6.31531Z" fill="#00161D"/>
<path fill-rule="evenodd" clip-rule="evenodd" d="M25.838 6.32171C26.0001 6.29696 26.1657 6.27544 26.333 6.25464C26.2779 6.16354 26.2284 6.06994 26.1855 5.97561C25.8316 5.23518 26.2082 4.41943 26.2082 4.41943C26.2082 4.41943 25.6394 5.14229 25.7318 5.82408C25.7551 5.9896 25.7915 6.15691 25.838 6.32171Z" fill="#00161D"/>
<path fill-rule="evenodd" clip-rule="evenodd" d="M25.2535 6.9558C25.4041 6.91774 25.562 6.87968 25.7219 6.84161C25.653 6.69592 25.591 6.54368 25.5351 6.38932C25.2021 5.44307 25.5984 4.41943 25.5984 4.41943C25.5984 4.41943 25.0309 5.3513 25.1201 6.19605C25.1454 6.44789 25.1877 6.70481 25.2535 6.9558Z" fill="#00161D"/>
<path fill-rule="evenodd" clip-rule="evenodd" d="M23.9214 17.0482C25.0394 16.7 26.2226 16.1287 26.7503 15.8509C26.8001 15.8236 26.8274 15.8236 26.8653 15.8784C26.93 15.9761 26.9048 16.171 26.8135 16.8825L26.2737 21.2411C26.0547 22.8984 26.0547 23.5959 26.0547 23.7765C26.0547 24.0825 26.1581 24.1531 27.5475 24.2094C27.585 24.2781 27.4955 24.6538 27.3153 24.6538C27.045 24.6538 26.1581 24.6265 25.3229 24.6265C24.8856 24.6265 24.0755 24.7103 22.803 24.7103C22.6744 24.7103 22.6483 24.6952 22.6744 24.6397C22.7769 24.3753 22.8285 24.2781 22.8673 24.2781C24.3847 24.1531 24.4744 24.0975 24.5391 23.707C24.5894 23.3737 24.744 22.7045 25.0012 20.8796C25.2457 19.0969 25.4247 17.8556 25.4642 17.4378C25.4763 17.2845 25.3999 17.2289 25.2713 17.2572C24.7952 17.3267 24.3969 17.3973 23.8955 17.4378C23.8823 17.4528 23.8185 17.3832 23.831 17.341L23.9214 17.0482Z" fill="#00161D"/>
<path fill-rule="evenodd" clip-rule="evenodd" d="M29.9513 20.2715C31.3144 20.2715 32.2004 21.2884 32.2004 22.6795C32.2004 23.4158 31.9106 24.1677 31.1686 24.9469C30.5069 25.6567 29.263 26.7687 28.1253 27.8119C28.0729 27.8684 28.0729 27.9662 28.1529 27.9662C29.1844 27.9662 30.7058 27.9088 31.1952 27.8684C31.3947 27.8535 31.5002 27.7997 31.5655 27.6316C31.6979 27.3119 31.8168 27.061 31.9106 26.9916C31.9759 26.9087 32.2538 26.8383 32.3461 26.8383C32.4533 26.8383 32.4649 26.8673 32.4265 26.9773C32.2941 27.2697 31.8571 28.8828 31.8034 29.0227C31.8034 29.0782 31.671 29.1488 31.6192 29.1488C30.7856 29.1488 29.5154 29.0651 26.525 29.0782C26.3664 29.0782 26.3127 29.0227 26.3401 28.8565C26.4063 28.6195 26.4846 28.5076 26.6308 28.3826C27.3321 27.8394 28.5891 26.796 29.3036 26.0044C30.4668 24.7364 30.8382 23.7653 30.8382 22.9156C30.8382 21.969 30.3089 21.4117 29.4095 21.4117C28.6809 21.4117 28.1394 21.8167 27.5827 22.7484C27.5436 22.7897 27.4778 22.7484 27.3849 22.6664C27.3048 22.5951 27.2658 22.4851 27.2794 22.4561C27.3575 22.206 27.6629 21.594 27.967 21.2329C28.2716 20.8703 28.9723 20.2715 29.9388 20.2715H29.9513Z" fill="#00161D"/>
<path fill-rule="evenodd" clip-rule="evenodd" d="M34.729 24.0762C35.7647 24.0762 36.6075 24.7433 36.6075 25.7913C36.6075 26.0489 36.463 26.3094 36.3034 26.4997C36.0158 26.8144 35.2543 27.3701 34.8985 27.6159C34.8604 27.6573 34.887 27.7245 34.9385 27.765C35.8828 28.1615 36.7256 28.8828 36.7256 30.0939C36.7256 30.7197 36.4745 31.116 36.1203 31.4831C35.6333 32.015 34.912 32.463 34.4664 32.6554C33.9677 32.8726 33.5072 32.9534 33.0351 32.9534C32.2871 32.9534 31.4459 32.6011 31.2746 32.2467C31.1965 32.0967 31.2215 31.9047 31.2613 31.8244C31.3144 31.7151 31.4459 31.5917 31.6038 31.4288C31.6952 31.3342 31.7483 31.3342 31.8266 31.3471C32.0492 31.4557 32.9287 32.2053 33.9925 32.2053C34.5179 32.2053 34.8721 32.0683 35.0965 31.7968C35.3326 31.5365 35.4771 31.1575 35.4771 30.6808C35.4771 30.1895 35.2144 29.7 34.8073 29.3051C34.3334 28.8552 33.5471 28.6105 32.7457 28.5562C32.917 28.1339 33.0218 28.0382 33.1265 27.9979C34.3867 27.603 35.306 27.1273 35.306 26.2144C35.306 25.5879 34.9518 25.0837 34.0991 25.0837C33.5338 25.0837 32.9818 25.3431 32.4034 26.0774C32.312 26.0489 32.1939 25.9138 32.1824 25.8042C32.1824 25.6956 32.8506 24.7433 33.494 24.3751C33.7699 24.2262 34.2038 24.0762 34.7158 24.0762H34.729Z" fill="#00161D"/>
</svg>
