<svg width="105" height="40" fill="none" xmlns="http://www.w3.org/2000/svg"><path d="M41.605 7.78c-4.38 0-7.943 3.781-7.956 8.433v.06c.012 4.657 3.576 8.439 7.956 8.439 1.4 0 2.785-.4 4.004-1.159l.945-.588.01 1.736h3.028l-.001-16.926-3.005-.005v1.8s-1.891-1.79-4.981-1.79zm0 13.745c-2.737 0-4.968-2.368-4.973-5.278.005-2.912 2.236-5.28 4.973-5.28 2.736 0 4.967 2.368 4.972 5.278-.005 2.912-2.236 5.28-4.972 5.28zM83.068 13.755l2.998-1.436c-1.366-2.774-4.07-4.533-7.048-4.533-4.386 0-7.954 3.794-7.954 8.457 0 4.664 3.568 8.458 7.954 8.458 2.865 0 5.515-1.667 6.918-4.298l-3.025-1.447c-.877 1.293-2.273 2.518-3.893 2.518-2.712 0-4.92-2.346-4.92-5.23 0-2.885 2.208-5.232 4.92-5.232 1.77 0 3.217 1.378 4.05 2.743zM60.642 7.769a7.59 7.59 0 00-4.005 1.151l-.945.587.004-1.737h-3.01V24.7h3.036v-8.473c0-2.885 2.207-5.231 4.92-5.231s4.92 2.346 4.92 5.23v8.475h3.035v-8.496l-.031-.625c-.312-4.38-3.793-7.811-7.924-7.811zM13.683 31.273l-1.11 3.241c2.433-.056 4.929-.39 6.294-1.845.815-.869 1.21-2.088 1.207-3.727v-.036l.01-.197v-2.674c-.903.83-1.92 1.52-3.027 2.04-.013 2.563-1.231 3.097-3.374 3.198z" fill="#fff"/><path d="M12.148 3.346C5.438 3.346 0 9.13 0 16.262s5.439 12.915 12.148 12.915c1.748 0 3.408-.396 4.91-1.102a12.075 12.075 0 003.027-2.04c-.903.83-1.922 1.52-3.028 2.035v-3.923s0-1.165-.007-1.16v-6.73c0-2.884-2.208-5.23-4.92-5.23-2.713 0-4.92 2.346-4.92 5.23 0 2.885 2.207 5.231 4.92 5.231.733 0 1.453-.175 2.108-.505v3.424c-.693.205-1.4.308-2.108.308-4.387 0-7.956-3.794-7.956-8.457 0-4.664 3.569-8.458 7.955-8.458 4.383 0 7.949 3.787 7.955 8.455v9.78c2.579-2.368 4.212-5.867 4.212-9.773 0-7.133-5.439-12.916-12.148-12.916zM27.434 0v24.7h3.005V1.164L27.434 0zM96.578 21.492c-1.6 0-3.021-.806-3.933-2.054l11.832-4.578c-.603-4.061-3.909-7.168-7.9-7.168-4.417 0-7.998 3.808-7.998 8.504 0 4.697 3.581 8.504 7.999 8.504 2.82 0 5.298-1.553 6.722-3.898l-2.958-1.145c-.913 1.122-2.26 1.835-3.764 1.835zm0-10.591c1.614 0 3.043.82 3.952 2.087l-8.921 3.452c-.004-.081-.012-.161-.012-.244 0-2.924 2.23-5.295 4.98-5.295zM74.323 40c-.503 0-.968-.102-1.396-.303a3.492 3.492 0 01-1.11-.816 3.722 3.722 0 01-.733-1.202 3.98 3.98 0 01-.266-1.447v-.03c0-.513.088-1.002.266-1.461.175-.46.42-.862.733-1.209.313-.346.683-.62 1.11-.822a3.235 3.235 0 011.396-.303c.326 0 .622.034.885.099.266.066.508.158.728.274.22.117.423.256.608.415.185.16.358.328.515.506l-.673.76a4.963 4.963 0 00-.893-.774c-.322-.216-.717-.324-1.183-.324-.345 0-.666.072-.966.22-.3.144-.56.342-.78.596a2.786 2.786 0 00-.516.892c-.123.344-.185.711-.185 1.104v.028c0 .394.064.762.192 1.104.128.343.303.643.53.899.224.258.487.46.792.606.305.145.637.217 1 .217.439 0 .83-.103 1.17-.309a4 4 0 00.918-.774l.647.647a4.57 4.57 0 01-1.17 1.012c-.436.263-.976.395-1.619.395zM78.885 29.568h1.018V39.83h-1.019V29.568zM85.39 40c-.51 0-.983-.102-1.413-.303a3.541 3.541 0 01-1.125-.816 3.7 3.7 0 01-.74-1.194 3.967 3.967 0 01-.265-1.455v-.03c0-.513.088-1.002.265-1.461.176-.46.423-.862.74-1.209.316-.346.694-.62 1.13-.822a3.38 3.38 0 011.435-.303c.512 0 .985.102 1.422.303.436.202.814.472 1.13.816.317.341.564.74.74 1.194.177.454.266.94.266 1.455v.028a3.967 3.967 0 01-1.02 2.672c-.316.346-.695.62-1.136.822A3.398 3.398 0 0185.39 40zm.027-.97a2.3 2.3 0 001.018-.226c.31-.15.573-.351.793-.605a2.8 2.8 0 00.517-.884c.123-.339.185-.7.185-1.083v-.03a3.1 3.1 0 00-.193-1.102 2.818 2.818 0 00-.535-.9 2.573 2.573 0 00-.806-.611 2.271 2.271 0 00-1.005-.226c-.37 0-.71.076-1.019.226-.308.15-.57.35-.787.604a2.889 2.889 0 00-.509.893 3.2 3.2 0 00-.185 1.09v.027c0 .394.064.762.193 1.104.127.343.303.64.529.892.224.254.49.455.799.605.309.15.644.225 1.005.225zM93.894 40c-.504 0-.97-.102-1.397-.303a3.495 3.495 0 01-1.11-.816 3.725 3.725 0 01-.733-1.202 3.977 3.977 0 01-.265-1.447v-.03c0-.513.088-1.002.265-1.461.176-.46.42-.862.734-1.209.312-.346.682-.62 1.11-.822a3.235 3.235 0 011.395-.303c.326 0 .622.034.886.099.265.066.508.158.728.274.22.117.422.256.607.415.185.16.358.328.516.506l-.673.76a4.956 4.956 0 00-.893-.774c-.323-.216-.717-.324-1.184-.324-.344 0-.666.072-.966.22-.3.144-.56.342-.779.596a2.786 2.786 0 00-.517.892c-.123.344-.185.711-.185 1.104v.028c0 .394.064.762.193 1.104.127.343.303.643.529.899.224.258.488.46.793.606.304.145.637.217.999.217.44 0 .83-.103 1.17-.309.338-.206.646-.464.919-.774l.647.647a4.57 4.57 0 01-1.17 1.012c-.437.263-.977.395-1.62.395zM98.362 29.568h1.019v7.086l3.69-4.092h1.268l-2.869 3.122 2.962 4.147h-1.216l-2.446-3.388-1.389 1.49v1.898h-1.019V29.568z" fill="#fff"/></svg>