<svg width="60" height="42" fill="none" xmlns="http://www.w3.org/2000/svg"><path fill-rule="evenodd" clip-rule="evenodd" d="M19.934 25.208v6.547c-.464-.638-.793-1.286-.978-1.93-.509-1.778-.208-3.229.978-4.617zm-.761-9.76c.271.203.699.442.717.454l.046.026-.001.387c-.163.077-.326.17-.49.269a8.114 8.114 0 00-.79-.569 13.614 13.614 0 00-1.027-.586.43.43 0 01.054-.098c.097-.132.298-.467.447-.717.325.264.862.699 1.044.835zM14.26 26.114a50.095 50.095 0 011.613 1.998c.013.04.029.078.043.117-1.909-1.827-3.642-2.906-5.176-3.224.716-.114 1.445-.238 2.137-.46.293.374.616.723.905 1.036.179.194.347.375.478.533zm-1.192-4.108c.154-.408.642-.553 1.015-.553.35 0 .658.125.751.301.075.148-.014.343-.1.48-.323.508-.932.877-1.483 1.175-.275-.54-.334-1.003-.183-1.403zm2.236 3.95l-1.517-1.776a4.749 4.749 0 001.55-1.203 8.902 8.902 0 00-.032 2.978zm2.444-7.897a10.937 10.937 0 00-1.74 2.82 1.163 1.163 0 00-.076-.203c-.202-.42-.616-.675-1.237-.759a3.226 3.226 0 00-.455-.032c-.554 0-.97.147-1.28.34.946-1.174 2.133-2.263 3.857-2.263.298 0 .61.033.931.097zm-1.086-4.01l-.129-.35.507.032.39.288-.61 1.031c-.208-.079-.423-.156-.647-.231a11.1 11.1 0 00.428-.45l.127-.14-.066-.18zm28.364 12.815c.215-.25.43-.502.639-.75.13-.158.3-.339.477-.533.29-.313.613-.662.906-1.036.652.208 1.34.333 2.018.44-1.454.274-3.09 1.238-4.884 2.881.279-.339.563-.674.844-1.002zm-4.27 2.961c-.185.64-.508 1.281-.967 1.913v-6.515c1.177 1.384 1.474 2.828.966 4.602zm1.447-14.457c-.389.192-.764.41-1.12.654-.258.174-.529.363-.796.577a4.928 4.928 0 00-.498-.276v-.318l.183-.102c.017-.012.444-.251.717-.453.18-.136.717-.57 1.044-.835a11.982 11.982 0 00.47.753zm3.48 4.517c-.146 0-.299.01-.454.032-.62.084-1.035.34-1.236.759-.092.194-.126.4-.126.602-.484-1.23-1.128-2.322-1.9-3.213.331-.067.653-.103.963-.103 1.643 0 2.802.992 3.726 2.104a2.515 2.515 0 00-.972-.18zm-.491 2.35c-.087-.138-.178-.333-.1-.48.091-.177.398-.302.749-.302.373 0 .863.145 1.015.553.151.4.092.863-.183 1.402-.533-.29-1.161-.669-1.481-1.174zm-.898.358l.053.08a.866.866 0 00.092.112l.015.025c.445.58.998 1.03 1.683 1.37l-1.783 2.087c.277-1.493.162-2.737-.06-3.673zm-.967-8.894l-.13.35-.065.18.127.14c.01.012.178.197.395.419a9.53 9.53 0 00-.637.22l-.586-.99.388-.287.508-.032zm12.116 11.816c.936-.242 1.26-.78 1.35-1.25.08-.41-.025-.863-.276-1.18a1.07 1.07 0 00-.85-.425c-.793.045-1.279.442-1.307 1.006 0 .519.362.882.808.882a.81.81 0 00.64-.317.4.4 0 01-.117.196c-.354.34-.91.514-1.659.514-.444 0-.936-.058-1.548-.181a22.917 22.917 0 00-2.115-.417 26.19 26.19 0 00-.865-.127c-.681-.092-1.33-.182-1.959-.404.215-.376.34-.724.38-1.057.061-.335.067-.667.017-.98.07.095.138.186.206.273 1.01 1.287 2.323 2.027 3.6 2.027 1.505 0 2.676-.994 2.984-2.536.44-2.19-1.592-5.345-5.753-6.836-.463-.167-1.35-.346-2.438-.346-.65 0-1.298.065-1.93.19l-.257-.33c.15-.196.468-.546 1.035-.899.983-.615 2.047-1.4 2.487-2.567.202-.54.293-1.13.33-1.623l.167.3.066-.995c0-.004.036-.522.108-.967.056-.361.194-.973.301-1.295.172-.069 1.823-.702 1.823-.702l-2.274-.26c.225-.306 1.611-2.31 1.611-2.31s-.93.6-1.819.828a1.33 1.33 0 01-.317.026c-.236-.018-.523-.062-.887-.062-.322 0-.623.035-.896.103-.62.154-.93 1.018-1.18 1.71-.092.254-.216.6-.288.678-.187.115-2.168 1.38-3.343 2.981-.443.508-1.032 1.283-1.489 1.9v-.14c.062-.229.1-.47.131-.704.159-1.346-.045-3.302-.11-3.758-.1-.637-.498-1.154-.787-1.493a6.43 6.43 0 00-.908-.847c-.032-.026-3.539-2.52-7.088-2.994l-.319-.04A10.959 10.959 0 0029.301 1c-3.142 0-6.143 1.143-6.178 1.158-.27.116-.69.382-1.158.737-.454.36-.842.67-1.031 1.087-.014.037-.819 2.122-1.003 3.626-.045.41-.075.841.096 1.251.1.226.248.508.46.87.233.375.48.776.69 1.087l-.962.08-.216.015a16.69 16.69 0 00-2.772-3.148c-.803-.776-1.76-1.452-1.987-1.585-.074-.078-.197-.423-.288-.675-.25-.692-.56-1.556-1.18-1.71a3.707 3.707 0 00-.897-.103c-.365 0-.65.044-.75.062-.24 0-.358-.003-.453-.025-.111-.03-1.795-.81-1.795-.81.008.01 1.362 1.985 1.586 2.29l-2.355.339s1.733.555 1.902.624c.108.319.246.932.305 1.295.07.445.106.963.106.967l.067.995.167-.3c.038.492.126 1.084.33 1.623.44 1.167 1.505 1.952 2.487 2.567.567.353.885.703 1.035.9l-.253.326a8.528 8.528 0 00-.367-.094 8.938 8.938 0 00-1.655-.162c-.868 0-1.698.139-2.465.415-1.833.656-3.43 1.737-4.498 3.041-1.029 1.26-1.486 2.643-1.255 3.795.308 1.542 1.48 2.536 2.984 2.536 1.277 0 2.59-.74 3.6-2.027.152-.195.305-.404.465-.623a2.826 2.826 0 00-.061 1.33c.039.333.164.681.377 1.057-.626.222-1.276.312-1.957.404-.242.032-.494.067-.746.107-.72.116-1.47.239-2.236.437-.603.12-1.108.181-1.546.181-.749 0-1.307-.173-1.66-.514-.026-.026-.083-.079-.117-.196a.807.807 0 001.447-.436l.002-.126c-.028-.567-.514-.964-1.238-1.007-.404-.002-.705.15-.922.423-.25.317-.353.77-.274 1.18.091.47.414 1.006 1.352 1.25-1.056.34-2.05.833-2.756 1.697-.653.797-.91 1.937-.593 2.65.2.453.601.702 1.13.702.1 0 .203-.009.312-.026.442-.072.892-.477.883-1.036a1.029 1.029 0 00-1.358-.974 3.45 3.45 0 01.338-.593c.37-.505.857-.895 1.535-1.224.078-.038.158-.074.24-.112a2.713 2.713 0 00-.35.706c-.208.643-.157 1.236.143 1.673.282.406.753.642 1.292.642.455 0 .91-.17 1.279-.483.37-.31.515-.616.515-1.088 0-.698-.572-1.29-1.248-1.29-.305 0-.584.122-.796.326.078-.109.163-.207.25-.29.455-.444 1.09-.787 1.969-1.066-.221.328-.27.656-.17.943.211.596.845.937 1.74.937.063 0 .123-.002.182-.006.646-.034 1.086-.213 1.474-.371.377-.15.702-.282 1.179-.282.282 0 .595.045.955.14 1.367.36 3.492 2.418 4.543 3.59-1.202-.635-2.273-.964-3.264-.964-.147 0-.294.01-.437.024-1.004.104-1.719.645-1.961 1.489-.214.75.007 1.56.552 2.02.433.367 1.075.551 1.91.551.689 0 1.51-.131 2.252-.364.745-.234 1.266-.334 1.738-.334.597 0 1.162.167 1.972.583v.31a7.572 7.572 0 00-.956-.069c-.163 0-.317.008-.454.022-1.073.124-1.53.543-1.723.873-.206.351-.228.775-.063 1.227.197.534.687.83 1.382.83a3.04 3.04 0 001.243-.285c.473-.218.813-.456 1.116-.664.294-.205.535-.37.816-.467l8.544 5.386.154.096.153-.098 8.299-5.376c.27.1.504.26.788.459.302.208.643.444 1.116.664.386.181.84.285 1.243.285.695 0 1.186-.296 1.381-.83.166-.452.144-.876-.06-1.227-.195-.33-.651-.749-1.726-.873a4.42 4.42 0 00-.453-.022c-.276 0-.593.022-.944.067v-.314c.806-.413 1.366-.577 1.96-.577.472 0 .992.1 1.738.334a7.892 7.892 0 002.251.364c.835 0 1.479-.184 1.911-.55.545-.46.768-1.272.552-2.021-.242-.844-.955-1.385-1.96-1.489a4.198 4.198 0 00-.438-.024c-.991 0-2.06.329-3.3 1.018 1.088-1.223 3.212-3.284 4.58-3.643.36-.096.672-.14.954-.14.478 0 .803.13 1.18.28.387.16.827.338 1.474.372.058.004.118.006.182.006.894 0 1.528-.34 1.739-.937.102-.287.051-.615-.138-.896a1.3 1.3 0 00-.1-.131c1.032.294 1.75.662 2.251 1.15.087.083.172.181.25.29a1.152 1.152 0 00-.795-.326c-.678 0-1.248.592-1.248 1.29 0 .472.143.778.514 1.088.37.312.824.483 1.28.483.54 0 1.01-.235 1.292-.642.3-.437.35-1.03.143-1.674a2.67 2.67 0 00-.35-.705l.24.112c.677.329 1.164.72 1.534 1.224.122.169.242.378.339.593a1.029 1.029 0 00-1.357.973c-.01.56.439.967.882 1.037.107.017.212.026.313.026.528 0 .928-.249 1.127-.7.317-.715.063-1.855-.593-2.652-.706-.864-1.699-1.357-2.753-1.697z" fill="#FEFEFE" stroke="#fff" stroke-width=".757"/><path fill-rule="evenodd" clip-rule="evenodd" d="M23.888 10.765c1.3.658 4.538 1.745 8.558 1.897-.181-.338-.408-.818-.674-2.064 0 0-4.352-1.166-7.884.167zM34.448 11.569h.024l.944 1.068.699.025a12.287 12.287 0 00-1.834-1.268c.056.056.112.116.167.175z" fill="#00161D"/><path fill-rule="evenodd" clip-rule="evenodd" d="M57.772 29.451c-.243-.184-.159-.463-.159-.463s-.03.193.147.37c.143.148.333.166.375.15 0 0-.152.107-.363-.057zm-.12-.518c.019-.047.065-.064.097-.076l.004-.002h.007l-.01.002c-.033.021-.055.073-.066.144a.482.482 0 00.006.129s-.069-.116-.038-.197zm.384.075s-.14-.066-.19-.014c-.008.008-.01.018-.013.028.04-.03.108-.02.17.03.069.056.096.136.064.181-.004.007-.009.007-.016.011.048.002.082-.03.076-.128-.009-.105.104.11-.05.181-.051.025-.201-.013-.299-.143-.099-.132-.034-.186.016-.224.048-.035.165-.009.242.078zm-3.88-1.642s-.04.264.199.506c.196.198.45.222.51.201 0 0-.207.143-.495-.076-.33-.25-.214-.63-.214-.63zm.245-.073c.066-.05.223-.015.327.103 0 0-.187-.089-.254-.02a.082.082 0 00-.024.043c.051-.044.15-.032.234.036.094.075.133.185.087.246-.005.007-.014.01-.019.014.063.003.11-.04.1-.171-.011-.146.143.148-.067.245-.069.034-.275-.019-.405-.195-.133-.179-.046-.253.02-.301zm-7.538-3.515c-.64-.342-1.435-.766-1.845-1.413-.877-1.378 1.727-1.734 2.188-.51.236.626.038 1.285-.343 1.923zm-.328-3.363c.523.229.617.405.798.695-.04-.06-.186-.253-.533-.455a.55.55 0 01-.403-.003c-.217-.098-.297-.253-.297-.253l.062.002c-.36-.072-.652-.03-.652-.03s.415-.225 1.025.044zm-2.882 2.819c-.09-.564-.27-1.396-.618-2.182l-.345.451c.445.877.608 1.494.655 2.083l-.11.132a8.399 8.399 0 00-.702-2.012l-.354.461c.451.812.632 1.396.712 1.97-.029.037-.058.076-.09.114a7.963 7.963 0 00-.73-1.786c-.02-.03-.037-.057-.052-.086l-.357.466c.463.754.66 1.31.774 1.883-.024.031-.046.063-.07.097a7.792 7.792 0 00-.797-1.647l-.076-.115-.34.446c.479.705.699 1.236.85 1.812-.018.027-.039.055-.057.084a7.878 7.878 0 00-.864-1.515c-.036-.05-.073-.099-.11-.147l-.332.434c.498.651.746 1.163.944 1.75-.015.024-.032.047-.05.074a8.542 8.542 0 00-1.94-2.421l.006-.331c.245.149.504.343.748.59l.343-.448a9.157 9.157 0 00-.684-.734l.148-.176c.236.174.487.394.722.67l.355-.466a9.684 9.684 0 00-.61-.76l.136-.164c.213.19.435.423.645.702l.372-.487a10.5 10.5 0 00-.544-.78l.128-.152c.189.203.387.443.575.725l.375-.487a12.152 12.152 0 00-.483-.796l.118-.142c.17.214.347.459.516.741l.366-.477c-.148-.305-.29-.574-.423-.811l.113-.134c.211.311.433.68.635 1.107l.013.028.041.033-.017.02c.45.966.584 1.623.596 2.242l-.131.14zm.085.69s-.01-.168-.048-.436l.089-.1a8.532 8.532 0 01-.041.536zm-.38.51s-.02-.178-.072-.47l.075-.09c.005.184.001.368-.004.56zm-.494.055l.06-.076c.017.174.027.35.036.536 0 0-.026-.175-.096-.46zm-.423.563l.042-.06c.024.152.047.306.065.468 0 0-.03-.153-.107-.408zm-.408.567c.01-.015.022-.03.032-.047.03.13.058.264.086.402 0 0-.033-.131-.118-.355zm-.398.583c.009-.011.017-.025.024-.036.034.103.063.21.096.32 0 0-.035-.103-.12-.284zm-.536 3.679c-.281.98-.841 1.874-1.543 2.674v-8.121c1.272 1.244 2.272 2.903 1.543 5.447zm-1.273-7.622l-.11.129a12.421 12.421 0 00-.095-.084l.003-.16c.064.035.13.072.202.115zm-.084-1.193s.1.044.258.137l-.04.05c-.138-.123-.218-.187-.218-.187zm.712.444l-.104.123a6.393 6.393 0 00-.246-.244l.063-.082c.087.057.183.123.287.203zm-.108-1.307s.106.06.274.184l-.036.048a5.06 5.06 0 00-.238-.232zm.73.562l-.096.115a6.45 6.45 0 00-.261-.3l.057-.075c.091.074.193.161.3.26zm-.139-1.426s.114.082.295.243l-.035.047a4.43 4.43 0 00-.26-.29zm-1.38-4.63c.492-.271.83-.462.83-.462l-.496 1.341s.428-.24.688-.433c.26-.194 1.297-1.04 1.297-1.04s.454.785.602.986c.082.111.125.237.159.384a9.31 9.31 0 00-1.331.749c-.313.213-.632.436-.937.693-.27-.18-.543-.33-.813-.448v-1.77zm1.89-3.268c.446-.094 1.518-.063 1.518-.063l-.386.094s-.775.062-1.014.092a14.69 14.69 0 00-.802.155s.237-.185.684-.278zm2.438-.114c1.002-.74 1.939-2.455 1.939-2.455-.29.98-.516 1.497-1.014 2.031-1.311 1.414-2.895 1.357-2.895 1.357s1.25-.403 1.97-.933zm2.036-6.351c.404-.928 1.973-.51 1.973-.51l-.45.772.669.752-.163 1.73-.205-.124-.12.59-.245-1.183-.606.928.08-.928-1.298 1.098.648-1.267-.973.886.649-1.309-.893.382s.751-1.401.934-1.817zm.604 6.273c-.642.848-2.222 1.735-2.222 1.735s1.478-1.126 2.115-1.962c.542-.718.858-2.799.858-2.799s-.11 2.177-.75 3.026zm-.551-.413c.435-.598.714-2.556.714-2.556s.023 1.856-.625 2.745c-.52.703-1.779 1.445-1.779 1.445s1.183-.936 1.69-1.634zm-1.709 1.124s.888-.752 1.267-1.309c.326-.477.566-2.313.566-2.313s.16 1.536-.5 2.465c-.397.557-1.333 1.157-1.333 1.157zm.05 2.935c-.44.109-.895.255-1.354.446l-.86-1.453.683-.504 1.048-.068-.292.797s.408.452.775.782zm.37 2.485l-.034.029c-.177-.08-.278-.111-.278-.111.107.027.212.055.312.082zm.548-.45a.546.546 0 01-.043.035 3.722 3.722 0 00-.344-.105c.134.021.263.046.387.07zm.13-.502v.003l-.045-.008c.016.002.03.002.045.005zm.058.603l.002.023c-.007-.001-.014-.005-.02-.008.006-.005.01-.01.018-.015zm.415.047c.435.134.875.338 1.425.7l.41-.376c-.038-.025-.074-.05-.111-.073a7.181 7.181 0 00-1.62-.747l.089-.079c.552.09 1.097.269 1.845.713l.43-.392-.086-.05a7.348 7.348 0 00-1.751-.674c.036-.033.072-.066.104-.1.557.057 1.127.215 1.926.644l.414-.379a7.549 7.549 0 00-1.966-.627l.118-.12c.57.02 1.17.154 2.038.575l.41-.375c-.775-.324-1.583-.47-2.127-.533l.128-.139c.594-.024 1.234.082 2.184.5l.035-.033.063.076c.413.189.771.395 1.078.599l-.124.124c-.234-.129-.5-.263-.799-.4l-.437.398c.28.162.526.332.74.498l-.13.131c-.23-.146-.492-.302-.792-.46l-.438.4c.279.182.521.376.724.564l-.138.14a11.359 11.359 0 00-.777-.528l-.449.41c.28.206.513.427.706.637l-.149.15c-.218-.187-.471-.39-.761-.598l-.429.393c.275.229.499.48.678.716l-.162.163a9.525 9.525 0 00-.738-.677l-.414.38c.271.261.48.545.64.808l-.171.172a8.94 8.94 0 00-1.214-1.2 7.88 7.88 0 00-1.387-.906l.066-.055c.574.177 1.077.407 1.728.895l.4-.367c-.049-.035-.096-.07-.148-.106a7.495 7.495 0 00-1.266-.725l.205-.067zm-.065-.61c-.017.016-.036.03-.055.047-.017-.003-.029-.008-.044-.012-.004-.016-.007-.031-.009-.047l.108.011zm.534-.486l-.07.065c-.276-.058-.446-.074-.446-.074.18-.003.349 0 .516.009zm.372-.46l.043.01-.012-.011.078-.003-.082.081c-.273-.04-.442-.051-.442-.051.144-.012.279-.02.415-.026zm.548-.457l-.087.094c-.251-.023-.403-.025-.403-.025.166-.028.328-.052.49-.07zm3.593 2.361a10.137 10.137 0 00-.36-.262l.1-.103c.125.108.23.213.325.306l-.065.06zm.201.083c.17.185.256.304.256.304s-.102-.1-.3-.264l.044-.04zm.185-1.091c.145.109.274.21.385.304l-.06.055c-.12-.08-.26-.168-.423-.263l.098-.096zm.537.436c.219.196.333.326.333.326s-.124-.11-.377-.286l.044-.04zm-1.502 1.365l.045-.042c.126.17.191.278.191.278s-.08-.09-.236-.236zm-.146-.135a7.034 7.034 0 00-.301-.256l.108-.106c.1.108.19.209.262.298l-.07.064zm-.608.822l.046-.043c.095.16.145.262.145.262s-.067-.084-.191-.22zm-.137-.144c-.07-.072-.155-.153-.247-.243l.114-.112c.08.102.149.2.208.285l-.075.07zm-.618.829l.046-.041c.067.141.1.23.1.23s-.052-.071-.146-.19zm-.126-.153c-.056-.066-.123-.14-.196-.224l.118-.118c.061.098.112.189.157.271l-.079.071zm-.631.842l.04-.038c.043.12.064.193.064.193s-.038-.06-.104-.155zm-.116-.16c-.047-.061-.096-.129-.154-.2l.12-.121c.044.09.081.172.112.247l-.078.073zm-6.17-.08l-.093.108c-.099-.14-.19-.26-.271-.36l.054-.07c.092.09.198.195.31.321zm.143-1.244l-.035.044c-.175-.243-.285-.364-.285-.364s.127.11.32.32zm.133.15c.097.109.203.24.314.385l-.086.104c-.1-.162-.194-.306-.276-.426l.048-.064zm9.094 6.487c.563.15 1.017.584 1.017.584s-.654-.434-1.471-.528c-.816-.095-1.67-.019-1.67-.019.89-.264 1.56-.188 2.124-.037zM45.916 32.7a6.879 6.879 0 01-1.613-.336s.877.126 1.604.169a7.08 7.08 0 01-.005-.34c-.485-.08-.96-.19-1.328-.269 0 0 .68.028 1.332.086.001-.05.003-.1.006-.148l.013-.185c-.38-.071-.764-.14-1.12-.186 0 0 .554-.03 1.136.006.016-.145.031-.275.048-.391-.375-.07-.781-.124-1.196-.154 0 0 .614-.086 1.229-.052.023-.147.05-.262.066-.344a7.941 7.941 0 00-1.365-.136s1.195-.264 1.917-.008a1.97 1.97 0 011.088.921c-.24-.288-.682-.536-1.303-.699-.02.063-.05.163-.08.296.107.014.21.035.306.061.828.224 1.246.629 1.246.629a12.259 12.259 0 00-1.604-.455 7.81 7.81 0 00-.065.355c.131.015.26.03.38.055.863.17 1.397.335 1.397.335-.372.077-1.063-.044-1.806-.183-.003.034-.01.065-.012.097-.01.072-.015.142-.019.213.053.004.103.012.152.015.898.111 1.552.045 1.552.045-.38.237-1.035.228-1.709.136.002.11.007.215.014.31.85.005 1.52-.256 1.52-.256-.354.337-.92.44-1.505.43.023.185.046.307.046.307l-.127.032c.78-.127 1.413-.502 1.413-.502-.89 1.069-2.946.642-3.49.323 0 0 .885.23 1.63.218.095 0 .187-.007.28-.016a6.586 6.586 0 01-.028-.379zm-5.298 2.846s.435.123.81.215c.01-.083.023-.174.038-.262-.22-.078-.438-.163-.626-.226 0 0 .322.05.647.13.023-.109.05-.208.073-.293a5.91 5.91 0 00-.61-.186s.322.014.64.083c.037-.118.069-.208.091-.266a4.38 4.38 0 00-.718-.194s.66-.035 1.024.163c.4.22.508.588.508.588-.104-.175-.322-.343-.641-.486a2.605 2.605 0 00-.1.235c.064.018.123.04.18.063.428.186.64.408.64.408-.17-.064-.486-.21-.864-.353-.024.076-.051.162-.078.262l-.004.012c.053.015.101.03.15.046.46.152.774.229.774.229-.219.056-.577-.042-.95-.168-.015.087-.027.17-.03.246.462.096.848.04.848.04-.218.136-.537.128-.857.056-.003.11 0 .182 0 .182l-.071.007c.426 0 .795-.145.795-.145-.562.494-1.627.086-1.891-.13 0 0 .456.2.855.258.05.008.1.012.149.014.001-.023.007-.106.018-.22a4.695 4.695 0 01-.8-.308zm-1.545-8.5l.038 5.578-.296-.05-.018-9.467.003-.002-.003-.323-.002.002-.009-1.704-.007.002-.046-7.072.419-.35-.06 11.936-.022.064-.012 1.427.015-.04zm-1.432 8.046a.937.937 0 01.137-.346 6.6 6.6 0 01.201-.263l.66-.42.466.088-1.464.941zm-1.517.974l-5.995 3.853-.018-.417 6.238-3.977-.225.541zm-6.104 3.157l-8.704-5.34.024-21.69.539-.053.127.722.018-.735.481-.048.218 1.278.032-1.3.383-.04.303 1.836.046-1.827c.13.06.266.12.41.18l.32 2.016.05-1.87c.134.05.273.1.418.15l.317 2.067.054-1.945c.134.043.271.085.412.124l.32 2.17.058-2.06.415.108.323 2.256.065-2.161.466.106.303 2.195.065-2.12.479.091.29 2.17.067-2.107.486.08.28 2.168.07-2.12c.081.013.163.024.246.035.13.018.26.032.389.047l.167 2.007.162-1.97.522.052.132 1.69.152-1.67c.19.017.377.028.561.04l.103 1.403.138-1.39c.205.01.404.015.6.02l.078 1.14.122-1.135c.217.002.427.003.634 0l.054.886.104-.887c.23-.006.45-.015.664-.027l.036.64.084-.647c.242-.017.476-.038.7-.062l.022.435.061-.444c.256-.032.497-.069.724-.11l.008.256.041-.266c.381-.074.717-.165.995-.273a3.551 3.551 0 00-.437-.412c-.441.11-2.1.63-4.953.424-2.265-.164-6.72-.908-8.311-2.415l-.172.017.008-.299c1.66-1.009 4.2-1.251 7.02-.845 5.19.75 7.03 2.94 7.315 3.3.075-.046.157-.098.239-.152.256-.066.722-.19 1.097-.32l.036 21.215-8.476 5.416zm-3.822-1.716l-.08-.221a3.094 3.094 0 00-.083-.21c1.347.865 3.92 2.883 3.92 2.883l-3.757-2.452zm-5.185-3.383s2.738 1.662 4.099 2.424l.123.333-4.222-2.756zm-.29 0l-.242-22.728.29.554.193 21.975-.241.2zm-1.477-9.523a8.152 8.152 0 00-.94 1.399c-.016-.027-.032-.05-.048-.074.197-.587.444-1.096.942-1.75l-.331-.432c-.037.046-.073.095-.11.145a7.82 7.82 0 00-.863 1.515l-.058-.084c.151-.575.373-1.107.851-1.812l-.341-.446-.076.115a7.814 7.814 0 00-.796 1.647l-.072-.097c.115-.571.311-1.129.774-1.883l-.356-.466-.05.086a8.01 8.01 0 00-.733 1.786l-.09-.114c.08-.574.26-1.158.713-1.969l-.355-.462-.023.046a8.343 8.343 0 00-.677 1.966l-.111-.132c.05-.588.209-1.205.655-2.083l-.344-.45c-.35.785-.53 1.617-.62 2.182l-.129-.142c.01-.616.146-1.275.594-2.24l-.017-.022.042-.033.012-.028c.203-.426.424-.796.636-1.107l.113.134c-.133.237-.276.506-.424.81l.368.478a6.66 6.66 0 01.514-.74l.119.14a11.7 11.7 0 00-.482.799l.373.485c.188-.282.386-.52.577-.725l.127.153c-.171.221-.356.482-.545.78l.372.486c.21-.279.433-.511.646-.701l.137.162c-.192.215-.399.47-.612.761l.356.466a4.22 4.22 0 01.722-.67l.147.175c-.212.207-.446.453-.684.735l.343.448c.264-.268.546-.471.807-.627l.157.188a8.957 8.957 0 00-1.21 1.202zm1 7.968c-.71-.804-1.276-1.705-1.558-2.69-.732-2.553.277-4.212 1.557-5.459v8.15zm-2.16-6.083c.032-.111.063-.218.095-.32l.024.035c-.083.181-.119.285-.119.285zm-.396-.513c.027-.138.056-.27.085-.4l.033.045c-.085.224-.118.355-.118.355zm-.397-.514c.02-.161.04-.316.064-.468l.045.06c-.08.255-.109.408-.109.408zm-.41-.511c.008-.185.017-.36.034-.535l.059.075c-.069.285-.093.46-.093.46zm-.398-.514a9.683 9.683 0 01-.004-.561l.076.091c-.054.291-.072.47-.072.47zm-.383-.51a9.532 9.532 0 01-.04-.537l.088.1c-.036.268-.048.436-.048.436zm1.775-4.98l.05.064c-.083.12-.177.264-.277.426l-.087-.104c.113-.145.218-.276.314-.386zm.453-.47s-.109.122-.286.366l-.033-.045c.192-.21.319-.32.319-.32zm.187 1.312a8.3 8.3 0 00-.27.36l-.092-.108c.11-.126.215-.232.31-.32l.052.068zm.127-.157l-.036-.048c.181-.16.295-.243.295-.243s-.097.096-.26.291zm.42.875l.057.076a7.769 7.769 0 00-.26.299l-.097-.115c.107-.099.209-.186.3-.26zm.194-.07l-.038-.048c.168-.125.275-.184.275-.184s-.09.08-.238.232zm.416.872l.062.08c-.074.072-.157.154-.246.246l-.103-.123c.103-.08.2-.146.287-.203zm-2.389-5.756c.038-.178.08-.322.173-.45.148-.201.603-.985.603-.985s1.037.845 1.297 1.039c.26.193.688.434.688.434l-.497-1.342s.28.158.7.389l-.004 1.836a5.251 5.251 0 00-.806.443 8.292 8.292 0 00-.923-.681c-.422-.265-.832-.49-1.231-.683zm-.528-.241l.002-.004a15.411 15.411 0 00-1.157-.395c.373-.33.793-.798.793-.798l-.291-.797 1.05.068.683.504-.89 1.504-.19-.082zm-1.567 2.099l-.035-.029c.102-.027.205-.055.313-.082 0 0-.1.03-.278.11zm-.54-.444c-.014-.01-.027-.023-.042-.036.126-.023.253-.048.387-.07 0 0-.127.03-.345.106zm-1.047 1.445a8.914 8.914 0 00-1.214 1.199l-.171-.17c.16-.265.37-.549.64-.81l-.413-.38a9.53 9.53 0 00-.74.677l-.162-.163a4.33 4.33 0 01.68-.716l-.43-.393a9.732 9.732 0 00-.76.6l-.15-.15a4.92 4.92 0 01.706-.639l-.448-.41c-.296.182-.555.362-.778.527l-.139-.139c.205-.187.445-.382.725-.563l-.44-.402c-.298.16-.56.314-.79.461l-.13-.13c.213-.167.46-.337.74-.499l-.438-.398c-.3.137-.565.271-.798.4l-.125-.124c.305-.204.666-.41 1.077-.598l.065-.077.035.033c.95-.418 1.589-.524 2.186-.5.033.037.075.085.126.14-.544.063-1.352.209-2.126.532l.41.375c.866-.42 1.466-.555 2.037-.575.036.039.076.079.118.12a7.53 7.53 0 00-1.934.611c-.012.004-.022.01-.034.016l.415.38c.8-.43 1.37-.588 1.925-.645.034.034.07.067.105.1a7.366 7.366 0 00-1.75.674l-.086.05.429.392c.748-.444 1.292-.623 1.847-.713l.088.079c-.414.13-.994.359-1.618.747-.04.024-.076.048-.114.073l.412.376c.57-.377 1.022-.58 1.473-.715l.196.062a7.602 7.602 0 00-1.307.745l-.146.106.398.367c.652-.488 1.154-.718 1.729-.895.022.02.043.037.067.055a7.866 7.866 0 00-1.388.907zm-1.618 1.71l-.08-.074c.032-.074.069-.158.113-.247l.12.12c-.058.072-.108.14-.153.2zm-.22.315s.02-.073.062-.192l.042.04a4.68 4.68 0 00-.105.152zm-.528-.996l-.08-.072a4.48 4.48 0 01.16-.27l.117.117c-.075.083-.14.158-.197.225zm-.272.341s.033-.089.1-.23l.046.04c-.095.119-.146.19-.146.19zm-.472-1.018l-.075-.068c.058-.088.128-.185.208-.287l.114.112c-.093.09-.177.17-.247.243zm-.328.363s.048-.102.145-.262l.048.043c-.126.135-.193.219-.193.219zm-.417-1.04l-.07-.063a5.58 5.58 0 01.264-.3l.106.106c-.114.095-.214.178-.3.256zm-.382.37s.064-.108.19-.277l.046.041a4.07 4.07 0 00-.236.236zm-.408-1.087c.093-.094.2-.2.323-.307l.102.102a9.862 9.862 0 00-.36.263l-.065-.058zm-.391.445s.086-.119.255-.304l.045.04c-.2.164-.3.264-.3.264zm-.316-1.09c.11-.095.24-.196.387-.305l.097.096a8.612 8.612 0 00-.424.265l-.06-.057zm-.483.457s.114-.13.333-.326l.043.04c-.253.176-.376.286-.376.286zm5.338-2.046s-.154.002-.402.025l-.088-.094c.16.017.323.04.49.069zm.945.839s-.17.016-.446.074c-.023-.023-.047-.043-.07-.065.168-.009.338-.012.516-.009zm-.806-.446c.108.006.22.011.332.02 0 0-.168.012-.441.052l-.08-.081.169.007a.164.164 0 01-.008.008s.01-.004.028-.006zm1.03.917l-.005.033c-.044.01-.092.023-.146.038l-.055-.048.206-.023zm.851-5.54c-.497-.535-.722-1.052-1.012-2.032 0 0 .937 1.715 1.939 2.455.72.53 1.97.933 1.97.933s-1.584.057-2.897-1.357zm-.788-.1c-.659-.93-.5-2.466-.5-2.466s.24 1.836.566 2.313c.38.557 1.267 1.309 1.267 1.309s-.936-.6-1.333-1.157zm-.463.221c-.65-.889-.625-2.745-.625-2.745s.276 1.959.712 2.556c.508.698 1.69 1.634 1.69 1.634s-1.258-.742-1.777-1.445zm-.463.224c-.64-.849-.752-3.026-.752-3.026s.316 2.081.86 2.8c.636.835 2.113 1.96 2.113 1.96s-1.58-.886-2.22-1.734zm-1.1-3.064l-.123-.59-.202.125-.163-1.73.669-.752-.45-.771s1.568-.42 1.973.509c.182.416.933 1.817.933 1.817l-.892-.382.65 1.309-.975-.886.65 1.267-1.299-1.098.08.928-.607-.928-.245 1.182zm6.177 3.256c.447.093.685.277.685.277s-.566-.123-.804-.154c-.238-.03-1.012-.092-1.012-.092l-.386-.094s1.072-.03 1.517.063zm1.392 9.812l-.04-.05c.159-.093.258-.137.258-.137s-.082.064-.218.187zm.402.855l.065.085c-.067.057-.143.122-.225.195l-.108-.13a5.01 5.01 0 01.268-.15zM30.877 8.45c0 .501-.39.907-.872.907-.48 0-.87-.406-.87-.907s.39-.905.87-.905c.481 0 .872.404.872.905zm8.18 1.598a1.852 1.852 0 01-.487 1.214l-.642.07a4.09 4.09 0 00.872-.825c.19-.233.258-.563.256-.46zm-17.324-.17a20.253 20.253 0 01-.591-.984 6.098 6.098 0 01-.177-.547 3.058 3.058 0 01-.1-.617c.004-.018.005-.038.007-.056.14-1.17.812-3.057.936-3.362-.004-.047.357-.423.733-.695.375-.288.809-.56.952-.615.347-.149 4.081-1.422 7.14-1.013l.152.022.015.003.152.017c3.059.392 6.373 2.587 6.675 2.82.16.123.482.393.763.716.285.32.521.702.559.99.039.257.177 1.597.156 2.72a3.673 3.673 0 01-1.099 1.678c-.293.21-.53.319-.53.319l-.226-.355.074-.047.092-.06c.206-.15.695-.548.797-.809 0-.004.003-.008.005-.01.198-.491.258-1.325.258-1.325s-.058.282-.16.614c-.035.115-.246.817-.603 1.053a3.81 3.81 0 01-.579.387l-.157-.203v.003c-.014-.02-.027-.035-.04-.055a.252.252 0 00.037-.032v.002c.109-.093.42-.382.558-.759.16-.495.21-1.191.21-1.191s-.14.693-.384 1.191c-.14.372-.546.644-.546.644l-.296-.337c.035-.037.07-.072.103-.112.305-.377.39-1.565.39-1.565s-.231 1.152-.622 1.548a6.44 6.44 0 00-.391-.35c.216-.483.28-1.379.28-1.379s-.154.763-.422 1.264a7.043 7.043 0 00-.488-.36c.133-.483.175-1.084.175-1.084s-.108.537-.3 1.004a8.998 8.998 0 00-.553-.335c.09-.421.12-.848.12-.848s-.077.39-.22.792a10.767 10.767 0 00-.6-.3c.064-.358.087-.674.087-.674s-.06.294-.168.636a12.225 12.225 0 00-.63-.265c.047-.305.065-.55.065-.55s-.047.232-.134.522a13.08 13.08 0 00-.653-.227c.037-.27.053-.475.053-.475s-.04.197-.115.456a13.952 13.952 0 00-2.336-.51c-.09-.012-.177-.022-.265-.032a4.36 4.36 0 01-.056-.342c-.036-.002-.073-.007-.108-.01a4.184 4.184 0 00-.001.336c-.159-.017-.317-.03-.472-.041a5.727 5.727 0 01-.075-.254c-.008-.025-.013-.05-.018-.075-.066-.003-.128-.003-.192-.003.008.106.015.212.026.319a8.669 8.669 0 00-.336-.015 9.337 9.337 0 01-.11-.308c-.098 0-.195.002-.29.004.015.101.028.203.05.302-.14 0-.278.002-.415.008a15.707 15.707 0 01-.11-.284c-.116.008-.23.02-.342.029.02.093.043.184.07.273a9.818 9.818 0 00-.405.032c-.032-.075-.07-.161-.106-.25-.126.015-.25.035-.372.055.025.083.05.163.081.239a13.56 13.56 0 00-.478.074c-.03-.065-.064-.14-.095-.216-.129.026-.254.057-.376.087.023.07.045.14.071.206a9.929 9.929 0 00-.448.105L25.3 7.23c-.132.039-.262.08-.388.122.024.06.048.118.076.176-.157.049-.31.1-.457.154a4.2 4.2 0 01-.077-.164 13.94 13.94 0 00-.387.158c.023.055.047.11.074.164a7.79 7.79 0 00-.43.202 5.32 5.32 0 01-.08-.167c-.134.066-.261.13-.383.195.027.064.057.123.088.183-.14.085-.275.173-.4.266a7.683 7.683 0 01-.105-.21c-.137.08-.262.16-.377.236.04.088.083.174.133.254a4.307 4.307 0 00-.347.343 5.517 5.517 0 01-.167-.33c-.16.12-.28.218-.363.29.07.146.147.285.239.41-.08.117-.153.24-.216.366zM17.427 35.96s.368.143.796.142l-.071-.003s.003-.074-.002-.182c-.318.068-.637.078-.855-.059 0 0 .385.06.85-.039a2.012 2.012 0 00-.034-.247c-.37.127-.73.224-.947.17 0 0 .314-.08.773-.232.046-.014.097-.03.15-.044-.003-.004-.003-.009-.004-.013a4.055 4.055 0 00-.08-.26c-.377.142-.69.287-.862.353 0 0 .211-.223.641-.41.056-.023.116-.044.179-.062a3.543 3.543 0 00-.1-.235c-.317.142-.537.312-.642.486 0 0 .108-.368.51-.587.363-.2 1.023-.162 1.023-.162-.274.05-.512.114-.72.192.024.059.056.147.092.266.319-.07.64-.084.64-.084a6.309 6.309 0 00-.61.187c.025.086.05.184.073.293.324-.079.649-.129.649-.129-.19.064-.407.146-.628.224.017.088.03.18.038.261.376-.092.81-.214.81-.214a4.37 4.37 0 01-.8.309c.013.114.018.196.018.22.05-.002.1-.008.15-.015.4-.058.853-.259.853-.259-.264.219-1.329.625-1.89.133zm-5.114-3.45s.634.375 1.413.5l-.127-.031s.025-.12.046-.309c-.584.013-1.15-.089-1.505-.425 0 0 .672.258 1.521.254.008-.095.012-.2.013-.312-.672.093-1.329.103-1.708-.135 0 0 .654.067 1.552-.042.05-.007.1-.013.151-.018a2.694 2.694 0 00-.018-.213l-.012-.095c-.742.138-1.432.258-1.807.183 0 0 .536-.167 1.4-.337.118-.023.247-.04.379-.055a9.15 9.15 0 00-.065-.353c-.71.15-1.292.34-1.604.454 0 0 .416-.405 1.243-.628.097-.029.202-.048.31-.061a5.22 5.22 0 00-.08-.298c-.623.164-1.066.412-1.306.7 0 0 .297-.641 1.09-.922.721-.254 1.917.007 1.917.007-.514.011-.97.06-1.368.14.02.08.043.196.069.342a7.188 7.188 0 011.228.053c-.415.026-.82.083-1.196.151.016.119.033.25.047.392.584-.036 1.137-.005 1.137-.005a19 19 0 00-1.12.186c.004.059.01.12.013.185l.008.148c.65-.06 1.33-.085 1.33-.085-.368.079-.843.188-1.327.267 0 .117-.002.233-.006.342.726-.046 1.604-.17 1.604-.17-.36.124-.98.287-1.612.337-.01.187-.023.33-.027.376.09.011.184.018.278.02.745.011 1.63-.22 1.63-.22-.543.318-2.601.745-3.491-.323zm-.192-6.41c-.332-.138-1.717-.658-2.921-.486-1.228.175-1.576.579-1.576.579.192-.24.365-.48 1.249-.66.683-.138 1.096-.119 1.71 0 .528.103 1.296.457 1.538.567a.52.52 0 01.076.034c-.008-.004-.035-.017-.076-.034zm.674-4.246c.462-1.224 3.064-.868 2.188.51-.41.647-1.204 1.071-1.845 1.413-.38-.638-.578-1.297-.343-1.923zm.672-1.44c.611-.27 1.025-.044 1.025-.044s-.292-.041-.652.03l.062-.002s-.08.155-.297.253a.548.548 0 01-.402.003c-.349.202-.496.396-.533.455.18-.29.274-.466.797-.695zm-8.33 7.658c.059.021.315-.003.511-.2.239-.243.199-.507.199-.507s.113.381-.215.63c-.29.22-.495.077-.495.077zm.012-.529c-.01.131.038.174.1.171-.005-.004-.013-.007-.018-.014-.046-.061-.007-.171.086-.246.085-.068.183-.08.235-.036a.09.09 0 00-.024-.043c-.065-.069-.255.02-.255.02.104-.118.262-.154.329-.103.067.048.154.122.02.3-.131.177-.336.23-.406.196-.207-.098-.055-.39-.067-.245zm-3.273 1.572c-.008.098.027.13.073.128-.004-.004-.01-.004-.014-.01-.033-.046-.006-.127.064-.182.06-.05.13-.06.17-.03-.003-.01-.006-.02-.014-.028-.05-.052-.189.014-.189.014.076-.087.194-.113.243-.078.049.038.113.092.016.224-.099.13-.249.168-.3.143-.154-.072-.041-.286-.05-.18zm.355.335c-.213.164-.365.056-.365.056.044.017.232-.001.377-.148.177-.178.146-.372.146-.372s.085.28-.158.464zm2.386-5.948c-.066.088-.168.114-.203.098-.104-.05-.027-.196-.034-.123-.005.066.02.087.051.085-.003-.002-.007-.002-.01-.006-.023-.03-.003-.086.044-.125.041-.032.089-.038.115-.017-.003-.007-.005-.015-.01-.02-.034-.035-.128.01-.128.01.053-.06.132-.078.164-.052.033.024.077.062.01.15zm.004.201c-.144.111-.247.038-.247.038.03.012.157 0 .256-.1.12-.122.098-.252.098-.252s.058.19-.107.314zm50.773-.351c.034-.026.114-.009.166.052 0 0-.096-.045-.128-.01-.006.005-.007.013-.01.02.027-.02.074-.015.115.017.048.04.067.095.045.125-.004.004-.009.004-.012.006.032.002.056-.019.05-.085-.004-.073.073.073-.031.123-.036.016-.137-.01-.204-.098-.066-.088-.022-.126.009-.15zm-.014.351c-.163-.124-.107-.314-.107-.314s-.02.13.099.252c.099.1.225.112.256.1 0 0-.102.073-.248-.038zm2.694 3.671c-1.115-1.358-3.004-1.754-4.728-2.133 1.294.15 3.028.107 3.255-1.073.114-.585-.244-1.279-.893-1.238-.415.024-.935.21-.963.716 0 .006.004.008.006.012 0 .015-.004.027-.004.042 0 .279.23.504.516.504a.51.51 0 00.515-.504.505.505 0 00-.41-.491c.3-.149.789.096.847.562.037.302.002.623-.229.843-.848.817-2.405.623-3.477.408-.81-.21-1.61-.335-2.222-.433-1.072-.174-2.111-.224-3.11-.663.278-.411.487-.84.533-1.26.266-1.404-.572-2.732-2.371-2.487-1.489.203-1.16 1.418-.813 2.057a1.306 1.306 0 00.212.317c.005.01.01.016.017.025.541.706 1.212 1.15 1.948 1.452l-2.057 2.4c-.276.35-.562.701-.845 1.052.758-2.356.505-4.25.106-5.457-.579-1.75-1.46-3.17-2.44-4.174 3.862-1.16 5.587 2.177 6.989 3.961 2.287 2.915 5.547 2.28 6.083-.376.43-2.143-1.757-5.124-5.575-6.49-.589-.213-2.328-.56-4.4-.109l-.509-.652s.304-.586 1.255-1.18c.95-.59 1.96-1.328 2.369-2.417.411-1.086.331-2.424.324-2.531-.005-.105.222.303.222.303s.036-.531.11-.997c.063-.399.232-1.141.356-1.46.224-.183 1.234-.3 1.234-.3l.033-.078-1.707-.074c-.02-.013-.232-.18-.232-.18s.696-.962.966-1.268c.322-.365.505-.605.505-.605s-.954.523-1.156.572c-.2.047-.44.027-.54.033 0 0-.793-.16-1.562.032-.772.192-1.028 2.153-1.388 2.354-.152.084-.611.45-1.15.913h1.042s-.669.323-1.235.482a5.369 5.369 0 00-.646.257c-.21.192-.41.382-.6.564.5-.163 1.11-.297 1.26-.33-.233.07-1.223.622-1.946 1.035-.66.747-1.675 2.145-2.013 2.614v-.771l-.174-.017c.188-.27.254-.609.307-1.006.154-1.315-.054-3.286-.11-3.673-.083-.521-.395-.966-.716-1.34a6.088 6.088 0 00-.862-.802c-.387-.288-3.69-2.505-6.97-2.942a55.207 55.207 0 00-.318-.042c-3.284-.42-7.012.875-7.456 1.056-.263.11-.678.381-1.092.695-.413.327-.782.612-.947.976-.14.357-.817 2.217-.979 3.532-.045.415-.06.77.071 1.09.106.24.265.53.443.833.325.527.795 1.287 1.005 1.516l-1.503.123-.002.592c-.418-.577-1.295-1.766-1.883-2.434-.725-.413-1.717-.965-1.947-1.035.15.033.758.167 1.26.33-.189-.182-.392-.372-.602-.564a5.308 5.308 0 00-.645-.257c-.567-.16-1.236-.482-1.236-.482h1.044c-.54-.463-.998-.829-1.15-.913-.362-.2-.619-2.162-1.388-2.354-.77-.192-1.562-.032-1.562-.032-.102-.006-.34.014-.542-.033-.2-.05-1.155-.572-1.155-.572s.183.24.505.605c.27.306.966 1.268.966 1.268s-.21.167-.232.18l-1.707.074.032.079s1.01.116 1.235.298c.125.32.293 1.062.356 1.46.073.467.11.998.11.998s.229-.408.222-.303c-.007.107-.087 1.445.323 2.531.41 1.089 1.42 1.826 2.37 2.418.95.593 1.255 1.179 1.255 1.179l-.513.658c-.183-.05-.364-.1-.541-.14l-.003.003c-1.674-.33-3.034-.095-3.966.24-3.817 1.366-6.004 4.347-5.573 6.49.533 2.657 3.795 3.29 6.081.376 1.399-1.78 3.12-5.106 6.96-3.968-.983 1.004-1.867 2.425-2.447 4.181-.377 1.144-.625 2.9-.008 5.08-.169-.226-.341-.452-.517-.674L13.3 24.03c.737-.303 1.407-.746 1.947-1.452a.263.263 0 00.018-.025c.023-.024.052-.058.088-.108.041-.058.085-.13.124-.21.346-.638.676-1.853-.813-2.056-1.8-.245-2.637 1.083-2.373 2.487.049.42.256.849.535 1.26-1 .44-2.037.49-3.11.663-.61.098-1.413.223-2.222.433-1.07.215-2.63.409-3.478-.408-.23-.22-.266-.54-.228-.843.058-.465.546-.71.847-.562a.505.505 0 00-.41.49.51.51 0 00.515.505.51.51 0 00.515-.504c0-.015-.002-.027-.004-.042.002-.004.007-.006.006-.012-.025-.506-.548-.692-.963-.716-.648-.04-1.006.653-.893 1.238.228 1.18 1.963 1.223 3.257 1.073-1.726.379-3.614.775-4.729 2.133-.913 1.112-1.016 3.083.582 2.829.275-.045.64-.309.635-.728a.735.735 0 00-.734-.729.73.73 0 00-.733.729c0 .178.068.34.176.468-.641-.275-.141-1.583.33-2.228.442-.605 1-1.003 1.647-1.316a9.93 9.93 0 011.703-.622c-.662.385-1.185.896-1.41 1.59-.569 1.759 1.16 2.42 2.257 1.499.326-.275.406-.506.406-.854 0-.542-.454-.981-.956-.981-.501 0-.908.44-.908.98 0 .455.289.835.679.945-.499.227-1.062.13-1.197-.61-.125-.684.213-1.36.677-1.812.658-.64 1.576-1.002 2.5-1.255.186-.044.37-.09.553-.14.313-.072.619-.135.908-.197 1.273-.266 2.684-.353 3.94-.791.493.665 1.128 1.275 1.503 1.725a48.6 48.6 0 011.655 2.05c.199.547.454 1.114.774 1.704-1.81-1.949-4.518-4.38-6.997-4.455-2.243-.066-2.731.853-2.554 1.355.23.654 1.073.764 1.634.733 1.53-.085 1.774-1.011 3.703-.506 1.505.395 3.72 2.592 4.711 3.697.246.366.528.72.836 1.063.08.123.133.22.169.293-1.563-1.08-3.283-1.968-4.915-1.799-1.999.208-2.153 2.213-1.257 2.97.898.757 2.77.486 3.901.131 1.744-.544 2.569-.46 4.1.355v.85c-.639-.1-1.226-.143-1.677-.092-1.395.159-1.853.855-1.547 1.686.306.83 1.503.718 2.236.375.976-.453 1.385-.994 2.098-1.186l8.672 5.461 8.432-5.452c.695.198 1.106.73 2.07 1.177.733.343 1.93.456 2.235-.375.306-.831-.152-1.527-1.548-1.686-.449-.05-1.03-.008-1.66.089v-.854c1.52-.81 2.346-.89 4.084-.348 1.133.355 3.004.626 3.9-.13.898-.758.742-2.763-1.255-2.97-1.635-.17-3.352.718-4.916 1.798a2.86 2.86 0 01.17-.293c.308-.343.588-.697.834-1.063.994-1.105 3.207-3.302 4.71-3.697 1.931-.505 2.174.421 3.705.506.561.03 1.405-.08 1.635-.733.176-.502-.312-1.421-2.555-1.355-2.48.076-5.185 2.506-6.997 4.455.252-.465.465-.918.64-1.355.637-.826 1.34-1.608 2.003-2.4.377-.449 1.012-1.06 1.504-1.724 1.254.438 2.667.525 3.939.791.29.062.597.125.908.198.184.049.368.096.554.14.922.252 1.842.614 2.5 1.254.462.452.802 1.128.677 1.812-.135.74-.698.837-1.195.61.388-.11.676-.49.676-.944 0-.542-.406-.981-.906-.981-.502 0-.958.44-.958.982 0 .347.08.578.407.853 1.095.92 2.824.26 2.258-1.499-.226-.694-.75-1.205-1.41-1.59.585.163 1.16.357 1.701.622.648.313 1.206.71 1.648 1.316.473.645.97 1.953.329 2.228a.715.715 0 00.178-.468.734.734 0 00-1.466 0c-.009.419.358.683.633.728 1.599.254 1.495-1.717.582-2.829z" fill="#00161D"/><path fill-rule="evenodd" clip-rule="evenodd" d="M21.862 7.463c-.359-1.188.192-2.41.192-2.41s-.7 1.196-.602 2.169c.033.327.09.672.188 1.002a7.36 7.36 0 01.393-.27 6.132 6.132 0 01-.171-.491z" fill="#00161D"/><path fill-rule="evenodd" clip-rule="evenodd" d="M22.244 7.59c.132-.063.271-.125.421-.188a4.532 4.532 0 01-.192-.434c-.353-.94.165-1.915.165-1.915s-.67.942-.575 1.724c.032.265.088.545.18.813zM30.001 7.907c0 .175.137.317.305.317.17 0 .306-.142.306-.317a.311.311 0 00-.305-.317.311.311 0 00-.306.317zM13.495 5.362a.343.343 0 00-.054-.184.187.187 0 01-.15.08c-.108 0-.194-.09-.196-.205a.326.326 0 00-.211.309c0 .18.136.325.306.325.167 0 .305-.145.305-.325zM29.54 5.687s-.095.255-.15.633l.16.001c-.029-.359-.01-.634-.01-.634zM23.453 6.956c.14-.054.283-.11.435-.163a4.371 4.371 0 01-.197-.454c-.342-.935.133-1.92.133-1.92s-.63.934-.538 1.73c.031.265.082.542.167.807zM47.424 5.687c.17 0 .306-.145.306-.325a.324.324 0 00-.21-.309c-.002.114-.088.206-.195.206a.19.19 0 01-.153-.08.347.347 0 00-.054.183c0 .18.138.325.306.325zM27.042 6.322l.514-.048c-.046-.084-.094-.17-.133-.254-.353-.755-.03-1.6-.03-1.6s-.53.728-.437 1.445a3.6 3.6 0 00.086.457zM27.581 5.688c.093-.008.187-.013.28-.02l-.008-.02c-.21-.571-.055-1.229-.055-1.229s-.289.546-.236 1.11l.02.159z" fill="#00161D"/><path fill-rule="evenodd" clip-rule="evenodd" d="M24.046 6.956c.145-.048.296-.094.453-.14a4.361 4.361 0 01-.19-.45c-.338-.94.1-1.947.1-1.947s-.602.934-.512 1.754c.027.258.074.525.149.783zM28.472 6.315c-.15-.628-.047-1.262-.047-1.262s-.285.59-.256 1.268c.1-.001.201-.001.303-.006zM25.838 6.322c.162-.025.328-.047.495-.067a2.703 2.703 0 01-.147-.28c-.354-.74.022-1.556.022-1.556s-.569.723-.476 1.405c.023.166.06.333.106.498zM25.253 6.956c.151-.038.309-.076.469-.114a5.211 5.211 0 01-.187-.453c-.333-.946.063-1.97.063-1.97s-.567.932-.478 1.777c.025.252.068.509.133.76zM23.921 17.048c1.118-.348 2.302-.92 2.83-1.197.05-.027.076-.027.114.027.065.098.04.293-.051 1.005l-.54 4.358c-.22 1.657-.22 2.355-.22 2.535 0 .306.104.377 1.494.433.037.07-.052.445-.233.445-.27 0-1.157-.027-1.992-.027-.437 0-1.247.083-2.52.083-.129 0-.155-.015-.129-.07.103-.265.154-.362.193-.362 1.518-.125 1.607-.18 1.672-.571.05-.333.205-1.003.462-2.827.245-1.783.424-3.024.463-3.442.012-.153-.064-.21-.193-.18-.476.069-.874.14-1.376.18-.013.015-.076-.055-.064-.097l.09-.293z" fill="#00161D"/><path fill-rule="evenodd" clip-rule="evenodd" d="M29.951 20.271c1.363 0 2.25 1.017 2.25 2.409 0 .736-.29 1.488-1.032 2.267-.662.71-1.906 1.822-3.044 2.865-.052.056-.052.154.028.154 1.031 0 2.553-.057 3.042-.098.2-.014.305-.068.37-.236.133-.32.252-.571.346-.64.065-.083.343-.154.435-.154.107 0 .119.03.08.14-.132.292-.569 1.905-.623 2.045 0 .055-.132.126-.184.126-.833 0-2.104-.084-5.094-.07-.159 0-.212-.056-.185-.223.066-.237.145-.348.29-.473.702-.544 1.96-1.587 2.674-2.379 1.163-1.268 1.534-2.239 1.534-3.088 0-.947-.53-1.504-1.428-1.504-.73 0-1.27.405-1.827 1.336-.04.042-.105 0-.198-.082-.08-.07-.12-.18-.106-.21.079-.25.384-.862.688-1.223.305-.363 1.005-.962 1.972-.962h.012z" fill="#00161D"/><path fill-rule="evenodd" clip-rule="evenodd" d="M34.729 24.076c1.036 0 1.879.667 1.879 1.715 0 .258-.145.518-.305.709-.287.314-1.049.87-1.404 1.116-.039.041-.012.108.04.149.944.396 1.787 1.118 1.787 2.329 0 .626-.252 1.022-.606 1.39-.487.531-1.208.979-1.654 1.171-.498.218-.959.298-1.43.298-.749 0-1.59-.352-1.761-.706a.528.528 0 01-.014-.423c.053-.109.185-.232.343-.395.091-.095.144-.095.223-.082.222.109 1.102.858 2.165.858.526 0 .88-.137 1.105-.408.236-.26.38-.64.38-1.116 0-.492-.263-.981-.67-1.376-.474-.45-1.26-.695-2.061-.749.171-.422.276-.518.38-.558 1.26-.395 2.18-.87 2.18-1.784 0-.626-.354-1.13-1.207-1.13-.565 0-1.117.26-1.696.993a.385.385 0 01-.22-.273c0-.108.668-1.06 1.311-1.429a2.63 2.63 0 011.222-.299h.013z" fill="#00161D"/></svg>