<svg width="44" height="19" fill="none" xmlns="http://www.w3.org/2000/svg"><path fill-rule="evenodd" clip-rule="evenodd" d="M37.51.002v9.431h-.134L32.45 1.346C31.829.344 31.206.002 29.96.002H25.01v9.431h-.123l-4.925-8.087C19.34.344 18.718.002 17.472.002h-.582V0h-4.389v9.43h-.135L7.442 1.345C6.819.342 6.197 0 4.952 0H0v18.44h5.493V7.903h.135l5.845 9.194c.332.511.651.849 1.048 1.058v.003h.007c.379.2.83.282 1.435.282h.226l.012.002h3.813V7.906h.135l5.845 9.193c.323.497.633.832 1.016 1.043.387.213.848.3 1.473.3h4.02V7.906h.135l5.844 9.193c.65 1 1.245 1.343 2.49 1.343h4.032V.002h-5.493z" fill="#fff"/></svg>