<svg width="47" height="52" fill="none" xmlns="http://www.w3.org/2000/svg"><path d="M1.461 13.214l21.353-11.69.566 7.193-21.919 4.497z" fill="#575582"/><path d="M45.3 12.483L22.65 1.523l.644 6.947L45.3 12.483z" fill="#827CA9"/><path d="M24.842 51.207l13.162-16.805 7.295 3.361-20.457 13.444z" fill="#302C58"/><path d="M24.841 51.207L11.19 34.402l-9.728 2.98 23.38 13.825z" fill="#302F51"/><path d="M45.3 12.483v24.842l-7.307-3.41 7.306-21.432z" fill="#353457"/><path d="M1.461 13.944v23.38l9.498-2.853-9.498-20.527z" fill="#282747"/><path d="M45.299 13.038l-7.333 21.364L23.38 8.83l21.919 4.208z" fill="#47467E"/><path d="M1.461 12.947l9.625 21.455L23.38 8.83 1.461 12.947z" fill="#3D396B"/><path d="M24.517 51.207l13.476-16.805-27.033.56 13.557 16.245z" fill="#4F4E8A"/><path d="M23.3 8.83L10.96 34.402l27.033-.554L23.3 8.83z" fill="#3C3A69"/><path d="M10.96 35.133L23.29 8.1 37.994 34.56l-27.033.572zM23.29 8.998L11.593 34.725l25.69-.572L23.29 8.998z" fill="#fff"/><path d="M1.62 13.214l-.159-.4 21.281-11.29.638 7.526-21.76 4.164zm20.804-11.05L2.896 12.573 22.98 8.73l-.557-6.566z" fill="#fff"/><path d="M45.14 13.214L23.21 8.766 22.65.793 45.3 12.71l-.16.504zM23.61 8.43l20.169 4.028-20.65-10.91.48 6.882zM24.352 51.207l-.241-.325 13.484-17.21 7.704 3.815-20.947 13.72zM37.675 34.24l-12.52 15.912 19.262-12.583-6.742-3.329z" fill="#fff"/><path d="M24.595 51.207L.73 37.472l10.416-3.07.082.081 13.613 16.4-.246.324zM1.715 37.634l22.06 12.684-12.793-15.35-9.267 2.666zM45.3 38.056l-8.038-3.7 7.627-21.873.41.083v25.49zm-7.463-3.947l7.052 3.289V13.799l-7.053 20.31z" fill="#fff"/><path d="M1.461 38.055v-24.03l.38-.08L10.959 35l-9.498 3.054zm.456-23.146v22.584l8.586-2.733L1.917 14.91zM37.695 34.402L22.65 8.1l22.65 4.37-7.604 21.932zM23.458 8.666l14.156 24.765 7.2-20.718-21.356-4.047z" fill="#fff"/><path d="M11.124 35.133L1.461 12.415 23.381 8.1 11.123 35.133zM2.09 12.741l9.034 21.415L22.673 8.67 2.09 12.74zM46.03 12.849c0 .208-.313.365-.73.365-.418 0-.731-.157-.731-.365 0-.209.313-.366.73-.366.313 0 .73.157.73.366z" fill="#fff"/><path d="M45.3 13.944c-.813 0-1.462-.649-1.462-1.46 0-.813.65-1.462 1.461-1.462.812 0 1.461.65 1.461 1.461 0 .812-.649 1.461-1.46 1.461zm0-1.623c-.163 0-.244.081-.244.243 0 .163.08.244.243.244.163 0 .244-.081.244-.244 0-.162-.081-.243-.244-.243zM38.724 34.041c0 .207-.313.362-.73.362-.418 0-.732-.155-.732-.362 0-.206.314-.361.731-.361.313-.052.73.155.73.361z" fill="#fff"/><path d="M37.993 35.133c-.812 0-1.462-.65-1.462-1.462 0-.812.65-1.461 1.462-1.461.811 0 1.461.65 1.461 1.461 0 .812-.65 1.462-1.461 1.462zm0-1.624c-.163 0-.244.081-.244.243 0 .163.081.244.244.244.162 0 .243-.081.243-.244 0-.162-.08-.243-.243-.243zM46.03 37.324c0 .418-.313.731-.73.731a.713.713 0 01-.731-.73c0-.418.313-.731.73-.731.313 0 .73.313.73.73z" fill="#fff"/><path d="M45.3 38.786c-.813 0-1.462-.65-1.462-1.461 0-.812.65-1.462 1.461-1.462.812 0 1.461.65 1.461 1.462 0 .811-.649 1.46-1.46 1.46zm0-1.705c-.163 0-.244.081-.244.244 0 .162.08.243.243.243.163 0 .244-.081.244-.243 0-.163-.081-.244-.244-.244zM24.842 50.484c0 .413-.157.723-.366.723-.208 0-.365-.31-.365-.723s.157-.722.365-.722c.21-.104.366.31.366.722z" fill="#fff"/><path d="M24.476 51.937c-.609 0-1.096-.65-1.096-1.461 0-.812.487-1.461 1.096-1.461.609 0 1.096.65 1.096 1.46-.06.813-.487 1.462-1.096 1.462zm0-1.623c-.122 0-.183.08-.183.243 0 .162.061.244.183.244s.183-.082.183-.244c0-.162-.122-.244-.183-.244zM11.69 34.768c0 .208-.313.365-.73.365-.418 0-.731-.157-.731-.365 0-.21.313-.366.73-.366.313 0 .73.157.73.366z" fill="#fff"/><path d="M10.96 35.864c-.813 0-1.462-.65-1.462-1.461 0-.812.65-1.462 1.461-1.462.812 0 1.462.65 1.462 1.462 0 .812-.65 1.46-1.462 1.46zm0-1.705c-.163 0-.244.081-.244.244 0 .162.081.243.243.243.163 0 .244-.081.244-.243 0-.081-.081-.244-.244-.244zM2.192 12.849c0 .208-.313.365-.73.365-.418 0-.732-.157-.732-.365 0-.209.314-.366.731-.366.418 0 .73.157.73.366z" fill="#fff"/><path d="M1.461 13.944C.65 13.944 0 13.296 0 12.485c0-.813.65-1.462 1.461-1.462.812 0 1.461.65 1.461 1.461 0 .812-.649 1.461-1.46 1.461zm0-1.704c-.162 0-.243.08-.243.243 0 .163.08.244.243.244.163 0 .244-.081.244-.244 0-.162-.081-.243-.244-.243zM24.11 8.465c0 .209-.312.365-.73.365-.417 0-.73-.156-.73-.365s.313-.365.73-.365c.418 0 .73.156.73.365z" fill="#fff"/><path d="M23.38 10.292c-.812 0-1.461-.65-1.461-1.462 0-.811.65-1.46 1.461-1.46.812 0 1.462.649 1.462 1.46 0 .812-.65 1.462-1.462 1.462zm0-1.705c-.162 0-.243.081-.243.243 0 .163.08.244.243.244.163 0 .244-.081.244-.244 0-.08-.163-.243-.244-.243zM23.38 1.532a.71.71 0 01-.73.722.71.71 0 01-.731-.722.71.71 0 01.73-.723c.418-.103.731.31.731.723z" fill="#fff"/><path d="M22.65 2.985c-.812 0-1.462-.65-1.462-1.461 0-.812.65-1.462 1.462-1.462.811 0 1.46.65 1.46 1.462-.08.812-.649 1.461-1.46 1.461zm0-1.705c-.163 0-.244.081-.244.244 0 .081.081.243.244.243.162 0 .243-.08.243-.243 0-.163-.162-.244-.243-.244zM2.192 37.324c0 .418-.157.731-.366.731-.208 0-.365-.313-.365-.73 0-.418.157-.731.365-.731.21 0 .366.313.366.73z" fill="#fff"/><path d="M1.461 38.786C.65 38.786 0 38.136 0 37.324c0-.811.65-1.46 1.461-1.46.812 0 1.461.649 1.461 1.46 0 .812-.649 1.462-1.46 1.462zm0-1.705c-.162 0-.243.081-.243.243 0 .163.08.244.243.244.163 0 .244-.081.244-.243 0-.082-.081-.244-.244-.244zM24.509 51.938L10.645 34.952.73 12.386 23.3 8.1h.08l22.65 4.367-7.658 21.92-.08.08-13.783 17.47zM11.53 34.468L24.51 50.32l12.977-16.419 7.174-20.625L23.3 9.151 2.18 13.195l9.35 21.272z" fill="#fff"/><path d="M27.126 22.199c-.319.639-.558 1.198-.797 1.758s-.558 1.119-.797 1.598c-.319.64-.637 1.199-.877 1.758-.319.56-.558 1.199-.876 1.758h-.558l-1.834-3.596-1.594-3.276v8.55h-.797V20.52h.718c.398.8.717 1.519 1.116 2.318.398.8.717 1.518 1.115 2.317.24.48.479 1.04.718 1.519.239.48.478 1.039.717 1.518l.558-1.039.957-1.997c.398-.8.717-1.519 1.115-2.318.399-.8.718-1.518 1.116-2.318h.638v10.23h-.717v-8.551h.08z" fill="#fff"/></svg>