<svg width="44" height="19" viewBox="0 0 44 19" fill="none" xmlns="http://www.w3.org/2000/svg">
<path fill-rule="evenodd" clip-rule="evenodd" d="M37.5109 0.00225132V9.43316H37.3756L32.4508 1.34583C31.8287 0.344478 31.206 0.00225132 29.9612 0.00225132H25.0098V9.43316H24.8872L19.9624 1.34583C19.3403 0.344478 18.7176 0.00225132 17.4728 0.00225132H16.89V0H12.5011V9.43091H12.3664L7.44158 1.34357C6.8189 0.342225 6.19679 0 4.952 0H0V18.4402H5.49316V7.90272H5.62845L11.4731 17.0967C11.805 17.6083 12.1242 17.946 12.5214 18.1554V18.1577L12.5283 18.1588C12.907 18.3575 13.3574 18.4402 13.9627 18.4402H14.1888L14.2015 18.4425H18.0139V7.90553H18.1492L23.9945 17.0989C24.3171 17.5965 24.627 17.9308 25.0098 18.1419V18.1425C25.3966 18.3552 25.8579 18.4425 26.4835 18.4425H30.5029V7.90553H30.6376L36.4823 17.0989C37.1322 18.0997 37.7271 18.4425 38.9719 18.4425H43.004V0.00225132H37.5109Z" fill="white"/>
</svg>
