<svg width="96" height="16" viewBox="0 0 96 16" fill="none" xmlns="http://www.w3.org/2000/svg">
<path d="M3.72844 15.9741C3.55343 15.9741 3.35342 15.9235 3.20341 15.7969C2.90339 15.569 2.77838 15.2146 2.85339 14.8602L3.82845 10.4047C3.85345 10.2528 3.80345 10.1262 3.70344 10.0249L0.303227 6.98708C0.0282097 6.73393 -0.0717966 6.35419 0.0532113 6.02509C0.178219 5.67068 0.453236 5.41752 0.82826 5.3922L5.30354 4.96184C5.45355 4.93653 5.57856 4.86058 5.62856 4.734L7.42867 0.556942C7.57868 0.22784 7.9037 0 8.25373 0C8.62875 0 8.95377 0.202524 9.07878 0.556942L10.8789 4.734C10.9289 4.86058 11.0539 4.96184 11.2039 4.96184L15.6792 5.3922C16.0542 5.41752 16.3542 5.67068 16.4542 6.02509C16.5793 6.37951 16.4792 6.75924 16.2042 7.0124L12.829 10.0503C12.729 10.1515 12.679 10.3034 12.704 10.43L13.6791 14.8855C13.7541 15.2399 13.6291 15.6197 13.329 15.8222C13.029 16.05 12.654 16.05 12.329 15.8728L8.45374 13.5691C8.32873 13.4932 8.17872 13.4932 8.05371 13.5691L4.17847 15.8475C4.02846 15.9235 3.87845 15.9741 3.72844 15.9741Z" fill="url(#paint0_linear)"/>
<path d="M43.4746 15.9741C43.2996 15.9741 43.0996 15.9235 42.9496 15.7969C42.6496 15.569 42.5246 15.2146 42.5996 14.8602L43.5746 10.4047C43.5997 10.2528 43.5496 10.1262 43.4496 10.0249L40.0494 6.98708C39.7744 6.73393 39.6744 6.35419 39.7994 6.02509C39.9244 5.67068 40.1994 5.41752 40.5745 5.3922L45.0497 4.96184C45.1997 4.93653 45.3248 4.86058 45.3748 4.734L47.1749 0.556942C47.3249 0.22784 47.6499 0 47.9999 0C48.375 0 48.7 0.202524 48.825 0.556942L50.6251 4.734C50.6751 4.86058 50.8001 4.96184 50.9501 4.96184L55.4254 5.3922C55.8004 5.41752 56.1004 5.67068 56.2004 6.02509C56.3255 6.37951 56.2254 6.75924 55.9504 7.0124L52.5752 10.0503C52.4752 10.1515 52.4252 10.3034 52.4502 10.43L53.4253 14.8855C53.5003 15.2399 53.3753 15.6197 53.0752 15.8222C52.7752 16.05 52.4002 16.05 52.0752 15.8728L48.1999 13.5691C48.0749 13.4932 47.9249 13.4932 47.7999 13.5691L43.9247 15.8475C43.7747 15.9235 43.6246 15.9741 43.4746 15.9741Z" fill="url(#paint1_linear)"/>
<path d="M22.3185 15.9741C22.1435 15.9741 21.9435 15.9235 21.7935 15.7969C21.4935 15.569 21.3685 15.2146 21.4435 14.8602L22.4185 10.4047C22.4435 10.2528 22.3935 10.1262 22.2935 10.0249L18.8933 6.98708C18.6183 6.73393 18.5183 6.35419 18.6433 6.02509C18.7683 5.67068 19.0433 5.41752 19.4184 5.3922L23.8936 4.96184C24.0436 4.93653 24.1687 4.86058 24.2187 4.734L26.0188 0.556942C26.1688 0.22784 26.4938 0 26.8438 0C27.2188 0 27.5439 0.202524 27.6689 0.556942L29.469 4.734C29.519 4.86058 29.644 4.96184 29.794 4.96184L34.2693 5.3922C34.6443 5.41752 34.9443 5.67068 35.0443 6.02509C35.1693 6.37951 35.0693 6.75924 34.7943 7.0124L31.4191 10.0503C31.3191 10.1515 31.2691 10.3034 31.2941 10.43L32.2692 14.8855C32.3442 15.2399 32.2192 15.6197 31.9191 15.8222C31.6191 16.05 31.2441 16.05 30.9191 15.8728L27.0438 13.5691C26.9188 13.4932 26.7688 13.4932 26.6438 13.5691L22.7686 15.8475C22.6186 15.9235 22.4685 15.9741 22.3185 15.9741Z" fill="url(#paint2_linear)"/>
<path d="M63.3479 15.9741C63.1729 15.9741 62.9729 15.9235 62.8228 15.7969C62.5228 15.569 62.3978 15.2146 62.4728 14.8602L63.4479 10.4047C63.4729 10.2528 63.4229 10.1262 63.3229 10.0249L59.9227 6.98708C59.6476 6.73393 59.5476 6.35419 59.6726 6.02509C59.7976 5.67068 60.0727 5.41752 60.4477 5.3922L64.923 4.96184C65.073 4.93653 65.198 4.86058 65.248 4.734L67.0481 0.556942C67.1981 0.22784 67.5231 0 67.8732 0C68.2482 0 68.5732 0.202524 68.6982 0.556942L70.4983 4.734C70.5483 4.86058 70.6733 4.96184 70.8233 4.96184L75.2986 5.3922C75.6737 5.41752 75.9737 5.67068 76.0737 6.02509C76.1987 6.37951 76.0987 6.75924 75.8237 7.0124L72.4484 10.0503C72.3484 10.1515 72.2984 10.3034 72.3234 10.43L73.2985 14.8855C73.3735 15.2399 73.2485 15.6197 72.9485 15.8222C72.6485 16.05 72.2734 16.05 71.9484 15.8728L68.0732 13.5691C67.9482 13.4932 67.7982 13.4932 67.6731 13.5691L63.7979 15.8475C63.6479 15.9235 63.4979 15.9741 63.3479 15.9741Z" fill="url(#paint3_linear)"/>
<path d="M83.221 15.9741C83.046 15.9741 82.846 15.9235 82.696 15.7969C82.3959 15.569 82.2709 15.2146 82.3459 14.8602L83.321 10.4047C83.346 10.2528 83.296 10.1262 83.196 10.0249L79.7958 6.98708C79.5208 6.73393 79.4207 6.35419 79.5458 6.02509C79.6708 5.67068 79.9458 5.41752 80.3208 5.3922L84.7961 4.96184C84.9461 4.93653 85.0711 4.86058 85.1211 4.734L86.9212 0.556942C87.0712 0.22784 87.3962 0 87.7463 0C88.1213 0 88.4463 0.202524 88.5713 0.556942L90.3714 4.734C90.4214 4.86058 90.5464 4.96184 90.6965 4.96184L95.1717 5.3922C95.5468 5.41752 95.8468 5.67068 95.9468 6.02509C96.0718 6.37951 95.9718 6.75924 95.6968 7.0124L92.3216 10.0503C92.2216 10.1515 92.1716 10.3034 92.1966 10.43L93.1716 14.8855C93.2466 15.2399 93.1216 15.6197 92.8216 15.8222C92.5216 16.05 92.1465 16.05 91.8215 15.8728L87.9463 13.5691C87.8213 13.4932 87.6713 13.4932 87.5463 13.5691L83.671 15.8475C83.521 15.9235 83.371 15.9741 83.221 15.9741Z" fill="url(#paint4_linear)"/>
<defs>
<linearGradient id="paint0_linear" x1="0.0241796" y1="7.99999" x2="95.9688" y2="7.99999" gradientUnits="userSpaceOnUse">
<stop offset="0.015625" stop-color="#E7A28F"/>
<stop offset="0.5" stop-color="#FBDDB0"/>
<stop offset="0.984375" stop-color="#FBFEFD"/>
</linearGradient>
<linearGradient id="paint1_linear" x1="0.0241796" y1="7.99999" x2="95.9688" y2="7.99999" gradientUnits="userSpaceOnUse">
<stop offset="0.015625" stop-color="#E7A28F"/>
<stop offset="0.5" stop-color="#FBDDB0"/>
<stop offset="0.984375" stop-color="#FBFEFD"/>
</linearGradient>
<linearGradient id="paint2_linear" x1="0.0241796" y1="7.99999" x2="95.9688" y2="7.99999" gradientUnits="userSpaceOnUse">
<stop offset="0.015625" stop-color="#E7A28F"/>
<stop offset="0.5" stop-color="#FBDDB0"/>
<stop offset="0.984375" stop-color="#FBFEFD"/>
</linearGradient>
<linearGradient id="paint3_linear" x1="0.0241796" y1="7.99999" x2="95.9688" y2="7.99999" gradientUnits="userSpaceOnUse">
<stop offset="0.015625" stop-color="#E7A28F"/>
<stop offset="0.5" stop-color="#FBDDB0"/>
<stop offset="0.984375" stop-color="#FBFEFD"/>
</linearGradient>
<linearGradient id="paint4_linear" x1="0.0241796" y1="7.99999" x2="95.9688" y2="7.99999" gradientUnits="userSpaceOnUse">
<stop offset="0.015625" stop-color="#E7A28F"/>
<stop offset="0.5" stop-color="#FBDDB0"/>
<stop offset="0.984375" stop-color="#FBFEFD"/>
</linearGradient>
</defs>
</svg>
