<svg width="104" height="17" fill="none" xmlns="http://www.w3.org/2000/svg"><path d="M4.011 16.973a.893.893 0 01-.565-.189.968.968 0 01-.376-.995l1.049-4.734a.444.444 0 00-.135-.403L.326 7.424C.03 7.154-.077 6.75.057 6.402c.135-.377.43-.646.834-.673l4.815-.457c.161-.027.296-.108.35-.242L7.991.592C8.153.242 8.503 0 8.88 0c.403 0 .753.215.887.592l1.937 4.438a.383.383 0 00.35.242l4.814.457a.921.921 0 01.834.673.965.965 0 01-.269 1.049l-3.631 3.227a.468.468 0 00-.134.404l1.049 4.734c.08.376-.054.78-.377.995-.323.242-.726.242-1.076.054l-4.17-2.448a.413.413 0 00-.43 0l-4.169 2.421c-.161.08-.322.134-.484.134zM25.392 16.973a.894.894 0 01-.565-.189.968.968 0 01-.377-.995l1.05-4.734a.444.444 0 00-.135-.403l-3.658-3.228c-.296-.27-.404-.673-.27-1.022.135-.377.431-.646.834-.673l4.815-.457c.162-.027.296-.108.35-.242L29.372.592c.162-.35.512-.592.888-.592.403 0 .753.215.888.592l1.936 4.438a.383.383 0 00.35.242l4.815.457a.921.921 0 01.834.673.965.965 0 01-.27 1.049l-3.63 3.227a.468.468 0 00-.135.404l1.049 4.734c.08.376-.054.78-.377.995-.322.242-.726.242-1.076.054l-4.169-2.448a.413.413 0 00-.43 0l-4.17 2.421c-.16.08-.322.134-.483.134zM46.772 16.973a.893.893 0 01-.565-.189.968.968 0 01-.377-.995l1.05-4.734a.444.444 0 00-.135-.403l-3.658-3.228c-.296-.27-.404-.673-.27-1.022.135-.377.431-.646.835-.673l4.814-.457c.162-.027.296-.108.35-.242L50.753.592c.161-.35.51-.592.887-.592.404 0 .754.215.888.592l1.937 4.438a.383.383 0 00.35.242l4.814.457a.921.921 0 01.834.673.964.964 0 01-.27 1.049l-3.63 3.227a.468.468 0 00-.135.404l1.05 4.734c.08.376-.055.78-.377.995-.323.242-.727.242-1.076.054l-4.17-2.448a.413.413 0 00-.43 0l-4.169 2.421c-.161.08-.323.134-.484.134zM68.152 16.973a.893.893 0 01-.564-.189.968.968 0 01-.377-.995l1.049-4.734a.444.444 0 00-.135-.403l-3.658-3.228c-.296-.27-.403-.673-.269-1.022.135-.377.43-.646.834-.673l4.815-.457c.161-.027.296-.108.35-.242L72.133.592c.162-.35.511-.592.888-.592.403 0 .753.215.887.592l1.937 4.438a.383.383 0 00.35.242l4.814.457a.921.921 0 01.834.673.964.964 0 01-.269 1.049l-3.63 3.227a.468.468 0 00-.135.404l1.049 4.734c.08.376-.054.78-.377.995-.323.242-.726.242-1.076.054l-4.169-2.448a.413.413 0 00-.43 0l-4.17 2.421c-.16.08-.322.134-.484.134zM89.533 16.973a.894.894 0 01-.565-.189.968.968 0 01-.377-.995l1.05-4.734a.444.444 0 00-.135-.403l-3.658-3.228c-.296-.27-.404-.673-.27-1.022.135-.377.431-.646.834-.673l4.815-.457c.161-.027.296-.108.35-.242L93.513.592c.162-.35.511-.592.888-.592.404 0 .753.215.888.592l1.936 4.438a.383.383 0 00.35.242l4.815.457a.922.922 0 01.834.673.967.967 0 01-.269 1.049l-3.632 3.227a.468.468 0 00-.134.404l1.049 4.734c.081.376-.054.78-.377.995-.323.242-.726.242-1.076.054l-4.169-2.448a.413.413 0 00-.43 0l-4.17 2.421c-.16.08-.322.134-.483.134z" fill="#FFE336"/></svg>