<svg width="62" height="60" viewBox="0 0 62 60" fill="none" xmlns="http://www.w3.org/2000/svg">
<path d="M42 44.706C47.4222 41.1285 51 34.9821 51 28C51 16.9543 42.0457 8 31 8C19.9543 8 11 16.9543 11 28C11 29.5344 11.1728 31.0285 11.5 32.4638M42 44.706C38.8442 46.7881 35.0636 48 31 48C27.1316 48 23.5197 46.9017 20.4592 45M42 44.706L51 51L52.5 42.5L60 39L50.5 32M20.4592 45L11 52L9.5 42.5L2 38L11.5 32.4638M20.4592 45C15.9947 42.2259 12.7033 37.7422 11.5 32.4638" stroke="url(#paint0_linear)" stroke-width="3" stroke-linejoin="round"/>
<path d="M45.4896 12.21C45.493 12.526 45.4293 12.8391 45.3025 13.1285C45.1758 13.418 44.989 13.6772 44.7545 13.889C44.52 14.1008 44.2432 14.2604 43.9424 14.3571C43.6415 14.4538 43.3236 14.4855 43.0096 14.45C42.7667 14.4299 42.5294 14.3655 42.3096 14.26C41.9558 14.0981 41.65 13.8471 41.4221 13.5316C41.1943 13.2161 41.0521 12.8469 41.0096 12.46C40.9736 12.0668 41.039 11.6708 41.1996 11.31C41.3742 10.9244 41.6551 10.5964 42.0092 10.3644C42.3634 10.1324 42.7763 10.006 43.1996 10C43.5173 9.99793 43.8315 10.0662 44.1196 10.2C44.5173 10.3675 44.8582 10.6463 45.1012 11.0029C45.3443 11.3595 45.4791 11.7786 45.4896 12.21Z" fill="white"/>
<path d="M39.5116 28.5877C37.6361 29.154 35.9301 30.1759 34.5456 31.562C33.1612 32.9481 32.1414 34.6554 31.5773 36.5315C31.5475 36.6658 31.4727 36.7859 31.3655 36.8719C31.2582 36.958 31.1248 37.0049 30.9873 37.0049C30.8497 37.0049 30.7163 36.958 30.609 36.8719C30.5018 36.7859 30.427 36.6658 30.3972 36.5315C29.833 34.6539 28.812 32.9455 27.4257 31.5592C26.0394 30.1729 24.331 29.1519 22.4533 28.5877C22.3236 28.5542 22.2087 28.4785 22.1266 28.3726C22.0445 28.2666 22 28.1364 22 28.0024C22 27.8684 22.0445 27.7382 22.1266 27.6323C22.2087 27.5264 22.3236 27.4507 22.4533 27.4172C24.3302 26.8514 26.0378 25.8299 27.4239 24.4438C28.81 23.0577 29.8314 21.3501 30.3972 19.4733C30.427 19.3391 30.5018 19.219 30.609 19.133C30.7163 19.0469 30.8497 19 30.9873 19C31.1248 19 31.2582 19.0469 31.3655 19.133C31.4727 19.219 31.5475 19.3391 31.5773 19.4733C32.1429 21.3486 33.1632 23.0551 34.5474 24.441C35.9317 25.8269 37.6369 26.8493 39.5116 27.4172C39.6486 27.4421 39.7726 27.5143 39.8619 27.6213C39.9511 27.7282 40 27.8631 40 28.0024C40 28.1417 39.9511 28.2766 39.8619 28.3836C39.7726 28.4905 39.6486 28.5628 39.5116 28.5877Z" fill="#F6E14B"/>
<defs>
<linearGradient id="paint0_linear" x1="17" y1="41.5" x2="42.5" y2="16" gradientUnits="userSpaceOnUse">
<stop stop-color="#75C4FC"/>
<stop offset="0.390625" stop-color="#B49BF7"/>
<stop offset="1" stop-color="#B49BF7" stop-opacity="0"/>
</linearGradient>
</defs>
</svg>
