<svg width="60" height="60" viewBox="0 0 60 60" fill="none" xmlns="http://www.w3.org/2000/svg">
<path d="M56.7662 19.6182C56.0909 20.4891 55.3706 21.3242 54.6083 22.1201C54.5229 21.9895 54.4244 21.868 54.3143 21.7573L43.681 11.124C43.2609 10.7039 42.6911 10.4679 42.0969 10.4679C41.5028 10.4679 40.933 10.7039 40.5129 11.124C40.0928 11.5441 39.8568 12.1139 39.8568 12.7081C39.8568 13.3022 40.0928 13.872 40.5129 14.2921L51.1462 24.9254L51.215 24.9849C49.6527 25.9799 47.9473 26.7298 46.1579 27.2085L40.344 21.4133C39.9178 21.0258 39.3587 20.8175 38.7828 20.8317C38.207 20.8458 37.6587 21.0813 37.252 21.4892C36.8453 21.8971 36.6114 22.4461 36.599 23.0219C36.5866 23.5978 36.7966 24.1563 37.1853 24.5814L40.688 28.0842C37.7964 28.222 34.8991 28.1813 32.0125 27.9622L30.1955 27.8496C29.3041 27.7933 28.4066 27.7339 27.509 27.687C18.5708 27.1835 9.54808 27.3148 2.31118 34.5486C1.49671 35.3648 0.725272 36.2229 0 37.1193L3.18374 40.3125C3.80152 39.5247 4.46023 38.77 5.15715 38.0513L15.3245 48.2249C15.5325 48.4329 15.7794 48.5979 16.0512 48.7105C16.323 48.8231 16.6143 48.881 16.9085 48.881C17.2027 48.881 17.494 48.8231 17.7658 48.7105C18.0376 48.5979 18.2846 48.4329 18.4926 48.2249C18.7006 48.0169 18.8656 47.7699 18.9782 47.4981C19.0908 47.2263 19.1487 46.935 19.1487 46.6408C19.1487 46.3467 19.0908 46.0554 18.9782 45.7836C18.8656 45.5118 18.7006 45.2648 18.4926 45.0568L8.63487 35.1897C10.2043 34.2062 11.9105 33.4601 13.6982 32.9755L20.2658 39.5431C20.4739 39.7511 20.7208 39.9161 20.9926 40.0287C21.2644 40.1413 21.5557 40.1992 21.8499 40.1992C22.1441 40.1992 22.4354 40.1413 22.7072 40.0287C22.979 39.9161 23.2259 39.7511 23.4339 39.5431C23.642 39.3351 23.807 39.0881 23.9195 38.8163C24.0321 38.5445 24.0901 38.2532 24.0901 37.9591C24.0901 37.6649 24.0321 37.3736 23.9195 37.1018C23.807 36.83 23.642 36.583 23.4339 36.375L19.1525 32.0935C22.0289 31.9455 24.9118 31.9779 27.7842 32.1905L29.914 32.3218L32.2877 32.4688C41.1728 32.9817 50.1579 32.9317 57.251 25.8355C58.2081 24.8859 59.1103 23.8825 59.9531 22.8301L56.7662 19.6182Z" fill="url(#paint0_linear)"/>
<path d="M43.4215 45.9326C44.881 45.9326 46.0642 44.7494 46.0642 43.2899C46.0642 41.8304 44.881 40.6472 43.4215 40.6472C41.962 40.6472 40.7788 41.8304 40.7788 43.2899C40.7788 44.7494 41.962 45.9326 43.4215 45.9326Z" fill="#FFE336"/>
<path d="M37.3069 5.89523C31.4335 11.7686 31.5117 19.5966 32.0121 27.9625L32.1247 29.7795C32.181 30.6708 32.2404 31.5715 32.2873 32.4691C32.794 41.4073 32.6595 50.43 25.4257 57.6638C24.6004 58.4858 23.7341 59.2656 22.8299 60L19.6431 56.8069C20.5607 56.0915 21.4329 55.3196 22.2545 54.4957C28.2811 48.4754 28.2811 40.6036 27.7838 32.1908C27.7421 31.4881 27.6983 30.7793 27.6524 30.0641C27.6024 29.2729 27.5524 28.4785 27.5086 27.6873C26.9926 18.8022 27.0457 9.81704 34.1388 2.724C35.1024 1.75741 36.1216 0.84786 37.1911 0L40.3749 3.19312C39.2931 4.02441 38.2682 4.92713 37.3069 5.89523Z" fill="url(#paint1_linear)"/>
<path d="M37.3069 5.89523C31.4335 11.7686 31.5117 19.5966 32.0121 27.9625L32.1247 29.7795C32.181 30.6708 32.2404 31.5715 32.2873 32.4691C32.794 41.4073 32.6595 50.43 25.4257 57.6638C24.6004 58.4858 23.7341 59.2656 22.8299 60L19.6431 56.8069C20.5607 56.0915 21.4329 55.3196 22.2545 54.4957C28.2811 48.4754 28.2811 40.6036 27.7838 32.1908C27.7421 31.4881 27.6983 30.7793 27.6524 30.0641C27.6024 29.2729 27.5524 28.4785 27.5086 27.6873C26.9926 18.8022 27.0457 9.81704 34.1388 2.724C35.1024 1.75741 36.1216 0.84786 37.1911 0L40.3749 3.19312C39.2931 4.02441 38.2682 4.92713 37.3069 5.89523Z" fill="url(#paint2_radial)"/>
<defs>
<linearGradient id="paint0_linear" x1="2.18608" y1="37.2007" x2="59.4871" y2="21.4258" gradientUnits="userSpaceOnUse">
<stop stop-color="#A260FD"/>
<stop offset="0.12" stop-color="#A260FD" stop-opacity="0.99"/>
<stop offset="0.19" stop-color="#A160FD" stop-opacity="0.96"/>
<stop offset="0.24" stop-color="#9F60FD" stop-opacity="0.9"/>
<stop offset="0.29" stop-color="#9C60FD" stop-opacity="0.83"/>
<stop offset="0.33" stop-color="#9860FD" stop-opacity="0.73"/>
<stop offset="0.37" stop-color="#9460FD" stop-opacity="0.6"/>
<stop offset="0.4" stop-color="#8F60FE" stop-opacity="0.46"/>
<stop offset="0.44" stop-color="#8960FE" stop-opacity="0.29"/>
<stop offset="0.47" stop-color="#8360FE" stop-opacity="0.1"/>
<stop offset="0.48" stop-color="#7F60FE" stop-opacity="0"/>
<stop offset="0.49" stop-color="#7967FE" stop-opacity="0.07"/>
<stop offset="0.53" stop-color="#6A7BFE" stop-opacity="0.26"/>
<stop offset="0.57" stop-color="#5D8CFE" stop-opacity="0.44"/>
<stop offset="0.61" stop-color="#519CFE" stop-opacity="0.59"/>
<stop offset="0.66" stop-color="#47A8FE" stop-opacity="0.72"/>
<stop offset="0.7" stop-color="#3FB3FE" stop-opacity="0.82"/>
<stop offset="0.75" stop-color="#39BBFE" stop-opacity="0.9"/>
<stop offset="0.81" stop-color="#34C1FE" stop-opacity="0.96"/>
<stop offset="0.88" stop-color="#32C4FE" stop-opacity="0.99"/>
<stop offset="1" stop-color="#31C5FE"/>
</linearGradient>
<linearGradient id="paint1_linear" x1="9.0598" y1="52.9726" x2="45.1286" y2="13.3229" gradientUnits="userSpaceOnUse">
<stop stop-color="#7F60FE"/>
<stop offset="0.19" stop-color="#7D63FE"/>
<stop offset="0.32" stop-color="#766BFE"/>
<stop offset="0.42" stop-color="#6B7AFE"/>
<stop offset="0.51" stop-color="#5B8FFE"/>
<stop offset="0.6" stop-color="#46AAFE"/>
<stop offset="0.67" stop-color="#31C5FE"/>
<stop offset="0.68" stop-color="#31C5FE" stop-opacity="0.9"/>
<stop offset="0.72" stop-color="#31C5FE" stop-opacity="0.69"/>
<stop offset="0.75" stop-color="#31C5FE" stop-opacity="0.51"/>
<stop offset="0.79" stop-color="#31C5FE" stop-opacity="0.35"/>
<stop offset="0.83" stop-color="#31C5FE" stop-opacity="0.22"/>
<stop offset="0.87" stop-color="#31C5FE" stop-opacity="0.13"/>
<stop offset="0.91" stop-color="#31C5FE" stop-opacity="0.06"/>
<stop offset="0.95" stop-color="#31C5FE" stop-opacity="0.01"/>
<stop offset="1" stop-color="#31C5FE" stop-opacity="0"/>
</linearGradient>
<radialGradient id="paint2_radial" cx="0" cy="0" r="1" gradientUnits="userSpaceOnUse" gradientTransform="translate(20.2248 55.484) scale(56.5661)">
<stop stop-color="#A260FD"/>
<stop offset="0.12" stop-color="#9968FD"/>
<stop offset="0.32" stop-color="#807EFD"/>
<stop offset="0.57" stop-color="#58A2FE"/>
<stop offset="0.77" stop-color="#31C5FE"/>
<stop offset="1" stop-color="#31C5FE" stop-opacity="0"/>
</radialGradient>
</defs>
</svg>
