<svg width="34" height="28" viewBox="0 0 34 28" fill="none" xmlns="http://www.w3.org/2000/svg">
    <path fill-rule="evenodd" clip-rule="evenodd" d="M12.2048 18.2668H16.5407V9.74707H12.2048C11.0359 9.74707 9.97052 10.226 9.19837 10.9982C8.42621 11.7703 7.94727 12.8364 7.94727 14.0093C7.94727 16.3503 9.86306 18.2668 12.2048 18.2668Z" fill="white"/>
    <path fill-rule="evenodd" clip-rule="evenodd" d="M21.9813 9.83398C19.6295 9.83398 17.7222 11.7406 17.7222 14.0931C17.7222 16.4449 19.6295 18.3514 21.9813 18.3514C24.333 18.3514 26.2404 16.4449 26.2404 14.0931C26.2404 11.7406 24.333 9.83398 21.9813 9.83398Z" fill="white"/>
    <path opacity="0.5" fill-rule="evenodd" clip-rule="evenodd" d="M16.5334 19.4814H12.1216V19.4899C9.84503 19.5751 8.02441 21.4425 8.02441 23.7406C8.02441 26.0923 9.931 27.9989 12.2828 27.9989C14.5616 27.9989 16.4175 26.2074 16.5311 23.957H16.5334V23.9086C16.5357 23.8526 16.5419 23.7974 16.5419 23.7406C16.5419 23.6838 16.5357 23.6285 16.5334 23.5717V19.4814Z" fill="white"/>
    <path d="M16.3901 0H12.5621C10.0239 0 7.94727 1.89981 7.94727 4.22112C7.94727 6.5432 10.0239 8.443 12.5621 8.443H16.3901V0Z" fill="white"/>
    <path opacity="0.5" d="M18 8.443H21.8291C24.3665 8.443 26.4431 6.5432 26.4431 4.22112C26.4431 1.89981 24.3665 0 21.8291 0H18V8.443Z" fill="white"/>
</svg>
