<svg width="28" height="28" viewBox="0 0 28 28" fill="none" xmlns="http://www.w3.org/2000/svg">
    <path fill-rule="evenodd" clip-rule="evenodd" d="M27.7906 6.2267C27.8009 6.2634 27.8061 6.30123 27.8062 6.33924V12.2472C27.8062 12.3231 27.7854 12.3976 27.7459 12.4632C27.7064 12.5288 27.6495 12.5832 27.5811 12.6209L22.4241 15.4759V21.1345C22.4241 21.2885 22.339 21.4307 22.2001 21.5082L11.4352 27.4669C11.4106 27.4803 11.3837 27.4889 11.3568 27.4981C11.3467 27.5013 11.3372 27.5072 11.3266 27.5099C11.2513 27.529 11.1722 27.529 11.097 27.5099C11.0846 27.5067 11.0734 27.5002 11.0617 27.4959C11.037 27.4873 11.0113 27.4798 10.9878 27.4669L0.22512 21.5082C0.156748 21.4705 0.099938 21.416 0.0604153 21.3504C0.0208927 21.2848 5.41741e-05 21.2104 0 21.1345L0 3.41055C0 3.37178 0.0056 3.33408 0.01568 3.29747C0.01904 3.28509 0.02688 3.27378 0.03136 3.26139C0.03976 3.23878 0.0476 3.21562 0.05992 3.19462C0.06832 3.18062 0.08064 3.16932 0.09072 3.15639C0.1036 3.13916 0.11536 3.12139 0.13048 3.10632C0.14336 3.09393 0.16016 3.08478 0.17472 3.07401C0.19096 3.06108 0.20552 3.04709 0.224 3.03685H0.22456L5.60616 0.0575461C5.6743 0.0198433 5.75154 0 5.83016 0C5.90878 0 5.98602 0.0198433 6.05416 0.0575461L11.4358 3.03685H11.4369C11.4548 3.04762 11.4699 3.06109 11.4862 3.07347C11.5007 3.08424 11.517 3.09393 11.5298 3.10578C11.5455 3.12139 11.5567 3.13916 11.5702 3.15639C11.5797 3.16932 11.5926 3.18062 11.6004 3.19462C11.6133 3.21616 11.6206 3.23878 11.6295 3.26139C11.634 3.27378 11.6418 3.28508 11.6452 3.29801C11.6555 3.3347 11.6608 3.37254 11.6609 3.41055V14.4808L16.1454 11.9979V6.3387C16.1454 6.30101 16.151 6.26278 16.161 6.2267C16.165 6.21378 16.1722 6.20247 16.1767 6.19009C16.1857 6.16747 16.1935 6.14432 16.2058 6.12332C16.2142 6.10932 16.2266 6.09801 16.2361 6.08509C16.2495 6.06785 16.2607 6.05009 16.2764 6.03501C16.2893 6.02262 16.3055 6.01347 16.3201 6.0027C16.3369 5.98978 16.3514 5.97578 16.3694 5.96555H16.3699L21.7521 2.98624C21.8202 2.94848 21.8974 2.92861 21.9761 2.92861C22.0547 2.92861 22.132 2.94848 22.2001 2.98624L27.5817 5.96555C27.6007 5.97632 27.6153 5.98978 27.6321 6.00216C27.6461 6.01293 27.6623 6.02262 27.6752 6.03447C27.6909 6.05009 27.7021 6.06785 27.7155 6.08509C27.7256 6.09801 27.7379 6.10932 27.7458 6.12332C27.7586 6.14432 27.7659 6.16747 27.7749 6.19009C27.7799 6.20247 27.7872 6.21378 27.7906 6.2267ZM26.9091 11.9979V7.08501L25.0258 8.12747L22.4241 9.56785V14.4808L26.9097 11.9979H26.9091ZM21.5275 20.8852V15.9691L18.9683 17.3745L11.6603 21.3849V26.3474L21.5275 20.8852ZM0.89712 4.15632V20.8852L10.7632 26.3469V21.3855L5.60896 18.5806L5.60728 18.5795L5.60504 18.5785C5.58768 18.5688 5.57312 18.5548 5.55688 18.5429C5.54288 18.5322 5.52664 18.5236 5.51432 18.5117L5.5132 18.5101C5.49864 18.4966 5.48856 18.4799 5.47624 18.4649C5.46504 18.4503 5.4516 18.4379 5.44264 18.4229L5.44208 18.4212C5.432 18.4051 5.42584 18.3857 5.41856 18.3674C5.41128 18.3512 5.40176 18.3362 5.39728 18.3189V18.3184C5.39168 18.2979 5.39056 18.2764 5.38832 18.2554C5.38608 18.2392 5.3816 18.2231 5.3816 18.2069V18.2059V6.63916L2.7804 5.19824L0.89712 4.15685V4.15632ZM5.83072 0.928777L1.3468 3.41055L5.8296 5.89232L10.313 3.41001L5.8296 0.928777H5.83072ZM8.16256 16.4171L10.7638 14.9772V4.15632L8.88048 5.19878L6.27872 6.63916V17.4601L8.16256 16.4171ZM21.9761 3.85747L17.4927 6.33924L21.9761 8.82101L26.4589 6.3387L21.9761 3.85747ZM21.5275 9.56785L18.9258 8.12747L17.0425 7.08501V11.9979L19.6437 13.4378L21.5275 14.4808V9.56785ZM11.2112 20.6392L17.7873 17.0293L21.0745 15.2255L16.5945 12.7453L11.4363 15.6008L6.73512 18.2032L11.2112 20.6392Z" fill="white"/>
</svg>
