<svg width="46" height="28" viewBox="0 0 46 28" fill="none" xmlns="http://www.w3.org/2000/svg">
    <g clip-path="url(#clip0)">
        <path d="M10.874 7.30268H19.5357V7.99852H11.6682V13.235H19.0664V13.9309H11.6682V19.68H19.6258V20.3759H10.874V7.30268ZM20.3115 7.30268H21.2319L25.3101 13.0519L29.4785 7.30268L35.1482 0L25.8335 13.6562L30.6334 20.3759H29.6769L25.3101 14.2604L20.9253 20.3759H19.9869L24.8229 13.6562L20.3118 7.30268H20.3115ZM30.9764 7.99852V7.30268H40.8468V7.99852H36.2996V20.3756H35.5055V7.99852H30.9767H30.9764ZM0.0380859 7.30268H1.03066L14.7162 28L9.06048 20.3759L0.868028 8.2914L0.831958 20.3759H0.0380859V7.30268ZM40.7671 19.4699C40.6045 19.4699 40.4829 19.3429 40.4829 19.1789C40.4829 19.0146 40.6045 18.8876 40.7668 18.8876C40.931 18.8876 41.0507 19.0146 41.0507 19.1789C41.0507 19.3429 40.931 19.4699 40.7668 19.4699H40.7671ZM41.547 18.7039H41.9721C41.978 18.9365 42.1462 19.0927 42.3931 19.0927C42.6693 19.0927 42.8257 18.9249 42.8257 18.6101V16.617H43.2582V18.612C43.2582 19.1789 42.9339 19.5054 42.3969 19.5054C41.8931 19.5054 41.5473 19.1887 41.5473 18.7039H41.547ZM43.8238 18.6788H44.2527C44.2894 18.9463 44.5481 19.1162 44.9209 19.1162C45.2682 19.1162 45.5232 18.9344 45.5232 18.6844C45.5232 18.4696 45.3612 18.3404 44.9921 18.2526L44.633 18.1648C44.1292 18.0457 43.8991 17.7992 43.8991 17.3849C43.8991 16.8826 44.3046 16.5483 44.9128 16.5483C45.4788 16.5483 45.8923 16.8826 45.9172 17.3574H45.4962C45.4557 17.0977 45.2319 16.9353 44.9072 16.9353C44.5652 16.9353 44.3375 17.1015 44.3375 17.3555C44.3375 17.5568 44.4843 17.6722 44.8475 17.7581L45.1544 17.8343C45.726 17.9692 45.9617 18.2037 45.9617 18.6277C45.9617 19.167 45.5481 19.5054 44.8879 19.5054C44.2701 19.5054 43.8546 19.1827 43.8238 18.6785V18.6788Z" fill="white"/>
    </g>
    <defs>
        <clipPath id="clip0">
            <rect width="46" height="28" fill="white"/>
        </clipPath>
    </defs>
</svg>
