<svg width="46" height="28" viewBox="0 0 46 28" fill="none" xmlns="http://www.w3.org/2000/svg">
    <g clip-path="url(#clip0)">
        <path d="M22.5965 27.9998C22.4456 27.9998 22.2958 27.9602 22.1635 27.8841L20.7851 27.068C20.5793 26.9529 20.6797 26.9122 20.7476 26.8887C21.0221 26.7926 21.0778 26.7709 21.3708 26.6045C21.4016 26.5869 21.4419 26.5931 21.4734 26.6117L22.5324 27.2401C22.5706 27.2608 22.6248 27.2608 22.6603 27.2401L26.7891 24.8569C26.8273 24.8352 26.8521 24.7908 26.8521 24.7453V19.9809C26.8521 19.9334 26.8273 19.891 26.7882 19.8672L22.6611 17.4861C22.6229 17.4634 22.5722 17.4634 22.534 17.4861L18.4077 19.8672C18.3677 19.89 18.3423 19.9344 18.3423 19.9799V24.7442C18.3423 24.7897 18.3671 24.8331 18.4064 24.8548L19.537 25.508C20.1509 25.8149 20.5261 25.4532 20.5261 25.0894V20.3871C20.5261 20.3199 20.5788 20.2682 20.6459 20.2682H21.1689C21.234 20.2682 21.2877 20.3199 21.2877 20.3871V25.0915C21.2877 25.91 20.8413 26.3802 20.0651 26.3802C19.8264 26.3802 19.6383 26.3802 19.1133 26.1219L18.0302 25.4977C17.7625 25.3426 17.5972 25.0533 17.5972 24.7442V19.9799C17.5972 19.6698 17.7625 19.3805 18.0302 19.2275L22.1631 16.8433C22.4246 16.6955 22.7718 16.6955 23.0312 16.8433L27.1589 19.2285C27.4256 19.3825 27.592 19.6709 27.592 19.9809V24.7453C27.592 25.0543 27.4256 25.3426 27.1589 25.4977L23.0312 27.8819C22.8989 27.9584 22.7491 27.9977 22.5961 27.9977" fill="white"/>
        <path d="M23.8723 24.7175C22.0658 24.7175 21.687 23.8882 21.687 23.1927C21.687 23.1266 21.7403 23.0739 21.8066 23.0739H22.3399C22.3988 23.0739 22.4484 23.1167 22.4577 23.1749C22.5383 23.7183 22.7781 23.9924 23.8704 23.9924C24.7406 23.9924 25.1106 23.7958 25.1106 23.3344C25.1106 23.0688 25.0052 22.8714 23.6534 22.7391C22.5228 22.6275 21.8242 22.3784 21.8242 21.4741C21.8242 20.6411 22.5269 20.1451 23.7041 20.1451C25.0259 20.1451 25.6811 20.6039 25.7638 21.5899C25.7669 21.624 25.7545 21.6571 25.7318 21.6819C25.709 21.7056 25.677 21.7201 25.6439 21.7201H25.1075C25.0517 21.7201 25.0031 21.6808 24.9918 21.6271C24.8626 21.0556 24.5505 20.8726 23.702 20.8726C22.7522 20.8726 22.6416 21.2034 22.6416 21.4514C22.6416 21.7521 22.7719 21.84 24.0534 22.0095C25.3225 22.1779 25.925 22.4156 25.925 23.3075C25.925 24.2067 25.1747 24.7224 23.8663 24.7224L23.8723 24.7175ZM28.8952 19.6697H29.0337C29.1474 19.6697 29.1691 19.5901 29.1691 19.5436C29.1691 19.4216 29.0854 19.4216 29.0389 19.4216H28.8963L28.8952 19.6697ZM28.7268 19.279H29.0337C29.1391 19.279 29.3458 19.279 29.3458 19.5146C29.3458 19.679 29.2404 19.7131 29.1774 19.7337C29.3004 19.742 29.3086 19.8226 29.3252 19.9363C29.3334 20.0076 29.3469 20.1306 29.3717 20.1719H29.1825C29.1774 20.1306 29.1484 19.9032 29.1484 19.8908C29.136 19.8402 29.1185 19.8154 29.0554 19.8154H28.8994V20.173H28.7268V19.279ZM28.3578 19.7234C28.3578 20.0934 28.6565 20.3931 29.0234 20.3931C29.3934 20.3931 29.6921 20.0872 29.6921 19.7234C29.6921 19.3524 29.3892 19.0578 29.0224 19.0578C28.6606 19.0578 28.3568 19.3482 28.3568 19.7224L28.3578 19.7234ZM29.8202 19.7255C29.8202 20.1637 29.4616 20.5213 29.0244 20.5213C28.5904 20.5213 28.2286 20.1678 28.2286 19.7255C28.2286 19.2749 28.5986 18.9297 29.0244 18.9297C29.4533 18.9297 29.8192 19.2759 29.8192 19.7255" fill="white"/>
        <path fill-rule="evenodd" clip-rule="evenodd" d="M9.81146 9.35815C9.81146 9.16799 9.71121 8.99333 9.54709 8.89877L5.16968 6.38017C5.09579 6.33677 5.013 6.31403 4.92908 6.31093H4.88382C4.7999 6.31403 4.71712 6.33677 4.64198 6.38017L0.264778 8.89877C0.101695 8.99385 0 9.1685 0 9.35867L0.00961137 16.1424C0.00961137 16.2365 0.058185 16.3243 0.140863 16.3708C0.221475 16.4204 0.322756 16.4204 0.403368 16.3708L3.00567 14.8806C3.17 14.7828 3.27024 14.61 3.27024 14.4217V11.2525C3.27024 11.0634 3.37049 10.8887 3.5343 10.7947L4.64219 10.1566C4.72446 10.1091 4.81478 10.0855 4.90676 10.0855C4.99729 10.0855 5.08969 10.1089 5.16968 10.1565L6.27705 10.7944C6.44096 10.8884 6.54163 11.0631 6.54163 11.2522V14.4212C6.54163 14.6093 6.64322 14.7829 6.80671 14.88L9.40736 16.3693C9.48901 16.4179 9.5906 16.4179 9.67194 16.3693C9.75213 16.3228 9.80298 16.2349 9.80298 16.1409L9.81146 9.35815ZM30.4674 12.8902C30.4674 12.9374 30.4423 12.9811 30.4013 13.0045L28.8978 13.8712C28.857 13.8946 28.8065 13.8946 28.7658 13.8712L27.2621 13.0045C27.2208 12.981 27.1959 12.9373 27.1959 12.8902V11.1543C27.1959 11.107 27.2208 11.0634 27.2611 11.0396L28.7637 10.1715C28.8051 10.1477 28.8557 10.1477 28.8971 10.1715L30.4008 11.0396C30.4421 11.0634 30.4669 11.107 30.4669 11.1543L30.4674 12.8902ZM30.8736 0.0334624C30.7915 -0.0122174 30.6917 -0.0109773 30.6107 0.0362528C30.5301 0.083793 30.4803 0.170605 30.4803 0.264652V6.98228C30.4803 7.04842 30.4451 7.1094 30.3879 7.14247C30.331 7.17554 30.2602 7.17554 30.2029 7.14247L29.1063 6.51091C28.9431 6.41645 28.7419 6.41645 28.578 6.51091L24.1992 9.03808C24.0356 9.13213 23.9346 9.30678 23.9346 9.49488V14.5507C23.9346 14.7398 24.0356 14.9134 24.1992 15.0085L28.578 17.5374C28.7415 17.6315 28.9428 17.6315 29.1069 17.5374L33.4857 15.0075C33.649 14.9124 33.7503 14.7388 33.7503 14.5496V1.94943C33.7503 1.75762 33.6459 1.5812 33.4785 1.48747L30.8736 0.0334624ZM45.4553 11.1087C45.618 11.0142 45.7181 10.8397 45.7181 10.6517V9.42636C45.7181 9.23785 45.6179 9.06392 45.4549 8.96904L41.1039 6.44322C40.9396 6.34813 40.7381 6.34813 40.5737 6.44322L36.1959 8.97008C36.0316 9.06516 35.9313 9.23878 35.9313 9.42791V14.4816C35.9313 14.6718 36.0337 14.8475 36.198 14.9415L40.5479 17.4209C40.7081 17.5128 40.9045 17.5139 41.0667 17.424L43.698 15.9616C43.7806 15.9151 43.8333 15.8272 43.8333 15.7321C43.8333 15.6371 43.7827 15.5482 43.7 15.5017L39.2953 12.9738C39.2126 12.9273 39.162 12.8394 39.162 12.7454V11.16C39.162 11.0654 39.2116 10.9781 39.2943 10.931L40.6647 10.1404C40.7463 10.0929 40.8466 10.0929 40.9282 10.1404L42.2997 10.931C42.3813 10.9775 42.4319 11.0654 42.4319 11.1594V12.4058C42.4319 12.4998 42.4826 12.5877 42.5642 12.6352C42.6459 12.6817 42.7472 12.6817 42.8288 12.6342L45.4553 11.1087Z" fill="white"/>
        <path fill-rule="evenodd" clip-rule="evenodd" d="M40.7752 10.8731C40.8062 10.8548 40.845 10.8548 40.8764 10.8731L41.7166 11.3578C41.7481 11.376 41.7673 11.4095 41.7673 11.4456V12.4161C41.7673 12.4523 41.7481 12.4857 41.7166 12.5039L40.8764 12.9886C40.845 13.0069 40.8062 13.0069 40.7752 12.9886L39.9355 12.5039C39.9034 12.4857 39.8838 12.4523 39.8838 12.4161V11.4456C39.8838 11.4095 39.9024 11.376 39.9344 11.3578L40.7752 10.8731Z" fill="white"/>
        <path d="M21.6142 14.7932V9.22017L16.7883 6.43555L11.9624 9.22017V14.7932L16.7883 17.5798L21.6142 14.7932Z" fill="white"/>
        <path d="M16.7864 6.43359L21.6123 14.7913L16.7864 17.5778L11.9624 9.22013L16.7864 6.43359Z" fill="white"/>
        <path d="M11.9624 14.7937L13.6187 12.0911L11.9624 9.2207V14.7937Z" fill="white"/>
        <path d="M20.0035 12.0067L21.6121 9.22017L16.7881 6.43555L20.0035 12.0067Z" fill="white"/>
    </g>
    <defs>
        <clipPath id="clip0">
            <rect width="45.7182" height="28" fill="white"/>
        </clipPath>
    </defs>
</svg>
