<svg width="28" height="28" viewBox="0 0 28 28" fill="none" xmlns="http://www.w3.org/2000/svg">
    <path fill-rule="evenodd" clip-rule="evenodd" d="M24.3661 0.934889C25.4914 1.53227 26.4111 2.45417 27.0059 3.58089C27.6149 4.72189 27.9392 5.85356 27.9392 8.97322V14.4527C27.9392 14.5234 27.8965 14.5871 27.8311 14.6142C27.7658 14.6413 27.6906 14.6263 27.6405 14.5763V14.5756L25.5755 12.5067C25.4116 12.3424 25.3195 12.1197 25.3196 11.8876V9.35511C25.3196 7.01478 25.0762 6.16622 24.6196 5.31067C24.1734 4.46572 23.4835 3.77444 22.6394 3.32656C21.7952 2.87327 20.957 2.63015 18.6775 2.62508L15.2638 2.625C15.1932 2.62463 15.1297 2.58187 15.1028 2.51659C15.076 2.45131 15.091 2.37628 15.1409 2.32633L17.2059 0.256667C17.3692 0.0925556 17.5916 0 17.8234 0H18.9846C22.0981 0 23.2274 0.325111 24.3661 0.934889ZM20.0813 4.375C22.0102 4.375 23.5735 5.94222 23.5735 7.875V10.0909C23.5732 10.1607 23.5314 10.2236 23.4672 10.251C23.4029 10.2784 23.3286 10.265 23.278 10.2169L20.4624 7.51956C20.2758 7.33289 20.058 7.19756 19.8254 7.11278C19.6281 7.03804 19.4189 6.99982 19.2079 7H10.8965C10.8258 6.99994 10.7621 6.9573 10.735 6.89195C10.7079 6.8266 10.7229 6.75138 10.7729 6.70133L12.841 4.63089C13.0043 4.46756 13.226 4.375 13.4578 4.375H20.0813Z" fill="white"/>
    <path fill-rule="evenodd" clip-rule="evenodd" d="M25.6177 15.175L27.6835 17.2447C27.8468 17.4088 27.9394 17.632 27.9394 17.8638V19.0281C27.9394 22.1478 27.615 23.2795 27.006 24.4205C26.4113 25.5472 25.4916 26.4691 24.3663 27.0665C23.2276 27.6755 22.0983 28.0006 18.9848 28.0006H13.5178C13.4472 28.0002 13.3838 27.9574 13.3569 27.8922C13.3301 27.8269 13.3451 27.7518 13.3949 27.7019V27.7027L15.4599 25.633C15.6233 25.4689 15.8457 25.3763 16.0775 25.3763H18.6045C20.9394 25.3763 21.7856 25.1329 22.6396 24.6748C23.4837 24.2269 24.1736 23.5356 24.6198 22.6907C25.0764 21.8351 25.3198 20.9866 25.3198 18.6462V15.2987C25.3202 15.2283 25.3627 15.165 25.4277 15.138C25.4927 15.111 25.5676 15.1256 25.6177 15.175ZM21.2528 10.7992L23.3186 12.8712C23.4819 13.0353 23.5737 13.2578 23.5737 13.4903V20.1279C23.5737 22.0607 22.0104 23.6279 20.0815 23.6279H17.8703C17.8005 23.6276 17.7375 23.5858 17.7101 23.5215C17.6828 23.4573 17.6961 23.3829 17.7443 23.3323V23.3316L20.4354 20.509C20.622 20.3223 20.7574 20.1046 20.8422 19.8712C20.9165 19.6736 20.9544 19.4641 20.9542 19.2529V10.9229C20.9542 10.8522 20.9969 10.7884 21.0622 10.7614C21.1276 10.7343 21.2028 10.7492 21.2528 10.7992Z" fill="white"/>
    <path fill-rule="evenodd" clip-rule="evenodd" d="M0.297889 13.4235L2.36444 15.4931C2.52778 15.6572 2.62033 15.8805 2.62033 16.1122V18.6447C2.62033 20.985 2.863 21.8336 3.32033 22.6891C3.76635 23.534 4.456 24.2252 5.29978 24.6733C6.15378 25.1314 7.00078 25.3748 9.33567 25.3748H12.6754C12.7463 25.3746 12.8103 25.4171 12.8376 25.4825C12.8649 25.5479 12.85 25.6233 12.7999 25.6735L10.7333 27.7431C10.57 27.9073 10.3476 27.9998 10.1166 27.9998H8.95456C5.84111 27.9998 4.71256 27.6747 3.57389 27.0649C2.44829 26.4677 1.52827 25.5457 0.933333 24.4189C0.330423 23.2893 0.00651513 22.1689 9.72603e-05 19.1196L0 13.5471C0.000371501 13.4767 0.0428852 13.4134 0.1079 13.3864C0.172914 13.3594 0.247772 13.374 0.297889 13.4235ZM4.66122 17.7829H4.66044L7.47756 20.4802C7.66344 20.6669 7.882 20.8022 8.11378 20.887C8.30511 20.9601 8.51356 20.9998 8.73133 20.9998H17.0427C17.1133 21.0002 17.1767 21.0429 17.2036 21.1082C17.2304 21.1735 17.2154 21.2485 17.1656 21.2985L15.0982 23.3689C14.9349 23.5322 14.7124 23.6248 14.4814 23.6248H7.85789C6.93066 23.6238 6.04182 23.2544 5.3869 22.5981C4.73199 21.9417 4.36463 21.052 4.36566 20.1248V17.9089C4.36601 17.8391 4.40781 17.7762 4.47204 17.7488C4.53626 17.7214 4.61062 17.7348 4.66122 17.7829Z" fill="white"/>
    <path fill-rule="evenodd" clip-rule="evenodd" d="M10.0691 4.375C10.1389 4.37534 10.2019 4.41714 10.2292 4.48137C10.2566 4.54559 10.2433 4.61995 10.1951 4.67056L7.50322 7.49389C7.31656 7.68056 7.182 7.89833 7.09722 8.13167C7.02262 8.32928 6.98441 8.53877 6.98444 8.75V17.08C6.98376 17.1503 6.94114 17.2133 6.87619 17.2401C6.81124 17.2669 6.73657 17.2522 6.68656 17.2029L4.62078 15.1309C4.45728 14.9666 4.36554 14.7443 4.36567 14.5126V7.875C4.36567 5.94222 5.929 4.375 7.85789 4.375H10.0691ZM14.4216 0C14.4921 0.000374869 14.5556 0.0431262 14.5825 0.108409C14.6093 0.173691 14.5943 0.24872 14.5444 0.298667L12.4794 2.36833C12.3153 2.53244 12.0937 2.625 11.8619 2.625H9.33489C7 2.625 6.153 2.86844 5.299 3.32656C4.45493 3.77444 3.765 4.46572 3.31878 5.31067C2.86703 6.15722 2.62393 6.99691 2.61886 9.2817L2.61878 12.7027C2.61841 12.7731 2.57589 12.8364 2.51088 12.8634C2.44586 12.8904 2.37101 12.8758 2.32089 12.8263L0.256667 10.7567C0.0924073 10.5925 0 10.3698 0 10.1376V8.97322C0 5.85356 0.324333 4.72189 0.933333 3.58089C1.52807 2.45417 2.4478 1.53227 3.57311 0.934889C4.70039 0.331209 5.81852 0.00653069 8.86099 9.74929e-05L14.4216 0Z" fill="white"/>
</svg>
