<svg width="31" height="28" viewBox="0 0 31 28" fill="none" xmlns="http://www.w3.org/2000/svg">
    <g clip-path="url(#clip0)">
        <path d="M25.4883 9.07534C25.1584 8.9604 24.8257 8.85399 24.4904 8.75611C24.546 8.52678 24.5974 8.29645 24.6446 8.06513C25.4 4.3425 24.9061 1.34357 23.2194 0.356366C21.6023 -0.590492 18.9574 0.396758 16.2863 2.75654C16.0231 2.98961 15.7658 3.2293 15.5144 3.47563C15.3461 3.31188 15.1749 3.15134 15.0008 2.99399C12.2013 0.470604 9.39524 -0.59264 7.71035 0.397483C6.09475 1.34694 5.6162 4.16634 6.29629 7.69425C6.36395 8.04362 6.44033 8.39107 6.52542 8.7366C6.12838 8.85109 5.74492 8.9731 5.37806 9.10291C2.09606 10.2645 0 12.0851 0 13.9735C0 15.9239 2.24999 17.8802 5.66862 19.0662C5.94582 19.162 6.22524 19.2506 6.50687 19.3323C6.41541 19.7044 6.33423 20.079 6.26335 20.4558C5.61496 23.9224 6.12135 26.675 7.73271 27.6186C9.39702 28.5928 12.1903 27.5914 14.9103 25.1778C15.1253 24.987 15.3409 24.7852 15.5572 24.5725C15.8294 24.839 16.1087 25.0978 16.3952 25.3486C19.0299 27.6502 21.6319 28.5796 23.2419 27.6335C24.9047 26.6563 25.445 23.6993 24.7434 20.1016C24.6899 19.8268 24.6279 19.5464 24.5575 19.2604C24.7537 19.2016 24.9458 19.1407 25.134 19.0776C28.6879 17.8825 31 15.95 31 13.9735C31 12.0783 28.8364 10.2454 25.4883 9.07534ZM17.1557 3.7708C19.4444 1.74873 21.5834 0.950423 22.558 1.52104C23.596 2.12885 23.9998 4.57972 23.3475 7.79385C23.3048 8.00323 23.2583 8.21177 23.2082 8.41949C21.8425 8.10527 20.4578 7.8832 19.0632 7.75472C18.2643 6.58947 17.3888 5.48025 16.4428 4.4346C16.675 4.20737 16.9126 3.9861 17.1557 3.7708ZM9.15324 15.5866C9.43358 16.1363 9.72654 16.6791 10.0321 17.215C10.3438 17.7615 10.6683 18.3003 11.0054 18.8312C10.0458 18.7255 9.09226 18.5699 8.14843 18.3649C8.42212 17.4677 8.75935 16.5351 9.15324 15.5866ZM9.15174 12.4247C8.76609 11.4961 8.43614 10.5832 8.16668 9.70153C9.05118 9.50056 9.99433 9.33635 10.9771 9.21169C10.6481 9.73255 10.3314 10.2611 10.0268 10.7972C9.72265 11.3327 9.43097 11.8752 9.15174 12.4247ZM9.85568 14.0058C10.2637 13.1436 10.7032 12.2979 11.1743 11.4687V11.469C11.6448 10.6402 12.1459 9.83041 12.6774 9.03968C13.5993 8.96892 14.5446 8.93187 15.5001 8.93187C16.46 8.93187 17.4065 8.9692 18.3281 9.04051C18.8539 9.82944 19.3518 10.6365 19.8218 11.4616C20.2941 12.2883 20.7396 13.1301 21.1582 13.9867C20.7441 14.8516 20.3001 15.7007 19.8262 16.5341H19.826C19.3564 17.3622 18.8607 18.1742 18.3388 18.9701C17.4191 19.0368 16.4686 19.0712 15.5 19.0712C14.5354 19.0712 13.597 19.0407 12.6933 18.9812C12.1581 18.1876 11.6531 17.3744 11.1782 16.5415C10.7059 15.7135 10.2651 14.8683 9.85567 14.0058H9.85568ZM20.9733 17.2057C21.2851 16.6567 21.5847 16.1009 21.8723 15.5383C22.2662 16.4421 22.6137 17.3662 22.9133 18.3067C21.9586 18.5245 20.9934 18.6915 20.0215 18.8071C20.3492 18.2798 20.6664 17.746 20.9733 17.2057H20.9733ZM21.8597 12.4257C21.5732 11.8738 21.276 11.3279 20.9679 10.788C20.6649 10.2566 20.3507 9.732 20.0253 9.2142C21.0144 9.34095 21.9621 9.50947 22.8519 9.71574C22.5662 10.6354 22.2351 11.5399 21.8597 12.4257H21.8597ZM15.5148 5.39603C16.1596 6.1096 16.7685 6.85578 17.3391 7.63172C16.1185 7.57317 14.8972 7.57289 13.6752 7.63089C14.2775 6.82461 14.8944 6.07556 15.5148 5.39603ZM8.37383 1.56101C9.41102 0.951531 11.7042 1.82062 14.1213 3.9993C14.2758 4.13858 14.431 4.2844 14.5864 4.43524C13.635 5.48069 12.7528 6.58901 11.9457 7.7529C10.5544 7.87958 9.17258 8.0976 7.80901 8.40557C7.72994 8.08422 7.65891 7.76101 7.59594 7.43592V7.43605C7.01327 4.41328 7.40016 2.13321 8.37383 1.56101ZM6.86221 18.0373C6.60523 17.9626 6.35014 17.8816 6.09695 17.7941C4.78414 17.3748 3.55854 16.7138 2.48135 15.8442C2.17273 15.6293 1.91082 15.3524 1.7118 15.0306C1.51278 14.7088 1.38088 14.349 1.32425 13.9735C1.32425 12.8276 3.00722 11.3659 5.81409 10.3724C6.16639 10.2483 6.52205 10.1347 6.88106 10.0316C7.29783 11.3888 7.80257 12.7166 8.39197 14.0062C7.79517 15.3142 7.28414 16.6609 6.86221 18.0373ZM14.0389 24.1654C13.0252 25.1105 11.8489 25.8581 10.5687 26.3709H10.5685C10.231 26.5349 9.8639 26.6269 9.48995 26.6412C9.116 26.6555 8.74314 26.5917 8.39441 26.4539C7.41648 25.8815 7.01011 23.6711 7.56451 20.7066C7.63044 20.3563 7.70592 20.008 7.79095 19.6617C9.16819 19.9621 10.5639 20.1672 11.9685 20.2757C12.7826 21.4462 13.6715 22.5612 14.6296 23.6133C14.4371 23.8022 14.2402 23.9863 14.0389 24.1654ZM15.5514 22.6459C14.9238 21.9583 14.2978 21.1978 13.6863 20.3799C14.2798 20.4036 14.8844 20.4155 15.5 20.4155C16.1319 20.4155 16.7557 20.4014 17.3713 20.3733C16.8034 21.1619 16.1959 21.9204 15.5514 22.6459V22.6459ZM23.5933 24.5164C23.5647 24.8951 23.4598 25.264 23.2853 25.6C23.1107 25.936 22.8701 26.2321 22.5784 26.47C21.6014 27.0441 19.512 26.2979 17.259 24.3296C17.0007 24.1039 16.7409 23.8635 16.4795 23.6081C17.419 22.5523 18.2871 21.4332 19.078 20.2585C20.4907 20.1375 21.8935 19.918 23.2765 19.6016C23.3397 19.8606 23.3956 20.1144 23.4443 20.3629C23.7446 21.7264 23.7951 23.1343 23.5933 24.5164V24.5164ZM24.7176 17.8016H24.7174C24.548 17.8586 24.374 17.9136 24.1968 17.9669C23.7633 16.6034 23.2388 15.2713 22.627 13.9801C23.2157 12.7062 23.7197 11.3936 24.1357 10.0514C24.4528 10.1447 24.7607 10.2429 25.0573 10.3466C27.926 11.349 29.6758 12.8313 29.6758 13.9734C29.6758 15.1901 27.7859 16.7695 24.7176 17.8017V17.8016Z" fill="white"/>
        <path d="M15.5001 11.1631C16.0476 11.1631 16.5828 11.3279 17.0381 11.6367C17.4933 11.9455 17.8482 12.3844 18.0577 12.8979C18.2672 13.4114 18.3221 13.9765 18.2152 14.5216C18.1084 15.0668 17.8448 15.5675 17.4576 15.9605C17.0705 16.3536 16.5772 16.6212 16.0402 16.7296C15.5032 16.8381 14.9466 16.7824 14.4408 16.5697C13.935 16.357 13.5026 15.9968 13.1984 15.5346C12.8943 15.0725 12.7319 14.5291 12.7319 13.9733C12.7319 13.228 13.0236 12.5132 13.5427 11.9862C14.0618 11.4592 14.7659 11.1631 15.5001 11.1631Z" fill="white"/>
    </g>
    <defs>
        <clipPath id="clip0">
            <rect width="31" height="28" fill="white"/>
        </clipPath>
    </defs>
</svg>
