<svg width="28" height="28" viewBox="0 0 28 28" fill="none" xmlns="http://www.w3.org/2000/svg">
    <path fill-rule="evenodd" clip-rule="evenodd" d="M18.5968 19.032V9.98191C18.5968 9.82714 18.5353 9.67873 18.4258 9.56931C18.3164 9.45988 18.168 9.39841 18.0132 9.39841H8.97363V0.0566406H27.3446C27.4213 0.0566255 27.4972 0.0717099 27.568 0.101032C27.6388 0.130355 27.7032 0.173341 27.7574 0.227535C27.8116 0.28173 27.8546 0.346072 27.8839 0.416886C27.9133 0.4877 27.9284 0.5636 27.9284 0.64025V19.032H18.5968Z" fill="white"/>
    <path opacity="0.405" fill-rule="evenodd" clip-rule="evenodd" d="M8.97356 0.0566406V9.39841H0.345983C0.288283 9.3984 0.231883 9.38128 0.183908 9.34922C0.135933 9.31717 0.0985361 9.27161 0.0764427 9.21831C0.0543493 9.165 0.0485506 9.10635 0.0597793 9.04975C0.071008 8.99316 0.0987602 8.94116 0.139529 8.90033L8.97356 0.0566406ZM18.5967 27.6687V19.032H27.9283L19.0949 27.8749C19.0541 27.9157 19.0021 27.9435 18.9455 27.9548C18.8889 27.966 18.8303 27.9603 18.777 27.9382C18.7237 27.9161 18.6781 27.8787 18.646 27.8308C18.6139 27.7828 18.5968 27.7264 18.5967 27.6687ZM8.97356 9.39841H18.3049C18.3823 9.39841 18.4565 9.42915 18.5112 9.48386C18.5659 9.53857 18.5967 9.61277 18.5967 9.69016V19.032H9.55717C9.48053 19.032 9.40464 19.017 9.33383 18.9876C9.26303 18.9583 9.19869 18.9153 9.1445 18.8611C9.0903 18.8069 9.04731 18.7426 9.01799 18.6718C8.98866 18.601 8.97356 18.5251 8.97356 18.4484V9.39841Z" fill="white"/>
</svg>
