<svg width="46" height="28" viewBox="0 0 46 28" fill="none" xmlns="http://www.w3.org/2000/svg">
    <g clip-path="url(#clip0)">
        <path fill-rule="evenodd" clip-rule="evenodd" d="M16.0628 28.1307L14.4022 21.5149L20.9611 23.3725L16.0628 28.1307ZM26.2729 18.2173L21.3747 22.971L19.7142 16.3597L26.2729 18.2173ZM26.3645 17.8976L19.8056 16.0399L24.7084 11.2817L26.3645 17.8976ZM26.6868 17.8156L25.0307 11.1997L31.5896 13.0574L26.6868 17.8156ZM36.9016 7.90228L32.0034 12.6559L30.3429 6.04464L36.9016 7.90228ZM23.2302 4.03009L29.7889 5.88773L24.8907 10.6413L23.2302 4.03009ZM17.9134 9.18975L24.4767 11.0431L19.574 15.8012L17.9134 9.18975ZM17.5911 9.27175L19.2516 15.883L12.6929 14.0254L17.5911 9.27175ZM17.3595 9.03309L12.4613 13.7867L10.8008 7.17545L17.3595 9.03309ZM17.4521 8.71365L10.892 6.85562L15.7904 2.09744L17.4521 8.71365ZM17.7733 8.62693L16.1127 2.01549L22.676 3.87318L17.7733 8.62693ZM18.0014 8.86899L22.9078 4.1117L24.5683 10.7233L18.0014 8.86899ZM10.6605 6.6168L15.5589 1.85867L9 0.000976562L10.6605 6.6168ZM19.1602 16.2028L12.6015 14.3452L14.262 20.9564L19.1602 16.2028ZM21.0523 23.0527L14.4936 21.1951L19.3918 16.4415L21.0523 23.0527ZM31.681 12.7376L25.1223 10.88L30.0205 6.12639L31.681 12.7376Z" fill="white"/>
    </g>
    <defs>
        <clipPath id="clip0">
            <rect width="45.7182" height="28" fill="white"/>
        </clipPath>
    </defs>
</svg>
