<svg width="60" height="60" viewBox="0 0 60 60" fill="none" xmlns="http://www.w3.org/2000/svg">
<path d="M4.31154 49.6593H44.1932V45.5665H4.31154C4.2512 45.5665 4.19332 45.5426 4.15065 45.4999C4.10798 45.4572 4.08401 45.3993 4.08401 45.339V45.092C2.95931 45.9689 1.8605 46.8762 0.787598 47.8141C1.18302 48.3826 1.7099 48.8473 2.32343 49.1686C2.93696 49.4898 3.61899 49.6582 4.31154 49.6593Z" fill="url(#paint0_radial)"/>
<path d="M49.0383 4.5H4.31198C3.16882 4.50147 2.0729 4.95624 1.26457 5.76457C0.456236 6.5729 0.00146841 7.66882 0 8.81198V45.3472C0.000398868 46.2339 0.275717 47.0986 0.788032 47.8223C1.85909 46.8826 2.95789 45.9753 4.08445 45.1003V22.436H43.486V18.3516H4.08445V8.81198C4.08445 8.75163 4.10842 8.69376 4.15109 8.65109C4.19376 8.60842 4.25163 8.58445 4.31198 8.58445H49.0383C49.0987 8.58445 49.1565 8.60842 49.1992 8.65109C49.2419 8.69376 49.2659 8.75163 49.2659 8.81198V9.36693C50.5598 8.69667 51.8067 7.93926 52.9979 7.09995C52.6634 6.32762 52.1103 5.66999 51.4068 5.20803C50.7033 4.74607 49.88 4.49996 49.0383 4.5Z" fill="url(#paint1_radial)"/>
<path d="M49.2656 49.243H53.3501V8.812C53.3512 8.22321 53.2312 7.64047 52.9977 7.09998C51.8073 7.93823 50.5613 8.6947 49.2684 9.36418L49.2656 49.243Z" fill="url(#paint2_radial)"/>
<path d="M52.9979 7.09995C52.6634 6.32762 52.1103 5.66999 51.4068 5.20803C50.7033 4.74607 49.88 4.49996 49.0383 4.5H4.31198C3.16882 4.50147 2.07291 4.95624 1.26457 5.76457C0.456236 6.5729 0.00146841 7.66882 0 8.81198V45.3472C0.00365831 46.4897 0.459129 47.5844 1.26699 48.3922C2.07485 49.2001 3.16949 49.6556 4.31198 49.6592H35.1118V45.5664H4.31198C4.25163 45.5664 4.19376 45.5425 4.15109 45.4998C4.10842 45.4571 4.08445 45.3993 4.08445 45.3389V22.436H43.486V18.3516H4.08445V8.81198C4.08445 8.75163 4.10842 8.69376 4.15109 8.65109C4.19376 8.60842 4.25163 8.58445 4.31198 8.58445H49.0383C49.0987 8.58445 49.1565 8.60842 49.1992 8.65109C49.2419 8.69376 49.2659 8.75163 49.2659 8.81198V49.243H53.3503V8.81198C53.3514 8.22318 53.2315 7.64044 52.9979 7.09995Z" fill="url(#paint3_radial)"/>
<path d="M41.988 15.8542C43.0822 15.8542 43.9692 14.9672 43.9692 13.873C43.9692 12.7788 43.0822 11.8918 41.988 11.8918C40.8938 11.8918 40.0068 12.7788 40.0068 13.873C40.0068 14.9672 40.8938 15.8542 41.988 15.8542Z" fill="#FFE336"/>
<path d="M36.2341 15.8542C37.3283 15.8542 38.2153 14.9672 38.2153 13.873C38.2153 12.7788 37.3283 11.8918 36.2341 11.8918C35.1399 11.8918 34.2529 12.7788 34.2529 13.873C34.2529 14.9672 35.1399 15.8542 36.2341 15.8542Z" fill="#FFE336"/>
<path d="M30.4787 15.8542C31.5729 15.8542 32.4599 14.9672 32.4599 13.873C32.4599 12.7788 31.5729 11.8918 30.4787 11.8918C29.3846 11.8918 28.4976 12.7788 28.4976 13.873C28.4976 14.9672 29.3846 15.8542 30.4787 15.8542Z" fill="#FFE336"/>
<path d="M41.4894 54.4456C41.3382 54.4455 41.1875 54.4287 41.0399 54.3957C40.5115 54.277 40.0516 53.9536 39.7614 53.4963C39.4711 53.0391 39.3741 52.4854 39.4916 51.9567L43.5899 33.6738C43.7084 33.145 44.0321 32.685 44.4897 32.3949C44.9474 32.1048 45.5016 32.0084 46.0303 32.1268C46.5591 32.2453 47.0191 32.569 47.3092 33.0267C47.5993 33.4843 47.6957 34.0385 47.5772 34.5672L43.4789 52.8501C43.3771 53.3021 43.1248 53.7061 42.7633 53.996C42.4019 54.2858 41.9527 54.4444 41.4894 54.4456Z" fill="white"/>
<path d="M35.1147 49.8255C34.6076 49.8264 34.1185 49.6374 33.7439 49.2956L28.175 44.2538C27.9618 44.0598 27.7921 43.823 27.6769 43.5588C27.5616 43.2946 27.5036 43.0091 27.5064 42.7209C27.5093 42.4327 27.5731 42.1483 27.6936 41.8865C27.8141 41.6247 27.9885 41.3913 28.2055 41.2016L33.7745 36.3652C33.9769 36.1892 34.212 36.0548 34.4663 35.9696C34.7207 35.8845 34.9893 35.8503 35.2569 35.869C35.5245 35.8877 35.7858 35.9589 36.0258 36.0785C36.2659 36.1982 36.48 36.3639 36.656 36.5664C36.832 36.7688 36.9665 37.0039 37.0516 37.2582C37.1367 37.5126 37.1709 37.7812 37.1523 38.0488C37.1336 38.3164 37.0624 38.5777 36.9427 38.8177C36.8231 39.0578 36.6573 39.2719 36.4549 39.4479L32.6229 42.7777L36.4854 46.2739C36.7916 46.5507 37.0068 46.9138 37.1025 47.3153C37.1982 47.7169 37.17 48.138 37.0216 48.5232C36.8732 48.9084 36.6115 49.2395 36.2711 49.473C35.9307 49.7065 35.5275 49.8313 35.1147 49.8311V49.8255Z" fill="white"/>
<path d="M52.404 49.7731C51.9898 49.7767 51.5842 49.6543 51.2412 49.4221C50.8982 49.1899 50.6339 48.8589 50.4833 48.473C50.3328 48.087 50.3032 47.6645 50.3985 47.2613C50.4937 46.8582 50.7093 46.4936 51.0166 46.2158L54.8791 42.7196L51.0499 39.3899C50.6407 39.0348 50.3894 38.5317 50.3511 37.9913C50.3129 37.4509 50.4909 36.9175 50.846 36.5083C51.201 36.0991 51.7041 35.8478 52.2445 35.8095C52.7849 35.7713 53.3184 35.9493 53.7276 36.3044L59.2965 41.1435C59.5145 41.3325 59.6898 41.5656 59.8111 41.8274C59.9323 42.0892 59.9966 42.3737 59.9998 42.6622C60.0029 42.9506 59.9448 43.2365 59.8293 43.5009C59.7138 43.7652 59.5436 44.0021 59.3298 44.1958L53.7747 49.2431C53.3998 49.5844 52.911 49.7734 52.404 49.7731Z" fill="white"/>
<defs>
<radialGradient id="paint0_radial" cx="0" cy="0" r="1" gradientUnits="userSpaceOnUse" gradientTransform="translate(46.4046 47.8446) scale(54.5684)">
<stop offset="0.24" stop-color="#7F60FE" stop-opacity="0"/>
<stop offset="0.25" stop-color="#7E61FE" stop-opacity="0.01"/>
<stop offset="0.52" stop-color="#5D8BFE" stop-opacity="0.43"/>
<stop offset="0.73" stop-color="#46AAFE" stop-opacity="0.74"/>
<stop offset="0.88" stop-color="#37BEFE" stop-opacity="0.93"/>
<stop offset="0.96" stop-color="#31C5FE"/>
<stop offset="1" stop-color="#31C5FE"/>
</radialGradient>
<radialGradient id="paint1_radial" cx="0" cy="0" r="1" gradientUnits="userSpaceOnUse" gradientTransform="translate(51.1721 43.835) scale(61.0891)">
<stop stop-color="#7F60FE" stop-opacity="0"/>
<stop offset="0.17" stop-color="#7073FE" stop-opacity="0.19"/>
<stop offset="0.58" stop-color="#4F9FFE" stop-opacity="0.62"/>
<stop offset="0.87" stop-color="#39BAFE" stop-opacity="0.89"/>
<stop offset="1" stop-color="#31C5FE"/>
</radialGradient>
<radialGradient id="paint2_radial" cx="0" cy="0" r="1" gradientUnits="userSpaceOnUse" gradientTransform="translate(51.1719 43.835) scale(61.0891)">
<stop stop-color="#7F60FE" stop-opacity="0"/>
<stop offset="0.13" stop-color="#7E61FE" stop-opacity="0"/>
<stop offset="0.26" stop-color="#7C64FE" stop-opacity="0.04"/>
<stop offset="0.34" stop-color="#6F74FE" stop-opacity="0.2"/>
<stop offset="0.47" stop-color="#5D8DFE" stop-opacity="0.44"/>
<stop offset="0.6" stop-color="#4DA1FE" stop-opacity="0.64"/>
<stop offset="0.72" stop-color="#41B0FE" stop-opacity="0.8"/>
<stop offset="0.83" stop-color="#38BCFE" stop-opacity="0.91"/>
<stop offset="0.93" stop-color="#33C3FE" stop-opacity="0.98"/>
<stop offset="1" stop-color="#31C5FE"/>
</radialGradient>
<radialGradient id="paint3_radial" cx="0" cy="0" r="1" gradientUnits="userSpaceOnUse" gradientTransform="translate(15.1058 6.56165) scale(47.5233)">
<stop stop-color="#31C5FE"/>
<stop offset="1" stop-color="#3719CA" stop-opacity="0"/>
</radialGradient>
</defs>
</svg>
