<svg width="60" height="60" viewBox="0 0 60 60" fill="none" xmlns="http://www.w3.org/2000/svg">
<path d="M27.9473 18.3667V28.7123H17.4465C16.1101 30.0279 14.7259 31.2629 13.2939 32.4473C13.4983 32.6552 13.7421 32.8203 14.011 32.9329C14.2799 33.0456 14.5686 33.1036 14.8601 33.1036H30.1309C30.7132 33.1036 31.2717 32.8722 31.6835 32.4605C32.0952 32.0487 32.3265 31.4903 32.3265 30.9079V15.6222C32.3265 15.3421 32.2729 15.0647 32.1684 14.8048C30.8696 16.1147 29.457 17.3067 27.9473 18.3667Z" fill="url(#paint0_linear)"/>
<path d="M17.0544 28.712V25.4752C16.8992 25.5886 16.756 25.699 16.595 25.8153C16.7471 25.699 16.8933 25.5886 17.0544 25.4752V17.8174H27.9459V18.3663C29.4598 17.3069 30.8764 16.1149 32.179 14.8044C32.0131 14.3982 31.729 14.0511 31.3636 13.8081C30.9983 13.565 30.5684 13.4372 30.1296 13.4411H14.8588C14.5702 13.4407 14.2843 13.4972 14.0176 13.6074C13.7509 13.7176 13.5085 13.8792 13.3043 14.0832C13.1001 14.2871 12.9381 14.5292 12.8276 14.7958C12.717 15.0624 12.6602 15.3482 12.6602 15.6367V30.9076C12.6598 31.484 12.8871 32.0372 13.2926 32.4469C14.7245 31.2536 16.1176 30.0275 17.4452 28.712H17.0544Z" fill="url(#paint1_linear)"/>
<path d="M37.9608 3H4.50458C3.31013 3.00079 2.16484 3.47563 1.32023 4.32023C0.475632 5.16484 0.00079024 6.31013 0 7.50458L0 54.4954C0.00079024 55.6899 0.475632 56.8352 1.32023 57.6798C2.16484 58.5244 3.31013 58.9992 4.50458 59H37.9608C39.1552 58.9992 40.3005 58.5244 41.1451 57.6798C41.9897 56.8352 42.4646 55.6899 42.4654 54.4954V7.50458C42.4646 6.31013 41.9897 5.16484 41.1451 4.32023C40.3005 3.47563 39.1552 3.00079 37.9608 3V3ZM38.0742 54.4954C38.0742 54.5255 38.0622 54.5543 38.041 54.5756C38.0197 54.5968 37.9909 54.6088 37.9608 54.6088H4.50458C4.47452 54.6088 4.44568 54.5968 4.42442 54.5756C4.40316 54.5543 4.39122 54.5255 4.39122 54.4954V45.5847H31.3948V41.1845H4.39122V7.50458C4.39122 7.47452 4.40316 7.44568 4.42442 7.42442C4.44568 7.40316 4.47452 7.39122 4.50458 7.39122H37.9608C37.9909 7.39122 38.0197 7.40316 38.041 7.42442C38.0622 7.44568 38.0742 7.47452 38.0742 7.50458V54.4954Z" fill="url(#paint2_linear)"/>
<path d="M20.688 52.2819C21.9961 52.2819 23.0566 51.2215 23.0566 49.9133C23.0566 48.6051 21.9961 47.5447 20.688 47.5447C19.3798 47.5447 18.3193 48.6051 18.3193 49.9133C18.3193 51.2215 19.3798 52.2819 20.688 52.2819Z" fill="#FFE336"/>
<path d="M21.8205 24.0852H9.9624V35.9433H21.8205V24.0852Z" fill="#FFE336"/>
<path d="M32.179 14.8044C32.0131 14.3982 31.729 14.0511 31.3636 13.8081C30.9983 13.565 30.5684 13.4372 30.1296 13.4411H14.8588C14.5702 13.4407 14.2843 13.4972 14.0176 13.6074C13.7509 13.7176 13.5085 13.8792 13.3043 14.0832C13.1001 14.2871 12.9381 14.5292 12.8276 14.7958C12.717 15.0624 12.6602 15.3482 12.6602 15.6367V30.9076C12.6609 31.4902 12.8929 32.0486 13.3052 32.4603C13.7174 32.872 14.2762 33.1032 14.8588 33.1032H30.1296C30.7119 33.1032 31.2704 32.8719 31.6821 32.4601C32.0939 32.0483 32.3252 31.4899 32.3252 30.9076V15.6218C32.329 15.3425 32.2794 15.0651 32.179 14.8044ZM27.9459 28.712H17.0544V17.8174H27.9459V28.712Z" fill="url(#paint3_linear)"/>
<defs>
<linearGradient id="paint0_linear" x1="16.477" y1="23.9542" x2="30.1459" y2="23.9542" gradientUnits="userSpaceOnUse">
<stop offset="0.29" stop-color="white" stop-opacity="0"/>
<stop offset="0.32" stop-color="white" stop-opacity="0"/>
<stop offset="0.61" stop-color="white" stop-opacity="0.42"/>
<stop offset="1" stop-color="white"/>
</linearGradient>
<linearGradient id="paint1_linear" x1="22.4211" y1="25.4096" x2="22.4211" y2="12.4388" gradientUnits="userSpaceOnUse">
<stop offset="0.11" stop-color="white" stop-opacity="0"/>
<stop offset="0.13" stop-color="white" stop-opacity="0.05"/>
<stop offset="0.25" stop-color="white" stop-opacity="0.3"/>
<stop offset="0.37" stop-color="white" stop-opacity="0.51"/>
<stop offset="0.48" stop-color="white" stop-opacity="0.69"/>
<stop offset="0.59" stop-color="white" stop-opacity="0.82"/>
<stop offset="0.69" stop-color="white" stop-opacity="0.92"/>
<stop offset="0.78" stop-color="white" stop-opacity="0.98"/>
<stop offset="0.86" stop-color="white"/>
</linearGradient>
<linearGradient id="paint2_linear" x1="6.12444" y1="52.8606" x2="40.5293" y2="3.08054" gradientUnits="userSpaceOnUse">
<stop stop-color="#54B7FE"/>
<stop offset="1" stop-color="#3719CA"/>
</linearGradient>
<linearGradient id="paint3_linear" x1="19.608" y1="27.3397" x2="29.697" y2="13.1189" gradientUnits="userSpaceOnUse">
<stop offset="0.12" stop-color="white" stop-opacity="0"/>
<stop offset="0.2" stop-color="white" stop-opacity="0.04"/>
<stop offset="0.32" stop-color="white" stop-opacity="0.14"/>
<stop offset="0.48" stop-color="white" stop-opacity="0.3"/>
<stop offset="0.67" stop-color="white" stop-opacity="0.53"/>
<stop offset="0.88" stop-color="white" stop-opacity="0.82"/>
<stop offset="1" stop-color="white"/>
</linearGradient>
</defs>
</svg>
