<svg xmlns="http://www.w3.org/2000/svg" width="19" height="19" viewBox="0 0 19 19">
  <metadata><?xpacket begin="﻿" id="W5M0MpCehiHzreSzNTczkc9d"?>
<x:xmpmeta xmlns:x="adobe:ns:meta/" x:xmptk="Adobe XMP Core 5.6-c138 79.159824, 2016/09/14-01:09:01        ">
   <rdf:RDF xmlns:rdf="http://www.w3.org/1999/02/22-rdf-syntax-ns#">
      <rdf:Description rdf:about=""/>
   </rdf:RDF>
</x:xmpmeta>
                                                                                                    
                                                                                                    
                                                                                                    
                                                                                                    
                                                                                                    
                                                                                                    
                                                                                                    
                                                                                                    
                                                                                                    
                                                                                                    
                                                                                                    
                                                                                                    
                                                                                                    
                                                                                                    
                                                                                                    
                                                                                                    
                                                                                                    
                                                                                                    
                                                                                                    
                                                                                                    
                           
<?xpacket end="w"?></metadata>
<defs>
    <style>
      .cls-1 {
        fill: #fff;
        fill-rule: evenodd;
      }
    </style>
  </defs>
  <path id="instagram_logo" class="cls-1" d="M1261.47,807h-7.94a5.474,5.474,0,0,1-5.53-5.38v-8.24a5.474,5.474,0,0,1,5.53-5.38h7.94a5.474,5.474,0,0,1,5.53,5.38v8.24A5.474,5.474,0,0,1,1261.47,807Zm0-1.422a4.088,4.088,0,0,0,2.87-1.164,3.885,3.885,0,0,0,1.2-2.794v-8.24a3.885,3.885,0,0,0-1.2-2.794,4.088,4.088,0,0,0-2.87-1.164h-7.94a4.088,4.088,0,0,0-2.87,1.164,3.885,3.885,0,0,0-1.2,2.794v8.24a3.885,3.885,0,0,0,1.2,2.794,4.088,4.088,0,0,0,2.87,1.164h7.94Zm1.29-8.151a5.232,5.232,0,1,1-5.23-5.093A5.162,5.162,0,0,1,1262.76,797.427Zm-5.26-3.331a3.336,3.336,0,1,0,3.43,3.335A3.377,3.377,0,0,0,1257.5,794.1Zm6.58-1.841a1.235,1.235,0,1,1-1.23-1.206A1.218,1.218,0,0,1,1264.08,792.255Z" transform="translate(-1248 -788)"/>
</svg>
