<svg width="128" height="129" viewBox="0 0 128 129" fill="none" xmlns="http://www.w3.org/2000/svg">
<path d="M75.3398 0.99654L71.7996 8.96886L70.5827 8.85813L69.6976 4.09689L67.9275 8.74741L66.7106 8.63668L64.7192 0L66.3787 0.110727L67.7063 6.08997L69.4764 1.55017L70.6933 1.6609L71.5784 6.42215L74.0122 0.775086L75.3398 0.99654Z" fill="white"/>
<path d="M80.7608 9.63309L80.4289 10.9618L75.3398 9.63309L77.4418 1.55005L82.4202 2.76804L82.0883 4.09676L78.5481 3.21095L77.995 5.42548L81.0927 6.20057L80.7608 7.41856L77.6631 6.64347L77.1099 8.63655L80.7608 9.63309Z" fill="white"/>
<path d="M88.2833 11.4048C87.8408 12.5121 86.6238 13.2872 85.075 12.6228L81.8667 11.2941L84.9644 3.54321L87.9514 4.76121C89.279 5.31484 89.8321 6.42211 89.3896 7.6401C89.0577 8.30446 88.5045 8.85809 87.6195 8.85809C88.5045 9.41173 88.6152 10.519 88.2833 11.4048ZM86.9557 10.7404C87.177 10.1868 87.0664 9.52245 86.1813 9.19027L84.5218 8.52591L83.6368 10.7404L85.2963 11.4048C86.0707 11.6263 86.7345 11.2941 86.9557 10.7404ZM85.7388 5.42557L84.9644 7.30792L86.5132 7.97228C87.0663 8.19373 87.5089 7.97228 87.7301 7.41865C87.9514 6.86501 87.8408 6.31138 87.177 6.08993L85.7388 5.42557Z" fill="white"/>
<path d="M89.39 11.8478L90.7176 12.5121C90.3857 13.0657 90.7176 13.8408 91.492 14.2837C92.2664 14.7266 92.9302 14.5052 93.2621 13.9516C93.594 13.3979 93.2621 12.955 92.709 12.4014L91.9345 11.6263C90.607 10.4083 90.8282 9.30104 91.1601 8.63668C91.8239 7.30796 93.4834 7.08651 94.8109 7.8616C96.1385 8.63668 96.6917 9.9654 96.0279 11.4048L94.7003 10.7405C95.0322 10.1869 94.8109 9.41177 94.1472 9.07959C93.4834 8.74741 92.8196 8.85814 92.4877 9.41177C92.3771 9.63322 92.1558 10.0761 92.9302 10.7405L93.7046 11.4048C94.7003 12.4014 95.2535 13.3979 94.5897 14.6159C93.8153 15.9446 92.2664 16.1661 90.8282 15.391C89.1688 14.6159 88.7262 13.0657 89.39 11.8478Z" fill="white"/>
<path d="M99.1255 10.7405L100.342 11.5156L95.6959 18.3806L94.479 17.6055L99.1255 10.7405Z" fill="white"/>
<path d="M105.985 17.4949L104.104 15.9447L99.6786 21.3703L98.5723 20.4845L102.998 15.0589L101.117 13.5087L102.002 12.5122L106.87 16.4984L105.985 17.4949Z" fill="white"/>
<path d="M106.87 26.5744L105.874 27.4602L102.223 23.6955L108.197 17.9377L111.737 21.5917L110.742 22.4775L108.308 19.9308L106.648 21.481L108.861 23.8063L107.865 24.6921L105.653 22.3668L104.104 23.8063L106.87 26.5744Z" fill="white"/>
<path d="M108.529 26.6852L109.414 27.7925C108.861 28.2354 108.861 29.0104 109.414 29.7855C109.967 30.4499 110.631 30.5606 111.184 30.2284C111.626 29.8963 111.626 29.2319 111.295 28.5675L110.852 27.571C110.188 25.9101 110.852 25.0243 111.405 24.5814C112.622 23.6956 114.06 24.1385 115.056 25.3565C115.941 26.5745 115.941 28.1246 114.724 29.0104L113.839 27.9032C114.392 27.4603 114.503 26.7959 113.95 26.1316C113.507 25.5779 112.843 25.3565 112.29 25.7994C112.069 25.9101 111.737 26.2423 112.18 27.2388L112.622 28.2354C113.175 29.4534 113.175 30.6713 112.069 31.5572C110.852 32.443 109.303 32.1108 108.308 30.7821C107.201 29.2319 107.312 27.571 108.529 26.6852Z" fill="white"/>
<path d="M117.49 40.1937C118.486 39.7508 119.481 40.3045 119.813 41.1903C120.145 42.0761 119.813 43.1833 118.928 43.6263C117.932 44.0692 116.937 43.5155 116.494 42.6297C116.052 41.7439 116.494 40.6366 117.49 40.1937Z" fill="white"/>
<path d="M121.473 58.4637L121.03 55.2526L118.928 54.8097L118.707 53.2595L127.336 55.3633L127.558 56.9135L119.703 61.0104L119.481 59.4602L121.473 58.4637ZM122.69 57.91L125.898 56.3599L122.468 55.5848L122.69 57.91Z" fill="white"/>
<path d="M125.234 67.8755C123.907 67.8755 122.579 67.1004 122.579 65.218V63.3357H119.592V61.8962L127.89 62.007L127.779 65.3288C127.89 67.1004 126.562 67.8755 125.234 67.8755ZM125.234 66.3253C125.898 66.3253 126.562 65.9931 126.562 65.218V63.3357H123.907V65.1073C123.907 65.9931 124.571 66.3253 125.234 66.3253Z" fill="white"/>
<path d="M124.349 75.6264C123.022 75.4049 121.805 74.5191 122.026 72.6368L122.247 70.7544L119.26 70.3115L119.482 68.8721L127.668 69.9793L127.226 73.3011C127.115 75.1835 125.677 75.8479 124.349 75.6264ZM124.571 74.187C125.234 74.2977 125.898 74.0762 126.009 73.1904L126.23 71.3081L123.575 70.9759L123.354 72.7475C123.243 73.6333 123.907 74.0762 124.571 74.187Z" fill="white"/>
<path d="M126.562 78.0622L126.23 79.5016L119.481 77.8407L118.707 80.9411L117.379 80.6089L118.486 76.0691L126.562 78.0622Z" fill="white"/>
<path d="M124.681 84.3737L124.239 85.8132L116.384 83.1558L116.826 81.7163L124.681 84.3737Z" fill="white"/>
<path d="M119.813 86.256C121.915 87.2525 122.911 89.7992 121.915 91.903C121.362 93.121 120.256 93.8961 119.039 94.2283L118.707 92.8996C119.482 92.6781 120.256 92.2352 120.588 91.3494C121.252 89.9099 120.588 88.249 119.15 87.5847C117.711 86.9203 116.052 87.474 115.388 88.9134C115.056 89.6885 115.056 90.5743 115.499 91.3494L114.282 92.0138C113.729 90.9065 113.618 89.5778 114.171 88.3598C115.167 86.1452 117.601 85.2594 119.813 86.256Z" fill="white"/>
<path d="M111.516 97.1073L113.286 94.3391L111.959 92.5675L112.844 91.2388L118.154 98.436L117.269 99.7647L108.64 97.8824L109.525 96.5536L111.516 97.1073ZM112.844 97.4395L116.273 98.3253L114.061 95.5571L112.844 97.4395Z" fill="white"/>
<path d="M110.41 106.519L111.959 104.637L106.538 100.208L107.423 99.1003L112.844 103.529L114.392 101.647L115.388 102.533L111.405 107.294L110.41 106.519Z" fill="white"/>
<path d="M110.078 108.733L109.082 109.73L103.219 103.862L104.214 102.865L110.078 108.733Z" fill="white"/>
<path d="M104.767 108.18C106.206 110.062 105.984 112.609 104.104 114.159C102.223 115.599 99.6784 115.377 98.1296 113.495C96.6914 111.612 96.9126 108.955 98.6827 107.516C100.674 106.076 103.329 106.408 104.767 108.18ZM99.3465 112.609C100.342 113.827 102.112 114.159 103.329 113.163C104.546 112.166 104.657 110.394 103.661 109.176C102.665 107.958 101.006 107.626 99.6784 108.623C98.4615 109.619 98.3508 111.28 99.3465 112.609Z" fill="white"/>
<path d="M93.3724 121.246L89.1685 114.048L90.2748 113.384L95.9169 116.595L93.1512 111.723L94.4787 110.948L98.6827 118.145L97.4658 118.81L91.8236 115.599L94.5894 120.36L93.3724 121.246Z" fill="white"/>
<path d="M88.9472 116.817L87.6196 117.37C87.3984 116.817 86.6239 116.484 85.7389 116.817C84.9645 117.149 84.6326 117.813 84.8538 118.367C85.0751 118.92 85.6283 119.031 86.4027 118.92L87.509 118.81C89.2791 118.588 90.0535 119.474 90.2748 120.138C90.8279 121.467 90.0535 122.907 88.6153 123.46C87.1771 124.014 85.7389 123.682 85.1857 122.242L86.5133 121.689C86.7346 122.353 87.3984 122.574 88.1728 122.242C88.8366 122.021 89.1685 121.356 88.9472 120.692C88.8366 120.471 88.6153 120.028 87.6196 120.138L86.6239 120.249C85.2964 120.36 84.0794 120.138 83.6369 118.92C83.0838 117.481 83.8582 116.152 85.2964 115.488C86.8452 114.934 88.394 115.599 88.9472 116.817Z" fill="white"/>
<path d="M73.5694 122.131C73.68 123.128 72.9056 124.014 71.9099 124.124C70.9142 124.235 69.9185 123.571 69.8079 122.574C69.6973 121.578 70.4717 120.692 71.4674 120.581C72.463 120.36 73.4587 121.024 73.5694 122.131Z" fill="white"/>
<path d="M51.3328 118.588L51.1115 124.235L54.0986 120.028L55.3155 120.249L56.7537 125.232L58.3026 119.806L59.7408 120.028L57.4175 128.111L56.2006 127.889L54.4305 121.799L50.8903 127.003L49.6733 126.782L50.0052 118.367L51.3328 118.588Z" fill="white"/>
<path d="M47.7924 122.021C47.018 124.235 44.5841 125.453 42.3715 124.568C40.1588 123.792 39.0525 121.356 39.827 119.142C40.6014 116.927 43.0353 115.709 45.2479 116.595C47.4605 117.37 48.5668 119.806 47.7924 122.021ZM41.1545 119.696C40.6014 121.246 41.2652 122.796 42.814 123.35C44.2522 123.903 45.801 123.017 46.3542 121.578C46.9073 120.138 46.2435 118.478 44.8053 117.924C43.2565 117.37 41.7077 118.145 41.1545 119.696Z" fill="white"/>
<path d="M33.632 113.827C34.1851 112.83 35.5127 112.166 36.9509 112.941L40.0486 114.602L36.0659 121.91L33.1895 120.36C31.8619 119.696 31.53 118.478 32.0832 117.37C32.4151 116.817 32.9682 116.263 33.8533 116.374C33.1895 115.709 33.1895 114.602 33.632 113.827ZM35.5127 120.138L36.5084 118.367L34.9596 117.592C34.4064 117.26 33.9639 117.481 33.632 118.035C33.4107 118.588 33.4107 119.142 33.9639 119.363L35.5127 120.138ZM34.8489 114.713C34.517 115.266 34.6277 115.931 35.4021 116.374L36.9509 117.26L38.0572 115.156L36.5084 114.27C35.8446 113.827 35.1808 114.159 34.8489 114.713Z" fill="white"/>
<path d="M28.9855 117.813L27.7686 117.038L32.4151 110.173L33.632 110.948L28.9855 117.813Z" fill="white"/>
<path d="M25.5555 115.488L24.4492 114.602L28.7638 109.176L26.2193 107.183L26.9937 106.187L30.6446 109.176L25.5555 115.488Z" fill="white"/>
<path d="M21.6835 102.533L22.5685 101.647L26.2193 105.301L20.3559 111.169L16.7051 107.515L17.5901 106.63L20.1346 109.176L21.6835 107.626L19.4709 105.412L20.4665 104.415L22.6791 106.63L24.3386 105.19L21.6835 102.533Z" fill="white"/>
<path d="M14.2716 95.2249C13.3865 95.7786 12.2802 95.3357 11.8377 94.4499C11.2846 93.564 11.5058 92.4568 12.3909 91.9031C13.2759 91.3495 14.3822 91.7924 14.9354 92.5675C15.3779 93.564 15.1566 94.6713 14.2716 95.2249Z" fill="white"/>
<path d="M2.98696 83.488L2.54443 82.0485L10.5099 79.6125L10.9524 81.052L2.98696 83.488Z" fill="white"/>
<path d="M1.88072 79.5019L1.54883 78.0624L8.40795 76.623L7.74416 73.4119L9.07173 73.1904L9.95678 77.7302L1.88072 79.5019Z" fill="white"/>
<path d="M0.553014 72.9689L0.442383 71.5295L7.41213 70.7544L7.08024 67.5433L8.40781 67.4326L8.85033 72.0831L0.553014 72.9689Z" fill="white"/>
<path d="M5.42092 66.6574L0 66.5466V65.1072L5.31029 65.2179C6.52723 65.2179 7.08038 64.4428 7.08038 63.557C7.08038 62.6712 6.63786 61.8961 5.42092 61.8961L0.110631 61.7854V60.3459H5.53155C7.41227 60.3459 8.51858 61.8961 8.51858 63.557C8.40795 65.2179 7.30164 66.6574 5.42092 66.6574Z" fill="white"/>
<path d="M6.08452 58.685L6.30578 57.2456C6.96956 57.3563 7.63335 56.8027 7.74398 55.9168C7.85461 55.031 7.41209 54.4774 6.85893 54.3667C6.30578 54.2559 5.86326 54.6988 5.53136 55.3632L5.08884 56.3597C4.42505 58.1314 3.31874 58.2421 2.54433 58.1314C1.10613 57.9099 0.331709 56.4705 0.55297 55.031C0.774232 53.4809 1.88054 52.4843 3.42937 52.7058L3.20811 54.1452C2.54433 54.0345 1.99117 54.4774 1.88054 55.2525C1.76991 55.9168 2.1018 56.5812 2.76559 56.6919C2.98685 56.6919 3.54001 56.6919 3.8719 55.8061L4.31442 54.8096C4.86758 53.5916 5.64199 52.7058 6.96957 52.8165C8.5184 53.0379 9.29281 54.4774 9.07155 56.0276C8.85029 57.9099 7.52272 58.9065 6.08452 58.685Z" fill="white"/>
<path d="M4.31439 45.0657L3.65061 47.391L10.3991 49.1626L10.0672 50.602L3.31871 48.8304L2.65493 51.1557L1.43799 50.8235L2.98682 44.8442L4.31439 45.0657Z" fill="white"/>
<path d="M9.40348 42.6298L9.07159 43.2941L11.8374 44.4014L11.2842 45.7301L3.54004 42.6298L4.75698 39.6402C5.42077 37.8685 6.9696 37.6471 8.18654 38.2007C9.29285 38.6436 10.0673 39.6402 9.846 41.0796L13.4968 40.1938L12.833 41.8547L9.40348 42.6298ZM7.96528 42.8512L8.51843 41.5225C8.96096 40.526 8.51843 39.9723 7.85465 39.6402C7.19086 39.308 6.41644 39.5294 6.08455 40.3045L5.42077 41.8547L7.96528 42.8512Z" fill="white"/>
<path d="M14.714 34.2144L13.0546 37.0933L14.4928 38.7542L13.7183 40.0829L8.07617 33.2179L8.85059 31.8892L17.5904 33.3286L16.816 34.6573L14.714 34.2144ZM13.3865 33.993L9.84627 33.3286L12.1695 35.986L13.3865 33.993Z" fill="white"/>
<path d="M15.2672 24.6921L13.829 26.5744L19.4712 30.6713L18.5861 31.8893L12.9439 27.7924L11.5057 29.6748L10.3994 28.8997L14.0502 23.917L15.2672 24.6921Z" fill="white"/>
<path d="M15.4883 22.5882L16.484 21.481L22.6793 27.0173L21.6836 28.1246L15.4883 22.5882Z" fill="white"/>
<path d="M20.6881 22.6989C19.1393 20.9273 19.1393 18.2698 20.9093 16.7196C22.6794 15.1695 25.3346 15.2802 26.8834 17.0518C28.4323 18.8234 28.3216 21.4809 26.6622 23.0311C24.8921 24.692 22.2369 24.4705 20.6881 22.6989ZM25.8877 18.0484C24.7814 16.8304 23.122 16.7196 21.905 17.7162C20.6881 18.8234 20.7987 20.4843 21.7944 21.7023C22.7901 22.9203 24.5602 23.0311 25.7771 22.0345C26.8834 20.9273 26.8834 19.2664 25.8877 18.0484Z" fill="white"/>
<path d="M31.3087 9.07959L35.8446 16.0554L34.7383 16.8305L28.8749 13.9516L31.9725 18.6021L30.7556 19.3772L26.2197 12.4014L27.326 11.6263L33.0788 14.5052L29.9812 9.85468L31.3087 9.07959Z" fill="white"/>
<path d="M36.0657 13.1764L37.3933 12.512C37.7252 13.0657 38.4996 13.3978 39.274 12.9549C40.0485 12.6227 40.2697 11.9584 40.0485 11.294C39.8272 10.7404 39.1634 10.6297 38.4996 10.8511L37.3933 11.0726C35.6232 11.4048 34.8488 10.6297 34.5169 9.9653C33.8531 8.63658 34.6275 7.19714 35.9551 6.53278C37.2827 5.86842 38.8315 6.2006 39.4953 7.64005L38.1677 8.3044C37.8358 7.64004 37.1721 7.41859 36.5083 7.75077C35.8445 8.08295 35.5126 8.74731 35.8445 9.30094C35.9551 9.5224 36.1764 9.9653 37.172 9.74385L38.1677 9.5224C39.4953 9.30095 40.7122 9.5224 41.2654 10.6297C41.9292 11.9584 41.2654 13.3978 39.7166 14.1729C38.2784 14.948 36.7295 14.3944 36.0657 13.1764Z" fill="white"/>
<path d="M51.1113 7.08642C50.89 6.08988 51.6644 5.20407 52.6601 4.98261C53.6558 4.76116 54.6514 5.42552 54.8727 6.42206C55.094 7.4186 54.3196 8.41514 53.3239 8.52587C52.3282 8.63659 51.3325 8.08296 51.1113 7.08642Z" fill="white"/>
</svg>
