<svg width="143" height="36" fill="none" xmlns="http://www.w3.org/2000/svg"><path d="M40.95 9.965h.002c.796 0 1.512.086 2.133.253h0l.008.002c.55.138 1.07.376 1.533.703a3.033 3.033 0 011.252 2.5v.02l.001.02a4.106 4.106 0 01-1.936 3.766h0l-.009.005c-.617.4-1.356.68-2.232.861H41.7c-.871.183-1.837.27-2.892.27H37.645l-.093.383-1.028 4.263h-2.068l3.032-12.753c1.143-.2 2.302-.297 3.462-.293zm-2.28 6.788h.778a8.707 8.707 0 001.623-.139h.007a4.079 4.079 0 001.344-.495c.403-.243.714-.565.936-.96.234-.405.337-.886.337-1.4 0-.74-.284-1.35-.892-1.719l-.018-.01-.019-.01a4.205 4.205 0 00-2.097-.432l-.575.02h-.012l-.013.002-.48.04-.362.03-.083.354-.962 4.104-.143.614h.63zM51.3 13.469l-2.274 9.542H47.1l2.266-9.542H51.3zm.409-2.533a1.602 1.602 0 01-.85.261c-.314 0-.577-.088-.816-.269-.182-.138-.302-.346-.302-.732 0-.207.044-.408.127-.597a1.602 1.602 0 011.43-.936c.313.001.576.088.815.27.18.135.302.352.302.742 0 .204-.043.395-.126.587a1.603 1.603 0 01-.58.674zM56.334 17.922L54.12 13.47h1.887l1.388 2.994.338.73.505-.627c.45-.56.886-1.107 1.292-1.656.35-.464.704-.947 1.038-1.441h1.737a89.81 89.81 0 01-1.258 1.697 41.432 41.432 0 01-2.292 2.657l-.249.266.176.318a31.27 31.27 0 012.089 4.614h-1.882a32.592 32.592 0 00-1.313-3.055l-.331-.673-.494.565-2.754 3.153h-1.764l4.027-4.534.224-.253-.15-.302zM76.85 19.607a106.133 106.133 0 003.217-7.24c.315-.76.615-1.508.894-2.241h2.2a162.227 162.227 0 01-2.879 6.536 87.157 87.157 0 01-3.31 6.36h-2.18a118.804 118.804 0 01-.837-7.717l-.128-1.696-.81 1.495-2.252 4.154a69.939 69.939 0 01-2.2 3.764h-2.178a76.64 76.64 0 01-.26-6.905h0v-.005a87.506 87.506 0 01.188-5.986h2.138l-.16 2.926-.001.001c-.06 1.14-.09 2.321-.09 3.55v1.382c0 .478.01.95.04 1.434l.107 1.674.827-1.46c.809-1.425 1.61-2.855 2.405-4.288h0l.005-.01 1.131-2.142s0 0 0 0c.303-.572.564-1.102.79-1.586h1.765c.058 1.19.142 2.38.25 3.567.11 1.422.238 2.843.38 4.263l.176 1.744.771-1.574zM87.492 11.085h0c-.175.073-.37.112-.59.112-.315 0-.579-.087-.819-.269-.182-.138-.302-.346-.302-.732 0-.208.044-.41.127-.598a1.583 1.583 0 011.436-.935c.296 0 .57.088.809.27.179.135.301.35.302.738a1.563 1.563 0 01-.963 1.414zm-.151 2.384l-2.275 9.542H83.14l2.266-9.542h1.935zM95.512 14.856l-.013-.003-.013-.002a5.977 5.977 0 00-2.546.076l-.295.074-.07.295-1.84 7.726H88.79l2.19-9.103c.475-.15 1.01-.29 1.61-.432a10.051 10.051 0 013.328-.152c.178.026.341.06.493.101l-.552 1.505-.347-.085z" fill="#80808E" stroke="#80808E"/><mask id="a" fill="#fff"><path d="M96.864 19.387a7.038 7.038 0 011.712-4.626 6.256 6.256 0 011.993-1.502 5.774 5.774 0 012.583-.57c.46 0 .901.07 1.301.2a3.1 3.1 0 011.041.58c.301.25.531.561.701.932.16.37.25.79.25 1.251 0 .751-.17 1.382-.5 1.902-.331.531-.801.951-1.392 1.282-.591.32-1.291.56-2.102.7-.801.15-1.702.23-2.653.23.1.562.3.952.6 1.192.321.23.811.35 1.502.35a7.882 7.882 0 002.523-.44l.22 2.343a8.828 8.828 0 01-3.304.58c-.83 0-1.521-.12-2.092-.35a3.664 3.664 0 01-1.371-.951c-.36-.4-.611-.871-.771-1.402a5.938 5.938 0 01-.24-1.701zm5.807-4.335c-.681 0-1.271.25-1.792.73a3.55 3.55 0 00-1.001 1.933c.821-.02 1.492-.1 2.002-.2.501-.12.891-.251 1.171-.421.281-.16.471-.33.561-.52.1-.181.14-.371.14-.561 0-.641-.36-.962-1.081-.962z"/></mask><path d="M96.864 19.387a7.038 7.038 0 011.712-4.626 6.256 6.256 0 011.993-1.502 5.774 5.774 0 012.583-.57c.46 0 .901.07 1.301.2a3.1 3.1 0 011.041.58c.301.25.531.561.701.932.16.37.25.79.25 1.251 0 .751-.17 1.382-.5 1.902-.331.531-.801.951-1.392 1.282-.591.32-1.291.56-2.102.7-.801.15-1.702.23-2.653.23.1.562.3.952.6 1.192.321.23.811.35 1.502.35a7.882 7.882 0 002.523-.44l.22 2.343a8.828 8.828 0 01-3.304.58c-.83 0-1.521-.12-2.092-.35a3.664 3.664 0 01-1.371-.951c-.36-.4-.611-.871-.771-1.402a5.938 5.938 0 01-.24-1.701zm5.807-4.335c-.681 0-1.271.25-1.792.73a3.55 3.55 0 00-1.001 1.933c.821-.02 1.492-.1 2.002-.2.501-.12.891-.251 1.171-.421.281-.16.471-.33.561-.52.1-.181.14-.371.14-.561 0-.641-.36-.962-1.081-.962z" fill="#80808E"/><path d="M98.576 14.761l-.749-.662-.007.008.756.654zm1.993-1.502l.43.903.003-.002-.433-.9zm2.583-.57l-.014 1h.014v-1zm3.043 1.712l.918-.397-.005-.01-.004-.01-.909.417zm-.25 3.153l-.845-.535-.004.007.849.528zm-1.392 1.282l.477.879.011-.006-.488-.873zm-2.102.7l-.171-.985-.007.001-.007.002.185.983zm-2.653.23v-1h-1.195l.21 1.177.985-.176zm.6 1.192l-.624.781.02.016.02.015.584-.812zm1.502.35v1h.01l-.01-1zm2.523-.44l.996-.093-.12-1.272-1.206.421.33.944zm.22 2.343l.357.934.71-.271-.071-.757-.996.094zm-3.304.58l.018-1h-.018v1zm-2.092-.35l.374-.927-.006-.003-.368.93zm-1.371-.951l-.744.669.001.001.743-.67zm-.771-1.402l-.96.282.002.007.958-.289zm3.774-5.306l-.678-.735-.014.013-.012.012.704.71zm-1.001 1.933l-.986-.167-.202 1.196 1.212-.03-.024-1zm2.002-.2l.193.98.02-.003.02-.005-.233-.973zm1.171-.421l-.496-.868-.011.006-.012.007.519.855zm.561-.52l-.874-.486-.016.028-.014.03.904.427zm-5.748 2.809a6.039 6.039 0 011.47-3.968l-1.514-1.308a8.038 8.038 0 00-1.956 5.283l2-.007zm1.461-3.96A5.258 5.258 0 01101 14.163l-.861-1.805a7.257 7.257 0 00-2.31 1.742l1.497 1.325zm1.677-1.262a4.777 4.777 0 012.136-.472l.027-2a6.777 6.777 0 00-3.03.67l.867 1.802zm2.15-.472c.359 0 .695.055.992.151l.618-1.902a5.214 5.214 0 00-1.61-.25v2zm.992.151c.267.087.497.22.71.398l1.28-1.537a4.104 4.104 0 00-1.372-.763l-.618 1.902zm.71.398c.176.146.319.333.432.58l1.818-.835a3.607 3.607 0 00-.97-1.282l-1.28 1.537zm.423.56c.104.24.168.526.168.854h2c0-.592-.116-1.148-.332-1.648l-1.836.794zm.168.854c0 .596-.133 1.033-.345 1.367l1.689 1.071c.449-.707.656-1.532.656-2.438h-2zm-.349 1.374c-.226.363-.561.674-1.031.937l.976 1.746c.712-.398 1.318-.928 1.753-1.626l-1.698-1.057zm-1.02.93c-.483.263-1.078.471-1.796.595l.341 1.971c.904-.156 1.711-.428 2.409-.807l-.954-1.758zm-1.81.598c-.733.137-1.571.213-2.468.213v2c1.005 0 1.968-.085 2.837-.247l-.369-1.966zm-3.453 1.389c.124.696.403 1.35.96 1.796l1.25-1.562c-.043-.034-.165-.16-.241-.586l-1.969.352zm1.002 1.827c.57.41 1.31.539 2.085.539v-2c-.607 0-.847-.112-.918-.163l-1.167 1.624zm2.095.539a8.88 8.88 0 002.843-.497l-.66-1.888a6.873 6.873 0 01-2.202.385l.019 2zm1.517-1.347l.221 2.342 1.991-.187-.22-2.343-1.992.188zm.859 1.315a7.826 7.826 0 01-2.929.515l-.035 2a9.83 9.83 0 003.678-.647l-.714-1.868zm-2.947.514c-.737 0-1.295-.107-1.718-.277l-.748 1.855c.718.29 1.542.422 2.466.422v-2zm-1.724-.28a2.665 2.665 0 01-.997-.691l-1.484 1.34a4.664 4.664 0 001.745 1.211l.736-1.86zm-.996-.69a2.628 2.628 0 01-.557-1.022l-1.915.578c.197.654.514 1.259.985 1.782l1.487-1.338zm-.555-1.014a4.938 4.938 0 01-.2-1.415l-2-.01a6.939 6.939 0 00.281 1.988l1.92-.563zm4.607-6.755c-.957 0-1.784.362-2.47.995l1.356 1.47c.355-.328.71-.465 1.114-.465v-2zm-2.496 1.02a4.552 4.552 0 00-1.283 2.476l1.972.333c.089-.527.34-1.013.719-1.389l-1.408-1.42zm-.273 3.642c.871-.021 1.599-.106 2.171-.218l-.385-1.963c-.45.088-1.064.163-1.835.182l.05 2zm2.211-.227c.523-.126 1.039-.284 1.457-.538l-1.038-1.71c-.142.086-.406.188-.885.303l.466 1.945zm1.435-.525c.348-.2.748-.497.968-.96l-1.808-.857c.023-.047.041-.057.018-.036a.971.971 0 01-.171.117l.993 1.736zm.938-.903c.195-.35.266-.712.266-1.046h-2c0 .024-.002.04-.005.05a.098.098 0 01-.009.025l1.748.97zm.266-1.046c0-.507-.148-1.062-.606-1.469-.435-.387-.988-.492-1.475-.492v2c.109 0 .168.012.189.018.018.006-.006.002-.042-.03a.276.276 0 01-.047-.054c-.012-.019-.019-.034-.023-.043-.006-.016.004 0 .004.07h2z" fill="#80808E" mask="url(#a)"/><path d="M111.178 21.667l-.375 1.537c-.718-.029-1.252-.14-1.625-.308l-.008-.004-.008-.003a1.9 1.9 0 01-.914-.792 2.45 2.45 0 01-.278-1.222v-.017c0-.503.073-1.053.217-1.656h0l2.455-10.315 2.034-.315-2.609 10.818-.001.007-.002.008a6.78 6.78 0 00-.108.713l-.003.025v.025c0 .263.053.525.176.76.143.282.379.467.621.588.131.065.274.115.428.151z" fill="#80808E" stroke="#80808E"/><mask id="b" fill="#fff"><path d="M113.726 19.386a7.06 7.06 0 011.712-4.625 6.287 6.287 0 011.992-1.502 5.791 5.791 0 012.583-.57c.461 0 .901.07 1.302.2.4.13.741.33 1.041.58.3.25.531.561.701.932.16.37.25.79.25 1.251 0 .751-.17 1.382-.5 1.902-.331.53-.801.951-1.392 1.282-.591.32-1.292.56-2.102.7-.811.15-1.702.23-2.653.23.1.562.3.952.6 1.192.321.23.811.35 1.502.35a7.892 7.892 0 002.523-.44l.22 2.343a8.809 8.809 0 01-3.304.58c-.831 0-1.521-.12-2.092-.35a3.676 3.676 0 01-1.372-.951 3.707 3.707 0 01-.771-1.402 5.941 5.941 0 01-.24-1.702zm5.807-4.335a2.5 2.5 0 00-1.782.731 3.539 3.539 0 00-1.011 1.933c.821-.02 1.491-.1 2.002-.2.5-.12.891-.251 1.171-.421.281-.16.461-.33.561-.52.09-.181.14-.371.14-.562 0-.64-.36-.96-1.081-.96z"/></mask><path d="M113.726 19.386a7.06 7.06 0 011.712-4.625 6.287 6.287 0 011.992-1.502 5.791 5.791 0 012.583-.57c.461 0 .901.07 1.302.2.4.13.741.33 1.041.58.3.25.531.561.701.932.16.37.25.79.25 1.251 0 .751-.17 1.382-.5 1.902-.331.53-.801.951-1.392 1.282-.591.32-1.292.56-2.102.7-.811.15-1.702.23-2.653.23.1.562.3.952.6 1.192.321.23.811.35 1.502.35a7.892 7.892 0 002.523-.44l.22 2.343a8.809 8.809 0 01-3.304.58c-.831 0-1.521-.12-2.092-.35a3.676 3.676 0 01-1.372-.951 3.707 3.707 0 01-.771-1.402 5.941 5.941 0 01-.24-1.702zm5.807-4.335a2.5 2.5 0 00-1.782.731 3.539 3.539 0 00-1.011 1.933c.821-.02 1.491-.1 2.002-.2.5-.12.891-.251 1.171-.421.281-.16.461-.33.561-.52.09-.181.14-.371.14-.562 0-.64-.36-.96-1.081-.96z" fill="#80808E"/><path d="M115.438 14.761l-.749-.663-.008.01.757.653zm1.992-1.502l.432.903.002-.001-.434-.902zm2.583-.57l-.013 1h.013v-1zm3.044 1.712l.918-.397-.005-.01-.004-.01-.909.417zm-.25 3.153l-.845-.535-.004.007.849.528zm-1.392 1.282l.477.879.011-.006-.488-.873zm-2.102.7l-.171-.985-.012.002.183.984zm-2.653.23v-1h-1.195l.21 1.177.985-.176zm.6 1.192l-.624.781.02.016.021.015.583-.812zm1.502.35v1h.01l-.01-1zm2.523-.44l.995-.093-.119-1.272-1.206.421.33.944zm.22 2.343l.358.934.709-.272-.071-.756-.996.094zm-3.304.58l.018-1h-.018v1zm-2.092-.35l.374-.927-.006-.003-.368.93zm-1.372-.951l-.751.66.005.005.005.006.741-.671zm-.771-1.402l.96-.281-.96.281zm3.785-5.306l.7.714.006-.006-.706-.708zm-1.011 1.933l-.986-.17-.205 1.199 1.215-.03-.024-1zm2.002-.2l.192.98.021-.003.02-.005-.233-.973zm1.171-.421l-.496-.869-.011.007-.012.007.519.855zm.561-.52l.885.465.005-.01.004-.009-.894-.447zm-5.748 2.81a6.058 6.058 0 011.47-3.97l-1.515-1.306a8.053 8.053 0 00-1.955 5.28l2-.004zm1.461-3.96a5.268 5.268 0 011.675-1.262l-.863-1.805a7.275 7.275 0 00-2.309 1.741l1.497 1.326zm1.677-1.263a4.784 4.784 0 012.136-.472l.027-2a6.79 6.79 0 00-3.03.67l.867 1.802zm2.149-.472c.36 0 .696.055.993.151l.618-1.902a5.216 5.216 0 00-1.611-.25v2zm.993.151c.267.087.497.22.71.398l1.28-1.537a4.106 4.106 0 00-1.372-.763l-.618 1.902zm.71.398c.176.146.318.333.432.58l1.818-.835a3.607 3.607 0 00-.97-1.282l-1.28 1.537zm.423.56c.104.24.168.526.168.854h2c0-.592-.116-1.148-.332-1.648l-1.836.794zm.168.854c0 .596-.133 1.033-.345 1.367l1.689 1.071c.449-.707.656-1.532.656-2.438h-2zm-.349 1.374c-.226.363-.561.674-1.031.937l.976 1.745c.711-.397 1.318-.927 1.752-1.625l-1.697-1.057zm-1.02.93c-.483.263-1.078.471-1.796.595l.341 1.971c.904-.156 1.711-.429 2.409-.807l-.954-1.758zm-1.808.597c-.745.138-1.575.214-2.47.214v2c1.006 0 1.958-.085 2.835-.247l-.365-1.967zm-3.455 1.39c.124.695.402 1.35.961 1.796l1.249-1.562c-.043-.034-.165-.16-.241-.586l-1.969.352zm1.002 1.827c.569.41 1.31.539 2.085.539v-2c-.607 0-.847-.112-.918-.163l-1.167 1.624zm2.095.539a8.884 8.884 0 002.842-.497l-.659-1.888a6.883 6.883 0 01-2.203.385l.02 2zm1.517-1.347l.22 2.342 1.992-.187-.221-2.343-1.991.188zm.859 1.315a7.815 7.815 0 01-2.929.515l-.035 2a9.812 9.812 0 003.679-.647l-.715-1.868zm-2.947.514c-.737 0-1.295-.107-1.718-.277l-.748 1.854c.718.29 1.542.424 2.466.424v-2zm-1.724-.28a2.675 2.675 0 01-.998-.692l-1.483 1.342a4.67 4.67 0 001.745 1.21l.736-1.86zm-.988-.68a2.705 2.705 0 01-.563-1.024l-1.919.563c.193.657.527 1.265.979 1.78l1.503-1.32zm-.563-1.024a4.948 4.948 0 01-.2-1.416l-2-.01a6.934 6.934 0 00.281 1.989l1.919-.563zm4.613-6.755a3.503 3.503 0 00-1.35.261l.759 1.85c.184-.075.381-.113.579-.112l.012-2zm-1.35.261a3.493 3.493 0 00-1.144.761l1.412 1.416c.141-.14.307-.25.491-.326l-.759-1.85zm-1.139.755a4.549 4.549 0 00-1.296 2.478l1.971.337c.09-.527.344-1.012.726-1.387l-1.401-1.427zm-.286 3.646a13.05 13.05 0 002.17-.218l-.385-1.963c-.449.088-1.063.163-1.834.182l.049 2zm2.211-.227c.523-.126 1.039-.284 1.457-.538l-1.038-1.71c-.142.086-.407.188-.885.303l.466 1.945zm1.434-.525c.377-.215.73-.506.95-.923l-1.77-.932c.019-.036.012.014-.172.119l.992 1.736zm.959-.942c.15-.298.246-.64.246-1.008h-2a.273.273 0 01-.035.114l1.789.894zm.246-1.008c0-.507-.148-1.06-.606-1.468-.435-.387-.988-.493-1.475-.493v2c.109 0 .167.013.189.02.018.005-.006 0-.043-.032a.309.309 0 01-.046-.053.186.186 0 01-.023-.043c-.006-.016.004 0 .004.07h2z" fill="#80808E" mask="url(#b)"/><mask id="c" fill="#fff"><path d="M127.121 21.389c.68 0 1.141-.1 1.401-.3.25-.18.371-.4.371-.621a.937.937 0 00-.071-.38.826.826 0 00-.23-.3 2.413 2.413 0 00-.44-.301c-.18-.1-.421-.2-.711-.34-.34-.15-.651-.3-.941-.471a3.296 3.296 0 01-.771-.6c-.22-.241-.391-.501-.521-.802-.12-.3-.19-.66-.19-1.081 0-1.081.401-1.932 1.191-2.563.791-.63 1.943-.941 3.464-.941a6.916 6.916 0 013.274.76l-1.021 2.223a6.198 6.198 0 00-2.373-.62c-.19 0-.37.01-.55.03-.181.02-.351.07-.501.13a.919.919 0 00-.37.28c-.1.14-.149.31-.14.48 0 .271.1.471.31.601.2.14.5.3.871.481.52.26.951.5 1.301.7.341.221.621.451.821.692.211.24.361.51.451.82.1.3.14.661.14 1.082a2.973 2.973 0 01-1.121 2.363c-.381.32-.871.58-1.472.78a9.028 9.028 0 01-4.665-.05 5.885 5.885 0 01-1.322-.57l1.021-2.283c.221.13.581.3 1.052.5.48.2 1.061.301 1.742.301z"/></mask><path d="M127.121 21.389c.68 0 1.141-.1 1.401-.3.25-.18.371-.4.371-.621a.937.937 0 00-.071-.38.826.826 0 00-.23-.3 2.413 2.413 0 00-.44-.301c-.18-.1-.421-.2-.711-.34-.34-.15-.651-.3-.941-.471a3.296 3.296 0 01-.771-.6c-.22-.241-.391-.501-.521-.802-.12-.3-.19-.66-.19-1.081 0-1.081.401-1.932 1.191-2.563.791-.63 1.943-.941 3.464-.941a6.916 6.916 0 013.274.76l-1.021 2.223a6.198 6.198 0 00-2.373-.62c-.19 0-.37.01-.55.03-.181.02-.351.07-.501.13a.919.919 0 00-.37.28c-.1.14-.149.31-.14.48 0 .271.1.471.31.601.2.14.5.3.871.481.52.26.951.5 1.301.7.341.221.621.451.821.692.211.24.361.51.451.82.1.3.14.661.14 1.082a2.973 2.973 0 01-1.121 2.363c-.381.32-.871.58-1.472.78a9.028 9.028 0 01-4.665-.05 5.885 5.885 0 01-1.322-.57l1.021-2.283c.221.13.581.3 1.052.5.48.2 1.061.301 1.742.301z" fill="#80808E"/><path d="M128.522 21.089l-.584-.812-.013.01-.013.009.61.793zm.371-.621l-1-.023v.022h1zm-.071-.38l.927-.378-.008-.018-.008-.019-.911.415zm-.23-.3l-.651.758.007.006.008.006.636-.77zm-.44-.301l-.486.874.009.005.009.004.468-.883zm-.711-.34l.435-.901-.016-.008-.015-.006-.404.914zm-.941-.471l.506-.863-.007-.003-.006-.004-.493.87zm-.771-.6l-.737.675.007.008.007.007.723-.69zm-.521-.802l-.928.372.005.013.006.013.917-.398zm4.465-4.585v1h.017l-.017-1zm3.274.76l.909.418.4-.87-.853-.437-.456.89zm-1.021 2.223l-.439.899.92.45.428-.931-.909-.418zm-2.373-.62l.057-.999-.028-.001h-.029v1zm-1.051.16l-.371-.929-.012.005.383.924zm-.37.28l-.785-.62-.016.02-.014.02.815.58zm-.14.48h1v-.025l-.002-.026-.998.052zm.31.601l.573-.819-.023-.016-.024-.015-.526.85zm.871.481l.447-.894-.01-.005-.437.899zm1.301.7l.544-.839-.024-.015-.023-.013-.497.868zm.821.692l-.768.64.008.009.008.01.752-.66zm.451.82l-.961.28.006.018.006.019.949-.316zm.14 1.082h-1v.014l1-.014zm-1.121 2.363l-.622-.784-.011.01-.011.009.644.764zm-1.472.78l.248.97.034-.01.034-.01-.316-.95zm-4.665-.05l-.282.96.013.004.269-.964zm-1.322-.57l-.913-.409-.366.818.773.453.506-.862zm1.021-2.283l.509-.86-.964-.57-.457 1.022.912.408zm1.052.5l-.392.92.007.004.385-.923zm1.742 1.301c.71 0 1.469-.09 2.011-.508l-1.22-1.585c.028-.021.003.009-.143.04-.142.03-.352.053-.648.053v2zm1.985-.489c.442-.317.787-.813.787-1.432h-2c0-.078.022-.14.044-.179.021-.035.032-.034.001-.012l1.168 1.623zm.786-1.41a1.966 1.966 0 00-.143-.78l-1.853.755a.064.064 0 01-.003-.02l1.999.046zm-.159-.817a1.852 1.852 0 00-.504-.657l-1.273 1.543a.155.155 0 01-.044-.057l1.821-.829zm-.489-.644a3.422 3.422 0 00-.624-.426l-.936 1.767c.091.05.178.108.257.176l1.303-1.517zm-.607-.416c-.208-.116-.549-.265-.761-.367l-.87 1.801c.369.178.508.23.66.314l.971-1.748zm-.792-.381a8.067 8.067 0 01-.839-.419l-1.012 1.726c.336.197.685.364 1.043.522l.808-1.83zm-.852-.426a2.294 2.294 0 01-.541-.422l-1.446 1.382c.285.298.612.56 1.001.78l.986-1.74zm-.527-.407a1.838 1.838 0 01-.34-.522l-1.835.795c.175.404.407.758.701 1.079l1.474-1.352zm-.329-.496a1.913 1.913 0 01-.119-.71h-2c0 .531.089 1.02.262 1.453l1.857-.743zm-.119-.71c0-.796.276-1.352.815-1.781l-1.247-1.564c-1.043.832-1.568 1.978-1.568 3.345h2zm.815-1.781c.543-.433 1.433-.723 2.84-.723v-2c-1.636 0-3.048.33-4.087 1.16l1.247 1.563zm2.857-.723a5.921 5.921 0 012.801.65l.912-1.779a7.916 7.916 0 00-3.747-.87l.034 1.999zm2.349-.657l-1.022 2.223 1.818.835 1.021-2.223-1.817-.835zm.327 1.742a7.203 7.203 0 00-2.756-.72l-.113 1.996a5.2 5.2 0 011.99.52l.879-1.796zm-2.813-.722c-.226 0-.443.012-.661.036l.221 1.988c.143-.016.286-.024.44-.024v-2zm-.661.036c-.291.032-.55.11-.761.195l.743 1.857a.93.93 0 01.239-.064l-.221-1.988zm-.773.2a1.918 1.918 0 00-.772.585l1.57 1.239a.088.088 0 01-.032.024l-.766-1.848zm-.802.624a1.76 1.76 0 00-.324 1.112l1.997-.103a.24.24 0 01-.044.151l-1.629-1.16zm-.325 1.06c0 .563.235 1.112.784 1.452l1.052-1.7a.378.378 0 01.13.146c.035.07.034.115.034.103h-2zm.736 1.42c.271.19.635.38 1.007.561l.875-1.798a6.105 6.105 0 01-.735-.4l-1.147 1.638zm.998.556c.497.25.91.48 1.252.675l.993-1.736a27.211 27.211 0 00-1.351-.727l-.894 1.788zm1.205.646c.291.189.483.356.596.492l1.537-1.28c-.288-.345-.657-.639-1.046-.89l-1.087 1.678zm.612.51c.116.133.194.274.242.441l1.921-.557a3.133 3.133 0 00-.658-1.2l-1.505 1.316zm.254.479c.052.157.089.397.089.765h2c0-.473-.044-.954-.191-1.398l-1.898.633zm.089.779c.004.3-.061.597-.189.869l1.807.857a3.97 3.97 0 00.382-1.754l-2 .028zm-.189.869a1.96 1.96 0 01-.554.696l1.243 1.567a3.966 3.966 0 001.118-1.406l-1.807-.857zm-.576.715c-.262.22-.632.426-1.144.597l.632 1.897c.689-.23 1.3-.544 1.8-.965l-1.288-1.53zm-1.076.577a8.03 8.03 0 01-4.149-.045l-.537 1.927c1.693.472 3.48.49 5.182.055l-.496-1.937zm-4.136-.041a4.88 4.88 0 01-1.097-.474l-1.012 1.725c.487.285 1.006.51 1.546.668l.563-1.92zm-.69.797l1.021-2.283-1.825-.816-1.022 2.282 1.826.817zm-.4-1.83c.28.166.693.357 1.168.56l.783-1.84a9.125 9.125 0 01-.934-.442l-1.017 1.722zm1.175.563c.634.264 1.352.377 2.127.377v-2c-.588 0-1.03-.087-1.358-.223l-.769 1.846z" fill="#80808E" mask="url(#c)"/><mask id="d" fill="#fff"><path d="M136.742 21.39c.691 0 1.151-.101 1.401-.301.251-.18.381-.4.381-.62a.953.953 0 00-.07-.381.867.867 0 00-.23-.3 2.437 2.437 0 00-.431-.301l-.721-.34c-.34-.15-.65-.3-.941-.471-.3-.17-.55-.37-.771-.6a2.654 2.654 0 01-.701-1.883c0-1.081.391-1.932 1.182-2.563.801-.63 1.952-.94 3.464-.94a6.94 6.94 0 013.274.76l-1.022 2.223a6.226 6.226 0 00-1.071-.42 4.443 4.443 0 00-1.852-.171c-.18.02-.34.07-.501.13a.926.926 0 00-.37.28.773.773 0 00-.13.48c0 .271.1.472.3.602.21.14.501.3.871.48.521.26.951.5 1.302.701.34.22.62.45.821.69.2.241.36.511.45.822.1.3.14.66.14 1.08a2.96 2.96 0 01-1.121 2.363c-.38.321-.871.581-1.472.782a9.01 9.01 0 01-4.665-.05 5.873 5.873 0 01-1.321-.571l1.021-2.283c.22.13.58.3 1.051.5.48.201 1.061.301 1.742.301"/></mask><path d="M136.742 21.39c.691 0 1.151-.101 1.401-.301.251-.18.381-.4.381-.62a.953.953 0 00-.07-.381.867.867 0 00-.23-.3 2.437 2.437 0 00-.431-.301l-.721-.34c-.34-.15-.65-.3-.941-.471-.3-.17-.55-.37-.771-.6a2.654 2.654 0 01-.701-1.883c0-1.081.391-1.932 1.182-2.563.801-.63 1.952-.94 3.464-.94a6.94 6.94 0 013.274.76l-1.022 2.223a6.226 6.226 0 00-1.071-.42 4.443 4.443 0 00-1.852-.171c-.18.02-.34.07-.501.13a.926.926 0 00-.37.28.773.773 0 00-.13.48c0 .271.1.472.3.602.21.14.501.3.871.48.521.26.951.5 1.302.701.34.22.62.45.821.69.2.241.36.511.45.822.1.3.14.66.14 1.08a2.96 2.96 0 01-1.121 2.363c-.38.321-.871.581-1.472.782a9.01 9.01 0 01-4.665-.05 5.873 5.873 0 01-1.321-.571l1.021-2.283c.22.13.58.3 1.051.5.48.201 1.061.301 1.742.301" fill="#80808E"/><path d="M138.143 21.089l-.584-.812-.02.015-.02.016.624.78zm.381-.62l-1-.024v.023h1zm-.07-.381l.926-.378-.009-.02-.009-.021-.908.419zm-.23-.3l-.659.752.009.008.009.007.641-.768zm-.431-.301l.479-.878-.025-.014-.027-.012-.427.904zm-.721-.34l.427-.905-.011-.005-.012-.005-.404.915zm-.941-.471l.506-.863-.006-.003-.007-.004-.493.87zm-.771-.6l-.735.677.006.007.007.007.722-.692zm-.701-1.883l1 .032v-.032h-1zm1.182-2.563l-.619-.785-.005.003.624.782zm3.464-.94v1h.008l.008-.001-.016-1zm3.274.76l.908.418.4-.872-.853-.436-.455.89zm-1.022 2.223l-.449.893.925.466.433-.942-.909-.417zm-1.071-.42l-.298.954.01.003.01.003.278-.96zm-1.852-.171l.11.994.009-.001-.119-.993zm-.501.13l-.351-.936-.016.006-.015.006.382.924zm-.37.28l-.785-.62-.023.03-.021.031.829.56zm-.13.48h1v-.031l-.002-.032-.998.064zm.3.602l.555-.833-.01-.006-.545.839zm.871.48l.447-.894-.009-.005-.438.9zm1.302.701l.543-.84-.023-.015-.024-.013-.496.868zm1.271 1.512l-.96.279.005.018.007.019.948-.316zm.14 1.08h-1v.015l1-.014zm-1.121 2.364l-.621-.784-.012.01-.011.009.644.765zm-1.472.78l.249.97.034-.01.034-.01-.317-.95zm-4.665-.05l-.281.96.012.004.269-.963zm-1.321-.57l-.913-.409-.366.818.773.453.506-.862zm1.021-2.283l.508-.86-.964-.57-.457 1.022.913.408zm1.051.5l-.392.921.007.003.385-.923zm1.732 1.301c.709 0 1.485-.087 2.026-.52l-1.249-1.561c.039-.031.025-.003-.121.028a3.25 3.25 0 01-.656.053v2zm1.986-.489c.417-.3.796-.79.796-1.432h-2c0-.093.029-.16.049-.194.018-.03.023-.024-.014.003l1.169 1.623zm.796-1.41a1.95 1.95 0 00-.144-.78l-1.852.755a.044.044 0 01-.004-.02l2 .046zm-.162-.821a1.865 1.865 0 00-.498-.65l-1.281 1.536a.14.14 0 01-.037-.048l1.816-.838zm-.48-.634a3.41 3.41 0 00-.61-.426l-.958 1.756c.09.049.174.108.251.175l1.317-1.505zm-.662-.452l-.721-.34-.854 1.808.721.34.854-1.808zm-.744-.351a8.127 8.127 0 01-.839-.419l-1.012 1.726c.337.197.685.364 1.044.522l.807-1.83zm-.852-.426a2.315 2.315 0 01-.541-.422l-1.445 1.383c.284.297.611.559 1 .779l.986-1.74zm-.528-.408a1.65 1.65 0 01-.437-1.173l-1.999-.064c-.03.957.316 1.888.965 2.592l1.471-1.355zm-.437-1.205c0-.803.272-1.356.805-1.78l-1.247-1.565c-1.048.837-1.558 1.986-1.558 3.345h2zm.801-1.777c.556-.438 1.451-.727 2.845-.727v-2c-1.63 0-3.037.332-4.083 1.156l1.238 1.57zm2.861-.727a5.939 5.939 0 012.802.651l.911-1.78a7.934 7.934 0 00-3.745-.87l.032 1.999zm2.349-.656l-1.021 2.222 1.817.835 1.021-2.223-1.817-.835zm.337 1.746a7.209 7.209 0 00-1.243-.488l-.556 1.922c.31.09.611.208.9.353l.899-1.787zm-1.223-.482a5.445 5.445 0 00-2.269-.208l.238 1.986a3.443 3.443 0 011.435.132l.596-1.91zm-2.26-.209a3.03 3.03 0 00-.742.188l.703 1.872a1.07 1.07 0 01.259-.072l-.22-1.988zm-.773.2c-.304.126-.57.327-.773.585l1.57 1.239a.074.074 0 01-.032.024l-.765-1.848zm-.817.645a1.772 1.772 0 00-.299 1.104l1.996-.128c.003.05-.011.1-.039.143l-1.658-1.119zm-.301 1.04c0 .556.23 1.098.755 1.44l1.09-1.678c.039.025.09.074.124.144.033.064.031.106.031.094h-2zm.746 1.433c.263.175.599.358.988.547l.875-1.798a6.764 6.764 0 01-.754-.413l-1.109 1.664zm.978.543c.497.248.91.478 1.253.674l.992-1.736a26.928 26.928 0 00-1.351-.727l-.894 1.789zm1.205.645c.292.189.483.356.596.492l1.537-1.28c-.287-.345-.657-.639-1.046-.89l-1.087 1.678zm.596.492c.132.158.215.308.259.46l1.921-.558a3.272 3.272 0 00-.643-1.182l-1.537 1.28zm.271.497c.052.157.088.397.088.765h2c0-.473-.043-.954-.191-1.397l-1.897.632zm.088.779c.005.3-.06.598-.189.869l1.807.857c.26-.547.391-1.148.382-1.754l-2 .028zm-.189.869c-.129.271-.318.51-.553.696l1.243 1.567a3.963 3.963 0 001.117-1.406l-1.807-.857zm-.576.715c-.261.22-.632.426-1.144.597l.633 1.897c.689-.23 1.3-.544 1.799-.964l-1.288-1.53zm-1.076.577a8.01 8.01 0 01-4.148-.045l-.538 1.927a10.01 10.01 0 005.183.055l-.497-1.937zm-4.136-.041a4.904 4.904 0 01-1.097-.474l-1.011 1.726c.486.284 1.005.509 1.546.667l.562-1.92zm-.69.797l1.021-2.282-1.825-.817-1.021 2.282 1.825.817zm-.4-1.83c.281.166.693.358 1.168.56l.783-1.84a9.263 9.263 0 01-.934-.442l-1.017 1.722zm1.175.563c.634.264 1.353.377 2.127.377v-2c-.588 0-1.03-.087-1.357-.223l-.77 1.846z" fill="#80808E" mask="url(#d)"/><mask id="e" fill="#fff"><path d="M27.108 7.172c.11.48.2 1.001.26 1.532.13 1.271.1 2.693-.12 4.204.01-3.023-.891-5.366-2.723-6.337l-.1-.04-.05-.03C20.39 4.4 13.762 9.234 9.548 17.294a5.446 5.446 0 003.734 1.651c.68.05 1.351.03 1.982-.04.941-.18 1.912-.47 3.004-1 1.632-.802 3.123-1.953 4.165-3.455a5.836 5.836 0 001.17-4.154 4.344 4.344 0 00-1.921-2.994c-.12-.08-.36-.3-.501-.32 2.102.23 3.834 1.211 4.635 2.863 1.472 3.063-.21 8.15-4.515 10.252a11.574 11.574 0 01-4.195 1.151c-.59.07-1.221.08-1.862.03-2.443-.2-5.076-2.152-5.957-3.494a27.45 27.45 0 00-3.013 10.362l.06.05a14.587 14.587 0 0015.548.72 14.757 14.757 0 006.707-17.48 8.309 8.309 0 00-1.471-4.264"/></mask><path d="M27.368 8.704l.995-.102-.001-.01-.994.112zm-.12 4.204l-1-.003 1.99.148-.99-.145zm-2.723-6.337l.468-.883-.047-.025-.05-.02-.371.928zm-.1-.04l-.515.858.069.04.074.03.372-.928zm-.05-.03l.514-.857-.023-.014-.025-.013-.466.884zM9.548 17.294l-.886-.464-.335.64.503.52.718-.696zm3.734 1.651l.073-.997-.02-.001-.02-.001-.033 1zm1.982-.04l.11.994.04-.004.038-.008-.188-.982zm3.004-1l.437.898.003-.001-.44-.898zm4.165-3.455l-.794-.608-.015.019-.013.02.822.57zm1.17-4.154l.995-.104-.002-.023-.003-.022-.99.149zm-1.921-2.994l-.555.832.008.005.547-.837zm-.501-.32l.109-.994-.25 1.984.141-.99zm4.635 2.863l.902-.433-.002-.003-.9.436zm-4.515 10.252l.437.9.002-.002-.439-.898zm-4.195 1.151l-.073-.997-.022.001-.023.003.118.993zm-1.862.03l-.082.997h.004l.078-.997zm-5.957-3.494l.836-.549-.935-1.423-.787 1.51.886.462zM6.274 28.146l-.996-.085-.045.52.4.333.64-.768zm.06.05l-.64.768.033.028.035.024.572-.82zm15.548.72l.494.87-.494-.87zm6.707-17.48l-.998.058.008.132.042.126.949-.315zm-2.456-4.04c.102.443.186.927.242 1.42l1.987-.225a14.936 14.936 0 00-.28-1.642l-1.949.446zm.24 1.41c.121 1.182.095 2.52-.115 3.958l1.98.289c.23-1.586.264-3.09.125-4.451l-1.99.203zm1.875 4.106c.01-3.144-.92-5.987-3.255-7.224l-.936 1.767c1.329.704 2.2 2.547 2.191 5.45l2 .007zm-3.352-7.27l-.1-.04-.743 1.858.1.04.743-1.857zm.043.032l-.05-.03-1.029 1.715.05.03 1.03-1.715zm-.098-.057c-2.514-1.327-5.607-.36-8.382 1.661-2.832 2.063-5.635 5.417-7.797 9.552l1.772.927c2.052-3.924 4.67-7.017 7.202-8.862 2.589-1.885 4.802-2.285 6.272-1.51l.933-1.768zM8.83 17.99a6.446 6.446 0 004.42 1.955l.064-2a4.446 4.446 0 01-3.048-1.348L8.83 17.99zm4.379 1.953c.747.055 1.48.032 2.166-.044l-.221-1.988a9.835 9.835 0 01-1.799.037l-.146 1.995zm2.243-.056a12.737 12.737 0 003.253-1.084l-.875-1.798c-1.004.488-1.89.753-2.754.918l.376 1.965zm3.256-1.085c1.75-.859 3.388-2.111 4.546-3.782l-1.643-1.14c-.924 1.333-2.27 2.383-3.784 3.126l.881 1.796zm4.518-3.744a6.837 6.837 0 001.372-4.866l-1.989.207a4.837 4.837 0 01-.97 3.443l1.587 1.216zm1.367-4.911a5.345 5.345 0 00-.788-2.094l-1.683 1.08c.255.398.423.844.493 1.311l1.978-.297zm-.788-2.094a5.345 5.345 0 00-1.577-1.588l-1.093 1.674c.395.258.732.597.987.994l1.683-1.08zM22.236 6.47l-.051-.04c-.037-.028-.096-.074-.157-.118a2.404 2.404 0 00-.238-.155 1.358 1.358 0 00-.467-.165l-.283 1.98a.753.753 0 01-.227-.07l.036.025c.032.023.064.048.111.085a5.116 5.116 0 00.167.122l1.11-1.664zm-1.164 1.506c1.875.205 3.238 1.054 3.845 2.305l1.8-.872c-.996-2.053-3.097-3.166-5.427-3.421l-.218 1.988zm3.843 2.302c.584 1.215.582 2.95-.117 4.679a8.104 8.104 0 01-3.936 4.241l.878 1.797a10.104 10.104 0 004.912-5.29c.85-2.104.954-4.444.066-6.293l-1.803.866zm-4.05 8.92a10.57 10.57 0 01-3.832 1.053l.147 1.994c1.49-.11 3.044-.514 4.558-1.249l-.874-1.799zm-3.877 1.057a8.576 8.576 0 01-1.666.026l-.156 1.994c.7.055 1.397.045 2.058-.034l-.236-1.986zm-1.662.026c-1.006-.082-2.119-.538-3.11-1.166-.998-.633-1.755-1.365-2.093-1.88l-1.671 1.098c.542.827 1.543 1.742 2.693 2.47 1.155.733 2.58 1.354 4.018 1.472l.163-1.994zM8.4 17.321a28.452 28.452 0 00-3.123 10.74l1.992.17a26.452 26.452 0 012.904-9.984l-1.773-.925zM5.634 28.915l.06.05 1.28-1.536-.06-.05-1.28 1.536zm.128.102a15.587 15.587 0 008.195 2.786l.093-1.997a13.587 13.587 0 01-7.144-2.43l-1.144 1.641zm8.195 2.786c2.94.137 5.86-.562 8.419-2.016l-.988-1.739a13.586 13.586 0 01-7.338 1.758l-.093 1.997zm8.42-2.016a15.757 15.757 0 006.92-8.05l-1.868-.718a13.757 13.757 0 01-6.042 7.03l.99 1.738zm6.92-8.05a15.757 15.757 0 00.241-10.615l-1.897.631a13.757 13.757 0 01-.212 9.266l1.867.717zm.29-10.357a9.31 9.31 0 00-1.648-4.778l-1.642 1.141a7.31 7.31 0 011.294 3.752l1.997-.114z" fill="#80808E" mask="url(#e)"/><mask id="f" fill="#fff"><path d="M1.816 19.156c0-1.401.12-2.863.37-4.345A23.527 23.527 0 017.514 3.258a14.807 14.807 0 00-5.206 20.654 22.825 22.825 0 01-.5-4.756h.01zM8.324 6.852A15.748 15.748 0 0114.1 1.326c-1.15.055-2.289.246-3.393.57-3.494 2.764-6.278 7.55-7.269 13.256a24.988 24.988 0 00-.36 4.245c0 2.983.56 5.766 1.562 8.099.01-1.001.09-2.082.22-3.224a25.139 25.139 0 01-.15-6.808c.43-4.044 1.742-7.708 3.614-10.612zm19.012-4.044c-2.083-2.944-7.71-2.503-12.585.96a17.913 17.913 0 00-2.172 1.833 17.079 17.079 0 014.605-4.095l-.68-.1c-2.604.911-5.007 2.953-6.879 5.787a23.887 23.887 0 00-3.644 10.542c-.06.52-.07 1.03-.1 1.552a28.213 28.213 0 012.102-5.477 25.75 25.75 0 017.048-8.56c4.756-3.183 10.102-3.504 12.114-.65.48.68.731 1.471.761 2.342.38-1.561.22-3.013-.57-4.134z"/></mask><path d="M1.816 19.156c0-1.401.12-2.863.37-4.345A23.527 23.527 0 017.514 3.258a14.807 14.807 0 00-5.206 20.654 22.825 22.825 0 01-.5-4.756h.01zM8.324 6.852A15.748 15.748 0 0114.1 1.326c-1.15.055-2.289.246-3.393.57-3.494 2.764-6.278 7.55-7.269 13.256a24.988 24.988 0 00-.36 4.245c0 2.983.56 5.766 1.562 8.099.01-1.001.09-2.082.22-3.224a25.139 25.139 0 01-.15-6.808c.43-4.044 1.742-7.708 3.614-10.612zm19.012-4.044c-2.083-2.944-7.71-2.503-12.585.96a17.913 17.913 0 00-2.172 1.833 17.079 17.079 0 014.605-4.095l-.68-.1c-2.604.911-5.007 2.953-6.879 5.787a23.887 23.887 0 00-3.644 10.542c-.06.52-.07 1.03-.1 1.552a28.213 28.213 0 012.102-5.477 25.75 25.75 0 017.048-8.56c4.756-3.183 10.102-3.504 12.114-.65.48.68.731 1.471.761 2.342.38-1.561.22-3.013-.57-4.134z" fill="#001223"/><path d="M1.816 19.156v1h1v-1h-1zm.37-4.345l.987.167.001-.01-.987-.157zM7.514 3.258l.761.649L7.015 2.39l.498.867zM2.307 23.912l-.85.527 1.828-.736-.978.209zm-.5-4.756v-1h-1v1h1zM14.1 1.326l.486.874-.533-1.873.047.999zm-3.393.57l-.282-.959-.186.055-.153.12.62.785zM3.438 15.153l-.985-.171v.002l.985.169zm-.36 4.245h1v-.001h-1zm1.562 8.099l-.92.394 1.92-.384-1-.01zm.22-3.224l.993.114.016-.136-.022-.135-.987.157zm-.15-6.808l.993.114.001-.008-.994-.106zM14.75 3.77l-.579-.816-.001.001.58.815zM12.58 5.6l-.789-.615 1.49 1.327-.701-.712zm4.605-4.095l.519.855 2.373-1.44L17.33.517l-.145.99zm-.68-.1l.145-.99-.244-.035-.232.081.33.944zM9.624 7.193l-.834-.552-.004.007-.004.006.842.539zM5.981 17.735l.994.114v-.008l.001-.01-.995-.096zm-.1 1.552l-.998-.058 1.964.317-.966-.26zm2.102-5.477l-.89-.454.89.454zm7.048-8.56l-.556-.83-.031.02-.03.023.617.787zm12.114-.65l-.817.576.817-.576zm.761 2.342l-1 .035 1.972.202-.972-.237zM2.816 19.156c0-1.345.116-2.75.357-4.178L1.2 14.645a27.168 27.168 0 00-.385 4.511h2zm.358-4.187a22.527 22.527 0 015.1-11.062L6.752 2.61a24.527 24.527 0 00-5.553 12.044l1.975.315zM7.015 2.39a15.807 15.807 0 00-4.73 4.164l1.594 1.207a13.807 13.807 0 014.132-3.637l-.996-1.734zm-4.73 4.164a15.807 15.807 0 00-2.727 5.68l1.939.49a13.807 13.807 0 012.382-4.963L2.285 6.555zm-2.727 5.68a15.807 15.807 0 00-.292 6.296l1.976-.308a13.807 13.807 0 01.255-5.498l-1.94-.49zm-.292 6.296a15.807 15.807 0 002.191 5.908l1.7-1.055a13.807 13.807 0 01-1.915-5.16l-1.976.307zm4.019 5.172a21.826 21.826 0 01-.479-4.547h-2c0 1.669.175 3.332.523 4.964l1.956-.417zm-1.479-3.547h.01v-2h-.01v2zm7.37-12.78a14.747 14.747 0 015.41-5.176l-.97-1.749A16.748 16.748 0 007.471 6.33l1.704 1.047zM14.053.327c-1.23.059-2.447.264-3.628.61l.563 1.92c1.029-.303 2.09-.481 3.16-.532L14.053.327zm-3.967.785C6.37 4.052 3.48 9.073 2.453 14.981l1.97.342C5.38 9.817 8.056 5.267 11.327 2.68l-1.24-1.569zm-7.633 13.87a25.99 25.99 0 00-.375 4.415l2-.001c-.001-1.366.115-2.729.346-4.075l-1.971-.338zm-.375 4.415c0 3.105.583 6.024 1.643 8.493l1.838-.788c-.943-2.196-1.481-4.843-1.481-7.705h-2zm3.562 8.109c.01-.957.086-2.002.213-3.12l-1.987-.227a32.525 32.525 0 00-.226 3.327l2 .02zm.207-3.391a24.139 24.139 0 01-.144-6.537l-1.987-.227a26.139 26.139 0 00.156 7.079l1.975-.315zm-.143-6.545c.415-3.899 1.678-7.412 3.46-10.176L7.484 6.31C5.52 9.353 4.16 13.168 3.714 17.36l1.989.211zM28.152 2.23C26.829.36 24.479-.301 22.014-.112c-2.487.192-5.282 1.247-7.842 3.065l1.158 1.63c2.316-1.645 4.772-2.542 6.838-2.7 2.087-.161 3.592.43 4.351 1.502l1.633-1.155zm-13.981.724c-.85.605-1.61 1.261-2.294 1.934l1.403 1.425a16.926 16.926 0 012.051-1.73l-1.16-1.629zm-.804 3.262a16.079 16.079 0 014.336-3.855L16.665.651a18.08 18.08 0 00-4.875 4.335l1.577 1.23zm3.962-5.7l-.68-.1-.291 1.98.68.1.291-1.98zM16.174.463c-2.858 1-5.421 3.212-7.382 6.18l1.669 1.102c1.783-2.7 4.026-4.572 6.373-5.394l-.66-1.888zm-7.39 6.192a24.887 24.887 0 00-3.797 10.984l1.99.194A22.887 22.887 0 0110.468 7.73L8.783 6.654zM4.988 17.62c-.065.558-.078 1.138-.105 1.609l1.996.115c.033-.57.04-1.012.096-1.495l-1.987-.229zm1.859 1.926a27.214 27.214 0 012.028-5.282l-1.783-.907c-.92 1.81-1.65 3.71-2.177 5.67l1.932.519zm2.027-5.281a24.75 24.75 0 016.774-8.228l-1.233-1.574a26.75 26.75 0 00-7.322 8.893l1.781.909zm6.714-8.184c2.257-1.51 4.612-2.312 6.585-2.421 1.99-.111 3.422.476 4.155 1.516l1.635-1.153c-1.28-1.813-3.527-2.492-5.901-2.36-2.393.133-5.088 1.084-7.587 2.756l1.113 1.662zm10.74-.905c.359.508.555 1.107.579 1.8l1.999-.068c-.037-1.048-.341-2.031-.944-2.885l-1.634 1.153zm2.55 2.003c.427-1.755.278-3.526-.725-4.948l-1.635 1.153c.58.82.75 1.953.417 3.322l1.943.473z" fill="#80808E" mask="url(#f)"/><path d="M35.737 29.297h1.983c.89 0 1.501.18 1.952.631.32.33.48.75.48 1.292 0 .65-.23 1.19-.63 1.601-.55.541-1.402.841-2.403.841h-1.171l-.511 1.903h-1.372l1.672-6.268zm1.923 1.242h-.881l-.511 1.912h.931c.54 0 .971-.14 1.231-.4a.96.96 0 00.29-.711c0-.2-.07-.39-.2-.52-.2-.191-.45-.281-.86-.281zM45.496 33.552h-1.031l-.53 2.002h-1.373l1.672-6.257h2.273c.921 0 1.562.2 1.972.631.31.3.48.75.48 1.252 0 .6-.2 1.12-.57 1.491a2.803 2.803 0 01-1.442.751l1.062 2.133h-1.552l-.961-2.003zm.52-1.211c.531 0 .992-.14 1.252-.4a.879.879 0 00.26-.641.652.652 0 00-.2-.5c-.16-.171-.46-.261-.901-.261h-1.151l-.48 1.802h1.22zM53.157 29.297h4.656l-.33 1.222h-3.294l-.33 1.281h2.892l-.33 1.202h-2.903l-.35 1.331h3.343l-.32 1.221h-4.706l1.672-6.257zM61.526 29.297h1.983c.89 0 1.501.18 1.952.631.32.33.48.75.48 1.292 0 .65-.23 1.19-.63 1.601-.55.541-1.402.841-2.403.841h-1.171l-.51 1.903h-1.372l1.671-6.268zm1.923 1.242h-.891l-.501 1.912h.931c.54 0 .971-.14 1.242-.4a.962.962 0 00.28-.711c0-.2-.07-.39-.2-.52-.19-.191-.45-.281-.861-.281zM71.597 29.258h1.311l1.001 6.307h-1.411l-.2-1.402h-2.633l-.942 1.402h-1.481l4.355-6.307zm.54 3.684l-.28-2.072-1.372 2.072h1.652zM78.848 29.297h1.372l-1.672 6.257h-1.372l1.672-6.257zM84.224 29.297h1.822c1.202 0 1.962.33 2.433.801.46.47.68 1.082.68 1.842a3.47 3.47 0 01-1.02 2.463c-.751.751-1.832 1.151-3.274 1.151h-2.313l1.672-6.257zm1.702 1.242h-.66l-1.012 3.774h.771c.831 0 1.592-.26 2.082-.76.4-.401.631-.952.631-1.562 0-.431-.14-.761-.37-1.002-.27-.27-.731-.45-1.432-.45h-.01z" fill="#80808E"/></svg>