<svg width="22" height="22" viewBox="0 0 22 22" fill="none" xmlns="http://www.w3.org/2000/svg">
<path fill-rule="evenodd" clip-rule="evenodd" d="M1 11C1 5.47715 5.47715 1 11 1C16.5228 1 21 5.47715 21 11C21 16.5228 16.5228 21 11 21C5.47715 21 1 16.5228 1 11ZM10.4222 13.9931V6.58739C10.4222 6.26298 10.6936 6 11.0073 6C11.3305 6 11.5924 6.2709 11.5924 6.58739V13.9785L13.8926 11.6783C14.1159 11.455 14.4902 11.4523 14.7194 11.6814C14.9419 11.9039 14.95 12.2808 14.7226 12.5083L11.4633 15.7676C11.4493 15.7854 11.4342 15.8025 11.4179 15.8188C11.3027 15.934 11.1509 15.9906 11 15.99C10.8491 15.9906 10.6973 15.934 10.5821 15.8188C10.5658 15.8025 10.5507 15.7854 10.5367 15.7676L7.27739 12.5083C7.04995 12.2808 7.05806 11.9039 7.28055 11.6814C7.50974 11.4523 7.88406 11.455 8.10737 11.6783L10.4222 13.9931ZM11 19.8888C6.09077 19.8888 2.11108 15.9091 2.11108 10.9999C2.11108 6.09072 6.09077 2.11103 11 2.11103C15.9092 2.11103 19.8889 6.09072 19.8889 10.9999C19.8889 15.9091 15.9092 19.8888 11 19.8888Z" fill="white"/>
<path d="M10.4222 13.9931L10.2454 14.1699L10.6722 14.5967V13.9931H10.4222ZM11.5924 13.9785H11.3424V14.5821L11.7692 14.1553L11.5924 13.9785ZM13.8926 11.6783L14.0694 11.8551L13.8926 11.6783ZM14.7194 11.6814L14.8962 11.5047L14.7194 11.6814ZM14.7226 12.5083L14.8994 12.685L14.7226 12.5083ZM11.4633 15.7676L11.2865 15.5908L11.2759 15.6014L11.2666 15.6133L11.4633 15.7676ZM11.4179 15.8188L11.2411 15.642L11.2411 15.642L11.4179 15.8188ZM11 15.99L11.0009 15.74L10.9991 15.74L11 15.99ZM10.5821 15.8188L10.7589 15.642L10.7589 15.642L10.5821 15.8188ZM10.5367 15.7676L10.7334 15.6133L10.7241 15.6014L10.7135 15.5908L10.5367 15.7676ZM7.27739 12.5083L7.10062 12.685V12.685L7.27739 12.5083ZM7.28055 11.6814L7.10378 11.5047V11.5047L7.28055 11.6814ZM8.10737 11.6783L7.93059 11.8551L8.10737 11.6783ZM11 0.75C5.33908 0.75 0.75 5.33908 0.75 11H1.25C1.25 5.61522 5.61522 1.25 11 1.25V0.75ZM21.25 11C21.25 5.33908 16.6609 0.75 11 0.75V1.25C16.3848 1.25 20.75 5.61522 20.75 11H21.25ZM11 21.25C16.6609 21.25 21.25 16.6609 21.25 11H20.75C20.75 16.3848 16.3848 20.75 11 20.75V21.25ZM0.75 11C0.75 16.6609 5.33908 21.25 11 21.25V20.75C5.61522 20.75 1.25 16.3848 1.25 11H0.75ZM10.1722 6.58739V13.9931L10.6722 13.9931V6.58739H10.1722ZM11.0073 5.75C10.5572 5.75 10.1722 6.12322 10.1722 6.58739H10.6722C10.6722 6.40275 10.83 6.25 11.0073 6.25V5.75ZM11.8424 6.58739C11.8424 6.13594 11.4716 5.75 11.0073 5.75V6.25C11.1893 6.25 11.3424 6.40586 11.3424 6.58739H11.8424ZM11.8424 13.9785V6.58739H11.3424V13.9785H11.8424ZM13.7158 11.5015L11.4156 13.8017L11.7692 14.1553L14.0694 11.8551L13.7158 11.5015ZM14.8962 11.5047C14.5695 11.178 14.0369 11.1805 13.7158 11.5015L14.0694 11.8551C14.195 11.7295 14.411 11.7265 14.5427 11.8582L14.8962 11.5047ZM14.8994 12.685C15.2276 12.3569 15.2132 11.8217 14.8962 11.5047L14.5427 11.8582C14.6707 11.9862 14.6725 12.2048 14.5458 12.3315L14.8994 12.685ZM11.64 15.9444L14.8994 12.685L14.5458 12.3315L11.2865 15.5908L11.64 15.9444ZM11.5947 15.9956C11.6181 15.9721 11.6399 15.9475 11.66 15.9219L11.2666 15.6133C11.2587 15.6233 11.2502 15.6329 11.2411 15.642L11.5947 15.9956ZM10.9991 16.24C11.2128 16.2408 11.4297 16.1605 11.5947 15.9956L11.2411 15.642C11.1757 15.7074 11.089 15.7403 11.0009 15.74L10.9991 16.24ZM10.4053 15.9956C10.5702 16.1605 10.7872 16.2408 11.0009 16.24L10.9991 15.74C10.911 15.7403 10.8243 15.7074 10.7589 15.642L10.4053 15.9956ZM10.34 15.9219C10.3601 15.9475 10.3819 15.9721 10.4053 15.9956L10.7589 15.642C10.7498 15.6329 10.7413 15.6233 10.7334 15.6133L10.34 15.9219ZM7.10062 12.685L10.3599 15.9444L10.7135 15.5908L7.45417 12.3315L7.10062 12.685ZM7.10378 11.5047C6.78679 11.8217 6.77243 12.3569 7.10062 12.685L7.45417 12.3315C7.32746 12.2048 7.32934 11.9862 7.45733 11.8582L7.10378 11.5047ZM8.28414 11.5015C7.96309 11.1805 7.43048 11.178 7.10378 11.5047L7.45733 11.8582C7.58901 11.7265 7.80503 11.7295 7.93059 11.8551L8.28414 11.5015ZM10.599 13.8163L8.28414 11.5015L7.93059 11.8551L10.2454 14.1699L10.599 13.8163ZM1.86108 10.9999C1.86108 16.0472 5.9527 20.1388 11 20.1388V19.6388C6.22884 19.6388 2.36108 15.771 2.36108 10.9999H1.86108ZM11 1.86103C5.9527 1.86103 1.86108 5.95265 1.86108 10.9999H2.36108C2.36108 6.22879 6.22884 2.36103 11 2.36103V1.86103ZM20.1389 10.9999C20.1389 5.95265 16.0472 1.86103 11 1.86103V2.36103C15.7711 2.36103 19.6389 6.22879 19.6389 10.9999H20.1389ZM11 20.1388C16.0472 20.1388 20.1389 16.0472 20.1389 10.9999H19.6389C19.6389 15.771 15.7711 19.6388 11 19.6388V20.1388Z" fill="white"/>
</svg>
