<svg width="33" height="34" viewBox="0 0 33 34" fill="none" xmlns="http://www.w3.org/2000/svg">
<path fill-rule="evenodd" clip-rule="evenodd" d="M32.5745 7.3749C29.7398 8.26313 27.5833 10.4234 26.6976 13.264C26.5593 13.7065 25.9528 13.7065 25.8145 13.264C24.9288 10.4234 22.7723 8.26313 19.9376 7.3749C19.4961 7.2363 19.4961 6.6286 19.9376 6.49C22.7723 5.60244 24.9288 3.44216 25.8145 0.600881C25.9528 0.15843 26.5593 0.15843 26.6976 0.600881C27.5833 3.44216 29.7398 5.60244 32.5745 6.49C33.016 6.6286 33.016 7.2363 32.5745 7.3749Z" fill="#FFE336"/>
<path fill-rule="evenodd" clip-rule="evenodd" d="M15.959 33.3142C7.15896 33.3142 0 26.1397 0 17.3221C0 9.84104 5.07764 3.43484 12.3476 1.743C13.78 1.41316 15.2083 2.30273 15.5408 3.73669C15.8726 5.17066 14.9822 6.60263 13.5512 6.9358C8.78147 8.04592 5.31968 12.4138 5.31968 17.3221C5.31968 23.2005 10.0928 27.9835 15.959 27.9835C21.0646 27.9835 25.4613 24.338 26.4122 19.3151C26.6855 17.8691 28.0766 16.9182 29.5216 17.1941C30.9645 17.468 31.9128 18.8633 31.6388 20.3093C30.2111 27.8449 23.6174 33.3142 15.959 33.3142Z" fill="white"/>
</svg>
