<svg width="169" height="40" viewBox="0 0 169 40" fill="none" xmlns="http://www.w3.org/2000/svg">
<path d="M61.1606 25.6626V14.4626H63.7846V18.8786H68.0246V14.4626H70.6486V25.6626H68.0246V21.2466H63.7846V25.6626H61.1606ZM80.7414 14.4626L85.1574 25.6626H82.3734L81.4934 23.2946H77.0294L76.1494 25.6626H73.3654L77.7814 14.4626H80.7414ZM77.8934 20.9266H80.6134L79.2534 17.3266L77.8934 20.9266ZM87.877 25.6626V14.4626H90.501V23.2946H95.717V25.6626H87.877ZM103.743 25.8226C102.069 25.8226 100.682 25.2893 99.5832 24.2226C98.4952 23.1559 97.9512 21.7693 97.9512 20.0626C97.9512 18.3559 98.4952 16.9693 99.5832 15.9026C100.671 14.8359 102.058 14.3026 103.743 14.3026C105.429 14.3026 106.815 14.8359 107.903 15.9026C109.002 16.9693 109.551 18.3559 109.551 20.0626C109.551 21.7693 109.002 23.1559 107.903 24.2226C106.815 25.2893 105.429 25.8226 103.743 25.8226ZM101.535 22.4146C102.101 23.0013 102.837 23.2946 103.743 23.2946C104.65 23.2946 105.386 23.0013 105.951 22.4146C106.517 21.8173 106.799 21.0333 106.799 20.0626C106.799 19.1026 106.511 18.3239 105.935 17.7266C105.37 17.1293 104.639 16.8306 103.743 16.8306C102.837 16.8306 102.101 17.1293 101.535 17.7266C100.97 18.3239 100.687 19.1026 100.687 20.0626C100.687 21.0333 100.97 21.8173 101.535 22.4146ZM118.412 25.6626V14.4626H121.036V23.2946H126.252V25.6626H118.412ZM135.571 14.4626L139.987 25.6626H137.203L136.323 23.2946H131.859L130.979 25.6626H128.195L132.611 14.4626H135.571ZM132.723 20.9266H135.443L134.083 17.3266L132.723 20.9266ZM142.707 25.6626V14.4626H147.747C148.867 14.4626 149.742 14.7399 150.371 15.2946C151.011 15.8493 151.331 16.6013 151.331 17.5506C151.331 18.4679 150.91 19.1666 150.067 19.6466C151.112 20.2119 151.635 21.0866 151.635 22.2706C151.635 23.3586 151.304 24.1959 150.643 24.7826C149.982 25.3693 149.011 25.6626 147.731 25.6626H142.707ZM145.331 18.7186H147.491C147.854 18.7186 148.131 18.6279 148.323 18.4466C148.526 18.2653 148.627 18.0146 148.627 17.6946C148.627 17.3746 148.526 17.1239 148.323 16.9426C148.131 16.7506 147.854 16.6546 147.491 16.6546H145.331V18.7186ZM145.331 23.4866H147.539C147.976 23.4866 148.318 23.3693 148.563 23.1346C148.808 22.8893 148.931 22.5693 148.931 22.1746C148.931 21.7799 148.803 21.4653 148.547 21.2306C148.302 20.9959 147.966 20.8786 147.539 20.8786H145.331V23.4866Z" fill="white"/>
<path fill-rule="evenodd" clip-rule="evenodd" d="M39.165 8.81254C35.7567 9.88048 33.164 12.4778 32.099 15.8931C31.9327 16.4251 31.2036 16.4251 31.0373 15.8931C29.9724 12.4778 27.3796 9.88048 23.9714 8.81254C23.4405 8.6459 23.4405 7.91525 23.9714 7.74861C27.3796 6.68147 29.9724 4.08413 31.0373 0.668017C31.2036 0.136052 31.9327 0.136052 32.099 0.668017C33.164 4.08413 35.7567 6.68147 39.165 7.74861C39.6958 7.91525 39.6958 8.6459 39.165 8.81254" fill="#FFDA93"/>
<path fill-rule="evenodd" clip-rule="evenodd" d="M19.1878 40C8.60735 40 0 31.3739 0 20.7723C0 11.7777 6.10493 4.07545 14.8458 2.04132C16.5679 1.64475 18.2852 2.71429 18.685 4.43837C19.0839 6.16245 18.0134 7.88413 16.2929 8.28471C10.5581 9.61943 6.39595 14.871 6.39595 20.7723C6.39595 27.8401 12.1347 33.5907 19.1878 33.5907C25.3264 33.5907 30.6126 29.2076 31.7559 23.1685C32.0845 21.43 33.757 20.2868 35.4943 20.6185C37.2292 20.9477 38.3693 22.6254 38.0399 24.3639C36.3234 33.4241 28.3956 40 19.1878 40" fill="white"/>
</svg>
