<svg width="33" height="34" fill="none" xmlns="http://www.w3.org/2000/svg"><path fill-rule="evenodd" clip-rule="evenodd" d="M32.575 7.375a8.881 8.881 0 00-5.877 5.889.46.46 0 01-.884 0 8.881 8.881 0 00-5.876-5.89.461.461 0 010-.884A8.878 8.878 0 0025.815.6a.46.46 0 01.883 0 8.878 8.878 0 005.877 5.89.461.461 0 010 .885z" fill="#FFE336"/><path fill-rule="evenodd" clip-rule="evenodd" d="M15.959 33.314C7.159 33.314 0 26.14 0 17.322 0 9.841 5.078 3.435 12.348 1.743a2.666 2.666 0 011.204 5.193c-4.77 1.11-8.232 5.478-8.232 10.386 0 5.879 4.773 10.662 10.639 10.662 5.106 0 9.502-3.646 10.453-8.669a2.658 2.658 0 013.11-2.12 2.665 2.665 0 012.117 3.114c-1.428 7.536-8.022 13.005-15.68 13.005z" fill="#fff"/></svg>