<svg width="133" height="34" xmlns="http://www.w3.org/2000/svg"><g fill="none" fill-rule="evenodd"><path d="M58.492 22.98V18.5h-5.04v4.48H51.18V12.31h2.272V16.5h5.04v-4.192h2.288V22.98h-2.288zm12.744 0l-.672-1.84h-4.768l-.672 1.84h-2.496l4.128-10.671h2.848l4.112 10.672h-2.48zm-3.056-8.703l-1.776 4.896h3.536l-1.76-4.896zm7.417 8.704V12.309h2.272v8.672h4.512v2h-6.784zm8.313-5.328c0-3.216 2.352-5.52 5.568-5.52 3.232 0 5.584 2.304 5.584 5.52 0 3.216-2.352 5.52-5.584 5.52-3.216 0-5.568-2.304-5.568-5.52zm8.816 0c0-2-1.28-3.504-3.248-3.504-1.968 0-3.232 1.504-3.232 3.504 0 1.984 1.264 3.504 3.232 3.504 1.968 0 3.248-1.52 3.248-3.504zm9.81 5.328V12.309h2.272v8.672h4.512v2h-6.784zm16.729 0l-.672-1.84h-4.768l-.672 1.84h-2.496l4.128-10.672h2.848l4.112 10.672h-2.48zm-3.056-8.704l-1.776 4.896h3.536l-1.76-4.896zm7.417 8.704V12.309h5.616c2.032 0 3.072 1.296 3.072 2.72 0 1.344-.832 2.24-1.84 2.448 1.136.176 2.048 1.28 2.048 2.624 0 1.6-1.072 2.88-3.104 2.88h-5.792zm2.272-6.384h2.848c.768 0 1.248-.496 1.248-1.184 0-.656-.48-1.168-1.248-1.168h-2.848v2.352zm0 4.448h2.928c.864 0 1.376-.496 1.376-1.264 0-.672-.48-1.248-1.376-1.248h-2.928v2.512z" fill="#FFF" fill-rule="nonzero"/><path d="M32.575 7.106a8.881 8.881 0 00-5.877 5.889.46.46 0 01-.883 0 8.881 8.881 0 00-5.877-5.89.461.461 0 010-.884 8.878 8.878 0 005.877-5.89.46.46 0 01.883 0 8.878 8.878 0 005.877 5.89.461.461 0 010 .885" fill="#FFE336"/><path d="M15.959 33.045C7.159 33.045 0 25.871 0 17.053 0 9.573 5.078 3.166 12.348 1.474a2.666 2.666 0 011.204 5.193c-4.77 1.11-8.232 5.478-8.232 10.386 0 5.879 4.773 10.662 10.639 10.662 5.106 0 9.502-3.646 10.453-8.669a2.658 2.658 0 013.11-2.12 2.665 2.665 0 012.117 3.114c-1.428 7.536-8.022 13.005-15.68 13.005" fill="#FFF"/></g></svg>