<svg width="77" height="76" fill="none" xmlns="http://www.w3.org/2000/svg"><path fill-rule="evenodd" clip-rule="evenodd" d="M62.931 31.862c1.047 0 2.072-.09 3.069-.261V66c0 5.523-4.478 10-10 10H10.17C4.581 76 .077 71.42.171 65.831l.777-45.916A5 5 0 015.947 15h39.085c.553 9.405 8.355 16.862 17.9 16.862zM49.959 42.887c2.566 0 4.646-2.16 4.646-4.823 0-2.663-2.08-4.823-4.646-4.823s-4.646 2.16-4.646 4.823c0 1.26.465 2.405 1.226 3.264a25.18 25.18 0 01-2.214 2.988c-2.48 2.86-6.021 5.511-10.627 5.511-4.59 0-7.982-2.637-10.308-5.479a23.62 23.62 0 01-2.272-3.34 4.921 4.921 0 00.965-2.944c0-2.663-2.08-4.823-4.646-4.823s-4.646 2.16-4.646 4.823c0 2.664 2.08 4.823 4.646 4.823a4.49 4.49 0 001.206-.164 26.492 26.492 0 002.425 3.526c2.61 3.187 6.769 6.578 12.63 6.578 5.848 0 10.146-3.377 12.893-6.546a28.22 28.22 0 002.558-3.467c.263.048.533.073.81.073z" fill="#fff"/><path fill-rule="evenodd" clip-rule="evenodd" d="M63 28c7.732 0 14-6.268 14-14S70.732 0 63 0 49 6.268 49 14s6.268 14 14 14zM61.879 8.413a1.38 1.38 0 012.759 0v4.139h4.138a1.38 1.38 0 110 2.758h-4.138v4.138a1.38 1.38 0 01-2.759 0V15.31h-4.137a1.38 1.38 0 010-2.758h4.137V8.413z" fill="#fff"/></svg>