<svg width="118" height="67" fill="none" xmlns="http://www.w3.org/2000/svg"><path d="M5.5 17.76c-.16.167-.285.363-.369.577a1.745 1.745 0 000 1.329c.084.214.209.41.368.576l5.253 5.244a1.76 1.76 0 003.002-1.241c0-.465-.185-.912-.515-1.241l-2.277-2.255h6.287A1.753 1.753 0 0019 19.002a1.746 1.746 0 00-1.751-1.748h-6.286l2.276-2.255a1.748 1.748 0 000-2.482 1.752 1.752 0 00-2.487 0L5.5 17.761zM18.5 49.24c.16-.167.285-.363.369-.577a1.744 1.744 0 000-1.329 1.748 1.748 0 00-.368-.577l-5.253-5.243a1.76 1.76 0 00-3.002 1.241c0 .465.185.912.515 1.241l2.277 2.255H6.75A1.753 1.753 0 005 47.999a1.746 1.746 0 001.751 1.747h6.286l-2.276 2.255a1.748 1.748 0 000 2.482 1.752 1.752 0 002.487 0L18.5 49.24zM112.501 18.24c.159-.167.284-.363.368-.577a1.746 1.746 0 000-1.329 1.767 1.767 0 00-.368-.576l-5.253-5.244a1.761 1.761 0 00-3.002 1.241c0 .465.185.912.515 1.241l2.277 2.255h-6.287A1.753 1.753 0 0099 16.999a1.746 1.746 0 001.751 1.747h6.287l-2.277 2.255a1.75 1.75 0 00-.383 1.913c.089.213.219.406.383.569a1.76 1.76 0 001.243.517 1.757 1.757 0 001.244-.517l5.253-5.244zM99.5 46.76c-.16.167-.285.363-.369.577a1.744 1.744 0 000 1.329c.084.214.209.41.368.577l5.253 5.243a1.761 1.761 0 003.002-1.241c0-.465-.185-.912-.515-1.241l-2.277-2.255h6.287A1.752 1.752 0 00113 48.001a1.752 1.752 0 00-1.751-1.748h-6.287L107.239 44a1.75 1.75 0 00.383-1.913 1.75 1.75 0 00-.383-.569 1.76 1.76 0 00-1.243-.517 1.757 1.757 0 00-1.244.517l-5.253 5.243z" fill="#fff"/><path fill-rule="evenodd" clip-rule="evenodd" d="M43 0c-5.523 0-10 4.477-10 10v47c0 5.523 4.477 10 10 10h32c5.523 0 10-4.477 10-10V10c0-5.523-4.477-10-10-10H43zm17.676 30.662c4.032 1.134 7.56 3.276 7.56 7.728 0 4.746-3.822 7.518-8.316 7.938v2.394a1.491 1.491 0 01-2.982 0v-2.436c-3.685-.449-6.367-2.486-7.432-5.31-.565-1.498.791-2.838 2.392-2.838 1.254 0 2.26.944 3.224 1.85.267.25.53.497.794.72.686.58 1.67.916 2.912.916 2.268 0 3.57-1.26 3.57-2.94 0-1.134-.714-2.268-3.108-2.982l-3.15-.924c-5.88-1.596-6.93-5.082-6.93-7.476 0-4.158 3.276-7.14 7.728-7.728v-2.415a1.491 1.491 0 012.982 0v2.415c3.498.42 6.097 2.366 7.084 5.257.51 1.495-.84 2.807-2.42 2.807-1.216 0-2.177-.91-3.112-1.794-.306-.29-.61-.578-.919-.83-.544-.444-1.274-.694-2.145-.694-2.016 0-3.36 1.26-3.36 2.898 0 .63.21 1.932 2.73 2.604l2.898.84z" fill="#fff"/></svg>