<svg width="58" height="80" fill="none" xmlns="http://www.w3.org/2000/svg"><path d="M14.574 24.503A20.267 20.267 0 0129 18.527c5.45 0 10.573 2.122 14.426 5.976.55.55 1.27.824 1.99.824s1.44-.275 1.99-.824a2.814 2.814 0 000-3.98C42.49 15.607 35.953 12.9 29 12.9c-6.953 0-13.489 2.708-18.405 7.624a2.814 2.814 0 003.979 3.98z" fill="#fff"/><path d="M56.527 11.402C49.174 4.049 39.398 0 29 0S8.825 4.05 1.472 11.402a2.815 2.815 0 003.98 3.98C11.743 9.092 20.106 5.628 29 5.628c8.895 0 17.258 3.463 23.547 9.754a2.815 2.815 0 003.98-3.98z" fill="#fff"/><path fill-rule="evenodd" clip-rule="evenodd" d="M30.873 28.572l23.174 20.655c.599.534.942 1.298.942 2.101v25.858A2.814 2.814 0 0152.175 80H5.825a2.814 2.814 0 01-2.813-2.814V51.328c0-.803.342-1.567.941-2.101L27.13 28.572a2.814 2.814 0 013.744 0zM26 61a5 5 0 00-5 5v14h15V66a5 5 0 00-5-5h-5z" fill="#fff"/></svg>