<?xml version="1.0" standalone="no"?>
<!DOCTYPE svg PUBLIC "-//W3C//DTD SVG 1.1//EN" "http://www.w3.org/Graphics/SVG/1.1/DTD/svg11.dtd" >
<svg>
<metadata>
Created by FontForge 20120731 at Sat Nov 12 15:17:43 2016
 By www
</metadata>
<defs>
<font id="RatioModernW00SC" horiz-adv-x="545" >
  <font-face 
    font-family="RatioModernW00SC"
    font-weight="400"
    font-stretch="normal"
    units-per-em="1000"
    panose-1="2 0 0 0 0 0 0 0 0 0"
    ascent="735"
    descent="-265"
    x-height="480"
    cap-height="715"
    bbox="-39 -238 1401 1002"
    underline-thickness="50"
    underline-position="-50"
    unicode-range="U+0020-FB04"
  />
<missing-glyph horiz-adv-x="540" 
d="M450 674h-360v-635h360v635zM47 0v712h446v-712h-446z" />
    <glyph glyph-name=".notdef" horiz-adv-x="540" 
d="M450 674h-360v-635h360v635zM47 0v712h446v-712h-446z" />
    <glyph glyph-name="glyph1" horiz-adv-x="0" 
 />
    <glyph glyph-name="glyph2" horiz-adv-x="0" 
 />
    <glyph glyph-name="space" unicode=" " horiz-adv-x="260" 
 />
    <glyph glyph-name="exclam" unicode="!" horiz-adv-x="234" 
d="M160 39q0 -18 -12.5 -31t-31.5 -13q-17 0 -29.5 13t-12.5 31t12.5 31t29.5 13q19 0 31.5 -13t12.5 -31zM117 99q-5 0 -5.5 4.5t-0.5 10.5q0 58 -7 106t-16 87t-16 68.5t-7 52.5q0 36 17 49.5t35 13.5q19 0 35.5 -13.5t16.5 -49.5q0 -23 -7 -52.5t-16 -68.5t-16 -87
t-7 -106q0 -6 -0.5 -10.5t-5.5 -4.5z" />
    <glyph glyph-name="quotedbl" unicode="&#x22;" horiz-adv-x="269" 
d="M186 441q-7 0 -8.5 5t-1.5 16q-2 62 -5 99.5t-6 61t-5.5 38.5t-2.5 32q0 15 4.5 27.5t24.5 12.5q18 0 22 -12t4 -26q0 -19 -2 -33.5t-5 -38t-6 -60.5t-4 -101q0 -11 -1.5 -16t-7.5 -5zM85 441q-7 0 -8.5 5t-1.5 16q-1 62 -4 99.5t-6.5 61t-6 38.5t-2.5 32q0 15 4.5 27.5
t24.5 12.5q19 0 23 -12t4 -26q0 -19 -2.5 -33.5t-5.5 -38t-6 -60.5t-4 -101q0 -11 -1 -16t-8 -5z" />
    <glyph glyph-name="numbersign" unicode="#" horiz-adv-x="790" 
d="M678 311q0 38 -8 60.5t-41 22.5q-19 0 -29 -5.5t-15 -18t-6 -32t-1 -47.5v-54q0 -15 1.5 -27.5t6.5 -21.5t15.5 -14t27.5 -5q32 0 40.5 16t8.5 46v80zM760 282q0 -27 -11.5 -50t-30 -39.5t-42 -25.5t-47.5 -9t-48 9t-42.5 25.5t-30 39.5t-11.5 50q0 26 11.5 48.5t30 39.5
t42.5 26.5t48 9.5t47.5 -9.5t42 -26.5t30 -39.5t11.5 -48.5zM553 88v20h151v-20h-151zM119 439v-351q0 -19 1 -33.5t6 -24.5t16.5 -15t32.5 -5h5q2 0 4 -1t2 -5q0 -6 -6 -6q-13 0 -20 0.5t-12.5 1t-12 0.5h-17.5q-32 0 -47 -1t-28 -1q-8 0 -8 7q0 5 8 5h4q22 0 34 5t17.5 17
t6.5 30.5t1 45.5v347q-4 7 -15.5 9t-43.5 2h-5q-7 0 -7 7q0 2 1 4.5t6 2.5q18 -1 45.5 -1.5t49.5 -0.5h43.5t31.5 2l220 -323v212q0 27 -1 46t-6.5 30t-17.5 16t-34 5h-4q-7 0 -7 7t7 7q13 0 20.5 -0.5t13.5 -1t13 -0.5h18q16 0 26.5 0.5t18 0.5t13 0.5t13.5 0.5q7 0 7 -7
t-7 -7h-4q-21 0 -32 -5t-16 -14.5t-6 -24t-1 -33.5v-392q0 -11 -8 -11q-2 0 -6 2t-9 10z" />
    <glyph glyph-name="dollar" unicode="$" horiz-adv-x="405" 
d="M201 454h-4q-26 0 -46 -7t-34.5 -18t-22 -24.5t-7.5 -26.5q0 -32 26 -48t88 -32v156zM213 18q43 2 74.5 27.5t31.5 65.5q0 19 -7.5 32t-21.5 22t-33.5 16t-43.5 14v-177zM201 -32v38q-28 1 -46.5 9.5t-31 18t-21.5 17.5t-17 8q-9 0 -11.5 -8.5t-2.5 -17.5v-5
q0 -11 -7 -11t-7 11v137q0 8 1.5 10t4.5 2q7 0 7 -5v-7q8 -70 42 -107.5t89 -39.5v181q-21 6 -45.5 14t-45.5 23t-35.5 39t-14.5 62q0 33 11 57.5t29.5 40.5t43 24t50.5 8h7v34h12v-35q25 -2 44 -11.5t36 -19.5q11 -7 14.5 -8t5.5 -1q5 0 5.5 1.5t0.5 6.5v19q0 11 7 11
q5 0 6.5 -3.5t1.5 -7.5q2 -38 4 -60t4 -33t3.5 -15t1.5 -7q0 -5 -6 -5q-5 0 -9 11q-18 52 -48 78t-71 30v-157q26 -7 52 -16.5t46.5 -25.5t33 -40.5t12.5 -60.5q0 -35 -11.5 -61.5t-31 -45t-45.5 -28.5t-56 -11v-38h-12z" />
    <glyph glyph-name="percent" unicode="%" horiz-adv-x="577" 
d="M154 264q18 0 29.5 9.5t19 25t10.5 35.5t3 42t-3 42.5t-10.5 37t-19.5 26.5t-30 10q-17 0 -29 -10t-19 -26.5t-10 -37t-3 -42.5t3 -42t10.5 -35.5t19 -25t29.5 -9.5zM154 254q-25 0 -46.5 10t-37.5 27t-25 39t-9 46t9 47t25 40.5t37.5 28.5t46.5 11t47 -11t37.5 -28.5
t24.5 -40.5t9 -47t-9 -46t-24.5 -39t-37.5 -27t-47 -10zM422 4q18 0 30 9.5t19.5 25t10.5 36t3 42.5q0 21 -3 42t-10.5 37.5t-19.5 27t-30 10.5t-30 -10t-19.5 -26.5t-10.5 -37.5t-3 -43t3 -42.5t10.5 -36t19.5 -25t30 -9.5zM422 -7q-26 0 -47.5 10t-37.5 27.5t-25 40
t-9 46.5t9 47t25 40.5t37.5 28.5t47.5 11t48 -11t37.5 -29t24.5 -40.5t9 -46.5t-9 -46.5t-24.5 -40t-37.5 -27.5t-48 -10zM55 0l439 499h33l-441 -499h-31z" />
    <glyph glyph-name="ampersand" unicode="&#x26;" horiz-adv-x="522" 
d="M255 329q23 14 30.5 34t7.5 46t-8.5 42t-28.5 16q-17 0 -23.5 -11t-6.5 -26q0 -28 10.5 -56.5t18.5 -44.5zM176 275q-23 -17 -30.5 -48t-7.5 -70q0 -43 10 -70.5t25.5 -43t33.5 -21t34 -5.5q14 0 26.5 3.5t25.5 9.5q-6 7 -12.5 16.5t-14 23.5t-17 34t-21.5 48zM482 256
q-17 0 -28.5 -1t-19.5 -5.5t-14.5 -15t-12.5 -29.5q-5 -16 -9 -30.5t-8.5 -28.5t-10.5 -28.5t-15 -30.5q12 -23 20.5 -37.5t16 -22.5t15 -11t16.5 -3q8 0 17 3t17 12q4 3 6 5.5t5 2.5q7 0 7 -8q0 -6 -7 -13q-14 -14 -33.5 -18t-43.5 -4q-26 0 -53 4.5t-46 23.5
q-40 -29 -96 -29q-5 0 -10.5 0.5t-11.5 1.5q-26 3 -51.5 12.5t-46 26t-33.5 39.5t-13 52t11.5 53.5t30.5 44.5t43 36t48 28q-1 5 -5.5 15.5t-10 24t-9.5 29.5t-4 34q0 26 10.5 43.5t26.5 28t35 15t37 4.5q7 0 24 -1.5t34 -8.5t30.5 -21t13.5 -39q0 -19 -8.5 -33.5t-22 -25
t-30 -19t-33.5 -15.5l63 -141q2 -2 12 -26t23 -51q16 26 23 59.5t7 57.5q0 20 -8.5 30t-29.5 10h-6q-8 0 -8 7q0 5 2.5 5.5t6.5 0.5q2 0 22.5 -1t47.5 -1q26 0 48 1t25 1q5 0 5 -6q0 -7 -7 -7h-4z" />
    <glyph glyph-name="quotesingle" unicode="'" horiz-adv-x="169" 
d="M85 441q-7 0 -8.5 5t-1.5 16q-1 62 -4 99.5t-6.5 61t-6 38.5t-2.5 32q0 15 4.5 27.5t24.5 12.5q19 0 23 -12t4 -26q0 -19 -2.5 -33.5t-5.5 -38t-6 -60.5t-4 -101q0 -11 -1 -16t-8 -5z" />
    <glyph glyph-name="parenleft" unicode="(" horiz-adv-x="225" 
d="M157 -38q-56 54 -82.5 118.5t-26.5 133.5t26.5 135.5t82.5 121.5q2 2 3.5 4.5t3.5 2.5t4.5 -2t2.5 -4q0 -3 -3 -6q-26 -29 -38.5 -95t-12.5 -154q0 -87 12.5 -152.5t38.5 -96.5q4 -4 4 -6q0 -5 -7 -7q-2 0 -8 7z" />
    <glyph glyph-name="parenright" unicode=")" horiz-adv-x="225" 
d="M68 -38q-3 -3 -4 -4.5t-3 -1.5t-5 2t-3 4q0 1 3 6q26 31 39 96.5t13 152.5q0 88 -13 154t-39 94q-2 2 -2 7q0 6 6 6q1 0 8 -7q56 -55 82.5 -121.5t26.5 -135.5t-26.5 -133.5t-82.5 -118.5z" />
    <glyph glyph-name="asterisk" unicode="*" horiz-adv-x="379" 
d="M189 561q-32 -44 -46.5 -75t-22.5 -42q-3 -4 -6.5 -7t-8.5 -3t-10 4q-6 6 -6 11q0 6 4 14q9 11 32.5 35t56.5 70q-53 20 -83.5 25.5t-47.5 11.5q-6 2 -10.5 6t-4.5 10q0 5 3.5 10.5t12.5 5.5q15 0 45 -18.5t88 -40.5q0 56 -6 88.5t-6 46.5q0 7 3 13.5t13 6.5
q11 0 13.5 -6.5t2.5 -13.5q0 -14 -5 -46.5t-5 -88.5q57 22 88 40.5t45 18.5q8 0 11.5 -5t3.5 -11q0 -11 -14 -16q-17 -6 -47.5 -11.5t-83.5 -25.5q33 -46 56.5 -70t31.5 -35q5 -8 5 -13q0 -6 -7 -12q-4 -4 -9 -4q-9 0 -15 10q-8 11 -23 42t-48 75z" />
    <glyph glyph-name="plus" unicode="+" horiz-adv-x="404" 
d="M177 73v142h-141v49h141v142h50v-142h141v-49h-141v-142h-50z" />
    <glyph glyph-name="comma" unicode="," horiz-adv-x="253" 
d="M69 -132q-13 0 -13 9q0 8 7.5 10t15.5 4q28 6 48 20t32.5 30.5t18 32.5t5.5 27q0 10 -4 18.5t-10 8.5q-5 0 -9 -5.5t-10 -12t-15 -12t-24 -5.5q-24 0 -39.5 14t-15.5 40q0 29 19 44t44 15q15 0 30 -6t27 -17.5t19.5 -29.5t7.5 -42q0 -36 -16.5 -63t-38.5 -44.5
t-44.5 -26.5t-34.5 -9z" />
    <glyph glyph-name="hyphen" unicode="-" horiz-adv-x="425" 
d="M116 249q-15 0 -23 -2t-14 -8q-5 -4 -7 -8t-4 -4t-2 3q0 2 1.5 6.5t3.5 12.5l12 40q2 6 4.5 7t6.5 1h215q28 0 37 10q5 5 7.5 8.5t4.5 3.5v-1q0 -1 0.5 -1t0.5 -1q0 -4 -4 -19l-13 -40q-2 -6 -4 -7t-7 -1h-215z" />
    <glyph glyph-name="period" unicode="." horiz-adv-x="223" 
d="M112 -7q-23 0 -39.5 16t-16.5 39t16.5 39.5t39.5 16.5t39 -16.5t16 -39.5t-16 -39t-39 -16z" />
    <glyph glyph-name="slash" unicode="/" horiz-adv-x="412" 
d="M25 -109l326 855h38l-326 -855h-38z" />
    <glyph glyph-name="zero" unicode="0" horiz-adv-x="452" 
d="M227 4q24 0 39 17t24 48.5t12.5 76t3.5 98.5q0 110 -16 168.5t-63 58.5q-48 0 -64 -58t-16 -169q0 -54 3.5 -98.5t12.5 -76t24.5 -48.5t39.5 -17zM227 -9q-32 0 -64 19t-58 52.5t-42.5 80t-16.5 101.5t16.5 99.5t42.5 76t58 48t64 16.5q31 0 62.5 -16.5t57.5 -48
t42.5 -76t16.5 -99.5t-16.5 -101.5t-42.5 -80t-57.5 -52.5t-62.5 -19z" />
    <glyph glyph-name="one" unicode="1" horiz-adv-x="303" 
d="M267 10q6 0 6 -5q0 -7 -6 -7q-25 1 -55.5 1.5t-56.5 0.5q-17 0 -35 -0.5t-34.5 -0.5t-28 -0.5t-14.5 -0.5q-7 0 -8.5 1.5t-1.5 3.5q0 7 7 7h65v366l-55 -54q-4 -4 -7 -4q-1 0 -3 1.5t-2 3.5q0 3 4 7l43 43t32.5 33t26.5 30.5t26 37.5q3 4 6.5 7t10.5 3q6 0 11 -6t5 -21
v-447h64z" />
    <glyph glyph-name="two" unicode="2" horiz-adv-x="419" 
d="M70 0q-14 0 -17 5t-3 13q0 56 19 88t45 53q23 19 49 34.5t47.5 34t36 45t14.5 68.5q0 21 -6 42.5t-18.5 38t-31 27t-43.5 10.5q-40 0 -65.5 -23t-25.5 -67q0 -21 6 -36t13.5 -24.5t14 -15.5t6.5 -10q0 -8 -6 -8q-4 0 -10 7q-3 3 -10 10.5t-13.5 18.5t-11.5 25t-5 32
q0 17 6.5 37t21.5 37.5t40.5 29.5t63.5 12q37 0 69 -12t55.5 -31.5t36.5 -45t13 -53.5q0 -32 -17 -55.5t-43.5 -42t-58.5 -34t-62 -30.5q-35 -20 -63 -41t-39 -52h234q24 0 30 7t6 20v47q0 7 7 7q6 0 6 -7q0 -3 -0.5 -25.5t-0.5 -58.5v-10.5t0.5 -18.5t0.5 -18.5v-10.5
q0 -9 -2.5 -14t-14.5 -5h-274z" />
    <glyph glyph-name="three" unicode="3" horiz-adv-x="420" 
d="M137 267q-3 0 -5.5 0.5t-2.5 5.5q0 6 8 6h32q18 0 35.5 4t30.5 14.5t21 30t8 50.5q0 46 -20.5 69t-66.5 23q-38 0 -57 -13.5t-19 -27.5q0 -8 11 -8q8 0 12 3t15 3q13 0 25 -10t12 -24q0 -19 -14 -36.5t-44 -17.5q-24 0 -44.5 15t-20.5 45q0 22 13 38t33.5 26.5t46.5 15.5
t53 5q34 0 63.5 -7.5t51.5 -21t34.5 -33t12.5 -44.5q0 -23 -11 -41t-30.5 -31t-46 -21t-56.5 -12q31 -5 59 -15.5t49 -27.5t33.5 -41t12.5 -55q0 -37 -17 -64t-43 -44.5t-57.5 -26t-60.5 -8.5t-55.5 7t-47.5 20.5t-33.5 33t-12.5 45.5q0 35 20 50.5t46 15.5q32 0 49 -19
t17 -44q0 -19 -10 -31t-29 -12q-11 0 -19 3.5t-13 8t-9 8.5t-8 4q-3 0 -3 -9q0 -10 6.5 -21t19 -20.5t30.5 -15.5t42 -6q27 0 43.5 9.5t26 25.5t12.5 37t3 44q0 53 -11.5 82t-28.5 42.5t-36.5 15.5t-35.5 2h-19z" />
    <glyph glyph-name="four" unicode="4" horiz-adv-x="445" 
d="M221 369l-147 -189q37 0 73.5 -0.5t73.5 -0.5v190zM381 10q8 0 8 -5q0 -7 -8 -7q-24 1 -54.5 1.5t-56.5 0.5q-17 0 -35.5 -0.5t-34.5 -0.5t-27.5 -0.5t-13.5 -0.5q-8 0 -9.5 1.5t-1.5 3.5q0 7 7 7h66v93h-194q-11 0 -13.5 1t-2.5 6q0 10 9 22l261 336q8 11 11.5 13.5
t8.5 2.5h7.5t7.5 -2q2 -2 2 -7v-296h34q24 0 30 6.5t6 19.5v29q0 3 2 5t4 2q7 0 7 -7q0 -2 -0.5 -4t-0.5 -13q0 -6 -0.5 -14t-0.5 -21q0 -2 0.5 -16t0.5 -27v-11q0 -3 1 -5q0 -11 -3 -15.5t-15 -4.5h-65v-93h63z" />
    <glyph glyph-name="five" unicode="5" horiz-adv-x="418" 
d="M99 378v-140q17 32 49 44.5t64 12.5q27 0 56.5 -8.5t53.5 -26.5t40 -45.5t16 -65.5q0 -39 -16 -68.5t-42 -49.5t-58.5 -30.5t-64.5 -10.5q-26 0 -52 6.5t-47 20t-34 33t-13 46.5q0 33 19 49.5t45 16.5t47 -16t21 -46q0 -20 -10 -32t-29 -12q-11 0 -18.5 3.5t-13 8
t-9.5 8.5t-8 4t-4 -8q0 -11 6.5 -22t19 -20.5t30.5 -15.5t41 -6q28 0 45 9.5t26.5 27.5t12.5 43.5t3 57.5q0 30 -3 54.5t-12 41.5t-26 26.5t-45 9.5q-33 0 -56 -15.5t-36 -51.5q-2 -5 -3 -6t-3 -1q-6 0 -6 13v224q0 16 5.5 18.5t19.5 2.5h170q16 0 25.5 0.5t15.5 2t10 5
t9 9.5q6 7 8 9t5 2q5 0 7 -3.5t2 -5.5q0 -3 -3 -9q-14 -27 -21.5 -42t-11 -23t-5 -11t-3.5 -6q-5 -8 -13.5 -10t-31.5 -2h-174z" />
    <glyph glyph-name="six" unicode="6" horiz-adv-x="398" 
d="M212 4q24 0 41.5 33t17.5 110q0 35 -4 58t-12 36.5t-19.5 19t-26.5 5.5q-38 0 -50 -28t-12 -82q0 -70 18 -111t47 -41zM148 239q16 26 37.5 37t46.5 11q24 0 48 -9t43.5 -27t32 -43.5t12.5 -58.5q0 -28 -10 -56t-29.5 -51t-49 -37.5t-68.5 -14.5q-40 0 -71 16.5t-52 44.5
t-31.5 65.5t-10.5 79.5q0 67 23 117.5t55.5 84.5t68 53t60.5 25q6 2 9 2q9 0 9 -8q0 -4 -3 -6t-7 -4q-27 -14 -46.5 -32.5t-33 -45t-21.5 -61.5t-12 -82z" />
    <glyph glyph-name="seven" unicode="7" horiz-adv-x="369" 
d="M93 375q-24 0 -30 -6.5t-6 -19.5v-48q0 -7 -7 -7q-6 0 -6 8q0 3 0.5 25t0.5 59v10t-0.5 19t-0.5 18.5v10.5q0 8 2.5 13.5t17.5 5.5h267q14 0 17 -3t3 -10q0 -29 -2.5 -48.5t-10 -35.5t-21.5 -32.5t-36 -39.5q-30 -30 -47.5 -49.5t-27 -35t-12 -31.5t-2.5 -38
q0 -35 2.5 -59t2.5 -40q0 -23 -9.5 -36.5t-37.5 -13.5t-41 15t-13 52q0 42 15 74.5t39.5 60.5t56 54.5t64.5 56.5q14 12 30.5 30t24.5 41h-233z" />
    <glyph glyph-name="eight" unicode="8" horiz-adv-x="441" 
d="M278 275q20 15 28 38.5t8 51.5t-8 48.5t-20.5 33t-29 18.5t-34.5 6q-35 0 -59.5 -20.5t-24.5 -59.5q0 -24 11 -40.5t30 -29t44.5 -23t54.5 -23.5zM161 221q-23 -16 -32.5 -41t-9.5 -56t8.5 -53.5t23 -37.5t33.5 -22t40 -7q38 0 64.5 23t26.5 65q0 29 -13 47.5t-34.5 32
t-49.5 24.5t-57 25zM294 268q39 -18 69 -47.5t30 -72.5q0 -24 -10.5 -51.5t-33 -51t-57 -39t-83.5 -15.5q-37 0 -66.5 9.5t-50 26t-31.5 39t-11 47.5q0 35 22.5 65.5t73.5 50.5q-18 9 -34 20t-28 25.5t-19 33.5t-7 44q0 40 18 66t44 40.5t56 20t53 5.5q27 0 54 -6.5
t49 -20.5t36 -35t14 -51q0 -25 -9.5 -42.5t-23 -30t-28.5 -19.5t-27 -11z" />
    <glyph glyph-name="nine" unicode="9" horiz-adv-x="396" 
d="M186 209q38 0 51 29.5t13 92.5q0 43 -5.5 70t-14.5 42.5t-20 21.5t-22 6q-29 0 -45 -33t-16 -110q0 -37 4 -60t11.5 -36t18.5 -18t25 -5zM248 239q-12 -24 -32 -37.5t-49 -13.5q-25 0 -49.5 9.5t-44 27t-32 43t-12.5 58.5q0 27 10 55.5t29.5 51t49 37t68.5 14.5
q40 0 71 -16.5t52 -44t31.5 -64.5t10.5 -79q0 -69 -25 -121t-59.5 -87.5t-70.5 -55t-59 -24.5q-6 -2 -10 -2q-8 0 -8 9q0 5 11 10q57 29 85 87t33 143z" />
    <glyph glyph-name="colon" unicode=":" horiz-adv-x="243" 
d="M122 285q-23 0 -39.5 16t-16.5 39t16.5 39t39.5 16t39 -16t16 -39t-16 -39t-39 -16zM122 -7q-23 0 -39.5 16t-16.5 39t16.5 39.5t39.5 16.5t39 -16.5t16 -39.5t-16 -39t-39 -16z" />
    <glyph glyph-name="semicolon" unicode=";" horiz-adv-x="280" 
d="M82 -132q-13 0 -13 9q0 8 7.5 10t15.5 4q27 6 47 19.5t32.5 29.5t18.5 32.5t6 28.5q0 11 -4.5 19t-9.5 8t-9 -5.5t-10 -12t-15 -12t-24 -5.5q-24 0 -39.5 14t-15.5 40q0 29 19 44t44 15q15 0 30 -6t27 -17.5t19.5 -29.5t7.5 -42q0 -36 -16.5 -63t-38.5 -44.5t-44.5 -26.5
t-34.5 -9zM136 286q-23 0 -39 16t-16 39t16 39t39 16t39 -16t16 -39t-16 -39t-39 -16z" />
    <glyph glyph-name="less" unicode="&#x3c;" horiz-adv-x="398" 
d="M33 287q-7 5 -7 9q0 5 7 10l287 197q10 5 14 5q5 0 9.5 -3.5t4.5 -8.5q0 -7 -7 -12l-280 -188l280 -188q7 -5 7 -11q0 -5 -4.5 -8.5t-9.5 -3.5q-3 0 -5.5 0.5t-8.5 4.5z" />
    <glyph glyph-name="equal" unicode="=" horiz-adv-x="485" 
d="M66 296v53h353v-53h-353zM66 127v53h353v-53h-353z" />
    <glyph glyph-name="greater" unicode="&#x3e;" horiz-adv-x="398" 
d="M78 90q-6 -4 -8.5 -4.5t-5.5 -0.5q-5 0 -9.5 3.5t-4.5 8.5q0 6 7 11l280 188l-280 188q-7 5 -7 12q0 5 4.5 8.5t9.5 3.5q4 0 14 -5l287 -197q7 -5 7 -10q0 -4 -7 -9z" />
    <glyph glyph-name="question" unicode="?" horiz-adv-x="344" 
d="M175 39q0 -18 -13 -31t-31 -13q-17 0 -30 13t-13 31t13 31t30 13q18 0 31 -13t13 -31zM145 115q-2 1 -12.5 8.5t-22 20t-21 30t-9.5 38.5q0 23 11.5 41t28 34t36.5 31t36.5 31t28 35t11.5 42q0 25 -16.5 43t-57.5 18q-19 0 -35.5 -3t-26.5 -10q-8 -6 -10 -8q-3 -2 -4 -4
q3 0 4 -0.5t4 -0.5q21 0 31.5 -13t10.5 -32q0 -22 -12.5 -34t-30.5 -12t-29.5 12t-11.5 33q0 15 6 30t20 27t36.5 20t54.5 8q25 0 51 -5.5t46.5 -18.5t33.5 -33t13 -49q0 -30 -13.5 -52t-33.5 -40t-43.5 -32.5t-43.5 -29.5t-33.5 -31.5t-13.5 -37.5q0 -17 8 -28t19 -20
q4 -3 4 -6q0 -2 -1.5 -4t-5.5 -2q-3 0 -7 4z" />
    <glyph glyph-name="at" unicode="@" horiz-adv-x="896" 
d="M518 207q-15 20 -37 28t-46 8q-27 0 -44 -9t-27.5 -24.5t-14.5 -35t-4 -40.5q0 -54 22.5 -84.5t62.5 -30.5q30 0 51 16t37 39v133zM565 -191q-42 -7 -72 -9t-53 -2q-96 0 -171.5 35.5t-127 93.5t-79 131.5t-27.5 150.5q0 74 26 145t80 126t136 88.5t194 33.5
q79 0 150.5 -19t125.5 -59.5t86 -104t32 -151.5q0 -47 -11 -96t-38 -89t-72.5 -65t-114.5 -25q-48 0 -76 14t-33 46q-32 -35 -67 -50.5t-73 -15.5q-59 0 -97.5 32.5t-38.5 89.5q0 31 12 58.5t34.5 48.5t55.5 33t74 12q39 0 61.5 -9.5t36.5 -22.5v57q0 32 -1.5 56t-10 40
t-27.5 24t-54 8q-28 0 -47 -4.5t-31 -10.5t-17.5 -12.5t-5.5 -11.5q0 -3 3 -3t5.5 1t7.5 1q17 0 31 -11.5t14 -32.5t-13 -33t-33 -12t-34.5 14t-14.5 43q0 15 5.5 31.5t21 29.5t42.5 21.5t70 8.5q28 0 60.5 -5t60 -18t45.5 -36t18 -59v-207q0 -32 1 -50.5t5 -28.5
t11.5 -12.5t20.5 -2.5q48 0 84.5 20.5t61 55.5t37 81t12.5 98q0 83 -30 142.5t-81 97.5t-118.5 56t-142.5 18q-107 0 -185 -32.5t-129 -85.5t-75.5 -120.5t-24.5 -138.5q0 -73 25.5 -142.5t76.5 -124t126 -88t174 -33.5q24 0 50 1.5t53 6.5v-17z" />
    <glyph glyph-name="A" unicode="A" horiz-adv-x="678" 
d="M291 578l-99 -297h207zM689 16q5 0 7.5 -3t2.5 -6q0 -10 -10 -10q-22 0 -39 0.5l-34 1t-35.5 1t-43.5 0.5q-63 0 -103.5 -1.5t-47.5 -1.5q-10 0 -12 3t-2 6q0 10 10 10h61q22 0 32 3t10 17q0 6 -1.5 12t-4.5 14l-73 200h-221l-40 -120q-8 -27 -13.5 -47.5t-5.5 -36.5
q0 -42 50 -42h37q5 0 7.5 -3t2.5 -6q0 -10 -10 -10q-19 0 -33 0.5t-26.5 1t-25.5 1t-31 0.5q-45 0 -69 -1.5t-44 -1.5q-11 0 -11 10q0 3 3 6t8 3h17q45 0 70.5 18t39.5 61l204 604q5 15 9.5 24.5t10.5 9.5q4 0 6.5 -3t7.5 -15l234 -639q7 -20 12.5 -31.5t11 -17.5t11 -8.5
t11.5 -2.5h60z" />
    <glyph glyph-name="B" unicode="B" horiz-adv-x="644" 
d="M255 379q37 0 75 2.5t69 17.5t50.5 46.5t19.5 88.5q0 60 -21.5 93t-54.5 48.5t-72.5 18t-75.5 2.5h-3v-317h13zM270 19q36 0 74 3.5t69.5 20t51.5 50t20 93.5q0 63 -21.5 98t-55 52t-74.5 20.5t-79 3.5h-13v-341h28zM142 696h-98q-10 0 -10 10q0 4 2.5 6.5t10.5 2.5
q3 0 25 -0.5t50.5 -1t56 -1t40.5 -0.5q20 0 45 1t48 1q37 0 82 -5.5t85 -23t67 -51.5t27 -91q0 -39 -14 -69.5t-38.5 -51.5t-57.5 -34t-70 -18q40 -6 75.5 -20t62.5 -36.5t42.5 -55t15.5 -75.5q0 -57 -26 -93t-66 -57t-86.5 -28.5t-88.5 -7.5q-31 0 -64 2.5t-64 2.5
q-16 0 -40 -1t-47.5 -1.5t-41 -1.5t-20.5 -1q-7 0 -9 3.5t-2 6.5t2.5 6t7.5 3h98v680z" />
    <glyph glyph-name="C" unicode="C" horiz-adv-x="747" 
d="M684 167q4 8 8 8q2 0 6 -2q5 -3 5 -7q0 -3 -2 -5q-45 -85 -111.5 -129.5t-168.5 -44.5q-83 0 -151 29t-117 79.5t-76 118.5t-27 146q0 73 24.5 140.5t70 119t110.5 82.5t146 31q43 0 81.5 -11t84.5 -40q12 -8 19.5 -12t15.5 -4q5 0 9.5 3.5t4.5 11.5q0 6 -1.5 14t-1.5 15
q0 10 11 10q9 0 13 -16q4 -19 7.5 -33t9.5 -30.5t16 -40t26 -60.5q2 -4 2 -7q0 -9 -10 -9q-5 0 -7 3.5t-7 10.5q-32 49 -65.5 82.5t-67.5 54.5t-68.5 30t-68.5 9q-67 0 -114.5 -30.5t-77.5 -79t-44 -110.5t-14 -125q0 -72 17 -137.5t51.5 -115.5t87 -80t122.5 -30
q83 0 147.5 42.5t104.5 118.5z" />
    <glyph glyph-name="D" unicode="D" horiz-adv-x="808" 
d="M242 19q37 0 81.5 1.5t89.5 11t87.5 30t75.5 58t53 95.5t20 143q0 84 -19.5 142t-52.5 95.5t-75.5 58t-87.5 30t-90 11t-82 1.5v-677zM142 696h-98q-10 0 -10 10q0 4 2 6.5t10 2.5q3 0 25.5 -0.5t51 -1t55.5 -1t39 -0.5t31.5 0.5t41.5 1t42.5 1t33.5 0.5q21 0 58 -3
t80 -14t87.5 -33.5t80.5 -62.5t59 -99t23 -144q0 -90 -25.5 -151t-65.5 -101t-89.5 -62t-96.5 -32t-87 -12t-62 -2q-46 0 -75.5 0.5t-58.5 0.5q-24 0 -48 -0.5t-44.5 -1t-35.5 -1t-22 -0.5q-10 0 -10 10q0 3 2.5 6t7.5 3h98v680z" />
    <glyph glyph-name="E" unicode="E" horiz-adv-x="659" 
d="M399 16q55 0 89 14t52.5 37t26.5 53t13 62q1 7 2 12t8 5t8 -4.5t1 -11.5q-1 -27 -5.5 -66t-4.5 -88v-16t1 -16q-3 0 -20 0.5t-61 1t-120.5 1t-198.5 0.5q-21 0 -44.5 -0.5t-43.5 -1t-36 -1t-22 -0.5q-11 0 -11 10q0 3 3 6t8 3h98v680h-98q-11 0 -11 10q0 9 11 9
q39 -1 72 -2t74 -1h141.5h101.5t69.5 0.5t44.5 0.5t26.5 0.5t16.5 1.5q0 -14 0.5 -39.5t2.5 -41.5q2 -23 3 -39.5t1.5 -28t1 -19.5t0.5 -14t-1 -11t-8 -5t-8 4t-2 12q-2 31 -7 60.5t-23.5 52t-56 36.5t-103.5 14h-149v-290h45q46 0 70 10t35 26t13 36.5t2 40.5q0 16 11 16
q7 0 8 -4.5t1 -10.5q0 -33 -2.5 -59t-2.5 -65t2.5 -73.5t2.5 -63.5q0 -7 -1 -11.5t-8 -4.5q-8 0 -9 6t-1 10q-3 33 -6.5 57.5t-15.5 40t-35 23t-64 7.5h-45v-371h158z" />
    <glyph glyph-name="F" unicode="F" horiz-adv-x="620" 
d="M337 16q5 0 7.5 -3t2.5 -6q0 -10 -10 -10q-39 1 -73 2t-73 1q-40 0 -73.5 -1t-73.5 -2q-10 0 -10 10q0 3 2.5 6t7.5 3h98v680h-98q-10 0 -10 10q0 9 10 9q40 -1 73.5 -2t73.5 -1h196.5t115.5 0.5t59.5 1t28.5 1.5q0 -14 0.5 -39.5t2.5 -41.5q1 -21 2 -34t1.5 -23.5
t0.5 -20.5t1 -23q0 -8 -1 -12t-7 -4q-11 0 -11 16q0 33 -6.5 63t-26.5 52t-57.5 35t-99.5 13h-148v-290h45q30 0 52 3.5t37 15.5t22.5 34t8.5 60q0 16 11 16q6 0 7 -4.5t1 -11.5q-1 -37 -2 -53.5t-1.5 -25.5t-0.5 -17v-27v-29.5t0.5 -21t1.5 -30.5t2 -56q0 -7 -1 -11.5
t-7 -4.5q-11 0 -11 16q-1 42 -8.5 67t-22.5 38.5t-37 18t-52 4.5h-45v-371h95z" />
    <glyph glyph-name="G" unicode="G" horiz-adv-x="781" 
d="M579 305h-98q-10 0 -10 8q0 2 1.5 6t8.5 4q37 -1 71 -2t72 -1q45 0 78 1.5t50 1.5q10 0 10 -10q0 -8 -10 -8h-73v-197q0 -22 -2 -23q-2 -2 -7 -3.5t-10 -4.5q-14 -7 -31.5 -18.5t-30.5 -19.5q-36 -23 -77.5 -37.5t-92.5 -14.5q-64 0 -131 24.5t-122 71.5t-90 116.5
t-35 158.5q0 69 22.5 136t66.5 120t110 86t152 33q44 0 82 -11t84 -40q12 -8 19 -12.5t15 -4.5q14 0 14 16q0 6 -1.5 14t-1.5 14q0 11 11 11q10 0 13 -17q5 -21 9 -35.5t10 -30.5t15.5 -38.5t25.5 -59.5q2 -4 2 -7t-2.5 -6t-7.5 -3t-7.5 4t-6.5 10q-30 48 -62.5 81.5
t-67 54.5t-70.5 30.5t-71 9.5q-67 0 -114 -30.5t-77 -80t-44 -112t-14 -127.5q0 -79 19 -144.5t54.5 -112.5t86.5 -73t114 -26q39 0 66 9t44.5 21t27 25t13.5 22v221z" />
    <glyph glyph-name="H" unicode="H" horiz-adv-x="803" 
d="M756 16q5 0 8 -3t3 -6q0 -10 -11 -10q-38 1 -71.5 2t-71.5 1q-23 0 -47 -0.5t-44 -1t-35.5 -1t-22.5 -0.5q-11 0 -11 10q0 3 3 6t8 3h98v330h-321v-330h95q5 0 8 -3t3 -6q0 -10 -11 -10q-38 1 -71.5 2t-71.5 1q-23 0 -47 -0.5t-44 -1t-35.5 -1t-22.5 -0.5q-11 0 -11 10
q0 3 3 6t8 3h98v680h-98q-11 0 -11 10q0 9 11 9q38 -1 71.5 -2t71.5 -1q23 0 47 0.5t44 1t35.5 1t22.5 0.5q11 0 11 -9q0 -10 -11 -10h-95v-331h321v331h-98q-11 0 -11 10q0 9 11 9q38 -1 71.5 -2t71.5 -1q23 0 47 0.5t44 1t35.5 1t22.5 0.5q11 0 11 -9q0 -10 -11 -10h-95
v-680h95z" />
    <glyph glyph-name="I" unicode="I" horiz-adv-x="383" 
d="M337 16q5 0 7.5 -3t2.5 -6q0 -10 -10 -10q-38 1 -71.5 2t-71.5 1q-23 0 -47 -0.5t-44.5 -1t-36 -1t-22.5 -0.5q-10 0 -10 10q0 3 2.5 6t7.5 3h98v680h-98q-10 0 -10 10q0 9 10 9q38 -1 72 -2t72 -1q23 0 47 0.5t44 1t35.5 1t22.5 0.5q10 0 10 -9q0 -10 -10 -10h-95v-680
h95z" />
    <glyph glyph-name="J" unicode="J" horiz-adv-x="372" 
d="M136 696h-98q-10 0 -10 10q0 9 10 9q38 -1 71.5 -2t71.5 -1q23 0 47 0.5t44.5 1t36 1t22.5 0.5q10 0 10 -9q0 -10 -10 -10h-95v-666q0 -65 -10.5 -109.5t-26.5 -74.5t-36 -47t-39 -25t-34.5 -10t-23.5 -2q-16 0 -32 4t-28.5 13t-20.5 23t-8 35q0 27 14 46t42 19
q25 0 37.5 -14t12.5 -33q0 -23 -14.5 -37t-35.5 -14q-10 0 -14.5 2.5t-6.5 2.5t-2 -3q0 -8 13.5 -16.5t39.5 -8.5q46 0 59.5 33t13.5 95v787z" />
    <glyph glyph-name="K" unicode="K" horiz-adv-x="717" 
d="M723 16q5 0 7.5 -3t2.5 -6q0 -10 -10 -10q-22 0 -41 0.5t-37.5 1t-39 1t-45.5 0.5q-63 0 -103.5 -1.5t-47.5 -1.5q-10 0 -12.5 3t-2.5 6q0 10 11 10h48q21 0 35.5 3t14.5 16q0 8 -4.5 14t-9.5 13l-224 288l-24 -32v-302h95q5 0 8 -3t3 -6q0 -10 -11 -10q-38 1 -71.5 2
t-71.5 1q-23 0 -47 -0.5t-44 -1t-35.5 -1t-22.5 -0.5q-11 0 -11 10q0 3 3 6t8 3h98v680h-98q-11 0 -11 10q0 9 11 9q38 -1 71.5 -2t71.5 -1q23 0 47 0.5t44 1t35.5 1t22.5 0.5q11 0 11 -9q0 -10 -11 -10h-95v-348l192 252q17 22 25 37.5t8 31.5q0 27 -32 27h-26
q-11 0 -11 10q0 9 11 9q19 0 31 -0.5t22.5 -1t22.5 -1t30 -0.5q45 0 79.5 1.5t51.5 1.5q11 0 11 -9q0 -10 -11 -10h-17q-36 0 -58.5 -4.5t-39 -14.5t-29.5 -24.5t-29 -35.5l-141 -184l277 -357q25 -32 39.5 -46t32.5 -14h43z" />
    <glyph glyph-name="L" unicode="L" horiz-adv-x="618" 
d="M399 16q55 0 89 14t52.5 37t26.5 53t13 62q1 7 2.5 12t7.5 5q7 0 8 -4.5t1 -11.5q-1 -27 -5.5 -66t-4.5 -88v-16t1 -16q-11 1 -22 1.5t-27.5 0.5t-42 0.5t-66.5 0.5h-100h-142q-21 0 -44.5 -0.5t-43.5 -1t-36 -1t-22 -0.5q-11 0 -11 10q0 3 3 6t8 3h98v680h-98
q-11 0 -11 10q0 9 11 9q38 -1 71.5 -2t71.5 -1q23 0 47 0.5t44 1t35.5 1t22.5 0.5q11 0 11 -9q0 -10 -11 -10h-95v-680h158z" />
    <glyph glyph-name="M" unicode="M" horiz-adv-x="864" 
d="M818 16q5 0 8 -3t3 -6q0 -10 -11 -10q-38 1 -71.5 2t-71.5 1q-23 0 -47 -0.5t-44 -1t-35.5 -1t-22.5 -0.5q-11 0 -11 10q0 3 3 6t8 3h97v593l-201 -596q-5 -15 -9 -24.5t-11 -9.5q-4 0 -6.5 3.5t-6.5 14.5l-226 616v-497q0 -33 5 -53t15.5 -30.5t26 -13.5t36.5 -3h17
q5 0 8 -3t3 -6q0 -10 -11 -10q-19 0 -31.5 0.5t-23 1t-22.5 1t-30 0.5q-44 0 -68.5 -1.5t-44.5 -1.5q-11 0 -11 10q0 3 3 6t8 3h17q16 0 31 2.5t27 10.5t19 22.5t7 38.5v573q-11 24 -18 28.5t-18 4.5h-59q-11 0 -11 10q0 2 2 5.5t9 3.5q54 -3 88 -3q28 0 55 1.5t44 1.5
l211 -580l193 580q1 0 7.5 -0.5t15.5 -1t18.5 -1t15.5 -0.5t21.5 0.5t32.5 1t32 1t21 0.5q10 0 10 -10q0 -3 -2 -6t-8 -3h-81v-680h95z" />
    <glyph glyph-name="N" unicode="N" horiz-adv-x="757" 
d="M163 638v-522q0 -33 5 -53t15.5 -30.5t26.5 -13.5t37 -3h17q5 0 7.5 -3t2.5 -6q0 -10 -10 -10q-20 0 -32 0.5t-23 1t-23 1t-30 0.5q-44 0 -68.5 -1.5t-44.5 -1.5q-10 0 -10 10q0 3 2.5 6t7.5 3h17q17 0 32 2.5t26.5 10.5t18.5 22.5t7 38.5v573q-13 23 -22 28t-19 5h-54
q-10 0 -10 10q0 2 1.5 5.5t8.5 3.5q54 -3 88 -3q28 0 54.5 1.5t43.5 1.5l365 -554v461q0 24 -7 38.5t-18.5 22.5t-26.5 10.5t-32 2.5h-17q-10 0 -10 10q0 9 10 9q19 0 31.5 -0.5t23.5 -1t23 -1t30 -0.5q44 0 68.5 1.5t44.5 1.5q10 0 10 -9q0 -10 -10 -10h-17q-21 0 -37 -3
t-26.5 -13t-15.5 -30t-5 -53v-601q0 -8 -1.5 -12.5t-8.5 -4.5q-5 0 -10.5 3.5t-12.5 14.5z" />
    <glyph glyph-name="O" unicode="O" horiz-adv-x="801" 
d="M400 6q70 0 117 30.5t76 80t41.5 113t12.5 130.5t-12.5 130.5t-41.5 113t-76 80t-117 30.5t-117 -30.5t-76 -80t-41.5 -113t-12.5 -130.5t12.5 -130.5t41.5 -113t76 -80t117 -30.5zM400 -13q-77 0 -141 31t-111 82.5t-73 119t-26 140.5t26 140.5t73 119t111 82.5t141 31
q76 0 141 -31t111.5 -82.5t73 -119t26.5 -140.5t-26.5 -140.5t-73 -119t-111.5 -82.5t-141 -31z" />
    <glyph glyph-name="P" unicode="P" horiz-adv-x="613" 
d="M248 360q36 0 78 3t77 18.5t58.5 49t23.5 95.5t-24 96.5t-60 51t-79 19.5t-80 3v-336h6zM337 16q5 0 7.5 -3t2.5 -6q0 -10 -10 -10q-38 1 -72 2t-72 1q-23 0 -46.5 -0.5t-44 -1t-36 -1t-22.5 -0.5q-10 0 -10 10q0 3 2.5 6t7.5 3h98v680h-98q-10 0 -10 10q0 9 13 9
q3 0 25.5 -0.5t51 -1t55.5 -1t40 -0.5q21 0 45.5 1t49.5 1q40 0 88.5 -5.5t89.5 -24t69 -54t28 -94.5q0 -49 -19.5 -82.5t-50.5 -55t-69.5 -33.5t-77.5 -17t-73.5 -6t-56.5 -1v-325h95z" />
    <glyph glyph-name="Q" unicode="Q" horiz-adv-x="803" 
d="M401 6q70 0 117 30.5t76 80t41.5 113t12.5 130.5t-12.5 130.5t-41.5 113t-76 80t-117 30.5t-117 -30.5t-76 -80t-41.5 -113t-12.5 -130.5t12.5 -130.5t41.5 -113t76 -80t117 -30.5zM403 -13q-77 0 -142 31t-112 82.5t-73 119t-26 140.5t26 140.5t73 119t111 82.5t141 31
q76 0 141 -31t111.5 -82.5t73 -119t26.5 -140.5q0 -57 -16.5 -111t-46 -100t-71.5 -82t-93 -57q14 -50 33.5 -83.5t45 -54.5t57.5 -31.5t72 -14.5q24 -2 30 -3t6 -6q0 -10 -10.5 -13t-40.5 -3q-72 0 -123 11.5t-85.5 29t-55 39t-31.5 42t-15 38t-6 26.5z" />
    <glyph glyph-name="R" unicode="R" horiz-adv-x="694" 
d="M279 374q30 0 64 3.5t62.5 19t47.5 47t19 87.5q0 57 -20 90t-52.5 50t-74 21.5t-84.5 4.5v-323h38zM335 16q10 0 10 -10q0 -9 -10 -9q-38 1 -71.5 2t-71.5 1q-23 0 -47 -0.5t-44.5 -1t-35 -1t-18.5 -0.5q-9 0 -11.5 2t-2.5 7q0 10 10 10h98v681h-98q-10 0 -10 10
q0 4 2 6.5t10 2.5q3 0 25.5 -0.5t51 -1.5t56 -1.5t40.5 -0.5q23 0 46 1.5t52 1.5q42 0 87.5 -6t84 -24t63.5 -52t25 -90q0 -41 -14.5 -72.5t-38.5 -53t-56 -35t-66 -18.5q63 -12 97 -36t49.5 -56.5t18.5 -70.5t3 -78q0 -20 1.5 -39.5t7.5 -36t18 -26.5t32 -10q16 0 28 5
t17 7q6 3 9 3q7 0 7 -7q0 -5 -5 -9q-3 -3 -19.5 -10.5t-54.5 -7.5q-49 0 -77.5 15t-42.5 39t-18 53.5t-5 58.5q-2 47 -5.5 83.5t-20.5 62t-51.5 38.5t-97.5 13h-51v-339h94z" />
    <glyph glyph-name="S" unicode="S" horiz-adv-x="581" 
d="M85 20q0 -16 -11 -16q-9 0 -9 16v205q0 16 8 16q5 0 8 -2t3 -14q0 -48 20.5 -88t52 -69t70 -45.5t73.5 -16.5q38 0 70 10.5t55.5 31.5t36.5 52.5t13 72.5q0 58 -30 89.5t-75 50t-97.5 31.5t-97.5 34.5t-75 59t-30 104.5q0 47 16.5 83t44 60t63.5 36t75 12q74 0 148 -48
q17 -11 21.5 -13t9.5 -2t6 3.5t1 9.5v29q0 16 11 16q12 0 12 -16q0 -46 3 -77.5t6.5 -51t6.5 -29.5t3 -13t-1 -5.5t-6 -2.5q-4 0 -8.5 2.5t-6.5 13.5q-8 39 -28.5 69.5t-49 51.5t-62.5 31.5t-68 10.5q-29 0 -57.5 -8.5t-51 -25t-36 -41t-13.5 -55.5q0 -36 18 -59t48 -37.5
t67.5 -24.5t77.5 -21t77.5 -26t67.5 -40.5t48 -64t18 -95.5q0 -31 -12.5 -70.5t-40 -74t-71.5 -58.5t-107 -24q-39 0 -69.5 12.5t-54 27t-41.5 27t-31 12.5q-9 0 -14 -12t-5 -26v-8z" />
    <glyph glyph-name="T" unicode="T" horiz-adv-x="645" 
d="M468 16q5 0 7.5 -3t2.5 -6q0 -10 -10 -10q-38 1 -72 2t-72 1q-23 0 -47 -0.5t-44 -1t-35.5 -1t-22.5 -0.5q-10 0 -10 10q0 3 2.5 6t7.5 3h98v680h-45q-63 0 -98.5 -14.5t-53.5 -38t-24 -53.5t-9 -60q-1 -11 -3 -13.5t-7 -2.5q-7 0 -8 4t-1 12l11 185q18 -1 33 -1.5t32 -1
t38.5 -0.5h51.5h265h51.5t38.5 0.5t32.5 1t32.5 1.5l12 -185q0 -8 -1 -12t-8 -4t-8.5 4t-1.5 12q-3 30 -9 60t-24.5 53.5t-54 38t-98.5 14.5h-44v-680h95z" />
    <glyph glyph-name="U" unicode="U" horiz-adv-x="764" 
d="M616 622q0 24 -7 38.5t-18.5 22.5t-26.5 10.5t-32 2.5h-17q-10 0 -10 10q0 9 10 9q19 0 31.5 -0.5t23.5 -1t23 -1t32 -0.5t32.5 0.5t23 1t23 1t32.5 0.5q10 0 10 -9q0 -10 -10 -10h-17q-21 0 -37 -3t-26.5 -13t-15.5 -30t-5 -53v-356q0 -59 -8.5 -106t-32 -80
t-65.5 -50.5t-108 -17.5q-90 0 -147.5 15.5t-90 48.5t-44.5 85t-12 125v435h-98q-11 0 -11 10q0 9 11 9q39 -1 73 -2t73 -1t73 1t73 2q11 0 11 -9q0 -10 -11 -10h-95v-450q0 -56 3.5 -100.5t22.5 -75.5t58 -47.5t111 -16.5q59 0 97 14.5t59.5 43.5t30 72t8.5 100v386z" />
    <glyph glyph-name="V" unicode="V" horiz-adv-x="676" 
d="M94 636q-8 21 -13.5 33t-11 18t-10.5 7.5t-11 1.5h-60q-10 0 -10 10q0 9 10 9q22 0 39 -0.5l34 -1t35.5 -1t43.5 -0.5q63 0 103.5 1.5t47.5 1.5q10 0 12.5 -2.5t2.5 -5.5q0 -11 -11 -11h-61q-19 0 -30 -3.5t-11 -17.5q0 -7 5 -24l188 -516l146 436q8 26 13.5 47t5.5 36
q0 22 -11.5 32t-38.5 10h-37q-10 0 -10 10q0 9 10 9q19 0 33 -0.5t26.5 -1t25.5 -1t31 -0.5q45 0 69 1.5t44 1.5q11 0 11 -9q0 -10 -11 -10h-17q-34 0 -63.5 -15t-46.5 -64l-204 -604q-5 -15 -9.5 -24.5t-10.5 -9.5q-4 0 -6.5 3.5t-7.5 14.5z" />
    <glyph glyph-name="W" unicode="W" horiz-adv-x="928" 
d="M470 470l-136 -457q-7 -22 -10.5 -28t-8.5 -6q-8 0 -15 18l-211 639q-14 39 -24 49.5t-22 10.5h-60q-10 0 -10 10q0 9 10 9q22 0 39 -0.5l34 -1t35.5 -1t43.5 -0.5q62 0 90.5 1.5t41.5 1.5q11 0 11 -9q0 -10 -11 -10h-38q-21 0 -30 -3t-9 -16q0 -6 2 -12t4 -14l159 -507
l105 356l-45 136q-7 21 -12.5 33t-11 18t-10.5 7.5t-11 1.5h-36q-11 0 -11 10q0 9 11 9q22 0 35 -0.5t25.5 -1t27.5 -1t40 -0.5q62 0 97 1.5t43 1.5q9 0 11.5 -2.5t2.5 -5.5q0 -11 -11 -11h-49q-22 0 -32 -3t-10 -17q0 -5 2 -11t4 -14l160 -505l120 425q16 52 16 83
q0 22 -11 32t-38 10h-54q-11 0 -11 10q0 9 11 9q19 0 32 -0.5t24 -1t23.5 -1t30.5 -0.5q44 0 65.5 1.5t41.5 1.5q11 0 11 -9q0 -10 -11 -10h-14q-10 0 -21 -1t-22.5 -8.5t-22 -23.5t-19.5 -46l-171 -604q-5 -20 -9 -27t-10 -7q-7 0 -14 18z" />
    <glyph glyph-name="X" unicode="X" horiz-adv-x="684" 
d="M688 16q5 0 7.5 -3t2.5 -6q0 -10 -10 -10q-21 0 -40 0.5l-38 1t-39.5 1t-45.5 0.5q-60 0 -89.5 -1.5t-36.5 -1.5q-9 0 -11.5 3t-2.5 6q0 10 10 10h35q23 0 34.5 3.5t11.5 20.5q0 4 -1.5 7.5t-8.5 14.5l-152 265l-94 -186q-13 -26 -20.5 -46.5t-7.5 -39.5q0 -20 10 -29.5
t33 -9.5h19q5 0 7.5 -3t2.5 -6q0 -10 -10 -10q-20 0 -30 0.5t-18 1t-17.5 1t-27.5 0.5q-45 0 -73 -1.5t-47 -1.5q-11 0 -11 10q0 3 3 6t8 3h17q19 0 35 3t30 11.5t27.5 24t26.5 40.5l127 250l-166 291q-22 38 -37 49t-34 11h-61q-11 0 -11 10q0 9 11 9q21 0 40 -0.5t38.5 -1
t40 -1t45.5 -0.5q61 0 88.5 1.5t35.5 1.5q10 0 12.5 -2.5t2.5 -5.5q0 -11 -11 -11h-33q-22 0 -34 -3t-12 -17q0 -4 2 -9.5t8 -15.5l132 -233l79 154q13 26 20.5 45t7.5 39t-9 30t-32 10h-19q-10 0 -10 10q0 9 10 9q20 0 29.5 -0.5t17 -1t17 -1t27.5 -0.5q45 0 75 1.5t47 1.5
q11 0 11 -9q0 -10 -11 -10h-18q-18 0 -33 -1.5t-29.5 -9t-28 -23.5t-28.5 -45l-113 -217l187 -324q20 -36 35 -48t35 -12h60z" />
    <glyph glyph-name="Y" unicode="Y" horiz-adv-x="575" 
d="M432 16q5 0 8 -3t3 -6q0 -10 -11 -10q-38 1 -71.5 2t-71.5 1q-23 0 -47 -0.5t-44 -1t-35.5 -1t-22.5 -0.5q-11 0 -11 10q0 3 3 6t8 3h98v327l-138 293q-10 21 -18.5 33t-16 18t-14 7.5t-13.5 1.5h-48q-11 0 -11 10q0 9 11 9q22 0 39 -0.5t33.5 -1t35.5 -1t44 -0.5
q30 0 51.5 0.5t36.5 1t24.5 1t16.5 0.5q10 0 10 -9q0 -10 -10 -10h-35q-18 0 -31.5 -2.5t-13.5 -16.5q0 -10 9 -26l132 -281l97 220q7 17 12 33.5t5 33.5q0 24 -11.5 31.5t-37.5 7.5h-20q-10 0 -10 10q0 9 10 9q19 0 30 -0.5t20 -1t19.5 -1t28.5 -0.5q22 0 38.5 0.5t29.5 1
t23.5 1t20.5 0.5q11 0 11 -9q0 -10 -11 -10h-17q-17 0 -31.5 -2t-28 -9.5t-26 -23.5t-24.5 -44l-123 -274v-327h95z" />
    <glyph glyph-name="Z" unicode="Z" horiz-adv-x="589" 
d="M538 19q0 -11 -0.5 -14.5t-2.5 -5.5q-4 -2 -9 -2q-3 0 -14 0.5t-45 1t-98.5 1t-175.5 0.5h-154q-13 0 -13 5q0 3 3.5 8.5t5.5 10.5l378 672h-112q-48 0 -84.5 -8t-62.5 -26.5t-43.5 -50t-28.5 -78.5q-2 -8 -3.5 -12t-9.5 -4t-8 5q0 2 0.5 4.5t1.5 6.5l38 182
q20 -2 71 -2.5t120 -0.5h220q23 0 23 -4q0 -3 -3.5 -9t-5.5 -10l-377 -673h198q60 0 93.5 16t50.5 40t21.5 53.5t6.5 56.5q0 6 1.5 11.5t7.5 5.5q7 0 8.5 -4.5t1.5 -12.5v-163z" />
    <glyph glyph-name="bracketleft" unicode="[" horiz-adv-x="266" 
d="M227 -18q7 0 7 -6t-7 -6q-26 1 -63.5 1h-75.5v535q38 0 74.5 0.5t64.5 0.5q7 0 7 -5q0 -7 -7 -7h-64v-513h64z" />
    <glyph glyph-name="backslash" unicode="\" horiz-adv-x="412" 
d="M350 -109l-327 855h38l326 -855h-37z" />
    <glyph glyph-name="bracketright" unicode="]" horiz-adv-x="267" 
d="M103 495h-63q-7 0 -7 7q0 2 1.5 4t5.5 2q28 -1 64.5 -1.5t74.5 -0.5v-535q-39 0 -76 -0.5t-63 -0.5q-7 0 -7 6t7 6h63v513z" />
    <glyph glyph-name="asciicircum" unicode="^" horiz-adv-x="365" 
d="M316 371l-134 172l-134 -172h-30l149 222h31l149 -222h-31z" />
    <glyph glyph-name="underscore" unicode="_" horiz-adv-x="489" 
d="M37 -20v40h415v-40h-415z" />
    <glyph glyph-name="grave" unicode="`" horiz-adv-x="228" 
d="M145 541l-102 128h80l57 -128h-35z" />
    <glyph glyph-name="a" unicode="a" horiz-adv-x="498" 
d="M203 374l-76 -194h150zM499 10q7 0 7 -5q0 -7 -7 -7q-26 1 -55.5 1.5t-53.5 0.5q-17 0 -34.5 -0.5t-32.5 -0.5t-25.5 -0.5t-13.5 -0.5q-7 0 -8.5 2t-1.5 4q0 6 7 6h16q14 0 24 2.5t10 15.5q0 5 -1 11.5t-5 15.5l-43 112h-161l-32 -82q-4 -9 -8 -19.5t-4 -21.5
q0 -34 59 -34h5q7 0 7 -5q0 -7 -7 -7q-13 0 -19.5 0.5t-11 1t-10 0.5h-17.5q-33 0 -52 -1t-33 -1q-7 0 -7 7q0 3 2 3.5t5 1.5q8 2 16.5 2t18 4.5t19 17.5t20.5 40l150 378q11 26 17.5 32.5t14.5 6.5q5 0 10 -5t15 -32l150 -395q7 -18 12 -28t10.5 -14.5t12.5 -5.5t18 -1h17z
" />
    <glyph glyph-name="b" unicode="b" horiz-adv-x="516" 
d="M201 260q39 0 68 3.5t47.5 15t27.5 32t9 53.5t-9 53.5t-27.5 31t-47 14t-68.5 3.5v-206zM210 12q27 0 55.5 4t51.5 17t37.5 37.5t14.5 65.5q0 40 -13.5 62t-37 33t-54 13.5t-63.5 2.5v-235h9zM103 466h-62q-7 0 -7 7t7 7q31 -1 57.5 -1.5t55.5 -0.5h31.5t32 0.5t28 0.5
h20.5q53 0 88.5 -9t56.5 -24t30 -35t9 -43q0 -51 -38.5 -80t-124.5 -33q49 -1 83 -12t55.5 -29t31 -40.5t9.5 -45.5q0 -22 -9.5 -45t-34 -42t-66 -31t-104.5 -12q-21 0 -40 1t-56 1q-38 0 -71.5 -1t-40.5 -1t-8.5 2t-1.5 4q0 6 7 6h62v456z" />
    <glyph glyph-name="c" unicode="c" horiz-adv-x="524" 
d="M481 107q-30 -57 -74.5 -86.5t-113.5 -29.5q-55 0 -101 19.5t-79 53.5t-51 79.5t-18 97.5q0 49 16.5 94.5t47 80t74 55.5t98.5 21q29 0 54.5 -7.5t56.5 -27.5q8 -5 13.5 -8t10.5 -3q3 0 6 2.5t3 8.5q0 4 -1 9t-1 10q0 7 7 7t9 -11q3 -13 5.5 -22t6.5 -20.5t10 -27
t17 -40.5q2 -4 2 -5q0 -6 -6 -6q-4 0 -5.5 2t-4.5 7q-43 66 -89 92.5t-92 26.5q-34 0 -59.5 -20.5t-43 -53.5t-26 -74.5t-8.5 -83.5q0 -51 6.5 -95.5t24 -77t48 -51.5t77.5 -19q56 0 99.5 29t69.5 79q2 5 5 5q2 0 5 -1t3 -4q0 -1 -2 -5z" />
    <glyph glyph-name="d" unicode="d" horiz-adv-x="598" 
d="M201 12q46 0 80.5 2.5t63.5 16.5q57 26 82 80t25 129q0 64 -17.5 107.5t-50 70t-79 37.5t-104.5 11v-454zM103 466h-62q-7 0 -7 7t7 7q9 0 23.5 -0.5t30.5 -1t30.5 -0.5h24.5q28 0 54.5 1t48.5 1q88 0 146 -21.5t92.5 -56t48 -77t13.5 -83.5q0 -42 -14.5 -85.5t-49 -78.5
t-93 -57t-146.5 -22h-20t-25.5 0.5t-27.5 0.5h-25q-16 0 -34 -0.5t-33.5 -0.5t-26.5 -0.5t-14 -0.5q-7 0 -8.5 2t-1.5 4q0 6 7 6h62v456z" />
    <glyph glyph-name="e" unicode="e" horiz-adv-x="511" 
d="M265 10q59 0 92 8t50.5 24t24 41t11.5 59q1 12 7 12q5 0 5.5 -3.5t0.5 -8.5q-1 -21 -1.5 -44.5t-0.5 -37.5v-30.5t2 -31.5q-11 0 -29 0.5t-51 1t-87 0.5h-137q-26 0 -54.5 -1t-56.5 -1q-7 0 -7 6t7 6h62v456h-62q-7 0 -7 7t7 7q26 -1 56.5 -1.5t54.5 -0.5h132.5h87.5
t51.5 0.5t23.5 1.5q0 -48 2.5 -87t2.5 -57q0 -8 -0.5 -9.5t-3.5 -1.5q-8 0 -8 10q-5 30 -11.5 54t-22.5 41t-45 26.5t-80 9.5h-80v-219h25q34 0 53.5 5.5t29.5 17.5t13 30t5 43q0 10 8 10q5 0 5.5 -2.5t0.5 -9.5q-1 -33 -2 -52t-1 -43q0 -18 0.5 -27t0.5 -18t0.5 -22.5
t0.5 -40.5q0 -8 -1 -10t-3 -2q-8 0 -8 12q-2 32 -8 51t-18 29.5t-30.5 13.5t-45.5 3h-25v-225h64z" />
    <glyph glyph-name="f" unicode="f" horiz-adv-x="480" 
d="M264 10q7 0 7 -6t-7 -6q-26 1 -59 1.5t-54 0.5q-29 0 -56 -1t-55 -1q-6 0 -6 6t6 6h63v456h-63q-6 0 -6 7t6 7q26 -1 57 -1.5t54 -0.5h132.5h88t52 0.5t23.5 1.5q0 -48 2.5 -88.5t2.5 -63.5q0 -3 -4 -3q-8 0 -9 10q-5 30 -11.5 54t-22 41t-44.5 26.5t-80 9.5h-80v-219h20
q35 0 54.5 6.5t29.5 18.5t12.5 30t4.5 41q0 10 8 10q5 0 5.5 -2.5t0.5 -9.5q-1 -18 -1.5 -30.5t-1 -23t-0.5 -21v-24.5t0.5 -22.5t0.5 -18.5t0.5 -24t0.5 -39q0 -8 -1 -10t-3 -2q-8 0 -8 12q-2 35 -10 54.5t-21 29t-31 11.5t-40 2h-20v-225h63z" />
    <glyph glyph-name="g" unicode="g" horiz-adv-x="559" 
d="M385 210h-58q-6 0 -6 6q0 2 0.5 4t5.5 2q25 0 51 -1t50 -1q15 0 32 0.5t32 0.5t26.5 0.5t17.5 0.5q7 0 7 -6t-7 -6h-53v-145q0 -9 -8 -9q-5 0 -12 -2t-23 -11q-12 -7 -25.5 -16t-31 -17.5t-38.5 -14t-48 -5.5q-42 0 -87 16.5t-82 48t-60.5 77.5t-23.5 106q0 46 15 91
t45 81t74 58t102 22q29 0 54 -7.5t56 -27.5q8 -5 13 -8t10 -3q9 0 9 11q0 4 -1 9t-1 9q0 8 8 8q5 0 6 -2.5t3 -9.5q3 -18 10 -37.5t14 -36t12 -28t5 -12.5q0 -5 -6 -5q-5 0 -10 8q-40 65 -87 92t-94 27q-35 0 -60.5 -20.5t-42.5 -54t-25 -75.5t-8 -85q0 -53 10 -96.5
t29.5 -75t48 -49t64.5 -17.5q19 0 34 6t26.5 14t18.5 16.5t9 14.5v155z" />
    <glyph glyph-name="h" unicode="h" horiz-adv-x="604" 
d="M564 10q7 0 7 -6t-7 -6q-25 1 -56.5 1.5t-54.5 0.5q-17 0 -34.5 -0.5t-33.5 -0.5t-27 -0.5t-14 -0.5q-8 0 -9.5 1.5t-1.5 3.5q0 7 7 7h62v222h-201v-222h64q6 0 6 -6t-6 -6q-25 1 -57.5 1.5t-55.5 0.5q-17 0 -34.5 -0.5t-32.5 -0.5t-26.5 -0.5t-14.5 -0.5q-7 0 -8.5 1.5
t-1.5 3.5q0 7 7 7h62v456h-62q-7 0 -7 7t7 7q25 -1 56 -1.5t55 -0.5q16 0 34 0.5t33.5 0.5t27 0.5t14.5 0.5q8 0 9 -2t1 -4q0 -8 -6 -8h-64v-222h201v222h-62q-7 0 -7 7t7 7q24 -1 56.5 -1.5t56.5 -0.5q16 0 34 0.5t33 0.5t26 0.5t13 0.5q8 0 10 -2t2 -4q0 -8 -7 -8h-64
v-456h64z" />
    <glyph glyph-name="i" unicode="i" horiz-adv-x="305" 
d="M264 10q7 0 7 -6t-7 -6q-24 1 -56.5 1.5t-56.5 0.5q-16 0 -33.5 -0.5t-32.5 -0.5t-26.5 -0.5t-14.5 -0.5q-7 0 -8.5 1.5t-1.5 3.5q0 7 6 7h63v456h-63q-6 0 -6 7t6 7q25 -1 56.5 -1.5t54.5 -0.5q16 0 34 0.5t34 0.5t27.5 0.5t14.5 0.5q8 0 9 -2t1 -4q0 -8 -7 -8h-63v-456
h63z" />
    <glyph glyph-name="j" unicode="j" horiz-adv-x="300" 
d="M101 466h-67q-6 0 -6 7t6 7q26 -1 58.5 -1.5t55.5 -0.5q17 0 36 0.5t36 0.5t29 0.5t15 0.5q8 0 9.5 -2t1.5 -4q0 -8 -7 -8h-69v-466q0 -57 -16 -89t-38 -47.5t-44.5 -19.5t-34.5 -4q-52 0 -78.5 23t-26.5 53q0 25 16.5 37.5t39.5 12.5q28 0 40 -15.5t12 -34.5t-13 -30.5
t-34 -11.5q-13 0 -13 -2q0 -6 11.5 -12t30.5 -6q17 0 27 8t15 24.5t6.5 43t1.5 64.5v472z" />
    <glyph glyph-name="k" unicode="k" horiz-adv-x="538" 
d="M201 213v-203h59q8 0 8 -5q0 -7 -8 -7q-12 0 -28 0.5t-31.5 1t-30.5 0.5h-25q-14 0 -30.5 -0.5t-31 -0.5t-25.5 -0.5t-14 -0.5q-7 0 -8.5 1.5t-1.5 3.5q0 7 7 7h62v456h-62q-7 0 -7 7t7 7q12 0 28 -0.5t32.5 -1t31.5 -0.5h25q14 0 30 0.5t30.5 0.5t24.5 0.5t13 0.5
q8 0 10 -2t2 -4q0 -8 -8 -8h-59v-231l128 150q19 21 27 35.5t8 24.5q0 14 -13 17.5t-32 3.5h-8q-6 0 -6 7t6 7q14 0 39 -1t63 -1q37 0 57 1t31 1q7 0 7 -7t-7 -7h-12q-24 0 -41 -2.5t-30 -8.5t-24 -16t-24 -25l-107 -125l187 -238q10 -13 21.5 -24t27.5 -15q8 -2 18.5 -2
t10.5 -5q0 -7 -8 -7q-30 0 -59 1t-58 1q-41 0 -65.5 -1t-29.5 -1q-6 0 -7.5 2t-1.5 4q0 6 7 6h13q31 0 31 13q0 7 -9 19z" />
    <glyph glyph-name="l" unicode="l" horiz-adv-x="469" 
d="M247 10q60 0 93.5 7t51 23t24 41t11.5 61q1 12 8 12q5 0 5.5 -3t0.5 -8q0 -16 -1.5 -39.5t-1.5 -46.5q0 -13 0.5 -29t1.5 -30q-10 0 -26.5 0.5t-48 1t-82.5 0.5h-131q-16 0 -33.5 -0.5t-33 -0.5t-27 -0.5t-14.5 -0.5q-7 0 -8.5 2t-1.5 4q0 6 7 6h62v456h-62q-7 0 -7 7
t7 7q25 -1 56 -1.5t55 -0.5q16 0 34 0.5t33.5 0.5t27 0.5t14.5 0.5q8 0 9 -2t1 -4q0 -8 -6 -8h-64v-456h46z" />
    <glyph glyph-name="m" unicode="m" horiz-adv-x="650" 
d="M610 10q2 0 4 -1t2 -5q0 -6 -6 -6q-24 1 -57.5 1.5t-56.5 0.5q-16 0 -32.5 -0.5t-30.5 -0.5t-23.5 -0.5t-12.5 -0.5q-8 0 -10 2t-2 4q0 6 8 6h55v411l-150 -402q-4 -10 -6.5 -16.5t-7.5 -6.5q-2 0 -4 2.5t-5 10.5l-158 406v-327q0 -19 1 -33.5t6 -24.5t16.5 -15t32.5 -5
h5q8 0 8 -5q0 -7 -8 -7q-13 0 -20 0.5t-12.5 1t-11.5 0.5h-18q-32 0 -47.5 -1t-29.5 -1q-8 0 -8 7q0 5 8 5h6q22 0 34 5t18 17t7 30.5t1 45.5v335q-8 16 -18.5 19.5t-33.5 3.5h-15q-7 0 -7 7q0 2 1 4.5t6 2.5q12 0 28.5 -1t32.5 -1q8 0 23 0.5t30.5 0.5t28.5 0.5t19 0.5
l130 -340l128 340q17 -2 30.5 -2h28.5q30 0 56.5 1t36.5 1q7 0 7 -7t-7 -7h-64v-456h64z" />
    <glyph glyph-name="n" unicode="n" horiz-adv-x="546" 
d="M118 439v-351q0 -19 1 -33.5t6 -24.5t16.5 -15t32.5 -5h5q2 0 4 -1t2 -5q0 -6 -6 -6q-13 0 -20 0.5t-12.5 1t-12 0.5h-17.5q-32 0 -47 -1t-28 -1q-8 0 -8 7q0 5 8 5h5q22 0 33.5 5t17 17t6.5 30.5t1 45.5v347q-4 7 -15.5 9t-43.5 2h-5q-7 0 -7 7q0 2 1 4.5t6 2.5
q18 -1 45.5 -1.5t49.5 -0.5h43.5t31.5 2l220 -323v212q0 27 -1 46t-6.5 30t-17.5 16t-34 5h-4q-7 0 -7 7t7 7q13 0 20.5 -0.5t13.5 -1t13 -0.5h18q32 0 44.5 1t26.5 1q7 0 7 -7t-7 -7h-4q-21 0 -32 -5t-16 -14.5t-6 -24t-1 -33.5v-392q0 -11 -8 -11q-2 0 -6 2t-9 10z" />
    <glyph glyph-name="o" unicode="o" horiz-adv-x="592" 
d="M296 4q46 0 76 19.5t46.5 52.5t23 75.5t6.5 89.5t-6.5 90t-23 76t-46.5 52.5t-76 19.5q-47 0 -76.5 -19.5t-46.5 -52.5t-23 -76t-6 -90t6 -89.5t23 -75.5t46.5 -52.5t76.5 -19.5zM549 241q0 -50 -20.5 -95t-55 -79.5t-80.5 -55t-97 -20.5t-97 20.5t-80.5 55t-55 79.5
t-20.5 95q0 49 20.5 94.5t55 80t80.5 55t97 20.5t97 -20.5t80.5 -55t55 -80t20.5 -94.5z" />
    <glyph glyph-name="p" unicode="p" horiz-adv-x="477" 
d="M201 210q36 0 63 5.5t45 19.5t27 39t9 64t-9 64t-27 39t-45 19t-63 5v-255zM265 10q7 0 7 -6t-7 -6q-24 1 -57 1.5t-56 0.5q-17 0 -34.5 -0.5t-32.5 -0.5t-26 -0.5t-14 -0.5q-8 0 -9.5 1.5t-1.5 3.5q0 7 7 7h62v456h-62q-7 0 -7 7t7 7q18 -1 42 -1.5t69 -0.5
q44 0 65.5 0.5t35.5 0.5q42 0 78.5 -7t62.5 -23t41 -42.5t15 -65.5q0 -48 -21.5 -76.5t-56.5 -43.5t-80 -19.5t-91 -4.5v-187h64z" />
    <glyph glyph-name="q" unicode="q" horiz-adv-x="592" 
d="M296 4q46 0 76 19.5t46.5 52.5t23 75.5t6.5 89.5t-6.5 90t-23 76t-46.5 52.5t-76 19.5q-47 0 -76.5 -19.5t-46.5 -52.5t-23 -76t-6 -90t6 -89.5t23 -75.5t46.5 -52.5t76.5 -19.5zM296 -9q-51 0 -97 20.5t-80.5 55t-55 79.5t-20.5 95q0 49 20.5 94.5t55 80t80.5 55
t97 20.5t97 -20.5t80.5 -55t55 -80t20.5 -94.5q0 -39 -13 -75.5t-35.5 -67.5t-54 -54.5t-67.5 -36.5q9 -34 22 -57t30.5 -37.5t39 -21.5t48.5 -8q17 -1 21 -2t4 -5q0 -6 -7 -8t-27 -2q-72 0 -113.5 16t-63.5 37t-28.5 42t-8.5 30z" />
    <glyph glyph-name="r" unicode="r" 
d="M200 249q36 0 65.5 2t50.5 12.5t33 32t12 60.5t-12 61t-33.5 32.5t-51 13t-64.5 2.5v-216zM264 10q7 0 7 -6t-7 -6q-24 1 -57 1.5t-56 0.5q-17 0 -34.5 -0.5t-32.5 -0.5t-26.5 -0.5t-14.5 -0.5q-7 0 -8.5 1.5t-1.5 3.5q0 7 7 7h62v456h-62q-7 0 -7 7q0 6 7 6
q17 -1 44.5 -1h65.5q24 0 51 0.5t50 0.5q39 0 76.5 -3.5t67 -16t47 -36t17.5 -62.5q0 -54 -36 -83t-109 -38q45 -2 72.5 -13.5t43 -30t20.5 -43t5 -52.5q0 -13 0.5 -29.5t4.5 -30.5t11.5 -24t22.5 -10q12 0 21.5 3.5t15.5 3.5q5 0 5 -4q0 -6 -16.5 -12.5t-49.5 -6.5
q-52 0 -74 18t-28.5 45.5t-5.5 59t-5 59t-27 45.5t-71 18h-59v-226h64z" />
    <glyph glyph-name="s" unicode="s" horiz-adv-x="447" 
d="M402 142q0 -37 -13 -65t-35 -47t-51 -29t-60 -10q-27 0 -49 6.5t-39 14.5t-31.5 14.5t-26.5 6.5q-10 0 -17 -5q-6 -6 -6 -19q0 -14 -8 -14q-7 0 -7 14q0 11 1.5 55t1.5 107q0 5 1 7.5t7 2.5q4 0 6 -2t3 -11q5 -48 24 -79t43.5 -50t49 -26.5t40.5 -7.5q58 0 83 27t25 63
q0 37 -21 58t-52.5 34t-68 23t-68 26t-52.5 42.5t-21 72.5q0 35 12.5 61t33 43.5t47.5 26.5t56 9q27 0 46.5 -6.5t34.5 -15t26 -15t20 -6.5q10 0 10 8.5t1 21.5q0 12 7 12q8 0 8 -10q1 -44 2.5 -71t3 -42t2.5 -21t1 -7q0 -5 -0.5 -8t-5.5 -3q-7 0 -10 14q-5 19 -14.5 43
t-26.5 44.5t-42.5 34.5t-61.5 14q-41 0 -66 -19t-25 -56q0 -35 21 -54.5t52 -32.5t68 -24t68 -28.5t52 -46t21 -75.5z" />
    <glyph glyph-name="t" unicode="t" horiz-adv-x="470" 
d="M346 10q7 0 7 -6t-7 -6q-24 1 -57.5 1.5t-56.5 0.5q-17 0 -34.5 -0.5t-32.5 -0.5t-25.5 -0.5t-13.5 -0.5q-8 0 -9.5 1.5t-1.5 3.5q0 7 7 7h63v456h-9q-37 0 -60.5 -8.5t-37.5 -25t-21.5 -41t-11.5 -55.5q-1 -4 -2 -7.5t-6 -3.5t-5 11q0 20 0.5 36t1 31.5t1 34t0.5 42.5
q6 -2 34 -2h70h193h70.5t32.5 2q0 -24 0.5 -42.5t1.5 -34t1.5 -31.5t0.5 -36q0 -5 -0.5 -8t-5.5 -3t-7 11q-5 29 -11.5 53t-20 41t-37 26.5t-62.5 9.5h-13v-456h64z" />
    <glyph glyph-name="u" unicode="u" 
d="M434 408q0 32 -14 45t-56 13h-4q-8 0 -8 7t8 7q12 0 21 -0.5t17 -1t16.5 -0.5h20.5q34 0 54 1t31 1q8 0 8 -7t-8 -7h-3q-22 0 -35.5 -3.5t-21.5 -11.5t-11 -23t-3 -37v-233q0 -47 -7 -78.5t-24.5 -51.5t-48.5 -28.5t-79 -8.5q-103 0 -150 39t-47 131v305h-59q-6 0 -6 7
t6 7q25 -1 54 -1.5t53 -0.5q16 0 34.5 0.5t34.5 0.5t27 0.5t14 0.5q7 0 8.5 -2t1.5 -4q0 -8 -7 -8h-63v-315q0 -44 5.5 -72.5t19 -45t35 -22.5t53.5 -6q40 0 66 8.5t41 26.5t20.5 46.5t5.5 67.5v254z" />
    <glyph glyph-name="v" unicode="v" horiz-adv-x="473" 
d="M66 419q-7 17 -12 26.5t-10.5 14t-13 5.5t-19.5 1h-16q-6 0 -6 7t6 7q26 -1 55 -1.5t54 -0.5q17 0 34.5 0.5t32.5 0.5t25.5 0.5t13.5 0.5q7 0 8 -2.5t1 -4.5q0 -7 -6 -7h-15q-16 0 -25 -2.5t-9 -15.5q0 -3 2 -12.5t7 -21.5l110 -304l95 277q16 42 16 57q0 16 -19 19
t-42 3h-5q-8 0 -8 7t8 7q13 0 19.5 -0.5t11 -1t10 -0.5h17.5q32 0 51.5 1t32.5 1q8 0 8 -8q0 -6 -9 -6q-18 -1 -29 -3.5t-18.5 -9.5t-13 -18.5t-11.5 -30.5l-136 -397q-4 -13 -8.5 -17t-12.5 -4q-11 0 -15.5 6.5t-8.5 17.5z" />
    <glyph glyph-name="w" unicode="w" horiz-adv-x="687" 
d="M345 329l-96 -320q-5 -14 -8.5 -18.5t-12.5 -4.5q-10 0 -15 4.5t-10 19.5l-135 409q-5 16 -10 25.5t-10.5 14t-13 6t-18.5 1.5h-18q-7 0 -7 7t7 7q24 -1 54.5 -1.5t53.5 -0.5q33 0 60 1t32 1q6 0 7.5 -2.5t1.5 -4.5q0 -7 -7 -7q-17 0 -26 -2.5t-9 -14.5q0 -10 6 -28
l99 -301l68 227l-24 72q-5 16 -9.5 25.5t-10.5 14t-14.5 6t-21.5 1.5q-6 0 -6 7t6 7q27 -1 49 -1.5t46 -0.5q17 0 36 0.5t35.5 0.5t28 0.5t13.5 0.5q11 0 11 -7t-8 -7h-23q-17 0 -25.5 -2.5t-8.5 -14.5q0 -10 6 -28l98 -299l75 264q5 16 9.5 32t4.5 27q0 15 -14 18t-47 3
h-13q-8 0 -8 7t8 7q12 0 20 -0.5t14.5 -1t13.5 -0.5h19q34 0 53 1t32 1q8 0 8 -7t-8 -7q-18 0 -29.5 -1.5t-19.5 -7.5t-14 -18.5t-12 -34.5l-112 -395q-4 -14 -8.5 -18.5t-14.5 -4.5q-8 0 -13 4.5t-10 19.5z" />
    <glyph glyph-name="x" unicode="x" horiz-adv-x="508" 
d="M499 10q8 0 8 -5q0 -7 -8 -7q-29 1 -61 1.5t-62 0.5q-43 0 -67.5 -1t-29.5 -1q-7 0 -8.5 2t-1.5 4q0 6 7 6h13q14 0 22.5 2.5t8.5 13.5q0 2 -1 5t-6 11l-94 164l-59 -117q-20 -38 -20 -54q0 -15 13 -20t38 -5h6q7 0 7 -5q0 -7 -7 -7q-12 0 -20.5 0.5t-16 1t-15.5 0.5h-20
q-34 0 -53 -1t-32 -1q-7 0 -7 7q0 5 7 5h4q15 0 27 1t22.5 6t20 16t19.5 31l78 154l-117 209q-14 25 -24.5 32t-23.5 7h-31q-7 0 -7 7t7 7q29 0 59 -1t68 -1t63.5 1t30.5 1q7 0 8.5 -2t1.5 -4q0 -8 -7 -8h-12q-14 0 -22.5 -2t-8.5 -10q0 -5 7 -18l83 -146l50 98q19 37 19 55
q0 14 -12.5 18.5t-37.5 4.5h-7q-7 0 -7 7t7 7q12 0 20.5 -0.5t16 -1t15.5 -0.5h20q34 0 53 1t32 1q7 0 7 -7t-7 -7h-4q-15 0 -27 -1t-22.5 -6t-20 -15.5t-19.5 -29.5l-69 -138l129 -225q14 -24 24.5 -32.5t23.5 -8.5h29z" />
    <glyph glyph-name="y" unicode="y" horiz-adv-x="438" 
d="M337 10q8 0 8 -5q0 -7 -8 -7q-24 1 -57 1.5t-56 0.5q-17 0 -34.5 -0.5t-32.5 -0.5t-25.5 -0.5t-13.5 -0.5q-8 0 -9.5 1.5t-1.5 3.5q0 7 7 7h62v197l-106 212q-8 16 -14 25.5t-11.5 14t-12.5 6t-18 1.5h-9q-7 0 -7 7t7 7q27 0 51 -1t54 -1q15 0 32.5 0.5t33.5 0.5t27 0.5
t13 0.5q7 0 8.5 -2t1.5 -4q0 -8 -8 -8h-13q-19 0 -27.5 -3.5t-8.5 -14.5q0 -9 8 -27l90 -174l70 144q13 25 13 42q0 33 -60 33h-7q-8 0 -8 7t8 7q13 0 20 -0.5t12.5 -1t12 -0.5h18.5q33 0 57 1t36 1q6 0 6 -7t-6 -7h-4q-17 0 -28 -3t-19.5 -10.5t-15.5 -19t-16 -29.5
l-82 -167v-227h63z" />
    <glyph glyph-name="z" unicode="z" horiz-adv-x="445" 
d="M399 12q0 -10 -4.5 -11.5t-6.5 -1.5h-20.5t-52 0.5t-73.5 0.5h-86h-15.5t-23.5 -0.5t-26.5 -0.5h-23.5q-20 0 -25 1t-5 3t2 6t4 7l236 450h-54q-45 0 -73 -8t-45.5 -24t-26.5 -39.5t-16 -53.5q-2 -6 -2.5 -8.5t-5.5 -2.5q-6 0 -6 3q0 5 0.5 5t0.5 2l29 140q8 -2 33 -2h80
h184q15 0 15 -4q0 -2 -2 -6t-4 -6l-234 -452h105q46 0 71.5 10.5t37.5 28t15 40t3 47.5q0 11 8 11q7 0 7 -11v-124z" />
    <glyph glyph-name="braceleft" unicode="{" horiz-adv-x="255" 
d="M46 238q-8 0 -10 1.5t-2 6.5t2 6t10 1h4q26 0 40 12.5t14 52.5q0 19 -6.5 36t-14 32.5t-13.5 30.5t-6 32q0 29 17 51t50 22q34 0 50.5 -18t16.5 -38q0 -14 -8.5 -24t-27.5 -10q-18 0 -26.5 11t-8.5 23q0 28 38 28q3 0 3 2q0 5 -11.5 9.5t-24.5 4.5q-22 0 -36 -14t-14 -37
q0 -25 18 -39.5t40 -28t40 -30t18 -44.5q0 -20 -11.5 -33t-29.5 -20.5t-39.5 -11.5t-41.5 -6q20 -3 41.5 -7t39.5 -11.5t29.5 -20.5t11.5 -34q0 -28 -18 -44.5t-40 -30t-40 -28t-18 -39.5q0 -23 14 -37t36 -14q13 0 24.5 5t11.5 9q0 2 -3 2q-14 0 -26 5t-12 23q0 12 8.5 23
t26.5 11q19 0 27.5 -10t8.5 -24q0 -20 -16.5 -38t-50.5 -18q-33 0 -50 22t-17 51q0 16 6 31.5t13.5 31t14 32t6.5 36.5q0 40 -14 53t-40 13h-4z" />
    <glyph glyph-name="bar" unicode="|" horiz-adv-x="218" 
d="M92 -238v969h34v-969h-34z" />
    <glyph glyph-name="braceright" unicode="}" horiz-adv-x="255" 
d="M205 238q-26 0 -40 -13t-14 -53q0 -20 6 -36.5t13.5 -32t14 -31t6.5 -31.5q0 -29 -17 -51t-51 -22q-33 0 -49.5 18t-16.5 38q0 14 8.5 24t27.5 10q18 0 26.5 -11t8.5 -23q0 -18 -12 -23t-26 -5q-3 0 -3 -2q0 -4 11.5 -9t23.5 -5q23 0 37 14t14 37q0 25 -18 39.5t-40 28
t-40 30t-18 44.5q0 21 11.5 34t29 20.5t39 11.5t41.5 7q-20 2 -41.5 6t-39 11.5t-29 20.5t-11.5 33q0 28 18 44.5t40 30t40 28t18 39.5q0 23 -14 37t-37 14q-12 0 -23.5 -4.5t-11.5 -9.5q0 -2 3 -2q38 0 38 -28q0 -12 -8.5 -23t-26.5 -11q-19 0 -27.5 10t-8.5 24
q0 20 16.5 38t49.5 18q34 0 51 -22t17 -51q0 -17 -6.5 -32t-14 -30.5t-13.5 -32.5t-6 -36q0 -40 14 -52.5t40 -12.5h4q12 0 12 -7q0 -8 -12 -8h-4z" />
    <glyph glyph-name="asciitilde" unicode="~" horiz-adv-x="498" 
d="M430 370q-14 -39 -32.5 -52t-38.5 -13t-44.5 6t-51.5 13.5t-54.5 13.5t-53.5 6q-11 0 -22 -5t-20.5 -11.5t-16.5 -13t-10 -9.5q-2 -2 -5 -4.5t-5 -2.5t-4 2t-2 4q0 5 8 11q24 23 38 37.5t24.5 22t20 10t23.5 2.5q24 0 51 -5.5t52 -12.5t47.5 -12.5t37.5 -5.5q14 0 26 6
t23 22q4 6 7 6q4 0 4 -5q0 -2 -0.5 -4z" />
    <glyph glyph-name="uni00A0" unicode="&#xa0;" horiz-adv-x="260" 
 />
    <glyph glyph-name="exclamdown" unicode="&#xa1;" horiz-adv-x="234" 
d="M160 294q0 -19 -12.5 -31.5t-31.5 -12.5q-17 0 -29.5 12.5t-12.5 31.5q0 17 12.5 29.5t29.5 12.5q19 0 31.5 -12.5t12.5 -29.5zM117 -160q-18 0 -35 14.5t-17 49.5q0 23 7 53t16 68.5t16 86.5t7 106q0 5 0.5 10t5.5 5t5.5 -4.5t0.5 -10.5q0 -58 7 -106t16 -86.5t16 -68.5
t7 -53q0 -35 -16.5 -49.5t-35.5 -14.5z" />
    <glyph glyph-name="cent" unicode="&#xa2;" horiz-adv-x="358" 
d="M186 375q-37 -5 -46 -29.5t-9 -62.5v-64q0 -60 11 -84t44 -30v270zM186 0v91q-28 2 -55 13t-48.5 29.5t-35 44.5t-13.5 59q0 29 11.5 55t31.5 46.5t48 34t61 16.5v89h12v-89q57 0 83.5 -22.5t26.5 -54.5q0 -26 -14.5 -38t-32.5 -12q-19 0 -32.5 10.5t-13.5 30.5
q0 17 10.5 30t33.5 13q4 0 4.5 -0.5t1.5 -0.5t1 3q0 8 -5.5 13.5t-14 9t-18 5t-18.5 1.5q-8 0 -12 -1v-272q43 0 68 13.5t42 47.5q1 2 3 5.5t4 3.5q5 0 5 -6q0 -2 -1 -5t-2 -5q-17 -29 -44 -48.5t-75 -19.5v-90h-12z" />
    <glyph glyph-name="sterling" unicode="&#xa3;" horiz-adv-x="378" 
d="M334 10q7 0 7 -5q0 -7 -7 -7q-11 0 -39 0.5t-59.5 1t-60 0.5h-40.5q-15 0 -31.5 -0.5t-30 -0.5t-23.5 -0.5t-12 -0.5q-6 0 -7.5 2t-1.5 4q0 6 6 6h38q16 0 18.5 6t2.5 22v320q0 54 18.5 83.5t42 43t45.5 15.5t29 2q57 0 81.5 -20t24.5 -44q0 -20 -14.5 -36t-37.5 -16
q-17 0 -29.5 10t-12.5 30q0 8 4 14t9 11q9 11 25 11q24 0 36 -32q0 1 1.5 6.5t1.5 9.5q-1 15 -17.5 27t-48.5 12q-35 0 -49.5 -18.5t-14.5 -60.5v-147q14 0 31.5 0.5t32.5 0.5t25.5 0.5t12.5 0.5q5 0 6.5 -2t1.5 -4q0 -7 -7 -7q-5 0 -19.5 0.5t-31 0.5t-31.5 0.5t-21 0.5
v-123q0 -61 -18 -88t-50 -29h214z" />
    <glyph glyph-name="currency" unicode="&#xa4;" horiz-adv-x="584" 
d="M294 130q39 0 72.5 15.5t57.5 41.5t38 60t14 71q0 36 -14 71t-38 62.5t-57.5 44t-72.5 16.5t-72 -16.5t-57 -44t-38 -62.5t-14 -71q0 -37 14 -71t38 -60t57 -41.5t72 -15.5zM417 139q-26 -20 -57 -30.5t-66 -10.5q-36 0 -68 11.5t-58 31.5l-81 -80l-28 28l80 79
q-27 31 -42 69t-15 80q0 37 12 72t33 65l-68 70l28 29l67 -68q28 27 63 43t77 16q40 0 74.5 -15t61.5 -40l64 64l28 -29l-65 -65q23 -30 36 -67t13 -75q0 -43 -16 -82.5t-44 -69.5l76 -76l-28 -28z" />
    <glyph glyph-name="yen" unicode="&#xa5;" horiz-adv-x="505" 
d="M305 115v-105h63q7 0 7 -5q0 -7 -7 -7q-25 1 -55 1.5t-56 0.5q-17 0 -35 -0.5t-34 -0.5t-27 -0.5t-13 -0.5q-7 0 -8.5 1.5t-1.5 3.5q0 7 7 7h62v105h-146v12h146v52h-146v12h146v16l-106 212q-8 16 -14 25.5t-11.5 14t-12.5 6t-18 1.5h-10q-6 0 -6 7t6 7q26 0 51 -1
t53 -1q16 0 34.5 0.5t34 0.5t26.5 0.5t13 0.5q7 0 8.5 -2t1.5 -4q0 -8 -8 -8h-13q-19 0 -27.5 -3.5t-8.5 -14.5q0 -5 1.5 -12t6.5 -15l89 -174l71 144q13 28 13 42q0 33 -60 33h-7q-8 0 -8 7t8 7q13 0 20 -0.5t12.5 -1t12.5 -0.5h19q31 0 56.5 1t34.5 1q7 0 7 -7t-7 -7h-3
q-17 0 -28 -3t-19.5 -10.5t-15.5 -19t-16 -29.5l-82 -167v-46h139v-12h-139v-52h139v-12h-139z" />
    <glyph glyph-name="brokenbar" unicode="&#xa6;" horiz-adv-x="232" 
d="M99 341v371h34v-371h-34zM99 -238v361h34v-361h-34z" />
    <glyph glyph-name="section" unicode="&#xa7;" horiz-adv-x="439" 
d="M216 385q-7 1 -13.5 1h-12.5q-34 0 -58.5 -20.5t-24.5 -52.5q0 -23 17 -35t43 -19.5t57.5 -14t61.5 -17.5q20 11 33.5 29t13.5 44q0 21 -9.5 34.5t-26 22.5t-37.5 15.5t-44 12.5zM66 101q0 9 11 9q5 0 6.5 -1.5t1.5 -7.5q0 -29 12.5 -51.5t32.5 -39t44.5 -25t49.5 -8.5
q19 0 38.5 5.5t35.5 16.5t25.5 27.5t9.5 38.5q0 30 -20 46t-50 25.5t-65 17.5t-65 22.5t-50 40.5t-20 71q0 23 8 42t21.5 33t31 23.5t36.5 14.5q-20 7 -37.5 16.5t-31 24t-21 34.5t-7.5 47q0 28 11.5 50t30 37t41.5 22.5t46 7.5q21 0 36.5 -3.5t27.5 -8.5t22 -12.5t20 -14.5
q12 -8 14 -8q4 0 4 14v17q0 10 10 10q9 0 9 -10v-28.5t1 -21.5t3 -20t6 -23q2 -4 2 -8q0 -6 -12 -6q-4 0 -5 2.5t-3 6.5q-29 55 -61.5 75t-75.5 20q-34 0 -58.5 -20t-24.5 -53q0 -25 20.5 -37.5t51 -20.5t66.5 -15.5t66.5 -22.5t51 -41.5t20.5 -72.5q0 -41 -18.5 -72.5
t-53.5 -49.5q31 -15 51.5 -41.5t20.5 -71.5q0 -32 -11.5 -58.5t-33 -45.5t-52 -30t-68.5 -11q-25 0 -46 7.5t-37.5 16.5t-27.5 16.5t-16 7.5t-5.5 -5.5t-0.5 -20.5q0 -10 -8 -10q-11 0 -11 10v121z" />
    <glyph glyph-name="dieresis" unicode="&#xa8;" horiz-adv-x="391" 
d="M344 594q0 -22 -15.5 -37.5t-37.5 -15.5t-37.5 15.5t-15.5 37.5t15.5 37.5t37.5 15.5t37.5 -15.5t15.5 -37.5zM153 594q0 -22 -15.5 -37.5t-37.5 -15.5t-37.5 15.5t-15.5 37.5t15.5 37.5t37.5 15.5t37.5 -15.5t15.5 -37.5z" />
    <glyph glyph-name="copyright" unicode="&#xa9;" horiz-adv-x="821" 
d="M620 225q-31 -57 -76 -91.5t-114 -34.5q-60 0 -108 19.5t-82 54t-52.5 80t-18.5 98.5q0 49 17 95t48.5 80.5t77.5 55.5t104 21q29 0 55 -7.5t58 -27.5q14 -10 23 -10q10 0 10 9q0 5 -1 10t-1 10q0 7 7 7q8 0 9 -11q2 -13 4.5 -24t6.5 -24t10.5 -30t17.5 -42q2 -4 2 -5
q0 -6 -7 -6q-4 0 -5 2t-4 7q-43 67 -89.5 93t-93.5 26q-45 0 -74.5 -19t-46 -50.5t-23 -71.5t-6.5 -83q0 -48 8.5 -91t28.5 -75t52.5 -50.5t79.5 -18.5q56 0 98.5 29t71.5 80q2 5 7 5q2 0 4.5 -2t2.5 -4q0 -1 -0.5 -1.5t-0.5 -2.5zM412 8q71 0 133.5 27.5t109.5 75t74.5 111
t27.5 135.5q0 71 -27.5 134t-74.5 110.5t-109.5 75.5t-133.5 28q-72 0 -135 -28t-110 -75.5t-74.5 -110.5t-27.5 -134q0 -72 27.5 -135.5t74.5 -111t110 -75t135 -27.5zM412 -18q-77 0 -145.5 29.5t-119.5 80.5t-81 119.5t-30 145.5q0 76 30 144t81 119t119.5 81t145.5 30
q76 0 144 -30t119 -81t80.5 -119t29.5 -144q0 -77 -29.5 -145.5t-80.5 -119.5t-119 -80.5t-144 -29.5z" />
    <glyph glyph-name="ordfeminine" unicode="&#xaa;" horiz-adv-x="472" 
d="M139 227q-27 0 -37 -9q-4 -5 -6.5 -9t-4.5 -4t-2 3q0 2 5 19l12 40q2 6 4.5 7t7.5 1h214q28 0 37 10q5 5 7.5 8.5t4.5 3.5t2 -3q0 -1 -5 -19l-12 -39q-2 -7 -4.5 -8t-7.5 -1h-215zM282 528q-12 16 -30 22.5t-37 6.5q-22 0 -36.5 -7.5t-23 -20t-12 -29t-3.5 -33.5
q0 -45 18.5 -69.5t51.5 -24.5q25 0 42.5 13t29.5 33v109zM360 446q0 -23 0.5 -37.5t3 -23t7.5 -12t15 -3.5q17 0 20.5 8t3.5 16q0 2 1 6.5t8 4.5q5 0 6 -4.5t1 -6.5q0 -8 -2 -16t-9 -14t-20 -9.5t-34 -3.5q-30 0 -51 11t-26 39q-26 -29 -55 -41.5t-59 -12.5
q-49 0 -80.5 26.5t-31.5 72.5q0 25 10 48t28.5 40.5t45 27.5t60.5 10q32 0 50.5 -8t29.5 -19v47q0 26 -1 45.5t-8 32.5t-22.5 19.5t-43.5 6.5q-24 0 -40.5 -3.5t-26 -8.5t-13.5 -10.5t-4 -8.5v-2q0 -1 1 -1q2 0 4 1t8 1q17 0 27 -10.5t10 -25.5q0 -17 -10.5 -27t-26.5 -10
q-17 0 -29 11.5t-12 34.5q0 13 4.5 26t17.5 24t35 18t57 7q23 0 49.5 -4t49 -14.5t37.5 -29.5t15 -48v-170z" />
    <glyph glyph-name="guillemotleft" unicode="&#xab;" horiz-adv-x="339" 
d="M138 218q-6 7 -6 9t6 8l110 118q6 6 10 6t7 -4q4 -4 4 -7q0 -5 -5 -10l-104 -112l96 -114q5 -7 5 -9q0 -5 -5 -9q-2 -2 -6 -2q-5 0 -10 5zM53 218q-6 7 -6 9t6 8l110 118q6 6 11 6t6 -4q4 -4 4 -7q0 -5 -4 -10l-105 -112l97 -114q5 -7 5 -9q0 -5 -5 -9q-4 -2 -7 -2
q-4 0 -9 5z" />
    <glyph glyph-name="logicalnot" unicode="&#xac;" horiz-adv-x="540" 
d="M430 105v175h-364v44h404v-219h-40z" />
    <glyph glyph-name="uni00AD" unicode="&#xad;" horiz-adv-x="425" 
d="M116 249q-15 0 -23 -2t-14 -8q-5 -4 -7 -8t-4 -4t-2 3q0 2 1.5 6.5t3.5 12.5l12 40q2 6 4.5 7t6.5 1h215q28 0 37 10q5 5 7.5 8.5t4.5 3.5v-1q0 -1 0.5 -1t0.5 -1q0 -4 -4 -19l-13 -40q-2 -6 -4 -7t-7 -1h-215z" />
    <glyph glyph-name="registered" unicode="&#xae;" horiz-adv-x="511" 
d="M239 517q10 0 20.5 1t19 6t14 15.5t5.5 30.5q0 23 -7.5 36t-17 19t-19.5 7.5t-15 1.5v-117zM264 381q5 0 6 -3t1 -5q0 -4 -7 -4q-17 0 -30 0.5t-30 0.5t-30.5 -0.5t-30.5 -0.5q-7 0 -7 4q0 2 1.5 5t5.5 3h28v253h-28q-7 0 -7 5q0 1 1.5 3.5t5.5 2.5h8.5t15.5 -0.5
t18.5 -0.5h16.5q5 0 17.5 0.5t17.5 0.5q19 0 41.5 -2.5t41.5 -10t32 -21.5t13 -36q0 -29 -22.5 -44.5t-51.5 -20.5q27 -5 41.5 -15.5t21.5 -22.5t8 -25t1 -23q0 -26 2.5 -36.5t10.5 -10.5q11 0 16.5 3.5t7.5 3.5q4 0 4 -3t-6.5 -9t-30.5 -6q-38 0 -55 15t-17 57
q0 28 -9 46.5t-47 20.5v-124h25zM257 295q40 0 76 16t63 44t43 65t16 78q0 40 -16 76.5t-43 64t-63 43.5t-76 16q-42 0 -78.5 -16t-63.5 -43.5t-43 -64t-16 -76.5q0 -41 16 -78t43 -65t63.5 -44t78.5 -16zM257 281q-45 0 -84.5 17t-69 46.5t-46.5 69t-17 84.5q0 44 17 83
t46.5 68t69 46t84.5 17q44 0 83 -17t68 -46t46 -68t17 -83q0 -45 -17 -84.5t-46 -69t-68 -46.5t-83 -17z" />
    <glyph glyph-name="macron" unicode="&#xaf;" horiz-adv-x="332" 
d="M19 560v29h294v-29h-294z" />
    <glyph glyph-name="degree" unicode="&#xb0;" horiz-adv-x="317" 
d="M237 351q0 32 -23.5 55.5t-55.5 23.5q-15 0 -29 -6.5t-24.5 -17t-17 -25t-6.5 -30.5q0 -15 6.5 -29t17 -24.5t24.5 -16.5t29 -6q16 0 30.5 6t25 16.5t17 24.5t6.5 29zM267 351q0 -22 -8.5 -41.5t-23 -34.5t-34.5 -23.5t-43 -8.5t-42.5 8.5t-34 23.5t-23 34.5t-8.5 41.5
q0 23 8.5 43t23 35t34 23.5t42.5 8.5t43 -8.5t34.5 -23.5t23 -35t8.5 -43z" />
    <glyph glyph-name="plusminus" unicode="&#xb1;" horiz-adv-x="448" 
d="M58 17v49h332v-49h-332zM199 132v142h-141v49h141v142h50v-142h141v-49h-141v-142h-50z" />
    <glyph glyph-name="uni00B2" unicode="&#xb2;" horiz-adv-x="379" 
d="M76 351q-9 0 -12 1q-3 3 -3 17q0 32 13.5 55t34.5 40t44.5 31.5t44.5 30.5t34.5 35.5t13.5 47.5q0 45 -19 64t-59 19q-11 0 -26 -3.5t-28 -12t-22 -23.5t-9 -39q0 -26 10 -38.5t15 -19.5q4 -4 4 -9q0 -6 -8 -6q-4 0 -10.5 6t-12.5 16t-10.5 23t-4.5 27q0 15 5.5 32t18 32
t34 25t54.5 10q62 0 98 -28t36 -78q0 -28 -15.5 -48.5t-39.5 -36.5t-52.5 -29.5t-53.5 -26t-43.5 -26.5t-22.5 -31h182q21 0 26 5t5 16v47q0 2 2.5 4t4.5 2q8 0 8 -6q0 -2 -0.5 -16t-0.5 -31t0.5 -38.5t0.5 -26.5q0 -10 -2 -12q-3 -1 -13 -1h-222z" />
    <glyph glyph-name="uni00B3" unicode="&#xb3;" horiz-adv-x="358" 
d="M128 545q-3 0 -5 0.5t-2 5.5q0 6 7 6h20q9 0 23.5 2t28 9.5t23.5 22t10 39.5q0 71 -79 71q-32 0 -53 -11.5t-21 -24.5q0 -10 10 -10q5 0 9 2t13 2q14 0 20 -7.5t6 -17.5q0 -17 -11 -24.5t-25 -7.5q-17 0 -29 10t-12 31t10.5 34t27 21t36 11t37.5 3q55 0 90 -21.5
t35 -59.5q0 -19 -10 -32.5t-26 -23t-35.5 -15t-37.5 -8.5q22 -3 43 -10.5t38 -20t27.5 -29.5t10.5 -38q0 -30 -12.5 -51.5t-33 -35t-46 -19.5t-50.5 -6q-22 0 -42 4.5t-35.5 14.5t-25 25.5t-9.5 38.5q0 30 16 40.5t33 10.5q25 0 33.5 -13t8.5 -27t-7 -23.5t-24 -9.5
q-18 0 -23 8t-11 8q-8 0 -8 -12q0 -17 24 -34.5t62 -17.5q47 0 66 27t19 72q0 30 -11 48t-26.5 27.5t-31.5 12.5t-26 3h-19z" />
    <glyph glyph-name="acute" unicode="&#xb4;" horiz-adv-x="228" 
d="M47 541l57 128h81l-102 -128h-36z" />
    <glyph glyph-name="paragraph" unicode="&#xb6;" horiz-adv-x="556" 
d="M423 656h-34v-656h-43v284q-32 -19 -62 -27.5t-59 -8.5q-42 0 -78 17.5t-62.5 51t-41.5 81.5t-15 109q0 46 10 86.5t33 71.5t62 49t96 18q25 0 55.5 -3t60 -7t54.5 -7t39 -3q39 0 54 1t19 1q10 0 10 -9q0 -10 -11 -10h-69v-779q0 -29 -2.5 -49.5t-6.5 -34t-9 -22.5
t-11 -16q-27 -32 -68 -32q-15 0 -31 5.5t-29 15.5t-21.5 24.5t-8.5 32.5q0 26 15.5 45.5t43.5 19.5q22 0 35.5 -14t13.5 -34q0 -21 -16 -38t-38 -17q-5 0 -11.5 1t-11.5 4q0 -5 16.5 -16.5t41.5 -11.5q15 0 31 6t27 20q11 15 16.5 39t5.5 69v743z" />
    <glyph glyph-name="periodcentered" unicode="&#xb7;" horiz-adv-x="243" 
d="M122 193q-23 0 -39.5 16t-16.5 39t16.5 39t39.5 16t39 -16t16 -39t-16 -39t-39 -16z" />
    <glyph glyph-name="cedilla" unicode="&#xb8;" horiz-adv-x="276" 
d="M81 -67q25 13 52 13q43 0 68 -20.5t25 -49.5q0 -11 -5 -26t-16.5 -28.5t-31 -22.5t-49.5 -9q-6 0 -20 1.5t-28 4.5t-24.5 7t-10.5 8t3 4q2 0 17 -3.5t27 -3.5q15 0 29.5 4t26 12.5t18.5 22t7 33.5q0 25 -16 38t-36 13q-15 0 -29.5 -7.5t-23.5 -22.5q-7 -12 -11 -12
q-5 0 -6 2t-1 4l1.5 3l7 14t17 33t32.5 61l12 -4z" />
    <glyph glyph-name="uni00B9" unicode="&#xb9;" horiz-adv-x="320" 
d="M275 366q7 0 7 -7q0 -8 -7 -8q-29 1 -54 1.5t-54 0.5q-36 0 -65 -1t-40 -1q-7 0 -7 8q0 7 7 7h74v232l-67 -58l-3.5 -3.5t-3.5 -1.5q-1 0 -3.5 2t-2.5 4q0 4 5 7q22 20 42 42.5t36.5 44t28 40t17.5 30.5q3 6 6 7.5t5 1.5q8 0 8 -9v-339h71z" />
    <glyph glyph-name="ordmasculine" unicode="&#xba;" horiz-adv-x="444" 
d="M129 227q-15 0 -23 -2t-14 -7q-5 -5 -7 -9t-4 -4t-2 3q0 2 1 6.5t3 12.5l13 40q2 6 4 7t7 1h215q15 0 23 2t14 8q5 5 7 8.5t4 3.5t2 -3q0 -1 -5 -19l-12 -39q-2 -7 -4.5 -8t-6.5 -1h-215zM225 361q26 0 43.5 13.5t28 36.5t15 52t4.5 61t-4.5 62.5t-15 54.5t-28 39
t-43.5 15t-43.5 -14.5t-28.5 -38t-15.5 -54t-4.5 -62.5t4.5 -61.5t15.5 -52.5t28.5 -37t43.5 -14zM225 346q-38 0 -69.5 14.5t-55 39.5t-36.5 57.5t-13 67.5t13 68.5t36.5 60t55 42.5t69.5 16q37 0 69 -16t55.5 -42.5t36.5 -60t13 -68.5t-13 -67.5t-36.5 -57.5t-55.5 -39.5
t-69 -14.5z" />
    <glyph glyph-name="guillemotright" unicode="&#xbb;" horiz-adv-x="338" 
d="M99 97q-5 -5 -10 -5q-2 0 -6 2q-5 4 -5 9q0 2 5 9l97 114l-105 112q-5 5 -5 10q0 3 4 7q3 4 7 4q5 0 10 -6l111 -118q5 -7 5 -8t-5 -9zM184 97q-5 -5 -10 -5q-3 0 -7 2q-4 4 -4 9q0 1 4 9l97 114l-104 112q-5 5 -5 10q0 3 4 7q3 4 6 4q5 0 11 -6l110 -118q6 -6 6 -8
t-6 -9z" />
    <glyph glyph-name="onequarter" unicode="&#xbc;" horiz-adv-x="643" 
d="M450 275l-122 -144h122v144zM564 13q6 0 6 -7q0 -2 -1.5 -5t-4.5 -3q-22 1 -41.5 1.5t-41.5 0.5q-27 0 -53.5 -1t-34.5 -1q-2 0 -3.5 3t-1.5 5q0 7 5 7h57v69h-159q-5 0 -10 1t-5 7q0 1 2 5l218 258q2 3 3.5 5t4.5 2q5 0 5 -7v-222h37q21 0 26.5 6.5t5.5 17.5v46q0 3 3 5
t6 2q6 0 6 -7q0 -2 -0.5 -15.5t-0.5 -30.5q0 -19 0.5 -36.5t0.5 -23.5q0 -10 -3 -11q-3 -2 -13 -2h-68v-69h55zM257 281q6 0 6 -6q0 -9 -6 -9q-29 2 -54.5 2.5t-54.5 0.5q-35 0 -64 -1.5t-40 -1.5q-8 0 -8 9q0 6 8 6h73v232l-66 -58l-3.5 -3.5t-4.5 -1.5q-1 0 -3.5 2t-2.5 4
q0 5 5 8q22 20 42 42.5t36.5 43.5t28 39.5t17.5 30.5q3 7 6.5 8.5t5.5 1.5q7 0 7 -10v-339h72zM89 0l446 596h32l-447 -596h-31z" />
    <glyph glyph-name="onehalf" unicode="&#xbd;" horiz-adv-x="689" 
d="M407 0q-10 0 -13 2q-1 2 -1.5 5t-0.5 11q0 32 13.5 55t34.5 40t44.5 31.5t44.5 30.5t34.5 35.5t13.5 47.5q0 45 -19.5 64t-58.5 19q-11 0 -26 -3t-28.5 -12t-22.5 -24t-9 -39q0 -26 10 -38t16 -20q4 -4 4 -8q0 -6 -9 -6q-4 0 -10.5 6t-12.5 15.5t-10.5 22.5t-4.5 27
q0 15 5.5 32t18.5 32t34.5 25t53.5 10q63 0 98.5 -28t35.5 -77q0 -28 -15.5 -48.5t-39.5 -37t-52.5 -30t-53.5 -26t-43.5 -26.5t-22.5 -31h183q20 0 25.5 5.5t5.5 16.5v46q0 2 2.5 4t4.5 2q7 0 7 -6q0 -2 -0.5 -15.5t-0.5 -30.5v-19t0.5 -20t0.5 -17v-10q0 -9 -2 -11t-13 -2
h-221zM257 281q6 0 6 -6q0 -9 -6 -9q-29 2 -54.5 2.5t-54.5 0.5q-35 0 -64 -1.5t-40 -1.5q-8 0 -8 9q0 6 8 6h73v232l-66 -58l-3.5 -3.5t-4.5 -1.5q-1 0 -3.5 2t-2.5 4q0 5 5 8q22 20 42 42.5t36.5 43.5t28 39.5t17.5 30.5q3 7 6.5 8.5t5.5 1.5q7 0 7 -10v-339h72zM89 0
l446 596h32l-447 -596h-31z" />
    <glyph glyph-name="threequarters" unicode="&#xbe;" horiz-adv-x="681" 
d="M114 465q-7 0 -7 5q0 6 7 6h20q9 0 23.5 2t28 9.5t23.5 22t10 39.5q0 71 -80 71q-32 0 -53 -11.5t-21 -24.5q0 -10 11 -10q5 0 9 2.5t12 2.5q14 0 20.5 -8t6.5 -18q0 -17 -11 -24t-25 -7q-18 0 -30 9.5t-12 30.5t10.5 34.5t27 21.5t36 11t37.5 3q55 0 90.5 -22t35.5 -60
q0 -19 -10 -32.5t-26 -23t-35.5 -15t-38.5 -8.5q22 -2 43 -10t38 -20.5t27.5 -29.5t10.5 -38q0 -30 -12.5 -51t-32.5 -34.5t-45.5 -20t-50.5 -6.5q-22 0 -42 4.5t-35.5 14.5t-25 25.5t-9.5 38.5q0 31 15.5 41t33.5 10q24 0 33 -13t9 -27t-7.5 -23.5t-24.5 -9.5q-9 0 -14 2.5
t-8.5 5.5t-6 5.5t-5.5 2.5q-7 0 -7 -12q0 -17 24 -34t62 -17q47 0 66 26.5t19 71.5q0 30 -11.5 48.5t-27 28t-31.5 12.5t-25 3h-19zM489 275l-123 -144h123v144zM603 13q6 0 6 -7q0 -2 -1.5 -5t-4.5 -3q-23 1 -42 1.5t-42 0.5q-27 0 -53 -1t-34 -1q-3 0 -4.5 3t-1.5 5
q0 7 6 7h57v69h-160q-4 0 -9.5 1t-5.5 7q0 1 2 5l218 258q2 3 3.5 5t4.5 2q6 0 6 -7v-222h37q20 0 25.5 6.5t5.5 17.5v46q0 7 10 7q5 0 5 -7q0 -2 -0.5 -15.5t-0.5 -30.5q0 -19 0.5 -36.5t0.5 -23.5q0 -9 -2 -11q-3 -2 -14 -2h-67v-69h55zM127 0l446 596h33l-448 -596h-31z
" />
    <glyph glyph-name="questiondown" unicode="&#xbf;" horiz-adv-x="337" 
d="M205 258q-18 0 -31 12.5t-13 31.5q0 18 13 30.5t31 12.5q17 0 30 -12.5t13 -30.5q0 -19 -13 -31.5t-30 -12.5zM246 -121q-21 0 -31.5 13.5t-10.5 32.5q0 21 12.5 33.5t29.5 12.5q19 0 30.5 -12.5t11.5 -33.5q0 -14 -6 -29t-20 -27.5t-36.5 -20.5t-55.5 -8
q-25 0 -50.5 5.5t-46 18.5t-33.5 33.5t-13 49.5q0 30 13.5 52t33.5 40t43.5 32.5t43.5 29.5t33.5 31.5t13.5 37.5q0 17 -8 27.5t-19 20.5q-4 3 -4 5q0 6 7 6q2 0 7 -3q2 -1 12.5 -8.5t22 -20t21 -30t9.5 -38.5q0 -23 -11.5 -41t-28 -34t-36.5 -31t-36.5 -31.5t-28 -35
t-11.5 -42.5q0 -25 16.5 -42.5t57.5 -17.5q19 0 35.5 3t26.5 10q3 2 5.5 4t4.5 4l4 4h-8z" />
    <glyph glyph-name="Agrave" unicode="&#xc0;" horiz-adv-x="678" 
d="M332 760l-103 127h81l57 -127h-35zM291 578l-99 -297h207zM689 16q5 0 7.5 -3t2.5 -6q0 -10 -10 -10q-22 0 -39 0.5l-34 1t-35.5 1t-43.5 0.5q-63 0 -103.5 -1.5t-47.5 -1.5q-10 0 -12 3t-2 6q0 10 10 10h61q22 0 32 3t10 17q0 6 -1.5 12t-4.5 14l-73 200h-221l-40 -120
q-8 -27 -13.5 -47.5t-5.5 -36.5q0 -42 50 -42h37q5 0 7.5 -3t2.5 -6q0 -10 -10 -10q-19 0 -33 0.5t-26.5 1t-25.5 1t-31 0.5q-45 0 -69 -1.5t-44 -1.5q-11 0 -11 10q0 3 3 6t8 3h17q45 0 70.5 18t39.5 61l204 604q5 15 9.5 24.5t10.5 9.5q4 0 6.5 -3t7.5 -15l234 -639
q7 -20 12.5 -31.5t11 -17.5t11 -8.5t11.5 -2.5h60z" />
    <glyph glyph-name="Aacute" unicode="&#xc1;" horiz-adv-x="678" 
d="M302 760l57 127h81l-103 -127h-35zM291 578l-99 -297h207zM689 16q5 0 7.5 -3t2.5 -6q0 -10 -10 -10q-22 0 -39 0.5l-34 1t-35.5 1t-43.5 0.5q-63 0 -103.5 -1.5t-47.5 -1.5q-10 0 -12 3t-2 6q0 10 10 10h61q22 0 32 3t10 17q0 6 -1.5 12t-4.5 14l-73 200h-221l-40 -120
q-8 -27 -13.5 -47.5t-5.5 -36.5q0 -42 50 -42h37q5 0 7.5 -3t2.5 -6q0 -10 -10 -10q-19 0 -33 0.5t-26.5 1t-25.5 1t-31 0.5q-45 0 -69 -1.5t-44 -1.5q-11 0 -11 10q0 3 3 6t8 3h17q45 0 70.5 18t39.5 61l204 604q5 15 9.5 24.5t10.5 9.5q4 0 6.5 -3t7.5 -15l234 -639
q7 -20 12.5 -31.5t11 -17.5t11 -8.5t11.5 -2.5h60z" />
    <glyph glyph-name="Acircumflex" unicode="&#xc2;" horiz-adv-x="678" 
d="M467 760l-131 87l-131 -87l-14 13l132 119h27l132 -119zM291 578l-99 -297h207zM689 16q5 0 7.5 -3t2.5 -6q0 -10 -10 -10q-22 0 -39 0.5l-34 1t-35.5 1t-43.5 0.5q-63 0 -103.5 -1.5t-47.5 -1.5q-10 0 -12 3t-2 6q0 10 10 10h61q22 0 32 3t10 17q0 6 -1.5 12t-4.5 14
l-73 200h-221l-40 -120q-8 -27 -13.5 -47.5t-5.5 -36.5q0 -42 50 -42h37q5 0 7.5 -3t2.5 -6q0 -10 -10 -10q-19 0 -33 0.5t-26.5 1t-25.5 1t-31 0.5q-45 0 -69 -1.5t-44 -1.5q-11 0 -11 10q0 3 3 6t8 3h17q45 0 70.5 18t39.5 61l204 604q5 15 9.5 24.5t10.5 9.5q4 0 6.5 -3
t7.5 -15l234 -639q7 -20 12.5 -31.5t11 -17.5t11 -8.5t11.5 -2.5h60z" />
    <glyph glyph-name="Atilde" unicode="&#xc3;" horiz-adv-x="678" 
d="M497 825q-14 -39 -32.5 -52t-37.5 -13q-20 0 -44 6t-48.5 13.5t-46.5 13.5t-37 6q-12 0 -23 -5t-20 -11.5t-16 -13t-10 -9.5q-2 -2 -5 -4.5t-5 -2.5t-4 2t-2 4q0 5 8 11q24 23 38 37.5t24.5 22t20 10t23.5 2.5q13 0 34 -5.5t43.5 -12.5t44.5 -12.5t37 -5.5q14 0 26 6
t23 22q4 6 7 6q5 0 5 -5q0 -3 -3 -10zM291 578l-99 -297h207zM689 16q5 0 7.5 -3t2.5 -6q0 -10 -10 -10q-22 0 -39 0.5l-34 1t-35.5 1t-43.5 0.5q-63 0 -103.5 -1.5t-47.5 -1.5q-10 0 -12 3t-2 6q0 10 10 10h61q22 0 32 3t10 17q0 6 -1.5 12t-4.5 14l-73 200h-221l-40 -120
q-8 -27 -13.5 -47.5t-5.5 -36.5q0 -42 50 -42h37q5 0 7.5 -3t2.5 -6q0 -10 -10 -10q-19 0 -33 0.5t-26.5 1t-25.5 1t-31 0.5q-45 0 -69 -1.5t-44 -1.5q-11 0 -11 10q0 3 3 6t8 3h17q45 0 70.5 18t39.5 61l204 604q5 15 9.5 24.5t10.5 9.5q4 0 6.5 -3t7.5 -15l234 -639
q7 -20 12.5 -31.5t11 -17.5t11 -8.5t11.5 -2.5h60z" />
    <glyph glyph-name="Adieresis" unicode="&#xc4;" horiz-adv-x="678" 
d="M483 812q0 -21 -15.5 -36.5t-38.5 -15.5q-21 0 -36.5 15.5t-15.5 36.5q0 23 15.5 38t36.5 15q23 0 38.5 -15t15.5 -38zM292 812q0 -21 -15.5 -36.5t-37.5 -15.5t-37.5 15.5t-15.5 36.5q0 23 15.5 38t37.5 15t37.5 -15t15.5 -38zM291 578l-99 -297h207zM689 16q5 0 7.5 -3
t2.5 -6q0 -10 -10 -10q-22 0 -39 0.5l-34 1t-35.5 1t-43.5 0.5q-63 0 -103.5 -1.5t-47.5 -1.5q-10 0 -12 3t-2 6q0 10 10 10h61q22 0 32 3t10 17q0 6 -1.5 12t-4.5 14l-73 200h-221l-40 -120q-8 -27 -13.5 -47.5t-5.5 -36.5q0 -42 50 -42h37q5 0 7.5 -3t2.5 -6
q0 -10 -10 -10q-19 0 -33 0.5t-26.5 1t-25.5 1t-31 0.5q-45 0 -69 -1.5t-44 -1.5q-11 0 -11 10q0 3 3 6t8 3h17q45 0 70.5 18t39.5 61l204 604q5 15 9.5 24.5t10.5 9.5q4 0 6.5 -3t7.5 -15l234 -639q7 -20 12.5 -31.5t11 -17.5t11 -8.5t11.5 -2.5h60z" />
    <glyph glyph-name="Aring" unicode="&#xc5;" horiz-adv-x="678" 
d="M335 775q20 0 30 14.5t10 36.5q0 21 -10 36t-30 15q-19 0 -29 -15t-10 -36q0 -22 10 -36.5t29 -14.5zM413 826q0 -17 -7 -29.5t-18 -20.5t-25 -12t-28 -4t-27.5 4t-24.5 12t-18 20.5t-7 29.5t7 29t18 20t24.5 12t27.5 4t28 -4t25 -12t18 -20t7 -29zM291 578l-99 -297h207
zM689 16q5 0 7.5 -3t2.5 -6q0 -10 -10 -10q-22 0 -39 0.5l-34 1t-35.5 1t-43.5 0.5q-63 0 -103.5 -1.5t-47.5 -1.5q-10 0 -12 3t-2 6q0 10 10 10h61q22 0 32 3t10 17q0 6 -1.5 12t-4.5 14l-73 200h-221l-40 -120q-8 -27 -13.5 -47.5t-5.5 -36.5q0 -42 50 -42h37q5 0 7.5 -3
t2.5 -6q0 -10 -10 -10q-19 0 -33 0.5t-26.5 1t-25.5 1t-31 0.5q-45 0 -69 -1.5t-44 -1.5q-11 0 -11 10q0 3 3 6t8 3h17q45 0 70.5 18t39.5 61l204 604q5 15 9.5 24.5t10.5 9.5q4 0 6.5 -3t7.5 -15l234 -639q7 -20 12.5 -31.5t11 -17.5t11 -8.5t11.5 -2.5h60z" />
    <glyph glyph-name="AE" unicode="&#xc6;" horiz-adv-x="977" 
d="M460 658l-223 -377h223v377zM717 16q50 0 83.5 12.5t54 34.5t30.5 52.5t13 66.5q0 17 10 17q7 0 8 -4.5t1 -12.5q-2 -35 -6 -71.5t-4 -81.5v-16t1 -16q-11 1 -22 1.5t-27.5 0.5h-42t-66.5 0.5t-100 0.5h-142q-39 0 -73 -1t-73 -2q-11 0 -11 10q0 3 3 6t8 3h98v246h-234
l-72 -120q-15 -26 -25 -47.5t-10 -38.5q0 -19 14 -29.5t46 -10.5h28q5 0 7.5 -3t2.5 -6q0 -10 -10 -10q-20 0 -33.5 0.5t-26.5 1t-27 1t-33 0.5q-20 0 -32 -0.5t-22.5 -1t-23 -1t-31.5 -0.5q-11 0 -11 10q0 3 3 6t8 3h17q38 0 62.5 20t47.5 59l354 601h-97q-11 0 -11 10
q0 9 11 9q39 -1 73 -2t73 -1h141.5h101.5t69.5 0.5t44.5 0.5t26.5 0.5t16.5 1.5q0 -14 0.5 -39.5t2.5 -41.5q2 -21 3 -34t1.5 -23.5t0.5 -20.5t1 -23q0 -8 -1 -12t-8 -4q-10 0 -10 16q0 33 -6.5 63t-27 52t-57.5 35t-99 13h-149v-290h45q30 0 52.5 3.5t37.5 15.5t22.5 34
t8.5 60q0 16 10 16q7 0 8 -4.5t1 -11.5q-2 -37 -2.5 -53.5t-1.5 -25.5t-1 -17v-27v-29.5t1 -21t1.5 -30.5t2.5 -56q0 -7 -1 -11.5t-8 -4.5q-10 0 -10 16q-1 42 -8.5 67t-22.5 38.5t-37.5 18t-52.5 4.5h-45v-371h158z" />
    <glyph glyph-name="Ccedilla" unicode="&#xc7;" horiz-adv-x="748" 
d="M378 -68q25 12 52 12q43 0 68.5 -20.5t25.5 -48.5q0 -12 -5 -27t-16.5 -28.5t-31 -22.5t-49.5 -9q-6 0 -20 1.5t-28.5 4.5t-25 7t-10.5 8t3 4t18 -3.5t27 -3.5q15 0 29.5 4t26 12.5t18.5 22t7 33.5q0 25 -16 38t-37 13q-15 0 -29.5 -7.5t-23.5 -22.5q-7 -12 -10 -12
q-5 0 -6.5 2t-1.5 4q0 1 1.5 3.5t6.5 12t14.5 28.5t26.5 52q-76 5 -139 35.5t-108 80.5t-69.5 115.5t-24.5 139.5q0 73 24.5 140.5t70 119t111 82.5t146.5 31q43 0 81 -11t84 -40q12 -8 20 -12t15 -4q6 0 10.5 3.5t4.5 11.5q0 6 -1.5 14t-1.5 15q0 10 10 10t14 -16
q4 -19 7.5 -33t9.5 -30.5t15.5 -40t25.5 -60.5q2 -4 2 -7q0 -9 -9 -9q-5 0 -7.5 3.5t-6.5 10.5q-32 49 -65.5 82.5t-67.5 54.5t-68.5 30t-68.5 9q-68 0 -115.5 -30.5t-77.5 -79t-43.5 -110.5t-13.5 -125q0 -72 17 -137.5t51.5 -115.5t86.5 -80t122 -30q84 0 148.5 42.5
t104.5 118.5q4 8 8 8q1 0 5 -2q6 -3 6 -7q0 -3 -2 -5q-45 -85 -111.5 -129.5t-168.5 -44.5q-5 0 -9 0.5t-7 0.5z" />
    <glyph glyph-name="Egrave" unicode="&#xc8;" horiz-adv-x="659" 
d="M363 760l-103 127h81l57 -127h-35zM399 16q55 0 89 14t52.5 37t26.5 53t13 62q1 7 2 12t8 5t8 -4.5t1 -11.5q-1 -27 -5.5 -66t-4.5 -88v-16t1 -16q-3 0 -20 0.5t-61 1t-120.5 1t-198.5 0.5q-21 0 -44.5 -0.5t-43.5 -1t-36 -1t-22 -0.5q-11 0 -11 10q0 3 3 6t8 3h98v680
h-98q-11 0 -11 10q0 9 11 9q39 -1 72 -2t74 -1h141.5h101.5t69.5 0.5t44.5 0.5t26.5 0.5t16.5 1.5q0 -14 0.5 -39.5t2.5 -41.5q2 -23 3 -39.5t1.5 -28t1 -19.5t0.5 -14t-1 -11t-8 -5t-8 4t-2 12q-2 31 -7 60.5t-23.5 52t-56 36.5t-103.5 14h-149v-290h45q46 0 70 10t35 26
t13 36.5t2 40.5q0 16 11 16q7 0 8 -4.5t1 -10.5q0 -33 -2.5 -59t-2.5 -65t2.5 -73.5t2.5 -63.5q0 -7 -1 -11.5t-8 -4.5q-8 0 -9 6t-1 10q-3 33 -6.5 57.5t-15.5 40t-35 23t-64 7.5h-45v-371h158z" />
    <glyph glyph-name="Eacute" unicode="&#xc9;" horiz-adv-x="659" 
d="M322 760l57 127h81l-103 -127h-35zM399 16q55 0 89 14t52.5 37t26.5 53t13 62q1 7 2 12t8 5t8 -4.5t1 -11.5q-1 -27 -5.5 -66t-4.5 -88v-16t1 -16q-3 0 -20 0.5t-61 1t-120.5 1t-198.5 0.5q-21 0 -44.5 -0.5t-43.5 -1t-36 -1t-22 -0.5q-11 0 -11 10q0 3 3 6t8 3h98v680
h-98q-11 0 -11 10q0 9 11 9q39 -1 72 -2t74 -1h141.5h101.5t69.5 0.5t44.5 0.5t26.5 0.5t16.5 1.5q0 -14 0.5 -39.5t2.5 -41.5q2 -23 3 -39.5t1.5 -28t1 -19.5t0.5 -14t-1 -11t-8 -5t-8 4t-2 12q-2 31 -7 60.5t-23.5 52t-56 36.5t-103.5 14h-149v-290h45q46 0 70 10t35 26
t13 36.5t2 40.5q0 16 11 16q7 0 8 -4.5t1 -10.5q0 -33 -2.5 -59t-2.5 -65t2.5 -73.5t2.5 -63.5q0 -7 -1 -11.5t-8 -4.5q-8 0 -9 6t-1 10q-3 33 -6.5 57.5t-15.5 40t-35 23t-64 7.5h-45v-371h158z" />
    <glyph glyph-name="Ecircumflex" unicode="&#xca;" horiz-adv-x="659" 
d="M482 760l-131 87l-131 -87l-15 13l132 119h27l132 -119zM399 16q55 0 89 14t52.5 37t26.5 53t13 62q1 7 2 12t8 5t8 -4.5t1 -11.5q-1 -27 -5.5 -66t-4.5 -88v-16t1 -16q-3 0 -20 0.5t-61 1t-120.5 1t-198.5 0.5q-21 0 -44.5 -0.5t-43.5 -1t-36 -1t-22 -0.5q-11 0 -11 10
q0 3 3 6t8 3h98v680h-98q-11 0 -11 10q0 9 11 9q39 -1 72 -2t74 -1h141.5h101.5t69.5 0.5t44.5 0.5t26.5 0.5t16.5 1.5q0 -14 0.5 -39.5t2.5 -41.5q2 -23 3 -39.5t1.5 -28t1 -19.5t0.5 -14t-1 -11t-8 -5t-8 4t-2 12q-2 31 -7 60.5t-23.5 52t-56 36.5t-103.5 14h-149v-290h45
q46 0 70 10t35 26t13 36.5t2 40.5q0 16 11 16q7 0 8 -4.5t1 -10.5q0 -33 -2.5 -59t-2.5 -65t2.5 -73.5t2.5 -63.5q0 -7 -1 -11.5t-8 -4.5q-8 0 -9 6t-1 10q-3 33 -6.5 57.5t-15.5 40t-35 23t-64 7.5h-45v-371h158z" />
    <glyph glyph-name="Edieresis" unicode="&#xcb;" horiz-adv-x="659" 
d="M495 812q0 -21 -15.5 -36.5t-37.5 -15.5t-37 15.5t-15 36.5q0 23 15 38t37 15t37.5 -15t15.5 -38zM304 812q0 -21 -15.5 -36.5t-37.5 -15.5t-37 15.5t-15 36.5q0 23 15 38t37 15t37.5 -15t15.5 -38zM399 16q55 0 89 14t52.5 37t26.5 53t13 62q1 7 2 12t8 5t8 -4.5
t1 -11.5q-1 -27 -5.5 -66t-4.5 -88v-16t1 -16q-3 0 -20 0.5t-61 1t-120.5 1t-198.5 0.5q-21 0 -44.5 -0.5t-43.5 -1t-36 -1t-22 -0.5q-11 0 -11 10q0 3 3 6t8 3h98v680h-98q-11 0 -11 10q0 9 11 9q39 -1 72 -2t74 -1h141.5h101.5t69.5 0.5t44.5 0.5t26.5 0.5t16.5 1.5
q0 -14 0.5 -39.5t2.5 -41.5q2 -23 3 -39.5t1.5 -28t1 -19.5t0.5 -14t-1 -11t-8 -5t-8 4t-2 12q-2 31 -7 60.5t-23.5 52t-56 36.5t-103.5 14h-149v-290h45q46 0 70 10t35 26t13 36.5t2 40.5q0 16 11 16q7 0 8 -4.5t1 -10.5q0 -33 -2.5 -59t-2.5 -65t2.5 -73.5t2.5 -63.5
q0 -7 -1 -11.5t-8 -4.5q-8 0 -9 6t-1 10q-3 33 -6.5 57.5t-15.5 40t-35 23t-64 7.5h-45v-371h158z" />
    <glyph glyph-name="Igrave" unicode="&#xcc;" horiz-adv-x="383" 
d="M188 760l-103 127h81l57 -127h-35zM337 16q5 0 7.5 -3t2.5 -6q0 -10 -10 -10q-38 1 -71.5 2t-71.5 1q-23 0 -47 -0.5t-44.5 -1t-36 -1t-22.5 -0.5q-10 0 -10 10q0 3 2.5 6t7.5 3h98v680h-98q-10 0 -10 10q0 9 10 9q38 -1 72 -2t72 -1q23 0 47 0.5t44 1t35.5 1t22.5 0.5
q10 0 10 -9q0 -10 -10 -10h-95v-680h95z" />
    <glyph glyph-name="Iacute" unicode="&#xcd;" horiz-adv-x="383" 
d="M161 760l57 127h81l-103 -127h-35zM337 16q5 0 7.5 -3t2.5 -6q0 -10 -10 -10q-38 1 -71.5 2t-71.5 1q-23 0 -47 -0.5t-44.5 -1t-36 -1t-22.5 -0.5q-10 0 -10 10q0 3 2.5 6t7.5 3h98v680h-98q-10 0 -10 10q0 9 10 9q38 -1 72 -2t72 -1q23 0 47 0.5t44 1t35.5 1t22.5 0.5
q10 0 10 -9q0 -10 -10 -10h-95v-680h95z" />
    <glyph glyph-name="Icircumflex" unicode="&#xce;" horiz-adv-x="383" 
d="M323 760l-131 87l-131 -87l-15 13l132 119h27l132 -119zM337 16q5 0 7.5 -3t2.5 -6q0 -10 -10 -10q-38 1 -71.5 2t-71.5 1q-23 0 -47 -0.5t-44.5 -1t-36 -1t-22.5 -0.5q-10 0 -10 10q0 3 2.5 6t7.5 3h98v680h-98q-10 0 -10 10q0 9 10 9q38 -1 72 -2t72 -1q23 0 47 0.5
t44 1t35.5 1t22.5 0.5q10 0 10 -9q0 -10 -10 -10h-95v-680h95z" />
    <glyph glyph-name="Idieresis" unicode="&#xcf;" horiz-adv-x="383" 
d="M340 812q0 -21 -15.5 -36.5t-37.5 -15.5t-37.5 15.5t-15.5 36.5q0 23 15.5 38t37.5 15t37.5 -15t15.5 -38zM149 812q0 -21 -15.5 -36.5t-37.5 -15.5t-37.5 15.5t-15.5 36.5q0 23 15.5 38t37.5 15t37.5 -15t15.5 -38zM337 16q5 0 7.5 -3t2.5 -6q0 -10 -10 -10
q-38 1 -71.5 2t-71.5 1q-23 0 -47 -0.5t-44.5 -1t-36 -1t-22.5 -0.5q-10 0 -10 10q0 3 2.5 6t7.5 3h98v680h-98q-10 0 -10 10q0 9 10 9q38 -1 72 -2t72 -1q23 0 47 0.5t44 1t35.5 1t22.5 0.5q10 0 10 -9q0 -10 -10 -10h-95v-680h95z" />
    <glyph glyph-name="Eth" unicode="&#xd0;" horiz-adv-x="807" 
d="M242 333v-314q37 0 81.5 1.5t89.5 11t87.5 30t75.5 58t53 95.5t20 143q0 84 -19.5 142t-52.5 95.5t-75.5 58t-87.5 30t-90 11t-82 1.5v-314h129q15 0 23 2t14 7q4 5 6.5 9t4.5 4t2 -3q0 -2 -5 -19l-12 -40q-2 -7 -4.5 -8t-6.5 -1h-151zM142 333h-50q-15 0 -23 -1.5
t-14 -7.5q-4 -5 -6.5 -8.5t-4.5 -3.5t-2 2t5 19l12 40q2 7 4.5 8t7.5 1h71v314h-98q-11 0 -11 10q0 9 13 9q3 0 25.5 -0.5t51 -1t55.5 -1t39 -0.5t31.5 0.5t41.5 1t42.5 1t33.5 0.5q21 0 58 -3t80 -14t87.5 -33.5t80.5 -62.5t59 -99t23 -144q0 -90 -25.5 -151t-65.5 -101
t-89.5 -62t-97 -32t-87.5 -12t-61 -2q-46 0 -75.5 0.5t-58.5 0.5q-25 0 -48.5 -0.5t-44 -1t-35.5 -1t-22 -0.5q-11 0 -11 10q0 3 3 6t8 3h98v317z" />
    <glyph glyph-name="Ntilde" unicode="&#xd1;" horiz-adv-x="757" 
d="M556 825q-14 -39 -32 -52t-38 -13t-44 6t-48 13.5t-46.5 13.5t-37.5 6q-11 0 -22 -5t-20.5 -11.5t-16.5 -13t-10 -9.5q-2 -2 -5 -4.5t-5 -2.5q-5 0 -5 6q0 4 7 11q24 23 38.5 37.5t25 22t20 10t23.5 2.5q13 0 34 -5.5t43.5 -12.5t44 -12.5t36.5 -5.5q14 0 26.5 6t23.5 22
q4 6 6 6q5 0 5 -5q0 -3 -3 -10zM163 638v-522q0 -33 5 -53t15.5 -30.5t26.5 -13.5t37 -3h17q5 0 7.5 -3t2.5 -6q0 -10 -10 -10q-20 0 -32 0.5t-23 1t-23 1t-30 0.5q-44 0 -68.5 -1.5t-44.5 -1.5q-10 0 -10 10q0 3 2.5 6t7.5 3h17q17 0 32 2.5t26.5 10.5t18.5 22.5t7 38.5
v573q-13 23 -22 28t-19 5h-54q-10 0 -10 10q0 2 1.5 5.5t8.5 3.5q54 -3 88 -3q28 0 54.5 1.5t43.5 1.5l365 -554v461q0 24 -7 38.5t-18.5 22.5t-26.5 10.5t-32 2.5h-17q-10 0 -10 10q0 9 10 9q19 0 31.5 -0.5t23.5 -1t23 -1t30 -0.5q44 0 68.5 1.5t44.5 1.5q10 0 10 -9
q0 -10 -10 -10h-17q-21 0 -37 -3t-26.5 -13t-15.5 -30t-5 -53v-601q0 -8 -1.5 -12.5t-8.5 -4.5q-5 0 -10.5 3.5t-12.5 14.5z" />
    <glyph glyph-name="Ograve" unicode="&#xd2;" horiz-adv-x="801" 
d="M405 760l-103 127h81l57 -127h-35zM400 6q70 0 117 30.5t76 80t41.5 113t12.5 130.5t-12.5 130.5t-41.5 113t-76 80t-117 30.5t-117 -30.5t-76 -80t-41.5 -113t-12.5 -130.5t12.5 -130.5t41.5 -113t76 -80t117 -30.5zM400 -13q-77 0 -141 31t-111 82.5t-73 119t-26 140.5
t26 140.5t73 119t111 82.5t141 31q76 0 141 -31t111.5 -82.5t73 -119t26.5 -140.5t-26.5 -140.5t-73 -119t-111.5 -82.5t-141 -31z" />
    <glyph glyph-name="Oacute" unicode="&#xd3;" horiz-adv-x="801" 
d="M359 760l57 127h81l-102 -127h-36zM400 6q70 0 117 30.5t76 80t41.5 113t12.5 130.5t-12.5 130.5t-41.5 113t-76 80t-117 30.5t-117 -30.5t-76 -80t-41.5 -113t-12.5 -130.5t12.5 -130.5t41.5 -113t76 -80t117 -30.5zM400 -13q-77 0 -141 31t-111 82.5t-73 119t-26 140.5
t26 140.5t73 119t111 82.5t141 31q76 0 141 -31t111.5 -82.5t73 -119t26.5 -140.5t-26.5 -140.5t-73 -119t-111.5 -82.5t-141 -31z" />
    <glyph glyph-name="Ocircumflex" unicode="&#xd4;" horiz-adv-x="801" 
d="M531 760l-131 87l-131 -87l-14 13l132 119h27l132 -119zM400 6q70 0 117 30.5t76 80t41.5 113t12.5 130.5t-12.5 130.5t-41.5 113t-76 80t-117 30.5t-117 -30.5t-76 -80t-41.5 -113t-12.5 -130.5t12.5 -130.5t41.5 -113t76 -80t117 -30.5zM400 -13q-77 0 -141 31
t-111 82.5t-73 119t-26 140.5t26 140.5t73 119t111 82.5t141 31q76 0 141 -31t111.5 -82.5t73 -119t26.5 -140.5t-26.5 -140.5t-73 -119t-111.5 -82.5t-141 -31z" />
    <glyph glyph-name="Otilde" unicode="&#xd5;" horiz-adv-x="801" 
d="M564 825q-14 -39 -32.5 -52t-38.5 -13t-44 6t-48 13.5t-46 13.5t-37 6q-12 0 -23 -5t-20 -11.5t-16 -13t-11 -9.5l-4.5 -4.5t-4.5 -2.5t-4 2t-2 4q0 5 8 11q24 23 38 37.5t24.5 22t20 10t23.5 2.5q13 0 34 -5.5t43.5 -12.5t44.5 -12.5t37 -5.5q14 0 26 6t23 22q4 6 7 6
q4 0 4 -5t-2 -10zM400 6q70 0 117 30.5t76 80t41.5 113t12.5 130.5t-12.5 130.5t-41.5 113t-76 80t-117 30.5t-117 -30.5t-76 -80t-41.5 -113t-12.5 -130.5t12.5 -130.5t41.5 -113t76 -80t117 -30.5zM400 -13q-77 0 -141 31t-111 82.5t-73 119t-26 140.5t26 140.5t73 119
t111 82.5t141 31q76 0 141 -31t111.5 -82.5t73 -119t26.5 -140.5t-26.5 -140.5t-73 -119t-111.5 -82.5t-141 -31z" />
    <glyph glyph-name="Odieresis" unicode="&#xd6;" horiz-adv-x="801" 
d="M548 812q0 -21 -15 -36.5t-38 -15.5q-21 0 -36.5 15.5t-15.5 36.5q0 23 15.5 38t36.5 15q23 0 38 -15t15 -38zM357 812q0 -21 -15 -36.5t-38 -15.5q-21 0 -36.5 15.5t-15.5 36.5q0 23 15.5 38t36.5 15q23 0 38 -15t15 -38zM400 6q70 0 117 30.5t76 80t41.5 113
t12.5 130.5t-12.5 130.5t-41.5 113t-76 80t-117 30.5t-117 -30.5t-76 -80t-41.5 -113t-12.5 -130.5t12.5 -130.5t41.5 -113t76 -80t117 -30.5zM400 -13q-77 0 -141 31t-111 82.5t-73 119t-26 140.5t26 140.5t73 119t111 82.5t141 31q76 0 141 -31t111.5 -82.5t73 -119
t26.5 -140.5t-26.5 -140.5t-73 -119t-111.5 -82.5t-141 -31z" />
    <glyph glyph-name="multiply" unicode="&#xd7;" horiz-adv-x="391" 
d="M195 207l-101 -102l-36 35l102 101l-99 100l37 37l99 -100l97 97l34 -35l-96 -96l101 -101l-37 -37z" />
    <glyph glyph-name="Oslash" unicode="&#xd8;" horiz-adv-x="801" 
d="M293 29q46 -23 107 -23q70 0 117 30.5t76 80t41.5 113t12.5 130.5q0 46 -6 91.5t-18.5 86t-33.5 74.5t-51 58zM508 690q-23 11 -49.5 17.5t-58.5 6.5q-70 0 -117 -30.5t-76 -80t-41.5 -113t-12.5 -130.5q0 -46 6 -91.5t19 -86t34 -75t51 -58.5zM219 -68l33 89
q-46 23 -83.5 58.5t-64 80t-41 95.5t-14.5 105q0 73 26 140.5t73 119t111 82.5t141 31q62 0 116 -21l29 75h38l-35 -89q46 -23 84 -58.5t64.5 -80t41 -95t14.5 -104.5q0 -73 -26.5 -140.5t-73 -119t-111.5 -82.5t-141 -31q-61 0 -116 20l-28 -75h-37z" />
    <glyph glyph-name="Ugrave" unicode="&#xd9;" horiz-adv-x="764" 
d="M403 760l-102 127h80l57 -127h-35zM616 622q0 24 -7 38.5t-18.5 22.5t-26.5 10.5t-32 2.5h-17q-10 0 -10 10q0 9 10 9q19 0 31.5 -0.5t23.5 -1t23 -1t32 -0.5t32.5 0.5t23 1t23 1t32.5 0.5q10 0 10 -9q0 -10 -10 -10h-17q-21 0 -37 -3t-26.5 -13t-15.5 -30t-5 -53v-356
q0 -59 -8.5 -106t-32 -80t-65.5 -50.5t-108 -17.5q-90 0 -147.5 15.5t-90 48.5t-44.5 85t-12 125v435h-98q-11 0 -11 10q0 9 11 9q39 -1 73 -2t73 -1t73 1t73 2q11 0 11 -9q0 -10 -11 -10h-95v-450q0 -56 3.5 -100.5t22.5 -75.5t58 -47.5t111 -16.5q59 0 97 14.5t59.5 43.5
t30 72t8.5 100v386z" />
    <glyph glyph-name="Uacute" unicode="&#xda;" horiz-adv-x="764" 
d="M381 760l57 127h81l-103 -127h-35zM616 622q0 24 -7 38.5t-18.5 22.5t-26.5 10.5t-32 2.5h-17q-10 0 -10 10q0 9 10 9q19 0 31.5 -0.5t23.5 -1t23 -1t32 -0.5t32.5 0.5t23 1t23 1t32.5 0.5q10 0 10 -9q0 -10 -10 -10h-17q-21 0 -37 -3t-26.5 -13t-15.5 -30t-5 -53v-356
q0 -59 -8.5 -106t-32 -80t-65.5 -50.5t-108 -17.5q-90 0 -147.5 15.5t-90 48.5t-44.5 85t-12 125v435h-98q-11 0 -11 10q0 9 11 9q39 -1 73 -2t73 -1t73 1t73 2q11 0 11 -9q0 -10 -11 -10h-95v-450q0 -56 3.5 -100.5t22.5 -75.5t58 -47.5t111 -16.5q59 0 97 14.5t59.5 43.5
t30 72t8.5 100v386z" />
    <glyph glyph-name="Ucircumflex" unicode="&#xdb;" horiz-adv-x="764" 
d="M543 760l-131 87l-131 -87l-15 13l132 119h27l132 -119zM616 622q0 24 -7 38.5t-18.5 22.5t-26.5 10.5t-32 2.5h-17q-10 0 -10 10q0 9 10 9q19 0 31.5 -0.5t23.5 -1t23 -1t32 -0.5t32.5 0.5t23 1t23 1t32.5 0.5q10 0 10 -9q0 -10 -10 -10h-17q-21 0 -37 -3t-26.5 -13
t-15.5 -30t-5 -53v-356q0 -59 -8.5 -106t-32 -80t-65.5 -50.5t-108 -17.5q-90 0 -147.5 15.5t-90 48.5t-44.5 85t-12 125v435h-98q-11 0 -11 10q0 9 11 9q39 -1 73 -2t73 -1t73 1t73 2q11 0 11 -9q0 -10 -11 -10h-95v-450q0 -56 3.5 -100.5t22.5 -75.5t58 -47.5t111 -16.5
q59 0 97 14.5t59.5 43.5t30 72t8.5 100v386z" />
    <glyph glyph-name="Udieresis" unicode="&#xdc;" horiz-adv-x="764" 
d="M567 812q0 -21 -15.5 -36.5t-38.5 -15.5q-21 0 -36.5 15.5t-15.5 36.5q0 23 15.5 38t36.5 15q23 0 38.5 -15t15.5 -38zM376 812q0 -21 -15.5 -36.5t-38.5 -15.5q-21 0 -36.5 15.5t-15.5 36.5q0 23 15.5 38t36.5 15q23 0 38.5 -15t15.5 -38zM616 622q0 24 -7 38.5
t-18.5 22.5t-26.5 10.5t-32 2.5h-17q-10 0 -10 10q0 9 10 9q19 0 31.5 -0.5t23.5 -1t23 -1t32 -0.5t32.5 0.5t23 1t23 1t32.5 0.5q10 0 10 -9q0 -10 -10 -10h-17q-21 0 -37 -3t-26.5 -13t-15.5 -30t-5 -53v-356q0 -59 -8.5 -106t-32 -80t-65.5 -50.5t-108 -17.5
q-90 0 -147.5 15.5t-90 48.5t-44.5 85t-12 125v435h-98q-11 0 -11 10q0 9 11 9q39 -1 73 -2t73 -1t73 1t73 2q11 0 11 -9q0 -10 -11 -10h-95v-450q0 -56 3.5 -100.5t22.5 -75.5t58 -47.5t111 -16.5q59 0 97 14.5t59.5 43.5t30 72t8.5 100v386z" />
    <glyph glyph-name="Yacute" unicode="&#xdd;" horiz-adv-x="575" 
d="M285 760l57 127h81l-103 -127h-35zM432 16q5 0 8 -3t3 -6q0 -10 -11 -10q-38 1 -71.5 2t-71.5 1q-23 0 -47 -0.5t-44 -1t-35.5 -1t-22.5 -0.5q-11 0 -11 10q0 3 3 6t8 3h98v327l-138 293q-10 21 -18.5 33t-16 18t-14 7.5t-13.5 1.5h-48q-11 0 -11 10q0 9 11 9
q22 0 39 -0.5t33.5 -1t35.5 -1t44 -0.5q30 0 51.5 0.5t36.5 1t24.5 1t16.5 0.5q10 0 10 -9q0 -10 -10 -10h-35q-18 0 -31.5 -2.5t-13.5 -16.5q0 -10 9 -26l132 -281l97 220q7 17 12 33.5t5 33.5q0 24 -11.5 31.5t-37.5 7.5h-20q-10 0 -10 10q0 9 10 9q19 0 30 -0.5t20 -1
t19.5 -1t28.5 -0.5q22 0 38.5 0.5t29.5 1t23.5 1t20.5 0.5q11 0 11 -9q0 -10 -11 -10h-17q-17 0 -31.5 -2t-28 -9.5t-26 -23.5t-24.5 -44l-123 -274v-327h95z" />
    <glyph glyph-name="Thorn" unicode="&#xde;" horiz-adv-x="616" 
d="M242 194q39 0 81.5 3t78.5 18.5t59.5 49t23.5 95.5t-24 96t-60 50.5t-79 20t-80 3.5v-336zM337 16q5 0 7.5 -3t2.5 -6q0 -10 -10 -10q-38 1 -72 2t-72 1q-23 0 -47 -0.5t-44 -1t-35.5 -1t-22.5 -0.5q-11 0 -11 10q0 3 3 6t8 3h98v680h-98q-11 0 -11 10q0 9 11 9
q38 -1 71.5 -2t71.5 -1q23 0 47 0.5t44.5 1t36 1t22.5 0.5q10 0 10 -9q0 -10 -10 -10h-95v-150q20 0 34.5 1t39.5 1q39 0 87 -5.5t89 -24t69 -54t28 -94.5q0 -50 -19.5 -83.5t-51 -55t-70.5 -33t-77.5 -16.5t-72.5 -6t-56 -1v-159h95z" />
    <glyph glyph-name="germandbls" unicode="&#xdf;" horiz-adv-x="894" 
d="M849 142q0 -37 -13 -65t-35 -47t-51 -29t-60 -10q-27 0 -49 6.5t-39 14.5t-31.5 14.5t-26.5 6.5q-10 0 -17 -5q-6 -6 -6 -19q0 -14 -7 -14q-8 0 -8 14q0 11 1.5 55t1.5 107q0 5 1 7.5t7 2.5q4 0 6 -2t3 -11q5 -48 24 -79t43.5 -50t49 -26.5t40.5 -7.5q59 0 83.5 27
t24.5 63q0 37 -21 58t-52.5 34t-68 23t-68 26t-52.5 42.5t-21 72.5q0 35 12.5 61t33 43.5t47.5 26.5t56 9q27 0 47 -6.5t34.5 -15t25.5 -15t20 -6.5q10 0 10 8.5t1 21.5q0 12 7 12q8 0 8 -10q1 -44 3 -71t3.5 -42t2.5 -21t1 -7q0 -5 -1 -8t-6 -3q-7 0 -10 14q-5 19 -14.5 43
t-26.5 44.5t-42.5 34.5t-61.5 14q-41 0 -66 -19t-25 -56q0 -35 21 -54.5t52 -32.5t68 -24t68 -28.5t52 -46t21 -75.5zM402 142q0 -37 -13 -65t-35 -47t-51 -29t-60 -10q-27 0 -49 6.5t-39 14.5t-31.5 14.5t-26.5 6.5q-10 0 -17 -5q-6 -6 -6 -19q0 -14 -8 -14q-7 0 -7 14
q0 11 1.5 55t1.5 107q0 5 1 7.5t7 2.5q4 0 6 -2t3 -11q5 -48 24 -79t43.5 -50t49 -26.5t40.5 -7.5q58 0 83 27t25 63q0 37 -21 58t-52.5 34t-68 23t-68 26t-52.5 42.5t-21 72.5q0 35 12.5 61t33 43.5t47.5 26.5t56 9q27 0 46.5 -6.5t34.5 -15t26 -15t20 -6.5q10 0 10 8.5
t1 21.5q0 12 7 12q8 0 8 -10q1 -44 2.5 -71t3 -42t2.5 -21t1 -7q0 -5 -0.5 -8t-5.5 -3q-7 0 -10 14q-5 19 -14.5 43t-26.5 44.5t-42.5 34.5t-61.5 14q-41 0 -66 -19t-25 -56q0 -35 21 -54.5t52 -32.5t68 -24t68 -28.5t52 -46t21 -75.5z" />
    <glyph glyph-name="agrave" unicode="&#xe0;" horiz-adv-x="498" 
d="M266 541l-103 128h81l57 -128h-35zM203 374l-76 -194h150zM499 10q7 0 7 -5q0 -7 -7 -7q-26 1 -55.5 1.5t-53.5 0.5q-17 0 -34.5 -0.5t-32.5 -0.5t-25.5 -0.5t-13.5 -0.5q-7 0 -8.5 2t-1.5 4q0 6 7 6h16q14 0 24 2.5t10 15.5q0 5 -1 11.5t-5 15.5l-43 112h-161l-32 -82
q-4 -9 -8 -19.5t-4 -21.5q0 -34 59 -34h5q7 0 7 -5q0 -7 -7 -7q-13 0 -19.5 0.5t-11 1t-10 0.5h-17.5q-33 0 -52 -1t-33 -1q-7 0 -7 7q0 3 2 3.5t5 1.5q8 2 16.5 2t18 4.5t19 17.5t20.5 40l150 378q11 26 17.5 32.5t14.5 6.5q5 0 10 -5t15 -32l150 -395q7 -18 12 -28
t10.5 -14.5t12.5 -5.5t18 -1h17z" />
    <glyph glyph-name="aacute" unicode="&#xe1;" horiz-adv-x="498" 
d="M201 541l57 128h81l-103 -128h-35zM203 374l-76 -194h150zM499 10q7 0 7 -5q0 -7 -7 -7q-26 1 -55.5 1.5t-53.5 0.5q-17 0 -34.5 -0.5t-32.5 -0.5t-25.5 -0.5t-13.5 -0.5q-7 0 -8.5 2t-1.5 4q0 6 7 6h16q14 0 24 2.5t10 15.5q0 5 -1 11.5t-5 15.5l-43 112h-161l-32 -82
q-4 -9 -8 -19.5t-4 -21.5q0 -34 59 -34h5q7 0 7 -5q0 -7 -7 -7q-13 0 -19.5 0.5t-11 1t-10 0.5h-17.5q-33 0 -52 -1t-33 -1q-7 0 -7 7q0 3 2 3.5t5 1.5q8 2 16.5 2t18 4.5t19 17.5t20.5 40l150 378q11 26 17.5 32.5t14.5 6.5q5 0 10 -5t15 -32l150 -395q7 -18 12 -28
t10.5 -14.5t12.5 -5.5t18 -1h17z" />
    <glyph glyph-name="acircumflex" unicode="&#xe2;" horiz-adv-x="498" 
d="M381 541l-131 88l-131 -88l-15 14l132 119h27l132 -119zM203 374l-76 -194h150zM499 10q7 0 7 -5q0 -7 -7 -7q-26 1 -55.5 1.5t-53.5 0.5q-17 0 -34.5 -0.5t-32.5 -0.5t-25.5 -0.5t-13.5 -0.5q-7 0 -8.5 2t-1.5 4q0 6 7 6h16q14 0 24 2.5t10 15.5q0 5 -1 11.5t-5 15.5
l-43 112h-161l-32 -82q-4 -9 -8 -19.5t-4 -21.5q0 -34 59 -34h5q7 0 7 -5q0 -7 -7 -7q-13 0 -19.5 0.5t-11 1t-10 0.5h-17.5q-33 0 -52 -1t-33 -1q-7 0 -7 7q0 3 2 3.5t5 1.5q8 2 16.5 2t18 4.5t19 17.5t20.5 40l150 378q11 26 17.5 32.5t14.5 6.5q5 0 10 -5t15 -32
l150 -395q7 -18 12 -28t10.5 -14.5t12.5 -5.5t18 -1h17z" />
    <glyph glyph-name="atilde" unicode="&#xe3;" horiz-adv-x="498" 
d="M414 606q-14 -38 -32.5 -51.5t-37.5 -13.5q-20 0 -44 6t-48 13.5t-46.5 13.5t-37.5 6q-11 0 -22 -4.5t-20.5 -11t-16.5 -13t-10 -10.5q-2 -1 -5 -3.5t-5 -2.5t-4 2t-2 4q0 3 8 11q24 23 38 37t24.5 21.5t20 10t23.5 2.5t34.5 -5.5t43 -12.5t44.5 -12.5t37 -5.5
q14 0 26.5 6.5t23.5 22.5q3 5 6 5q5 0 5 -4q0 -2 -3 -11zM203 374l-76 -194h150zM499 10q7 0 7 -5q0 -7 -7 -7q-26 1 -55.5 1.5t-53.5 0.5q-17 0 -34.5 -0.5t-32.5 -0.5t-25.5 -0.5t-13.5 -0.5q-7 0 -8.5 2t-1.5 4q0 6 7 6h16q14 0 24 2.5t10 15.5q0 5 -1 11.5t-5 15.5
l-43 112h-161l-32 -82q-4 -9 -8 -19.5t-4 -21.5q0 -34 59 -34h5q7 0 7 -5q0 -7 -7 -7q-13 0 -19.5 0.5t-11 1t-10 0.5h-17.5q-33 0 -52 -1t-33 -1q-7 0 -7 7q0 3 2 3.5t5 1.5q8 2 16.5 2t18 4.5t19 17.5t20.5 40l150 378q11 26 17.5 32.5t14.5 6.5q5 0 10 -5t15 -32
l150 -395q7 -18 12 -28t10.5 -14.5t12.5 -5.5t18 -1h17z" />
    <glyph glyph-name="adieresis" unicode="&#xe4;" horiz-adv-x="498" 
d="M398 594q0 -22 -15.5 -37.5t-37.5 -15.5t-37.5 15.5t-15.5 37.5t15.5 37.5t37.5 15.5t37.5 -15.5t15.5 -37.5zM207 594q0 -22 -15.5 -37.5t-37.5 -15.5t-37 15.5t-15 37.5t15 37.5t37 15.5t37.5 -15.5t15.5 -37.5zM203 374l-76 -194h150zM499 10q7 0 7 -5q0 -7 -7 -7
q-26 1 -55.5 1.5t-53.5 0.5q-17 0 -34.5 -0.5t-32.5 -0.5t-25.5 -0.5t-13.5 -0.5q-7 0 -8.5 2t-1.5 4q0 6 7 6h16q14 0 24 2.5t10 15.5q0 5 -1 11.5t-5 15.5l-43 112h-161l-32 -82q-4 -9 -8 -19.5t-4 -21.5q0 -34 59 -34h5q7 0 7 -5q0 -7 -7 -7q-13 0 -19.5 0.5t-11 1
t-10 0.5h-17.5q-33 0 -52 -1t-33 -1q-7 0 -7 7q0 3 2 3.5t5 1.5q8 2 16.5 2t18 4.5t19 17.5t20.5 40l150 378q11 26 17.5 32.5t14.5 6.5q5 0 10 -5t15 -32l150 -395q7 -18 12 -28t10.5 -14.5t12.5 -5.5t18 -1h17z" />
    <glyph glyph-name="aring" unicode="&#xe5;" horiz-adv-x="498" 
d="M250 557q19 0 29.5 14.5t10.5 35.5q0 22 -10.5 36.5t-29.5 14.5q-20 0 -30 -14.5t-10 -36.5q0 -21 10 -35.5t30 -14.5zM328 607q0 -17 -7 -29.5t-18.5 -20.5t-25.5 -12t-27 -4q-14 0 -27.5 4t-25 12t-18.5 20.5t-7 29.5t7 29.5t18.5 20.5t25 12t27.5 4q13 0 27 -4
t25.5 -12t18.5 -20.5t7 -29.5zM203 374l-76 -194h150zM499 10q7 0 7 -5q0 -7 -7 -7q-26 1 -55.5 1.5t-53.5 0.5q-17 0 -34.5 -0.5t-32.5 -0.5t-25.5 -0.5t-13.5 -0.5q-7 0 -8.5 2t-1.5 4q0 6 7 6h16q14 0 24 2.5t10 15.5q0 5 -1 11.5t-5 15.5l-43 112h-161l-32 -82
q-4 -9 -8 -19.5t-4 -21.5q0 -34 59 -34h5q7 0 7 -5q0 -7 -7 -7q-13 0 -19.5 0.5t-11 1t-10 0.5h-17.5q-33 0 -52 -1t-33 -1q-7 0 -7 7q0 3 2 3.5t5 1.5q8 2 16.5 2t18 4.5t19 17.5t20.5 40l150 378q11 26 17.5 32.5t14.5 6.5q5 0 10 -5t15 -32l150 -395q7 -18 12 -28
t10.5 -14.5t12.5 -5.5t18 -1h17z" />
    <glyph glyph-name="ae" unicode="&#xe6;" horiz-adv-x="726" 
d="M320 445l-151 -257h151v257zM480 10q60 0 93.5 8t50.5 24.5t23.5 41t11.5 58.5q1 12 6 12t5.5 -3.5t0.5 -8.5q-1 -21 -1.5 -44.5t-0.5 -37.5t0.5 -19t0.5 -13v-15t1 -15q-10 0 -27.5 0.5t-51.5 1t-88 0.5h-137q-26 0 -55.5 -1t-55.5 -1q-7 0 -7 6t7 6h64v166h-157
l-48 -81q-19 -34 -19 -52q0 -33 61 -33h8q6 0 6 -6t-6 -6q-26 1 -48.5 1.5t-43.5 0.5q-15 0 -25 -0.5t-18 -0.5t-17 -0.5t-23 -0.5q-7 0 -7 6t7 6h6q34 0 52 13.5t34 40.5l237 402h-63q-7 0 -7 7t7 7q26 -1 57 -1.5t54 -0.5h132.5h87.5t51.5 0.5t24.5 1.5q0 -48 2 -87.5
t2 -57.5q0 -10 -4 -10q-7 0 -8 10q-5 30 -11.5 54t-22 41t-45 26.5t-80.5 9.5h-79v-219h24q35 0 54.5 6.5t29.5 18.5t13 30t5 41q0 10 7 10q5 0 5.5 -2.5t0.5 -8.5q-2 -36 -2.5 -55.5t-0.5 -42.5q0 -17 0.5 -25.5t0.5 -18t0.5 -23t0.5 -39.5q0 -12 -5 -12q-6 0 -6 12
q-1 35 -10 54.5t-23 29t-32 11.5t-38 2h-24v-225h63z" />
    <glyph glyph-name="ccedilla" unicode="&#xe7;" horiz-adv-x="525" 
d="M245 -67q25 13 52 13q43 0 68 -20.5t25 -49.5q0 -11 -5 -26t-16.5 -28.5t-31 -22.5t-49.5 -9q-6 0 -20 1.5t-28 4.5t-24.5 7t-10.5 8t3 4q2 0 17 -3.5t27 -3.5q15 0 29.5 4t26 12.5t18.5 22t7 33.5q0 25 -16 38t-36 13q-15 0 -29.5 -7.5t-23.5 -22.5q-7 -12 -11 -12
q-5 0 -6.5 2t-1.5 4l1.5 2.5t6.5 12.5t15.5 29.5t28.5 53.5q-48 6 -88 27.5t-68.5 54.5t-44 75.5t-15.5 90.5q0 49 16.5 94.5t47 80t74 55.5t98.5 21q29 0 54.5 -7.5t56.5 -27.5q8 -5 13.5 -8t10.5 -3q3 0 6 2.5t3 8.5q0 4 -1 9t-1 10q0 7 7 7t9 -11q3 -13 5.5 -22
t6.5 -20.5t10 -27t17 -40.5q2 -4 2 -5q0 -6 -6 -6q-4 0 -5.5 2t-4.5 7q-43 66 -89 92.5t-92 26.5q-34 0 -59.5 -20.5t-43 -53.5t-26 -74.5t-8.5 -83.5q0 -51 6.5 -95.5t24 -77t48 -51.5t77.5 -19q56 0 99.5 29t69.5 79q2 5 5 5q2 0 5 -1t3 -4q0 -1 -2 -5
q-30 -57 -74.5 -86.5t-113.5 -29.5q-5 0 -10 0.5t-10 0.5z" />
    <glyph glyph-name="egrave" unicode="&#xe8;" horiz-adv-x="511" 
d="M274 541l-102 128h80l57 -128h-35zM265 10q59 0 92 8t50.5 24t24 41t11.5 59q1 12 7 12q5 0 5.5 -3.5t0.5 -8.5q-1 -21 -1.5 -44.5t-0.5 -37.5v-30.5t2 -31.5q-11 0 -29 0.5t-51 1t-87 0.5h-137q-26 0 -54.5 -1t-56.5 -1q-7 0 -7 6t7 6h62v456h-62q-7 0 -7 7t7 7
q26 -1 56.5 -1.5t54.5 -0.5h132.5h87.5t51.5 0.5t23.5 1.5q0 -48 2.5 -87t2.5 -57q0 -8 -0.5 -9.5t-3.5 -1.5q-8 0 -8 10q-5 30 -11.5 54t-22.5 41t-45 26.5t-80 9.5h-80v-219h25q34 0 53.5 5.5t29.5 17.5t13 30t5 43q0 10 8 10q5 0 5.5 -2.5t0.5 -9.5q-1 -33 -2 -52t-1 -43
q0 -18 0.5 -27t0.5 -18t0.5 -22.5t0.5 -40.5q0 -8 -1 -10t-3 -2q-8 0 -8 12q-2 32 -8 51t-18 29.5t-30.5 13.5t-45.5 3h-25v-225h64z" />
    <glyph glyph-name="eacute" unicode="&#xe9;" horiz-adv-x="511" 
d="M213 541l57 128h81l-102 -128h-36zM265 10q59 0 92 8t50.5 24t24 41t11.5 59q1 12 7 12q5 0 5.5 -3.5t0.5 -8.5q-1 -21 -1.5 -44.5t-0.5 -37.5v-30.5t2 -31.5q-11 0 -29 0.5t-51 1t-87 0.5h-137q-26 0 -54.5 -1t-56.5 -1q-7 0 -7 6t7 6h62v456h-62q-7 0 -7 7t7 7
q26 -1 56.5 -1.5t54.5 -0.5h132.5h87.5t51.5 0.5t23.5 1.5q0 -48 2.5 -87t2.5 -57q0 -8 -0.5 -9.5t-3.5 -1.5q-8 0 -8 10q-5 30 -11.5 54t-22.5 41t-45 26.5t-80 9.5h-80v-219h25q34 0 53.5 5.5t29.5 17.5t13 30t5 43q0 10 8 10q5 0 5.5 -2.5t0.5 -9.5q-1 -33 -2 -52t-1 -43
q0 -18 0.5 -27t0.5 -18t0.5 -22.5t0.5 -40.5q0 -8 -1 -10t-3 -2q-8 0 -8 12q-2 32 -8 51t-18 29.5t-30.5 13.5t-45.5 3h-25v-225h64z" />
    <glyph glyph-name="ecircumflex" unicode="&#xea;" horiz-adv-x="511" 
d="M390 541l-131 88l-131 -88l-14 14l132 119h26l132 -119zM265 10q59 0 92 8t50.5 24t24 41t11.5 59q1 12 7 12q5 0 5.5 -3.5t0.5 -8.5q-1 -21 -1.5 -44.5t-0.5 -37.5v-30.5t2 -31.5q-11 0 -29 0.5t-51 1t-87 0.5h-137q-26 0 -54.5 -1t-56.5 -1q-7 0 -7 6t7 6h62v456h-62
q-7 0 -7 7t7 7q26 -1 56.5 -1.5t54.5 -0.5h132.5h87.5t51.5 0.5t23.5 1.5q0 -48 2.5 -87t2.5 -57q0 -8 -0.5 -9.5t-3.5 -1.5q-8 0 -8 10q-5 30 -11.5 54t-22.5 41t-45 26.5t-80 9.5h-80v-219h25q34 0 53.5 5.5t29.5 17.5t13 30t5 43q0 10 8 10q5 0 5.5 -2.5t0.5 -9.5
q-1 -33 -2 -52t-1 -43q0 -18 0.5 -27t0.5 -18t0.5 -22.5t0.5 -40.5q0 -8 -1 -10t-3 -2q-8 0 -8 12q-2 32 -8 51t-18 29.5t-30.5 13.5t-45.5 3h-25v-225h64z" />
    <glyph glyph-name="edieresis" unicode="&#xeb;" horiz-adv-x="511" 
d="M412 594q0 -22 -15.5 -37.5t-37.5 -15.5t-37 15.5t-15 37.5t15 37.5t37 15.5t37.5 -15.5t15.5 -37.5zM221 594q0 -22 -15.5 -37.5t-37.5 -15.5t-37 15.5t-15 37.5t15 37.5t37 15.5t37.5 -15.5t15.5 -37.5zM265 10q59 0 92 8t50.5 24t24 41t11.5 59q1 12 7 12
q5 0 5.5 -3.5t0.5 -8.5q-1 -21 -1.5 -44.5t-0.5 -37.5v-30.5t2 -31.5q-11 0 -29 0.5t-51 1t-87 0.5h-137q-26 0 -54.5 -1t-56.5 -1q-7 0 -7 6t7 6h62v456h-62q-7 0 -7 7t7 7q26 -1 56.5 -1.5t54.5 -0.5h132.5h87.5t51.5 0.5t23.5 1.5q0 -48 2.5 -87t2.5 -57q0 -8 -0.5 -9.5
t-3.5 -1.5q-8 0 -8 10q-5 30 -11.5 54t-22.5 41t-45 26.5t-80 9.5h-80v-219h25q34 0 53.5 5.5t29.5 17.5t13 30t5 43q0 10 8 10q5 0 5.5 -2.5t0.5 -9.5q-1 -33 -2 -52t-1 -43q0 -18 0.5 -27t0.5 -18t0.5 -22.5t0.5 -40.5q0 -8 -1 -10t-3 -2q-8 0 -8 12q-2 32 -8 51t-18 29.5
t-30.5 13.5t-45.5 3h-25v-225h64z" />
    <glyph glyph-name="igrave" unicode="&#xec;" horiz-adv-x="305" 
d="M158 541l-103 128h81l57 -128h-35zM264 10q7 0 7 -6t-7 -6q-24 1 -56.5 1.5t-56.5 0.5q-16 0 -33.5 -0.5t-32.5 -0.5t-26.5 -0.5t-14.5 -0.5q-7 0 -8.5 1.5t-1.5 3.5q0 7 6 7h63v456h-63q-6 0 -6 7t6 7q25 -1 56.5 -1.5t54.5 -0.5q16 0 34 0.5t34 0.5t27.5 0.5t14.5 0.5
q8 0 9 -2t1 -4q0 -8 -7 -8h-63v-456h63z" />
    <glyph glyph-name="iacute" unicode="&#xed;" horiz-adv-x="305" 
d="M118 541l57 128h81l-103 -128h-35zM264 10q7 0 7 -6t-7 -6q-24 1 -56.5 1.5t-56.5 0.5q-16 0 -33.5 -0.5t-32.5 -0.5t-26.5 -0.5t-14.5 -0.5q-7 0 -8.5 1.5t-1.5 3.5q0 7 6 7h63v456h-63q-6 0 -6 7t6 7q25 -1 56.5 -1.5t54.5 -0.5q16 0 34 0.5t34 0.5t27.5 0.5t14.5 0.5
q8 0 9 -2t1 -4q0 -8 -7 -8h-63v-456h63z" />
    <glyph glyph-name="icircumflex" unicode="&#xee;" horiz-adv-x="305" 
d="M284 541l-131 88l-131 -88l-14 14l132 119h27l132 -119zM264 10q7 0 7 -6t-7 -6q-24 1 -56.5 1.5t-56.5 0.5q-16 0 -33.5 -0.5t-32.5 -0.5t-26.5 -0.5t-14.5 -0.5q-7 0 -8.5 1.5t-1.5 3.5q0 7 6 7h63v456h-63q-6 0 -6 7t6 7q25 -1 56.5 -1.5t54.5 -0.5q16 0 34 0.5
t34 0.5t27.5 0.5t14.5 0.5q8 0 9 -2t1 -4q0 -8 -7 -8h-63v-456h63z" />
    <glyph glyph-name="idieresis" unicode="&#xef;" horiz-adv-x="305" 
d="M301 594q0 -22 -15 -37.5t-38 -15.5q-21 0 -36.5 15.5t-15.5 37.5t15.5 37.5t36.5 15.5q23 0 38 -15.5t15 -37.5zM111 594q0 -22 -15.5 -37.5t-38.5 -15.5q-21 0 -36.5 15.5t-15.5 37.5t15.5 37.5t36.5 15.5q23 0 38.5 -15.5t15.5 -37.5zM264 10q7 0 7 -6t-7 -6
q-24 1 -56.5 1.5t-56.5 0.5q-16 0 -33.5 -0.5t-32.5 -0.5t-26.5 -0.5t-14.5 -0.5q-7 0 -8.5 1.5t-1.5 3.5q0 7 6 7h63v456h-63q-6 0 -6 7t6 7q25 -1 56.5 -1.5t54.5 -0.5q16 0 34 0.5t34 0.5t27.5 0.5t14.5 0.5q8 0 9 -2t1 -4q0 -8 -7 -8h-63v-456h63z" />
    <glyph glyph-name="eth" unicode="&#xf0;" horiz-adv-x="598" 
d="M201 219v-207q46 0 80.5 2.5t63.5 16.5q57 26 82 80t25 129q0 64 -17.5 107.5t-50 70t-79 37.5t-104.5 11v-208h74q28 0 37 10q5 5 7.5 8.5t4.5 3.5t2 -3q0 -1 -5 -19l-10 -30q-2 -7 -4 -8t-7 -1h-99zM103 219h-12q-15 0 -23 -1.5t-14 -7.5q-5 -5 -7 -8.5t-4 -3.5t-2 2
t1 6.5t3 12.5l10 31q2 6 4.5 7t6.5 1h37v208h-62q-7 0 -7 7t7 7q9 0 23.5 -0.5t30.5 -1t30.5 -0.5h24.5q28 0 54.5 1t48.5 1q88 0 146 -21.5t92.5 -56t48 -77t13.5 -83.5q0 -42 -14.5 -85.5t-49 -78.5t-93 -57t-146.5 -22h-20t-25.5 0.5t-27.5 0.5h-25q-16 0 -34 -0.5
t-33.5 -0.5t-26.5 -0.5t-14 -0.5q-7 0 -8.5 2t-1.5 4q0 6 7 6h62v209z" />
    <glyph glyph-name="ntilde" unicode="&#xf1;" horiz-adv-x="546" 
d="M441 606q-14 -38 -32.5 -51.5t-37.5 -13.5q-20 0 -44 6t-48.5 13.5t-46.5 13.5t-37 6q-12 0 -23 -4.5t-20 -11t-16 -13t-11 -10.5q-1 -1 -4 -3.5t-5 -2.5t-4 2t-2 4q0 3 8 11q24 23 38 37t24.5 21.5t20 10t23.5 2.5q13 0 34 -5.5t43.5 -12.5t44.5 -12.5t37 -5.5
q14 0 26 6.5t23 22.5q5 5 7 5q5 0 5 -4q0 -2 -3 -11zM118 439v-351q0 -19 1 -33.5t6 -24.5t16.5 -15t32.5 -5h5q2 0 4 -1t2 -5q0 -6 -6 -6q-13 0 -20 0.5t-12.5 1t-12 0.5h-17.5q-32 0 -47 -1t-28 -1q-8 0 -8 7q0 5 8 5h5q22 0 33.5 5t17 17t6.5 30.5t1 45.5v347
q-4 7 -15.5 9t-43.5 2h-5q-7 0 -7 7q0 2 1 4.5t6 2.5q18 -1 45.5 -1.5t49.5 -0.5h43.5t31.5 2l220 -323v212q0 27 -1 46t-6.5 30t-17.5 16t-34 5h-4q-7 0 -7 7t7 7q13 0 20.5 -0.5t13.5 -1t13 -0.5h18q32 0 44.5 1t26.5 1q7 0 7 -7t-7 -7h-4q-21 0 -32 -5t-16 -14.5t-6 -24
t-1 -33.5v-392q0 -11 -8 -11q-2 0 -6 2t-9 10z" />
    <glyph glyph-name="ograve" unicode="&#xf2;" horiz-adv-x="592" 
d="M301 541l-103 128h81l57 -128h-35zM296 4q46 0 76 19.5t46.5 52.5t23 75.5t6.5 89.5t-6.5 90t-23 76t-46.5 52.5t-76 19.5q-47 0 -76.5 -19.5t-46.5 -52.5t-23 -76t-6 -90t6 -89.5t23 -75.5t46.5 -52.5t76.5 -19.5zM549 241q0 -50 -20.5 -95t-55 -79.5t-80.5 -55
t-97 -20.5t-97 20.5t-80.5 55t-55 79.5t-20.5 95q0 49 20.5 94.5t55 80t80.5 55t97 20.5t97 -20.5t80.5 -55t55 -80t20.5 -94.5z" />
    <glyph glyph-name="oacute" unicode="&#xf3;" horiz-adv-x="592" 
d="M245 541l57 128h81l-102 -128h-36zM296 4q46 0 76 19.5t46.5 52.5t23 75.5t6.5 89.5t-6.5 90t-23 76t-46.5 52.5t-76 19.5q-47 0 -76.5 -19.5t-46.5 -52.5t-23 -76t-6 -90t6 -89.5t23 -75.5t46.5 -52.5t76.5 -19.5zM549 241q0 -50 -20.5 -95t-55 -79.5t-80.5 -55
t-97 -20.5t-97 20.5t-80.5 55t-55 79.5t-20.5 95q0 49 20.5 94.5t55 80t80.5 55t97 20.5t97 -20.5t80.5 -55t55 -80t20.5 -94.5z" />
    <glyph glyph-name="ocircumflex" unicode="&#xf4;" horiz-adv-x="592" 
d="M427 541l-131 88l-131 -88l-15 14l133 119h26l132 -119zM296 4q46 0 76 19.5t46.5 52.5t23 75.5t6.5 89.5t-6.5 90t-23 76t-46.5 52.5t-76 19.5q-47 0 -76.5 -19.5t-46.5 -52.5t-23 -76t-6 -90t6 -89.5t23 -75.5t46.5 -52.5t76.5 -19.5zM549 241q0 -50 -20.5 -95
t-55 -79.5t-80.5 -55t-97 -20.5t-97 20.5t-80.5 55t-55 79.5t-20.5 95q0 49 20.5 94.5t55 80t80.5 55t97 20.5t97 -20.5t80.5 -55t55 -80t20.5 -94.5z" />
    <glyph glyph-name="otilde" unicode="&#xf5;" horiz-adv-x="592" 
d="M459 606q-14 -38 -32 -51.5t-38 -13.5t-44 6t-48 13.5t-46.5 13.5t-37.5 6q-11 0 -22 -4.5t-20.5 -11t-16.5 -13t-10 -10.5q-2 -1 -5 -3.5t-5 -2.5q-5 0 -5 6q0 4 7 11q24 23 38.5 37t25 21.5t20 10t23.5 2.5q13 0 34 -5.5t43.5 -12.5t44 -12.5t36.5 -5.5q14 0 26.5 6.5
t23.5 22.5q5 5 6 5q5 0 5 -4q0 -2 -3 -11zM296 4q46 0 76 19.5t46.5 52.5t23 75.5t6.5 89.5t-6.5 90t-23 76t-46.5 52.5t-76 19.5q-47 0 -76.5 -19.5t-46.5 -52.5t-23 -76t-6 -90t6 -89.5t23 -75.5t46.5 -52.5t76.5 -19.5zM549 241q0 -50 -20.5 -95t-55 -79.5t-80.5 -55
t-97 -20.5t-97 20.5t-80.5 55t-55 79.5t-20.5 95q0 49 20.5 94.5t55 80t80.5 55t97 20.5t97 -20.5t80.5 -55t55 -80t20.5 -94.5z" />
    <glyph glyph-name="odieresis" unicode="&#xf6;" horiz-adv-x="592" 
d="M444 594q0 -22 -15.5 -37.5t-37.5 -15.5t-37 15.5t-15 37.5t15 37.5t37 15.5t37.5 -15.5t15.5 -37.5zM253 594q0 -22 -15.5 -37.5t-37.5 -15.5t-37 15.5t-15 37.5t15 37.5t37 15.5t37.5 -15.5t15.5 -37.5zM296 4q46 0 76 19.5t46.5 52.5t23 75.5t6.5 89.5t-6.5 90t-23 76
t-46.5 52.5t-76 19.5q-47 0 -76.5 -19.5t-46.5 -52.5t-23 -76t-6 -90t6 -89.5t23 -75.5t46.5 -52.5t76.5 -19.5zM549 241q0 -50 -20.5 -95t-55 -79.5t-80.5 -55t-97 -20.5t-97 20.5t-80.5 55t-55 79.5t-20.5 95q0 49 20.5 94.5t55 80t80.5 55t97 20.5t97 -20.5t80.5 -55
t55 -80t20.5 -94.5z" />
    <glyph glyph-name="divide" unicode="&#xf7;" horiz-adv-x="428" 
d="M48 215v49h332v-49h-332zM214 329q-23 0 -39 16t-16 39t16 39t39 16t39 -16t16 -39t-16 -39t-39 -16zM214 37q-23 0 -39 16t-16 39t16 39t39 16t39 -16t16 -39t-16 -39t-39 -16z" />
    <glyph glyph-name="oslash" unicode="&#xf8;" horiz-adv-x="592" 
d="M214 27q30 -23 82 -23q46 0 76 19.5t46.5 52.5t23 75.5t6.5 89.5q0 58 -10.5 109.5t-39.5 85.5zM378 455q-16 11 -36 17.5t-46 6.5q-47 0 -76.5 -19.5t-46.5 -52.5t-23 -76t-6 -90q0 -60 10.5 -111.5t39.5 -84.5zM136 -85l47 104q-31 16 -57 39.5t-44.5 52.5t-28.5 62
t-10 68q0 49 20.5 94.5t55 80t80.5 55t97 20.5q23 0 46 -5t44 -13l46 103l25 -9l-47 -105q31 -16 56.5 -39.5t44 -52.5t28.5 -62t10 -67q0 -50 -20.5 -95t-55 -79.5t-80.5 -55t-97 -20.5q-24 0 -46.5 5t-42.5 13l-48 -106z" />
    <glyph glyph-name="ugrave" unicode="&#xf9;" 
d="M299 541l-102 128h80l57 -128h-35zM434 408q0 32 -14 45t-56 13h-4q-8 0 -8 7t8 7q12 0 21 -0.5t17 -1t16.5 -0.5h20.5q34 0 54 1t31 1q8 0 8 -7t-8 -7h-3q-22 0 -35.5 -3.5t-21.5 -11.5t-11 -23t-3 -37v-233q0 -47 -7 -78.5t-24.5 -51.5t-48.5 -28.5t-79 -8.5
q-103 0 -150 39t-47 131v305h-59q-6 0 -6 7t6 7q25 -1 54 -1.5t53 -0.5q16 0 34.5 0.5t34.5 0.5t27 0.5t14 0.5q7 0 8.5 -2t1.5 -4q0 -8 -7 -8h-63v-315q0 -44 5.5 -72.5t19 -45t35 -22.5t53.5 -6q40 0 66 8.5t41 26.5t20.5 46.5t5.5 67.5v254z" />
    <glyph glyph-name="uacute" unicode="&#xfa;" 
d="M268 541l57 128h81l-103 -128h-35zM434 408q0 32 -14 45t-56 13h-4q-8 0 -8 7t8 7q12 0 21 -0.5t17 -1t16.5 -0.5h20.5q34 0 54 1t31 1q8 0 8 -7t-8 -7h-3q-22 0 -35.5 -3.5t-21.5 -11.5t-11 -23t-3 -37v-233q0 -47 -7 -78.5t-24.5 -51.5t-48.5 -28.5t-79 -8.5
q-103 0 -150 39t-47 131v305h-59q-6 0 -6 7t6 7q25 -1 54 -1.5t53 -0.5q16 0 34.5 0.5t34.5 0.5t27 0.5t14 0.5q7 0 8.5 -2t1.5 -4q0 -8 -7 -8h-63v-315q0 -44 5.5 -72.5t19 -45t35 -22.5t53.5 -6q40 0 66 8.5t41 26.5t20.5 46.5t5.5 67.5v254z" />
    <glyph glyph-name="ucircumflex" unicode="&#xfb;" 
d="M425 541l-132 88l-131 -88l-14 14l132 119h27l132 -119zM434 408q0 32 -14 45t-56 13h-4q-8 0 -8 7t8 7q12 0 21 -0.5t17 -1t16.5 -0.5h20.5q34 0 54 1t31 1q8 0 8 -7t-8 -7h-3q-22 0 -35.5 -3.5t-21.5 -11.5t-11 -23t-3 -37v-233q0 -47 -7 -78.5t-24.5 -51.5
t-48.5 -28.5t-79 -8.5q-103 0 -150 39t-47 131v305h-59q-6 0 -6 7t6 7q25 -1 54 -1.5t53 -0.5q16 0 34.5 0.5t34.5 0.5t27 0.5t14 0.5q7 0 8.5 -2t1.5 -4q0 -8 -7 -8h-63v-315q0 -44 5.5 -72.5t19 -45t35 -22.5t53.5 -6q40 0 66 8.5t41 26.5t20.5 46.5t5.5 67.5v254z" />
    <glyph glyph-name="udieresis" unicode="&#xfc;" 
d="M442 594q0 -22 -15.5 -37.5t-38.5 -15.5q-21 0 -36.5 15.5t-15.5 37.5t15.5 37.5t36.5 15.5q23 0 38.5 -15.5t15.5 -37.5zM251 594q0 -22 -15.5 -37.5t-38.5 -15.5q-21 0 -36.5 15.5t-15.5 37.5t15.5 37.5t36.5 15.5q23 0 38.5 -15.5t15.5 -37.5zM434 408q0 32 -14 45
t-56 13h-4q-8 0 -8 7t8 7q12 0 21 -0.5t17 -1t16.5 -0.5h20.5q34 0 54 1t31 1q8 0 8 -7t-8 -7h-3q-22 0 -35.5 -3.5t-21.5 -11.5t-11 -23t-3 -37v-233q0 -47 -7 -78.5t-24.5 -51.5t-48.5 -28.5t-79 -8.5q-103 0 -150 39t-47 131v305h-59q-6 0 -6 7t6 7q25 -1 54 -1.5
t53 -0.5q16 0 34.5 0.5t34.5 0.5t27 0.5t14 0.5q7 0 8.5 -2t1.5 -4q0 -8 -7 -8h-63v-315q0 -44 5.5 -72.5t19 -45t35 -22.5t53.5 -6q40 0 66 8.5t41 26.5t20.5 46.5t5.5 67.5v254z" />
    <glyph glyph-name="yacute" unicode="&#xfd;" horiz-adv-x="438" 
d="M197 541l57 128h81l-102 -128h-36zM337 10q8 0 8 -5q0 -7 -8 -7q-24 1 -57 1.5t-56 0.5q-17 0 -34.5 -0.5t-32.5 -0.5t-25.5 -0.5t-13.5 -0.5q-8 0 -9.5 1.5t-1.5 3.5q0 7 7 7h62v197l-106 212q-8 16 -14 25.5t-11.5 14t-12.5 6t-18 1.5h-9q-7 0 -7 7t7 7q27 0 51 -1
t54 -1q15 0 32.5 0.5t33.5 0.5t27 0.5t13 0.5q7 0 8.5 -2t1.5 -4q0 -8 -8 -8h-13q-19 0 -27.5 -3.5t-8.5 -14.5q0 -9 8 -27l90 -174l70 144q13 25 13 42q0 33 -60 33h-7q-8 0 -8 7t8 7q13 0 20 -0.5t12.5 -1t12 -0.5h18.5q33 0 57 1t36 1q6 0 6 -7t-6 -7h-4q-17 0 -28 -3
t-19.5 -10.5t-15.5 -19t-16 -29.5l-82 -167v-227h63z" />
    <glyph glyph-name="thorn" unicode="&#xfe;" horiz-adv-x="464" 
d="M201 113q31 1 54.5 7t40 20t25 38.5t8.5 62.5q0 71 -30.5 98.5t-97.5 29.5v-256zM265 10q6 0 6 -6t-6 -6q-24 1 -57 1.5t-56 0.5q-17 0 -34.5 -0.5t-32.5 -0.5t-26.5 -0.5t-14.5 -0.5q-7 0 -8.5 1.5t-1.5 3.5q0 7 7 7h62v456h-62q-7 0 -7 7t7 7q25 -1 56 -1.5t55 -0.5
q16 0 34 0.5t33.5 0.5t27 0.5t14.5 0.5q8 0 9 -2t1 -4q0 -8 -6 -8h-64v-86h23q33 0 70 -4.5t68.5 -19t52 -42t20.5 -73.5t-21 -73.5t-54.5 -42t-75 -19.5t-83.5 -6v-90h64z" />
    <glyph glyph-name="ydieresis" unicode="&#xff;" horiz-adv-x="438" 
d="M377 594q0 -22 -15.5 -37.5t-37.5 -15.5t-37.5 15.5t-15.5 37.5t15.5 37.5t37.5 15.5t37.5 -15.5t15.5 -37.5zM186 594q0 -22 -15.5 -37.5t-37.5 -15.5t-37 15.5t-15 37.5t15 37.5t37 15.5t37.5 -15.5t15.5 -37.5zM337 10q8 0 8 -5q0 -7 -8 -7q-24 1 -57 1.5t-56 0.5
q-17 0 -34.5 -0.5t-32.5 -0.5t-25.5 -0.5t-13.5 -0.5q-8 0 -9.5 1.5t-1.5 3.5q0 7 7 7h62v197l-106 212q-8 16 -14 25.5t-11.5 14t-12.5 6t-18 1.5h-9q-7 0 -7 7t7 7q27 0 51 -1t54 -1q15 0 32.5 0.5t33.5 0.5t27 0.5t13 0.5q7 0 8.5 -2t1.5 -4q0 -8 -8 -8h-13
q-19 0 -27.5 -3.5t-8.5 -14.5q0 -9 8 -27l90 -174l70 144q13 25 13 42q0 33 -60 33h-7q-8 0 -8 7t8 7q13 0 20 -0.5t12.5 -1t12 -0.5h18.5q33 0 57 1t36 1q6 0 6 -7t-6 -7h-4q-17 0 -28 -3t-19.5 -10.5t-15.5 -19t-16 -29.5l-82 -167v-227h63z" />
    <glyph glyph-name="Amacron" unicode="&#x100;" horiz-adv-x="678" 
d="M187 779v28h295v-28h-295zM291 578l-99 -297h207zM689 16q5 0 7.5 -3t2.5 -6q0 -10 -10 -10q-22 0 -39 0.5l-34 1t-35.5 1t-43.5 0.5q-63 0 -103.5 -1.5t-47.5 -1.5q-10 0 -12 3t-2 6q0 10 10 10h61q22 0 32 3t10 17q0 6 -1.5 12t-4.5 14l-73 200h-221l-40 -120
q-8 -27 -13.5 -47.5t-5.5 -36.5q0 -42 50 -42h37q5 0 7.5 -3t2.5 -6q0 -10 -10 -10q-19 0 -33 0.5t-26.5 1t-25.5 1t-31 0.5q-45 0 -69 -1.5t-44 -1.5q-11 0 -11 10q0 3 3 6t8 3h17q45 0 70.5 18t39.5 61l204 604q5 15 9.5 24.5t10.5 9.5q4 0 6.5 -3t7.5 -15l234 -639
q7 -20 12.5 -31.5t11 -17.5t11 -8.5t11.5 -2.5h60z" />
    <glyph glyph-name="amacron" unicode="&#x101;" horiz-adv-x="498" 
d="M102 560v29h295v-29h-295zM203 374l-76 -194h150zM499 10q7 0 7 -5q0 -7 -7 -7q-26 1 -55.5 1.5t-53.5 0.5q-17 0 -34.5 -0.5t-32.5 -0.5t-25.5 -0.5t-13.5 -0.5q-7 0 -8.5 2t-1.5 4q0 6 7 6h16q14 0 24 2.5t10 15.5q0 5 -1 11.5t-5 15.5l-43 112h-161l-32 -82
q-4 -9 -8 -19.5t-4 -21.5q0 -34 59 -34h5q7 0 7 -5q0 -7 -7 -7q-13 0 -19.5 0.5t-11 1t-10 0.5h-17.5q-33 0 -52 -1t-33 -1q-7 0 -7 7q0 3 2 3.5t5 1.5q8 2 16.5 2t18 4.5t19 17.5t20.5 40l150 378q11 26 17.5 32.5t14.5 6.5q5 0 10 -5t15 -32l150 -395q7 -18 12 -28
t10.5 -14.5t12.5 -5.5t18 -1h17z" />
    <glyph glyph-name="Abreve" unicode="&#x102;" horiz-adv-x="678" 
d="M458 883q0 -14 -3.5 -35t-16 -40.5t-37 -33.5t-67.5 -14t-68 14t-37.5 33.5t-16 40.5t-3.5 35q0 12 2 15.5t8 3.5q5 0 7 -3.5t2 -15.5q0 -11 1.5 -27.5t11.5 -31.5t31.5 -25.5t61.5 -10.5q39 0 60.5 10.5t31.5 25.5t11.5 31.5t1.5 27.5q0 12 2 15.5t7 3.5q6 0 8 -3.5
t2 -15.5zM291 578l-99 -297h207zM689 16q5 0 7.5 -3t2.5 -6q0 -10 -10 -10q-22 0 -39 0.5l-34 1t-35.5 1t-43.5 0.5q-63 0 -103.5 -1.5t-47.5 -1.5q-10 0 -12 3t-2 6q0 10 10 10h61q22 0 32 3t10 17q0 6 -1.5 12t-4.5 14l-73 200h-221l-40 -120q-8 -27 -13.5 -47.5
t-5.5 -36.5q0 -42 50 -42h37q5 0 7.5 -3t2.5 -6q0 -10 -10 -10q-19 0 -33 0.5t-26.5 1t-25.5 1t-31 0.5q-45 0 -69 -1.5t-44 -1.5q-11 0 -11 10q0 3 3 6t8 3h17q45 0 70.5 18t39.5 61l204 604q5 15 9.5 24.5t10.5 9.5q4 0 6.5 -3t7.5 -15l234 -639q7 -20 12.5 -31.5
t11 -17.5t11 -8.5t11.5 -2.5h60z" />
    <glyph glyph-name="abreve" unicode="&#x103;" horiz-adv-x="498" 
d="M374 665q0 -14 -3.5 -35.5t-16 -41t-37 -33.5t-67.5 -14t-68 14t-37.5 33.5t-16 41t-3.5 35.5q0 11 2 15t8 4q5 0 7 -4t2 -15t1.5 -27.5t11.5 -31.5t31.5 -25.5t61.5 -10.5q39 0 60.5 10.5t31.5 25.5t11.5 31.5t1.5 27.5t2 15t8 4q5 0 7 -4t2 -15zM203 374l-76 -194h150z
M499 10q7 0 7 -5q0 -7 -7 -7q-26 1 -55.5 1.5t-53.5 0.5q-17 0 -34.5 -0.5t-32.5 -0.5t-25.5 -0.5t-13.5 -0.5q-7 0 -8.5 2t-1.5 4q0 6 7 6h16q14 0 24 2.5t10 15.5q0 5 -1 11.5t-5 15.5l-43 112h-161l-32 -82q-4 -9 -8 -19.5t-4 -21.5q0 -34 59 -34h5q7 0 7 -5q0 -7 -7 -7
q-13 0 -19.5 0.5t-11 1t-10 0.5h-17.5q-33 0 -52 -1t-33 -1q-7 0 -7 7q0 3 2 3.5t5 1.5q8 2 16.5 2t18 4.5t19 17.5t20.5 40l150 378q11 26 17.5 32.5t14.5 6.5q5 0 10 -5t15 -32l150 -395q7 -18 12 -28t10.5 -14.5t12.5 -5.5t18 -1h17z" />
    <glyph glyph-name="Aogonek" unicode="&#x104;" horiz-adv-x="678" 
d="M291 578l-99 -297h207zM689 16q5 0 7.5 -3t2.5 -6q0 -10 -10 -10q-18 0 -33 0.5t-28.5 1t-27.5 1t-31 0.5q-37 -22 -53.5 -50.5t-16.5 -58.5q0 -20 7.5 -39t22 -33.5t35 -23t46.5 -8.5t41.5 6.5t18.5 6.5t3 -3q0 -4 -7 -8t-18 -7.5t-23 -5.5t-24.5 -3.5t-21.5 -1.5
q-32 0 -55.5 8.5t-40 22.5t-24.5 32.5t-8 38.5q0 34 23 69t70 58h-7q-63 0 -103.5 -1.5t-47.5 -1.5q-10 0 -12 3t-2 6q0 10 10 10h61q22 0 32 3t10 17q0 6 -1.5 12t-4.5 14l-73 200h-221l-40 -120q-8 -27 -13.5 -47.5t-5.5 -36.5q0 -42 50 -42h37q5 0 7.5 -3t2.5 -6
q0 -10 -10 -10q-19 0 -33 0.5t-26.5 1t-25.5 1t-31 0.5q-45 0 -69 -1.5t-44 -1.5q-11 0 -11 10q0 3 3 6t8 3h17q45 0 70.5 18t39.5 61l204 604q5 15 9.5 24.5t10.5 9.5q4 0 6.5 -3t7.5 -15l234 -639q7 -20 12.5 -31.5t11 -17.5t11 -8.5t11.5 -2.5h60z" />
    <glyph glyph-name="aogonek" unicode="&#x105;" horiz-adv-x="498" 
d="M203 374l-76 -194h150zM499 10q7 0 7 -5q0 -7 -7 -7q-21 1 -44.5 1.5t-45.5 0.5q-35 -22 -51.5 -50.5t-16.5 -57.5q0 -20 7.5 -39t22 -33.5t35 -23t46.5 -8.5t41.5 6.5t18.5 6.5t3 -3q0 -4 -7 -8t-18 -7.5t-23 -5.5t-24.5 -3.5t-21.5 -1.5q-63 0 -95.5 30t-32.5 72
q0 33 22.5 68t69.5 58q-17 0 -33.5 -0.5t-31 -0.5t-24 -0.5t-12.5 -0.5q-7 0 -8.5 2t-1.5 4q0 6 7 6h16q14 0 24 2.5t10 15.5q0 5 -1 11.5t-5 15.5l-43 112h-161l-32 -82q-4 -9 -8 -19.5t-4 -21.5q0 -34 59 -34h5q7 0 7 -5q0 -7 -7 -7q-13 0 -19.5 0.5t-11 1t-10 0.5h-17.5
q-33 0 -52 -1t-33 -1q-7 0 -7 7q0 3 2 3.5t5 1.5q8 2 16.5 2t18 4.5t19 17.5t20.5 40l150 378q11 26 17.5 32.5t14.5 6.5q5 0 10 -5t15 -32l150 -395q7 -18 12 -28t10.5 -14.5t12.5 -5.5t18 -1h17z" />
    <glyph glyph-name="Cacute" unicode="&#x106;" horiz-adv-x="747" 
d="M367 760l57 127h81l-103 -127h-35zM684 167q4 8 8 8q2 0 6 -2q5 -3 5 -7q0 -3 -2 -5q-45 -85 -111.5 -129.5t-168.5 -44.5q-83 0 -151 29t-117 79.5t-76 118.5t-27 146q0 73 24.5 140.5t70 119t110.5 82.5t146 31q43 0 81.5 -11t84.5 -40q12 -8 19.5 -12t15.5 -4
q5 0 9.5 3.5t4.5 11.5q0 6 -1.5 14t-1.5 15q0 10 11 10q9 0 13 -16q4 -19 7.5 -33t9.5 -30.5t16 -40t26 -60.5q2 -4 2 -7q0 -9 -10 -9q-5 0 -7 3.5t-7 10.5q-32 49 -65.5 82.5t-67.5 54.5t-68.5 30t-68.5 9q-67 0 -114.5 -30.5t-77.5 -79t-44 -110.5t-14 -125
q0 -72 17 -137.5t51.5 -115.5t87 -80t122.5 -30q83 0 147.5 42.5t104.5 118.5z" />
    <glyph glyph-name="cacute" unicode="&#x107;" horiz-adv-x="524" 
d="M226 541l57 128h80l-102 -128h-35zM481 107q-30 -57 -74.5 -86.5t-113.5 -29.5q-55 0 -101 19.5t-79 53.5t-51 79.5t-18 97.5q0 49 16.5 94.5t47 80t74 55.5t98.5 21q29 0 54.5 -7.5t56.5 -27.5q8 -5 13.5 -8t10.5 -3q3 0 6 2.5t3 8.5q0 4 -1 9t-1 10q0 7 7 7t9 -11
q3 -13 5.5 -22t6.5 -20.5t10 -27t17 -40.5q2 -4 2 -5q0 -6 -6 -6q-4 0 -5.5 2t-4.5 7q-43 66 -89 92.5t-92 26.5q-34 0 -59.5 -20.5t-43 -53.5t-26 -74.5t-8.5 -83.5q0 -51 6.5 -95.5t24 -77t48 -51.5t77.5 -19q56 0 99.5 29t69.5 79q2 5 5 5q2 0 5 -1t3 -4q0 -1 -2 -5z" />
    <glyph glyph-name="Ccircumflex" unicode="&#x108;" horiz-adv-x="747" 
d="M519 760l-131 87l-131 -87l-14 13l132 119h26l132 -119zM684 167q4 8 8 8q2 0 6 -2q5 -3 5 -7q0 -3 -2 -5q-45 -85 -111.5 -129.5t-168.5 -44.5q-83 0 -151 29t-117 79.5t-76 118.5t-27 146q0 73 24.5 140.5t70 119t110.5 82.5t146 31q43 0 81.5 -11t84.5 -40
q12 -8 19.5 -12t15.5 -4q5 0 9.5 3.5t4.5 11.5q0 6 -1.5 14t-1.5 15q0 10 11 10q9 0 13 -16q4 -19 7.5 -33t9.5 -30.5t16 -40t26 -60.5q2 -4 2 -7q0 -9 -10 -9q-5 0 -7 3.5t-7 10.5q-32 49 -65.5 82.5t-67.5 54.5t-68.5 30t-68.5 9q-67 0 -114.5 -30.5t-77.5 -79t-44 -110.5
t-14 -125q0 -72 17 -137.5t51.5 -115.5t87 -80t122.5 -30q83 0 147.5 42.5t104.5 118.5z" />
    <glyph glyph-name="ccircumflex" unicode="&#x109;" horiz-adv-x="524" 
d="M406 541l-131 88l-131 -88l-14 14l132 119h26l132 -119zM481 107q-30 -57 -74.5 -86.5t-113.5 -29.5q-55 0 -101 19.5t-79 53.5t-51 79.5t-18 97.5q0 49 16.5 94.5t47 80t74 55.5t98.5 21q29 0 54.5 -7.5t56.5 -27.5q8 -5 13.5 -8t10.5 -3q3 0 6 2.5t3 8.5q0 4 -1 9
t-1 10q0 7 7 7t9 -11q3 -13 5.5 -22t6.5 -20.5t10 -27t17 -40.5q2 -4 2 -5q0 -6 -6 -6q-4 0 -5.5 2t-4.5 7q-43 66 -89 92.5t-92 26.5q-34 0 -59.5 -20.5t-43 -53.5t-26 -74.5t-8.5 -83.5q0 -51 6.5 -95.5t24 -77t48 -51.5t77.5 -19q56 0 99.5 29t69.5 79q2 5 5 5q2 0 5 -1
t3 -4q0 -1 -2 -5z" />
    <glyph glyph-name="Cdotaccent" unicode="&#x10a;" horiz-adv-x="747" 
d="M388 767q-23 0 -39 16t-16 39t16 39t39 16t39 -16t16 -39t-16 -39t-39 -16zM684 167q4 8 8 8q2 0 6 -2q5 -3 5 -7q0 -3 -2 -5q-45 -85 -111.5 -129.5t-168.5 -44.5q-83 0 -151 29t-117 79.5t-76 118.5t-27 146q0 73 24.5 140.5t70 119t110.5 82.5t146 31q43 0 81.5 -11
t84.5 -40q12 -8 19.5 -12t15.5 -4q5 0 9.5 3.5t4.5 11.5q0 6 -1.5 14t-1.5 15q0 10 11 10q9 0 13 -16q4 -19 7.5 -33t9.5 -30.5t16 -40t26 -60.5q2 -4 2 -7q0 -9 -10 -9q-5 0 -7 3.5t-7 10.5q-32 49 -65.5 82.5t-67.5 54.5t-68.5 30t-68.5 9q-67 0 -114.5 -30.5t-77.5 -79
t-44 -110.5t-14 -125q0 -72 17 -137.5t51.5 -115.5t87 -80t122.5 -30q83 0 147.5 42.5t104.5 118.5z" />
    <glyph glyph-name="cdotaccent" unicode="&#x10b;" horiz-adv-x="524" 
d="M270 548q-23 0 -39 16t-16 39t16 39t39 16t39 -16t16 -39t-16 -39t-39 -16zM481 107q-30 -57 -74.5 -86.5t-113.5 -29.5q-55 0 -101 19.5t-79 53.5t-51 79.5t-18 97.5q0 49 16.5 94.5t47 80t74 55.5t98.5 21q29 0 54.5 -7.5t56.5 -27.5q8 -5 13.5 -8t10.5 -3q3 0 6 2.5
t3 8.5q0 4 -1 9t-1 10q0 7 7 7t9 -11q3 -13 5.5 -22t6.5 -20.5t10 -27t17 -40.5q2 -4 2 -5q0 -6 -6 -6q-4 0 -5.5 2t-4.5 7q-43 66 -89 92.5t-92 26.5q-34 0 -59.5 -20.5t-43 -53.5t-26 -74.5t-8.5 -83.5q0 -51 6.5 -95.5t24 -77t48 -51.5t77.5 -19q56 0 99.5 29t69.5 79
q2 5 5 5q2 0 5 -1t3 -4q0 -1 -2 -5z" />
    <glyph glyph-name="Ccaron" unicode="&#x10c;" horiz-adv-x="747" 
d="M401 760h-26l-132 119l14 13l131 -87l131 87l14 -13zM684 167q4 8 8 8q2 0 6 -2q5 -3 5 -7q0 -3 -2 -5q-45 -85 -111.5 -129.5t-168.5 -44.5q-83 0 -151 29t-117 79.5t-76 118.5t-27 146q0 73 24.5 140.5t70 119t110.5 82.5t146 31q43 0 81.5 -11t84.5 -40
q12 -8 19.5 -12t15.5 -4q5 0 9.5 3.5t4.5 11.5q0 6 -1.5 14t-1.5 15q0 10 11 10q9 0 13 -16q4 -19 7.5 -33t9.5 -30.5t16 -40t26 -60.5q2 -4 2 -7q0 -9 -10 -9q-5 0 -7 3.5t-7 10.5q-32 49 -65.5 82.5t-67.5 54.5t-68.5 30t-68.5 9q-67 0 -114.5 -30.5t-77.5 -79t-44 -110.5
t-14 -125q0 -72 17 -137.5t51.5 -115.5t87 -80t122.5 -30q83 0 147.5 42.5t104.5 118.5z" />
    <glyph glyph-name="ccaron" unicode="&#x10d;" horiz-adv-x="524" 
d="M289 541h-26l-132 119l14 14l131 -88l131 88l14 -14zM481 107q-30 -57 -74.5 -86.5t-113.5 -29.5q-55 0 -101 19.5t-79 53.5t-51 79.5t-18 97.5q0 49 16.5 94.5t47 80t74 55.5t98.5 21q29 0 54.5 -7.5t56.5 -27.5q8 -5 13.5 -8t10.5 -3q3 0 6 2.5t3 8.5q0 4 -1 9t-1 10
q0 7 7 7t9 -11q3 -13 5.5 -22t6.5 -20.5t10 -27t17 -40.5q2 -4 2 -5q0 -6 -6 -6q-4 0 -5.5 2t-4.5 7q-43 66 -89 92.5t-92 26.5q-34 0 -59.5 -20.5t-43 -53.5t-26 -74.5t-8.5 -83.5q0 -51 6.5 -95.5t24 -77t48 -51.5t77.5 -19q56 0 99.5 29t69.5 79q2 5 5 5q2 0 5 -1t3 -4
q0 -1 -2 -5z" />
    <glyph glyph-name="Dcaron" unicode="&#x10e;" horiz-adv-x="808" 
d="M415 760h-26l-132 119l14 13l131 -87l131 87l15 -13zM242 19q37 0 81.5 1.5t89.5 11t87.5 30t75.5 58t53 95.5t20 143q0 84 -19.5 142t-52.5 95.5t-75.5 58t-87.5 30t-90 11t-82 1.5v-677zM142 696h-98q-10 0 -10 10q0 4 2 6.5t10 2.5q3 0 25.5 -0.5t51 -1t55.5 -1
t39 -0.5t31.5 0.5t41.5 1t42.5 1t33.5 0.5q21 0 58 -3t80 -14t87.5 -33.5t80.5 -62.5t59 -99t23 -144q0 -90 -25.5 -151t-65.5 -101t-89.5 -62t-96.5 -32t-87 -12t-62 -2q-46 0 -75.5 0.5t-58.5 0.5q-24 0 -48 -0.5t-44.5 -1t-35.5 -1t-22 -0.5q-10 0 -10 10q0 3 2.5 6
t7.5 3h98v680z" />
    <glyph glyph-name="dcaron" unicode="&#x10f;" horiz-adv-x="598" 
d="M308 541h-27l-132 119l14 14l131 -88l131 88l15 -14zM201 12q46 0 80.5 2.5t63.5 16.5q57 26 82 80t25 129q0 64 -17.5 107.5t-50 70t-79 37.5t-104.5 11v-454zM103 466h-62q-7 0 -7 7t7 7q9 0 23.5 -0.5t30.5 -1t30.5 -0.5h24.5q28 0 54.5 1t48.5 1q88 0 146 -21.5
t92.5 -56t48 -77t13.5 -83.5q0 -42 -14.5 -85.5t-49 -78.5t-93 -57t-146.5 -22h-20t-25.5 0.5t-27.5 0.5h-25q-16 0 -34 -0.5t-33.5 -0.5t-26.5 -0.5t-14 -0.5q-7 0 -8.5 2t-1.5 4q0 6 7 6h62v456z" />
    <glyph glyph-name="Dcroat" unicode="&#x110;" horiz-adv-x="807" 
d="M242 333v-314q37 0 81.5 1.5t89.5 11t87.5 30t75.5 58t53 95.5t20 143q0 84 -19.5 142t-52.5 95.5t-75.5 58t-87.5 30t-90 11t-82 1.5v-314h129q15 0 23 2t14 7q4 5 6.5 9t4.5 4t2 -3q0 -2 -5 -19l-12 -40q-2 -7 -4.5 -8t-6.5 -1h-151zM142 333h-50q-15 0 -23 -1.5
t-14 -7.5q-4 -5 -6.5 -8.5t-4.5 -3.5t-2 2t5 19l12 40q2 7 4.5 8t7.5 1h71v314h-98q-11 0 -11 10q0 9 13 9q3 0 25.5 -0.5t51 -1t55.5 -1t39 -0.5t31.5 0.5t41.5 1t42.5 1t33.5 0.5q21 0 58 -3t80 -14t87.5 -33.5t80.5 -62.5t59 -99t23 -144q0 -90 -25.5 -151t-65.5 -101
t-89.5 -62t-97 -32t-87.5 -12t-61 -2q-46 0 -75.5 0.5t-58.5 0.5q-25 0 -48.5 -0.5t-44 -1t-35.5 -1t-22 -0.5q-11 0 -11 10q0 3 3 6t8 3h98v317z" />
    <glyph glyph-name="dcroat" unicode="&#x111;" horiz-adv-x="598" 
d="M201 219v-207q46 0 80.5 2.5t63.5 16.5q57 26 82 80t25 129q0 64 -17.5 107.5t-50 70t-79 37.5t-104.5 11v-208h74q28 0 37 10q5 5 7.5 8.5t4.5 3.5t2 -3q0 -1 -5 -19l-10 -30q-2 -7 -4 -8t-7 -1h-99zM103 219h-12q-15 0 -23 -1.5t-14 -7.5q-5 -5 -7 -8.5t-4 -3.5t-2 2
t1 6.5t3 12.5l10 31q2 6 4.5 7t6.5 1h37v208h-62q-7 0 -7 7t7 7q9 0 23.5 -0.5t30.5 -1t30.5 -0.5h24.5q28 0 54.5 1t48.5 1q88 0 146 -21.5t92.5 -56t48 -77t13.5 -83.5q0 -42 -14.5 -85.5t-49 -78.5t-93 -57t-146.5 -22h-20t-25.5 0.5t-27.5 0.5h-25q-16 0 -34 -0.5
t-33.5 -0.5t-26.5 -0.5t-14 -0.5q-7 0 -8.5 2t-1.5 4q0 6 7 6h62v209z" />
    <glyph glyph-name="Emacron" unicode="&#x112;" horiz-adv-x="659" 
d="M182 779v28h294v-28h-294zM399 16q55 0 89 14t52.5 37t26.5 53t13 62q1 7 2 12t8 5t8 -4.5t1 -11.5q-1 -27 -5.5 -66t-4.5 -88v-16t1 -16q-3 0 -20 0.5t-61 1t-120.5 1t-198.5 0.5q-21 0 -44.5 -0.5t-43.5 -1t-36 -1t-22 -0.5q-11 0 -11 10q0 3 3 6t8 3h98v680h-98
q-11 0 -11 10q0 9 11 9q39 -1 72 -2t74 -1h141.5h101.5t69.5 0.5t44.5 0.5t26.5 0.5t16.5 1.5q0 -14 0.5 -39.5t2.5 -41.5q2 -23 3 -39.5t1.5 -28t1 -19.5t0.5 -14t-1 -11t-8 -5t-8 4t-2 12q-2 31 -7 60.5t-23.5 52t-56 36.5t-103.5 14h-149v-290h45q46 0 70 10t35 26
t13 36.5t2 40.5q0 16 11 16q7 0 8 -4.5t1 -10.5q0 -33 -2.5 -59t-2.5 -65t2.5 -73.5t2.5 -63.5q0 -7 -1 -11.5t-8 -4.5q-8 0 -9 6t-1 10q-3 33 -6.5 57.5t-15.5 40t-35 23t-64 7.5h-45v-371h158z" />
    <glyph glyph-name="emacron" unicode="&#x113;" horiz-adv-x="511" 
d="M112 560v29h294v-29h-294zM265 10q59 0 92 8t50.5 24t24 41t11.5 59q1 12 7 12q5 0 5.5 -3.5t0.5 -8.5q-1 -21 -1.5 -44.5t-0.5 -37.5v-30.5t2 -31.5q-11 0 -29 0.5t-51 1t-87 0.5h-137q-26 0 -54.5 -1t-56.5 -1q-7 0 -7 6t7 6h62v456h-62q-7 0 -7 7t7 7q26 -1 56.5 -1.5
t54.5 -0.5h132.5h87.5t51.5 0.5t23.5 1.5q0 -48 2.5 -87t2.5 -57q0 -8 -0.5 -9.5t-3.5 -1.5q-8 0 -8 10q-5 30 -11.5 54t-22.5 41t-45 26.5t-80 9.5h-80v-219h25q34 0 53.5 5.5t29.5 17.5t13 30t5 43q0 10 8 10q5 0 5.5 -2.5t0.5 -9.5q-1 -33 -2 -52t-1 -43q0 -18 0.5 -27
t0.5 -18t0.5 -22.5t0.5 -40.5q0 -8 -1 -10t-3 -2q-8 0 -8 12q-2 32 -8 51t-18 29.5t-30.5 13.5t-45.5 3h-25v-225h64z" />
    <glyph glyph-name="Ebreve" unicode="&#x114;" horiz-adv-x="659" 
d="M482 883q0 -14 -3.5 -35t-16.5 -40.5t-37.5 -33.5t-67.5 -14t-67.5 14t-37 33.5t-16 40.5t-3.5 35q0 12 2 15.5t7 3.5q6 0 8 -3.5t2 -15.5q0 -11 1.5 -27.5t11.5 -31.5t31.5 -25.5t60.5 -10.5q40 0 61.5 10.5t31.5 25.5t11.5 31.5t1.5 27.5q0 12 2 15.5t7 3.5q6 0 8 -3.5
t2 -15.5zM399 16q55 0 89 14t52.5 37t26.5 53t13 62q1 7 2 12t8 5t8 -4.5t1 -11.5q-1 -27 -5.5 -66t-4.5 -88v-16t1 -16q-3 0 -20 0.5t-61 1t-120.5 1t-198.5 0.5q-21 0 -44.5 -0.5t-43.5 -1t-36 -1t-22 -0.5q-11 0 -11 10q0 3 3 6t8 3h98v680h-98q-11 0 -11 10q0 9 11 9
q39 -1 72 -2t74 -1h141.5h101.5t69.5 0.5t44.5 0.5t26.5 0.5t16.5 1.5q0 -14 0.5 -39.5t2.5 -41.5q2 -23 3 -39.5t1.5 -28t1 -19.5t0.5 -14t-1 -11t-8 -5t-8 4t-2 12q-2 31 -7 60.5t-23.5 52t-56 36.5t-103.5 14h-149v-290h45q46 0 70 10t35 26t13 36.5t2 40.5q0 16 11 16
q7 0 8 -4.5t1 -10.5q0 -33 -2.5 -59t-2.5 -65t2.5 -73.5t2.5 -63.5q0 -7 -1 -11.5t-8 -4.5q-8 0 -9 6t-1 10q-3 33 -6.5 57.5t-15.5 40t-35 23t-64 7.5h-45v-371h158z" />
    <glyph glyph-name="ebreve" unicode="&#x115;" horiz-adv-x="511" 
d="M386 665q0 -14 -3.5 -35.5t-16 -41t-37 -33.5t-67.5 -14t-68 14t-37.5 33.5t-16 41t-3.5 35.5q0 11 2 15t8 4t7.5 -4t1.5 -15t1.5 -27.5t11.5 -31.5t31.5 -25.5t61.5 -10.5q39 0 60.5 10.5t31.5 25.5t11.5 31.5t1.5 27.5t2 15t8 4q5 0 7 -4t2 -15zM265 10q59 0 92 8
t50.5 24t24 41t11.5 59q1 12 7 12q5 0 5.5 -3.5t0.5 -8.5q-1 -21 -1.5 -44.5t-0.5 -37.5v-30.5t2 -31.5q-11 0 -29 0.5t-51 1t-87 0.5h-137q-26 0 -54.5 -1t-56.5 -1q-7 0 -7 6t7 6h62v456h-62q-7 0 -7 7t7 7q26 -1 56.5 -1.5t54.5 -0.5h132.5h87.5t51.5 0.5t23.5 1.5
q0 -48 2.5 -87t2.5 -57q0 -8 -0.5 -9.5t-3.5 -1.5q-8 0 -8 10q-5 30 -11.5 54t-22.5 41t-45 26.5t-80 9.5h-80v-219h25q34 0 53.5 5.5t29.5 17.5t13 30t5 43q0 10 8 10q5 0 5.5 -2.5t0.5 -9.5q-1 -33 -2 -52t-1 -43q0 -18 0.5 -27t0.5 -18t0.5 -22.5t0.5 -40.5q0 -8 -1 -10
t-3 -2q-8 0 -8 12q-2 32 -8 51t-18 29.5t-30.5 13.5t-45.5 3h-25v-225h64z" />
    <glyph glyph-name="Edotaccent" unicode="&#x116;" horiz-adv-x="659" 
d="M357 767q-23 0 -39 16t-16 39t16 39t39 16t39 -16t16 -39t-16 -39t-39 -16zM399 16q55 0 89 14t52.5 37t26.5 53t13 62q1 7 2 12t8 5t8 -4.5t1 -11.5q-1 -27 -5.5 -66t-4.5 -88v-16t1 -16q-3 0 -20 0.5t-61 1t-120.5 1t-198.5 0.5q-21 0 -44.5 -0.5t-43.5 -1t-36 -1
t-22 -0.5q-11 0 -11 10q0 3 3 6t8 3h98v680h-98q-11 0 -11 10q0 9 11 9q39 -1 72 -2t74 -1h141.5h101.5t69.5 0.5t44.5 0.5t26.5 0.5t16.5 1.5q0 -14 0.5 -39.5t2.5 -41.5q2 -23 3 -39.5t1.5 -28t1 -19.5t0.5 -14t-1 -11t-8 -5t-8 4t-2 12q-2 31 -7 60.5t-23.5 52t-56 36.5
t-103.5 14h-149v-290h45q46 0 70 10t35 26t13 36.5t2 40.5q0 16 11 16q7 0 8 -4.5t1 -10.5q0 -33 -2.5 -59t-2.5 -65t2.5 -73.5t2.5 -63.5q0 -7 -1 -11.5t-8 -4.5q-8 0 -9 6t-1 10q-3 33 -6.5 57.5t-15.5 40t-35 23t-64 7.5h-45v-371h158z" />
    <glyph glyph-name="edotaccent" unicode="&#x117;" horiz-adv-x="511" 
d="M264 548q-23 0 -39 16t-16 39t16 39t39 16t39 -16t16 -39t-16 -39t-39 -16zM265 10q59 0 92 8t50.5 24t24 41t11.5 59q1 12 7 12q5 0 5.5 -3.5t0.5 -8.5q-1 -21 -1.5 -44.5t-0.5 -37.5v-30.5t2 -31.5q-11 0 -29 0.5t-51 1t-87 0.5h-137q-26 0 -54.5 -1t-56.5 -1
q-7 0 -7 6t7 6h62v456h-62q-7 0 -7 7t7 7q26 -1 56.5 -1.5t54.5 -0.5h132.5h87.5t51.5 0.5t23.5 1.5q0 -48 2.5 -87t2.5 -57q0 -8 -0.5 -9.5t-3.5 -1.5q-8 0 -8 10q-5 30 -11.5 54t-22.5 41t-45 26.5t-80 9.5h-80v-219h25q34 0 53.5 5.5t29.5 17.5t13 30t5 43q0 10 8 10
q5 0 5.5 -2.5t0.5 -9.5q-1 -33 -2 -52t-1 -43q0 -18 0.5 -27t0.5 -18t0.5 -22.5t0.5 -40.5q0 -8 -1 -10t-3 -2q-8 0 -8 12q-2 32 -8 51t-18 29.5t-30.5 13.5t-45.5 3h-25v-225h64z" />
    <glyph glyph-name="Eogonek" unicode="&#x118;" horiz-adv-x="659" 
d="M190 0q-21 0 -44.5 -0.5t-43.5 -1t-36 -1t-22 -0.5q-11 0 -11 10q0 3 3 6t8 3h98v680h-98q-11 0 -11 10q0 9 11 9q39 -1 72 -2t74 -1h141.5h101.5t69.5 0.5t44.5 0.5t26.5 0.5t16.5 1.5q0 -14 0.5 -39.5t2.5 -41.5q2 -23 3 -39.5t1.5 -28t1 -19.5t0.5 -14t-1 -11t-8 -5
t-8 4t-2 12q-2 31 -7 60.5t-23.5 52t-56 36.5t-103.5 14h-149v-290h45q46 0 70 10t35 26t13 36.5t2 40.5q0 16 11 16q7 0 8 -4.5t1 -10.5q0 -33 -2.5 -59t-2.5 -65t2.5 -73.5t2.5 -63.5q0 -7 -1 -11.5t-8 -4.5q-8 0 -9 6t-1 10q-3 33 -6.5 57.5t-15.5 40t-35 23t-64 7.5h-45
v-371h158q55 0 89 14t52.5 37t26.5 53t13 62q1 7 2 12t8 5t8 -4.5t1 -11.5q-1 -27 -5.5 -66t-4.5 -88v-16t1 -16q-2 0 -8.5 0.5t-21 1t-38 1t-58.5 0.5q-35 -22 -51.5 -50.5t-16.5 -57.5q0 -20 7.5 -39t22 -33.5t35 -23t46.5 -8.5t41.5 6.5t18.5 6.5t3 -3q0 -4 -7 -8
t-18 -7.5t-23 -5.5t-24 -3.5t-22 -1.5q-63 0 -95 30t-32 72q0 33 22 67.5t68 58.5h-249z" />
    <glyph glyph-name="eogonek" unicode="&#x119;" horiz-adv-x="511" 
d="M152 0q-26 0 -54.5 -1t-56.5 -1q-7 0 -7 6t7 6h62v456h-62q-7 0 -7 7t7 7q26 -1 56.5 -1.5t54.5 -0.5h132.5h87.5t51.5 0.5t23.5 1.5q0 -48 2.5 -87t2.5 -57q0 -8 -0.5 -9.5t-3.5 -1.5q-8 0 -8 10q-5 30 -11.5 54t-22.5 41t-45 26.5t-80 9.5h-80v-219h25q34 0 53.5 5.5
t29.5 17.5t13 30t5 43q0 10 8 10q5 0 5.5 -2.5t0.5 -9.5q-1 -33 -2 -52t-1 -43q0 -18 0.5 -27t0.5 -18t0.5 -22.5t0.5 -40.5q0 -8 -1 -10t-3 -2q-8 0 -8 12q-2 32 -8 51t-18 29.5t-30.5 13.5t-45.5 3h-25v-225h64q59 0 92 8t50.5 24t24 41t11.5 59q1 12 7 12q5 0 5.5 -3.5
t0.5 -8.5q-1 -21 -1.5 -44.5t-0.5 -37.5v-30.5t2 -31.5q-13 1 -37.5 1.5t-71.5 0.5q-35 -22 -51.5 -50.5t-16.5 -57.5q0 -20 7.5 -39t22 -33.5t35 -23t46.5 -8.5t41.5 6.5t18.5 6.5t3 -3q0 -4 -7 -8t-18 -7.5t-23 -5.5t-24.5 -3.5t-21.5 -1.5q-63 0 -95.5 30t-32.5 72
q0 33 22.5 68t69.5 58h-171z" />
    <glyph glyph-name="Ecaron" unicode="&#x11a;" horiz-adv-x="659" 
d="M361 760h-27l-132 119l15 13l131 -87l131 87l14 -13zM399 16q55 0 89 14t52.5 37t26.5 53t13 62q1 7 2 12t8 5t8 -4.5t1 -11.5q-1 -27 -5.5 -66t-4.5 -88v-16t1 -16q-3 0 -20 0.5t-61 1t-120.5 1t-198.5 0.5q-21 0 -44.5 -0.5t-43.5 -1t-36 -1t-22 -0.5q-11 0 -11 10
q0 3 3 6t8 3h98v680h-98q-11 0 -11 10q0 9 11 9q39 -1 72 -2t74 -1h141.5h101.5t69.5 0.5t44.5 0.5t26.5 0.5t16.5 1.5q0 -14 0.5 -39.5t2.5 -41.5q2 -23 3 -39.5t1.5 -28t1 -19.5t0.5 -14t-1 -11t-8 -5t-8 4t-2 12q-2 31 -7 60.5t-23.5 52t-56 36.5t-103.5 14h-149v-290h45
q46 0 70 10t35 26t13 36.5t2 40.5q0 16 11 16q7 0 8 -4.5t1 -10.5q0 -33 -2.5 -59t-2.5 -65t2.5 -73.5t2.5 -63.5q0 -7 -1 -11.5t-8 -4.5q-8 0 -9 6t-1 10q-3 33 -6.5 57.5t-15.5 40t-35 23t-64 7.5h-45v-371h158z" />
    <glyph glyph-name="ecaron" unicode="&#x11b;" horiz-adv-x="511" 
d="M276 541h-26l-133 119l15 14l131 -88l131 88l14 -14zM265 10q59 0 92 8t50.5 24t24 41t11.5 59q1 12 7 12q5 0 5.5 -3.5t0.5 -8.5q-1 -21 -1.5 -44.5t-0.5 -37.5v-30.5t2 -31.5q-11 0 -29 0.5t-51 1t-87 0.5h-137q-26 0 -54.5 -1t-56.5 -1q-7 0 -7 6t7 6h62v456h-62
q-7 0 -7 7t7 7q26 -1 56.5 -1.5t54.5 -0.5h132.5h87.5t51.5 0.5t23.5 1.5q0 -48 2.5 -87t2.5 -57q0 -8 -0.5 -9.5t-3.5 -1.5q-8 0 -8 10q-5 30 -11.5 54t-22.5 41t-45 26.5t-80 9.5h-80v-219h25q34 0 53.5 5.5t29.5 17.5t13 30t5 43q0 10 8 10q5 0 5.5 -2.5t0.5 -9.5
q-1 -33 -2 -52t-1 -43q0 -18 0.5 -27t0.5 -18t0.5 -22.5t0.5 -40.5q0 -8 -1 -10t-3 -2q-8 0 -8 12q-2 32 -8 51t-18 29.5t-30.5 13.5t-45.5 3h-25v-225h64z" />
    <glyph glyph-name="Gcircumflex" unicode="&#x11c;" horiz-adv-x="781" 
d="M521 760l-131 87l-131 -87l-14 13l132 119h26l132 -119zM579 305h-98q-10 0 -10 8q0 2 1.5 6t8.5 4q37 -1 71 -2t72 -1q45 0 78 1.5t50 1.5q10 0 10 -10q0 -8 -10 -8h-73v-197q0 -22 -2 -23q-2 -2 -7 -3.5t-10 -4.5q-14 -7 -31.5 -18.5t-30.5 -19.5q-36 -23 -77.5 -37.5
t-92.5 -14.5q-64 0 -131 24.5t-122 71.5t-90 116.5t-35 158.5q0 69 22.5 136t66.5 120t110 86t152 33q44 0 82 -11t84 -40q12 -8 19 -12.5t15 -4.5q14 0 14 16q0 6 -1.5 14t-1.5 14q0 11 11 11q10 0 13 -17q5 -21 9 -35.5t10 -30.5t15.5 -38.5t25.5 -59.5q2 -4 2 -7t-2.5 -6
t-7.5 -3t-7.5 4t-6.5 10q-30 48 -62.5 81.5t-67 54.5t-70.5 30.5t-71 9.5q-67 0 -114 -30.5t-77 -80t-44 -112t-14 -127.5q0 -79 19 -144.5t54.5 -112.5t86.5 -73t114 -26q39 0 66 9t44.5 21t27 25t13.5 22v221z" />
    <glyph glyph-name="gcircumflex" unicode="&#x11d;" horiz-adv-x="559" 
d="M411 541l-131 88l-131 -88l-15 14l132 119h27l132 -119zM385 210h-58q-6 0 -6 6q0 2 0.5 4t5.5 2q25 0 51 -1t50 -1q15 0 32 0.5t32 0.5t26.5 0.5t17.5 0.5q7 0 7 -6t-7 -6h-53v-145q0 -9 -8 -9q-5 0 -12 -2t-23 -11q-12 -7 -25.5 -16t-31 -17.5t-38.5 -14t-48 -5.5
q-42 0 -87 16.5t-82 48t-60.5 77.5t-23.5 106q0 46 15 91t45 81t74 58t102 22q29 0 54 -7.5t56 -27.5q8 -5 13 -8t10 -3q9 0 9 11q0 4 -1 9t-1 9q0 8 8 8q5 0 6 -2.5t3 -9.5q3 -18 10 -37.5t14 -36t12 -28t5 -12.5q0 -5 -6 -5q-5 0 -10 8q-40 65 -87 92t-94 27
q-35 0 -60.5 -20.5t-42.5 -54t-25 -75.5t-8 -85q0 -53 10 -96.5t29.5 -75t48 -49t64.5 -17.5q19 0 34 6t26.5 14t18.5 16.5t9 14.5v155z" />
    <glyph glyph-name="Gbreve" unicode="&#x11e;" horiz-adv-x="781" 
d="M514 883q0 -14 -3.5 -35t-16 -40.5t-37 -33.5t-67.5 -14t-68 14t-37.5 33.5t-16 40.5t-3.5 35q0 12 2 15.5t8 3.5t7.5 -3.5t1.5 -15.5q0 -11 1.5 -27.5t11.5 -31.5t31.5 -25.5t61.5 -10.5q39 0 60.5 10.5t31.5 25.5t11.5 31.5t1.5 27.5q0 12 2 15.5t8 3.5q5 0 7 -3.5
t2 -15.5zM579 305h-98q-10 0 -10 8q0 2 1.5 6t8.5 4q37 -1 71 -2t72 -1q45 0 78 1.5t50 1.5q10 0 10 -10q0 -8 -10 -8h-73v-197q0 -22 -2 -23q-2 -2 -7 -3.5t-10 -4.5q-14 -7 -31.5 -18.5t-30.5 -19.5q-36 -23 -77.5 -37.5t-92.5 -14.5q-64 0 -131 24.5t-122 71.5t-90 116.5
t-35 158.5q0 69 22.5 136t66.5 120t110 86t152 33q44 0 82 -11t84 -40q12 -8 19 -12.5t15 -4.5q14 0 14 16q0 6 -1.5 14t-1.5 14q0 11 11 11q10 0 13 -17q5 -21 9 -35.5t10 -30.5t15.5 -38.5t25.5 -59.5q2 -4 2 -7t-2.5 -6t-7.5 -3t-7.5 4t-6.5 10q-30 48 -62.5 81.5
t-67 54.5t-70.5 30.5t-71 9.5q-67 0 -114 -30.5t-77 -80t-44 -112t-14 -127.5q0 -79 19 -144.5t54.5 -112.5t86.5 -73t114 -26q39 0 66 9t44.5 21t27 25t13.5 22v221z" />
    <glyph glyph-name="gbreve" unicode="&#x11f;" horiz-adv-x="559" 
d="M404 665q0 -14 -3.5 -35.5t-16 -41t-37 -33.5t-67.5 -14t-68 14t-37.5 33.5t-16 41t-3.5 35.5q0 11 2 15t8 4q5 0 7 -4t2 -15t1.5 -27.5t11.5 -31.5t31.5 -25.5t61.5 -10.5q39 0 60.5 10.5t31.5 25.5t11.5 31.5t1.5 27.5t2 15t8 4q5 0 7 -4t2 -15zM385 210h-58q-6 0 -6 6
q0 2 0.5 4t5.5 2q25 0 51 -1t50 -1q15 0 32 0.5t32 0.5t26.5 0.5t17.5 0.5q7 0 7 -6t-7 -6h-53v-145q0 -9 -8 -9q-5 0 -12 -2t-23 -11q-12 -7 -25.5 -16t-31 -17.5t-38.5 -14t-48 -5.5q-42 0 -87 16.5t-82 48t-60.5 77.5t-23.5 106q0 46 15 91t45 81t74 58t102 22
q29 0 54 -7.5t56 -27.5q8 -5 13 -8t10 -3q9 0 9 11q0 4 -1 9t-1 9q0 8 8 8q5 0 6 -2.5t3 -9.5q3 -18 10 -37.5t14 -36t12 -28t5 -12.5q0 -5 -6 -5q-5 0 -10 8q-40 65 -87 92t-94 27q-35 0 -60.5 -20.5t-42.5 -54t-25 -75.5t-8 -85q0 -53 10 -96.5t29.5 -75t48 -49
t64.5 -17.5q19 0 34 6t26.5 14t18.5 16.5t9 14.5v155z" />
    <glyph glyph-name="Gdotaccent" unicode="&#x120;" horiz-adv-x="781" 
d="M399 767q-23 0 -39 16t-16 39t16 39t39 16t39 -16t16 -39t-16 -39t-39 -16zM579 305h-98q-10 0 -10 8q0 2 1.5 6t8.5 4q37 -1 71 -2t72 -1q45 0 78 1.5t50 1.5q10 0 10 -10q0 -8 -10 -8h-73v-197q0 -22 -2 -23q-2 -2 -7 -3.5t-10 -4.5q-14 -7 -31.5 -18.5t-30.5 -19.5
q-36 -23 -77.5 -37.5t-92.5 -14.5q-64 0 -131 24.5t-122 71.5t-90 116.5t-35 158.5q0 69 22.5 136t66.5 120t110 86t152 33q44 0 82 -11t84 -40q12 -8 19 -12.5t15 -4.5q14 0 14 16q0 6 -1.5 14t-1.5 14q0 11 11 11q10 0 13 -17q5 -21 9 -35.5t10 -30.5t15.5 -38.5
t25.5 -59.5q2 -4 2 -7t-2.5 -6t-7.5 -3t-7.5 4t-6.5 10q-30 48 -62.5 81.5t-67 54.5t-70.5 30.5t-71 9.5q-67 0 -114 -30.5t-77 -80t-44 -112t-14 -127.5q0 -79 19 -144.5t54.5 -112.5t86.5 -73t114 -26q39 0 66 9t44.5 21t27 25t13.5 22v221z" />
    <glyph glyph-name="gdotaccent" unicode="&#x121;" horiz-adv-x="559" 
d="M280 548q-23 0 -39 16t-16 39t16 39t39 16t39 -16t16 -39t-16 -39t-39 -16zM385 210h-58q-6 0 -6 6q0 2 0.5 4t5.5 2q25 0 51 -1t50 -1q15 0 32 0.5t32 0.5t26.5 0.5t17.5 0.5q7 0 7 -6t-7 -6h-53v-145q0 -9 -8 -9q-5 0 -12 -2t-23 -11q-12 -7 -25.5 -16t-31 -17.5
t-38.5 -14t-48 -5.5q-42 0 -87 16.5t-82 48t-60.5 77.5t-23.5 106q0 46 15 91t45 81t74 58t102 22q29 0 54 -7.5t56 -27.5q8 -5 13 -8t10 -3q9 0 9 11q0 4 -1 9t-1 9q0 8 8 8q5 0 6 -2.5t3 -9.5q3 -18 10 -37.5t14 -36t12 -28t5 -12.5q0 -5 -6 -5q-5 0 -10 8q-40 65 -87 92
t-94 27q-35 0 -60.5 -20.5t-42.5 -54t-25 -75.5t-8 -85q0 -53 10 -96.5t29.5 -75t48 -49t64.5 -17.5q19 0 34 6t26.5 14t18.5 16.5t9 14.5v155z" />
    <glyph glyph-name="Gcommaaccent" unicode="&#x122;" horiz-adv-x="781" 
d="M378 -237q-10 0 -10 8q0 7 5.5 8t13.5 3q23 5 39 16t26 24.5t14.5 26.5t4.5 22q0 8 -3.5 15.5t-9.5 7.5q-4 0 -7 -4.5t-7.5 -10t-11.5 -10t-20 -4.5q-19 0 -31.5 11t-12.5 33q0 23 15 35t35 12q25 0 47 -19t22 -58q0 -29 -13 -50.5t-31 -36t-36.5 -22t-28.5 -7.5z
M579 305h-98q-10 0 -10 8q0 2 1.5 6t8.5 4q37 -1 71 -2t72 -1q45 0 78 1.5t50 1.5q10 0 10 -10q0 -8 -10 -8h-73v-197q0 -22 -2 -23q-2 -2 -7 -3.5t-10 -4.5q-14 -7 -31.5 -18.5t-30.5 -19.5q-36 -23 -77.5 -37.5t-92.5 -14.5q-64 0 -131 24.5t-122 71.5t-90 116.5
t-35 158.5q0 69 22.5 136t66.5 120t110 86t152 33q44 0 82 -11t84 -40q12 -8 19 -12.5t15 -4.5q14 0 14 16q0 6 -1.5 14t-1.5 14q0 11 11 11q10 0 13 -17q5 -21 9 -35.5t10 -30.5t15.5 -38.5t25.5 -59.5q2 -4 2 -7t-2.5 -6t-7.5 -3t-7.5 4t-6.5 10q-30 48 -62.5 81.5
t-67 54.5t-70.5 30.5t-71 9.5q-67 0 -114 -30.5t-77 -80t-44 -112t-14 -127.5q0 -79 19 -144.5t54.5 -112.5t86.5 -73t114 -26q39 0 66 9t44.5 21t27 25t13.5 22v221z" />
    <glyph glyph-name="gcommaaccent" unicode="&#x123;" horiz-adv-x="559" 
d="M266 -235q-10 0 -10 8q0 6 5.5 7.5t13.5 3.5q23 5 39 16t26 24.5t14.5 26.5t4.5 22q0 8 -3.5 15t-9.5 7q-4 0 -7 -4.5t-7.5 -9.5t-11.5 -9.5t-20 -4.5q-19 0 -31.5 11t-12.5 33q0 23 15 35t35 12q25 0 47 -19t22 -58q0 -29 -13 -50.5t-31 -36t-36.5 -22t-28.5 -7.5z
M385 210h-58q-6 0 -6 6q0 2 0.5 4t5.5 2q25 0 51 -1t50 -1q15 0 32 0.5t32 0.5t26.5 0.5t17.5 0.5q7 0 7 -6t-7 -6h-53v-145q0 -9 -8 -9q-5 0 -12 -2t-23 -11q-12 -7 -25.5 -16t-31 -17.5t-38.5 -14t-48 -5.5q-42 0 -87 16.5t-82 48t-60.5 77.5t-23.5 106q0 46 15 91t45 81
t74 58t102 22q29 0 54 -7.5t56 -27.5q8 -5 13 -8t10 -3q9 0 9 11q0 4 -1 9t-1 9q0 8 8 8q5 0 6 -2.5t3 -9.5q3 -18 10 -37.5t14 -36t12 -28t5 -12.5q0 -5 -6 -5q-5 0 -10 8q-40 65 -87 92t-94 27q-35 0 -60.5 -20.5t-42.5 -54t-25 -75.5t-8 -85q0 -53 10 -96.5t29.5 -75
t48 -49t64.5 -17.5q19 0 34 6t26.5 14t18.5 16.5t9 14.5v155z" />
    <glyph glyph-name="Hcircumflex" unicode="&#x124;" horiz-adv-x="803" 
d="M532 760l-131 87l-131 -87l-14 13l132 119h26l132 -119zM756 16q5 0 8 -3t3 -6q0 -10 -11 -10q-38 1 -71.5 2t-71.5 1q-23 0 -47 -0.5t-44 -1t-35.5 -1t-22.5 -0.5q-11 0 -11 10q0 3 3 6t8 3h98v330h-321v-330h95q5 0 8 -3t3 -6q0 -10 -11 -10q-38 1 -71.5 2t-71.5 1
q-23 0 -47 -0.5t-44 -1t-35.5 -1t-22.5 -0.5q-11 0 -11 10q0 3 3 6t8 3h98v680h-98q-11 0 -11 10q0 9 11 9q38 -1 71.5 -2t71.5 -1q23 0 47 0.5t44 1t35.5 1t22.5 0.5q11 0 11 -9q0 -10 -11 -10h-95v-331h321v331h-98q-11 0 -11 10q0 9 11 9q38 -1 71.5 -2t71.5 -1
q23 0 47 0.5t44 1t35.5 1t22.5 0.5q11 0 11 -9q0 -10 -11 -10h-95v-680h95z" />
    <glyph glyph-name="hcircumflex" unicode="&#x125;" horiz-adv-x="604" 
d="M434 541l-131 88l-131 -88l-15 14l132 119h27l132 -119zM564 10q7 0 7 -6t-7 -6q-25 1 -56.5 1.5t-54.5 0.5q-17 0 -34.5 -0.5t-33.5 -0.5t-27 -0.5t-14 -0.5q-8 0 -9.5 1.5t-1.5 3.5q0 7 7 7h62v222h-201v-222h64q6 0 6 -6t-6 -6q-25 1 -57.5 1.5t-55.5 0.5
q-17 0 -34.5 -0.5t-32.5 -0.5t-26.5 -0.5t-14.5 -0.5q-7 0 -8.5 1.5t-1.5 3.5q0 7 7 7h62v456h-62q-7 0 -7 7t7 7q25 -1 56 -1.5t55 -0.5q16 0 34 0.5t33.5 0.5t27 0.5t14.5 0.5q8 0 9 -2t1 -4q0 -8 -6 -8h-64v-222h201v222h-62q-7 0 -7 7t7 7q24 -1 56.5 -1.5t56.5 -0.5
q16 0 34 0.5t33 0.5t26 0.5t13 0.5q8 0 10 -2t2 -4q0 -8 -7 -8h-64v-456h64z" />
    <glyph glyph-name="Hbar" unicode="&#x126;" horiz-adv-x="802" 
d="M562 522h-321v-157h321v157zM756 16q5 0 8 -3t3 -6q0 -10 -11 -10q-38 1 -71.5 2t-71.5 1q-23 0 -47 -0.5t-44 -1t-35.5 -1t-22.5 -0.5q-11 0 -11 10q0 3 3 6t8 3h98v330h-321v-330h95q5 0 8 -3t3 -6q0 -10 -11 -10q-38 1 -71.5 2t-71.5 1q-23 0 -47 -0.5t-44 -1
t-35.5 -1t-22.5 -0.5q-11 0 -11 10q0 3 3 6t8 3h98v506h-92v19h92v155h-98q-11 0 -11 10q0 9 11 9q38 -1 71.5 -2t71.5 -1q23 0 47 0.5t44 1t35.5 1t22.5 0.5q11 0 11 -9q0 -10 -11 -10h-95v-155h321v155h-98q-11 0 -11 10q0 9 11 9q38 -1 71.5 -2t71.5 -1q23 0 47 0.5t44 1
t35.5 1t22.5 0.5q11 0 11 -9q0 -10 -11 -10h-95v-155h83v-19h-83v-506h95z" />
    <glyph glyph-name="hbar" unicode="&#x127;" horiz-adv-x="604" 
d="M402 349h-201v-105h201v105zM564 10q7 0 7 -6t-7 -6q-25 1 -56.5 1.5t-54.5 0.5q-17 0 -34.5 -0.5t-33.5 -0.5t-27 -0.5t-14 -0.5q-8 0 -9.5 1.5t-1.5 3.5q0 7 7 7h62v222h-201v-222h64q6 0 6 -6t-6 -6q-25 1 -57.5 1.5t-55.5 0.5q-17 0 -34.5 -0.5t-32.5 -0.5
t-26.5 -0.5t-14.5 -0.5q-7 0 -8.5 1.5t-1.5 3.5q0 7 7 7h62v339h-62v15h62v102h-62q-7 0 -7 7t7 7q25 -1 56 -1.5t55 -0.5q16 0 34 0.5t33.5 0.5t27 0.5t14.5 0.5q8 0 9 -2t1 -4q0 -8 -6 -8h-64v-102h201v102h-62q-7 0 -7 7t7 7q24 -1 56.5 -1.5t56.5 -0.5q16 0 34 0.5
t33 0.5t26 0.5t13 0.5q8 0 10 -2t2 -4q0 -8 -7 -8h-64v-102h64v-15h-64v-339h64z" />
    <glyph glyph-name="Itilde" unicode="&#x128;" horiz-adv-x="383" 
d="M356 825q-14 -39 -32.5 -52t-37.5 -13q-20 0 -44 6t-48.5 13.5t-46.5 13.5t-37 6q-11 0 -22 -5t-20.5 -11.5t-16.5 -13t-10 -9.5q-2 -2 -5 -4.5t-5 -2.5t-4 2t-2 4q0 5 8 11q24 23 38 37.5t24.5 22t20 10t23.5 2.5q13 0 34 -5.5t43.5 -12.5t44.5 -12.5t37 -5.5q14 0 26 6
t23 22q4 6 7 6q5 0 5 -5q0 -3 -3 -10zM337 16q5 0 7.5 -3t2.5 -6q0 -10 -10 -10q-38 1 -71.5 2t-71.5 1q-23 0 -47 -0.5t-44.5 -1t-36 -1t-22.5 -0.5q-10 0 -10 10q0 3 2.5 6t7.5 3h98v680h-98q-10 0 -10 10q0 9 10 9q38 -1 72 -2t72 -1q23 0 47 0.5t44 1t35.5 1t22.5 0.5
q10 0 10 -9q0 -10 -10 -10h-95v-680h95z" />
    <glyph glyph-name="itilde" unicode="&#x129;" horiz-adv-x="305" 
d="M317 606q-14 -38 -32.5 -51.5t-38.5 -13.5t-44 6t-48 13.5t-46 13.5t-37 6q-12 0 -23 -4.5t-20 -11t-16 -13t-11 -10.5q-2 -1 -4.5 -3.5t-4.5 -2.5t-4 2t-2 4q0 3 8 11q24 23 38 37t24.5 21.5t20 10t23.5 2.5q13 0 34 -5.5t43.5 -12.5t44.5 -12.5t37 -5.5q14 0 26 6.5
t23 22.5q5 5 7 5q5 0 5 -4q0 -2 -3 -11zM264 10q7 0 7 -6t-7 -6q-24 1 -56.5 1.5t-56.5 0.5q-16 0 -33.5 -0.5t-32.5 -0.5t-26.5 -0.5t-14.5 -0.5q-7 0 -8.5 1.5t-1.5 3.5q0 7 6 7h63v456h-63q-6 0 -6 7t6 7q25 -1 56.5 -1.5t54.5 -0.5q16 0 34 0.5t34 0.5t27.5 0.5
t14.5 0.5q8 0 9 -2t1 -4q0 -8 -7 -8h-63v-456h63z" />
    <glyph glyph-name="Imacron" unicode="&#x12a;" horiz-adv-x="383" 
d="M44 779v28h295v-28h-295zM337 16q5 0 7.5 -3t2.5 -6q0 -10 -10 -10q-38 1 -71.5 2t-71.5 1q-23 0 -47 -0.5t-44.5 -1t-36 -1t-22.5 -0.5q-10 0 -10 10q0 3 2.5 6t7.5 3h98v680h-98q-10 0 -10 10q0 9 10 9q38 -1 72 -2t72 -1q23 0 47 0.5t44 1t35.5 1t22.5 0.5q10 0 10 -9
q0 -10 -10 -10h-95v-680h95z" />
    <glyph glyph-name="imacron" unicode="&#x12b;" horiz-adv-x="305" 
d="M6 560v29h295v-29h-295zM264 10q7 0 7 -6t-7 -6q-24 1 -56.5 1.5t-56.5 0.5q-16 0 -33.5 -0.5t-32.5 -0.5t-26.5 -0.5t-14.5 -0.5q-7 0 -8.5 1.5t-1.5 3.5q0 7 6 7h63v456h-63q-6 0 -6 7t6 7q25 -1 56.5 -1.5t54.5 -0.5q16 0 34 0.5t34 0.5t27.5 0.5t14.5 0.5q8 0 9 -2
t1 -4q0 -8 -7 -8h-63v-456h63z" />
    <glyph glyph-name="Ibreve" unicode="&#x12c;" horiz-adv-x="383" 
d="M316 883q0 -14 -3.5 -35t-16 -40.5t-37 -33.5t-67.5 -14t-68 14t-37.5 33.5t-16 40.5t-3.5 35q0 12 2 15.5t8 3.5q5 0 7 -3.5t2 -15.5q0 -11 1.5 -27.5t11.5 -31.5t31.5 -25.5t61.5 -10.5q39 0 60.5 10.5t31.5 25.5t11.5 31.5t1.5 27.5q0 12 2 15.5t8 3.5q5 0 7 -3.5
t2 -15.5zM337 16q5 0 7.5 -3t2.5 -6q0 -10 -10 -10q-38 1 -71.5 2t-71.5 1q-23 0 -47 -0.5t-44.5 -1t-36 -1t-22.5 -0.5q-10 0 -10 10q0 3 2.5 6t7.5 3h98v680h-98q-10 0 -10 10q0 9 10 9q38 -1 72 -2t72 -1q23 0 47 0.5t44 1t35.5 1t22.5 0.5q10 0 10 -9q0 -10 -10 -10h-95
v-680h95z" />
    <glyph glyph-name="ibreve" unicode="&#x12d;" horiz-adv-x="305" 
d="M278 665q0 -14 -3.5 -35.5t-16.5 -41t-37.5 -33.5t-67.5 -14t-67.5 14t-37 33.5t-16 41t-3.5 35.5q0 11 2 15t7 4q6 0 8 -4t2 -15t1.5 -27.5t11.5 -31.5t31.5 -25.5t60.5 -10.5q40 0 61.5 10.5t31.5 25.5t11.5 31.5t1.5 27.5t2 15t7 4q6 0 8 -4t2 -15zM264 10q7 0 7 -6
t-7 -6q-24 1 -56.5 1.5t-56.5 0.5q-16 0 -33.5 -0.5t-32.5 -0.5t-26.5 -0.5t-14.5 -0.5q-7 0 -8.5 1.5t-1.5 3.5q0 7 6 7h63v456h-63q-6 0 -6 7t6 7q25 -1 56.5 -1.5t54.5 -0.5q16 0 34 0.5t34 0.5t27.5 0.5t14.5 0.5q8 0 9 -2t1 -4q0 -8 -7 -8h-63v-456h63z" />
    <glyph glyph-name="Iogonek" unicode="&#x12e;" horiz-adv-x="383" 
d="M337 16q5 0 7.5 -3t2.5 -6q0 -10 -10 -10q-30 1 -57.5 2t-56.5 1q-36 -22 -52 -50.5t-16 -57.5q0 -20 7.5 -39t21.5 -33.5t35 -23t47 -8.5t41.5 6.5t18.5 6.5q2 0 2 -3q0 -4 -6 -8q-7 -4 -18 -7.5t-23.5 -5.5t-24.5 -3.5t-22 -1.5q-62 0 -94.5 30.5t-32.5 71.5
q0 33 22.5 68t68.5 58h-4q-23 0 -47 -0.5t-44.5 -1t-36 -1t-22.5 -0.5q-10 0 -10 10q0 3 2.5 6t7.5 3h98v680h-98q-10 0 -10 10q0 9 10 9q38 -1 72 -2t72 -1q23 0 47 0.5t44 1t35.5 1t22.5 0.5q10 0 10 -9q0 -10 -10 -10h-95v-680h95z" />
    <glyph glyph-name="iogonek" unicode="&#x12f;" horiz-adv-x="305" 
d="M264 10q7 0 7 -6t-7 -6q-18 1 -42 1.5t-46 0.5q-35 -22 -51 -50t-16 -57q0 -21 7.5 -39.5t21.5 -33t35 -23t47 -8.5t41.5 6.5t18.5 6.5q2 0 2 -3q0 -4 -6 -8q-7 -4 -18 -7.5t-23.5 -5.5t-24.5 -3.5t-22 -1.5q-62 0 -94.5 30.5t-32.5 71.5q0 33 22 67.5t67 57.5
q-16 0 -33.5 -0.5t-32.5 -0.5t-26 -0.5t-14 -0.5q-7 0 -8.5 1.5t-1.5 3.5q0 7 6 7h63v456h-63q-6 0 -6 7t6 7q25 -1 56.5 -1.5t54.5 -0.5q16 0 34 0.5t34 0.5t27.5 0.5t14.5 0.5q8 0 9 -2t1 -4q0 -8 -7 -8h-63v-456h63z" />
    <glyph glyph-name="Idotaccent" unicode="&#x130;" horiz-adv-x="383" 
d="M192 767q-23 0 -39 16t-16 39t16 39t39 16t39 -16t16 -39t-16 -39t-39 -16zM337 16q5 0 7.5 -3t2.5 -6q0 -10 -10 -10q-38 1 -71.5 2t-71.5 1q-23 0 -47 -0.5t-44.5 -1t-36 -1t-22.5 -0.5q-10 0 -10 10q0 3 2.5 6t7.5 3h98v680h-98q-10 0 -10 10q0 9 10 9q38 -1 72 -2
t72 -1q23 0 47 0.5t44 1t35.5 1t22.5 0.5q10 0 10 -9q0 -10 -10 -10h-95v-680h95z" />
    <glyph glyph-name="dotlessi" unicode="&#x131;" horiz-adv-x="305" 
d="M264 10q7 0 7 -6t-7 -6q-24 1 -56.5 1.5t-56.5 0.5q-16 0 -33.5 -0.5t-32.5 -0.5t-26.5 -0.5t-14.5 -0.5q-7 0 -8.5 1.5t-1.5 3.5q0 7 6 7h63v456h-63q-6 0 -6 7t6 7q25 -1 56.5 -1.5t54.5 -0.5q16 0 34 0.5t34 0.5t27.5 0.5t14.5 0.5q8 0 9 -2t1 -4q0 -8 -7 -8h-63v-456
h63z" />
    <glyph glyph-name="IJ" unicode="&#x132;" horiz-adv-x="755" 
d="M519 696h-98q-10 0 -10 10q0 9 10 9q38 -1 71.5 -2t71.5 -1q23 0 47 0.5t44.5 1t36 1t22.5 0.5q10 0 10 -9q0 -10 -10 -10h-95v-666q0 -65 -10.5 -109.5t-26.5 -74.5t-36 -47t-39 -25t-34.5 -10t-23.5 -2q-16 0 -32 4t-28.5 13t-20.5 23t-8 35q0 27 14 46t42 19
q25 0 37.5 -14t12.5 -33q0 -23 -14.5 -37t-35.5 -14q-10 0 -14.5 2.5t-6.5 2.5t-2 -3q0 -8 13.5 -16.5t39.5 -8.5q46 0 59.5 33t13.5 95v787zM337 16q5 0 7.5 -3t2.5 -6q0 -10 -10 -10q-38 1 -71.5 2t-71.5 1q-23 0 -47 -0.5t-44.5 -1t-36 -1t-22.5 -0.5q-10 0 -10 10
q0 3 2.5 6t7.5 3h98v680h-98q-10 0 -10 10q0 9 10 9q38 -1 72 -2t72 -1q23 0 47 0.5t44 1t35.5 1t22.5 0.5q10 0 10 -9q0 -10 -10 -10h-95v-680h95z" />
    <glyph glyph-name="ij" unicode="&#x133;" horiz-adv-x="605" 
d="M406 466h-67q-6 0 -6 7t6 7q26 -1 58.5 -1.5t55.5 -0.5q17 0 36 0.5t36 0.5t29 0.5t15 0.5q8 0 9.5 -2t1.5 -4q0 -8 -7 -8h-69v-466q0 -57 -16 -89t-38 -47.5t-44.5 -19.5t-34.5 -4q-52 0 -78.5 23t-26.5 53q0 25 16.5 37.5t39.5 12.5q28 0 40 -15.5t12 -34.5t-13 -30.5
t-34 -11.5q-13 0 -13 -2q0 -6 11.5 -12t30.5 -6q17 0 27 8t15 24.5t6.5 43t1.5 64.5v472zM264 10q7 0 7 -6t-7 -6q-24 1 -56.5 1.5t-56.5 0.5q-16 0 -33.5 -0.5t-32.5 -0.5t-26.5 -0.5t-14.5 -0.5q-7 0 -8.5 1.5t-1.5 3.5q0 7 6 7h63v456h-63q-6 0 -6 7t6 7q25 -1 56.5 -1.5
t54.5 -0.5q16 0 34 0.5t34 0.5t27.5 0.5t14.5 0.5q8 0 9 -2t1 -4q0 -8 -7 -8h-63v-456h63z" />
    <glyph glyph-name="Jcircumflex" unicode="&#x134;" horiz-adv-x="372" 
d="M316 760l-131 87l-131 -87l-14 13l132 119h27l132 -119zM136 696h-98q-10 0 -10 10q0 9 10 9q38 -1 71.5 -2t71.5 -1q23 0 47 0.5t44.5 1t36 1t22.5 0.5q10 0 10 -9q0 -10 -10 -10h-95v-666q0 -65 -10.5 -109.5t-26.5 -74.5t-36 -47t-39 -25t-34.5 -10t-23.5 -2
q-16 0 -32 4t-28.5 13t-20.5 23t-8 35q0 27 14 46t42 19q25 0 37.5 -14t12.5 -33q0 -23 -14.5 -37t-35.5 -14q-10 0 -14.5 2.5t-6.5 2.5t-2 -3q0 -8 13.5 -16.5t39.5 -8.5q46 0 59.5 33t13.5 95v787z" />
    <glyph glyph-name="jcircumflex" unicode="&#x135;" horiz-adv-x="300" 
d="M280 541l-131 88l-131 -88l-14 14l132 119h27l132 -119zM101 466h-67q-6 0 -6 7t6 7q26 -1 58.5 -1.5t55.5 -0.5q17 0 36 0.5t36 0.5t29 0.5t15 0.5q8 0 9.5 -2t1.5 -4q0 -8 -7 -8h-69v-466q0 -57 -16 -89t-38 -47.5t-44.5 -19.5t-34.5 -4q-52 0 -78.5 23t-26.5 53
q0 25 16.5 37.5t39.5 12.5q28 0 40 -15.5t12 -34.5t-13 -30.5t-34 -11.5q-13 0 -13 -2q0 -6 11.5 -12t30.5 -6q17 0 27 8t15 24.5t6.5 43t1.5 64.5v472z" />
    <glyph glyph-name="Kcommaaccent" unicode="&#x136;" horiz-adv-x="715" 
d="M325 -237q-10 0 -10 8q0 7 5.5 8t13.5 3q23 5 39 16t26 24.5t14.5 26.5t4.5 22q0 8 -3.5 15.5t-8.5 7.5q-4 0 -7 -4.5t-7.5 -10t-12 -10t-20.5 -4.5q-19 0 -31.5 11t-12.5 33q0 23 15.5 35t35.5 12q24 0 46 -19t22 -58q0 -29 -13 -50.5t-31 -36t-36.5 -22t-28.5 -7.5z
M721 16q5 0 7.5 -3t2.5 -6q0 -10 -10 -10q-22 0 -41 0.5t-37.5 1t-39 1t-45.5 0.5q-63 0 -103.5 -1.5t-47.5 -1.5q-10 0 -12.5 3t-2.5 6q0 10 11 10h48q21 0 35.5 3t14.5 16q0 8 -4.5 14t-9.5 13l-224 288l-24 -32v-302h95q5 0 8 -3t3 -6q0 -10 -11 -10q-38 1 -71.5 2
t-71.5 1q-23 0 -47 -0.5t-44 -1t-35.5 -1t-22.5 -0.5q-11 0 -11 10q0 3 3 6t8 3h98v680h-98q-11 0 -11 10q0 9 11 9q38 -1 71.5 -2t71.5 -1q23 0 47 0.5t44 1t35.5 1t22.5 0.5q11 0 11 -9q0 -10 -11 -10h-95v-348l192 252q17 22 25 37.5t8 31.5q0 27 -32 27h-26
q-11 0 -11 10q0 9 11 9q19 0 31 -0.5t22.5 -1t22.5 -1t30 -0.5q45 0 79.5 1.5t51.5 1.5q11 0 11 -9q0 -10 -11 -10h-17q-36 0 -58.5 -4.5t-39 -14.5t-29.5 -24.5t-29 -35.5l-141 -184l277 -357q25 -32 39.5 -46t32.5 -14h43z" />
    <glyph glyph-name="kcommaaccent" unicode="&#x137;" horiz-adv-x="537" 
d="M239 -237q-9 0 -9 8q0 7 5.5 8t13.5 3q22 5 38 16t26 24.5t14.5 26.5t4.5 22q0 8 -3.5 15.5t-8.5 7.5q-4 0 -7 -4.5t-7.5 -10t-12 -10t-20.5 -4.5q-18 0 -30.5 11t-12.5 33q0 23 15 35t35 12q24 0 46 -19t22 -58q0 -29 -13 -50.5t-31 -36t-36.5 -22t-28.5 -7.5zM200 213
v-203h59q8 0 8 -5q0 -7 -8 -7q-12 0 -28 0.5t-31.5 1t-30.5 0.5h-25q-14 0 -30.5 -0.5t-31 -0.5t-25.5 -0.5t-14 -0.5q-7 0 -8.5 1.5t-1.5 3.5q0 7 7 7h62v456h-62q-7 0 -7 7t7 7q12 0 28 -0.5t32.5 -1t31.5 -0.5h25q14 0 30 0.5t30.5 0.5t24.5 0.5t13 0.5q8 0 10 -2t2 -4
q0 -8 -8 -8h-59v-231l128 150q19 21 27 35.5t8 24.5q0 14 -13 17.5t-32 3.5h-8q-6 0 -6 7t6 7q14 0 39 -1t63 -1q37 0 57 1t31 1q7 0 7 -7t-7 -7h-12q-24 0 -41 -2.5t-30 -8.5t-24 -16t-24 -25l-107 -125l187 -238q10 -13 21.5 -24t27.5 -15q8 -2 18.5 -2t10.5 -5
q0 -7 -8 -7q-30 0 -59 1t-58 1q-41 0 -65.5 -1t-29.5 -1q-6 0 -7.5 2t-1.5 4q0 6 7 6h13q31 0 31 13q0 7 -9 19z" />
    <glyph glyph-name="kgreenlandic" unicode="&#x138;" horiz-adv-x="538" 
d="M201 213v-203h59q8 0 8 -5q0 -7 -8 -7q-12 0 -28 0.5t-31.5 1t-30.5 0.5h-25q-14 0 -30.5 -0.5t-31 -0.5t-25.5 -0.5t-14 -0.5q-7 0 -8.5 1.5t-1.5 3.5q0 7 7 7h62v456h-62q-7 0 -7 7t7 7q12 0 28 -0.5t32.5 -1t31.5 -0.5h25q14 0 30 0.5t30.5 0.5t24.5 0.5t13 0.5
q8 0 10 -2t2 -4q0 -8 -8 -8h-59v-231l128 150q19 21 27 35.5t8 24.5q0 14 -13 17.5t-32 3.5h-8q-6 0 -6 7t6 7q14 0 39 -1t63 -1q37 0 57 1t31 1q7 0 7 -7t-7 -7h-12q-24 0 -41 -2.5t-30 -8.5t-24 -16t-24 -25l-107 -125l187 -238q10 -13 21.5 -24t27.5 -15q8 -2 18.5 -2
t10.5 -5q0 -7 -8 -7q-30 0 -59 1t-58 1q-41 0 -65.5 -1t-29.5 -1q-6 0 -7.5 2t-1.5 4q0 6 7 6h13q31 0 31 13q0 7 -9 19z" />
    <glyph glyph-name="Lacute" unicode="&#x139;" horiz-adv-x="618" 
d="M164 760l57 127h80l-102 -127h-35zM399 16q55 0 89 14t52.5 37t26.5 53t13 62q1 7 2.5 12t7.5 5q7 0 8 -4.5t1 -11.5q-1 -27 -5.5 -66t-4.5 -88v-16t1 -16q-11 1 -22 1.5t-27.5 0.5t-42 0.5t-66.5 0.5h-100h-142q-21 0 -44.5 -0.5t-43.5 -1t-36 -1t-22 -0.5q-11 0 -11 10
q0 3 3 6t8 3h98v680h-98q-11 0 -11 10q0 9 11 9q38 -1 71.5 -2t71.5 -1q23 0 47 0.5t44 1t35.5 1t22.5 0.5q11 0 11 -9q0 -10 -11 -10h-95v-680h158z" />
    <glyph glyph-name="lacute" unicode="&#x13a;" horiz-adv-x="469" 
d="M138 541l57 128h81l-102 -128h-36zM247 10q60 0 93.5 7t51 23t24 41t11.5 61q1 12 8 12q5 0 5.5 -3t0.5 -8q0 -16 -1.5 -39.5t-1.5 -46.5q0 -13 0.5 -29t1.5 -30q-10 0 -26.5 0.5t-48 1t-82.5 0.5h-131q-16 0 -33.5 -0.5t-33 -0.5t-27 -0.5t-14.5 -0.5q-7 0 -8.5 2
t-1.5 4q0 6 7 6h62v456h-62q-7 0 -7 7t7 7q25 -1 56 -1.5t55 -0.5q16 0 34 0.5t33.5 0.5t27 0.5t14.5 0.5q8 0 9 -2t1 -4q0 -8 -6 -8h-64v-456h46z" />
    <glyph glyph-name="Lcommaaccent" unicode="&#x13b;" horiz-adv-x="616" 
d="M305 -237q-10 0 -10 8q0 7 5.5 8t13.5 3q23 5 39 16t26 24.5t14.5 26.5t4.5 22q0 8 -3.5 15.5t-8.5 7.5q-4 0 -7 -4.5t-7.5 -10t-12 -10t-20.5 -4.5q-19 0 -31.5 11t-12.5 33q0 23 15.5 35t35.5 12q24 0 46 -19t22 -58q0 -29 -13 -50.5t-31 -36t-36.5 -22t-28.5 -7.5z
M397 16q55 0 89 14t52.5 37t26.5 53t13 62q1 7 2.5 12t7.5 5q7 0 8 -4.5t1 -11.5q-1 -27 -5.5 -66t-4.5 -88v-16t1 -16q-11 1 -22 1.5t-27.5 0.5t-42 0.5t-66.5 0.5h-100h-142q-21 0 -44.5 -0.5t-43.5 -1t-36 -1t-22 -0.5q-11 0 -11 10q0 3 3 6t8 3h98v680h-98q-11 0 -11 10
q0 9 11 9q38 -1 71.5 -2t71.5 -1q23 0 47 0.5t44 1t35.5 1t22.5 0.5q11 0 11 -9q0 -10 -11 -10h-95v-680h158z" />
    <glyph glyph-name="lcommaaccent" unicode="&#x13c;" horiz-adv-x="467" 
d="M204 -237q-10 0 -10 8q0 7 5.5 8t13.5 3q23 5 39 16t26 24.5t14.5 26.5t4.5 22q0 8 -3.5 15.5t-8.5 7.5q-4 0 -7 -4.5t-7.5 -10t-12 -10t-20.5 -4.5q-19 0 -31.5 11t-12.5 33q0 23 15.5 35t35.5 12q24 0 46 -19t22 -58q0 -29 -13 -50.5t-31 -36t-36.5 -22t-28.5 -7.5z
M246 10q60 0 93.5 7t51 23t24 41t11.5 61q1 12 8 12q5 0 5.5 -3t0.5 -8q0 -16 -1.5 -39.5t-1.5 -46.5q0 -13 0.5 -29t1.5 -30q-10 0 -26.5 0.5t-48 1t-82.5 0.5h-131q-16 0 -33.5 -0.5t-33 -0.5t-27 -0.5t-14.5 -0.5q-7 0 -8.5 2t-1.5 4q0 6 7 6h62v456h-62q-7 0 -7 7t7 7
q25 -1 56 -1.5t55 -0.5q16 0 34 0.5t33.5 0.5t27 0.5t14.5 0.5q8 0 9 -2t1 -4q0 -8 -6 -8h-64v-456h46z" />
    <glyph glyph-name="Lcaron" unicode="&#x13d;" horiz-adv-x="618" 
d="M462 474q-13 0 -13 10q0 8 7.5 9.5t15.5 3.5q28 6 48 20t32.5 30.5t18 32.5t5.5 27q0 10 -4 19t-10 9q-5 0 -9 -5.5t-10 -12.5t-15 -12.5t-24 -5.5q-24 0 -39.5 14.5t-15.5 40.5q0 29 19 43.5t44 14.5q15 0 30 -6t27 -17.5t19.5 -29.5t7.5 -42q0 -36 -16.5 -62.5
t-38.5 -44.5t-44.5 -27t-34.5 -9zM399 16q55 0 89 14t52.5 37t26.5 53t13 62q1 7 2.5 12t7.5 5q7 0 8 -4.5t1 -11.5q-1 -27 -5.5 -66t-4.5 -88v-16t1 -16q-11 1 -22 1.5t-27.5 0.5t-42 0.5t-66.5 0.5h-100h-142q-21 0 -44.5 -0.5t-43.5 -1t-36 -1t-22 -0.5q-11 0 -11 10
q0 3 3 6t8 3h98v680h-98q-11 0 -11 10q0 9 11 9q38 -1 71.5 -2t71.5 -1q23 0 47 0.5t44 1t35.5 1t22.5 0.5q11 0 11 -9q0 -10 -11 -10h-95v-680h158z" />
    <glyph glyph-name="lcaron" unicode="&#x13e;" horiz-adv-x="469" 
d="M345 311q-13 0 -13 9q0 8 7.5 9.5t15.5 3.5q28 7 48 21t32.5 30.5t18 32.5t5.5 27q0 10 -4 18.5t-11 8.5q-5 0 -8.5 -5.5t-9.5 -12t-15 -12t-25 -5.5q-23 0 -38.5 14t-15.5 40q0 29 19 44t44 15q15 0 30 -6t27 -17.5t19.5 -29.5t7.5 -42q0 -36 -16.5 -63t-38.5 -44.5
t-44.5 -26.5t-34.5 -9zM247 10q60 0 93.5 7t51 23t24 41t11.5 61q1 12 8 12q5 0 5.5 -3t0.5 -8q0 -16 -1.5 -39.5t-1.5 -46.5q0 -13 0.5 -29t1.5 -30q-10 0 -26.5 0.5t-48 1t-82.5 0.5h-131q-16 0 -33.5 -0.5t-33 -0.5t-27 -0.5t-14.5 -0.5q-7 0 -8.5 2t-1.5 4q0 6 7 6h62
v456h-62q-7 0 -7 7t7 7q25 -1 56 -1.5t55 -0.5q16 0 34 0.5t33.5 0.5t27 0.5t14.5 0.5q8 0 9 -2t1 -4q0 -8 -6 -8h-64v-456h46z" />
    <glyph glyph-name="Ldot" unicode="&#x13f;" horiz-adv-x="618" 
d="M520 332q-23 0 -39 16t-16 39t16 39t39 16t39 -16t16 -39t-16 -39t-39 -16zM399 16q55 0 89 14t52.5 37t26.5 53t13 62q1 7 2.5 12t7.5 5q7 0 8 -4.5t1 -11.5q-1 -27 -5.5 -66t-4.5 -88v-16t1 -16q-11 1 -22 1.5t-27.5 0.5t-42 0.5t-66.5 0.5h-100h-142q-21 0 -44.5 -0.5
t-43.5 -1t-36 -1t-22 -0.5q-11 0 -11 10q0 3 3 6t8 3h98v680h-98q-11 0 -11 10q0 9 11 9q38 -1 71.5 -2t71.5 -1q23 0 47 0.5t44 1t35.5 1t22.5 0.5q11 0 11 -9q0 -10 -11 -10h-95v-680h158z" />
    <glyph glyph-name="ldot" unicode="&#x140;" horiz-adv-x="469" 
d="M381 237q-23 0 -39 16t-16 39t16 39t39 16t39 -16t16 -39t-16 -39t-39 -16zM247 10q60 0 93.5 7t51 23t24 41t11.5 61q1 12 8 12q5 0 5.5 -3t0.5 -8q0 -16 -1.5 -39.5t-1.5 -46.5q0 -13 0.5 -29t1.5 -30q-10 0 -26.5 0.5t-48 1t-82.5 0.5h-131q-16 0 -33.5 -0.5t-33 -0.5
t-27 -0.5t-14.5 -0.5q-7 0 -8.5 2t-1.5 4q0 6 7 6h62v456h-62q-7 0 -7 7t7 7q25 -1 56 -1.5t55 -0.5q16 0 34 0.5t33.5 0.5t27 0.5t14.5 0.5q8 0 9 -2t1 -4q0 -8 -6 -8h-64v-456h46z" />
    <glyph glyph-name="Lslash" unicode="&#x141;" horiz-adv-x="618" 
d="M399 16q55 0 89 14t52.5 37t26.5 53t13 62q1 7 2.5 12t7.5 5q7 0 8 -4.5t1 -11.5q-1 -27 -5.5 -66t-4.5 -88v-16t1 -16q-11 1 -22 1.5t-27.5 0.5t-42 0.5t-66.5 0.5h-100h-142q-21 0 -44.5 -0.5t-43.5 -1t-36 -1t-22 -0.5q-11 0 -11 10q0 3 3 6t8 3h98v217l-84 -53
l-14 17l98 62v437h-98q-11 0 -11 10q0 9 11 9q38 -1 71.5 -2t71.5 -1q23 0 47 0.5t44 1t35.5 1t22.5 0.5q11 0 11 -9q0 -10 -11 -10h-95v-372l151 98l14 -18l-165 -107v-281h158z" />
    <glyph glyph-name="lslash" unicode="&#x142;" horiz-adv-x="469" 
d="M247 10q60 0 93.5 7t51 23t24 41t11.5 61q1 12 8 12q5 0 5.5 -3t0.5 -8q0 -16 -1.5 -39.5t-1.5 -46.5q0 -13 0.5 -29t1.5 -30q-10 0 -26.5 0.5t-48 1t-82.5 0.5h-131q-16 0 -33.5 -0.5t-33 -0.5t-27 -0.5t-14.5 -0.5q-7 0 -8.5 2t-1.5 4q0 6 7 6h62v146l-47 -30l-11 15
l58 37v288h-62q-7 0 -7 7t7 7q25 -1 56 -1.5t55 -0.5q16 0 34 0.5t33.5 0.5t27 0.5t14.5 0.5q8 0 9 -2t1 -4q0 -8 -6 -8h-64v-225l98 64l9 -16l-107 -70v-209h46z" />
    <glyph glyph-name="Nacute" unicode="&#x143;" horiz-adv-x="757" 
d="M347 760l57 127h81l-103 -127h-35zM163 638v-522q0 -33 5 -53t15.5 -30.5t26.5 -13.5t37 -3h17q5 0 7.5 -3t2.5 -6q0 -10 -10 -10q-20 0 -32 0.5t-23 1t-23 1t-30 0.5q-44 0 -68.5 -1.5t-44.5 -1.5q-10 0 -10 10q0 3 2.5 6t7.5 3h17q17 0 32 2.5t26.5 10.5t18.5 22.5
t7 38.5v573q-13 23 -22 28t-19 5h-54q-10 0 -10 10q0 2 1.5 5.5t8.5 3.5q54 -3 88 -3q28 0 54.5 1.5t43.5 1.5l365 -554v461q0 24 -7 38.5t-18.5 22.5t-26.5 10.5t-32 2.5h-17q-10 0 -10 10q0 9 10 9q19 0 31.5 -0.5t23.5 -1t23 -1t30 -0.5q44 0 68.5 1.5t44.5 1.5
q10 0 10 -9q0 -10 -10 -10h-17q-21 0 -37 -3t-26.5 -13t-15.5 -30t-5 -53v-601q0 -8 -1.5 -12.5t-8.5 -4.5q-5 0 -10.5 3.5t-12.5 14.5z" />
    <glyph glyph-name="nacute" unicode="&#x144;" horiz-adv-x="546" 
d="M253 541l57 128h80l-102 -128h-35zM118 439v-351q0 -19 1 -33.5t6 -24.5t16.5 -15t32.5 -5h5q2 0 4 -1t2 -5q0 -6 -6 -6q-13 0 -20 0.5t-12.5 1t-12 0.5h-17.5q-32 0 -47 -1t-28 -1q-8 0 -8 7q0 5 8 5h5q22 0 33.5 5t17 17t6.5 30.5t1 45.5v347q-4 7 -15.5 9t-43.5 2h-5
q-7 0 -7 7q0 2 1 4.5t6 2.5q18 -1 45.5 -1.5t49.5 -0.5h43.5t31.5 2l220 -323v212q0 27 -1 46t-6.5 30t-17.5 16t-34 5h-4q-7 0 -7 7t7 7q13 0 20.5 -0.5t13.5 -1t13 -0.5h18q32 0 44.5 1t26.5 1q7 0 7 -7t-7 -7h-4q-21 0 -32 -5t-16 -14.5t-6 -24t-1 -33.5v-392
q0 -11 -8 -11q-2 0 -6 2t-9 10z" />
    <glyph glyph-name="Ncommaaccent" unicode="&#x145;" horiz-adv-x="758" 
d="M356 -237q-10 0 -10 8q0 7 5.5 8t13.5 3q23 5 39 16t26 24.5t14.5 26.5t4.5 22q0 8 -3.5 15.5t-8.5 7.5q-4 0 -7 -4.5t-7.5 -10t-12 -10t-20.5 -4.5q-19 0 -31.5 11t-12.5 33q0 23 15.5 35t35.5 12q24 0 46 -19t22 -58q0 -29 -13 -50.5t-31 -36t-36.5 -22t-28.5 -7.5z
M163 638v-522q0 -33 5 -53t15.5 -30.5t26.5 -13.5t37 -3h17q5 0 7.5 -3t2.5 -6q0 -10 -10 -10q-20 0 -32 0.5t-23 1t-23 1t-30 0.5q-44 0 -68.5 -1.5t-44.5 -1.5q-10 0 -10 10q0 3 2.5 6t7.5 3h17q17 0 32 2.5t26.5 10.5t18.5 22.5t7 38.5v573q-13 23 -22 28t-19 5h-54
q-10 0 -10 10q0 2 1.5 5.5t8.5 3.5q54 -3 88 -3q28 0 54.5 1.5t43.5 1.5l365 -554v461q0 24 -7 38.5t-18.5 22.5t-26.5 10.5t-32 2.5h-17q-10 0 -10 10q0 9 10 9q19 0 31.5 -0.5t23.5 -1t23 -1t30 -0.5q44 0 68.5 1.5t44.5 1.5q10 0 10 -9q0 -10 -10 -10h-17q-21 0 -37 -3
t-26.5 -13t-15.5 -30t-5 -53v-601q0 -8 -1.5 -12.5t-8.5 -4.5q-5 0 -10.5 3.5t-12.5 14.5z" />
    <glyph glyph-name="ncommaaccent" unicode="&#x146;" horiz-adv-x="546" 
d="M236 -237q-10 0 -10 8q0 7 5.5 8t13.5 3q23 5 39 16t26 24.5t14.5 26.5t4.5 22q0 8 -3.5 15.5t-9.5 7.5q-4 0 -7 -4.5t-7.5 -10t-11.5 -10t-20 -4.5q-19 0 -31.5 11t-12.5 33q0 23 15 35t35 12q25 0 47 -19t22 -58q0 -29 -13 -50.5t-31 -36t-36.5 -22t-28.5 -7.5z
M118 439v-351q0 -19 1 -33.5t6 -24.5t16.5 -15t32.5 -5h5q2 0 4 -1t2 -5q0 -6 -6 -6q-13 0 -20 0.5t-12.5 1t-12 0.5h-17.5q-32 0 -47 -1t-28 -1q-8 0 -8 7q0 5 8 5h5q22 0 33.5 5t17 17t6.5 30.5t1 45.5v347q-4 7 -15.5 9t-43.5 2h-5q-7 0 -7 7q0 2 1 4.5t6 2.5
q18 -1 45.5 -1.5t49.5 -0.5h43.5t31.5 2l220 -323v212q0 27 -1 46t-6.5 30t-17.5 16t-34 5h-4q-7 0 -7 7t7 7q13 0 20.5 -0.5t13.5 -1t13 -0.5h18q32 0 44.5 1t26.5 1q7 0 7 -7t-7 -7h-4q-21 0 -32 -5t-16 -14.5t-6 -24t-1 -33.5v-392q0 -11 -8 -11q-2 0 -6 2t-9 10z" />
    <glyph glyph-name="Ncaron" unicode="&#x147;" horiz-adv-x="757" 
d="M400 760h-26l-132 119l14 13l131 -87l131 87l15 -13zM163 638v-522q0 -33 5 -53t15.5 -30.5t26.5 -13.5t37 -3h17q5 0 7.5 -3t2.5 -6q0 -10 -10 -10q-20 0 -32 0.5t-23 1t-23 1t-30 0.5q-44 0 -68.5 -1.5t-44.5 -1.5q-10 0 -10 10q0 3 2.5 6t7.5 3h17q17 0 32 2.5
t26.5 10.5t18.5 22.5t7 38.5v573q-13 23 -22 28t-19 5h-54q-10 0 -10 10q0 2 1.5 5.5t8.5 3.5q54 -3 88 -3q28 0 54.5 1.5t43.5 1.5l365 -554v461q0 24 -7 38.5t-18.5 22.5t-26.5 10.5t-32 2.5h-17q-10 0 -10 10q0 9 10 9q19 0 31.5 -0.5t23.5 -1t23 -1t30 -0.5
q44 0 68.5 1.5t44.5 1.5q10 0 10 -9q0 -10 -10 -10h-17q-21 0 -37 -3t-26.5 -13t-15.5 -30t-5 -53v-601q0 -8 -1.5 -12.5t-8.5 -4.5q-5 0 -10.5 3.5t-12.5 14.5z" />
    <glyph glyph-name="ncaron" unicode="&#x148;" horiz-adv-x="546" 
d="M299 541h-26l-132 119l14 14l131 -88l131 88l14 -14zM118 439v-351q0 -19 1 -33.5t6 -24.5t16.5 -15t32.5 -5h5q2 0 4 -1t2 -5q0 -6 -6 -6q-13 0 -20 0.5t-12.5 1t-12 0.5h-17.5q-32 0 -47 -1t-28 -1q-8 0 -8 7q0 5 8 5h5q22 0 33.5 5t17 17t6.5 30.5t1 45.5v347
q-4 7 -15.5 9t-43.5 2h-5q-7 0 -7 7q0 2 1 4.5t6 2.5q18 -1 45.5 -1.5t49.5 -0.5h43.5t31.5 2l220 -323v212q0 27 -1 46t-6.5 30t-17.5 16t-34 5h-4q-7 0 -7 7t7 7q13 0 20.5 -0.5t13.5 -1t13 -0.5h18q32 0 44.5 1t26.5 1q7 0 7 -7t-7 -7h-4q-21 0 -32 -5t-16 -14.5t-6 -24
t-1 -33.5v-392q0 -11 -8 -11q-2 0 -6 2t-9 10z" />
    <glyph glyph-name="Omacron" unicode="&#x14c;" horiz-adv-x="801" 
d="M253 779v28h294v-28h-294zM400 6q70 0 117 30.5t76 80t41.5 113t12.5 130.5t-12.5 130.5t-41.5 113t-76 80t-117 30.5t-117 -30.5t-76 -80t-41.5 -113t-12.5 -130.5t12.5 -130.5t41.5 -113t76 -80t117 -30.5zM400 -13q-77 0 -141 31t-111 82.5t-73 119t-26 140.5
t26 140.5t73 119t111 82.5t141 31q76 0 141 -31t111.5 -82.5t73 -119t26.5 -140.5t-26.5 -140.5t-73 -119t-111.5 -82.5t-141 -31z" />
    <glyph glyph-name="omacron" unicode="&#x14d;" horiz-adv-x="592" 
d="M149 560v29h294v-29h-294zM296 4q46 0 76 19.5t46.5 52.5t23 75.5t6.5 89.5t-6.5 90t-23 76t-46.5 52.5t-76 19.5q-47 0 -76.5 -19.5t-46.5 -52.5t-23 -76t-6 -90t6 -89.5t23 -75.5t46.5 -52.5t76.5 -19.5zM549 241q0 -50 -20.5 -95t-55 -79.5t-80.5 -55t-97 -20.5
t-97 20.5t-80.5 55t-55 79.5t-20.5 95q0 49 20.5 94.5t55 80t80.5 55t97 20.5t97 -20.5t80.5 -55t55 -80t20.5 -94.5z" />
    <glyph glyph-name="Obreve" unicode="&#x14e;" horiz-adv-x="801" 
d="M525 883q0 -14 -3.5 -35t-16.5 -40.5t-37.5 -33.5t-67.5 -14t-67.5 14t-37 33.5t-16 40.5t-3.5 35q0 12 2 15.5t7 3.5q6 0 8 -3.5t2 -15.5q0 -11 1.5 -27.5t11.5 -31.5t31.5 -25.5t60.5 -10.5q40 0 61.5 10.5t31.5 25.5t11.5 31.5t1.5 27.5q0 12 2 15.5t7 3.5q6 0 8 -3.5
t2 -15.5zM400 6q70 0 117 30.5t76 80t41.5 113t12.5 130.5t-12.5 130.5t-41.5 113t-76 80t-117 30.5t-117 -30.5t-76 -80t-41.5 -113t-12.5 -130.5t12.5 -130.5t41.5 -113t76 -80t117 -30.5zM400 -13q-77 0 -141 31t-111 82.5t-73 119t-26 140.5t26 140.5t73 119t111 82.5
t141 31q76 0 141 -31t111.5 -82.5t73 -119t26.5 -140.5t-26.5 -140.5t-73 -119t-111.5 -82.5t-141 -31z" />
    <glyph glyph-name="obreve" unicode="&#x14f;" horiz-adv-x="592" 
d="M420 665q0 -14 -3.5 -35.5t-16 -41t-37 -33.5t-67.5 -14t-68 14t-37.5 33.5t-16 41t-3.5 35.5q0 11 2 15t8 4q5 0 7 -4t2 -15t1.5 -27.5t11.5 -31.5t31.5 -25.5t61.5 -10.5q39 0 60.5 10.5t31.5 25.5t11.5 31.5t1.5 27.5t2 15t8 4q5 0 7 -4t2 -15zM296 4q46 0 76 19.5
t46.5 52.5t23 75.5t6.5 89.5t-6.5 90t-23 76t-46.5 52.5t-76 19.5q-47 0 -76.5 -19.5t-46.5 -52.5t-23 -76t-6 -90t6 -89.5t23 -75.5t46.5 -52.5t76.5 -19.5zM549 241q0 -50 -20.5 -95t-55 -79.5t-80.5 -55t-97 -20.5t-97 20.5t-80.5 55t-55 79.5t-20.5 95q0 49 20.5 94.5
t55 80t80.5 55t97 20.5t97 -20.5t80.5 -55t55 -80t20.5 -94.5z" />
    <glyph glyph-name="Ohungarumlaut" unicode="&#x150;" horiz-adv-x="801" 
d="M467 807q10 13 10 18q0 2 -1.5 5t-7 9t-16 16t-28.5 26q-13 10 -13 20q0 3 3 7t14 15q18 19 33.5 35.5t33.5 38.5q2 2 4 3.5t4 1.5q3 0 6 -4q4 -3 4 -6q0 -2 -4 -8l-19 -23q-11 -11 -11 -17q0 -2 2 -5.5t7.5 -9.5t16 -15.5t27.5 -25.5q14 -11 14 -20q0 -3 -3.5 -7.5
t-14.5 -15.5q-18 -18 -33.5 -34.5t-33.5 -38.5q-5 -5 -8 -5q-2 0 -6 3q-4 4 -4 7q0 2 4 8zM311 801q10 10 10 17q0 3 -1.5 6t-7 9t-16 15.5t-28.5 25.5q-5 5 -9 10t-4 10q0 4 3 8t14 15q19 18 34.5 34.5t32.5 38.5q6 6 8 6q3 0 7 -4q3 -3 3 -7t-3 -7l-20 -23
q-11 -13 -11 -17q0 -3 2 -6t7.5 -9t16 -16t27.5 -25q14 -12 14 -20q0 -4 -3 -8t-14 -15q-19 -19 -34.5 -35.5t-33.5 -37.5q-6 -6 -7 -6q-3 0 -7 4t-4 6t4 8zM400 6q70 0 117 30.5t76 80t41.5 113t12.5 130.5t-12.5 130.5t-41.5 113t-76 80t-117 30.5t-117 -30.5t-76 -80
t-41.5 -113t-12.5 -130.5t12.5 -130.5t41.5 -113t76 -80t117 -30.5zM400 -13q-77 0 -141 31t-111 82.5t-73 119t-26 140.5t26 140.5t73 119t111 82.5t141 31q76 0 141 -31t111.5 -82.5t73 -119t26.5 -140.5t-26.5 -140.5t-73 -119t-111.5 -82.5t-141 -31z" />
    <glyph glyph-name="ohungarumlaut" unicode="&#x151;" horiz-adv-x="592" 
d="M362 589q5 6 8 9.5t3 7.5q0 3 -2 6t-7.5 9t-16 15.5t-27.5 25.5q-14 12 -14 20q0 4 3 8t14 15q19 19 34.5 35.5t33.5 37.5q6 6 7 6q3 0 7 -4t4 -7q0 -2 -1 -3.5t-3 -3.5l-20 -23q-10 -11 -10 -17q0 -3 1.5 -6t7 -9t16 -15.5t28.5 -25.5q5 -5 9 -10t4 -10q0 -4 -3 -8
t-14 -15q-19 -19 -34.5 -35.5t-32.5 -37.5q-6 -6 -8 -6q-3 0 -7 4q-3 4 -3 7q0 2 3 7zM207 582q10 13 10 17q0 5 -9.5 15t-43.5 41q-14 12 -14 20q0 4 3.5 8t14.5 15q18 19 33.5 35.5t33.5 37.5q6 6 8 6t6 -4t4 -6t-4 -8l-20 -23q-10 -12 -10 -17q0 -3 2 -6t7.5 -9t16 -15.5
t27.5 -25.5q13 -11 13 -20q0 -4 -3 -8t-14 -15q-18 -18 -33.5 -34.5t-33.5 -38.5q-6 -6 -8 -6q-3 0 -6 4q-4 4 -4 7q0 2 4 8zM296 4q46 0 76 19.5t46.5 52.5t23 75.5t6.5 89.5t-6.5 90t-23 76t-46.5 52.5t-76 19.5q-47 0 -76.5 -19.5t-46.5 -52.5t-23 -76t-6 -90t6 -89.5
t23 -75.5t46.5 -52.5t76.5 -19.5zM549 241q0 -50 -20.5 -95t-55 -79.5t-80.5 -55t-97 -20.5t-97 20.5t-80.5 55t-55 79.5t-20.5 95q0 49 20.5 94.5t55 80t80.5 55t97 20.5t97 -20.5t80.5 -55t55 -80t20.5 -94.5z" />
    <glyph glyph-name="OE" unicode="&#x152;" horiz-adv-x="1170" 
d="M401 6q70 0 118 30t78 81t43 117.5t13 138.5q0 64 -14 125t-44 109t-78 77.5t-116 29.5q-70 0 -117 -30.5t-76 -80t-41.5 -113t-12.5 -130.5t12.5 -130.5t41.5 -113t76 -80t117 -30.5zM910 16q50 0 83.5 12.5t54 34.5t30.5 52.5t13 66.5q1 17 10 17q7 0 8 -4.5t1 -12.5
q-2 -35 -6 -71.5t-4 -81.5v-16t1 -16q-11 1 -22 1.5t-27.5 0.5t-42 0.5t-66.5 0.5h-100h-142q-17 0 -44 -1t-45 -2q-11 0 -11 10q0 3 3 6t8 3h41v94q-47 -61 -112 -92t-140 -31q-77 0 -141.5 31t-111 82.5t-73 119t-26.5 140.5t26.5 140.5t73 119t111 82.5t141.5 31
q75 0 140.5 -31t111.5 -93v87h-41q-11 0 -11 10q0 9 11 9q18 -1 45 -2t44 -1h197t116 0.5t59.5 1t27.5 1.5q0 -14 0.5 -39.5t2.5 -41.5q2 -21 3 -34t1.5 -23.5t0.5 -20.5t1 -23q0 -8 -1 -12t-8 -4q-10 0 -10 16q0 33 -6.5 63t-27 52t-57.5 35t-99 13h-149v-290h45
q30 0 52.5 3.5t37.5 15.5t22.5 34t8.5 60q0 16 10 16q7 0 8 -4.5t1 -11.5q-2 -37 -2.5 -53.5t-1.5 -25.5t-1 -17v-27v-29.5t1 -21t1.5 -30.5t2.5 -56q0 -7 -1 -11.5t-8 -4.5q-10 0 -10 16q-1 42 -8.5 67t-22.5 38.5t-37.5 18t-52.5 4.5h-45v-371h158z" />
    <glyph glyph-name="oe" unicode="&#x153;" horiz-adv-x="859" 
d="M301 4q45 0 74 17t46 47.5t24 74t7 97.5q0 53 -6.5 97t-24 75.5t-47 49t-74.5 17.5q-48 0 -78.5 -19t-48 -51.5t-23.5 -76t-6 -91.5t6 -91.5t23.5 -75.5t48 -51t79.5 -19zM612 10q60 0 93.5 8t51 24.5t23.5 41t11 58.5q1 12 7 12q5 0 5.5 -3t0.5 -8t-0.5 -16t-1 -24
t-1 -25.5t-0.5 -21.5q0 -10 0.5 -15.5t0.5 -12.5v-5t0.5 -9.5t0.5 -10v-5.5q-10 0 -22.5 0.5t-40.5 1t-77.5 0.5h-132.5q-28 0 -56.5 -1t-41.5 -1q-7 0 -7 6t7 6h20v59q-26 -35 -65 -56.5t-91 -21.5q-51 0 -97 20.5t-80.5 55t-55 79.5t-20.5 95q0 49 20 94.5t54.5 80
t80.5 55t97 20.5q53 0 92 -21.5t65 -56.5v53h-20q-7 0 -7 7t7 7q13 0 37 -1t51 -1h129.5h81t44.5 0.5t20 1.5q0 -48 2 -87t2 -58q0 -10 -4 -10q-7 0 -8 10q-5 30 -12 54.5t-22.5 41.5t-45 26t-79.5 9h-78v-219h23q34 0 54 6t30 18t13 30t5 42q0 10 8 10q5 0 5 -10
q0 -14 -0.5 -25.5l-1 -23l-1 -23t-0.5 -26.5t0.5 -24t0.5 -18.5t0.5 -24t0.5 -40.5q0 -12 -4 -12q-5 0 -6 3.5t-1 8.5q-3 30 -8.5 49t-17 29.5t-30.5 14.5t-47 4h-23v-225h62z" />
    <glyph glyph-name="Racute" unicode="&#x154;" horiz-adv-x="694" 
d="M279 760l57 127h80l-102 -127h-35zM279 374q30 0 64 3.5t62.5 19t47.5 47t19 87.5q0 57 -20 90t-52.5 50t-74 21.5t-84.5 4.5v-323h38zM335 16q10 0 10 -10q0 -9 -10 -9q-38 1 -71.5 2t-71.5 1q-23 0 -47 -0.5t-44.5 -1t-35 -1t-18.5 -0.5q-9 0 -11.5 2t-2.5 7
q0 10 10 10h98v681h-98q-10 0 -10 10q0 4 2 6.5t10 2.5q3 0 25.5 -0.5t51 -1.5t56 -1.5t40.5 -0.5q23 0 46 1.5t52 1.5q42 0 87.5 -6t84 -24t63.5 -52t25 -90q0 -41 -14.5 -72.5t-38.5 -53t-56 -35t-66 -18.5q63 -12 97 -36t49.5 -56.5t18.5 -70.5t3 -78q0 -20 1.5 -39.5
t7.5 -36t18 -26.5t32 -10q16 0 28 5t17 7q6 3 9 3q7 0 7 -7q0 -5 -5 -9q-3 -3 -19.5 -10.5t-54.5 -7.5q-49 0 -77.5 15t-42.5 39t-18 53.5t-5 58.5q-2 47 -5.5 83.5t-20.5 62t-51.5 38.5t-97.5 13h-51v-339h94z" />
    <glyph glyph-name="racute" unicode="&#x155;" 
d="M223 541l57 128h81l-103 -128h-35zM200 249q36 0 65.5 2t50.5 12.5t33 32t12 60.5t-12 61t-33.5 32.5t-51 13t-64.5 2.5v-216zM264 10q7 0 7 -6t-7 -6q-24 1 -57 1.5t-56 0.5q-17 0 -34.5 -0.5t-32.5 -0.5t-26.5 -0.5t-14.5 -0.5q-7 0 -8.5 1.5t-1.5 3.5q0 7 7 7h62v456
h-62q-7 0 -7 7q0 6 7 6q17 -1 44.5 -1h65.5q24 0 51 0.5t50 0.5q39 0 76.5 -3.5t67 -16t47 -36t17.5 -62.5q0 -54 -36 -83t-109 -38q45 -2 72.5 -13.5t43 -30t20.5 -43t5 -52.5q0 -13 0.5 -29.5t4.5 -30.5t11.5 -24t22.5 -10q12 0 21.5 3.5t15.5 3.5q5 0 5 -4
q0 -6 -16.5 -12.5t-49.5 -6.5q-52 0 -74 18t-28.5 45.5t-5.5 59t-5 59t-27 45.5t-71 18h-59v-226h64z" />
    <glyph glyph-name="Rcommaaccent" unicode="&#x156;" horiz-adv-x="694" 
d="M336 -237q-10 0 -10 8q0 7 5.5 8t13.5 3q23 5 39 16t26 24.5t14.5 26.5t4.5 22q0 8 -3.5 15.5t-9.5 7.5q-4 0 -7 -4.5t-7.5 -10t-11.5 -10t-20 -4.5q-19 0 -31.5 11t-12.5 33q0 23 15 35t35 12q25 0 47 -19t22 -58q0 -29 -13 -50.5t-31 -36t-36.5 -22t-28.5 -7.5z
M279 374q30 0 64 3.5t62.5 19t47.5 47t19 87.5q0 57 -20 90t-52.5 50t-74 21.5t-84.5 4.5v-323h38zM335 16q10 0 10 -10q0 -9 -10 -9q-38 1 -71.5 2t-71.5 1q-23 0 -47 -0.5t-44.5 -1t-35 -1t-18.5 -0.5q-9 0 -11.5 2t-2.5 7q0 10 10 10h98v681h-98q-10 0 -10 10q0 4 2 6.5
t10 2.5q3 0 25.5 -0.5t51 -1.5t56 -1.5t40.5 -0.5q23 0 46 1.5t52 1.5q42 0 87.5 -6t84 -24t63.5 -52t25 -90q0 -41 -14.5 -72.5t-38.5 -53t-56 -35t-66 -18.5q63 -12 97 -36t49.5 -56.5t18.5 -70.5t3 -78q0 -20 1.5 -39.5t7.5 -36t18 -26.5t32 -10q16 0 28 5t17 7q6 3 9 3
q7 0 7 -7q0 -5 -5 -9q-3 -3 -19.5 -10.5t-54.5 -7.5q-49 0 -77.5 15t-42.5 39t-18 53.5t-5 58.5q-2 47 -5.5 83.5t-20.5 62t-51.5 38.5t-97.5 13h-51v-339h94z" />
    <glyph glyph-name="rcommaaccent" unicode="&#x157;" 
d="M264 -237q-10 0 -10 8q0 7 5.5 8t13.5 3q23 5 39 16t26 24.5t14.5 26.5t4.5 22q0 8 -3.5 15.5t-8.5 7.5q-4 0 -7 -4.5t-7.5 -10t-12 -10t-20.5 -4.5q-19 0 -31.5 11t-12.5 33q0 23 15.5 35t35.5 12q24 0 46 -19t22 -58q0 -29 -13 -50.5t-31 -36t-36.5 -22t-28.5 -7.5z
M200 249q36 0 65.5 2t50.5 12.5t33 32t12 60.5t-12 61t-33.5 32.5t-51 13t-64.5 2.5v-216zM264 10q7 0 7 -6t-7 -6q-24 1 -57 1.5t-56 0.5q-17 0 -34.5 -0.5t-32.5 -0.5t-26.5 -0.5t-14.5 -0.5q-7 0 -8.5 1.5t-1.5 3.5q0 7 7 7h62v456h-62q-7 0 -7 7q0 6 7 6q17 -1 44.5 -1
h65.5q24 0 51 0.5t50 0.5q39 0 76.5 -3.5t67 -16t47 -36t17.5 -62.5q0 -54 -36 -83t-109 -38q45 -2 72.5 -13.5t43 -30t20.5 -43t5 -52.5q0 -13 0.5 -29.5t4.5 -30.5t11.5 -24t22.5 -10q12 0 21.5 3.5t15.5 3.5q5 0 5 -4q0 -6 -16.5 -12.5t-49.5 -6.5q-52 0 -74 18
t-28.5 45.5t-5.5 59t-5 59t-27 45.5t-71 18h-59v-226h64z" />
    <glyph glyph-name="Rcaron" unicode="&#x158;" horiz-adv-x="694" 
d="M341 760h-26l-132 119l14 13l131 -87l131 87l14 -13zM279 374q30 0 64 3.5t62.5 19t47.5 47t19 87.5q0 57 -20 90t-52.5 50t-74 21.5t-84.5 4.5v-323h38zM335 16q10 0 10 -10q0 -9 -10 -9q-38 1 -71.5 2t-71.5 1q-23 0 -47 -0.5t-44.5 -1t-35 -1t-18.5 -0.5q-9 0 -11.5 2
t-2.5 7q0 10 10 10h98v681h-98q-10 0 -10 10q0 4 2 6.5t10 2.5q3 0 25.5 -0.5t51 -1.5t56 -1.5t40.5 -0.5q23 0 46 1.5t52 1.5q42 0 87.5 -6t84 -24t63.5 -52t25 -90q0 -41 -14.5 -72.5t-38.5 -53t-56 -35t-66 -18.5q63 -12 97 -36t49.5 -56.5t18.5 -70.5t3 -78
q0 -20 1.5 -39.5t7.5 -36t18 -26.5t32 -10q16 0 28 5t17 7q6 3 9 3q7 0 7 -7q0 -5 -5 -9q-3 -3 -19.5 -10.5t-54.5 -7.5q-49 0 -77.5 15t-42.5 39t-18 53.5t-5 58.5q-2 47 -5.5 83.5t-20.5 62t-51.5 38.5t-97.5 13h-51v-339h94z" />
    <glyph glyph-name="rcaron" unicode="&#x159;" 
d="M271 541h-27l-132 119l14 14l131 -88l131 88l15 -14zM200 249q36 0 65.5 2t50.5 12.5t33 32t12 60.5t-12 61t-33.5 32.5t-51 13t-64.5 2.5v-216zM264 10q7 0 7 -6t-7 -6q-24 1 -57 1.5t-56 0.5q-17 0 -34.5 -0.5t-32.5 -0.5t-26.5 -0.5t-14.5 -0.5q-7 0 -8.5 1.5
t-1.5 3.5q0 7 7 7h62v456h-62q-7 0 -7 7q0 6 7 6q17 -1 44.5 -1h65.5q24 0 51 0.5t50 0.5q39 0 76.5 -3.5t67 -16t47 -36t17.5 -62.5q0 -54 -36 -83t-109 -38q45 -2 72.5 -13.5t43 -30t20.5 -43t5 -52.5q0 -13 0.5 -29.5t4.5 -30.5t11.5 -24t22.5 -10q12 0 21.5 3.5
t15.5 3.5q5 0 5 -4q0 -6 -16.5 -12.5t-49.5 -6.5q-52 0 -74 18t-28.5 45.5t-5.5 59t-5 59t-27 45.5t-71 18h-59v-226h64z" />
    <glyph glyph-name="Sacute" unicode="&#x15a;" horiz-adv-x="581" 
d="M249 760l57 127h80l-102 -127h-35zM85 20q0 -16 -11 -16q-9 0 -9 16v205q0 16 8 16q5 0 8 -2t3 -14q0 -48 20.5 -88t52 -69t70 -45.5t73.5 -16.5q38 0 70 10.5t55.5 31.5t36.5 52.5t13 72.5q0 58 -30 89.5t-75 50t-97.5 31.5t-97.5 34.5t-75 59t-30 104.5q0 47 16.5 83
t44 60t63.5 36t75 12q74 0 148 -48q17 -11 21.5 -13t9.5 -2t6 3.5t1 9.5v29q0 16 11 16q12 0 12 -16q0 -46 3 -77.5t6.5 -51t6.5 -29.5t3 -13t-1 -5.5t-6 -2.5q-4 0 -8.5 2.5t-6.5 13.5q-8 39 -28.5 69.5t-49 51.5t-62.5 31.5t-68 10.5q-29 0 -57.5 -8.5t-51 -25t-36 -41
t-13.5 -55.5q0 -36 18 -59t48 -37.5t67.5 -24.5t77.5 -21t77.5 -26t67.5 -40.5t48 -64t18 -95.5q0 -31 -12.5 -70.5t-40 -74t-71.5 -58.5t-107 -24q-39 0 -69.5 12.5t-54 27t-41.5 27t-31 12.5q-9 0 -14 -12t-5 -26v-8z" />
    <glyph glyph-name="sacute" unicode="&#x15b;" horiz-adv-x="446" 
d="M179 541l57 128h81l-102 -128h-36zM401 142q0 -37 -13 -65t-35 -47t-51 -29t-60 -10q-27 0 -49 6.5t-39 14.5t-31.5 14.5t-26.5 6.5q-10 0 -17 -5q-6 -6 -6 -19q0 -14 -8 -14q-7 0 -7 14q0 11 1.5 55t1.5 107q0 5 1 7.5t7 2.5q4 0 6 -2t3 -11q5 -48 24 -79t43.5 -50
t49 -26.5t40.5 -7.5q58 0 83 27t25 63q0 37 -21 58t-52.5 34t-68 23t-68 26t-52.5 42.5t-21 72.5q0 35 12.5 61t33 43.5t47.5 26.5t56 9q27 0 46.5 -6.5t34.5 -15t26 -15t20 -6.5q10 0 10 8.5t1 21.5q0 12 7 12q8 0 8 -10q1 -44 2.5 -71t3 -42t2.5 -21t1 -7q0 -5 -0.5 -8
t-5.5 -3q-7 0 -10 14q-5 19 -14.5 43t-26.5 44.5t-42.5 34.5t-61.5 14q-41 0 -66 -19t-25 -56q0 -35 21 -54.5t52 -32.5t68 -24t68 -28.5t52 -46t21 -75.5z" />
    <glyph glyph-name="Scircumflex" unicode="&#x15c;" horiz-adv-x="581" 
d="M411 760l-131 87l-131 -87l-14 13l132 119h26l132 -119zM85 20q0 -16 -11 -16q-9 0 -9 16v205q0 16 8 16q5 0 8 -2t3 -14q0 -48 20.5 -88t52 -69t70 -45.5t73.5 -16.5q38 0 70 10.5t55.5 31.5t36.5 52.5t13 72.5q0 58 -30 89.5t-75 50t-97.5 31.5t-97.5 34.5t-75 59
t-30 104.5q0 47 16.5 83t44 60t63.5 36t75 12q74 0 148 -48q17 -11 21.5 -13t9.5 -2t6 3.5t1 9.5v29q0 16 11 16q12 0 12 -16q0 -46 3 -77.5t6.5 -51t6.5 -29.5t3 -13t-1 -5.5t-6 -2.5q-4 0 -8.5 2.5t-6.5 13.5q-8 39 -28.5 69.5t-49 51.5t-62.5 31.5t-68 10.5
q-29 0 -57.5 -8.5t-51 -25t-36 -41t-13.5 -55.5q0 -36 18 -59t48 -37.5t67.5 -24.5t77.5 -21t77.5 -26t67.5 -40.5t48 -64t18 -95.5q0 -31 -12.5 -70.5t-40 -74t-71.5 -58.5t-107 -24q-39 0 -69.5 12.5t-54 27t-41.5 27t-31 12.5q-9 0 -14 -12t-5 -26v-8z" />
    <glyph glyph-name="scircumflex" unicode="&#x15d;" horiz-adv-x="446" 
d="M350 541l-131 88l-131 -88l-14 14l132 119h27l132 -119zM401 142q0 -37 -13 -65t-35 -47t-51 -29t-60 -10q-27 0 -49 6.5t-39 14.5t-31.5 14.5t-26.5 6.5q-10 0 -17 -5q-6 -6 -6 -19q0 -14 -8 -14q-7 0 -7 14q0 11 1.5 55t1.5 107q0 5 1 7.5t7 2.5q4 0 6 -2t3 -11
q5 -48 24 -79t43.5 -50t49 -26.5t40.5 -7.5q58 0 83 27t25 63q0 37 -21 58t-52.5 34t-68 23t-68 26t-52.5 42.5t-21 72.5q0 35 12.5 61t33 43.5t47.5 26.5t56 9q27 0 46.5 -6.5t34.5 -15t26 -15t20 -6.5q10 0 10 8.5t1 21.5q0 12 7 12q8 0 8 -10q1 -44 2.5 -71t3 -42
t2.5 -21t1 -7q0 -5 -0.5 -8t-5.5 -3q-7 0 -10 14q-5 19 -14.5 43t-26.5 44.5t-42.5 34.5t-61.5 14q-41 0 -66 -19t-25 -56q0 -35 21 -54.5t52 -32.5t68 -24t68 -28.5t52 -46t21 -75.5z" />
    <glyph glyph-name="Scedilla" unicode="&#x15e;" horiz-adv-x="582" 
d="M275 -67q25 12 52 12q43 0 68.5 -20.5t25.5 -48.5q0 -12 -5 -27t-16.5 -28.5t-31 -22.5t-49.5 -9q-6 0 -20 1.5t-28.5 4.5t-25 7t-10.5 8t3 4t18 -3.5t27 -3.5q15 0 29.5 4t26 12.5t18.5 22t7 33.5q0 25 -16 38t-37 13q-15 0 -29.5 -7.5t-23.5 -22.5q-7 -12 -10 -12
q-5 0 -6.5 2t-1.5 4l1.5 2.5t6 12t14 28t26.5 50.5q-36 2 -64.5 14.5t-51 27t-39.5 26t-29 11.5q-9 0 -14 -12t-5 -26v-8q0 -16 -11 -16q-9 0 -9 16v205q0 16 8 16q5 0 8 -2t3 -14q0 -48 20.5 -88t52 -69t70 -45.5t73.5 -16.5q38 0 70 10.5t55.5 31.5t36.5 52.5t13 72.5
q0 58 -30 89.5t-75 50t-97.5 31.5t-97.5 34.5t-75 59t-30 104.5q0 47 16.5 83t44 60t63.5 36t75 12q74 0 148 -48q17 -11 21.5 -13t9.5 -2t6 3.5t1 9.5v29q0 16 11 16q12 0 12 -16q0 -46 3 -77.5t6.5 -51t6.5 -29.5t3 -13t-1 -5.5t-6 -2.5q-4 0 -8.5 2.5t-6.5 13.5
q-8 39 -28.5 69.5t-49 51.5t-62.5 31.5t-68 10.5q-29 0 -57.5 -8.5t-51 -25t-36 -41t-13.5 -55.5q0 -36 18 -59t48 -37.5t67.5 -24.5t77.5 -21t77.5 -26t67.5 -40.5t48 -64t18 -95.5q0 -31 -12.5 -70t-39.5 -73.5t-70.5 -58.5t-105.5 -25z" />
    <glyph glyph-name="scedilla" unicode="&#x15f;" horiz-adv-x="447" 
d="M211 -68q25 12 52 12q43 0 68 -20.5t25 -48.5q0 -12 -5 -27t-16.5 -28.5t-31 -22.5t-48.5 -9q-7 0 -21 1.5t-28 4.5t-24.5 7t-10.5 8t3 4t17.5 -3.5t26.5 -3.5q15 0 29.5 4t26 12.5t18.5 22t7 33.5q0 25 -16 38t-36 13q-15 0 -29.5 -7.5t-23.5 -22.5q-7 -12 -11 -12
t-5.5 2t-1.5 4q0 1 1 3.5t6.5 12t15.5 29t28 54.5q-24 2 -43 8.5t-34.5 14t-28.5 13t-24 5.5q-10 0 -17 -5q-6 -6 -6 -19q0 -14 -8 -14q-7 0 -7 14q0 11 1.5 55t1.5 107q0 5 1 7.5t7 2.5q4 0 6 -2t3 -11q5 -48 24 -79t43.5 -50t49 -26.5t40.5 -7.5q58 0 83 27t25 63
q0 37 -21 58t-52.5 34t-68 23t-68 26t-52.5 42.5t-21 72.5q0 35 12.5 61t33 43.5t47.5 26.5t56 9q27 0 46.5 -6.5t34.5 -15t26 -15t20 -6.5q10 0 10 8.5t1 21.5q0 12 7 12q8 0 8 -10q1 -44 2.5 -71t3 -42t2.5 -21t1 -7q0 -5 -0.5 -8t-5.5 -3q-7 0 -10 14q-5 19 -14.5 43
t-26.5 44.5t-42.5 34.5t-61.5 14q-41 0 -66 -19t-25 -56q0 -35 21 -54.5t52 -32.5t68 -24t68 -28.5t52 -46t21 -75.5q0 -37 -13 -65t-35.5 -47t-51.5 -29t-61 -10z" />
    <glyph glyph-name="Scaron" unicode="&#x160;" horiz-adv-x="581" 
d="M293 760h-26l-132 119l14 13l131 -87l131 87l14 -13zM85 20q0 -16 -11 -16q-9 0 -9 16v205q0 16 8 16q5 0 8 -2t3 -14q0 -48 20.5 -88t52 -69t70 -45.5t73.5 -16.5q38 0 70 10.5t55.5 31.5t36.5 52.5t13 72.5q0 58 -30 89.5t-75 50t-97.5 31.5t-97.5 34.5t-75 59
t-30 104.5q0 47 16.5 83t44 60t63.5 36t75 12q74 0 148 -48q17 -11 21.5 -13t9.5 -2t6 3.5t1 9.5v29q0 16 11 16q12 0 12 -16q0 -46 3 -77.5t6.5 -51t6.5 -29.5t3 -13t-1 -5.5t-6 -2.5q-4 0 -8.5 2.5t-6.5 13.5q-8 39 -28.5 69.5t-49 51.5t-62.5 31.5t-68 10.5
q-29 0 -57.5 -8.5t-51 -25t-36 -41t-13.5 -55.5q0 -36 18 -59t48 -37.5t67.5 -24.5t77.5 -21t77.5 -26t67.5 -40.5t48 -64t18 -95.5q0 -31 -12.5 -70.5t-40 -74t-71.5 -58.5t-107 -24q-39 0 -69.5 12.5t-54 27t-41.5 27t-31 12.5q-9 0 -14 -12t-5 -26v-8z" />
    <glyph glyph-name="scaron" unicode="&#x161;" horiz-adv-x="446" 
d="M234 541h-27l-132 119l14 14l131 -88l131 88l15 -14zM401 142q0 -37 -13 -65t-35 -47t-51 -29t-60 -10q-27 0 -49 6.5t-39 14.5t-31.5 14.5t-26.5 6.5q-10 0 -17 -5q-6 -6 -6 -19q0 -14 -8 -14q-7 0 -7 14q0 11 1.5 55t1.5 107q0 5 1 7.5t7 2.5q4 0 6 -2t3 -11
q5 -48 24 -79t43.5 -50t49 -26.5t40.5 -7.5q58 0 83 27t25 63q0 37 -21 58t-52.5 34t-68 23t-68 26t-52.5 42.5t-21 72.5q0 35 12.5 61t33 43.5t47.5 26.5t56 9q27 0 46.5 -6.5t34.5 -15t26 -15t20 -6.5q10 0 10 8.5t1 21.5q0 12 7 12q8 0 8 -10q1 -44 2.5 -71t3 -42
t2.5 -21t1 -7q0 -5 -0.5 -8t-5.5 -3q-7 0 -10 14q-5 19 -14.5 43t-26.5 44.5t-42.5 34.5t-61.5 14q-41 0 -66 -19t-25 -56q0 -35 21 -54.5t52 -32.5t68 -24t68 -28.5t52 -46t21 -75.5z" />
    <glyph glyph-name="Tcommaaccent" unicode="&#x162;" horiz-adv-x="646" 
d="M280 -237q-3 0 -6 1.5t-3 6.5q0 7 5.5 8t13.5 3q23 5 39 16t26 24.5t14.5 26.5t4.5 22q0 8 -3.5 15.5t-9.5 7.5q-4 0 -7 -4.5t-7.5 -10t-11.5 -10t-20 -4.5q-19 0 -31.5 11t-12.5 33q0 23 15 35t35 12q25 0 47 -19t22 -58q0 -29 -13.5 -50.5t-31.5 -36t-36.5 -22
t-28.5 -7.5zM468 16q5 0 7.5 -3t2.5 -6q0 -10 -10 -10q-38 1 -72 2t-72 1q-23 0 -47 -0.5t-44 -1t-35.5 -1t-22.5 -0.5q-10 0 -10 10q0 3 2.5 6t7.5 3h98v680h-45q-63 0 -98.5 -14.5t-53.5 -38t-24 -53.5t-9 -60q-1 -11 -3 -13.5t-7 -2.5q-7 0 -8 4t-1 12l11 185
q18 -1 33 -1.5t32 -1t38.5 -0.5h51.5h265h51.5t38.5 0.5t32.5 1t32.5 1.5l12 -185q0 -8 -1 -12t-8 -4t-8.5 4t-1.5 12q-3 30 -9 60t-24.5 53.5t-54 38t-98.5 14.5h-44v-680h95z" />
    <glyph glyph-name="tcommaaccent" unicode="&#x163;" horiz-adv-x="469" 
d="M187 -237q-3 0 -6 1.5t-3 6.5q0 7 5.5 8t13.5 3q23 5 39 16t25.5 24.5t14 26.5t4.5 22q0 8 -3 15.5t-9 7.5q-4 0 -7 -4.5t-7.5 -10t-11.5 -10t-20 -4.5q-19 0 -31.5 11t-12.5 33q0 23 15 35t35 12q25 0 47 -19t22 -58q0 -29 -13.5 -50.5t-31.5 -36t-36.5 -22t-28.5 -7.5z
M345 10q7 0 7 -6t-7 -6q-24 1 -57.5 1.5t-56.5 0.5q-17 0 -34.5 -0.5t-32.5 -0.5t-25.5 -0.5t-13.5 -0.5q-8 0 -9.5 1.5t-1.5 3.5q0 7 7 7h63v456h-9q-37 0 -60.5 -8.5t-37.5 -25t-21.5 -41t-11.5 -55.5q-1 -4 -2 -7.5t-6 -3.5t-5 11q0 20 0.5 36t1 31.5t1 34t0.5 42.5
q6 -2 34 -2h70h193h70.5t32.5 2q0 -24 0.5 -42.5t1.5 -34t1.5 -31.5t0.5 -36q0 -5 -0.5 -8t-5.5 -3t-7 11q-5 29 -11.5 53t-20 41t-37 26.5t-62.5 9.5h-13v-456h64z" />
    <glyph glyph-name="Tcaron" unicode="&#x164;" horiz-adv-x="645" 
d="M336 760h-27l-132 119l14 13l131 -87l131 87l15 -13zM468 16q5 0 7.5 -3t2.5 -6q0 -10 -10 -10q-38 1 -72 2t-72 1q-23 0 -47 -0.5t-44 -1t-35.5 -1t-22.5 -0.5q-10 0 -10 10q0 3 2.5 6t7.5 3h98v680h-45q-63 0 -98.5 -14.5t-53.5 -38t-24 -53.5t-9 -60q-1 -11 -3 -13.5
t-7 -2.5q-7 0 -8 4t-1 12l11 185q18 -1 33 -1.5t32 -1t38.5 -0.5h51.5h265h51.5t38.5 0.5t32.5 1t32.5 1.5l12 -185q0 -8 -1 -12t-8 -4t-8.5 4t-1.5 12q-3 30 -9 60t-24.5 53.5t-54 38t-98.5 14.5h-44v-680h95z" />
    <glyph glyph-name="tcaron" unicode="&#x165;" horiz-adv-x="470" 
d="M248 541h-26l-132 119l14 14l131 -88l131 88l14 -14zM346 10q7 0 7 -6t-7 -6q-24 1 -57.5 1.5t-56.5 0.5q-17 0 -34.5 -0.5t-32.5 -0.5t-25.5 -0.5t-13.5 -0.5q-8 0 -9.5 1.5t-1.5 3.5q0 7 7 7h63v456h-9q-37 0 -60.5 -8.5t-37.5 -25t-21.5 -41t-11.5 -55.5
q-1 -4 -2 -7.5t-6 -3.5t-5 11q0 20 0.5 36t1 31.5t1 34t0.5 42.5q6 -2 34 -2h70h193h70.5t32.5 2q0 -24 0.5 -42.5t1.5 -34t1.5 -31.5t0.5 -36q0 -5 -0.5 -8t-5.5 -3t-7 11q-5 29 -11.5 53t-20 41t-37 26.5t-62.5 9.5h-13v-456h64z" />
    <glyph glyph-name="Tbar" unicode="&#x166;" horiz-adv-x="644" 
d="M467 16q5 0 8 -3t3 -6q0 -10 -11 -10q-39 1 -73 2t-73 1t-73 -1t-73 -2q-11 0 -11 10q0 3 3 6t8 3h98v378h-156v19h156v283h-45q-51 0 -85.5 -10.5t-56.5 -31.5t-32 -52t-11 -72q-1 -11 -3.5 -13.5t-7.5 -2.5q-6 0 -7 4t-1 12l11 185q18 -1 37.5 -1.5t50.5 -1t78.5 -0.5
h120.5h135.5t77.5 0.5t42.5 1t32.5 1.5l11 -185q0 -8 -1 -12t-7 -4q-5 0 -7.5 2.5t-3.5 13.5q-2 41 -11.5 72t-31.5 52t-56.5 31.5t-85.5 10.5h-45v-283h157v-19h-157v-378h95z" />
    <glyph glyph-name="tbar" unicode="&#x167;" horiz-adv-x="470" 
d="M346 10q7 0 7 -6t-7 -6q-24 1 -57.5 1.5t-56.5 0.5q-17 0 -34.5 -0.5t-32.5 -0.5t-25.5 -0.5t-13.5 -0.5q-8 0 -9.5 1.5t-1.5 3.5q0 7 7 7h63v246h-97v19h97v191h-9q-37 0 -60.5 -8.5t-37.5 -25t-21.5 -41t-11.5 -55.5q-1 -4 -2 -7.5t-6 -3.5t-5 11q0 20 0.5 36t1 31.5
t1 34t0.5 42.5q6 -2 34 -2h70h193h70.5t32.5 2q0 -24 0.5 -42.5t1.5 -34t1.5 -31.5t0.5 -36q0 -5 -0.5 -8t-5.5 -3t-7 11q-5 29 -11.5 53t-20 41t-37 26.5t-62.5 9.5h-13v-191h100v-19h-100v-246h64z" />
    <glyph glyph-name="Utilde" unicode="&#x168;" horiz-adv-x="764" 
d="M573 825q-14 -39 -32 -52t-38 -13t-44 6t-48 13.5t-46.5 13.5t-37.5 6q-11 0 -22 -5t-20.5 -11.5t-16.5 -13t-10 -9.5q-2 -2 -5 -4.5t-5 -2.5q-5 0 -5 6q0 5 7 11q24 23 38.5 37.5t25 22t20 10t23.5 2.5q13 0 34 -5.5t43.5 -12.5t44 -12.5t36.5 -5.5q14 0 26.5 6t23.5 22
q3 6 6 6q5 0 5 -5q0 -3 -3 -10zM616 622q0 24 -7 38.5t-18.5 22.5t-26.5 10.5t-32 2.5h-17q-10 0 -10 10q0 9 10 9q19 0 31.5 -0.5t23.5 -1t23 -1t32 -0.5t32.5 0.5t23 1t23 1t32.5 0.5q10 0 10 -9q0 -10 -10 -10h-17q-21 0 -37 -3t-26.5 -13t-15.5 -30t-5 -53v-356
q0 -59 -8.5 -106t-32 -80t-65.5 -50.5t-108 -17.5q-90 0 -147.5 15.5t-90 48.5t-44.5 85t-12 125v435h-98q-11 0 -11 10q0 9 11 9q39 -1 73 -2t73 -1t73 1t73 2q11 0 11 -9q0 -10 -11 -10h-95v-450q0 -56 3.5 -100.5t22.5 -75.5t58 -47.5t111 -16.5q59 0 97 14.5t59.5 43.5
t30 72t8.5 100v386z" />
    <glyph glyph-name="utilde" unicode="&#x169;" 
d="M460 606q-14 -38 -32.5 -51.5t-38.5 -13.5t-44 6t-48 13.5t-46 13.5t-37 6q-12 0 -23 -4.5t-20 -11t-16 -13t-11 -10.5q-2 -1 -4.5 -3.5t-4.5 -2.5t-4 2t-2 4q0 3 8 11q24 23 38 37t24.5 21.5t20 10t23.5 2.5q13 0 34 -5.5t43.5 -12.5t44.5 -12.5t37 -5.5q14 0 26 6.5
t23 22.5q5 5 7 5q5 0 5 -4q0 -2 -3 -11zM434 408q0 32 -14 45t-56 13h-4q-8 0 -8 7t8 7q12 0 21 -0.5t17 -1t16.5 -0.5h20.5q34 0 54 1t31 1q8 0 8 -7t-8 -7h-3q-22 0 -35.5 -3.5t-21.5 -11.5t-11 -23t-3 -37v-233q0 -47 -7 -78.5t-24.5 -51.5t-48.5 -28.5t-79 -8.5
q-103 0 -150 39t-47 131v305h-59q-6 0 -6 7t6 7q25 -1 54 -1.5t53 -0.5q16 0 34.5 0.5t34.5 0.5t27 0.5t14 0.5q7 0 8.5 -2t1.5 -4q0 -8 -7 -8h-63v-315q0 -44 5.5 -72.5t19 -45t35 -22.5t53.5 -6q40 0 66 8.5t41 26.5t20.5 46.5t5.5 67.5v254z" />
    <glyph glyph-name="Umacron" unicode="&#x16a;" horiz-adv-x="764" 
d="M262 779v28h294v-28h-294zM616 622q0 24 -7 38.5t-18.5 22.5t-26.5 10.5t-32 2.5h-17q-10 0 -10 10q0 9 10 9q19 0 31.5 -0.5t23.5 -1t23 -1t32 -0.5t32.5 0.5t23 1t23 1t32.5 0.5q10 0 10 -9q0 -10 -10 -10h-17q-21 0 -37 -3t-26.5 -13t-15.5 -30t-5 -53v-356
q0 -59 -8.5 -106t-32 -80t-65.5 -50.5t-108 -17.5q-90 0 -147.5 15.5t-90 48.5t-44.5 85t-12 125v435h-98q-11 0 -11 10q0 9 11 9q39 -1 73 -2t73 -1t73 1t73 2q11 0 11 -9q0 -10 -11 -10h-95v-450q0 -56 3.5 -100.5t22.5 -75.5t58 -47.5t111 -16.5q59 0 97 14.5t59.5 43.5
t30 72t8.5 100v386z" />
    <glyph glyph-name="umacron" unicode="&#x16b;" 
d="M147 560v29h295v-29h-295zM434 408q0 32 -14 45t-56 13h-4q-8 0 -8 7t8 7q12 0 21 -0.5t17 -1t16.5 -0.5h20.5q34 0 54 1t31 1q8 0 8 -7t-8 -7h-3q-22 0 -35.5 -3.5t-21.5 -11.5t-11 -23t-3 -37v-233q0 -47 -7 -78.5t-24.5 -51.5t-48.5 -28.5t-79 -8.5q-103 0 -150 39
t-47 131v305h-59q-6 0 -6 7t6 7q25 -1 54 -1.5t53 -0.5q16 0 34.5 0.5t34.5 0.5t27 0.5t14 0.5q7 0 8.5 -2t1.5 -4q0 -8 -7 -8h-63v-315q0 -44 5.5 -72.5t19 -45t35 -22.5t53.5 -6q40 0 66 8.5t41 26.5t20.5 46.5t5.5 67.5v254z" />
    <glyph glyph-name="Ubreve" unicode="&#x16c;" horiz-adv-x="764" 
d="M533 883q0 -14 -3.5 -35t-16 -40.5t-37 -33.5t-67.5 -14t-68 14t-37.5 33.5t-16 40.5t-3.5 35q0 12 2 15.5t8 3.5q5 0 7 -3.5t2 -15.5q0 -11 1.5 -27.5t11.5 -31.5t31.5 -25.5t61.5 -10.5q39 0 60.5 10.5t31.5 25.5t11.5 31.5t1.5 27.5q0 12 2 15.5t8 3.5q5 0 7 -3.5
t2 -15.5zM616 622q0 24 -7 38.5t-18.5 22.5t-26.5 10.5t-32 2.5h-17q-10 0 -10 10q0 9 10 9q19 0 31.5 -0.5t23.5 -1t23 -1t32 -0.5t32.5 0.5t23 1t23 1t32.5 0.5q10 0 10 -9q0 -10 -10 -10h-17q-21 0 -37 -3t-26.5 -13t-15.5 -30t-5 -53v-356q0 -59 -8.5 -106t-32 -80
t-65.5 -50.5t-108 -17.5q-90 0 -147.5 15.5t-90 48.5t-44.5 85t-12 125v435h-98q-11 0 -11 10q0 9 11 9q39 -1 73 -2t73 -1t73 1t73 2q11 0 11 -9q0 -10 -11 -10h-95v-450q0 -56 3.5 -100.5t22.5 -75.5t58 -47.5t111 -16.5q59 0 97 14.5t59.5 43.5t30 72t8.5 100v386z" />
    <glyph glyph-name="ubreve" unicode="&#x16d;" 
d="M419 665q0 -14 -3.5 -35.5t-16.5 -41t-37.5 -33.5t-67.5 -14t-67.5 14t-37 33.5t-16 41t-3.5 35.5q0 11 2 15t7 4q6 0 8 -4t2 -15t1.5 -27.5t11.5 -31.5t31.5 -25.5t60.5 -10.5q40 0 61.5 10.5t31.5 25.5t11.5 31.5t1.5 27.5t2 15t7 4q6 0 8 -4t2 -15zM434 408
q0 32 -14 45t-56 13h-4q-8 0 -8 7t8 7q12 0 21 -0.5t17 -1t16.5 -0.5h20.5q34 0 54 1t31 1q8 0 8 -7t-8 -7h-3q-22 0 -35.5 -3.5t-21.5 -11.5t-11 -23t-3 -37v-233q0 -47 -7 -78.5t-24.5 -51.5t-48.5 -28.5t-79 -8.5q-103 0 -150 39t-47 131v305h-59q-6 0 -6 7t6 7
q25 -1 54 -1.5t53 -0.5q16 0 34.5 0.5t34.5 0.5t27 0.5t14 0.5q7 0 8.5 -2t1.5 -4q0 -8 -7 -8h-63v-315q0 -44 5.5 -72.5t19 -45t35 -22.5t53.5 -6q40 0 66 8.5t41 26.5t20.5 46.5t5.5 67.5v254z" />
    <glyph glyph-name="Uring" unicode="&#x16e;" horiz-adv-x="764" 
d="M409 775q19 0 29.5 14.5t10.5 36.5q0 21 -10.5 36t-29.5 15q-20 0 -30 -15t-10 -36q0 -22 10 -36.5t30 -14.5zM487 826q0 -17 -7 -29.5t-18.5 -20.5t-25.5 -12t-27 -4q-14 0 -27.5 4t-25 12t-18.5 20.5t-7 29.5t7 29t18.5 20t25 12t27.5 4q13 0 27 -4t25.5 -12t18.5 -20
t7 -29zM616 622q0 24 -7 38.5t-18.5 22.5t-26.5 10.5t-32 2.5h-17q-10 0 -10 10q0 9 10 9q19 0 31.5 -0.5t23.5 -1t23 -1t32 -0.5t32.5 0.5t23 1t23 1t32.5 0.5q10 0 10 -9q0 -10 -10 -10h-17q-21 0 -37 -3t-26.5 -13t-15.5 -30t-5 -53v-356q0 -59 -8.5 -106t-32 -80
t-65.5 -50.5t-108 -17.5q-90 0 -147.5 15.5t-90 48.5t-44.5 85t-12 125v435h-98q-11 0 -11 10q0 9 11 9q39 -1 73 -2t73 -1t73 1t73 2q11 0 11 -9q0 -10 -11 -10h-95v-450q0 -56 3.5 -100.5t22.5 -75.5t58 -47.5t111 -16.5q59 0 97 14.5t59.5 43.5t30 72t8.5 100v386z" />
    <glyph glyph-name="uring" unicode="&#x16f;" 
d="M302 557q20 0 30 14.5t10 35.5q0 22 -10 36.5t-30 14.5t-30 -14.5t-10 -36.5q0 -21 10 -35.5t30 -14.5zM380 607q0 -17 -7 -29.5t-18.5 -20.5t-25.5 -12t-27 -4q-14 0 -27.5 4t-25 12t-18.5 20.5t-7 29.5t7 29.5t18.5 20.5t25 12t27.5 4q13 0 27 -4t25.5 -12t18.5 -20.5
t7 -29.5zM434 408q0 32 -14 45t-56 13h-4q-8 0 -8 7t8 7q12 0 21 -0.5t17 -1t16.5 -0.5h20.5q34 0 54 1t31 1q8 0 8 -7t-8 -7h-3q-22 0 -35.5 -3.5t-21.5 -11.5t-11 -23t-3 -37v-233q0 -47 -7 -78.5t-24.5 -51.5t-48.5 -28.5t-79 -8.5q-103 0 -150 39t-47 131v305h-59
q-6 0 -6 7t6 7q25 -1 54 -1.5t53 -0.5q16 0 34.5 0.5t34.5 0.5t27 0.5t14 0.5q7 0 8.5 -2t1.5 -4q0 -8 -7 -8h-63v-315q0 -44 5.5 -72.5t19 -45t35 -22.5t53.5 -6q40 0 66 8.5t41 26.5t20.5 46.5t5.5 67.5v254z" />
    <glyph glyph-name="Uhungarumlaut" unicode="&#x170;" horiz-adv-x="764" 
d="M494 807q11 13 11 18q0 2 -2 5t-7.5 9t-16 16t-27.5 26q-14 10 -14 20q0 3 3 7t14 15q19 19 34.5 35.5t33.5 38.5l3.5 3.5t3.5 1.5q3 0 7 -4q4 -3 4 -6q0 -2 -4 -8l-20 -23q-10 -10 -10 -17q0 -2 1.5 -5.5t7 -9.5t16 -15.5t28.5 -25.5q5 -5 9 -10t4 -10q0 -3 -3 -7.5
t-14 -15.5q-19 -18 -34.5 -34.5t-32.5 -38.5q-5 -5 -8 -5t-7 3q-3 4 -3 7t3 8zM339 801q10 12 10 17q0 3 -2 6t-7.5 9t-16 15.5t-27.5 25.5q-14 12 -14 20q0 4 3.5 8t14.5 15q18 18 33.5 34.5t33.5 38.5q6 6 8 6t6 -4t4 -7t-4 -7l-20 -23q-10 -13 -10 -17q0 -3 2 -6t7.5 -9
t16 -16t27.5 -25q13 -11 13 -20q0 -4 -3 -8t-14 -15q-18 -19 -33.5 -35.5t-33.5 -37.5q-6 -6 -8 -6q-3 0 -6 4q-4 4 -4 6t4 8zM616 622q0 24 -7 38.5t-18.5 22.5t-26.5 10.5t-32 2.5h-17q-10 0 -10 10q0 9 10 9q19 0 31.5 -0.5t23.5 -1t23 -1t32 -0.5t32.5 0.5t23 1t23 1
t32.5 0.5q10 0 10 -9q0 -10 -10 -10h-17q-21 0 -37 -3t-26.5 -13t-15.5 -30t-5 -53v-356q0 -59 -8.5 -106t-32 -80t-65.5 -50.5t-108 -17.5q-90 0 -147.5 15.5t-90 48.5t-44.5 85t-12 125v435h-98q-11 0 -11 10q0 9 11 9q39 -1 73 -2t73 -1t73 1t73 2q11 0 11 -9
q0 -10 -11 -10h-95v-450q0 -56 3.5 -100.5t22.5 -75.5t58 -47.5t111 -16.5q59 0 97 14.5t59.5 43.5t30 72t8.5 100v386z" />
    <glyph glyph-name="uhungarumlaut" unicode="&#x171;" 
d="M361 589q10 11 10 17q0 3 -1.5 6t-7 9t-16 15.5t-28.5 25.5q-5 5 -9 10t-4 10q0 4 3 8t14 15q19 19 34.5 35.5t32.5 37.5q6 6 8 6q3 0 7 -4q3 -5 3 -7q0 -3 -3 -7l-20 -23q-5 -6 -8 -9.5t-3 -7.5q0 -3 2 -6t7.5 -9t16 -15.5t27.5 -25.5q14 -12 14 -20q0 -4 -3 -8t-14 -15
q-19 -19 -34.5 -35.5t-33.5 -37.5q-6 -6 -7 -6q-3 0 -7 4t-4 7q0 1 4 7zM205 582q11 13 11 17q0 3 -2 6t-7.5 9t-16 16t-28.5 25q-5 5 -9 10t-4 10q0 4 3 8t14 15q19 19 34.5 35.5t33.5 37.5q4 6 7 6t7 -4t4 -6t-4 -8l-20 -23q-11 -11 -11 -17q0 -3 2 -6t7.5 -9t16 -15.5
t28.5 -25.5q5 -5 9 -10t4 -10q0 -4 -3 -8t-14 -15q-19 -18 -34.5 -34.5t-33.5 -38.5q-4 -6 -7 -6t-7 4t-4 7q0 2 4 8zM434 408q0 32 -14 45t-56 13h-4q-8 0 -8 7t8 7q12 0 21 -0.5t17 -1t16.5 -0.5h20.5q34 0 54 1t31 1q8 0 8 -7t-8 -7h-3q-22 0 -35.5 -3.5t-21.5 -11.5
t-11 -23t-3 -37v-233q0 -47 -7 -78.5t-24.5 -51.5t-48.5 -28.5t-79 -8.5q-103 0 -150 39t-47 131v305h-59q-6 0 -6 7t6 7q25 -1 54 -1.5t53 -0.5q16 0 34.5 0.5t34.5 0.5t27 0.5t14 0.5q7 0 8.5 -2t1.5 -4q0 -8 -7 -8h-63v-315q0 -44 5.5 -72.5t19 -45t35 -22.5t53.5 -6
q40 0 66 8.5t41 26.5t20.5 46.5t5.5 67.5v254z" />
    <glyph glyph-name="Uogonek" unicode="&#x172;" horiz-adv-x="767" 
d="M421 -13q-90 0 -147.5 15.5t-90 48.5t-44.5 85t-12 125v435h-98q-11 0 -11 10q0 9 11 9q39 -1 73 -2t73 -1t73 1t73 2q11 0 11 -9q0 -10 -11 -10h-95v-450q0 -56 3.5 -100.5t22.5 -75.5t58 -47.5t111 -16.5q59 0 97 14.5t59.5 43.5t30 72t8.5 100v386q0 24 -7 38.5
t-18.5 22.5t-26.5 10.5t-32 2.5h-17q-10 0 -10 10q0 9 10 9q19 0 31.5 -0.5t23.5 -1t23 -1t32 -0.5t32.5 0.5t23 1t23 1t32.5 0.5q10 0 10 -9q0 -10 -10 -10h-17q-21 0 -37 -3t-26.5 -13t-15.5 -30t-5 -53v-356q0 -54 -7 -98t-26 -76.5t-52.5 -52t-85.5 -25.5
q-33 -21 -48 -48.5t-15 -56.5q0 -20 7.5 -39t22 -33t35 -22.5t46.5 -8.5t41.5 6.5t18.5 6.5t3 -4t-7 -8t-18 -7.5t-23 -5.5t-24 -3.5t-22 -1.5q-32 0 -55.5 8.5t-39.5 22.5t-24 32.5t-8 38.5q0 32 19.5 64.5t60.5 56.5h-13z" />
    <glyph glyph-name="uogonek" unicode="&#x173;" horiz-adv-x="547" 
d="M434 408q0 32 -14 45t-56 13h-4q-8 0 -8 7t8 7q12 0 21 -0.5t17 -1t16.5 -0.5h20.5q34 0 54 1t31 1q8 0 8 -7t-8 -7h-3q-22 0 -35.5 -3.5t-21.5 -11.5t-11 -23t-3 -37v-233q0 -39 -4.5 -67.5t-16.5 -48.5t-32 -31.5t-51 -15.5q-36 -21 -52.5 -50t-16.5 -58q0 -20 7.5 -39
t22 -33.5t35.5 -23t47 -8.5t41.5 7t17.5 7q3 0 3 -4t-6 -8q-7 -4 -18 -7.5t-23.5 -5.5t-24.5 -3.5t-22 -1.5q-31 0 -55 8.5t-40 22.5t-24 32.5t-8 38.5q0 33 21 66.5t64 56.5q-5 0 -11.5 -0.5t-12.5 -0.5q-103 0 -150 39t-47 131v305h-59q-6 0 -6 7t6 7q25 -1 54 -1.5
t53 -0.5q16 0 34.5 0.5t34.5 0.5t27 0.5t14 0.5q7 0 8.5 -2t1.5 -4q0 -8 -7 -8h-63v-315q0 -44 5.5 -72.5t19 -45t35 -22.5t53.5 -6q40 0 66 8.5t41 26.5t20.5 46.5t5.5 67.5v254z" />
    <glyph glyph-name="Wcircumflex" unicode="&#x174;" horiz-adv-x="928" 
d="M603 760l-132 87l-131 -87l-14 13l132 119h27l132 -119zM470 470l-136 -457q-7 -22 -10.5 -28t-8.5 -6q-8 0 -15 18l-211 639q-14 39 -24 49.5t-22 10.5h-60q-10 0 -10 10q0 9 10 9q22 0 39 -0.5l34 -1t35.5 -1t43.5 -0.5q62 0 90.5 1.5t41.5 1.5q11 0 11 -9
q0 -10 -11 -10h-38q-21 0 -30 -3t-9 -16q0 -6 2 -12t4 -14l159 -507l105 356l-45 136q-7 21 -12.5 33t-11 18t-10.5 7.5t-11 1.5h-36q-11 0 -11 10q0 9 11 9q22 0 35 -0.5t25.5 -1t27.5 -1t40 -0.5q62 0 97 1.5t43 1.5q9 0 11.5 -2.5t2.5 -5.5q0 -11 -11 -11h-49
q-22 0 -32 -3t-10 -17q0 -5 2 -11t4 -14l160 -505l120 425q16 52 16 83q0 22 -11 32t-38 10h-54q-11 0 -11 10q0 9 11 9q19 0 32 -0.5t24 -1t23.5 -1t30.5 -0.5q44 0 65.5 1.5t41.5 1.5q11 0 11 -9q0 -10 -11 -10h-14q-10 0 -21 -1t-22.5 -8.5t-22 -23.5t-19.5 -46
l-171 -604q-5 -20 -9 -27t-10 -7q-7 0 -14 18z" />
    <glyph glyph-name="wcircumflex" unicode="&#x175;" horiz-adv-x="687" 
d="M489 541l-131 88l-131 -88l-14 14l132 119h26l132 -119zM345 329l-96 -320q-5 -14 -8.5 -18.5t-12.5 -4.5q-10 0 -15 4.5t-10 19.5l-135 409q-5 16 -10 25.5t-10.5 14t-13 6t-18.5 1.5h-18q-7 0 -7 7t7 7q24 -1 54.5 -1.5t53.5 -0.5q33 0 60 1t32 1q6 0 7.5 -2.5
t1.5 -4.5q0 -7 -7 -7q-17 0 -26 -2.5t-9 -14.5q0 -10 6 -28l99 -301l68 227l-24 72q-5 16 -9.5 25.5t-10.5 14t-14.5 6t-21.5 1.5q-6 0 -6 7t6 7q27 -1 49 -1.5t46 -0.5q17 0 36 0.5t35.5 0.5t28 0.5t13.5 0.5q11 0 11 -7t-8 -7h-23q-17 0 -25.5 -2.5t-8.5 -14.5
q0 -10 6 -28l98 -299l75 264q5 16 9.5 32t4.5 27q0 15 -14 18t-47 3h-13q-8 0 -8 7t8 7q12 0 20 -0.5t14.5 -1t13.5 -0.5h19q34 0 53 1t32 1q8 0 8 -7t-8 -7q-18 0 -29.5 -1.5t-19.5 -7.5t-14 -18.5t-12 -34.5l-112 -395q-4 -14 -8.5 -18.5t-14.5 -4.5q-8 0 -13 4.5
t-10 19.5z" />
    <glyph glyph-name="Ycircumflex" unicode="&#x176;" horiz-adv-x="575" 
d="M459 760l-131 87l-131 -87l-14 13l132 119h26l132 -119zM432 16q5 0 8 -3t3 -6q0 -10 -11 -10q-38 1 -71.5 2t-71.5 1q-23 0 -47 -0.5t-44 -1t-35.5 -1t-22.5 -0.5q-11 0 -11 10q0 3 3 6t8 3h98v327l-138 293q-10 21 -18.5 33t-16 18t-14 7.5t-13.5 1.5h-48q-11 0 -11 10
q0 9 11 9q22 0 39 -0.5t33.5 -1t35.5 -1t44 -0.5q30 0 51.5 0.5t36.5 1t24.5 1t16.5 0.5q10 0 10 -9q0 -10 -10 -10h-35q-18 0 -31.5 -2.5t-13.5 -16.5q0 -10 9 -26l132 -281l97 220q7 17 12 33.5t5 33.5q0 24 -11.5 31.5t-37.5 7.5h-20q-10 0 -10 10q0 9 10 9q19 0 30 -0.5
t20 -1t19.5 -1t28.5 -0.5q22 0 38.5 0.5t29.5 1t23.5 1t20.5 0.5q11 0 11 -9q0 -10 -11 -10h-17q-17 0 -31.5 -2t-28 -9.5t-26 -23.5t-24.5 -44l-123 -274v-327h95z" />
    <glyph glyph-name="ycircumflex" unicode="&#x177;" horiz-adv-x="438" 
d="M368 541l-131 88l-131 -88l-14 14l132 119h27l132 -119zM337 10q8 0 8 -5q0 -7 -8 -7q-24 1 -57 1.5t-56 0.5q-17 0 -34.5 -0.5t-32.5 -0.5t-25.5 -0.5t-13.5 -0.5q-8 0 -9.5 1.5t-1.5 3.5q0 7 7 7h62v197l-106 212q-8 16 -14 25.5t-11.5 14t-12.5 6t-18 1.5h-9
q-7 0 -7 7t7 7q27 0 51 -1t54 -1q15 0 32.5 0.5t33.5 0.5t27 0.5t13 0.5q7 0 8.5 -2t1.5 -4q0 -8 -8 -8h-13q-19 0 -27.5 -3.5t-8.5 -14.5q0 -9 8 -27l90 -174l70 144q13 25 13 42q0 33 -60 33h-7q-8 0 -8 7t8 7q13 0 20 -0.5t12.5 -1t12 -0.5h18.5q33 0 57 1t36 1q6 0 6 -7
t-6 -7h-4q-17 0 -28 -3t-19.5 -10.5t-15.5 -19t-16 -29.5l-82 -167v-227h63z" />
    <glyph glyph-name="Ydieresis" unicode="&#x178;" horiz-adv-x="575" 
d="M470 812q0 -21 -15 -36.5t-38 -15.5q-21 0 -36.5 15.5t-15.5 36.5q0 23 15.5 38t36.5 15q23 0 38 -15t15 -38zM280 812q0 -21 -15.5 -36.5t-38.5 -15.5q-21 0 -36.5 15.5t-15.5 36.5q0 23 15.5 38t36.5 15q23 0 38.5 -15t15.5 -38zM432 16q5 0 8 -3t3 -6q0 -10 -11 -10
q-38 1 -71.5 2t-71.5 1q-23 0 -47 -0.5t-44 -1t-35.5 -1t-22.5 -0.5q-11 0 -11 10q0 3 3 6t8 3h98v327l-138 293q-10 21 -18.5 33t-16 18t-14 7.5t-13.5 1.5h-48q-11 0 -11 10q0 9 11 9q22 0 39 -0.5t33.5 -1t35.5 -1t44 -0.5q30 0 51.5 0.5t36.5 1t24.5 1t16.5 0.5
q10 0 10 -9q0 -10 -10 -10h-35q-18 0 -31.5 -2.5t-13.5 -16.5q0 -10 9 -26l132 -281l97 220q7 17 12 33.5t5 33.5q0 24 -11.5 31.5t-37.5 7.5h-20q-10 0 -10 10q0 9 10 9q19 0 30 -0.5t20 -1t19.5 -1t28.5 -0.5q22 0 38.5 0.5t29.5 1t23.5 1t20.5 0.5q11 0 11 -9
q0 -10 -11 -10h-17q-17 0 -31.5 -2t-28 -9.5t-26 -23.5t-24.5 -44l-123 -274v-327h95z" />
    <glyph glyph-name="Zacute" unicode="&#x179;" horiz-adv-x="589" 
d="M260 760l57 127h81l-103 -127h-35zM538 19q0 -11 -0.5 -14.5t-2.5 -5.5q-4 -2 -9 -2q-3 0 -14 0.5t-45 1t-98.5 1t-175.5 0.5h-154q-13 0 -13 5q0 3 3.5 8.5t5.5 10.5l378 672h-112q-48 0 -84.5 -8t-62.5 -26.5t-43.5 -50t-28.5 -78.5q-2 -8 -3.5 -12t-9.5 -4t-8 5
q0 2 0.5 4.5t1.5 6.5l38 182q20 -2 71 -2.5t120 -0.5h220q23 0 23 -4q0 -3 -3.5 -9t-5.5 -10l-377 -673h198q60 0 93.5 16t50.5 40t21.5 53.5t6.5 56.5q0 6 1.5 11.5t7.5 5.5q7 0 8.5 -4.5t1.5 -12.5v-163z" />
    <glyph glyph-name="zacute" unicode="&#x17a;" horiz-adv-x="445" 
d="M177 541l57 128h81l-103 -128h-35zM399 12q0 -10 -4.5 -11.5t-6.5 -1.5h-20.5t-52 0.5t-73.5 0.5h-86h-15.5t-23.5 -0.5t-26.5 -0.5h-23.5q-20 0 -25 1t-5 3t2 6t4 7l236 450h-54q-45 0 -73 -8t-45.5 -24t-26.5 -39.5t-16 -53.5q-2 -6 -2.5 -8.5t-5.5 -2.5q-6 0 -6 3
q0 5 0.5 5t0.5 2l29 140q8 -2 33 -2h80h184q15 0 15 -4q0 -2 -2 -6t-4 -6l-234 -452h105q46 0 71.5 10.5t37.5 28t15 40t3 47.5q0 11 8 11q7 0 7 -11v-124z" />
    <glyph glyph-name="Zdotaccent" unicode="&#x17b;" horiz-adv-x="589" 
d="M310 767q-23 0 -39 16t-16 39t16 39t39 16t39 -16t16 -39t-16 -39t-39 -16zM538 19q0 -11 -0.5 -14.5t-2.5 -5.5q-4 -2 -9 -2q-3 0 -14 0.5t-45 1t-98.5 1t-175.5 0.5h-154q-13 0 -13 5q0 3 3.5 8.5t5.5 10.5l378 672h-112q-48 0 -84.5 -8t-62.5 -26.5t-43.5 -50
t-28.5 -78.5q-2 -8 -3.5 -12t-9.5 -4t-8 5q0 2 0.5 4.5t1.5 6.5l38 182q20 -2 71 -2.5t120 -0.5h220q23 0 23 -4q0 -3 -3.5 -9t-5.5 -10l-377 -673h198q60 0 93.5 16t50.5 40t21.5 53.5t6.5 56.5q0 6 1.5 11.5t7.5 5.5q7 0 8.5 -4.5t1.5 -12.5v-163z" />
    <glyph glyph-name="zdotaccent" unicode="&#x17c;" horiz-adv-x="445" 
d="M227 548q-23 0 -39 16t-16 39t16 39t39 16t39 -16t16 -39t-16 -39t-39 -16zM399 12q0 -10 -4.5 -11.5t-6.5 -1.5h-20.5t-52 0.5t-73.5 0.5h-86h-15.5t-23.5 -0.5t-26.5 -0.5h-23.5q-20 0 -25 1t-5 3t2 6t4 7l236 450h-54q-45 0 -73 -8t-45.5 -24t-26.5 -39.5t-16 -53.5
q-2 -6 -2.5 -8.5t-5.5 -2.5q-6 0 -6 3q0 5 0.5 5t0.5 2l29 140q8 -2 33 -2h80h184q15 0 15 -4q0 -2 -2 -6t-4 -6l-234 -452h105q46 0 71.5 10.5t37.5 28t15 40t3 47.5q0 11 8 11q7 0 7 -11v-124z" />
    <glyph glyph-name="Zcaron" unicode="&#x17d;" horiz-adv-x="589" 
d="M323 760h-27l-132 119l15 13l131 -87l131 87l14 -13zM538 19q0 -11 -0.5 -14.5t-2.5 -5.5q-4 -2 -9 -2q-3 0 -14 0.5t-45 1t-98.5 1t-175.5 0.5h-154q-13 0 -13 5q0 3 3.5 8.5t5.5 10.5l378 672h-112q-48 0 -84.5 -8t-62.5 -26.5t-43.5 -50t-28.5 -78.5q-2 -8 -3.5 -12
t-9.5 -4t-8 5q0 2 0.5 4.5t1.5 6.5l38 182q20 -2 71 -2.5t120 -0.5h220q23 0 23 -4q0 -3 -3.5 -9t-5.5 -10l-377 -673h198q60 0 93.5 16t50.5 40t21.5 53.5t6.5 56.5q0 6 1.5 11.5t7.5 5.5q7 0 8.5 -4.5t1.5 -12.5v-163z" />
    <glyph glyph-name="zcaron" unicode="&#x17e;" horiz-adv-x="445" 
d="M240 541h-27l-132 119l15 14l131 -88l131 88l14 -14zM399 12q0 -10 -4.5 -11.5t-6.5 -1.5h-20.5t-52 0.5t-73.5 0.5h-86h-15.5t-23.5 -0.5t-26.5 -0.5h-23.5q-20 0 -25 1t-5 3t2 6t4 7l236 450h-54q-45 0 -73 -8t-45.5 -24t-26.5 -39.5t-16 -53.5q-2 -6 -2.5 -8.5
t-5.5 -2.5q-6 0 -6 3q0 5 0.5 5t0.5 2l29 140q8 -2 33 -2h80h184q15 0 15 -4q0 -2 -2 -6t-4 -6l-234 -452h105q46 0 71.5 10.5t37.5 28t15 40t3 47.5q0 11 8 11q7 0 7 -11v-124z" />
    <glyph glyph-name="florin" unicode="&#x192;" horiz-adv-x="360" 
d="M131 342q-8 0 -22 -0.5t-29 -0.5t-29 -0.5t-24 -0.5q-11 0 -11 10q0 3 3 6t8 3l104 -3v198q0 72 21.5 111t50 57t56 21t38.5 3q33 0 59 -17t26 -57q0 -27 -13 -44t-39 -17q-23 0 -33.5 13.5t-10.5 30.5t12 30.5t32 13.5q9 0 17 -3q4 -2 5 -2q2 0 2 3q0 11 -14 20.5
t-37 9.5q-24 0 -39 -9t-23.5 -26t-11.5 -40.5t-3 -52.5v-243l108 3q5 0 7.5 -3t2.5 -6q0 -10 -10 -10q-11 0 -26 0.5t-30 0.5t-29 0.5t-23 0.5v-355q0 -68 -11 -111.5t-31.5 -68.5t-48 -35t-60.5 -10q-13 0 -26.5 3.5t-25 12t-19 22.5t-7.5 35q0 26 13.5 38t30.5 12
q16 0 29 -11t13 -32q0 -17 -12 -26t-27 -9q-12 0 -15 3.5t-3 -1.5q0 -7 9.5 -17.5t33.5 -10.5q23 0 35.5 8t18.5 27t7 51.5t1 81.5v393z" />
    <glyph glyph-name="AEacute" unicode="&#x1fc;" horiz-adv-x="977" 
d="M613 760l57 127h80l-102 -127h-35zM460 658l-223 -377h223v377zM717 16q50 0 83.5 12.5t54 34.5t30.5 52.5t13 66.5q0 17 10 17q7 0 8 -4.5t1 -12.5q-2 -35 -6 -71.5t-4 -81.5v-16t1 -16q-11 1 -22 1.5t-27.5 0.5h-42t-66.5 0.5t-100 0.5h-142q-39 0 -73 -1t-73 -2
q-11 0 -11 10q0 3 3 6t8 3h98v246h-234l-72 -120q-15 -26 -25 -47.5t-10 -38.5q0 -19 14 -29.5t46 -10.5h28q5 0 7.5 -3t2.5 -6q0 -10 -10 -10q-20 0 -33.5 0.5t-26.5 1t-27 1t-33 0.5q-20 0 -32 -0.5t-22.5 -1t-23 -1t-31.5 -0.5q-11 0 -11 10q0 3 3 6t8 3h17q38 0 62.5 20
t47.5 59l354 601h-97q-11 0 -11 10q0 9 11 9q39 -1 73 -2t73 -1h141.5h101.5t69.5 0.5t44.5 0.5t26.5 0.5t16.5 1.5q0 -14 0.5 -39.5t2.5 -41.5q2 -21 3 -34t1.5 -23.5t0.5 -20.5t1 -23q0 -8 -1 -12t-8 -4q-10 0 -10 16q0 33 -6.5 63t-27 52t-57.5 35t-99 13h-149v-290h45
q30 0 52.5 3.5t37.5 15.5t22.5 34t8.5 60q0 16 10 16q7 0 8 -4.5t1 -11.5q-2 -37 -2.5 -53.5t-1.5 -25.5t-1 -17v-27v-29.5t1 -21t1.5 -30.5t2.5 -56q0 -7 -1 -11.5t-8 -4.5q-10 0 -10 16q-1 42 -8.5 67t-22.5 38.5t-37.5 18t-52.5 4.5h-45v-371h158z" />
    <glyph glyph-name="aeacute" unicode="&#x1fd;" horiz-adv-x="726" 
d="M420 541l57 128h81l-103 -128h-35zM320 445l-151 -257h151v257zM480 10q60 0 93.5 8t50.5 24.5t23.5 41t11.5 58.5q1 12 6 12t5.5 -3.5t0.5 -8.5q-1 -21 -1.5 -44.5t-0.5 -37.5t0.5 -19t0.5 -13v-15t1 -15q-10 0 -27.5 0.5t-51.5 1t-88 0.5h-137q-26 0 -55.5 -1t-55.5 -1
q-7 0 -7 6t7 6h64v166h-157l-48 -81q-19 -34 -19 -52q0 -33 61 -33h8q6 0 6 -6t-6 -6q-26 1 -48.5 1.5t-43.5 0.5q-15 0 -25 -0.5t-18 -0.5t-17 -0.5t-23 -0.5q-7 0 -7 6t7 6h6q34 0 52 13.5t34 40.5l237 402h-63q-7 0 -7 7t7 7q26 -1 57 -1.5t54 -0.5h132.5h87.5t51.5 0.5
t24.5 1.5q0 -48 2 -87.5t2 -57.5q0 -10 -4 -10q-7 0 -8 10q-5 30 -11.5 54t-22 41t-45 26.5t-80.5 9.5h-79v-219h24q35 0 54.5 6.5t29.5 18.5t13 30t5 41q0 10 7 10q5 0 5.5 -2.5t0.5 -8.5q-2 -36 -2.5 -55.5t-0.5 -42.5q0 -17 0.5 -25.5t0.5 -18t0.5 -23t0.5 -39.5
q0 -12 -5 -12q-6 0 -6 12q-1 35 -10 54.5t-23 29t-32 11.5t-38 2h-24v-225h63z" />
    <glyph glyph-name="Oslashacute" unicode="&#x1fe;" horiz-adv-x="801" 
d="M359 760l57 127h81l-102 -127h-36zM293 29q46 -23 107 -23q70 0 117 30.5t76 80t41.5 113t12.5 130.5q0 46 -6 91.5t-18.5 86t-33.5 74.5t-51 58zM508 690q-23 11 -49.5 17.5t-58.5 6.5q-70 0 -117 -30.5t-76 -80t-41.5 -113t-12.5 -130.5q0 -46 6 -91.5t19 -86t34 -75
t51 -58.5zM219 -68l33 89q-46 23 -83.5 58.5t-64 80t-41 95.5t-14.5 105q0 73 26 140.5t73 119t111 82.5t141 31q62 0 116 -21l29 75h38l-35 -89q46 -23 84 -58.5t64.5 -80t41 -95t14.5 -104.5q0 -73 -26.5 -140.5t-73 -119t-111.5 -82.5t-141 -31q-61 0 -116 20l-28 -75
h-37z" />
    <glyph glyph-name="oslashacute" unicode="&#x1ff;" horiz-adv-x="592" 
d="M245 541l57 128h81l-102 -128h-36zM214 27q30 -23 82 -23q46 0 76 19.5t46.5 52.5t23 75.5t6.5 89.5q0 58 -10.5 109.5t-39.5 85.5zM378 455q-16 11 -36 17.5t-46 6.5q-47 0 -76.5 -19.5t-46.5 -52.5t-23 -76t-6 -90q0 -60 10.5 -111.5t39.5 -84.5zM136 -85l47 104
q-31 16 -57 39.5t-44.5 52.5t-28.5 62t-10 68q0 49 20.5 94.5t55 80t80.5 55t97 20.5q23 0 46 -5t44 -13l46 103l25 -9l-47 -105q31 -16 56.5 -39.5t44 -52.5t28.5 -62t10 -67q0 -50 -20.5 -95t-55 -79.5t-80.5 -55t-97 -20.5q-24 0 -46.5 5t-42.5 13l-48 -106z" />
    <glyph glyph-name="uni0237" unicode="&#x237;" horiz-adv-x="300" 
d="M101 466h-67q-6 0 -6 7t6 7q26 -1 58.5 -1.5t55.5 -0.5q17 0 36 0.5t36 0.5t29 0.5t15 0.5q8 0 9.5 -2t1.5 -4q0 -8 -7 -8h-69v-466q0 -57 -16 -89t-38 -47.5t-44.5 -19.5t-34.5 -4q-52 0 -78.5 23t-26.5 53q0 25 16.5 37.5t39.5 12.5q28 0 40 -15.5t12 -34.5t-13 -30.5
t-34 -11.5q-13 0 -13 -2q0 -6 11.5 -12t30.5 -6q17 0 27 8t15 24.5t6.5 43t1.5 64.5v472z" />
    <glyph glyph-name="circumflex" unicode="&#x2c6;" horiz-adv-x="348" 
d="M305 541l-131 88l-131 -88l-15 14l133 119h26l132 -119z" />
    <glyph glyph-name="caron" unicode="&#x2c7;" horiz-adv-x="348" 
d="M187 541h-26l-133 119l15 14l131 -88l131 88l14 -14z" />
    <glyph glyph-name="breve" unicode="&#x2d8;" horiz-adv-x="344" 
d="M296 665q0 -14 -3.5 -35.5t-16 -41t-37 -33.5t-67.5 -14t-68 14t-37.5 33.5t-16 41t-3.5 35.5q0 11 2 15t8 4t7.5 -4t1.5 -15t1.5 -27.5t11.5 -31.5t31.5 -25.5t61.5 -10.5q39 0 60.5 10.5t31.5 25.5t11.5 31.5t1.5 27.5t2 15t8 4q5 0 7 -4t2 -15z" />
    <glyph glyph-name="dotaccent" unicode="&#x2d9;" horiz-adv-x="205" 
d="M103 548q-23 0 -39.5 16t-16.5 39t16.5 39t39.5 16t39 -16t16 -39t-16 -39t-39 -16z" />
    <glyph glyph-name="ring" unicode="&#x2da;" horiz-adv-x="251" 
d="M125 557q20 0 30 14.5t10 35.5q0 22 -10 36.5t-30 14.5q-19 0 -29.5 -14.5t-10.5 -36.5q0 -21 10.5 -35.5t29.5 -14.5zM203 607q0 -17 -7 -29.5t-18.5 -20.5t-25.5 -12t-27 -4q-14 0 -27.5 4t-25 12t-18.5 20.5t-7 29.5t7 29.5t18.5 20.5t25 12t27.5 4q13 0 27 -4
t25.5 -12t18.5 -20.5t7 -29.5z" />
    <glyph glyph-name="ogonek" unicode="&#x2db;" horiz-adv-x="318" 
d="M261 2q-38 -22 -55 -51t-17 -59q0 -20 7.5 -39t22 -33.5t35 -23t46.5 -8.5t41.5 6.5t18.5 6.5t3 -3q0 -4 -7 -8t-18 -7.5t-23 -5.5t-24.5 -3.5t-21.5 -1.5q-63 0 -95 30t-32 72q0 38 29 76.5t90 61.5v-10z" />
    <glyph glyph-name="tilde" unicode="&#x2dc;" horiz-adv-x="428" 
d="M378 606q-14 -38 -32.5 -51.5t-37.5 -13.5q-20 0 -44 6t-48 13.5t-46.5 13.5t-37.5 6q-11 0 -22 -4.5t-20.5 -11t-16.5 -13t-10 -10.5q-2 -1 -5 -3.5t-5 -2.5t-4 2t-2 4q0 3 8 11q24 23 38 37t24.5 21.5t20 10t23.5 2.5t34.5 -5.5t43 -12.5t44.5 -12.5t37 -5.5
q14 0 26.5 6.5t23.5 22.5q3 5 6 5q5 0 5 -4q0 -2 -3 -11z" />
    <glyph glyph-name="hungarumlaut" unicode="&#x2dd;" horiz-adv-x="386" 
d="M259 589q5 6 8 9.5t3 7.5q0 3 -2 6t-7.5 9t-16 15.5t-27.5 25.5q-14 12 -14 20q0 4 3 8t14 15q19 19 34.5 35.5t33.5 37.5q6 6 7 6q3 0 7 -4t4 -7q0 -2 -1 -3.5t-3 -3.5l-20 -23q-10 -11 -10 -17q0 -3 1.5 -6t7 -9t16 -15.5t28.5 -25.5q5 -5 9 -10t4 -10q0 -4 -3 -8
t-14 -15q-19 -19 -34.5 -35.5t-32.5 -37.5q-6 -6 -8 -6q-3 0 -7 4q-3 4 -3 7q0 2 3 7zM104 582q10 13 10 17q0 5 -9.5 15t-43.5 41q-14 12 -14 20q0 4 3.5 8t14.5 15q18 19 33.5 35.5t33.5 37.5q6 6 8 6t6 -4t4 -6t-4 -8l-20 -23q-10 -12 -10 -17q0 -3 2 -6t7.5 -9t16 -15.5
t27.5 -25.5q13 -11 13 -20q0 -4 -3 -8t-14 -15q-18 -18 -33.5 -34.5t-33.5 -38.5q-6 -6 -8 -6q-3 0 -6 4q-4 4 -4 7q0 2 4 8z" />
    <glyph glyph-name="uni1E02" unicode="&#x1e02;" horiz-adv-x="644" 
d="M311 767q-23 0 -39 16t-16 39t16 39t39 16t39 -16t16 -39t-16 -39t-39 -16zM255 379q37 0 75 2.5t69 17.5t50.5 46.5t19.5 88.5q0 60 -21.5 93t-54.5 48.5t-72.5 18t-75.5 2.5h-3v-317h13zM270 19q36 0 74 3.5t69.5 20t51.5 50t20 93.5q0 63 -21.5 98t-55 52t-74.5 20.5
t-79 3.5h-13v-341h28zM142 696h-98q-10 0 -10 10q0 4 2.5 6.5t10.5 2.5q3 0 25 -0.5t50.5 -1t56 -1t40.5 -0.5q20 0 45 1t48 1q37 0 82 -5.5t85 -23t67 -51.5t27 -91q0 -39 -14 -69.5t-38.5 -51.5t-57.5 -34t-70 -18q40 -6 75.5 -20t62.5 -36.5t42.5 -55t15.5 -75.5
q0 -57 -26 -93t-66 -57t-86.5 -28.5t-88.5 -7.5q-31 0 -64 2.5t-64 2.5q-16 0 -40 -1t-47.5 -1.5t-41 -1.5t-20.5 -1q-7 0 -9 3.5t-2 6.5t2.5 6t7.5 3h98v680z" />
    <glyph glyph-name="uni1E03" unicode="&#x1e03;" horiz-adv-x="516" 
d="M251 548q-23 0 -39 16t-16 39t16 39t39 16t39 -16t16 -39t-16 -39t-39 -16zM201 260q39 0 68 3.5t47.5 15t27.5 32t9 53.5t-9 53.5t-27.5 31t-47 14t-68.5 3.5v-206zM210 12q27 0 55.5 4t51.5 17t37.5 37.5t14.5 65.5q0 40 -13.5 62t-37 33t-54 13.5t-63.5 2.5v-235h9z
M103 466h-62q-7 0 -7 7t7 7q31 -1 57.5 -1.5t55.5 -0.5h31.5t32 0.5t28 0.5h20.5q53 0 88.5 -9t56.5 -24t30 -35t9 -43q0 -51 -38.5 -80t-124.5 -33q49 -1 83 -12t55.5 -29t31 -40.5t9.5 -45.5q0 -22 -9.5 -45t-34 -42t-66 -31t-104.5 -12q-21 0 -40 1t-56 1q-38 0 -71.5 -1
t-40.5 -1t-8.5 2t-1.5 4q0 6 7 6h62v456z" />
    </font>
</defs>
</svg>
