<svg width="60" height="60" fill="none" xmlns="http://www.w3.org/2000/svg"><path d="M29.853 24.702a20.587 20.587 0 004.256 4.243 20.602 20.602 0 00-4.247 4.256 20.76 20.76 0 00-4.256-4.246 20.745 20.745 0 004.247-4.253zm0-8.165a.844.844 0 00-.81.638 16.375 16.375 0 01-10.948 10.968.828.828 0 000 1.618 16.374 16.374 0 0110.952 10.952.828.828 0 001.618 0 16.375 16.375 0 0110.952-10.952c.873-.248.873-1.494 0-1.618a16.376 16.376 0 01-10.952-10.946.84.84 0 00-.809-.637l-.003-.022z" fill="#FFE336"/><path d="M11.482 5.509A7.773 7.773 0 016.277.313a.392.392 0 00-.768 0A7.773 7.773 0 01.313 5.51a.392.392 0 000 .768 7.773 7.773 0 015.196 5.205.392.392 0 00.768 0 7.773 7.773 0 015.205-5.205.392.392 0 000-.768zM59.686 5.509A7.77 7.77 0 0154.484.313a.395.395 0 00-.77 0A7.776 7.776 0 0148.51 5.51a.392.392 0 000 .768 7.776 7.776 0 015.202 5.205.395.395 0 00.771 0 7.777 7.777 0 015.202-5.205.392.392 0 000-.768zM11.482 53.714a7.777 7.777 0 01-5.205-5.202.392.392 0 00-.768 0 7.776 7.776 0 01-5.195 5.202.395.395 0 000 .77 7.777 7.777 0 015.205 5.203.392.392 0 00.768 0 7.77 7.77 0 015.205-5.202.395.395 0 00-.01-.771zM59.687 53.714a7.77 7.77 0 01-5.202-5.202.395.395 0 00-.77 0 7.777 7.777 0 01-5.203 5.202.395.395 0 000 .77 7.776 7.776 0 015.202 5.203.395.395 0 00.771 0 7.77 7.77 0 015.202-5.202.395.395 0 000-.771z" fill="#fff"/><path d="M25.71 46.973A33.892 33.892 0 013.595 15.196h4.683a29.307 29.307 0 0019.056 27.38l-1.624 4.397z" fill="url(#paint0_radial)"/><path d="M17.805 25.543l-4.29-1.911A33.916 33.916 0 0144.503 3.457v4.705a29.218 29.218 0 00-26.699 17.381z" fill="url(#paint1_radial)"/><path d="M56.491 44.122h-4.692a29.145 29.145 0 00-17.824-26.893l1.825-4.32a33.824 33.824 0 0120.691 31.213z" fill="url(#paint2_radial)"/><path d="M15.581 56.106v-4.69a29.188 29.188 0 0027.622-19.75l4.438 1.52a33.876 33.876 0 01-32.06 22.92z" fill="url(#paint3_radial)"/><defs><radialGradient id="paint0_radial" cx="0" cy="0" r="1" gradientUnits="userSpaceOnUse" gradientTransform="translate(25.222 44.772) scale(37.329)"><stop stop-color="#3619C8" stop-opacity="0"/><stop offset=".06" stop-color="#3719CA" stop-opacity="0"/><stop offset=".38" stop-color="#7F60FE" stop-opacity=".6"/><stop offset=".47" stop-color="#7869FE" stop-opacity=".63"/><stop offset=".63" stop-color="#677FFE" stop-opacity=".72"/><stop offset=".83" stop-color="#4AA4FE" stop-opacity=".87"/><stop offset="1" stop-color="#31C5FE"/></radialGradient><radialGradient id="paint1_radial" cx="0" cy="0" r="1" gradientUnits="userSpaceOnUse" gradientTransform="matrix(3151.96 0 0 2246.35 1618.47 1617.49)"><stop stop-color="#3619C8" stop-opacity="0"/><stop offset=".06" stop-color="#3719CA" stop-opacity="0"/><stop offset=".38" stop-color="#7F60FE" stop-opacity=".6"/><stop offset=".47" stop-color="#7869FE" stop-opacity=".63"/><stop offset=".63" stop-color="#677FFE" stop-opacity=".72"/><stop offset=".83" stop-color="#4AA4FE" stop-opacity=".87"/><stop offset="1" stop-color="#31C5FE"/></radialGradient><radialGradient id="paint2_radial" cx="0" cy="0" r="1" gradientUnits="userSpaceOnUse" gradientTransform="matrix(2316.66 0 0 3211.47 2645.82 1553.56)"><stop stop-color="#3619C8" stop-opacity="0"/><stop offset=".06" stop-color="#3719CA" stop-opacity="0"/><stop offset=".38" stop-color="#7F60FE" stop-opacity=".6"/><stop offset=".47" stop-color="#7869FE" stop-opacity=".63"/><stop offset=".63" stop-color="#677FFE" stop-opacity=".72"/><stop offset=".83" stop-color="#4AA4FE" stop-opacity=".87"/><stop offset="1" stop-color="#31C5FE"/></radialGradient><radialGradient id="paint3_radial" cx="0" cy="0" r="1" gradientUnits="userSpaceOnUse" gradientTransform="matrix(3629.51 0 0 2766.85 4521.29 2597.38)"><stop stop-color="#3619C8" stop-opacity="0"/><stop offset=".06" stop-color="#3719CA" stop-opacity="0"/><stop offset=".38" stop-color="#7F60FE" stop-opacity=".6"/><stop offset=".47" stop-color="#7869FE" stop-opacity=".63"/><stop offset=".63" stop-color="#677FFE" stop-opacity=".72"/><stop offset=".83" stop-color="#4AA4FE" stop-opacity=".87"/><stop offset="1" stop-color="#31C5FE"/></radialGradient></defs></svg>