<svg xmlns="http://www.w3.org/2000/svg" viewBox="0 0 226.17 177.71"><defs><radialGradient id="a" cx="167.17" cy="24.21" r="197.23" gradientTransform="matrix(-.74 .68 -.62 -.68 305.38 -72.41)" gradientUnits="userSpaceOnUse"><stop offset="0" stop-color="#9d60fd" stop-opacity="0"/><stop offset=".07" stop-color="#9d60fd" stop-opacity=".01"/><stop offset=".14" stop-color="#9d60fd" stop-opacity=".06"/><stop offset=".2" stop-color="#9d60fd" stop-opacity=".13"/><stop offset=".25" stop-color="#9d60fd" stop-opacity=".23"/><stop offset=".31" stop-color="#9d60fd" stop-opacity=".36"/><stop offset=".36" stop-color="#9d60fd" stop-opacity=".51"/><stop offset=".39" stop-color="#9d60fd" stop-opacity=".6"/><stop offset=".48" stop-color="#8676fd" stop-opacity=".69"/><stop offset=".65" stop-color="#6198fe" stop-opacity=".82"/><stop offset=".8" stop-color="#47b0fe" stop-opacity=".92"/><stop offset=".92" stop-color="#37c0fe" stop-opacity=".98"/><stop offset="1" stop-color="#31c5fe"/></radialGradient></defs><g data-name="Слой 2"><g data-name="Слой 1"><path d="M147.5 79.41a46.94 46.94 0 00-31.39 31.39 2.37 2.37 0 01-4.64 0 46.91 46.91 0 00-31.34-31.39 2.37 2.37 0 010-4.63 46.93 46.93 0 0031.37-31.39 2.37 2.37 0 014.64 0 47 47 0 0031.36 31.39c2.5.35 2.5 3.92 0 4.63z" fill="#ffe336"/><path d="M223.61 118.69L189.2 92.43A77.21 77.21 0 1036.29 77.21a77 77 0 001.47 15L2.56 119a6.5 6.5 0 001.77 11.3l27.28 9.7 4.45 32.08a6.49 6.49 0 004 5.15 6.39 6.39 0 002.39.46 6.49 6.49 0 004.08-1.44l35.52-28.55a76.95 76.95 0 0062.65.11l34.89 28.11a6.5 6.5 0 0010.51-4.17l4.46-32.09 27.28-9.66a6.5 6.5 0 001.77-11.29zM47.36 159l-3.42-24.63a6.52 6.52 0 00-4.27-5.24L20 122.1l21.71-16.57a77.55 77.55 0 0028.15 35.31zm1.93-81.74a64.21 64.21 0 1164.21 64.21 64.28 64.28 0 01-64.21-64.26zm137.2 51.52a6.5 6.5 0 00-4.26 5.23l-3.42 24.64L157 141a77.59 77.59 0 0028.27-35.24l21 16z" fill="url(#a)"/></g></g></svg>