<svg width="60" height="60" fill="none" xmlns="http://www.w3.org/2000/svg"><path d="M56.766 19.618a31.7 31.7 0 01-2.158 2.502 2.298 2.298 0 00-.294-.363L43.681 11.124a2.24 2.24 0 00-3.168 3.168l10.633 10.633.069.06a18.142 18.142 0 01-5.057 2.224l-5.814-5.796a2.239 2.239 0 00-3.159 3.168l3.503 3.503a70.368 70.368 0 01-8.675-.122l-1.817-.112c-.892-.057-1.79-.116-2.687-.163-8.938-.504-17.96-.372-25.198 6.862A33.23 33.23 0 000 37.119l3.184 3.194a28.598 28.598 0 011.973-2.262l10.168 10.174a2.24 2.24 0 103.168-3.168L8.635 35.19a18.796 18.796 0 015.063-2.215l6.568 6.568a2.242 2.242 0 003.824-1.584 2.24 2.24 0 00-.656-1.584l-4.282-4.282a68.945 68.945 0 018.632.097l2.13.132 2.374.147c8.885.513 17.87.463 24.963-6.634.957-.95 1.86-1.953 2.702-3.005l-3.187-3.212z" fill="url(#paint0_linear)"/><path d="M43.422 45.933a2.643 2.643 0 100-5.286 2.643 2.643 0 000 5.286z" fill="#FFE336"/><path d="M37.307 5.895c-5.874 5.874-5.795 13.702-5.295 22.068l.113 1.816c.056.892.115 1.793.162 2.69.507 8.938.373 17.961-6.861 25.195A34.505 34.505 0 0122.83 60l-3.187-3.193a28.008 28.008 0 002.611-2.311c6.027-6.02 6.027-13.892 5.53-22.305a442.35 442.35 0 00-.132-2.127c-.05-.791-.1-1.585-.143-2.377-.516-8.885-.463-17.87 6.63-24.963A35.096 35.096 0 0137.19 0l3.184 3.193a30.594 30.594 0 00-3.068 2.702z" fill="url(#paint1_linear)"/><path d="M37.307 5.895c-5.874 5.874-5.795 13.702-5.295 22.068l.113 1.816c.056.892.115 1.793.162 2.69.507 8.938.373 17.961-6.861 25.195A34.505 34.505 0 0122.83 60l-3.187-3.193a28.008 28.008 0 002.611-2.311c6.027-6.02 6.027-13.892 5.53-22.305a442.35 442.35 0 00-.132-2.127c-.05-.791-.1-1.585-.143-2.377-.516-8.885-.463-17.87 6.63-24.963A35.096 35.096 0 0137.19 0l3.184 3.193a30.594 30.594 0 00-3.068 2.702z" fill="url(#paint2_radial)"/><defs><linearGradient id="paint0_linear" x1="2.186" y1="37.201" x2="59.487" y2="21.426" gradientUnits="userSpaceOnUse"><stop stop-color="#A260FD"/><stop offset=".12" stop-color="#A260FD" stop-opacity=".99"/><stop offset=".19" stop-color="#A160FD" stop-opacity=".96"/><stop offset=".24" stop-color="#9F60FD" stop-opacity=".9"/><stop offset=".29" stop-color="#9C60FD" stop-opacity=".83"/><stop offset=".33" stop-color="#9860FD" stop-opacity=".73"/><stop offset=".37" stop-color="#9460FD" stop-opacity=".6"/><stop offset=".4" stop-color="#8F60FE" stop-opacity=".46"/><stop offset=".44" stop-color="#8960FE" stop-opacity=".29"/><stop offset=".47" stop-color="#8360FE" stop-opacity=".1"/><stop offset=".48" stop-color="#7F60FE" stop-opacity="0"/><stop offset=".49" stop-color="#7967FE" stop-opacity=".07"/><stop offset=".53" stop-color="#6A7BFE" stop-opacity=".26"/><stop offset=".57" stop-color="#5D8CFE" stop-opacity=".44"/><stop offset=".61" stop-color="#519CFE" stop-opacity=".59"/><stop offset=".66" stop-color="#47A8FE" stop-opacity=".72"/><stop offset=".7" stop-color="#3FB3FE" stop-opacity=".82"/><stop offset=".75" stop-color="#39BBFE" stop-opacity=".9"/><stop offset=".81" stop-color="#34C1FE" stop-opacity=".96"/><stop offset=".88" stop-color="#32C4FE" stop-opacity=".99"/><stop offset="1" stop-color="#31C5FE"/></linearGradient><linearGradient id="paint1_linear" x1="9.06" y1="52.973" x2="45.129" y2="13.323" gradientUnits="userSpaceOnUse"><stop stop-color="#7F60FE"/><stop offset=".19" stop-color="#7D63FE"/><stop offset=".32" stop-color="#766BFE"/><stop offset=".42" stop-color="#6B7AFE"/><stop offset=".51" stop-color="#5B8FFE"/><stop offset=".6" stop-color="#46AAFE"/><stop offset=".67" stop-color="#31C5FE"/><stop offset=".68" stop-color="#31C5FE" stop-opacity=".9"/><stop offset=".72" stop-color="#31C5FE" stop-opacity=".69"/><stop offset=".75" stop-color="#31C5FE" stop-opacity=".51"/><stop offset=".79" stop-color="#31C5FE" stop-opacity=".35"/><stop offset=".83" stop-color="#31C5FE" stop-opacity=".22"/><stop offset=".87" stop-color="#31C5FE" stop-opacity=".13"/><stop offset=".91" stop-color="#31C5FE" stop-opacity=".06"/><stop offset=".95" stop-color="#31C5FE" stop-opacity=".01"/><stop offset="1" stop-color="#31C5FE" stop-opacity="0"/></linearGradient><radialGradient id="paint2_radial" cx="0" cy="0" r="1" gradientUnits="userSpaceOnUse" gradientTransform="translate(20.225 55.484) scale(56.5661)"><stop stop-color="#A260FD"/><stop offset=".12" stop-color="#9968FD"/><stop offset=".32" stop-color="#807EFD"/><stop offset=".57" stop-color="#58A2FE"/><stop offset=".77" stop-color="#31C5FE"/><stop offset="1" stop-color="#31C5FE" stop-opacity="0"/></radialGradient></defs></svg>