<svg width="60" height="60" fill="none" xmlns="http://www.w3.org/2000/svg"><path d="M44.898 19.635H4.78v4.07h40.118v-4.07z" fill="url(#paint0_linear)"/><path d="M50.276 50.977H5.71a4.302 4.302 0 01-4.297-4.296V10.279a4.302 4.302 0 014.297-4.3h44.566a4.302 4.302 0 014.297 4.3V46.68a4.302 4.302 0 01-4.297 4.296zM5.71 10.052a.227.227 0 00-.227.227V46.68a.227.227 0 00.227.226h44.566a.226.226 0 00.227-.226V10.279a.227.227 0 00-.227-.227H5.71z" fill="url(#paint1_linear)"/><path d="M48.975 42.296l-3.542 3.543L55.955 56.36l3.542-3.543-10.522-10.522zM6.898 4.5H0v6.898h6.898V4.5zM6.898 45.182H0v6.898h6.898v-6.898zM55.76 4.5h-6.898v6.898h6.899V4.5z" fill="#fff"/><path d="M24.695 29.268H10.898v4.07h13.797v-4.07zM24.695 37.006H10.898v4.07h13.797v-4.07z" fill="#FFE336"/><path d="M54.2 51.066l-5.798 5.8-2.123-7.924-2.124-7.921 7.924 2.12 7.922 2.124-5.801 5.8z" fill="#fff"/><defs><linearGradient id="paint0_linear" x1="41.605" y1="21.495" x2="-4.637" y2="21.979" gradientUnits="userSpaceOnUse"><stop stop-color="#A260FD" stop-opacity="0"/><stop offset=".23" stop-color="#A260FD"/><stop offset=".46" stop-color="#757BF9"/><stop offset=".7" stop-color="#4F91F5"/><stop offset=".82" stop-color="#409AF4"/></linearGradient><linearGradient id="paint1_linear" x1="51.158" y1="48.174" x2="4.344" y2="8.371" gradientUnits="userSpaceOnUse"><stop stop-color="#A260FD" stop-opacity="0"/><stop offset=".23" stop-color="#A260FD"/><stop offset=".29" stop-color="#9A65FC"/><stop offset=".77" stop-color="#598BF6"/><stop offset="1" stop-color="#409AF4"/></linearGradient></defs></svg>