<svg width="118" height="146" viewBox="0 0 118 146" fill="none" xmlns="http://www.w3.org/2000/svg">
<path fill-rule="evenodd" clip-rule="evenodd" d="M58.793 1.63781L79.142 43.3595L79.0989 43.3485L78.976 43.8332L79.4292 43.9482L97.5289 81.0581L97.3546 81.416L97.8041 81.6349L97.8071 81.6286L117.453 121.908C117.998 123.025 117.534 124.372 116.417 124.917C116.298 124.975 116.174 125.022 116.046 125.059C104.724 128.281 92.2089 127.706 78.505 123.339C62.5806 118.264 50.6812 109.516 41.8929 96.663L42.1903 96.5008L41.951 96.0618L41.6108 96.2473C39.7564 93.4955 38.0422 90.5579 36.4594 87.4303C35.6053 85.7426 34.8345 83.966 34.147 82.1174L34.3691 81.9898L34.1199 81.5562L33.9723 81.6411C28.4581 66.3997 28.538 46.425 34.289 30.988C37.9512 21.1579 44.919 11.1705 55.1894 1.02356C56.0734 0.150215 57.498 0.15883 58.3713 1.0428C58.5433 1.21688 58.6857 1.41786 58.793 1.63781ZM24.3354 87.1989L24.327 87.1842L33.9723 81.6411C34.0299 81.8004 34.0881 81.9592 34.147 82.1174L24.7328 87.5276L24.6113 87.317C24.5541 87.2177 24.44 87.1733 24.3354 87.1989ZM22.5723 101.5C21.7513 100.826 21.0469 99.9278 20.4609 98.8057C18.1816 94.4412 19.4632 90.558 24.2523 87.2364C24.2783 87.2183 24.3065 87.2059 24.3354 87.1989L24.5761 87.6177L24.7328 87.5276L26.3281 90.2947C26.1775 90.3705 26.0327 90.4533 25.8938 90.5425L24.3148 87.8037C19.9049 90.9519 18.785 94.5165 20.9041 98.5743C23.0203 102.626 26.732 103.565 32.1407 101.378L30.6334 98.7631C30.7834 98.6863 30.9276 98.6024 31.0658 98.5122L32.5945 101.164L32.3802 101.281L32.6195 101.72L32.6228 101.718C32.6173 101.721 32.6116 101.724 32.6057 101.727L32.5964 101.731C28.4118 103.483 25.1161 103.455 22.7499 101.641V101.5H22.5723ZM22.2499 112.273V101.5H22.5723C22.6309 101.548 22.6901 101.595 22.7499 101.641V112.273H22.2499ZM25.8758 128.523V131.523C25.8758 132.766 24.8685 133.773 23.6258 133.773H18.6258C17.3832 133.773 16.3758 132.766 16.3758 131.523V114.523C16.3758 113.281 17.3832 112.273 18.6258 112.273H22.2499V112.5H22.7499V112.273H23.6258C24.8685 112.273 25.8758 113.281 25.8758 114.523V119.523V128.523ZM30.3758 128.523C30.3758 128.385 30.2639 128.273 30.1258 128.273H26.1258C25.9878 128.273 25.8758 128.385 25.8758 128.523C25.8758 128.662 25.9878 128.773 26.1258 128.773H30.1258C30.2639 128.773 30.3758 128.662 30.3758 128.523ZM30.3758 119.523V128.523V131.523C30.3758 132.766 31.3832 133.773 32.6258 133.773H37.6258C38.8685 133.773 39.8758 132.766 39.8758 131.523V114.523C39.8758 113.281 38.8685 112.273 37.6258 112.273H33.7499V101.103L41.8929 96.663C41.7985 96.5249 41.7045 96.3863 41.6108 96.2473L32.5945 101.164L32.7164 101.375C32.7867 101.497 32.7422 101.651 32.6228 101.718L33.2499 101.376V112.273H32.6258C31.3832 112.273 30.3758 113.281 30.3758 114.523V119.523ZM30.3758 119.523C30.3758 119.385 30.2639 119.273 30.1258 119.273H26.1258C25.9878 119.273 25.8758 119.385 25.8758 119.523C25.8758 119.662 25.9878 119.773 26.1258 119.773H30.1258C30.2639 119.773 30.3758 119.662 30.3758 119.523ZM33.2499 101.376L33.7499 101.103V101.096H33.2499V101.376ZM33.2499 112.273H33.7499V112.5H33.2499V112.273ZM30.8157 98.0783L31.0658 98.5122C33.0431 97.2223 33.7961 94.6314 32.7344 92.4546C31.5844 90.0967 28.7407 89.1176 26.3829 90.2676C26.3645 90.2765 26.3463 90.2856 26.3281 90.2947L26.5783 90.7287C26.427 90.8036 26.2821 90.8864 26.1439 90.9762L25.8938 90.5425C23.8947 91.8258 23.1289 94.4316 24.1958 96.6191C25.3458 98.977 28.1895 99.9561 30.5474 98.8061L30.5889 98.7856L30.6334 98.7631L30.3833 98.3294C30.5339 98.2532 30.6782 98.1693 30.8157 98.0783ZM30.8157 98.0783L26.5783 90.7287L26.602 90.717C28.7117 89.688 31.256 90.5641 32.285 92.6738C33.2307 94.6128 32.5671 96.9189 30.8157 98.0783ZM30.3833 98.3294C30.365 98.3386 30.3466 98.3477 30.3282 98.3567C28.2185 99.3857 25.6742 98.5096 24.6452 96.3999C23.6943 94.4502 24.3705 92.1291 26.1439 90.9762L30.3833 98.3294ZM111.925 51.9152L111.982 51.6908L79.142 43.3595L79.4292 43.9482L111.066 51.9743L89.103 62.6864L89.3222 63.1358L111.429 52.3538L111.269 52.0257L111.623 52.1157L97.5289 81.0581L97.8071 81.6286L112.209 52.0538L111.925 51.9152ZM111.623 52.1157L111.76 51.8349L111.925 51.9152L111.859 52.1755L111.623 52.1157ZM111.269 52.0257L111.066 51.9743L111.209 51.9044L111.269 52.0257ZM58.0156 1.39421C58.1494 1.52961 58.2602 1.68592 58.3436 1.85699L117.003 122.127C117.427 122.996 117.066 124.044 116.198 124.467C116.105 124.513 116.009 124.55 115.91 124.578C104.688 127.772 92.2715 127.201 78.6568 122.862C59.305 116.695 45.9525 105.082 36.9055 87.2046C29.0476 71.677 28.2916 48.5185 34.7576 31.1625C38.3919 21.407 45.3187 11.4785 55.5408 1.37924C56.2283 0.699977 57.3364 0.706678 58.0156 1.39421ZM18.6258 112.773C17.6593 112.773 16.8758 113.557 16.8758 114.523V131.523C16.8758 132.49 17.6593 133.273 18.6258 133.273H23.6258C24.5923 133.273 25.3758 132.49 25.3758 131.523V114.523C25.3758 113.557 24.5923 112.773 23.6258 112.773H18.6258ZM30.8758 114.523C30.8758 113.557 31.6593 112.773 32.6258 112.773H37.6258C38.5923 112.773 39.3758 113.557 39.3758 114.523V131.523C39.3758 132.49 38.5923 133.273 37.6258 133.273H32.6258C31.6593 133.273 30.8758 132.49 30.8758 131.523V114.523ZM0.890137 141.032C0.890137 138.961 2.56907 137.282 4.64014 137.282H52.6115C54.6826 137.282 56.3615 138.961 56.3615 141.032C56.3615 143.103 54.6826 144.782 52.6115 144.782H4.64014C2.56907 144.782 0.890137 143.103 0.890137 141.032ZM4.64014 136.782H52.6115C54.9587 136.782 56.8615 138.684 56.8615 141.032C56.8615 143.379 54.9587 145.282 52.6115 145.282H4.64014C2.29293 145.282 0.390137 143.379 0.390137 141.032C0.390137 138.684 2.29293 136.782 4.64014 136.782Z" fill="white" fill-opacity="0.6"/>
</svg>
