<svg width="159" height="143" viewBox="0 0 159 143" fill="none" xmlns="http://www.w3.org/2000/svg">
<path opacity="0.6" fill-rule="evenodd" clip-rule="evenodd" d="M118.105 139.095C109.04 144.328 94.4897 137.557 79.5754 122.92C79.6922 122.8 79.8091 122.68 79.926 122.56C94.6819 137.045 109.025 143.76 117.855 138.662C126.62 133.601 128.022 118.017 122.989 98.2051C123.152 98.1653 123.315 98.1253 123.477 98.0851C128.56 118.108 127.104 133.899 118.105 139.095ZM123.352 97.5982C123.372 97.675 123.392 97.7517 123.411 97.8284C123.433 97.9141 123.455 97.9996 123.477 98.0851C144.419 92.8903 158.274 83.7496 158.461 73.0655C158.651 62.1754 144.592 52.3922 123.163 46.5019C128.616 25.9065 127.284 9.58202 118.105 4.28267C109.04 -0.951005 94.4897 5.82062 79.5754 20.4573C64.0277 4.55679 48.6465 -3.0046 39.21 2.44359C29.8903 7.82428 28.6608 24.5711 34.4081 45.6141C14.1775 50.8595 0.876495 59.845 0.693799 70.3117C0.5074 80.9904 14.0217 90.6048 34.752 96.528C28.6159 118.149 29.7087 135.448 39.21 140.934C48.6465 146.382 64.0277 138.82 79.5754 122.92L79.4453 122.792L79.3204 122.669L79.2173 122.567C79.3342 122.447 79.451 122.327 79.5679 122.207C79.638 122.276 79.7081 122.346 79.7782 122.415L79.926 122.56C85.536 116.778 91.1619 109.916 96.5326 102.192C106.116 101.512 115.053 100.14 122.989 98.2051C122.948 98.043 122.906 97.8807 122.864 97.7181C123.027 97.6784 123.19 97.6384 123.352 97.5982ZM113.962 71.6886C118.109 80.7264 121.261 89.5018 123.352 97.5982C144.082 92.459 157.779 83.4657 157.961 73.0568C158.146 62.4471 144.246 52.8172 123.034 46.9876C123.077 46.8254 123.12 46.6635 123.163 46.5019C123.002 46.4575 122.84 46.4135 122.678 46.3696C128.075 25.99 126.796 9.87767 117.855 4.71568C109.025 -0.38238 94.6819 6.3318 79.926 20.8173C79.8091 20.6968 79.6922 20.5768 79.5754 20.4573C79.456 20.5744 79.3367 20.6921 79.2173 20.8102C63.8263 5.06676 48.6543 -2.43176 39.46 2.8766C30.3794 8.11925 29.2018 24.6572 34.895 45.489C34.7322 45.5304 34.5699 45.5722 34.4081 45.6141C34.4521 45.7754 34.4966 45.9369 34.5414 46.0986C14.519 51.286 1.3717 60.124 1.19372 70.3204C1.01214 80.7235 14.3721 90.1846 34.8902 96.0448C34.8437 96.2061 34.7977 96.3672 34.752 96.528C34.9128 96.574 35.0741 96.6197 35.2357 96.6652C29.1589 118.071 30.2024 135.156 39.46 140.501C48.6543 145.809 63.8263 138.31 79.2173 122.567C73.3062 116.718 67.3445 109.64 61.6507 101.59C61.8715 101.614 62.0927 101.637 62.3142 101.659C67.9168 109.539 73.771 116.47 79.5679 122.207C85.0742 116.531 90.603 109.805 95.8907 102.236C96.105 102.222 96.319 102.207 96.5326 102.192C96.6114 102.079 96.69 101.965 96.7687 101.852L96.8991 101.663C106.304 100.974 115.072 99.617 122.864 97.7181C120.811 89.7745 117.732 81.1643 113.686 72.289C113.778 72.0888 113.871 71.8886 113.962 71.6886ZM113.686 71.0882C113.778 71.2885 113.871 71.4886 113.962 71.6886C117.904 63.0986 120.946 54.7458 123.034 46.9876C122.872 46.9433 122.711 46.8992 122.549 46.8553C122.592 46.6932 122.636 46.5312 122.678 46.3696C114.928 44.2714 106.231 42.6798 96.9063 41.7247C91.4232 33.7806 85.6662 26.7331 79.926 20.8173C79.8066 20.9344 79.6873 21.0521 79.5679 21.1702C79.451 21.0497 79.3342 20.9297 79.2173 20.8102C73.4437 26.5229 67.6217 33.4084 62.0483 41.2269C52.1681 41.958 42.9871 43.4261 34.895 45.489C34.939 45.6502 34.9835 45.8118 35.0284 45.9735C34.8657 46.015 34.7033 46.0567 34.5414 46.0986C36.7724 54.143 40.0155 62.8034 44.2089 71.6886C40.229 80.1213 37.1052 88.3515 34.8902 96.0448C35.051 96.0907 35.2122 96.1364 35.3739 96.1819C35.3275 96.3432 35.2814 96.5043 35.2357 96.6652C43.1301 98.887 52.0526 100.576 61.6507 101.59C61.5225 101.409 61.3944 101.227 61.2665 101.045C61.487 101.069 61.7079 101.093 61.9291 101.116C62.0574 101.297 62.1857 101.479 62.3142 101.659C67.7001 102.209 73.2949 102.547 79.0369 102.647C84.8167 102.748 90.4559 102.603 95.8907 102.236C96.0133 102.061 96.1357 101.885 96.258 101.709C96.472 101.694 96.6857 101.679 96.8991 101.663C99.8514 97.3862 102.724 92.8496 105.472 88.0896C108.531 82.7918 111.273 77.4984 113.686 72.289C113.594 72.089 113.503 71.8889 113.411 71.6886C113.503 71.4883 113.594 71.2882 113.686 71.0882ZM113.686 71.0882C111.273 65.8788 108.531 60.5855 105.472 55.2876C102.842 50.7323 100.098 46.3814 97.2794 42.2672C106.421 43.2256 114.946 44.7976 122.549 46.8553C120.501 54.4642 117.53 62.6566 113.686 71.0882ZM96.6252 42.1998C96.8436 42.2219 97.0617 42.2444 97.2794 42.2672C97.1551 42.0859 97.0308 41.9051 96.9063 41.7247C96.6883 41.7023 96.4699 41.6803 96.2512 41.6587C90.8546 33.8793 85.1995 26.9754 79.5679 21.1702C73.9033 26.7768 68.184 33.5228 62.6982 41.1799C62.4812 41.1952 62.2646 41.2109 62.0483 41.2269C61.9224 41.4034 61.7967 41.5805 61.6711 41.758C51.9772 42.4982 42.9716 43.9503 35.0284 45.9735C37.2199 53.8703 40.3913 62.3725 44.4869 71.1022C44.3938 71.2978 44.3011 71.4933 44.2089 71.6886C44.3011 71.884 44.3938 72.0794 44.4869 72.275C40.6017 80.5563 37.5482 88.6328 35.3739 96.1819C43.1161 98.3599 51.8595 100.028 61.2665 101.045C58.0154 96.4139 54.8543 91.4663 51.843 86.2505C49.1409 81.5703 46.686 76.8935 44.4869 72.275C44.5786 72.0796 44.6707 71.8842 44.7632 71.6886C47.0005 76.4151 49.5077 81.2056 52.276 86.0005C55.3583 91.3392 58.5978 96.3948 61.9291 101.116C67.4338 101.691 73.1617 102.044 79.0456 102.147C84.9546 102.25 90.7149 102.095 96.258 101.709C99.2829 97.3476 102.227 92.7115 105.039 87.8396C108.167 82.4217 110.962 77.0093 113.411 71.6886C110.962 66.368 108.167 60.9556 105.039 55.5376C102.341 50.8631 99.5212 46.4056 96.6252 42.1998ZM62.3201 41.7096C62.446 41.5325 62.5721 41.356 62.6982 41.1799C68.307 40.7844 74.137 40.626 80.1176 40.7304C85.6506 40.827 91.0468 41.1439 96.2512 41.6587C96.376 41.8386 96.5007 42.019 96.6252 42.1998C91.3047 41.6608 85.7793 41.3293 80.1089 41.2303C73.9949 41.1236 68.0399 41.2929 62.3201 41.7096ZM62.3201 41.7096C58.8513 46.5876 55.4788 51.8294 52.276 57.3767C49.5077 62.1716 47.0005 66.9621 44.7632 71.6886C44.6707 71.493 44.5786 71.2976 44.4869 71.1022C46.686 66.4837 49.1409 61.807 51.843 57.1267C54.9791 51.6949 58.2776 46.5538 61.6711 41.758C61.8871 41.7415 62.1035 41.7254 62.3201 41.7096ZM79.5 89.6065C70.2619 89.6065 62.7728 82.1175 62.7728 72.8793C62.7728 63.6412 70.2619 56.1522 79.5 56.1522C88.7382 56.1522 96.2272 63.6412 96.2272 72.8793C96.2272 82.1175 88.7382 89.6065 79.5 89.6065ZM95.7272 72.8793C95.7272 81.8414 88.4621 89.1065 79.5 89.1065C70.538 89.1065 63.2728 81.8414 63.2728 72.8793C63.2728 63.9173 70.538 56.6522 79.5 56.6522C88.4621 56.6522 95.7272 63.9173 95.7272 72.8793Z" fill="white"/>
</svg>
