<svg width="74" height="27" viewBox="0 0 74 27" fill="none" xmlns="http://www.w3.org/2000/svg">
<path d="M0.2692 27V21.8292H1.3852C2.2532 21.8292 2.9352 21.5564 3.4312 21.0108C3.952 20.4404 4.2124 19.6964 4.2124 18.7788C4.2124 18.0348 4.0388 17.1668 3.6916 16.1748H0.0832001V12.3804H2.3896C1.7944 10.694 1.4968 9.268 1.4968 8.1024C1.4968 5.8456 2.3648 4.0352 4.1008 2.6712C5.8616 1.2824 8.1432 0.587998 10.9456 0.587998C13.004 0.587998 14.8764 1.0344 16.5628 1.9272C18.2492 2.7952 19.4024 4.1716 20.0224 6.0564L14.926 8.4C14.3804 6.8872 13.2148 6.1308 11.4292 6.1308C10.214 6.1308 9.2716 6.4532 8.602 7.098C7.9572 7.718 7.6348 8.6108 7.6348 9.7764C7.6348 10.4708 7.8456 11.3388 8.2672 12.3804H16.1164V16.1748H9.718C9.9164 16.894 10.0156 17.6256 10.0156 18.3696C10.0156 19.7584 9.6808 20.9116 9.0112 21.8292H19.2412V27H0.2692ZM21.9577 27V23.5404L28.5793 16.8816C28.7777 16.6832 29.1001 16.3608 29.5465 15.9144C30.0177 15.4432 30.3525 15.1084 30.5509 14.91C30.7493 14.7116 31.0345 14.414 31.4065 14.0172C31.8033 13.6204 32.0885 13.3228 32.2621 13.1244C32.4357 12.9012 32.6589 12.616 32.9317 12.2688C33.2293 11.9216 33.4401 11.6364 33.5641 11.4132C33.6881 11.1652 33.8245 10.9048 33.9733 10.632C34.1221 10.3344 34.2213 10.0492 34.2709 9.7764C34.3453 9.5036 34.3825 9.2432 34.3825 8.9952C34.3825 8.152 34.0849 7.4328 33.4897 6.8376C32.8945 6.2176 32.0885 5.9076 31.0717 5.9076C30.1541 5.9076 29.3853 6.168 28.7653 6.6888C28.1453 7.1848 27.7609 7.9164 27.6121 8.8836L22.3669 7.3584C22.7637 5.1264 23.7929 3.44 25.4545 2.2992C27.1409 1.1584 29.1249 0.587998 31.4065 0.587998C34.0601 0.587998 36.2425 1.2948 37.9537 2.7084C39.6649 4.0972 40.5205 5.8704 40.5205 8.028C40.5205 8.9456 40.3469 9.8756 39.9997 10.818C39.6773 11.7356 39.1937 12.6408 38.5489 13.5336C37.9041 14.4016 37.3585 15.096 36.9121 15.6168C36.4657 16.1128 35.8705 16.7328 35.1265 17.4768L30.8113 21.8292H40.6321V27H21.9577ZM65.4622 0.959998H73.0138V27H66.913V12.3432L61.2586 27H56.0506L50.359 12.306V27H44.2582V0.959998H51.8098L58.6546 18.072L65.4622 0.959998Z" fill="#02021E"/>
</svg>
