<svg width="29" height="18" viewBox="0 0 29 18" fill="none" xmlns="http://www.w3.org/2000/svg">
<path d="M25.4125 3.10007H18.3866V1.36993H25.4131V3.10007H25.4125ZM13.7093 10.1948C14.1626 10.8909 14.3892 11.7362 14.3892 12.7285C14.3892 13.7547 14.1337 14.6753 13.6141 15.4884C13.2835 16.0265 12.8731 16.4811 12.3799 16.847C11.8245 17.2702 11.1669 17.5604 10.4109 17.7155C9.65254 17.8708 8.83171 17.9492 7.94752 17.9492H0.0899658V0.652344H8.51599C10.6399 0.686598 12.1456 1.29664 13.0347 2.49468C13.5683 3.22946 13.8326 4.11114 13.8326 5.13597C13.8326 6.19345 13.5651 7.03958 13.0263 7.68245C12.7267 8.04289 12.2839 8.37076 11.6979 8.6667C12.5856 8.98888 13.2591 9.49622 13.7093 10.1948ZM4.11372 7.47163H7.80566C8.56436 7.47163 9.17768 7.32867 9.65006 7.04287C10.1221 6.75753 10.3577 6.25032 10.3577 5.52207C10.3577 4.71749 10.0458 4.18346 9.42052 3.92643C8.88308 3.74785 8.19544 3.65588 7.36105 3.65588H4.11372V7.47163ZM10.7131 12.4814C10.7131 11.5829 10.3427 10.9618 9.60338 10.6285C9.18994 10.439 8.6066 10.3422 7.85866 10.3353H4.11372V14.9448H7.8007C8.55817 14.9448 9.14443 14.8465 9.56753 14.6415C10.3305 14.2644 10.7131 13.5468 10.7131 12.4814ZM28.0193 9.66749C28.1042 10.2334 28.1426 11.0544 28.127 12.1276H19.0277C19.0779 13.3728 19.5115 14.2435 20.3338 14.7418C20.8297 15.0543 21.431 15.2069 22.135 15.2069C22.8774 15.2069 23.4826 15.0208 23.9483 14.6384C24.2021 14.4356 24.426 14.1494 24.6196 13.7884H27.9548C27.8674 14.5238 27.4658 15.2697 26.7442 16.0276C25.6261 17.2324 24.0579 17.8365 22.044 17.8365C20.3803 17.8365 18.9141 17.327 17.6414 16.3118C16.373 15.2929 15.736 13.6406 15.736 11.3485C15.736 9.19912 16.3079 7.55397 17.4556 6.40886C18.6075 5.26161 20.0942 4.69061 21.9266 4.69061C23.0128 4.69061 23.9919 4.88308 24.8654 5.27001C25.7362 5.65734 26.4558 6.26693 27.0226 7.10472C27.5355 7.84254 27.8654 8.69565 28.0193 9.66749ZM24.7365 9.99025C24.6753 9.12925 24.3853 8.47759 23.8632 8.03223C23.3454 7.58564 22.6985 7.36143 21.9266 7.36143C21.0866 7.36143 20.4379 7.60108 19.977 8.0721C19.513 8.54216 19.2242 9.18122 19.1059 9.99032H24.7365V9.99025Z" fill="#80808F"/>
</svg>
