<svg width="127" height="17" viewBox="0 0 127 17" fill="none" xmlns="http://www.w3.org/2000/svg">
<path fill-rule="evenodd" clip-rule="evenodd" d="M93.4574 1.57011C91.3315 0.278339 88.6575 0.237677 86.2735 0.728736C84.068 1.21667 82.1047 2.6617 81.0529 4.62906C79.8768 6.81537 79.6251 9.3989 79.9629 11.8229C80.3071 14.1093 82.1334 16.0454 84.409 16.6147C87.5037 17.3622 91.1339 16.9149 93.5116 14.6817C95.6342 12.6674 96.3035 9.61785 96.1856 6.81537C96.2047 4.77919 95.2518 2.66795 93.4574 1.57011ZM85.5054 8.41053C85.7986 7.08435 86.1779 5.48294 87.542 4.83862C88.7467 4.23183 90.4328 4.85426 90.6463 6.24299C90.9427 7.96013 90.4933 9.76172 89.7762 11.3319C89.1388 12.7581 86.9524 13.3555 85.8496 12.1138C85.0937 11.0897 85.3016 9.7369 85.483 8.55649L85.5054 8.41053ZM104.01 0.484995C102.06 0.603851 99.9529 1.36703 98.9394 3.1092C97.7219 5.19543 97.9068 8.30444 100.026 9.76824C100.72 10.2984 101.541 10.563 102.362 10.8277C102.853 10.9862 103.345 11.1447 103.809 11.3603C104.565 11.7137 104.44 12.9461 103.628 13.1494C102.541 13.531 101.451 12.8804 100.9 11.9733C100.165 12.1757 99.4289 12.3701 98.6928 12.5645L98.6925 12.5646C97.8925 12.7759 97.0924 12.9873 96.2941 13.2088C96.7371 14.8822 98.1267 16.199 99.8446 16.5805C102.283 17.1529 104.995 17.0873 107.28 15.9988C110.416 14.5225 110.901 9.51177 107.956 7.6132C107.242 7.09531 106.411 6.8304 105.579 6.56536C105.014 6.38541 104.449 6.2054 103.921 5.9461C103 5.56139 103.452 4.17578 104.354 4.11322C105.196 3.88802 105.868 4.53234 106.375 5.09535C106.952 4.93872 107.529 4.78516 108.107 4.63156L108.107 4.63153L108.107 4.6315L108.108 4.63147L108.108 4.63144L108.108 4.63141L108.108 4.63132L108.108 4.63128C109.077 4.37392 110.045 4.11643 111.009 3.84423L110.986 3.78607C110.668 2.9925 110.328 2.1458 109.594 1.63289C108.02 0.438078 105.91 0.375523 104.01 0.484995ZM0 16.5932C0.937028 11.326 1.87406 6.06194 2.81427 0.797887C3.25715 0.797887 3.70023 0.797692 4.1434 0.797496H4.1435H4.14359H4.14369H4.14378H4.14388C5.47381 0.796909 6.80463 0.796322 8.13366 0.801013C8.00102 1.52972 7.86645 2.2589 7.73182 2.98837C7.52032 4.1344 7.30869 5.28115 7.1042 6.42789H11.5344C11.6305 5.90453 11.7279 5.38142 11.8253 4.85834L11.8254 4.85791L11.8254 4.8577C12.0766 3.50847 12.3278 2.15949 12.5575 0.80727C14.3359 0.791631 16.1143 0.794761 17.8896 0.804144L17.7354 1.67267L17.7354 1.67286L17.7354 1.67295L17.7351 1.67459C16.8527 6.6457 15.9699 11.6194 15.0785 16.5932L14.0148 16.5934H14.0136H14.0134H14.0131H14.0129H14.0127C12.5968 16.5939 11.1822 16.5944 9.76549 16.5869C10.1065 14.6321 10.4539 12.6803 10.8077 10.7286C10.4384 10.7286 10.0692 10.7284 9.69991 10.7282H9.69976H9.69961H9.69946H9.69932H9.69917C8.58966 10.7276 7.47971 10.727 6.36797 10.7317C6.19485 11.6883 6.02479 12.6449 5.8548 13.6011L5.85477 13.6012C5.67737 14.5991 5.50004 15.5965 5.31939 16.5932H0ZM22.2924 0.719893C21.7854 0.720405 21.2782 0.720916 20.7708 0.720916C20.535 2.03179 20.2959 3.3421 20.0567 4.65256L20.0565 4.65343C19.733 6.42569 19.4094 8.19824 19.0943 9.97286C18.8234 11.6118 18.8999 13.4603 19.9644 14.8334C21.1245 16.3129 23.1229 16.8227 24.9428 16.904C27.0463 16.9603 29.3219 16.879 31.1482 15.7248C32.8183 14.6676 33.5513 12.7128 33.8955 10.8768C34.2031 9.18466 34.5035 7.49176 34.8039 5.79885V5.79882L34.8039 5.7987L34.8039 5.79858L34.804 5.79845C35.1043 4.10568 35.4047 2.41291 35.7122 0.720916C35.0477 0.719743 34.3832 0.719889 33.7187 0.720036C32.6111 0.72028 31.5036 0.720524 30.396 0.714659C30.123 2.06052 29.8897 3.41484 29.6564 4.76905L29.6564 4.76912L29.6564 4.76919L29.6564 4.76925L29.6564 4.76931C29.2879 6.9084 28.9195 9.04722 28.3945 11.152C28.1427 12.6878 26.1252 13.4822 24.8822 12.5095C24.1376 11.8198 24.2908 10.7144 24.4179 9.79779C24.4263 9.73746 24.4345 9.67795 24.4424 9.61943C24.8462 7.39647 25.2608 5.1735 25.6753 2.95053L25.6755 2.94966L25.6757 2.94869L25.6757 2.94845L25.6758 2.9482C25.814 2.20681 25.9523 1.46543 26.0902 0.724042C24.8246 0.717341 23.5591 0.718617 22.2925 0.719893H22.2924ZM35.7761 16.5935C36.2125 14.1586 36.6447 11.7231 37.077 9.28745L37.078 9.28187L37.0782 9.28113C37.5801 6.45328 38.082 3.62536 38.5903 0.798338H50.045C49.7964 2.23398 49.5383 3.66963 49.2801 5.10527C48.3109 5.09934 47.3417 5.09973 46.3724 5.10012C45.2955 5.10056 44.2186 5.10099 43.1416 5.09276C42.9759 6.03109 42.8165 6.97254 42.6604 7.914C42.9851 7.914 43.31 7.91369 43.635 7.91338H43.6354H43.6357H43.6359C44.7747 7.9123 45.9151 7.91122 47.0555 7.92338L47.0554 7.92393L47.0552 7.92482L47.055 7.9257L47.0549 7.92658C46.8097 9.27671 46.5644 10.6268 46.3224 11.977C44.8595 11.9801 43.3966 11.9801 41.9305 11.9801C41.8183 12.5957 41.7081 13.2113 41.598 13.8268C41.4328 14.7501 41.2676 15.6734 41.0955 16.5967C39.3234 16.5935 37.5481 16.5935 35.7761 16.5935ZM55.1726 0.797936C54.2176 0.798132 53.2626 0.798328 52.3079 0.798328C51.3613 6.06236 50.4275 11.3295 49.4968 16.5967C51.2657 16.5935 53.0346 16.5935 54.8035 16.5935C55.0871 15.0609 55.3549 13.5252 55.6162 11.9863C56.7964 11.9788 57.9746 11.9793 59.1539 11.9798H59.1542L60.04 11.9801C60.1456 11.3816 60.2531 10.7838 60.3606 10.1862L60.3611 10.1831L60.3613 10.1821C60.4968 9.4288 60.6321 8.67609 60.7635 7.92338C59.7417 7.91243 58.7184 7.91221 57.6946 7.91199C57.2558 7.9119 56.8169 7.91181 56.3779 7.91087C56.5341 6.96941 56.6935 6.03108 56.8528 5.09275C58.0483 5.10005 59.2426 5.0999 60.4372 5.09974C61.2904 5.09963 62.1438 5.09953 62.9977 5.10213C63.152 4.22214 63.31 3.34332 63.4678 2.46496L63.4681 2.46343L63.4684 2.4619L63.469 2.4586C63.5682 1.9061 63.6675 1.35378 63.7658 0.801454C60.9023 0.796762 58.037 0.797349 55.1726 0.797936H55.1726ZM66.0287 0.801416C68.3744 0.798289 70.7202 0.795164 73.0659 0.795164C74.8284 0.804548 76.779 1.26746 77.8977 2.71249C78.9622 4.02616 78.924 5.83089 78.6849 7.40416C78.414 9.14634 77.4196 10.8322 75.7973 11.6642C74.142 12.597 72.2249 12.5618 70.3647 12.5276C70.0043 12.521 69.6461 12.5144 69.2923 12.515C69.2401 12.8003 69.1875 13.0856 69.135 13.3707C68.9376 14.442 68.7405 15.5121 68.5593 16.5842C66.784 16.5998 65.0056 16.5967 63.2303 16.5873C63.6228 14.3599 64.0198 12.1336 64.4168 9.90754L64.4187 9.89679C64.9593 6.86548 65.4998 3.83448 66.0287 0.801416ZM70.6596 4.92383C70.5439 5.55554 70.4249 6.18643 70.3059 6.81691L70.3059 6.81706C70.1922 7.41962 70.0786 8.02181 69.968 8.624C70.1532 8.62018 70.3405 8.62155 70.5285 8.62293C71.2631 8.62831 72.0098 8.63379 72.6898 8.32999C73.7799 7.8358 74.1081 6.22812 73.305 5.35547C72.7287 4.94612 72.0138 4.94311 71.319 4.94018C71.0954 4.93924 70.8738 4.9383 70.6596 4.92383ZM118.32 0.79816C116.524 0.798911 114.727 0.799661 112.931 0.79841C112.871 1.13123 112.811 1.46422 112.75 1.79734C112.551 2.89491 112.351 3.99389 112.163 5.09287C113.553 5.10225 114.945 5.10225 116.335 5.096L116.104 6.4065C115.505 9.80065 114.907 13.1932 114.311 16.5906C115.643 16.5953 116.972 16.5947 118.303 16.5942C118.747 16.594 119.19 16.5938 119.634 16.5938C119.89 15.1673 120.145 13.7405 120.4 12.3137C120.83 9.9079 121.26 7.50228 121.696 5.09912C121.957 5.09912 122.218 5.099 122.48 5.09888C123.526 5.09837 124.574 5.09787 125.619 5.10538C125.753 4.38912 125.883 3.67129 126.013 2.95346C126.143 2.23563 126.273 1.5178 126.406 0.801536C123.71 0.795906 121.015 0.797033 118.32 0.79816Z" fill="#80808F"/>
</svg>
