<svg width="80" height="78" viewBox="0 0 80 78" fill="none" xmlns="http://www.w3.org/2000/svg">
<path fill-rule="evenodd" clip-rule="evenodd" d="M18.9473 74.736C18.9473 72.992 20.3611 71.5781 22.1052 71.5781H57.8946C59.6387 71.5781 61.0525 72.992 61.0525 74.736C61.0525 76.4801 59.6387 77.8939 57.8946 77.8939H22.1052C20.3611 77.8939 18.9473 76.4801 18.9473 74.736Z" fill="white"/>
<path fill-rule="evenodd" clip-rule="evenodd" d="M14.7368 0C6.59791 0 0 6.59791 0 14.7368V50.7369C0 58.8758 6.59791 65.4737 14.7368 65.4737H65.2632C73.4021 65.4737 80 58.8758 80 50.7369V14.7368C80 6.59791 73.4021 0 65.2632 0H14.7368ZM29.4746 43.7888C29.4746 42.0447 30.8884 40.6309 32.6325 40.6309H47.3694C49.1134 40.6309 50.5272 42.0447 50.5272 43.7888C50.5272 45.5328 49.1134 46.9466 47.3694 46.9466H32.6325C30.8884 46.9466 29.4746 45.5328 29.4746 43.7888ZM24.2106 28.209C22.4666 28.209 21.0527 29.6228 21.0527 31.3669C21.0527 33.1109 22.4666 34.5248 24.2106 34.5248H55.7896C57.5336 34.5248 58.9475 33.1109 58.9475 31.3669C58.9475 29.6228 57.5336 28.209 55.7896 28.209H24.2106Z" fill="white"/>
</svg>
