<svg width="116" height="116" viewBox="0 0 116 116" fill="none" xmlns="http://www.w3.org/2000/svg">
<path d="M0 0H116V116H0V0Z" fill="#F7DF1E"/>
<path d="M30.5009 96.938L39.3777 91.5657C41.0905 94.6021 42.6483 97.1713 46.3852 97.1713C49.9672 97.1713 52.226 95.7703 52.226 90.3201V53.2553H63.1268V90.4741C63.1268 101.765 56.5085 106.904 46.8524 106.904C38.132 106.904 33.0702 102.388 30.5005 96.937L30.5009 96.938ZM69.0478 95.7698L77.9236 90.6309C80.2604 94.4467 83.2972 97.2497 88.6695 97.2497C93.1867 97.2497 96.0668 94.9913 96.0668 91.8765C96.0668 88.1392 93.1079 86.8151 88.1244 84.6356L85.3997 83.4665C77.5349 80.1193 72.318 75.9143 72.318 67.0376C72.318 58.8614 78.5471 52.6318 88.2807 52.6318C95.2108 52.6318 100.194 55.0461 103.776 61.3531L95.2878 66.8042C93.4187 63.4561 91.395 62.1325 88.2803 62.1325C85.0875 62.1325 83.063 64.1571 83.063 66.8042C83.063 70.0744 85.0875 71.3989 89.7593 73.4235L92.4843 74.5912C101.751 78.5628 106.968 82.6115 106.968 91.7211C106.968 101.533 99.259 106.905 88.9029 106.905C78.7805 106.905 72.2396 102.078 69.0474 95.7703" fill="black"/>
</svg>
