<svg width="42" height="40" viewBox="0 0 42 40" fill="none" xmlns="http://www.w3.org/2000/svg">
<path d="M21.0003 23.3903C23.0613 23.3903 24.7321 21.7195 24.7321 19.6585C24.7321 17.5975 23.0613 15.9268 21.0003 15.9268C18.9393 15.9268 17.2686 17.5975 17.2686 19.6585C17.2686 21.7195 18.9393 23.3903 21.0003 23.3903Z" fill="#00D8FF"/>
<path d="M21.0006 12.0713C26.01 12.0713 30.6643 12.7903 34.1728 13.9976C38.4003 15.4528 41 17.6591 41 19.6569C41 21.7386 38.245 24.083 33.7054 25.5863C30.2733 26.7234 25.756 27.3178 21.0006 27.3178C16.1244 27.3178 11.5084 26.7604 8.03684 25.574C3.64529 24.0731 1 21.6992 1 19.6569C1 17.6751 3.4825 15.4861 7.65084 14.0334C11.173 12.8063 15.9419 12.0713 21.0006 12.0713V12.0713Z" stroke="#00D8FF" stroke-miterlimit="10"/>
<path d="M14.3969 15.8871C16.8992 11.5474 19.8478 7.8748 22.6473 5.43916C26.0202 2.50406 29.2303 1.35468 30.9605 2.35237C32.7635 3.39199 33.4184 6.94987 32.4527 11.6349C31.7227 15.1768 29.9813 19.3858 27.6049 23.5061C25.1692 27.7299 22.3797 31.4506 19.6184 33.8652C16.1247 36.92 12.7456 38.0249 10.9772 37.0051C9.2605 36.0148 8.60442 32.7714 9.42699 28.4341C10.1225 24.7664 11.8688 20.2688 14.3969 15.8871V15.8871Z" stroke="#00D8FF" stroke-miterlimit="10"/>
<path d="M14.4029 23.5148C11.8933 19.1788 10.184 14.7909 9.4712 11.1492C8.61287 6.76132 9.21962 3.40569 10.9486 2.40553C12.7504 1.36222 16.159 2.57202 19.7354 5.7476C22.4399 8.14871 25.2159 11.7596 27.5985 15.8762C30.0416 20.0963 31.8729 24.3707 32.5845 27.968C33.486 32.5211 32.7559 36.0001 30.9887 37.0225C29.2733 38.0152 26.1359 36.9645 22.7889 34.0849C19.9623 31.6517 16.9372 27.8928 14.4029 23.5148V23.5148Z" stroke="#00D8FF" stroke-miterlimit="10"/>
</svg>
