<?xml version="1.0" encoding="UTF-8" standalone="no"?>
<svg
   xmlns:dc="http://purl.org/dc/elements/1.1/"
   xmlns:cc="http://creativecommons.org/ns#"
   xmlns:rdf="http://www.w3.org/1999/02/22-rdf-syntax-ns#"
   xmlns:svg="http://www.w3.org/2000/svg"
   xmlns="http://www.w3.org/2000/svg"
   xmlns:sodipodi="http://sodipodi.sourceforge.net/DTD/sodipodi-0.dtd"
   xmlns:inkscape="http://www.inkscape.org/namespaces/inkscape"
   width="432.071pt"
   height="445.383pt"
   viewBox="0 0 432.071 445.383"
   xml:space="preserve"
   id="svg2458"
   sodipodi:version="0.32"
   inkscape:version="0.46"
   sodipodi:docname="Postgresql_elephant.bleu_royal.svg"
   inkscape:output_extension="org.inkscape.output.svg.inkscape"><metadata
   id="metadata2489"><rdf:RDF><cc:Work
       rdf:about=""><dc:format>image/svg+xml</dc:format><dc:type
         rdf:resource="http://purl.org/dc/dcmitype/StillImage" /></cc:Work></rdf:RDF></metadata><defs
   id="defs2487"><inkscape:perspective
   sodipodi:type="inkscape:persp3d"
   inkscape:vp_x="0 : 278.36438 : 1"
   inkscape:vp_y="0 : 1000 : 0"
   inkscape:vp_z="540.08875 : 278.36438 : 1"
   inkscape:persp3d-origin="270.04437 : 185.57625 : 1"
   id="perspective2491" />












</defs><sodipodi:namedview
   inkscape:window-height="717"
   inkscape:window-width="939"
   inkscape:pageshadow="2"
   inkscape:pageopacity="0"
   guidetolerance="10.0"
   gridtolerance="10.0"
   objecttolerance="10.0"
   borderopacity="1.0"
   bordercolor="#666666"
   pagecolor="#ff0000"
   id="base"
   showgrid="false"
   inkscape:zoom="0.88373376"
   inkscape:cx="250.24203"
   inkscape:cy="275.64885"
   inkscape:window-x="0"
   inkscape:window-y="120"
   inkscape:current-layer="svg2458" />
<g
   id="orginal"
   style="fill-rule: nonzero; clip-rule: nonzero; stroke: rgb(0, 0, 0); stroke-miterlimit: 4;">
	</g>
<g
   id="g3275"><path
     style="fill:none;fill-rule:nonzero;stroke:#4169e1;stroke-width:12.46510029000000053;stroke-linecap:round;stroke-linejoin:round;stroke-miterlimit:4;fill-opacity:0;stroke-opacity:1"
     d="M 402.395,271.23 C 352.093,281.606 348.635,264.575 348.635,264.575 C 401.746,185.767 423.948,85.732 404.788,61.249 C 352.518,-5.536 262.036,26.049 260.526,26.869 L 260.04,26.956 C 250.102,24.893 238.98,23.664 226.48,23.46 C 203.719,23.087 186.454,29.427 173.353,39.362 C 173.353,39.362 11.942,-27.133 19.449,122.992 C 21.046,154.93 65.225,364.649 117.92,301.304 C 137.18,278.141 155.789,258.556 155.789,258.556 C 165.032,264.696 176.097,267.828 187.697,266.703 L 188.598,265.938 C 188.318,268.814 188.446,271.627 188.959,274.957 C 175.384,290.124 179.373,292.787 152.236,298.373 C 124.777,304.032 140.908,314.107 151.44,316.74 C 164.208,319.933 193.747,324.456 213.706,296.516 L 212.91,299.704 C 218.229,303.964 221.964,327.415 221.338,348.673 C 220.712,369.932 220.294,384.527 224.485,395.927 C 228.676,407.327 232.853,432.977 268.527,425.333 C 298.336,418.945 313.783,402.391 315.932,374.778 C 317.457,355.147 320.908,358.049 321.126,340.498 L 323.894,332.189 C 327.086,305.578 324.401,296.993 342.766,300.986 L 347.229,301.378 C 360.746,301.993 378.437,299.204 388.82,294.378 C 411.178,284.002 424.438,266.678 402.393,271.23 L 402.395,271.23 z"
     id="path2464" /><path
     d="M 215.866,286.484 C 214.481,336 216.214,385.861 221.059,397.979 C 225.907,410.097 236.282,433.667 271.959,426.024 C 301.765,419.634 312.61,407.268 317.316,379.973 C 320.782,359.891 327.464,304.119 328.321,292.692"
     id="path2466"
     style="fill-rule:nonzero;stroke:#4169e1;stroke-width:12.46510029000000053;stroke-linecap:round;stroke-linejoin:round;stroke-miterlimit:4;stroke-opacity:1;fill:none" /><path
     d="M 173.104,38.256 C 173.104,38.256 11.583,-27.76 19.092,122.365 C 20.689,154.303 64.871,364.029 117.565,300.681 C 136.821,277.515 154.236,259.346 154.236,259.346"
     id="path2468"
     style="fill-rule:nonzero;stroke:#4169e1;stroke-width:12.46510029000000053;stroke-linecap:round;stroke-linejoin:round;stroke-miterlimit:4;stroke-opacity:1;fill:none" /><path
     d="M 260.349,26.207 C 254.758,27.96 350.197,-8.682 404.436,60.624 C 423.595,85.108 401.393,185.143 348.283,263.953"
     id="path2470"
     style="fill-rule:nonzero;stroke:#4169e1;stroke-width:12.46510029000000053;stroke-linecap:round;stroke-linejoin:round;stroke-miterlimit:4;stroke-opacity:1;fill:none" /><path
     style="fill-rule:nonzero;stroke:#4169e1;stroke-width:12.46510029000000053;stroke-linecap:round;stroke-linejoin:bevel;stroke-miterlimit:4;stroke-opacity:1;fill:none"
     d="M 348.282,263.953 C 348.282,263.953 351.743,280.989 402.046,270.606 C 424.086,266.054 410.822,283.38 388.469,293.761 C 370.124,302.275 328.995,304.457 328.323,292.692 C 326.594,262.337 349.97,271.559 348.283,263.953 C 346.758,257.103 336.304,250.38 329.389,233.615 C 323.352,218.982 246.593,106.766 350.676,123.432 C 354.489,122.643 323.53,24.43 226.123,22.833 C 128.738,21.236 131.933,142.595 131.933,142.595"
     id="path2472" /><path
     d="M 188.604,274.334 C 175.027,289.5 179.02,292.163 151.881,297.751 C 124.422,303.411 140.555,313.484 151.084,316.116 C 163.852,319.311 193.391,323.834 213.35,295.887 C 219.428,287.378 213.314,273.801 204.965,270.34 C 200.931,268.669 195.537,266.575 188.604,274.334 L 188.604,274.334 z"
     id="path2474"
     style="fill-rule:nonzero;stroke:#4169e1;stroke-width:12.46510029000000053;stroke-linecap:round;stroke-linejoin:round;stroke-miterlimit:4;stroke-opacity:1;fill:none" /><path
     d="M 187.715,274.069 C 186.347,265.152 190.645,254.541 195.251,242.127 C 202.173,223.501 218.144,204.872 205.368,145.788 C 195.845,101.759 131.972,136.625 131.932,142.595 C 131.893,148.563 134.821,172.855 130.865,201.143 C 125.703,238.056 154.353,269.275 187.344,266.081"
     id="path2476"
     style="fill-rule:nonzero;stroke:#4169e1;stroke-width:12.46510029000000053;stroke-linecap:round;stroke-linejoin:round;stroke-miterlimit:4;stroke-opacity:1;fill:none" /><path
     style="fill:#4169e1;fill-rule:nonzero;stroke:#4169e1;stroke-width:4.15500020999999986;stroke-linecap:butt;stroke-linejoin:miter;stroke-miterlimit:4;stroke-opacity:1;fill-opacity:1"
     d="M 172.517,141.7 C 172.229,143.739 176.25,149.18 181.493,149.907 C 186.727,150.637 191.207,146.385 191.491,144.348 C 191.775,142.309 187.759,140.063 182.514,139.333 C 177.277,138.602 172.795,139.666 172.518,141.7 L 172.517,141.7 z"
     id="path2478" /><path
     style="fill:#4169e1;fill-rule:nonzero;stroke:#4169e1;stroke-width:2.07750009999999996;stroke-linecap:butt;stroke-linejoin:miter;stroke-miterlimit:4;stroke-opacity:1;fill-opacity:1"
     d="M 331.941,137.543 C 332.225,139.582 328.209,145.023 322.965,145.75 C 317.727,146.48 313.247,142.228 312.96,140.191 C 312.683,138.152 316.7,135.906 321.939,135.176 C 327.178,134.446 331.657,135.509 331.941,137.544 L 331.941,137.543 z"
     id="path2480" /><path
     d="M 350.676,123.432 C 351.539,139.426 347.231,150.32 346.688,167.346 C 345.884,192.094 358.487,220.42 339.497,248.781"
     id="path2482"
     style="fill-rule:nonzero;stroke:#4169e1;stroke-width:12.46510029000000053;stroke-linecap:round;stroke-linejoin:round;stroke-miterlimit:4;stroke-opacity:1;fill:none" /></g><path
   id="path2484"
   style="fill-rule:nonzero;stroke:#ffffff;stroke-width:3;stroke-linecap:round;stroke-linejoin:round;stroke-miterlimit:4"
   d="" />
</svg>