<svg xmlns="http://www.w3.org/2000/svg" width="1824.16" height="1129.809" viewBox="0 0 1824.16 1129.809">
  <defs>
    <style>
      .cls-1 {
        fill: #fff;
        fill-rule: evenodd;
      }
    </style>
  </defs>
  <path id="small_stars" data-name="small stars" class="cls-1" d="M578.153,542.834a0.723,0.723,0,1,1-.71.722A0.716,0.716,0,0,1,578.153,542.834Zm256.909,84.041a1.25,1.25,0,1,1-1.281,1.25A1.267,1.267,0,0,1,835.062,626.875ZM400.641,672.7a0.733,0.733,0,1,1-.746.732A0.739,0.739,0,0,1,400.641,672.7Zm372.7,410.864a0.735,0.735,0,1,1-.75.74A0.744,0.744,0,0,1,773.344,1083.56ZM364.391,157.594a0.719,0.719,0,1,1-.735.718A0.727,0.727,0,0,1,364.391,157.594ZM72.927,158.865a1.425,1.425,0,1,1-1.468,1.425A1.447,1.447,0,0,1,72.927,158.865ZM1651.48,170.25a0.609,0.609,0,0,1-.1-0.942,0.881,0.881,0,0,1,1.08-.242,0.6,0.6,0,0,1,.1.942A0.881,0.881,0,0,1,1651.48,170.25ZM630.817,235.461a0.619,0.619,0,0,1-.115-0.962,0.9,0.9,0,0,1,1.108-.239,0.619,0.619,0,0,1,.115.962A0.9,0.9,0,0,1,630.817,235.461ZM553.762,349.289a0.6,0.6,0,0,1-.109-0.934,0.877,0.877,0,0,1,1.074-.234,0.6,0.6,0,0,1,.109.934A0.876,0.876,0,0,1,553.762,349.289Zm184.512,50.57a1.208,1.208,0,0,1-.238-1.879,1.763,1.763,0,0,1,2.168-.456,1.207,1.207,0,0,1,.238,1.878A1.764,1.764,0,0,1,738.274,399.859Zm-1.9-318.935a0.608,0.608,0,0,1-.129-0.945,0.888,0.888,0,0,1,1.094-.222,0.609,0.609,0,0,1,.129.945A0.888,0.888,0,0,1,736.374,80.924ZM1106.54,350.513a0.6,0.6,0,0,0,.1-0.942,0.882,0.882,0,0,0-1.08-.243,0.609,0.609,0,0,0-.1.942A0.884,0.884,0,0,0,1106.54,350.513Zm-951.2,31.664a1.218,1.218,0,0,0,.224-1.9,1.778,1.778,0,0,0-2.182-.473,1.218,1.218,0,0,0-.224,1.895A1.778,1.778,0,0,0,155.344,382.177ZM81.64,586.734a0.609,0.609,0,0,0,.112-0.948,0.89,0.89,0,0,0-1.091-.237,0.609,0.609,0,0,0-.112.948A0.89,0.89,0,0,0,81.64,586.734ZM70.3,445.161a0.618,0.618,0,0,0,.115-0.962,0.9,0.9,0,0,0-1.108-.239,0.618,0.618,0,0,0-.115.962A0.9,0.9,0,0,0,70.3,445.161ZM761.549,781.608a0.6,0.6,0,0,0,.109-0.934,0.876,0.876,0,0,0-1.074-.234,0.6,0.6,0,0,0-.109.934A0.877,0.877,0,0,0,761.549,781.608ZM291.812,474a0.6,0.6,0,0,0,.119-0.939,0.882,0.882,0,0,0-1.084-.229,0.605,0.605,0,0,0-.119.94A0.883,0.883,0,0,0,291.812,474ZM197.231,672.584a1.208,1.208,0,0,0,.221-1.881,1.765,1.765,0,0,0-2.164-.471,1.21,1.21,0,0,0-.222,1.882A1.765,1.765,0,0,0,197.231,672.584ZM343.544,538.172a0.605,0.605,0,0,0,.119-0.94,0.882,0.882,0,0,0-1.084-.228,0.6,0.6,0,0,0-.119.939A0.882,0.882,0,0,0,343.544,538.172ZM531.535,872.61a0.6,0.6,0,0,0,.1-0.928,0.869,0.869,0,0,0-1.064-.24,0.6,0.6,0,0,0-.1.928A0.872,0.872,0,0,0,531.535,872.61ZM185.286,827.151a0.6,0.6,0,0,0,.092-0.936,0.877,0.877,0,0,0-1.071-.248,0.6,0.6,0,0,0-.092.936A0.877,0.877,0,0,0,185.286,827.151Zm181.351,11.908a0.6,0.6,0,0,0,.109-0.933,0.875,0.875,0,0,0-1.074-.234,0.6,0.6,0,0,0-.109.933A0.874,0.874,0,0,0,366.637,839.059ZM294.125,951.63a1.208,1.208,0,0,0,.238-1.879,1.765,1.765,0,0,0-2.168-.457,1.208,1.208,0,0,0-.238,1.879A1.765,1.765,0,0,0,294.125,951.63ZM1083.78,705.385a1.318,1.318,0,0,0-1.06-1.668,1.712,1.712,0,0,0-2.1.626,1.3,1.3,0,0,0,1.05,1.668A1.729,1.729,0,0,0,1083.78,705.385Zm111.46-105.872a1.475,1.475,0,0,0-1.17-1.882,1.935,1.935,0,0,0-2.37.715,1.476,1.476,0,0,0,1.17,1.883A1.936,1.936,0,0,0,1195.24,599.513ZM972.817,106.65a1.362,1.362,0,0,0,.262-2.117,1.987,1.987,0,0,0-2.44-.519,1.36,1.36,0,0,0-.262,2.116A1.986,1.986,0,0,0,972.817,106.65Zm59.553,115.017a0.889,0.889,0,0,1-.86-0.7,0.614,0.614,0,0,1,.67-0.681,0.87,0.87,0,0,1,.85.7A0.6,0.6,0,0,1,1032.37,221.667Zm297.26,469a0.723,0.723,0,0,1,0,1.445A0.723,0.723,0,0,1,1329.63,690.666Zm279.29,132.06a0.712,0.712,0,1,1-.72.712A0.723,0.723,0,0,1,1608.92,822.726ZM1720.54,788.7a1.262,1.262,0,1,1-1.27,1.262A1.269,1.269,0,0,1,1720.54,788.7Zm-568.42,31.83a0.733,0.733,0,1,1,0,1.465A0.733,0.733,0,1,1,1152.12,820.528Zm271.32-47.174a1.425,1.425,0,1,1-1.47,1.424A1.44,1.44,0,0,1,1423.44,773.354ZM786.09,483.123a1.435,1.435,0,1,1-1.456,1.435A1.445,1.445,0,0,1,786.09,483.123ZM322.078,314.906a1.453,1.453,0,1,1-1.453,1.453A1.453,1.453,0,0,1,322.078,314.906Zm502.33-8.209a1.425,1.425,0,1,1-1.468,1.425A1.447,1.447,0,0,1,824.408,306.7Zm482.552-50.615a0.609,0.609,0,0,1-.1-0.942,0.884,0.884,0,0,1,1.08-.242,0.6,0.6,0,0,1,.1.942A0.88,0.88,0,0,1,1306.96,256.082ZM1579.83,317.7a1.215,1.215,0,0,1-.23-1.895,1.777,1.777,0,0,1,2.18-.473,1.215,1.215,0,0,1,.23,1.895A1.777,1.777,0,0,1,1579.83,317.7Zm-101.41,68.329a1.36,1.36,0,0,1-.27-2.116,1.99,1.99,0,0,1,2.44-.52,1.361,1.361,0,0,1,.27,2.117A1.988,1.988,0,0,1,1478.42,386.033Zm213.94,146.1a0.6,0.6,0,0,1-.11-0.933,0.873,0.873,0,0,1,1.07-.235,0.6,0.6,0,0,1,.11.934A0.87,0.87,0,0,1,1692.36,532.135Zm-387.12-35.014a0.609,0.609,0,0,1-.11-0.934,0.885,0.885,0,0,1,1.08-.234,0.609,0.609,0,0,1,.11.934A0.885,0.885,0,0,1,1305.24,497.121Zm184.77,145.2a0.883,0.883,0,0,0,.87-0.7,0.617,0.617,0,0,0-.68-0.681,0.9,0.9,0,0,0-.87.7A0.617,0.617,0,0,0,1490.01,642.322ZM1236.05,416.049a1.067,1.067,0,0,1-.19-1.652,1.55,1.55,0,0,1,1.9-.417,1.061,1.061,0,0,1,.19,1.652A1.548,1.548,0,0,1,1236.05,416.049Zm253.7,131.642a1.206,1.206,0,0,1-.23-1.879,1.753,1.753,0,0,1,2.16-.456,1.2,1.2,0,0,1,.24,1.879A1.764,1.764,0,0,1,1489.75,547.691Zm-1.9-318.935a0.609,0.609,0,0,1-.12-0.945,0.881,0.881,0,0,1,1.09-.222,0.61,0.61,0,0,1,.13.945A0.9,0.9,0,0,1,1487.85,228.756ZM518.427,733.346a1.209,1.209,0,0,0,.222-1.881,1.765,1.765,0,0,0-2.165-.471,1.209,1.209,0,0,0-.222,1.881A1.764,1.764,0,0,0,518.427,733.346Zm1339.593-235a0.6,0.6,0,0,0,.11-0.942,0.9,0.9,0,0,0-1.09-.243,0.61,0.61,0,0,0-.1.942A0.884,0.884,0,0,0,1858.02,498.345Zm-922.2,59.665a1.219,1.219,0,0,0,.225-1.9,1.779,1.779,0,0,0-2.182-.473,1.218,1.218,0,0,0-.224,1.895A1.778,1.778,0,0,0,935.824,558.01Zm-102.7,176.556a0.61,0.61,0,0,0,.112-0.948,0.888,0.888,0,0,0-1.091-.236,0.609,0.609,0,0,0-.112.947A0.89,0.89,0,0,0,833.121,734.566ZM91.778,1085.99a0.616,0.616,0,0,0,.115-0.96,0.9,0.9,0,0,0-1.108-.24,0.616,0.616,0,0,0-.115.96A0.892,0.892,0,0,0,91.778,1085.99Zm95.94,15.85a0.608,0.608,0,0,0,.11-0.94,0.869,0.869,0,0,0-1.074-.23,0.6,0.6,0,0,0-.11.93A0.886,0.886,0,0,0,187.718,1101.84ZM402.946,932.38a0.619,0.619,0,0,0,.115-0.962,0.9,0.9,0,0,0-1.108-.239,0.618,0.618,0,0,0-.115.962A0.9,0.9,0,0,0,402.946,932.38Zm874.074,28.062a0.6,0.6,0,0,0,.1-0.928,0.878,0.878,0,0,0-1.07-.24,0.6,0.6,0,0,0-.1.928A0.877,0.877,0,0,0,1277.02,960.442ZM1059.11,533.08a1.22,1.22,0,0,0,.22-1.9,1.775,1.775,0,0,0-2.18-.474,1.221,1.221,0,0,0-.22,1.9A1.774,1.774,0,0,0,1059.11,533.08ZM1185.2,544.8a0.612,0.612,0,0,0,.11-0.961,0.894,0.894,0,0,0-1.1-.24,0.62,0.62,0,0,0-.12.962A0.906,0.906,0,0,0,1185.2,544.8ZM762.766,1006.98a0.6,0.6,0,0,0,.093-0.93,0.874,0.874,0,0,0-1.071-.25,0.605,0.605,0,0,0-.093.94A0.884,0.884,0,0,0,762.766,1006.98ZM1835.26,853.217a1.318,1.318,0,0,0-1.05-1.668,1.721,1.721,0,0,0-2.11.626,1.312,1.312,0,0,0,1.05,1.669A1.726,1.726,0,0,0,1835.26,853.217ZM1724.3,254.482a1.366,1.366,0,0,0,.26-2.117,1.986,1.986,0,0,0-2.44-.519,1.359,1.359,0,0,0-.26,2.117A1.986,1.986,0,0,0,1724.3,254.482Zm168.85,306.971a0.606,0.606,0,0,0-.12.948m-133.1-118.257a1.206,1.206,0,0,0,.23-1.879,1.753,1.753,0,0,0-2.16-.457,1.207,1.207,0,0,0-.24,1.879A1.766,1.766,0,0,0,1759.93,444.144ZM1180.23,45.41a0.716,0.716,0,0,1-.23-0.991,0.746,0.746,0,0,1,1.01-.237,0.7,0.7,0,0,1,.22.991A0.732,0.732,0,0,1,1180.23,45.41ZM1407.17,107.5a1.262,1.262,0,1,1-1.27,1.262A1.269,1.269,0,0,1,1407.17,107.5ZM1061.06,65.156a1.423,1.423,0,1,1-1.47,1.422A1.448,1.448,0,0,1,1061.06,65.156ZM198.345,60.635a0.6,0.6,0,0,0,.109-0.934,0.876,0.876,0,0,0-1.074-.234,0.6,0.6,0,0,0-.109.934A0.876,0.876,0,0,0,198.345,60.635Zm188.7-37.3a1.213,1.213,0,0,0,.231-1.887,1.771,1.771,0,0,0-2.175-.465,1.213,1.213,0,0,0-.231,1.887A1.771,1.771,0,0,0,387.04,23.334Zm198.42,2.287a0.6,0.6,0,0,0,.109-0.933,0.876,0.876,0,0,0-1.074-.234,0.6,0.6,0,0,0-.109.934A0.875,0.875,0,0,0,585.46,25.621ZM209.572,245.18a0.618,0.618,0,0,0,.115-0.962,0.9,0.9,0,0,0-1.107-.239,0.618,0.618,0,0,0-.116.962A0.9,0.9,0,0,0,209.572,245.18ZM550.338,144.216a1.209,1.209,0,0,0,.221-1.881,1.764,1.764,0,0,0-2.164-.471,1.21,1.21,0,0,0-.222,1.882A1.765,1.765,0,0,0,550.338,144.216ZM893.735,42.88a1.218,1.218,0,0,0,.224-1.9,1.777,1.777,0,0,0-2.181-.473,1.218,1.218,0,0,0-.225,1.9A1.779,1.779,0,0,0,893.735,42.88ZM1633.35,66.145a1.482,1.482,0,0,0-1.18-1.883,1.926,1.926,0,0,0-2.36.715,1.475,1.475,0,0,0,1.17,1.883A1.936,1.936,0,0,0,1633.35,66.145ZM968.522,1149.14a0.714,0.714,0,0,1,.71.72,0.71,0.71,0,1,1-1.419,0A0.713,0.713,0,0,1,968.522,1149.14Zm787.2-63.96a1.22,1.22,0,0,1-.23-1.9,1.785,1.785,0,0,1,2.18-.47,1.22,1.22,0,0,1,.23,1.9A1.785,1.785,0,0,1,1755.72,1085.18Zm-424.47-94.57a0.6,0.6,0,0,1-.11-0.933,0.866,0.866,0,0,1,1.07-.234,0.6,0.6,0,0,1,.11.933A0.872,0.872,0,0,1,1331.25,990.61ZM1128.9,1100.8a0.894,0.894,0,0,0,.87-0.71,0.62,0.62,0,0,0-.68-0.68,0.894,0.894,0,0,0-.87.71A0.62,0.62,0,0,0,1128.9,1100.8ZM874.942,874.524a1.061,1.061,0,0,1-.191-1.652,1.549,1.549,0,0,1,1.9-.416,1.062,1.062,0,0,1,.19,1.652A1.549,1.549,0,0,1,874.942,874.524Zm621.968,82.3a0.6,0.6,0,0,0,.1-0.942,0.88,0.88,0,0,0-1.08-.242,0.609,0.609,0,0,0-.1.942A0.881,0.881,0,0,0,1496.91,956.82Zm-891.2-1.335a1.219,1.219,0,0,0,.225-1.9,1.779,1.779,0,0,0-2.182-.473,1.219,1.219,0,0,0-.224,1.9A1.777,1.777,0,0,0,605.713,955.485Zm1.954,184.985a0.616,0.616,0,0,0,.115-0.96,0.891,0.891,0,0,0-1.107-.24,0.616,0.616,0,0,0-.115.96A0.9,0.9,0,0,0,607.667,1140.47Zm-230.533.75a0.872,0.872,0,0,1-.855-0.7,0.607,0.607,0,0,1,.664-0.68,0.871,0.871,0,0,1,.854.7A0.607,0.607,0,0,1,377.134,1141.22Z" transform="translate(-69 -20.781)"/>
</svg>
