<svg xmlns="http://www.w3.org/2000/svg" width="21" height="14" viewBox="0 0 21 14">
  <metadata><?xpacket begin="﻿" id="W5M0MpCehiHzreSzNTczkc9d"?>
<x:xmpmeta xmlns:x="adobe:ns:meta/" x:xmptk="Adobe XMP Core 5.6-c138 79.159824, 2016/09/14-01:09:01        ">
   <rdf:RDF xmlns:rdf="http://www.w3.org/1999/02/22-rdf-syntax-ns#">
      <rdf:Description rdf:about=""/>
   </rdf:RDF>
</x:xmpmeta>
                                                                                                    
                                                                                                    
                                                                                                    
                                                                                                    
                                                                                                    
                                                                                                    
                                                                                                    
                                                                                                    
                                                                                                    
                                                                                                    
                                                                                                    
                                                                                                    
                                                                                                    
                                                                                                    
                                                                                                    
                                                                                                    
                                                                                                    
                                                                                                    
                                                                                                    
                                                                                                    
                           
<?xpacket end="w"?></metadata>
<defs>
    <style>
      .cls-1 {
        fill: #fff;
        fill-rule: evenodd;
      }
    </style>
  </defs>
  <path id="behance_logo" class="cls-1" d="M1085.42,791.634h5.56v1.7h-5.56v-1.7Zm1.32,5.409a2.778,2.778,0,0,0-.67,1.564h4.32a2.239,2.239,0,0,0-.67-1.6,2.119,2.119,0,0,0-1.49-.545A1.916,1.916,0,0,0,1086.74,797.043Zm3.75-2.282a4,4,0,0,1,1.66,1.5,5.084,5.084,0,0,1,.76,2.088,13.408,13.408,0,0,1,.09,2.007h-6.99a2.467,2.467,0,0,0,1,2.132,2.434,2.434,0,0,0,1.38.38,2.057,2.057,0,0,0,1.4-.464,2.291,2.291,0,0,0,.51-0.7h2.57a3.392,3.392,0,0,1-.93,1.826,4.576,4.576,0,0,1-3.62,1.473,4.68,4.68,0,0,1-4.84-5.286,5.654,5.654,0,0,1,1.32-4.028,4.512,4.512,0,0,1,3.43-1.4A5.238,5.238,0,0,1,1090.49,794.761Zm-15.9,3.883v3.644h3.15a2.916,2.916,0,0,0,1.31-.24,1.747,1.747,0,0,0,.86-1.706,1.481,1.481,0,0,0-.83-1.465,3.148,3.148,0,0,0-1.3-.233h-3.19Zm0-5.275v3.015h3.15a2.532,2.532,0,0,0,1.38-.34,1.315,1.315,0,0,0,.52-1.2,1.237,1.237,0,0,0-.69-1.262,4.677,4.677,0,0,0-1.54-.214h-2.82Zm7.05-.916a3.653,3.653,0,0,1,.59,2.085,3.159,3.159,0,0,1-.6,2.012,3.027,3.027,0,0,1-.99.778,2.936,2.936,0,0,1,1.5,1.205,3.734,3.734,0,0,1,.5,2,4.2,4.2,0,0,1-.57,2.179,3.735,3.735,0,0,1-.92,1.075,3.5,3.5,0,0,1-1.47.686,8.466,8.466,0,0,1-1.83.185H1072V791h6.27A3.917,3.917,0,0,1,1081.64,792.453Z" transform="translate(-1072 -791)"/>
</svg>
