<?xml version="1.0" encoding="utf-8"?>
<!-- Generator: Adobe Illustrator 21.0.1, SVG Export Plug-In . SVG Version: 6.00 Build 0)  -->
<svg version="1.1" id="визитка-зад" xmlns="http://www.w3.org/2000/svg" xmlns:xlink="http://www.w3.org/1999/xlink"
	 x="0px" y="0px" viewBox="0 0 199.1 19.5" style="enable-background:new 0 0 199.1 19.5;" xml:space="preserve">
<style type="text/css">
	.st0{fill:#FFFFFF;}
	.st1{fill:#FFE336;}
</style>
<path class="st0" d="M1.6,19.4c-0.9,0-1.6-0.7-1.6-1.6V2c0-0.9,0.8-1.6,1.6-1.6S3.3,1.2,3.3,2v15.8C3.3,18.7,2.5,19.4,1.6,19.4z"/>
<path class="st0" d="M15.4,19.4c-0.9,0-1.6-0.7-1.6-1.6v-6.2H8c-0.9,0-1.6-0.7-1.6-1.6S7.2,8.4,8,8.4h5.8V2c0-0.9,0.7-1.6,1.6-1.6
	S17,1.2,17,2v15.8C17,18.7,16.3,19.4,15.4,19.4z"/>
<path class="st0" d="M62.5,19.4c-0.9,0-1.6-0.7-1.6-1.6V2c0-0.9,0.7-1.6,1.6-1.6c0.9,0,1.6,0.7,1.6,1.6v15.8
	C64.1,18.7,63.4,19.4,62.5,19.4z"/>
<path class="st0" d="M68.9,19.4c-0.9,0-1.6-0.7-1.6-1.6s0.7-1.6,1.6-1.6h5.4c0.9,0,1.6,0.7,1.6,1.6s-0.7,1.6-1.6,1.6H68.9z"/>
<path class="st0" d="M132.9,19.4c-0.9,0-1.6-0.7-1.6-1.6s0.7-1.6,1.6-1.6h5.4c0.9,0,1.6,0.7,1.6,1.6s-0.7,1.6-1.6,1.6H132.9z"/>
<path class="st0" d="M126.5,19.4c-0.9,0-1.6-0.7-1.6-1.6V2c0-0.9,0.7-1.6,1.6-1.6s1.6,0.7,1.6,1.6v15.8
	C128.1,18.7,127.4,19.4,126.5,19.4z"/>
<path class="st0" d="M29.9,19.4c-0.5,0-1-0.3-1.3-0.7c-0.3-0.5-0.3-1.1,0-1.7l0.2-0.4l8.7-15.1l0.2-0.3c0.3-0.5,0.8-0.8,1.4-0.8
	c0.6,0,1.1,0.3,1.4,0.8l0.2,0.3l0,0l8.7,15.1l0.2,0.4c0.2,0.4,0.3,0.9,0.1,1.3c-0.1,0.4-0.5,0.8-0.9,1c-0.2,0.1-0.4,0.1-0.6,0.1
	h-0.4l0,0H37l-0.2,0c-0.5,0-1-0.3-1.3-0.7c-0.3-0.4-0.3-0.9-0.2-1.3c0.1-0.4,0.5-0.8,0.9-1c0.2-0.1,0.4-0.1,0.6-0.1h0.4l0,0h8.1
	L38.9,5.2l-7.7,13.4c-0.2,0.3-0.4,0.5-0.8,0.7C30.3,19.4,30.1,19.4,29.9,19.4z"/>
<path class="st0" d="M190.1,19.4c-0.9,0-1.6-0.7-1.6-1.6s0.7-1.6,1.6-1.6h3.5c1.3,0,2.4-1.1,2.4-2.4s-1.1-2.4-2.4-2.4h-2.8
	c-0.9,0-1.6-0.7-1.6-1.6s0.7-1.6,1.6-1.6h2c1.3,0,2.4-1.1,2.4-2.4s-1.1-2.4-2.4-2.4h-7.6v14.1c0,0.9-0.7,1.6-1.6,1.6
	s-1.6-0.7-1.6-1.6V2c0-0.9,0.8-1.6,1.6-1.6h9.1c3,0,5.5,2.5,5.5,5.5c0,1.2-0.4,2.3-1.1,3.3L197,9.5l0.3,0.2c1.2,1,1.8,2.6,1.8,4.1
	c0,3-2.5,5.5-5.5,5.5H190.1z"/>
<path class="st0" d="M151.1,19.4c-0.5,0-1-0.3-1.3-0.7c-0.3-0.5-0.3-1.1,0-1.7l8.9-15.5l0.2-0.3c0.3-0.5,0.8-0.8,1.4-0.8
	c0.6,0,1.1,0.3,1.4,0.8l0.2,0.4l0,0l8.7,15.1l0.2,0.4c0.2,0.4,0.3,0.9,0.1,1.3c-0.1,0.4-0.5,0.8-0.9,1c-0.2,0.1-0.4,0.1-0.6,0.1
	c0,0-0.4,0-0.4,0l0,0h-10.6l-0.2,0c-0.5,0-1-0.3-1.3-0.7c-0.3-0.4-0.3-0.9-0.2-1.3c0.1-0.4,0.5-0.8,0.9-1c0.2-0.1,0.4-0.1,0.6-0.1
	h0.4h0h8.1l-6.3-11.1l-7.7,13.3l0,0l0,0.1c-0.2,0.3-0.4,0.5-0.8,0.7C151.5,19.4,151.4,19.4,151.1,19.4z"/>
<path class="st1" d="M103.2,4.2c-1.7,0.5-3,1.8-3.5,3.5c-0.1,0.3-0.4,0.3-0.5,0c-0.5-1.7-1.8-3-3.5-3.5c-0.3-0.1-0.3-0.4,0-0.5
	c1.7-0.5,3-1.8,3.5-3.5c0.1-0.3,0.4-0.3,0.5,0c0.5,1.7,1.8,3,3.5,3.5C103.5,3.8,103.5,4.1,103.2,4.2z"/>
<path class="st0" d="M93.4,19.5c-5.2,0-9.5-4.2-9.5-9.5c0-4.4,3-8.2,7.3-9.2c0.8-0.2,1.7,0.3,1.9,1.2c0.2,0.8-0.3,1.7-1.2,1.9
	c-2.8,0.7-4.9,3.2-4.9,6.1c0,3.5,2.8,6.3,6.3,6.3c3,0,5.6-2.2,6.2-5.1c0.2-0.9,1-1.4,1.8-1.3c0.9,0.2,1.4,1,1.3,1.8
	C101.8,16.3,97.9,19.5,93.4,19.5z"/>
</svg>
