<?xml version="1.0" encoding="UTF-8"?>
<svg width="17px" height="17px" viewBox="0 0 17 17" version="1.1" xmlns="http://www.w3.org/2000/svg" xmlns:xlink="http://www.w3.org/1999/xlink">
    <!-- Generator: Sketch 53.2 (72643) - https://sketchapp.com -->
    <title>Combined Shape</title>
    <desc>Created with Sketch.</desc>
    <g id="Symbols" stroke="none" stroke-width="1" fill="none" fill-rule="evenodd">
        <g id="Header/m" transform="translate(-277.000000, -32.000000)" fill="#FFFFFF" fill-rule="nonzero">
            <g id="menu-icon">
                <g transform="translate(265.000000, 20.000000)">
                    <path d="M28.4555945,23.2735485 C27.9033302,24.3994954 26.9120215,25.1577351 25.3692593,24.9965732 C24.4740753,24.9030594 23.786132,24.5308198 23.336787,23.9934139 C22.5627028,24.6227691 21.5754049,25 20.5,25 C18.0147186,25 16,22.9852814 16,20.5 C16,18.0147186 18.0147186,16 20.5,16 C20.7459611,16 20.9898288,16.0198274 21.2298227,16.059035 C21.7056696,16.1367736 22.1627773,16.2901447 22.586161,16.5119733 C23.0753656,16.7682882 23.26416,17.3726511 23.0078451,17.8618557 C22.7515302,18.3510603 22.1471672,18.5398547 21.6579626,18.2835398 C21.4234978,18.1606938 21.1707935,18.0759051 20.9073595,18.0328682 C20.7738674,18.0110597 20.6378383,18 20.5,18 C19.1192881,18 18,19.1192881 18,20.5 C18,21.8807119 19.1192881,23 20.5,23 C21.5810492,23 22.5018367,22.313838 22.8506008,21.3532755 C22.8650164,21.3010047 22.8807027,21.2486444 22.8976693,21.1962293 C22.9034929,21.1782385 22.909778,21.160526 22.9165075,21.1431006 C22.9709751,20.9379011 23,20.7223401 23,20.5 C23,19.9477153 23.4477153,19.5 24,19.5 C24.5522847,19.5 25,19.9477153 25,20.5 C25,21.0071146 24.9161167,21.4946373 24.7614685,21.9494495 C24.6159581,22.5501841 24.8712832,22.9336701 25.577055,23.0073973 C26.2559335,23.0783151 26.6601008,22.6054884 26.8609946,21.8373857 C26.8629552,21.8298894 26.8649959,21.8224354 26.8671155,21.8150242 C26.9551473,21.3862112 27,20.9463767 27,20.5 C27,16.9101491 24.0898509,14 20.5,14 C16.9101491,14 14,16.9101491 14,20.5 C14,24.0898509 16.9101491,27 20.5,27 C21.6481208,27 22.7506081,26.7028161 23.7239466,26.1456028 C24.2032476,25.8712143 24.8142336,26.0373287 25.0886221,26.5166297 C25.3630105,26.9959307 25.1968961,27.6069167 24.7175952,27.8813051 C23.4437013,28.6105792 21.9990355,29 20.5,29 C15.8055796,29 12,25.1944204 12,20.5 C12,15.8055796 15.8055796,12 20.5,12 C25.1944204,12 29,15.8055796 29,20.5 C29,21.322931 28.8827484,22.1312682 28.6542362,22.906608 C28.6131386,23.046052 28.5443339,23.1697768 28.4555945,23.2735485 Z" id="Combined-Shape"></path>
                </g>
            </g>
        </g>
    </g>
</svg>