<svg width="89" height="46" viewBox="0 0 89 46" fill="none" xmlns="http://www.w3.org/2000/svg">
<path id="kkl-luzern" fill-rule="evenodd" clip-rule="evenodd" d="M55.2251 29.7974C55.2266 30.1769 55.2266 30.5563 55.2236 30.9357C56.1513 30.9418 57.0789 30.9312 58.0065 30.9433C56.9645 32.3947 55.9525 33.8688 54.9269 35.3308C54.9284 35.6229 54.9284 35.915 54.9284 36.2071C56.5579 36.2101 58.1888 36.2116 59.8182 36.2071C59.8152 35.8277 59.8137 35.4483 59.8137 35.0688C58.7836 35.0613 57.752 35.0764 56.7205 35.0583C57.6918 33.7047 58.6255 32.3225 59.5923 30.9659C59.8754 30.6406 59.7188 30.1814 59.7474 29.7944C58.24 29.8005 56.7325 29.7944 55.2251 29.7974ZM46.6188 29.7958C46.6143 31.3587 46.6203 32.9201 46.6143 34.4815C46.5992 34.9121 46.7257 35.3503 46.9938 35.6906C47.7693 36.6301 49.2376 36.4796 50.1141 35.7598C50.111 35.8713 50.105 36.0956 50.102 36.207C50.5342 36.21 50.9664 36.21 51.3986 36.21C51.3941 34.072 51.3971 31.9339 51.3971 29.7958H50.105C50.096 31.3422 50.1291 32.89 50.0915 34.4348C49.6276 34.8745 49.0012 35.2705 48.3341 35.1621C48.0269 35.0793 47.8853 34.7827 47.9079 34.4845C47.9109 32.9412 47.8898 31.3964 47.9214 29.8531C47.4953 29.7446 47.051 29.8094 46.6188 29.7958ZM79.0021 30.3274C79.0006 30.1949 78.9991 29.9284 78.9976 29.7959C78.5759 29.7959 78.1558 29.7959 77.7371 29.7944C77.7266 31.9475 77.7386 34.1007 77.7296 36.2538C78.1543 36.2538 78.5774 36.2538 79.0036 36.2553C79.0081 34.7105 78.9976 33.1656 79.0081 31.6208C79.5352 31.2278 80.1526 30.7279 80.8574 30.9327C81.2173 31.023 81.2505 31.4612 81.2655 31.7699C81.273 33.265 81.267 34.7586 81.2655 36.2538C81.6962 36.2538 82.1269 36.2538 82.5576 36.2523C82.5516 34.7541 82.5636 33.2575 82.5531 31.7608C82.5335 31.0983 82.3377 30.3349 81.7098 29.9977C80.8559 29.4722 79.7385 29.7056 79.0021 30.3274ZM72.492 30.5081C72.5011 30.2702 72.5071 30.0323 72.5131 29.7959C72.105 29.7959 71.6969 29.7974 71.2903 29.7929C71.2737 31.9324 71.2873 34.072 71.2828 36.2116C71.6909 36.2086 72.099 36.2086 72.5086 36.2131C72.5146 35.132 72.5026 34.0524 72.5101 32.9714C72.6396 31.9897 73.3429 30.8438 74.4814 30.9718C74.4768 30.5487 74.4783 30.1256 74.4799 29.704C73.7254 29.6303 72.9724 29.9163 72.492 30.5081ZM64.4308 29.8096C63.4595 30.1183 62.8481 31.0894 62.702 32.0606C62.4942 33.1989 62.6117 34.4923 63.3571 35.4228C64.1778 36.3939 65.6868 36.6198 66.8026 36.0537C67.3779 35.745 67.78 35.1984 68.0646 34.6233C67.7137 34.4531 67.3659 34.28 67.021 34.1008C66.7183 34.7362 66.0843 35.2587 65.3449 35.1758C64.4609 35.1126 63.9565 34.1941 63.8932 33.3931C65.1928 33.3976 66.4939 33.3991 67.7935 33.3916C67.8176 32.3888 67.8176 31.2686 67.1264 30.4616C66.4879 29.6741 65.3524 29.5581 64.4308 29.8096ZM41.3466 27.4878C41.3496 30.3953 41.3496 33.3027 41.3466 36.2102C41.7773 36.2102 42.2094 36.2102 42.6401 36.2057C42.6341 33.3012 42.6417 30.3968 42.6371 27.4923C42.2064 27.4893 41.7773 27.4878 41.3466 27.4878ZM1.3222 23.4042C1.32522 30.3183 1.32371 37.2339 1.32371 44.148C8.50996 44.145 15.6947 44.148 22.881 44.1465C22.9021 37.2324 22.878 30.3198 22.899 23.4057C15.7068 23.3967 8.51448 23.4027 1.3222 23.4042ZM66.3539 1.32349C66.3493 8.23758 66.3599 15.1532 66.3478 22.0688C73.4588 22.0703 80.5683 22.0703 87.6777 22.0673C87.6732 15.1532 87.6777 8.23908 87.6762 1.32499C80.5683 1.32198 73.4603 1.3265 66.3539 1.32349ZM1.32371 1.32499C1.32371 8.23908 1.32672 15.1532 1.3222 22.0658C22.5572 22.0733 43.7922 22.0673 65.0272 22.0688C65.0136 15.1532 65.0242 8.23908 65.0227 1.32349C43.7892 1.32499 22.5557 1.32349 1.32371 1.32499ZM0 45.4716H88.9999V0H0V45.4716ZM6.49951 5.1781C7.18772 5.17509 7.87592 5.17358 8.56413 5.17961C8.54907 7.18668 8.57015 9.19375 8.55208 11.2008C10.1529 9.19526 11.7672 7.20174 13.3439 5.17961C14.1918 5.17208 15.0411 5.1781 15.8904 5.17358C14.502 6.87802 13.0954 8.56588 11.704 10.2673L11.707 10.3682C13.2039 13.0935 14.7474 15.7916 16.2323 18.5215C15.538 18.5425 14.8438 18.535 14.1496 18.535C13.9011 18.6028 13.7927 18.3498 13.6948 18.1842C12.5548 16.1199 11.3907 14.0691 10.2493 12.0064C9.69206 12.7125 9.09421 13.3871 8.54907 14.1038C8.56714 15.5809 8.56112 17.0579 8.55359 18.535C7.87291 18.5335 7.19224 18.535 6.51156 18.535C6.49198 14.0827 6.51457 9.6304 6.49951 5.1781ZM23.3839 5.17655C24.0555 5.17655 24.7286 5.17354 25.4018 5.17806C25.3897 7.19266 25.4003 9.20576 25.3958 11.2189C27.0131 9.21479 28.6064 7.19116 30.2147 5.17957C31.061 5.17204 31.9074 5.17655 32.7537 5.17505C31.3457 6.89454 29.9135 8.59596 28.5266 10.3305C30.0732 13.0558 31.5866 15.7976 33.1091 18.5365C32.3381 18.5395 31.5685 18.5184 30.799 18.55C29.522 16.3984 28.3353 14.1896 27.1125 12.0048C26.5403 12.702 25.9725 13.4036 25.3912 14.0947C25.4003 15.5748 25.4003 17.0549 25.3912 18.5365C24.7256 18.5335 24.06 18.5319 23.3929 18.5365C23.3763 14.0827 23.3959 9.63036 23.3839 5.17655ZM40.9008 5.17812C41.5935 5.17511 42.2878 5.17511 42.982 5.17963C42.9715 9.01761 42.9805 12.8556 42.9775 16.6936C44.9789 16.6921 46.9802 16.6951 48.9831 16.6921C48.9846 17.3064 48.9831 17.9207 48.9846 18.535C46.292 18.5335 43.6009 18.5335 40.9083 18.535C40.8963 14.0827 40.9114 9.63042 40.9008 5.17812ZM63.9293 32.2065C64.0197 31.4281 64.6838 30.6602 65.5316 30.8589C66.1807 30.9613 66.4517 31.6509 66.5165 32.2291C65.6536 32.1869 64.7907 32.2201 63.9293 32.2065Z" fill="#80808E"/>
</svg>
