<?xml version="1.0" encoding="UTF-8"?>
<svg width="26px" height="26px" viewBox="0 0 26 26" version="1.1" xmlns="http://www.w3.org/2000/svg" xmlns:xlink="http://www.w3.org/1999/xlink">
    <!-- Generator: Sketch 53.2 (72643) - https://sketchapp.com -->
    <title>Shape</title>
    <desc>Created with Sketch.</desc>
    <g id="Desktop-Pages" stroke="none" stroke-width="1" fill="none" fill-rule="evenodd">
        <g id="Our-blog_2" transform="translate(-553.000000, -1837.000000)" fill="#FFFFFF" fill-rule="nonzero">
            <g id="Load-more" transform="translate(530.000000, 1820.000000)">
                <path d="M39.8910587,30.7511348 L30.2636079,30.7511348 C29.8418789,30.7511348 29.5,30.3982989 29.5,29.990495 C29.5,29.570405 29.8521696,29.229855 30.2636079,29.229855 L39.8720486,29.229855 L36.881776,26.2395824 C36.5914785,25.9492849 36.5879321,25.4626699 36.8858798,25.1647222 C37.1751139,24.8754881 37.6650589,24.864937 37.9607402,25.1606183 L42.1978692,29.3977473 C42.2210227,29.4159132 42.2432566,29.4355815 42.2644165,29.4567413 C42.4141434,29.606468 42.4877328,29.80384 42.4870558,30 C42.4877328,30.19616 42.4141434,30.393532 42.2644165,30.5432587 C42.2432566,30.5644185 42.2210227,30.5840868 42.1978692,30.6022527 L37.9607402,34.8393817 C37.6650589,35.135063 37.1751139,35.1245119 36.8858798,34.8352778 C36.5879321,34.5373301 36.5914785,34.0507151 36.881776,33.7604176 L39.8910587,30.7511348 Z M36,43 C28.8202983,43 23,37.1797017 23,30 C23,22.8202983 28.8202983,17 36,17 C43.1797017,17 49,22.8202983 49,30 C49,37.1797017 43.1797017,43 36,43 Z M36,41.5555556 C42.3819571,41.5555556 47.5555556,36.3819571 47.5555556,30 C47.5555556,23.6180429 42.3819571,18.4444444 36,18.4444444 C29.6180429,18.4444444 24.4444444,23.6180429 24.4444444,30 C24.4444444,36.3819571 29.6180429,41.5555556 36,41.5555556 Z" id="Shape" transform="translate(36.000000, 30.000000) rotate(90.000000) translate(-36.000000, -30.000000) "></path>
            </g>
        </g>
    </g>
</svg>