<?xml version="1.0" encoding="UTF-8"?>
<svg width="151px" height="15px" viewBox="0 0 151 15" version="1.1" xmlns="http://www.w3.org/2000/svg" xmlns:xlink="http://www.w3.org/1999/xlink">
    <!-- Generator: Sketch 53.2 (72643) - https://sketchapp.com -->
    <title>logo</title>
    <desc>Created with Sketch.</desc>
    <g id="Symbols" stroke="none" stroke-width="1" fill="none" fill-rule="evenodd">
        <g id="Header/m" transform="translate(-85.000000, -33.000000)">
            <g id="logo">
                <g transform="translate(85.000000, 33.000000)">
                    <g id="Group-3" transform="translate(70.633517, 0.170667)" fill="#FFE336">
                        <path d="M5.55816262,3.16987606 C4.37268748,3.55165082 3.47085875,4.48016826 3.10044991,5.70110282 C3.04260829,5.89127419 2.78899503,5.89127419 2.73115341,5.70110282 C2.36074457,4.48016826 1.45891584,3.55165082 0.2734407,3.16987606 C0.0887924494,3.11030431 0.0887924494,2.84910508 0.2734407,2.78953332 C1.45891584,2.40804497 2.36074457,1.47952753 2.73115341,0.258306564 C2.78899503,0.0681351942 3.04260829,0.0681351942 3.10044991,0.258306564 C3.47085875,1.47952753 4.37268748,2.40804497 5.55816262,2.78953332 C5.74281087,2.84910508 5.74281087,3.11030431 5.55816262,3.16987606" id="Fill-1"></path>
                    </g>
                    <path d="M1.11233886,14.4896837 C0.498883978,14.4896837 0,13.9758773 0,13.344073 L0,1.88796637 C0,1.25616209 0.498883978,0.742355709 1.11233886,0.742355709 C1.72579374,0.742355709 2.22467772,1.25616209 2.22467772,1.88796637 L2.22467772,13.344073 C2.22467772,13.9758773 1.72579374,14.4896837 1.11233886,14.4896837" id="Fill-4" fill="#FFFFFF"></path>
                    <path d="M10.8453039,14.4896837 C10.231849,14.4896837 9.73296501,13.9758773 9.73296501,13.344073 L9.73296501,8.76163035 L6.11786372,8.76163035 C5.50440884,8.76163035 5.00552486,8.24782397 5.00552486,7.61601968 C5.00552486,6.9842154 5.50440884,6.47040902 6.11786372,6.47040902 L9.73296501,6.47040902 L9.73296501,1.88796637 C9.73296501,1.25616209 10.231849,0.742355709 10.8453039,0.742355709 C11.4587587,0.742355709 11.9576427,1.25616209 11.9576427,1.88796637 L11.9576427,13.344073 C11.9576427,13.9758773 11.4587587,14.4896837 10.8453039,14.4896837" id="Fill-6" fill="#FFFFFF"></path>
                    <path d="M45.6058932,14.4896837 C44.9924383,14.4896837 44.4935543,13.9758773 44.4935543,13.344073 L44.4935543,1.88796637 C44.4935543,1.25616209 44.9924383,0.742355709 45.6058932,0.742355709 C46.2193481,0.742355709 46.718232,1.25616209 46.718232,1.88796637 L46.718232,13.344073 C46.718232,13.9758773 46.2193481,14.4896837 45.6058932,14.4896837" id="Fill-8" fill="#FFFFFF"></path>
                    <path d="M50.611418,14.4896837 C49.9979632,14.4896837 49.4990792,13.9758773 49.4990792,13.344073 C49.4990792,12.7122687 49.9979632,12.1984623 50.611418,12.1984623 L53.9484346,12.1984623 C54.5618895,12.1984623 55.0607735,12.7122687 55.0607735,13.344073 C55.0607735,13.9758773 54.5618895,14.4896837 53.9484346,14.4896837 L50.611418,14.4896837 Z" id="Fill-10" fill="#FFFFFF"></path>
                    <path d="M98.441989,14.4896837 C97.8285341,14.4896837 97.3296501,13.9758773 97.3296501,13.344073 L97.3296501,1.88796637 C97.3296501,1.25616209 97.8285341,0.742355709 98.441989,0.742355709 C99.0554438,0.742355709 99.5543278,1.25616209 99.5543278,1.88796637 L99.5543278,13.344073 C99.5543278,13.9758773 99.0554438,14.4896837 98.441989,14.4896837" id="Fill-12" fill="#FFFFFF"></path>
                    <path d="M103.447514,14.4896837 C102.834059,14.4896837 102.335175,13.9758773 102.335175,13.344073 C102.335175,12.7122687 102.834059,12.1984623 103.447514,12.1984623 L106.78453,12.1984623 C107.397985,12.1984623 107.896869,12.7122687 107.896869,13.344073 C107.896869,13.9758773 107.397985,14.4896837 106.78453,14.4896837 L103.447514,14.4896837 Z" id="Fill-14" fill="#FFFFFF"></path>
                    <path d="M21.9785923,14.4908006 C21.6015094,14.4908006 21.2416678,14.2937556 21.0397783,13.976135 C20.8084118,13.6126901 20.7953418,13.152441 21.0052958,12.7752487 L21.1640821,12.4897052 L27.2672074,1.55313302 L27.404025,1.32028765 C27.6064707,0.958561082 27.9652,0.742327069 28.3631392,0.742327069 C28.7613565,0.742327069 29.1198077,0.958274679 29.3222534,1.32000125 L29.4612958,1.56859876 L29.4663013,1.56573473 L35.5830527,12.5214959 L35.7223731,12.7761079 C35.8817157,13.0613649 35.9145297,13.4036161 35.8124726,13.7152222 C35.7093031,14.0299787 35.4868354,14.276285 35.1856696,14.4071711 C35.0613657,14.4610148 34.9223234,14.489655 34.7724357,14.489655 L34.4823934,14.489655 L27.6976825,14.489655 L27.5322221,14.486791 C27.1559735,14.4844998 26.7989127,14.2886003 26.6003602,13.976135 C26.4179366,13.689446 26.3689937,13.3380299 26.4657672,13.0115309 C26.5625407,12.6850318 26.7950195,12.4172453 27.1042497,12.2834953 C27.2285536,12.2296516 27.367874,12.1984337 27.5185959,12.1984337 L27.8083602,12.1984337 L32.836688,12.1984337 L28.3634173,4.18631912 L22.9321448,13.9171361 C22.8095094,14.1373797 22.6231926,14.3057845 22.3937727,14.4054526 C22.2630729,14.461874 22.1234744,14.4908006 21.9785923,14.4908006" id="Fill-16" fill="#FFFFFF"></path>
                    <path d="M145.160221,14.4896837 C144.546766,14.4896837 144.047882,13.9758773 144.047882,13.344073 C144.047882,12.7122687 144.546766,12.1984623 145.160221,12.1984623 L147.106814,12.1984623 C148.026162,12.1973167 148.773654,11.4266072 148.773654,10.4800463 C148.773654,9.53348553 148.026162,8.76277596 147.107092,8.76163035 L145.160221,8.76163035 C144.546766,8.76163035 144.047882,8.24782397 144.047882,7.61601968 C144.047882,6.9842154 144.546766,6.47040902 145.160221,6.47040902 L146.550645,6.47040902 C147.469993,6.46926341 148.217484,5.69855384 148.217484,4.75199303 C148.217484,3.80543222 147.469993,3.03472265 146.550923,3.03357703 L141.267035,3.03357703 L141.267035,13.344073 C141.267035,13.9758773 140.768151,14.4896837 140.154696,14.4896837 C139.541241,14.4896837 139.042357,13.9758773 139.042357,13.344073 L139.042357,1.88796637 C139.042357,1.25616209 139.541241,0.742355709 140.154696,0.742355709 L146.550645,0.742355709 C148.697459,0.742355709 150.443831,2.54096445 150.443831,4.75199303 C150.443831,5.61005541 150.179094,6.43231747 149.677707,7.12970796 L149.52782,7.3379227 L149.714692,7.51234192 C150.531427,8.27417301 151,9.35591588 151,10.4800463 C151,12.6910749 149.253628,14.4896837 147.106814,14.4896837 L145.160221,14.4896837 Z" id="Fill-18" fill="#FFFFFF"></path>
                    <path d="M116.527534,14.4908006 C116.150451,14.4908006 115.79061,14.2937556 115.588164,13.976135 C115.357354,13.6126901 115.344284,13.152441 115.554238,12.7752487 L121.816149,1.55341942 L121.952967,1.32028765 C122.155413,0.958274679 122.513864,0.742327069 122.912081,0.742327069 C123.31002,0.742327069 123.66875,0.958274679 123.871195,1.32028765 L124.013853,1.57432681 L124.018302,1.57174919 L130.128101,12.5149086 L130.271315,12.7761079 C130.43038,13.0613649 130.463194,13.4036161 130.361136,13.7152222 C130.258245,14.0299787 130.035499,14.276285 129.734334,14.4071711 C129.610308,14.4610148 129.471265,14.489655 129.321378,14.489655 L129.031335,14.489655 L122.246346,14.489655 L122.081164,14.486791 C121.704915,14.4844998 121.347855,14.2886003 121.148746,13.976135 C120.966879,13.6897324 120.917658,13.3380299 121.014709,13.0115309 C121.111205,12.6850318 121.343962,12.4172453 121.653192,12.2834953 C121.777496,12.2296516 121.916816,12.1984337 122.06726,12.1984337 L122.345345,12.1984337 L122.345901,12.1984337 L127.38563,12.1984337 L122.912359,4.18631912 L117.507505,13.8693068 L117.50389,13.8736029 L117.481087,13.9171361 C117.358451,14.1370933 117.172135,14.3057845 116.942437,14.4054526 C116.811737,14.461874 116.672416,14.4908006 116.527534,14.4908006" id="Fill-20" fill="#FFFFFF"></path>
                    <path d="M69.2430939,14.4896837 C65.5629208,14.4896837 62.5690608,11.4059862 62.5690608,7.61601968 C62.5690608,4.40057696 64.6925157,1.64710173 67.7328158,0.919925362 C68.3318103,0.778156043 68.9291363,1.1605036 69.0681786,1.77684214 C69.2069429,2.39318067 68.8345875,3.00866 68.2361492,3.15186134 C66.2414475,3.62900818 64.7937385,5.50637765 64.7937385,7.61601968 C64.7937385,10.142664 66.7898306,12.1984623 69.2430939,12.1984623 C71.3782284,12.1984623 73.2169245,10.6315534 73.6145856,8.47265006 C73.7288785,7.85115627 74.3106317,7.44245967 74.9149098,7.56103037 C75.5183536,7.67874187 75.9149024,8.27846905 75.8003315,8.89996283 C75.2032836,12.1388906 72.4457956,14.4896837 69.2430939,14.4896837" id="Fill-22" fill="#FFFFFF"></path>
                </g>
            </g>
        </g>
    </g>
</svg>