<?xml version="1.0" encoding="UTF-8"?>
<svg width="21px" height="22px" viewBox="0 0 21 22" version="1.1" xmlns="http://www.w3.org/2000/svg" xmlns:xlink="http://www.w3.org/1999/xlink">
    <!-- Generator: Sketch 53.2 (72643) - https://sketchapp.com -->
    <title>Group 2</title>
    <desc>Created with Sketch.</desc>
    <g id="Symbols" stroke="none" stroke-width="1" fill="none" fill-rule="evenodd">
        <g id="Footer" transform="translate(0.000000, -12.000000)">
            <g id="Group-2">
                <g transform="translate(0.000000, 12.000000)">
                    <path d="M20.3430673,4.44982494 C18.5679077,5.00605306 17.2174872,6.35885993 16.6628279,8.13770499 C16.5762144,8.41477586 16.1964477,8.41477586 16.1098343,8.13770499 C15.555175,6.35885993 14.2047545,5.00605306 12.4295948,4.44982494 C12.153098,4.36303165 12.153098,3.98247648 12.4295948,3.8956832 C14.2047545,3.33987236 15.555175,1.98706549 16.1098343,0.207803153 C16.1964477,-0.0692677175 16.5762144,-0.0692677175 16.6628279,0.207803153 C17.2174872,1.98706549 18.5679077,3.33987236 20.3430673,3.8956832 C20.6195641,3.98247648 20.6195641,4.36303165 20.3430673,4.44982494" id="Fill-1" fill="#FFE336"></path>
                    <path d="M9.99386126,21.0357431 C4.4830796,21.0357431 0,16.5429388 0,11.0211333 C0,6.3363823 3.17971353,2.32469654 7.73233374,1.26523428 C8.62928279,1.05868296 9.52373337,1.61574562 9.73193882,2.5137223 C9.93972785,3.41169898 9.38215367,4.30842382 8.48603745,4.51706153 C5.49912216,5.21224236 3.33128709,7.94748265 3.33128709,11.0211333 C3.33128709,14.7023369 6.32028443,17.6975398 9.99386126,17.6975398 C13.191064,17.6975398 15.9443728,15.4146261 16.5398404,12.269204 C16.7109853,11.3637164 17.5821168,10.7682644 18.4869777,10.9410164 C19.3905893,11.1125166 19.9843912,11.9862913 19.81283,12.8917789 C18.9187958,17.6107465 14.7896654,21.0357431 9.99386126,21.0357431" id="Fill-22" fill="#FFFFFF"></path>
                </g>
            </g>
        </g>
    </g>
</svg>