<svg width="137" height="137" viewBox="0 0 137 137" fill="none" xmlns="http://www.w3.org/2000/svg">
<path opacity="0.6" fill-rule="evenodd" clip-rule="evenodd" d="M68.5 0.75C31.0827 0.75 0.75 31.0827 0.75 68.5C0.75 69.0851 0.757417 69.6685 0.772162 70.25H0.5C0.361929 70.25 0.25 70.3619 0.25 70.5C0.25 70.6381 0.361929 70.75 0.5 70.75H0.786657C1.97361 107.126 31.8356 136.25 68.5 136.25C81.2277 136.25 93.4384 132.734 104.035 126.194C104.035 126.173 104.035 126.153 104.035 126.133L104.034 126.105C104.034 126.093 104.034 126.083 104.033 126.072C107.053 124.245 109.91 122.15 112.603 119.786C116.506 116.356 119.131 113.81 120.482 112.14C120.614 111.976 120.498 111.732 120.288 111.732H85.7412C84.0892 111.732 82.75 110.393 82.75 108.741C82.75 107.089 84.0892 105.75 85.7412 105.75H123.178C125.151 105.75 126.75 104.151 126.75 102.178C126.75 100.205 125.151 98.6054 123.178 98.6054H103.163C101.407 98.6054 99.9837 97.1819 99.9837 95.4259C99.9837 93.6698 101.407 92.2463 103.163 92.2463H131.56C131.585 92.2463 131.61 92.2424 131.633 92.2352C131.652 92.2493 131.673 92.2609 131.696 92.2695C131.826 92.3177 131.97 92.2518 132.018 92.1224C134.805 84.6305 136.25 76.6644 136.25 68.5C136.25 62.5264 135.477 56.6549 133.966 50.9903C133.937 50.8837 133.844 50.8117 133.74 50.8051C133.709 50.7018 133.613 50.6264 133.5 50.6264H117.048C115.763 50.6264 114.722 49.5853 114.722 48.301C114.722 47.0167 115.763 45.9756 117.048 45.9756H126.362C128.315 45.9756 129.898 44.392 129.898 42.4387C129.898 40.4853 128.315 38.9018 126.362 38.9018H106.932C105.175 38.9018 103.75 37.4773 103.75 35.7201C103.75 33.9628 105.175 32.5383 106.932 32.5383H125.187C125.233 32.5383 125.277 32.5254 125.315 32.5029C125.316 32.505 125.318 32.5072 125.319 32.5093C125.317 32.5067 125.317 32.5041 125.317 32.5015C125.332 32.4926 125.345 32.4821 125.358 32.4705C125.401 32.4522 125.471 32.4339 125.542 32.4157C125.661 32.3849 125.779 32.3543 125.759 32.3245C112.176 12.1764 91.9024 0.75 68.5 0.75ZM125.017 32.0383C125.117 32.1927 125.216 32.3475 125.315 32.5029C125.316 32.5024 125.316 32.502 125.317 32.5015C125.318 32.4912 125.334 32.4808 125.358 32.4705C125.406 32.4249 125.437 32.3601 125.437 32.2883C125.437 32.1502 125.325 32.0383 125.187 32.0383H125.017ZM1.27233 70.25H0.772162C0.776391 70.4168 0.781224 70.5835 0.786657 70.75H1.28693C2.47367 106.85 32.1118 135.75 68.5 135.75C80.9398 135.75 92.8811 132.367 103.285 126.066C103.283 126.114 103.294 126.163 103.32 126.207C103.391 126.326 103.544 126.365 103.663 126.294C103.722 126.259 103.782 126.223 103.841 126.188C103.905 126.149 103.969 126.111 104.033 126.072C104.014 125.727 103.878 125.703 103.772 125.769C103.61 125.869 103.448 125.968 103.285 126.066C103.29 125.986 103.333 125.909 103.407 125.864C106.538 124.002 109.493 121.85 112.273 119.41C115.848 116.269 118.343 113.874 119.753 112.232H116.457H85.7412C83.8131 112.232 82.25 110.669 82.25 108.741C82.25 106.813 83.8131 105.25 85.7412 105.25H123.178C124.874 105.25 126.25 103.874 126.25 102.178C126.25 100.481 124.874 99.1054 123.178 99.1054H103.163C101.131 99.1054 99.4837 97.458 99.4837 95.4259C99.4837 93.3937 101.131 91.7463 103.163 91.7463H131.56C131.581 91.7463 131.602 91.749 131.621 91.7539C131.597 91.8187 131.573 91.8834 131.549 91.9481C131.51 92.0544 131.547 92.1705 131.633 92.2352C131.736 92.2037 131.81 92.1087 131.81 91.9963C131.81 91.8795 131.73 91.7814 131.621 91.7539C134.341 84.3742 135.75 76.5342 135.75 68.5C135.75 62.5726 134.983 56.7469 133.484 51.1264H133.5C133.638 51.1264 133.75 51.0145 133.75 50.8764C133.75 50.8517 133.746 50.8277 133.74 50.8051C133.713 50.8035 133.686 50.806 133.66 50.8132C133.526 50.8488 133.447 50.9857 133.482 51.1192C133.483 51.1216 133.484 51.124 133.484 51.1264H117.048C115.487 51.1264 114.222 49.8614 114.222 48.301C114.222 46.7405 115.487 45.4756 117.048 45.4756H126.362C128.039 45.4756 129.398 44.1159 129.398 42.4387C129.398 40.7615 128.039 39.4018 126.362 39.4018H106.932C104.898 39.4018 103.25 37.7534 103.25 35.7201C103.25 33.6867 104.898 32.0383 106.932 32.0383H125.017C112.713 13.0023 91.6133 1.25 68.5 1.25C31.3589 1.25 1.25 31.3589 1.25 68.5C1.25 69.0851 1.25747 69.6685 1.27233 70.25ZM1.27233 70.25C1.27659 70.4168 1.28146 70.5835 1.28693 70.75H68.6904C68.8285 70.75 68.9404 70.6381 68.9404 70.5C68.9404 70.3619 68.8285 70.25 68.6904 70.25H1.27233ZM34.0088 37.8896C34.0088 48.7973 42.8512 57.6396 53.7588 57.6396C64.6664 57.6396 73.5088 48.7973 73.5088 37.8896C73.5088 26.982 64.6664 18.1396 53.7588 18.1396C48.1405 18.1396 43.0701 20.4856 39.4738 24.2514C39.4145 24.2576 39.3573 24.2849 39.3142 24.3327C39.2737 24.3777 39.2526 24.4333 39.2502 24.4894C35.9967 28.0102 34.0088 32.7178 34.0088 37.8896ZM39.5603 24.8908L39.3327 24.6858C39.2751 24.6339 39.2472 24.5612 39.2502 24.4894C39.3241 24.4094 39.3986 24.3301 39.4738 24.2514C39.5418 24.2442 39.6125 24.2649 39.6673 24.3142L39.9029 24.5264C39.7871 24.6464 39.6729 24.7678 39.5603 24.8908ZM34.5121 38.25C34.5099 38.1301 34.5088 38.01 34.5088 37.8896C34.5088 32.8791 36.4231 28.3156 39.5603 24.8908L45.7398 30.4565C43.9307 32.4073 42.8247 35.0193 42.8247 37.8896C42.8247 38.0102 42.8267 38.1304 42.8305 38.25H34.5121ZM34.5277 38.75H42.8581C43.063 41.3824 44.2 43.7531 45.9395 45.5325L40.2069 51.5611C36.8779 48.2611 34.7477 43.7536 34.5277 38.75ZM40.5665 51.9085C40.4452 51.7943 40.3253 51.6785 40.2069 51.5611L40.0486 51.7276C39.9534 51.8277 39.9574 51.9859 40.0575 52.0811C40.1575 52.1762 40.3158 52.1722 40.4109 52.0722L40.5665 51.9085ZM46.2971 45.8821L40.5665 51.9085C43.8972 55.044 48.3453 57.0058 53.25 57.1331V57.3247C53.25 57.4628 53.3619 57.5747 53.5 57.5747C53.6381 57.5747 53.75 57.4628 53.75 57.3247V57.1396L53.7588 57.1396C58.5129 57.1396 62.8645 55.4162 66.223 52.5601L66.3095 52.6619C66.3989 52.7671 66.5567 52.7799 66.6619 52.6905C66.7671 52.6011 66.7799 52.4433 66.6905 52.3381L66.5997 52.2313C70.3344 48.885 72.7545 44.1012 72.9899 38.75H73.2107C73.3488 38.75 73.4607 38.6381 73.4607 38.5C73.4607 38.3619 73.3488 38.25 73.2107 38.25H73.0055C73.0077 38.1301 73.0088 38.01 73.0088 37.8896C73.0088 32.7507 70.9951 28.0821 67.7137 24.6298C67.7723 24.5336 67.7599 24.4064 67.6768 24.3232C67.5952 24.2416 67.4713 24.2282 67.3757 24.283C63.8918 20.7964 59.0772 18.6396 53.7588 18.6396L53.75 18.6397V18.5C53.75 18.3619 53.6381 18.25 53.5 18.25C53.3619 18.25 53.25 18.3619 53.25 18.5V18.6462C48.0119 18.7822 43.2945 21.0105 39.9029 24.5264L46.0883 30.0975C45.9694 30.2145 45.8532 30.3342 45.7398 30.4565L45.9206 30.6194C46.0232 30.7118 46.1812 30.7035 46.2737 30.6009C46.3661 30.4983 46.3578 30.3402 46.2552 30.2478L46.0883 30.0975C47.9493 28.2653 50.4636 27.0948 53.25 26.9672V27.1675C53.25 27.3056 53.3619 27.4175 53.5 27.4175C53.6381 27.4175 53.75 27.3056 53.75 27.1675V26.9556L53.7588 26.9556C56.7776 26.9556 59.5108 28.179 61.4894 30.1571L61.3232 30.3232C61.2256 30.4209 61.2256 30.5791 61.3232 30.6768C61.4209 30.7744 61.5791 30.7744 61.6768 30.6768L61.8349 30.5186C63.6101 32.4626 64.6929 35.0497 64.6929 37.8896C64.6929 38.0102 64.6909 38.1304 64.687 38.25H64.5C64.3619 38.25 64.25 38.3619 64.25 38.5C64.25 38.6381 64.3619 38.75 64.5 38.75H64.6595C64.4405 41.5636 63.1566 44.0783 61.2104 45.8915L61.0674 45.7233C60.978 45.6181 60.8202 45.6054 60.715 45.6948C60.6098 45.7842 60.597 45.942 60.6865 46.0472L60.8368 46.224C58.9294 47.8454 56.4583 48.8237 53.7588 48.8237L53.75 48.8237V48.6978C53.75 48.5597 53.6381 48.4478 53.5 48.4478C53.3619 48.4478 53.25 48.5597 53.25 48.6978V48.8121C50.5665 48.6892 48.1354 47.599 46.2971 45.8821ZM46.5584 45.4412C46.5777 45.5209 46.5573 45.6084 46.4966 45.6723L46.2971 45.8821C46.1753 45.7683 46.0561 45.6517 45.9395 45.5325L46.1343 45.3277C46.1967 45.2621 46.2864 45.2378 46.3689 45.2557C46.4313 45.3183 46.4945 45.3802 46.5584 45.4412ZM46.5584 45.4412C48.431 47.2271 50.9668 48.3237 53.7588 48.3237C59.5214 48.3237 64.1929 43.6522 64.1929 37.8896C64.1929 32.1271 59.5214 27.4556 53.7588 27.4556C47.9962 27.4556 43.3247 32.1271 43.3247 37.8896C43.3247 40.7649 44.4877 43.3685 46.3689 45.2557C46.4121 45.2652 46.4533 45.2861 46.4877 45.3188C46.5239 45.3533 46.5475 45.396 46.5584 45.4412ZM53.25 48.8121C53.4157 48.8197 53.5824 48.8236 53.75 48.8237V57.1396C53.5828 57.1396 53.4162 57.1374 53.25 57.1331V48.8121ZM60.8368 46.224C60.9638 46.116 61.0884 46.0051 61.2104 45.8915L66.5997 52.2313C66.4755 52.3425 66.35 52.4521 66.223 52.5601L60.8368 46.224ZM64.6595 38.75C64.6724 38.5843 64.6816 38.4176 64.687 38.25H73.0055C73.0024 38.4172 72.9972 38.5839 72.9899 38.75H64.6595ZM61.8349 30.5186C61.7225 30.3955 61.6073 30.275 61.4894 30.1571L67.3232 24.3232C67.3393 24.3072 67.357 24.2938 67.3757 24.283C67.4898 24.3972 67.6025 24.5128 67.7137 24.6298C67.7036 24.6465 67.6912 24.6623 67.6768 24.6768L61.8349 30.5186ZM53.75 26.9556C53.5824 26.9557 53.4157 26.9596 53.25 26.9672V18.6462C53.4162 18.6419 53.5828 18.6397 53.75 18.6397V26.9556ZM34.5277 38.75C34.5204 38.5839 34.5152 38.4172 34.5121 38.25H34.5C34.3619 38.25 34.25 38.3619 34.25 38.5C34.25 38.6381 34.3619 38.75 34.5 38.75H34.5277ZM42.8581 38.75H43.0613C43.1994 38.75 43.3113 38.6381 43.3113 38.5C43.3113 38.3619 43.1994 38.25 43.0613 38.25H42.8305C42.836 38.4176 42.8452 38.5843 42.8581 38.75Z" fill="white"/>
</svg>
