<svg width="104" height="17" viewBox="0 0 104 17" fill="none" xmlns="http://www.w3.org/2000/svg">
<path d="M4.01121 16.9725C3.82293 16.9725 3.60775 16.9187 3.44636 16.7842C3.12359 16.5421 2.9891 16.1655 3.06979 15.789L4.1188 11.055C4.1457 10.8936 4.09191 10.7591 3.98432 10.6515L0.326224 7.42377C0.0303492 7.1548 -0.0772418 6.75133 0.0572469 6.40166C0.191736 6.02509 0.48761 5.75612 0.891076 5.72922L5.70577 5.27196C5.86716 5.24506 6.00165 5.16436 6.05544 5.02988L7.99208 0.59175C8.15346 0.24208 8.50313 0 8.8797 0C9.28317 0 9.63284 0.215182 9.76733 0.59175L11.704 5.02988C11.7578 5.16436 11.8922 5.27196 12.0536 5.27196L16.8683 5.72922C17.2718 5.75612 17.5946 6.02509 17.7022 6.40166C17.8366 6.77823 17.7291 7.18169 17.4332 7.45067L13.802 10.6784C13.6944 10.786 13.6406 10.9474 13.6675 11.0819L14.7165 15.8159C14.7972 16.1924 14.6627 16.5959 14.3399 16.8111C14.0172 17.0532 13.6137 17.0532 13.264 16.8649L9.09488 14.4172C8.9604 14.3365 8.79901 14.3365 8.66452 14.4172L4.49537 16.838C4.33399 16.9187 4.1726 16.9725 4.01121 16.9725Z" fill="#FFE336"/>
<path d="M25.3916 16.9725C25.2033 16.9725 24.9881 16.9187 24.8267 16.7842C24.504 16.5421 24.3695 16.1655 24.4502 15.789L25.4992 11.055C25.5261 10.8936 25.4723 10.7591 25.3647 10.6515L21.7066 7.42377C21.4107 7.1548 21.3031 6.75133 21.4376 6.40166C21.5721 6.02509 21.868 5.75612 22.2714 5.72922L27.0861 5.27196C27.2475 5.24506 27.382 5.16436 27.4358 5.02988L29.3724 0.59175C29.5338 0.24208 29.8835 0 30.2601 0C30.6635 0 31.0132 0.215182 31.1477 0.59175L33.0843 5.02988C33.1381 5.16436 33.2726 5.27196 33.434 5.27196L38.2487 5.72922C38.6522 5.75612 38.9749 6.02509 39.0825 6.40166C39.217 6.77823 39.1094 7.18169 38.8136 7.45067L35.1824 10.6784C35.0748 10.786 35.021 10.9474 35.0479 11.0819L36.0969 15.8159C36.1776 16.1924 36.0431 16.5959 35.7203 16.8111C35.3975 17.0532 34.9941 17.0532 34.6444 16.8649L30.4753 14.4172C30.3408 14.3365 30.1794 14.3365 30.0449 14.4172L25.8757 16.838C25.7144 16.9187 25.553 16.9725 25.3916 16.9725Z" fill="#FFE336"/>
<path d="M46.7718 16.9725C46.5835 16.9725 46.3684 16.9187 46.207 16.7842C45.8842 16.5421 45.7497 16.1655 45.8304 15.789L46.8794 11.055C46.9063 10.8936 46.8525 10.7591 46.7449 10.6515L43.0868 7.42377C42.791 7.1548 42.6834 6.75133 42.8179 6.40166C42.9524 6.02509 43.2482 5.75612 43.6517 5.72922L48.4664 5.27196C48.6278 5.24506 48.7623 5.16436 48.8161 5.02988L50.7527 0.59175C50.9141 0.24208 51.2638 0 51.6403 0C52.0438 0 52.3935 0.215182 52.5279 0.59175L54.4646 5.02988C54.5184 5.16436 54.6529 5.27196 54.8143 5.27196L59.6289 5.72922C60.0324 5.75612 60.3552 6.02509 60.4628 6.40166C60.5973 6.77823 60.4897 7.18169 60.1938 7.45067L56.5626 10.6784C56.455 10.786 56.4012 10.9474 56.4281 11.0819L57.4771 15.8159C57.5578 16.1924 57.4233 16.5959 57.1006 16.8111C56.7778 17.0532 56.3743 17.0532 56.0247 16.8649L51.8555 14.4172C51.721 14.3365 51.5596 14.3365 51.4251 14.4172L47.256 16.838C47.0946 16.9187 46.9332 16.9725 46.7718 16.9725Z" fill="#FFE336"/>
<path d="M68.1523 16.9725C67.964 16.9725 67.7489 16.9187 67.5875 16.7842C67.2647 16.5421 67.1302 16.1655 67.2109 15.789L68.2599 11.055C68.2868 10.8936 68.233 10.7591 68.1254 10.6515L64.4673 7.42377C64.1715 7.1548 64.0639 6.75133 64.1984 6.40166C64.3328 6.02509 64.6287 5.75612 65.0322 5.72922L69.8469 5.27196C70.0083 5.24506 70.1428 5.16436 70.1966 5.02988L72.1332 0.59175C72.2946 0.24208 72.6442 0 73.0208 0C73.4243 0 73.774 0.215182 73.9084 0.59175L75.8451 5.02988C75.8989 5.16436 76.0334 5.27196 76.1947 5.27196L81.0094 5.72922C81.4129 5.75612 81.7357 6.02509 81.8433 6.40166C81.9778 6.77823 81.8702 7.18169 81.5743 7.45067L77.9431 10.6784C77.8355 10.786 77.7817 10.9474 77.8086 11.0819L78.8576 15.8159C78.9383 16.1924 78.8038 16.5959 78.4811 16.8111C78.1583 17.0532 77.7548 17.0532 77.4051 16.8649L73.236 14.4172C73.1015 14.3365 72.9401 14.3365 72.8056 14.4172L68.6365 16.838C68.4751 16.9187 68.3137 16.9725 68.1523 16.9725Z" fill="#FFE336"/>
<path d="M89.5326 16.9725C89.3443 16.9725 89.1291 16.9187 88.9677 16.7842C88.645 16.5421 88.5105 16.1655 88.5912 15.789L89.6402 11.055C89.6671 10.8936 89.6133 10.7591 89.5057 10.6515L85.8476 7.42377C85.5517 7.1548 85.4441 6.75133 85.5786 6.40166C85.7131 6.02509 86.009 5.75612 86.4124 5.72922L91.2271 5.27196C91.3885 5.24506 91.523 5.16436 91.5768 5.02988L93.5134 0.59175C93.6748 0.24208 94.0245 0 94.4011 0C94.8045 0 95.1542 0.215182 95.2887 0.59175L97.2253 5.02988C97.2791 5.16436 97.4136 5.27196 97.575 5.27196L102.39 5.72922C102.793 5.75612 103.116 6.02509 103.224 6.40166C103.358 6.77823 103.25 7.18169 102.955 7.45067L99.3234 10.6784C99.2158 10.786 99.162 10.9474 99.1889 11.0819L100.238 15.8159C100.319 16.1924 100.184 16.5959 99.8613 16.8111C99.5385 17.0532 99.1351 17.0532 98.7854 16.8649L94.6162 14.4172C94.4818 14.3365 94.3204 14.3365 94.1859 14.4172L90.0167 16.838C89.8553 16.9187 89.694 16.9725 89.5326 16.9725Z" fill="#FFE336"/>
</svg>
