<svg width="20" height="17" viewBox="0 0 20 17" fill="none" xmlns="http://www.w3.org/2000/svg">
<mask id="mask0" mask-type="alpha" maskUnits="userSpaceOnUse" x="0" y="-1" width="20" height="18">
<path fill-rule="evenodd" clip-rule="evenodd" d="M11.037 1.11502C9.97 2.11702 9.518 3.61102 9.848 5.03502C6.55 4.87002 3.476 3.31202 1.392 0.749023C0.303 2.62302 0.859 5.02302 2.662 6.22602C2.009 6.20602 1.37 6.03102 0.8 5.71302V5.76502C0.8 7.71802 2.177 9.40002 4.091 9.78802C3.489 9.95302 2.854 9.97602 2.239 9.85802C2.776 11.529 4.317 12.673 6.073 12.707C4.62 13.848 2.825 14.469 0.976 14.467C0.65 14.467 0.325 14.447 0 14.408C1.876 15.613 4.059 16.251 6.29 16.248V16.251C13.836 16.251 17.965 9.99802 17.965 4.57602C17.965 4.39802 17.965 4.22102 17.952 4.04502C18.756 3.46402 19.45 2.74502 20 1.92202C19.251 2.25402 18.456 2.47102 17.642 2.56702C18.499 2.05502 19.141 1.24702 19.448 0.297023C18.641 0.776023 17.76 1.11302 16.84 1.29402C16.033 0.433023 14.941 -0.000976562 13.849 -0.000976562C12.839 -0.000976562 11.83 0.369024 11.037 1.11502Z" fill="white"/>
</mask>
<g mask="url(#mask0)">
<path fill-rule="evenodd" clip-rule="evenodd" d="M-5 21.251H25V-5H-5V21.251Z" fill="white"/>
</g>
</svg>
