<svg width="1825" height="1130" viewBox="0 0 1825 1130" fill="none" xmlns="http://www.w3.org/2000/svg">
<g clip-path="url(#clip0)">
<path fill-rule="evenodd" clip-rule="evenodd" d="M331.641 651.919C331.785 651.921 331.926 651.967 332.045 652.049C332.164 652.131 332.255 652.246 332.309 652.38C332.362 652.515 332.375 652.662 332.345 652.803C332.315 652.944 332.244 653.074 332.141 653.175C332.038 653.276 331.908 653.345 331.766 653.372C331.624 653.399 331.477 653.383 331.344 653.327C331.211 653.271 331.097 653.177 331.017 653.057C330.937 652.937 330.895 652.795 330.895 652.651C330.896 652.554 330.916 652.458 330.954 652.369C330.992 652.279 331.047 652.198 331.116 652.13C331.186 652.062 331.268 652.009 331.358 651.972C331.448 651.936 331.544 651.918 331.641 651.919ZM704.341 1062.78C704.485 1062.79 704.626 1062.83 704.745 1062.91C704.863 1063 704.955 1063.11 705.009 1063.25C705.062 1063.38 705.075 1063.53 705.045 1063.67C705.016 1063.81 704.945 1063.94 704.842 1064.04C704.739 1064.14 704.609 1064.21 704.467 1064.24C704.325 1064.27 704.178 1064.25 704.045 1064.2C703.911 1064.14 703.797 1064.05 703.716 1063.93C703.636 1063.81 703.592 1063.67 703.591 1063.52C703.591 1063.42 703.611 1063.33 703.648 1063.24C703.686 1063.15 703.742 1063.06 703.812 1062.99C703.882 1062.92 703.965 1062.87 704.057 1062.83C704.148 1062.8 704.246 1062.78 704.344 1062.78L704.341 1062.78ZM3.92698 138.084C4.20684 138.092 4.478 138.183 4.70661 138.345C4.93523 138.506 5.11117 138.732 5.21246 138.993C5.31375 139.254 5.33591 139.539 5.27616 139.812C5.21642 140.086 5.07742 140.336 4.87652 140.531C4.67563 140.726 4.42174 140.857 4.14655 140.909C3.87137 140.96 3.58708 140.93 3.32919 140.821C3.0713 140.712 2.85124 140.529 2.69648 140.296C2.54171 140.063 2.45911 139.789 2.45898 139.509C2.46478 139.125 2.62267 138.76 2.89796 138.492C3.17324 138.225 3.54337 138.078 3.92698 138.084ZM1582.48 149.469C1582.4 149.42 1582.34 149.354 1582.29 149.276C1582.24 149.199 1582.21 149.112 1582.2 149.022C1582.2 148.931 1582.21 148.84 1582.24 148.755C1582.27 148.669 1582.32 148.591 1582.38 148.527C1582.51 148.369 1582.68 148.259 1582.88 148.215C1583.07 148.171 1583.28 148.196 1583.46 148.285C1583.54 148.333 1583.6 148.398 1583.65 148.476C1583.7 148.553 1583.73 148.641 1583.74 148.731C1583.75 148.822 1583.74 148.914 1583.71 149C1583.68 149.086 1583.63 149.163 1583.56 149.227C1583.43 149.385 1583.26 149.495 1583.06 149.539C1582.87 149.583 1582.66 149.558 1582.48 149.469ZM561.817 214.68C561.738 214.631 561.671 214.565 561.62 214.486C561.57 214.408 561.539 214.319 561.528 214.227C561.516 214.134 561.526 214.04 561.557 213.952C561.587 213.864 561.637 213.784 561.702 213.718C561.831 213.557 562.012 213.446 562.214 213.402C562.415 213.359 562.626 213.386 562.81 213.479C562.889 213.528 562.956 213.594 563.007 213.672C563.057 213.751 563.088 213.84 563.099 213.932C563.111 214.025 563.101 214.118 563.07 214.206C563.04 214.295 562.99 214.375 562.925 214.441C562.796 214.602 562.615 214.713 562.413 214.757C562.212 214.8 562.001 214.773 561.817 214.68ZM667.374 60.1429C667.295 60.0962 667.228 60.0323 667.177 59.9559C667.126 59.8794 667.093 59.7925 667.081 59.7016C667.068 59.6107 667.077 59.5182 667.105 59.4309C667.134 59.3437 667.181 59.264 667.245 59.1979C667.374 59.0413 667.554 58.9339 667.753 58.8935C667.952 58.8531 668.159 58.8822 668.339 58.9759C668.418 59.0227 668.485 59.0867 668.536 59.1631C668.586 59.2395 668.619 59.3264 668.632 59.4172C668.644 59.5081 668.636 59.6006 668.607 59.6878C668.579 59.775 668.531 59.8547 668.468 59.9209C668.339 60.0774 668.159 60.1849 667.96 60.2253C667.761 60.2657 667.554 60.2366 667.374 60.1429ZM1037.54 329.732C1037.62 329.684 1037.68 329.618 1037.73 329.541C1037.78 329.464 1037.81 329.376 1037.82 329.285C1037.83 329.194 1037.82 329.103 1037.79 329.017C1037.76 328.931 1037.71 328.853 1037.64 328.79C1037.51 328.632 1037.34 328.522 1037.14 328.478C1036.95 328.434 1036.74 328.458 1036.56 328.547C1036.48 328.596 1036.42 328.662 1036.37 328.739C1036.32 328.817 1036.29 328.904 1036.28 328.994C1036.28 329.084 1036.29 329.176 1036.32 329.261C1036.35 329.347 1036.4 329.425 1036.46 329.489C1036.59 329.646 1036.76 329.756 1036.96 329.8C1037.15 329.845 1037.36 329.82 1037.54 329.732ZM86.34 361.396C86.497 361.3 86.6301 361.169 86.7293 361.014C86.8285 360.859 86.8913 360.683 86.9128 360.5C86.9344 360.317 86.9142 360.132 86.8538 359.958C86.7933 359.784 86.6943 359.626 86.564 359.496C86.309 359.18 85.9535 358.96 85.5565 358.874C85.1595 358.788 84.745 358.841 84.382 359.023C84.2259 359.119 84.0935 359.25 83.9949 359.404C83.8962 359.559 83.8338 359.734 83.8123 359.916C83.7907 360.098 83.8107 360.283 83.8705 360.457C83.9304 360.63 84.0286 360.788 84.158 360.918C84.4125 361.236 84.7685 361.457 85.1664 361.544C85.5643 361.631 85.98 361.579 86.344 361.396H86.34ZM12.64 565.953C12.7181 565.905 12.7844 565.839 12.8337 565.762C12.8831 565.685 12.9144 565.597 12.9251 565.506C12.9359 565.415 12.9259 565.322 12.896 565.236C12.866 565.149 12.8167 565.07 12.752 565.005C12.6245 564.847 12.4467 564.737 12.2483 564.694C12.0498 564.651 11.8426 564.677 11.661 564.768C11.5828 564.816 11.5166 564.881 11.4672 564.959C11.4178 565.036 11.3866 565.124 11.3758 565.215C11.3651 565.306 11.375 565.398 11.405 565.485C11.435 565.572 11.4842 565.651 11.549 565.716C11.6765 565.874 11.8542 565.984 12.0527 566.027C12.2512 566.07 12.4584 566.044 12.64 565.953ZM116.286 806.37C116.362 806.321 116.426 806.255 116.473 806.178C116.52 806.101 116.549 806.014 116.558 805.924C116.567 805.834 116.555 805.743 116.524 805.658C116.493 805.573 116.443 805.497 116.378 805.434C116.254 805.277 116.081 805.166 115.886 805.121C115.691 805.076 115.487 805.099 115.307 805.186C115.231 805.235 115.167 805.3 115.12 805.378C115.073 805.455 115.044 805.542 115.035 805.632C115.026 805.722 115.037 805.813 115.069 805.897C115.1 805.982 115.15 806.059 115.215 806.122C115.338 806.279 115.512 806.389 115.707 806.435C115.902 806.48 116.106 806.457 116.286 806.37ZM1354.44 752.575C1354.72 752.584 1354.99 752.675 1355.22 752.837C1355.45 752.999 1355.62 753.224 1355.72 753.485C1355.82 753.746 1355.85 754.031 1355.79 754.305C1355.73 754.578 1355.59 754.828 1355.39 755.023C1355.19 755.217 1354.93 755.349 1354.66 755.4C1354.38 755.451 1354.1 755.42 1353.84 755.311C1353.58 755.202 1353.36 755.019 1353.21 754.786C1353.05 754.553 1352.97 754.279 1352.97 753.999C1352.97 753.808 1353.01 753.62 1353.09 753.445C1353.16 753.27 1353.27 753.112 1353.41 752.979C1353.54 752.846 1353.71 752.742 1353.88 752.672C1354.06 752.603 1354.25 752.569 1354.44 752.573V752.575ZM717.09 462.342C717.373 462.346 717.648 462.434 717.881 462.594C718.115 462.754 718.295 462.98 718.401 463.242C718.506 463.505 718.532 463.793 718.474 464.069C718.416 464.346 718.278 464.6 718.076 464.799C717.875 464.997 717.619 465.132 717.341 465.186C717.064 465.239 716.776 465.21 716.515 465.101C716.254 464.991 716.031 464.807 715.874 464.572C715.718 464.336 715.634 464.06 715.634 463.777C715.635 463.587 715.674 463.399 715.748 463.224C715.822 463.05 715.929 462.891 716.065 462.758C716.2 462.624 716.36 462.519 716.536 462.448C716.712 462.376 716.9 462.34 717.09 462.342ZM253.078 294.125C253.365 294.125 253.646 294.21 253.885 294.37C254.124 294.529 254.31 294.756 254.42 295.022C254.53 295.287 254.559 295.58 254.503 295.861C254.447 296.143 254.309 296.402 254.105 296.605C253.902 296.809 253.643 296.947 253.361 297.003C253.08 297.059 252.787 297.03 252.522 296.92C252.256 296.81 252.03 296.624 251.87 296.385C251.71 296.146 251.625 295.865 251.625 295.578C251.625 295.193 251.778 294.823 252.051 294.55C252.323 294.278 252.693 294.125 253.078 294.125ZM1237.96 235.301C1237.88 235.252 1237.82 235.186 1237.77 235.108C1237.72 235.031 1237.69 234.944 1237.68 234.854C1237.68 234.763 1237.69 234.672 1237.72 234.587C1237.75 234.501 1237.8 234.423 1237.86 234.359C1237.99 234.202 1238.16 234.092 1238.36 234.048C1238.55 234.004 1238.76 234.028 1238.94 234.117C1239.02 234.165 1239.08 234.23 1239.13 234.308C1239.18 234.385 1239.21 234.473 1239.22 234.563C1239.23 234.654 1239.22 234.746 1239.19 234.832C1239.16 234.918 1239.11 234.995 1239.04 235.059C1238.91 235.217 1238.74 235.327 1238.54 235.371C1238.35 235.415 1238.14 235.39 1237.96 235.301ZM1623.36 511.348C1623.28 511.3 1623.22 511.236 1623.17 511.16C1623.12 511.084 1623.09 510.998 1623.08 510.908C1623.07 510.818 1623.08 510.727 1623.11 510.642C1623.14 510.557 1623.19 510.479 1623.25 510.415C1623.37 510.259 1623.55 510.151 1623.74 510.109C1623.94 510.066 1624.14 510.091 1624.32 510.18C1624.4 510.227 1624.46 510.292 1624.51 510.368C1624.56 510.444 1624.59 510.53 1624.6 510.62C1624.61 510.71 1624.6 510.801 1624.57 510.887C1624.54 510.972 1624.49 511.05 1624.43 511.114C1624.31 511.271 1624.13 511.38 1623.94 511.424C1623.74 511.467 1623.54 511.443 1623.36 511.354V511.348ZM1236.24 476.334C1236.16 476.285 1236.1 476.221 1236.05 476.144C1236.01 476.068 1235.97 475.982 1235.96 475.893C1235.95 475.804 1235.96 475.713 1235.99 475.628C1236.02 475.543 1236.07 475.465 1236.13 475.4C1236.26 475.244 1236.43 475.136 1236.63 475.094C1236.83 475.051 1237.03 475.077 1237.21 475.166C1237.29 475.214 1237.35 475.279 1237.4 475.355C1237.44 475.432 1237.47 475.518 1237.49 475.607C1237.5 475.696 1237.49 475.787 1237.46 475.872C1237.43 475.957 1237.38 476.035 1237.32 476.1C1237.19 476.257 1237.02 476.366 1236.82 476.409C1236.63 476.453 1236.42 476.429 1236.24 476.34V476.334ZM764.12 713.786C764.198 713.738 764.264 713.672 764.313 713.595C764.363 713.518 764.394 713.43 764.405 713.339C764.415 713.248 764.405 713.155 764.376 713.069C764.346 712.982 764.297 712.903 764.232 712.838C764.105 712.68 763.927 712.57 763.728 712.527C763.53 712.484 763.322 712.51 763.141 712.602C763.063 712.65 762.997 712.715 762.948 712.793C762.898 712.87 762.867 712.957 762.856 713.048C762.846 713.139 762.856 713.232 762.885 713.318C762.915 713.405 762.964 713.484 763.029 713.549C763.157 713.707 763.335 713.817 763.533 713.86C763.732 713.902 763.939 713.876 764.121 713.785L764.12 713.786ZM118.718 1081.06C118.795 1081.01 118.86 1080.95 118.908 1080.87C118.957 1080.79 118.987 1080.71 118.998 1080.62C119.008 1080.53 118.998 1080.43 118.969 1080.35C118.94 1080.26 118.892 1080.18 118.828 1080.12C118.703 1079.96 118.528 1079.85 118.332 1079.81C118.136 1079.77 117.932 1079.8 117.754 1079.89C117.678 1079.94 117.613 1080 117.565 1080.08C117.517 1080.15 117.486 1080.24 117.476 1080.33C117.465 1080.42 117.475 1080.51 117.504 1080.59C117.533 1080.68 117.581 1080.75 117.644 1080.82C117.77 1080.97 117.944 1081.08 118.139 1081.13C118.334 1081.17 118.538 1081.15 118.718 1081.06ZM1766.26 832.436C1766.31 832.257 1766.33 832.069 1766.3 831.885C1766.27 831.7 1766.21 831.524 1766.11 831.366C1766.01 831.208 1765.88 831.074 1765.72 830.971C1765.57 830.867 1765.39 830.798 1765.21 830.768C1764.84 830.609 1764.43 830.585 1764.04 830.7C1763.66 830.814 1763.32 831.059 1763.1 831.394C1763.05 831.573 1763.03 831.761 1763.06 831.946C1763.08 832.131 1763.15 832.308 1763.25 832.466C1763.35 832.624 1763.48 832.759 1763.63 832.862C1763.79 832.965 1763.97 833.033 1764.15 833.063C1764.52 833.22 1764.93 833.244 1765.32 833.129C1765.7 833.015 1766.04 832.77 1766.26 832.436ZM1824.15 540.672C1824.07 540.719 1824 540.784 1823.95 540.861C1823.9 540.938 1823.87 541.025 1823.86 541.117C1823.85 541.208 1823.86 541.301 1823.89 541.388C1823.92 541.475 1823.96 541.555 1824.03 541.62L1824.15 540.672ZM1690.93 423.363C1691.09 423.268 1691.22 423.139 1691.32 422.986C1691.42 422.833 1691.48 422.66 1691.5 422.479C1691.52 422.298 1691.5 422.115 1691.44 421.942C1691.39 421.77 1691.29 421.613 1691.16 421.484C1690.91 421.172 1690.55 420.956 1690.16 420.873C1689.77 420.789 1689.36 420.844 1689 421.027C1688.84 421.121 1688.71 421.249 1688.61 421.402C1688.51 421.554 1688.45 421.727 1688.42 421.908C1688.4 422.089 1688.42 422.273 1688.48 422.445C1688.54 422.618 1688.63 422.776 1688.76 422.906C1689.01 423.218 1689.37 423.434 1689.76 423.517C1690.16 423.601 1690.57 423.546 1690.93 423.363ZM1111.23 24.6289C1111.15 24.5792 1111.08 24.5141 1111.02 24.4373C1110.97 24.3605 1110.93 24.2735 1110.91 24.1813C1110.89 24.0892 1110.88 23.9937 1110.9 23.9004C1110.92 23.8072 1110.95 23.7179 1111 23.6379C1111.1 23.4751 1111.27 23.3593 1111.46 23.3151C1111.65 23.2709 1111.84 23.3016 1112.01 23.4009C1112.09 23.4498 1112.16 23.5148 1112.22 23.5918C1112.27 23.6689 1112.31 23.7564 1112.33 23.8492C1112.35 23.9419 1112.35 24.0378 1112.34 24.1311C1112.32 24.2244 1112.28 24.3131 1112.23 24.3919C1112.13 24.5548 1111.97 24.671 1111.78 24.7154C1111.59 24.7597 1111.39 24.7287 1111.23 24.6289ZM1338.17 86.7189C1338.42 86.7205 1338.66 86.7958 1338.87 86.9354C1339.08 87.0751 1339.24 87.2727 1339.33 87.5035C1339.42 87.7342 1339.45 87.9877 1339.4 88.232C1339.35 88.4762 1339.23 88.7004 1339.05 88.876C1338.87 89.0517 1338.65 89.1711 1338.41 89.2192C1338.16 89.2672 1337.91 89.2418 1337.68 89.146C1337.45 89.0503 1337.25 88.8885 1337.11 88.6812C1336.97 88.4738 1336.9 88.2301 1336.9 87.9809C1336.9 87.6454 1337.04 87.3242 1337.27 87.0877C1337.51 86.8512 1337.83 86.7186 1338.17 86.7189ZM129.345 39.8539C129.422 39.8063 129.487 39.7419 129.536 39.6656C129.584 39.5893 129.615 39.503 129.625 39.4132C129.636 39.3234 129.626 39.2324 129.596 39.147C129.566 39.0615 129.518 38.9839 129.454 38.9199C129.329 38.7642 129.154 38.656 128.958 38.6135C128.763 38.5709 128.559 38.5965 128.38 38.6859C128.303 38.7335 128.238 38.7978 128.189 38.8741C128.141 38.9504 128.11 39.0367 128.1 39.1265C128.089 39.2164 128.099 39.3074 128.129 39.3928C128.159 39.4782 128.207 39.5559 128.271 39.6199C128.396 39.7756 128.571 39.8837 128.767 39.9263C128.962 39.9689 129.166 39.9433 129.345 39.8539ZM318.045 2.55389C318.201 2.45856 318.333 2.32921 318.432 2.17549C318.531 2.02178 318.594 1.84768 318.617 1.66621C318.639 1.48475 318.62 1.30061 318.561 1.12756C318.502 0.954507 318.404 0.797026 318.276 0.666885C318.021 0.35255 317.666 0.134974 317.271 0.05037C316.875 -0.0342337 316.462 0.019238 316.101 0.201886C315.945 0.29721 315.813 0.426564 315.714 0.580279C315.615 0.733993 315.552 0.908091 315.529 1.08956C315.507 1.27102 315.526 1.45517 315.585 1.62821C315.644 1.80126 315.742 1.95875 315.87 2.08889C316.125 2.40189 316.479 2.61851 316.873 2.70289C317.268 2.78727 317.68 2.73435 318.04 2.55289L318.045 2.55389ZM899.522 1128.36C899.616 1128.36 899.709 1128.38 899.795 1128.41C899.882 1128.45 899.96 1128.5 900.026 1128.57C900.092 1128.64 900.144 1128.72 900.18 1128.8C900.215 1128.89 900.233 1128.98 900.232 1129.08C900.236 1129.17 900.22 1129.27 900.186 1129.36C900.152 1129.45 900.1 1129.53 900.034 1129.6C899.968 1129.67 899.888 1129.72 899.8 1129.76C899.712 1129.8 899.618 1129.82 899.523 1129.82C899.427 1129.82 899.332 1129.8 899.245 1129.76C899.157 1129.72 899.077 1129.67 899.011 1129.6C898.945 1129.53 898.893 1129.45 898.859 1129.36C898.825 1129.27 898.809 1129.17 898.813 1129.08C898.812 1128.98 898.83 1128.89 898.865 1128.8C898.9 1128.72 898.952 1128.64 899.018 1128.57C899.084 1128.5 899.162 1128.45 899.249 1128.41C899.335 1128.38 899.428 1128.36 899.522 1128.36ZM1686.72 1064.4C1686.56 1064.3 1686.43 1064.17 1686.33 1064.02C1686.23 1063.86 1686.17 1063.69 1686.15 1063.5C1686.12 1063.32 1686.14 1063.14 1686.2 1062.96C1686.26 1062.79 1686.36 1062.63 1686.49 1062.5C1686.75 1062.18 1687.1 1061.97 1687.5 1061.88C1687.9 1061.8 1688.31 1061.85 1688.67 1062.03C1688.83 1062.12 1688.96 1062.26 1689.06 1062.41C1689.16 1062.57 1689.22 1062.74 1689.25 1062.92C1689.27 1063.11 1689.25 1063.29 1689.19 1063.47C1689.13 1063.64 1689.03 1063.8 1688.9 1063.93C1688.65 1064.24 1688.29 1064.46 1687.89 1064.55C1687.5 1064.63 1687.08 1064.58 1686.72 1064.4H1686.72ZM1059.9 1080.02C1060.1 1080.02 1060.3 1079.95 1060.46 1079.82C1060.62 1079.69 1060.73 1079.51 1060.77 1079.31C1060.78 1079.22 1060.77 1079.12 1060.74 1079.04C1060.71 1078.95 1060.66 1078.87 1060.59 1078.81C1060.53 1078.74 1060.45 1078.69 1060.36 1078.66C1060.27 1078.63 1060.18 1078.62 1060.09 1078.63C1059.89 1078.63 1059.69 1078.7 1059.53 1078.83C1059.37 1078.96 1059.26 1079.14 1059.22 1079.34C1059.21 1079.43 1059.22 1079.52 1059.25 1079.61C1059.28 1079.7 1059.33 1079.78 1059.4 1079.84C1059.46 1079.91 1059.54 1079.96 1059.63 1079.99C1059.72 1080.02 1059.81 1080.03 1059.9 1080.02ZM536.71 934.708C536.867 934.612 537 934.481 537.099 934.326C537.198 934.171 537.261 933.995 537.283 933.812C537.304 933.63 537.284 933.444 537.224 933.27C537.164 933.096 537.065 932.938 536.935 932.808C536.68 932.492 536.324 932.273 535.927 932.186C535.53 932.1 535.116 932.153 534.753 932.335C534.596 932.431 534.463 932.562 534.364 932.717C534.265 932.872 534.202 933.048 534.181 933.231C534.159 933.413 534.179 933.599 534.24 933.773C534.3 933.947 534.399 934.105 534.529 934.235C534.784 934.551 535.141 934.77 535.538 934.855C535.936 934.941 536.35 934.887 536.713 934.704L536.71 934.708ZM538.664 1119.69C538.743 1119.64 538.811 1119.58 538.861 1119.5C538.911 1119.42 538.943 1119.33 538.954 1119.24C538.965 1119.15 538.955 1119.05 538.925 1118.97C538.894 1118.88 538.845 1118.8 538.779 1118.73C538.651 1118.57 538.47 1118.46 538.269 1118.41C538.067 1118.37 537.856 1118.4 537.672 1118.49C537.593 1118.54 537.525 1118.61 537.475 1118.69C537.425 1118.76 537.393 1118.85 537.382 1118.95C537.371 1119.04 537.381 1119.13 537.411 1119.22C537.442 1119.31 537.491 1119.39 537.557 1119.45C537.687 1119.61 537.868 1119.72 538.07 1119.77C538.272 1119.81 538.483 1119.78 538.667 1119.69L538.664 1119.69Z" fill="white"/>
</g>
<defs>
<clipPath id="clip0">
<rect width="1824.16" height="1129.81" fill="white"/>
</clipPath>
</defs>
</svg>
