<svg width="1825" height="1130" viewBox="0 0 1825 1130" fill="none" xmlns="http://www.w3.org/2000/svg">
<path fill-rule="evenodd" clip-rule="evenodd" d="M509.153 522.053C509.297 522.05 509.438 522.09 509.558 522.168C509.679 522.246 509.774 522.358 509.83 522.49C509.887 522.622 509.903 522.768 509.877 522.909C509.85 523.05 509.782 523.18 509.682 523.283C509.581 523.385 509.452 523.455 509.311 523.484C509.171 523.513 509.025 523.499 508.892 523.445C508.759 523.39 508.645 523.297 508.565 523.178C508.486 523.059 508.443 522.918 508.443 522.775C508.442 522.681 508.46 522.588 508.495 522.5C508.531 522.413 508.583 522.334 508.649 522.267C508.715 522.2 508.793 522.146 508.88 522.11C508.966 522.073 509.059 522.054 509.153 522.053ZM704.341 1062.78C704.486 1062.79 704.626 1062.83 704.745 1062.91C704.864 1063 704.955 1063.11 705.009 1063.25C705.062 1063.38 705.075 1063.53 705.045 1063.67C705.016 1063.81 704.945 1063.94 704.842 1064.04C704.739 1064.14 704.609 1064.21 704.467 1064.24C704.325 1064.27 704.178 1064.25 704.045 1064.2C703.911 1064.14 703.797 1064.05 703.716 1063.93C703.636 1063.81 703.592 1063.67 703.591 1063.52C703.591 1063.42 703.611 1063.33 703.649 1063.24C703.687 1063.15 703.742 1063.06 703.812 1062.99C703.882 1062.92 703.965 1062.87 704.057 1062.83C704.148 1062.8 704.246 1062.78 704.344 1062.78L704.341 1062.78ZM116.286 806.37C116.362 806.321 116.426 806.255 116.473 806.178C116.521 806.101 116.55 806.014 116.558 805.924C116.567 805.834 116.556 805.743 116.524 805.658C116.493 805.573 116.443 805.497 116.378 805.434C116.255 805.277 116.081 805.166 115.886 805.121C115.692 805.076 115.487 805.099 115.307 805.186C115.231 805.235 115.167 805.3 115.12 805.378C115.073 805.455 115.044 805.542 115.035 805.632C115.026 805.722 115.038 805.813 115.069 805.897C115.1 805.982 115.15 806.059 115.215 806.122C115.339 806.279 115.512 806.389 115.707 806.435C115.902 806.48 116.106 806.457 116.286 806.37ZM1354.44 752.575C1354.72 752.584 1354.99 752.675 1355.22 752.837C1355.45 752.999 1355.62 753.224 1355.72 753.485C1355.83 753.746 1355.85 754.031 1355.79 754.305C1355.73 754.578 1355.59 754.828 1355.39 755.023C1355.19 755.217 1354.93 755.349 1354.66 755.4C1354.38 755.451 1354.1 755.42 1353.84 755.311C1353.58 755.202 1353.36 755.019 1353.21 754.786C1353.05 754.553 1352.97 754.279 1352.97 753.999C1352.97 753.808 1353.01 753.62 1353.09 753.445C1353.16 753.27 1353.27 753.112 1353.41 752.979C1353.54 752.846 1353.71 752.742 1353.88 752.672C1354.06 752.603 1354.25 752.569 1354.44 752.573V752.575ZM22.7782 1065.21C22.8575 1065.16 22.9248 1065.09 22.9751 1065.02C23.0253 1064.94 23.0572 1064.85 23.0682 1064.76C23.0793 1064.66 23.0693 1064.57 23.039 1064.48C23.0087 1064.39 22.9588 1064.31 22.8932 1064.25C22.764 1064.09 22.5834 1063.98 22.3817 1063.93C22.18 1063.89 21.9694 1063.92 21.7852 1064.01C21.7058 1064.06 21.6385 1064.12 21.5882 1064.2C21.538 1064.28 21.5062 1064.37 21.4951 1064.46C21.484 1064.55 21.494 1064.65 21.5244 1064.73C21.5547 1064.82 21.6045 1064.9 21.6702 1064.97C21.7984 1065.13 21.979 1065.24 22.1811 1065.29C22.3832 1065.33 22.5943 1065.3 22.7782 1065.21ZM1690.93 423.363C1691.09 423.268 1691.22 423.139 1691.32 422.986C1691.42 422.833 1691.48 422.66 1691.5 422.479C1691.52 422.298 1691.5 422.115 1691.44 421.942C1691.39 421.77 1691.29 421.613 1691.16 421.484C1690.91 421.172 1690.55 420.956 1690.16 420.873C1689.77 420.789 1689.36 420.844 1689 421.027C1688.84 421.121 1688.71 421.249 1688.61 421.402C1688.51 421.554 1688.45 421.727 1688.43 421.908C1688.4 422.089 1688.42 422.273 1688.48 422.445C1688.54 422.618 1688.63 422.776 1688.76 422.906C1689.02 423.218 1689.37 423.434 1689.76 423.517C1690.16 423.601 1690.57 423.546 1690.93 423.363ZM1111.23 24.6289C1111.15 24.5792 1111.08 24.5141 1111.02 24.4373C1110.97 24.3605 1110.93 24.2735 1110.91 24.1813C1110.89 24.0892 1110.88 23.9937 1110.9 23.9004C1110.92 23.8072 1110.95 23.7179 1111 23.6379C1111.1 23.4751 1111.27 23.3593 1111.46 23.3151C1111.65 23.2709 1111.84 23.3016 1112.01 23.4009C1112.09 23.4498 1112.16 23.5148 1112.22 23.5918C1112.27 23.6689 1112.31 23.7564 1112.33 23.8492C1112.35 23.9419 1112.35 24.0378 1112.34 24.1311C1112.32 24.2244 1112.28 24.3131 1112.23 24.3919C1112.13 24.5548 1111.97 24.671 1111.78 24.7154C1111.59 24.7597 1111.39 24.7287 1111.23 24.6289ZM318.045 2.55389C318.201 2.45856 318.334 2.32921 318.433 2.17549C318.532 2.02178 318.594 1.84768 318.617 1.66621C318.639 1.48475 318.62 1.30061 318.561 1.12756C318.502 0.954507 318.405 0.797026 318.276 0.666885C318.021 0.35255 317.666 0.134974 317.271 0.05037C316.875 -0.0342337 316.462 0.019238 316.101 0.201886C315.945 0.29721 315.813 0.426564 315.714 0.580279C315.615 0.733993 315.552 0.908091 315.53 1.08956C315.507 1.27102 315.526 1.45517 315.585 1.62821C315.644 1.80126 315.742 1.95875 315.87 2.08889C316.125 2.40189 316.479 2.61851 316.873 2.70289C317.268 2.78727 317.68 2.73435 318.04 2.55289L318.045 2.55389ZM140.572 224.399C140.652 224.35 140.719 224.284 140.769 224.206C140.819 224.127 140.851 224.038 140.862 223.946C140.873 223.853 140.863 223.759 140.833 223.671C140.803 223.583 140.753 223.503 140.687 223.437C140.558 223.276 140.377 223.165 140.176 223.121C139.974 223.078 139.764 223.105 139.58 223.198C139.501 223.247 139.433 223.313 139.383 223.391C139.333 223.469 139.301 223.558 139.29 223.651C139.278 223.743 139.288 223.837 139.319 223.925C139.349 224.014 139.399 224.094 139.464 224.16C139.593 224.321 139.774 224.432 139.976 224.476C140.178 224.519 140.388 224.492 140.572 224.399ZM1564.35 45.3639C1564.41 45.1624 1564.43 44.9505 1564.4 44.7423C1564.37 44.5341 1564.3 44.3343 1564.18 44.1562C1564.07 43.9781 1563.93 43.8258 1563.75 43.7094C1563.58 43.593 1563.38 43.5151 1563.17 43.4809C1562.76 43.3052 1562.29 43.2805 1561.86 43.4112C1561.43 43.5418 1561.06 43.8195 1560.81 44.1959C1560.75 44.3967 1560.73 44.6082 1560.76 44.8162C1560.79 45.0242 1560.86 45.224 1560.97 45.4023C1561.08 45.5805 1561.23 45.733 1561.4 45.8497C1561.58 45.9664 1561.77 46.0445 1561.98 46.0789C1562.4 46.2552 1562.86 46.2803 1563.29 46.1497C1563.73 46.0191 1564.1 45.7411 1564.35 45.3639ZM1686.72 1064.4C1686.57 1064.3 1686.43 1064.17 1686.33 1064.02C1686.23 1063.86 1686.17 1063.69 1686.15 1063.5C1686.13 1063.32 1686.14 1063.14 1686.2 1062.96C1686.26 1062.79 1686.36 1062.63 1686.49 1062.5C1686.75 1062.18 1687.1 1061.97 1687.5 1061.88C1687.9 1061.8 1688.31 1061.85 1688.67 1062.03C1688.83 1062.12 1688.96 1062.26 1689.06 1062.41C1689.16 1062.57 1689.22 1062.74 1689.25 1062.92C1689.27 1063.11 1689.25 1063.29 1689.19 1063.47C1689.13 1063.64 1689.03 1063.8 1688.9 1063.93C1688.65 1064.24 1688.29 1064.46 1687.89 1064.55C1687.5 1064.63 1687.08 1064.58 1686.72 1064.4H1686.72ZM1059.9 1080.02C1060.1 1080.02 1060.3 1079.95 1060.46 1079.82C1060.62 1079.69 1060.73 1079.51 1060.77 1079.31C1060.78 1079.22 1060.77 1079.12 1060.74 1079.04C1060.71 1078.95 1060.66 1078.87 1060.59 1078.81C1060.53 1078.74 1060.45 1078.69 1060.36 1078.66C1060.27 1078.63 1060.18 1078.62 1060.09 1078.63C1059.89 1078.63 1059.69 1078.7 1059.53 1078.83C1059.37 1078.96 1059.26 1079.14 1059.22 1079.34C1059.21 1079.43 1059.22 1079.52 1059.25 1079.61C1059.28 1079.7 1059.33 1079.78 1059.4 1079.84C1059.46 1079.91 1059.54 1079.96 1059.63 1079.99C1059.72 1080.02 1059.81 1080.03 1059.9 1080.02Z" fill="white"/>
</svg>
