<svg width="1825" height="1130" viewBox="0 0 1825 1130" fill="none" xmlns="http://www.w3.org/2000/svg">
<g clip-path="url(#clip0)">
<path fill-rule="evenodd" clip-rule="evenodd" d="M331.641 651.919C331.785 651.922 331.926 651.967 332.045 652.049C332.163 652.131 332.255 652.246 332.309 652.381C332.362 652.515 332.375 652.662 332.345 652.803C332.315 652.944 332.244 653.074 332.141 653.175C332.038 653.276 331.907 653.345 331.766 653.372C331.624 653.399 331.477 653.384 331.344 653.328C331.211 653.272 331.097 653.177 331.017 653.057C330.937 652.937 330.895 652.795 330.895 652.651C330.896 652.554 330.916 652.458 330.954 652.369C330.992 652.279 331.047 652.198 331.116 652.13C331.185 652.062 331.267 652.009 331.357 651.973C331.447 651.936 331.544 651.918 331.641 651.919ZM704.341 712.783C704.485 712.786 704.626 712.831 704.744 712.914C704.863 712.996 704.955 713.112 705.009 713.246C705.062 713.38 705.075 713.527 705.045 713.669C705.016 713.81 704.945 713.94 704.842 714.041C704.739 714.143 704.609 714.211 704.467 714.239C704.325 714.267 704.178 714.252 704.045 714.197C703.911 714.142 703.797 714.048 703.716 713.928C703.635 713.808 703.592 713.667 703.591 713.523C703.591 713.424 703.61 713.327 703.648 713.236C703.686 713.145 703.742 713.063 703.812 712.994C703.882 712.924 703.965 712.87 704.056 712.833C704.148 712.796 704.245 712.778 704.344 712.779L704.341 712.783ZM1582.48 149.469C1582.4 149.42 1582.34 149.354 1582.29 149.277C1582.24 149.199 1582.21 149.112 1582.2 149.022C1582.2 148.932 1582.21 148.84 1582.24 148.755C1582.27 148.669 1582.32 148.591 1582.38 148.527C1582.51 148.369 1582.68 148.259 1582.88 148.215C1583.07 148.171 1583.28 148.196 1583.46 148.285C1583.54 148.333 1583.6 148.398 1583.65 148.476C1583.7 148.553 1583.73 148.641 1583.74 148.731C1583.75 148.822 1583.74 148.914 1583.71 149C1583.68 149.086 1583.63 149.164 1583.56 149.227C1583.43 149.385 1583.26 149.495 1583.06 149.539C1582.87 149.583 1582.66 149.558 1582.48 149.469ZM1037.54 329.732C1037.62 329.684 1037.68 329.618 1037.73 329.541C1037.78 329.464 1037.81 329.376 1037.82 329.285C1037.83 329.195 1037.82 329.103 1037.79 329.017C1037.76 328.931 1037.71 328.853 1037.64 328.79C1037.51 328.632 1037.34 328.522 1037.14 328.478C1036.95 328.434 1036.74 328.458 1036.56 328.547C1036.48 328.596 1036.42 328.662 1036.37 328.739C1036.32 328.817 1036.29 328.904 1036.28 328.994C1036.28 329.084 1036.29 329.176 1036.32 329.261C1036.35 329.347 1036.4 329.425 1036.46 329.489C1036.59 329.646 1036.76 329.756 1036.96 329.8C1037.15 329.845 1037.36 329.82 1037.54 329.732ZM86.3398 361.396C86.4968 361.3 86.6299 361.169 86.7291 361.014C86.8284 360.859 86.8911 360.683 86.9127 360.5C86.9342 360.317 86.914 360.132 86.8536 359.958C86.7932 359.784 86.6941 359.626 86.5638 359.496C86.3089 359.18 85.9533 358.96 85.5563 358.874C85.1593 358.788 84.7449 358.841 84.3818 359.023C84.2257 359.119 84.0934 359.25 83.9947 359.404C83.8961 359.559 83.8337 359.734 83.8121 359.916C83.7906 360.099 83.8105 360.283 83.8704 360.457C83.9302 360.63 84.0285 360.788 84.1578 360.918C84.4123 361.236 84.7683 361.457 85.1662 361.544C85.5641 361.631 85.9798 361.579 86.3438 361.396H86.3398ZM1354.44 752.575C1354.72 752.584 1354.99 752.675 1355.22 752.837C1355.45 752.999 1355.62 753.224 1355.72 753.485C1355.82 753.746 1355.85 754.031 1355.79 754.305C1355.73 754.578 1355.59 754.828 1355.39 755.023C1355.19 755.218 1354.93 755.349 1354.66 755.4C1354.38 755.451 1354.1 755.421 1353.84 755.311C1353.58 755.202 1353.36 755.019 1353.21 754.786C1353.05 754.553 1352.97 754.279 1352.97 753.999C1352.97 753.808 1353.01 753.62 1353.09 753.445C1353.16 753.27 1353.27 753.112 1353.41 752.979C1353.54 752.846 1353.71 752.742 1353.88 752.673C1354.06 752.603 1354.25 752.569 1354.44 752.573V752.575ZM1623.36 511.348C1623.28 511.3 1623.22 511.236 1623.17 511.16C1623.12 511.084 1623.09 510.998 1623.08 510.908C1623.07 510.818 1623.08 510.727 1623.11 510.642C1623.14 510.557 1623.19 510.479 1623.25 510.415C1623.37 510.26 1623.55 510.151 1623.74 510.109C1623.94 510.066 1624.14 510.091 1624.32 510.18C1624.4 510.227 1624.46 510.292 1624.51 510.368C1624.56 510.444 1624.59 510.531 1624.6 510.62C1624.61 510.71 1624.6 510.801 1624.57 510.887C1624.54 510.972 1624.49 511.05 1624.43 511.114C1624.31 511.271 1624.13 511.38 1623.94 511.424C1623.74 511.467 1623.54 511.443 1623.36 511.354V511.348ZM118.718 1081.06C118.795 1081.01 118.86 1080.95 118.908 1080.87C118.956 1080.79 118.987 1080.71 118.998 1080.62C119.008 1080.53 118.998 1080.43 118.969 1080.35C118.94 1080.26 118.891 1080.18 118.828 1080.12C118.703 1079.96 118.527 1079.85 118.332 1079.81C118.136 1079.77 117.932 1079.8 117.754 1079.89C117.678 1079.94 117.613 1080 117.565 1080.08C117.517 1080.15 117.486 1080.24 117.476 1080.33C117.465 1080.42 117.475 1080.51 117.504 1080.59C117.533 1080.68 117.581 1080.75 117.644 1080.82C117.77 1080.97 117.944 1081.08 118.139 1081.13C118.334 1081.17 118.538 1081.15 118.718 1081.06ZM1766.26 832.436C1766.31 832.257 1766.33 832.069 1766.3 831.885C1766.27 831.7 1766.21 831.524 1766.11 831.366C1766.01 831.208 1765.88 831.074 1765.72 830.971C1765.57 830.867 1765.39 830.798 1765.21 830.768C1764.84 830.609 1764.43 830.585 1764.04 830.7C1763.66 830.814 1763.32 831.06 1763.1 831.394C1763.05 831.573 1763.03 831.761 1763.06 831.946C1763.08 832.131 1763.15 832.308 1763.25 832.466C1763.35 832.624 1763.48 832.759 1763.63 832.862C1763.79 832.965 1763.97 833.033 1764.15 833.063C1764.52 833.22 1764.93 833.244 1765.32 833.129C1765.7 833.015 1766.04 832.77 1766.26 832.436ZM1824.15 540.672C1824.07 540.719 1824 540.784 1823.95 540.861C1823.9 540.938 1823.87 541.025 1823.86 541.117C1823.85 541.208 1823.86 541.301 1823.89 541.388C1823.92 541.475 1823.96 541.555 1824.03 541.62L1824.15 540.672ZM1111.23 24.6289C1111.15 24.5793 1111.08 24.5142 1111.02 24.4374C1110.97 24.3605 1110.93 24.2735 1110.91 24.1814C1110.89 24.0893 1110.88 23.9938 1110.9 23.9005C1110.92 23.8072 1110.95 23.718 1111 23.6379C1111.1 23.4751 1111.27 23.3594 1111.46 23.3151C1111.65 23.2709 1111.84 23.3017 1112.01 23.4009C1112.09 23.4499 1112.16 23.5148 1112.22 23.5919C1112.27 23.669 1112.31 23.7565 1112.33 23.8492C1112.35 23.9419 1112.35 24.0378 1112.34 24.1311C1112.32 24.2245 1112.28 24.3132 1112.23 24.3919C1112.13 24.5549 1111.97 24.6711 1111.78 24.7154C1111.59 24.7598 1111.39 24.7287 1111.23 24.6289ZM129.345 39.8539C129.422 39.8064 129.487 39.742 129.535 39.6657C129.584 39.5894 129.615 39.5031 129.625 39.4133C129.636 39.3235 129.626 39.2324 129.596 39.147C129.566 39.0616 129.518 38.984 129.454 38.9199C129.328 38.7642 129.153 38.6561 128.958 38.6135C128.763 38.571 128.559 38.5965 128.38 38.6859C128.303 38.7335 128.238 38.7979 128.189 38.8742C128.141 38.9505 128.11 39.0368 128.1 39.1266C128.089 39.2164 128.099 39.3075 128.129 39.3929C128.158 39.4783 128.207 39.5559 128.271 39.6199C128.396 39.7757 128.571 39.8838 128.767 39.9264C128.962 39.9689 129.166 39.9434 129.345 39.8539ZM1059.9 1080.02C1060.1 1080.02 1060.3 1079.95 1060.46 1079.82C1060.62 1079.69 1060.73 1079.51 1060.77 1079.31C1060.78 1079.22 1060.77 1079.12 1060.74 1079.04C1060.71 1078.95 1060.66 1078.87 1060.59 1078.81C1060.53 1078.74 1060.45 1078.69 1060.36 1078.66C1060.27 1078.63 1060.18 1078.62 1060.09 1078.63C1059.89 1078.63 1059.69 1078.7 1059.53 1078.83C1059.37 1078.96 1059.26 1079.14 1059.22 1079.34C1059.21 1079.43 1059.22 1079.52 1059.25 1079.61C1059.28 1079.7 1059.33 1079.78 1059.4 1079.84C1059.46 1079.91 1059.54 1079.96 1059.63 1079.99C1059.72 1080.02 1059.81 1080.03 1059.9 1080.02Z" fill="white"/>
</g>
<defs>
<clipPath id="clip0">
<rect width="1824.16" height="1129.81" fill="white"/>
</clipPath>
</defs>
</svg>
