<svg width="778" height="350" viewBox="0 0 778 350" fill="none" xmlns="http://www.w3.org/2000/svg">
<g class="gradient">
    <path d="M88.3291 72V4.80003H112.617C123.433 4.80003 131.849 7.74403 137.865 13.632C143.881 19.456 146.889 27.648 146.889 38.208C146.889 48.768 143.849 57.056 137.769 63.072C131.753 69.024 123.369 72 112.617 72H88.3291ZM104.073 57.504H112.521C118.153 57.504 122.569 55.776 125.769 52.32C128.969 48.864 130.569 44.16 130.569 38.208C130.569 32.192 128.969 27.552 125.769 24.288C122.633 20.96 118.217 19.296 112.521 19.296H104.073V57.504Z" fill="#02021E"/>
    <path d="M175.161 73.056C167.865 73.056 161.817 70.784 157.017 66.24C152.217 61.632 149.817 55.648 149.817 48.288C149.817 40.992 152.185 35.04 156.921 30.432C161.721 25.824 167.641 23.52 174.681 23.52C181.593 23.52 187.321 25.696 191.865 30.048C196.409 34.336 198.681 40 198.681 47.04C198.681 48.32 198.585 49.92 198.393 51.84H165.273C165.785 54.848 166.905 57.12 168.633 58.656C170.425 60.192 172.569 60.96 175.065 60.96C177.177 60.96 179.001 60.448 180.537 59.424C182.073 58.336 183.033 56.896 183.417 55.104L196.761 58.656C195.481 63.392 192.857 66.976 188.889 69.408C184.985 71.84 180.409 73.056 175.161 73.056ZM165.753 42.24H183.993C183.609 40.512 182.585 39.008 180.921 37.728C179.321 36.384 177.273 35.712 174.777 35.712C170.297 35.712 167.289 37.888 165.753 42.24Z" fill="#02021E"/>
    <path d="M237.547 68.64C233.451 71.52 228.587 72.96 222.955 72.96C217.323 72.96 212.555 71.808 208.651 69.504C204.747 67.2 202.283 63.872 201.259 59.52L214.027 56.256C214.539 57.728 215.531 58.88 217.003 59.712C218.539 60.48 220.235 60.864 222.091 60.864C223.755 60.864 225.131 60.576 226.219 60C227.371 59.36 227.947 58.496 227.947 57.408C227.947 56.448 227.467 55.744 226.507 55.296C225.611 54.848 224.203 54.496 222.283 54.24C220.619 54.048 219.403 53.888 218.635 53.76C217.931 53.632 216.683 53.408 214.891 53.088C213.099 52.704 211.723 52.32 210.763 51.936C209.803 51.488 208.587 50.88 207.115 50.112C205.707 49.28 204.619 48.384 203.851 47.424C203.147 46.464 202.507 45.28 201.931 43.872C201.355 42.4 201.067 40.8 201.067 39.072C201.067 34.08 202.987 30.24 206.827 27.552C210.731 24.864 215.627 23.52 221.515 23.52C226.635 23.52 231.019 24.64 234.667 26.88C238.379 29.12 240.747 32.448 241.771 36.864L228.811 40.224C228.427 38.688 227.499 37.536 226.027 36.768C224.555 36 222.955 35.616 221.227 35.616C218.283 35.616 216.811 36.64 216.811 38.688C216.811 40.288 218.283 41.344 221.227 41.856C221.483 41.92 222.443 42.048 224.107 42.24C225.835 42.432 227.179 42.624 228.139 42.816C229.163 43.008 230.571 43.328 232.363 43.776C234.155 44.224 235.595 44.8 236.683 45.504C237.835 46.144 238.987 46.976 240.139 48C241.355 48.96 242.251 50.208 242.827 51.744C243.403 53.216 243.691 54.88 243.691 56.736C243.691 61.792 241.643 65.76 237.547 68.64Z" fill="#02021E"/>
    <path d="M263.604 16.512C261.748 18.304 259.476 19.2 256.788 19.2C254.1 19.2 251.828 18.304 249.972 16.512C248.116 14.656 247.188 12.448 247.188 9.88804C247.188 7.26404 248.116 5.02404 249.972 3.16804C251.828 1.31203 254.1 0.384033 256.788 0.384033C259.476 0.384033 261.748 1.31203 263.604 3.16804C265.524 5.02404 266.484 7.26404 266.484 9.88804C266.484 12.448 265.524 14.656 263.604 16.512ZM249.108 72V24.48H264.468V72H249.108Z" fill="#02021E"/>
    <path d="M307.251 24.48H322.611V68.256C322.611 75.04 320.339 80.736 315.795 85.344C311.315 89.952 304.819 92.256 296.307 92.256C290.611 92.256 285.459 91.008 280.851 88.512C276.243 86.08 273.075 82.464 271.347 77.664L284.499 73.824C284.947 75.616 286.195 77.056 288.243 78.144C290.355 79.232 292.819 79.776 295.635 79.776C298.899 79.776 301.651 78.912 303.891 77.184C306.131 75.52 307.251 72.992 307.251 69.6V67.776C303.795 71.232 299.187 72.96 293.427 72.96C286.835 72.96 281.299 70.624 276.819 65.952C272.339 61.28 270.099 55.392 270.099 48.288C270.099 41.056 272.371 35.136 276.915 30.528C281.459 25.856 287.027 23.52 293.619 23.52C299.187 23.52 303.731 25.216 307.251 28.608V24.48ZM289.107 56.544C291.155 58.592 293.683 59.616 296.691 59.616C299.699 59.616 302.195 58.592 304.179 56.544C306.227 54.432 307.251 51.68 307.251 48.288C307.251 44.832 306.227 42.08 304.179 40.032C302.195 37.92 299.699 36.864 296.691 36.864C293.683 36.864 291.155 37.92 289.107 40.032C287.059 42.08 286.035 44.832 286.035 48.288C286.035 51.68 287.059 54.432 289.107 56.544Z" fill="#02021E"/>
    <path d="M358.066 23.52C363.442 23.52 367.826 25.088 371.218 28.224C374.674 31.36 376.402 35.744 376.402 41.376V72H361.042V46.08C361.042 43.2 360.338 41.056 358.93 39.648C357.522 38.176 355.602 37.44 353.17 37.44C350.738 37.44 348.786 38.208 347.314 39.744C345.906 41.28 345.202 43.52 345.202 46.464V72H329.842V24.48H345.202V28.416C348.338 25.152 352.626 23.52 358.066 23.52Z" fill="#02021E"/>
    <path d="M384.11 52.8V39.456H413.678V52.8H384.11Z" fill="#02021E"/>
    <path d="M456.407 4.80003H471.767V72H456.407V67.776C452.951 71.232 448.343 72.96 442.583 72.96C435.991 72.96 430.455 70.624 425.975 65.952C421.495 61.28 419.255 55.392 419.255 48.288C419.255 41.056 421.527 35.136 426.071 30.528C430.615 25.856 436.183 23.52 442.775 23.52C448.343 23.52 452.887 25.216 456.407 28.608V4.80003ZM438.263 56.544C440.311 58.592 442.839 59.616 445.847 59.616C448.855 59.616 451.351 58.592 453.335 56.544C455.383 54.432 456.407 51.68 456.407 48.288C456.407 44.832 455.383 42.08 453.335 40.032C451.351 37.92 448.855 36.864 445.847 36.864C442.839 36.864 440.311 37.92 438.263 40.032C436.215 42.08 435.191 44.832 435.191 48.288C435.191 51.68 436.215 54.432 438.263 56.544Z" fill="#02021E"/>
    <path d="M506.935 23.52C509.751 23.52 512.023 23.84 513.751 24.48L511.543 39.072C509.239 38.24 506.711 37.824 503.959 37.824C501.271 37.824 498.999 38.688 497.143 40.416C495.287 42.08 494.359 44.64 494.359 48.096V72H478.999V24.48H494.359V28.512C497.559 25.184 501.751 23.52 506.935 23.52Z" fill="#02021E"/>
    <path d="M532.667 16.512C530.811 18.304 528.539 19.2 525.851 19.2C523.163 19.2 520.891 18.304 519.035 16.512C517.179 14.656 516.251 12.448 516.251 9.88804C516.251 7.26404 517.179 5.02404 519.035 3.16804C520.891 1.31203 523.163 0.384033 525.851 0.384033C528.539 0.384033 530.811 1.31203 532.667 3.16804C534.587 5.02404 535.547 7.26404 535.547 9.88804C535.547 12.448 534.587 14.656 532.667 16.512ZM518.171 72V24.48H533.531V72H518.171Z" fill="#02021E"/>
    <path d="M575.929 24.48H591.865L572.761 72H556.249L537.241 24.48H553.273L564.601 55.488L575.929 24.48Z" fill="#02021E"/>
    <path d="M615.849 73.056C608.553 73.056 602.505 70.784 597.705 66.24C592.905 61.632 590.505 55.648 590.505 48.288C590.505 40.992 592.873 35.04 597.609 30.432C602.409 25.824 608.329 23.52 615.369 23.52C622.281 23.52 628.009 25.696 632.553 30.048C637.097 34.336 639.369 40 639.369 47.04C639.369 48.32 639.273 49.92 639.081 51.84H605.961C606.473 54.848 607.593 57.12 609.321 58.656C611.113 60.192 613.257 60.96 615.753 60.96C617.865 60.96 619.689 60.448 621.225 59.424C622.761 58.336 623.721 56.896 624.105 55.104L637.449 58.656C636.169 63.392 633.545 66.976 629.577 69.408C625.673 71.84 621.097 73.056 615.849 73.056ZM606.441 42.24H624.681C624.297 40.512 623.273 39.008 621.609 37.728C620.009 36.384 617.961 35.712 615.465 35.712C610.985 35.712 607.977 37.888 606.441 42.24Z" fill="#02021E"/>
    <path d="M672.379 23.52C677.755 23.52 682.139 25.088 685.531 28.224C688.987 31.36 690.715 35.744 690.715 41.376V72H675.355V46.08C675.355 43.2 674.651 41.056 673.243 39.648C671.835 38.176 669.915 37.44 667.483 37.44C665.051 37.44 663.099 38.208 661.627 39.744C660.219 41.28 659.515 43.52 659.515 46.464V72H644.155V24.48H659.515V28.416C662.651 25.152 666.939 23.52 672.379 23.52Z" fill="#02021E"/>
</g>
<path d="M83.7975 90.8H99.1575V158H83.7975V153.776C80.3415 157.232 75.7335 158.96 69.9735 158.96C63.3815 158.96 57.8455 156.624 53.3655 151.952C48.8855 147.28 46.6455 141.392 46.6455 134.288C46.6455 127.056 48.9175 121.136 53.4615 116.528C58.0055 111.856 63.5735 109.52 70.1655 109.52C75.7335 109.52 80.2775 111.216 83.7975 114.608V90.8ZM65.6535 142.544C67.7015 144.592 70.2295 145.616 73.2375 145.616C76.2455 145.616 78.7415 144.592 80.7255 142.544C82.7735 140.432 83.7975 137.68 83.7975 134.288C83.7975 130.832 82.7735 128.08 80.7255 126.032C78.7415 123.92 76.2455 122.864 73.2375 122.864C70.2295 122.864 67.7015 123.92 65.6535 126.032C63.6055 128.08 62.5815 130.832 62.5815 134.288C62.5815 137.68 63.6055 140.432 65.6535 142.544Z" fill="#02021E"/>
<path d="M129.333 159.056C122.037 159.056 115.989 156.784 111.189 152.24C106.389 147.632 103.989 141.648 103.989 134.288C103.989 126.992 106.357 121.04 111.093 116.432C115.893 111.824 121.813 109.52 128.853 109.52C135.765 109.52 141.493 111.696 146.037 116.048C150.581 120.336 152.853 126 152.853 133.04C152.853 134.32 152.757 135.92 152.565 137.84H119.445C119.957 140.848 121.077 143.12 122.805 144.656C124.597 146.192 126.741 146.96 129.237 146.96C131.349 146.96 133.173 146.448 134.709 145.424C136.245 144.336 137.205 142.896 137.589 141.104L150.933 144.656C149.653 149.392 147.029 152.976 143.061 155.408C139.157 157.84 134.581 159.056 129.333 159.056ZM119.925 128.24H138.165C137.781 126.512 136.757 125.008 135.093 123.728C133.493 122.384 131.445 121.712 128.949 121.712C124.469 121.712 121.461 123.888 119.925 128.24Z" fill="#02021E"/>
<path d="M191.726 110.48H207.662L188.558 158H172.046L153.038 110.48H169.07L180.398 141.488L191.726 110.48Z" fill="#02021E"/>
<path d="M231.646 159.056C224.35 159.056 218.302 156.784 213.502 152.24C208.702 147.632 206.302 141.648 206.302 134.288C206.302 126.992 208.67 121.04 213.406 116.432C218.206 111.824 224.126 109.52 231.166 109.52C238.078 109.52 243.806 111.696 248.35 116.048C252.894 120.336 255.166 126 255.166 133.04C255.166 134.32 255.07 135.92 254.878 137.84H221.758C222.27 140.848 223.39 143.12 225.118 144.656C226.91 146.192 229.054 146.96 231.55 146.96C233.662 146.96 235.486 146.448 237.022 145.424C238.558 144.336 239.518 142.896 239.902 141.104L253.246 144.656C251.966 149.392 249.342 152.976 245.374 155.408C241.47 157.84 236.894 159.056 231.646 159.056ZM222.238 128.24H240.478C240.094 126.512 239.07 125.008 237.406 123.728C235.806 122.384 233.758 121.712 231.262 121.712C226.782 121.712 223.774 123.888 222.238 128.24Z" fill="#02021E"/>
<path d="M259.952 158V90.8H275.312V158H259.952Z" fill="#02021E"/>
<path d="M305.938 158.96C298.578 158.96 292.434 156.688 287.506 152.144C282.578 147.536 280.114 141.616 280.114 134.384C280.114 127.024 282.578 121.04 287.506 116.432C292.434 111.824 298.578 109.52 305.938 109.52C313.362 109.52 319.538 111.824 324.466 116.432C329.394 121.04 331.858 127.024 331.858 134.384C331.858 141.616 329.394 147.536 324.466 152.144C319.538 156.688 313.362 158.96 305.938 158.96ZM298.642 142.352C300.562 144.272 302.994 145.232 305.938 145.232C308.882 145.232 311.314 144.272 313.234 142.352C315.154 140.368 316.114 137.68 316.114 134.288C316.114 130.832 315.154 128.144 313.234 126.224C311.314 124.24 308.882 123.248 305.938 123.248C302.994 123.248 300.562 124.24 298.642 126.224C296.786 128.144 295.858 130.832 295.858 134.288C295.858 137.68 296.786 140.368 298.642 142.352Z" fill="#02021E"/>
<path d="M365.759 109.52C372.287 109.52 377.823 111.856 382.367 116.528C386.911 121.136 389.183 127.056 389.183 134.288C389.183 141.392 386.943 147.28 382.463 151.952C377.983 156.624 372.447 158.96 365.855 158.96C360.223 158.96 355.615 157.232 352.031 153.776V177.2H336.671V110.48H352.031V114.608C355.551 111.216 360.127 109.52 365.759 109.52ZM362.687 145.616C365.631 145.616 368.126 144.592 370.174 142.544C372.222 140.432 373.247 137.68 373.247 134.288C373.247 130.832 372.222 128.08 370.174 126.032C368.191 123.92 365.695 122.864 362.687 122.864C359.615 122.864 357.055 123.92 355.007 126.032C353.023 128.08 352.031 130.832 352.031 134.288C352.031 137.68 353.023 140.432 355.007 142.544C357.055 144.592 359.615 145.616 362.687 145.616Z" fill="#02021E"/>
<path d="M453.438 109.52C458.814 109.52 463.198 111.088 466.59 114.224C470.046 117.36 471.774 121.744 471.774 127.376V158H456.414V132.08C456.414 129.2 455.71 127.056 454.302 125.648C452.894 124.176 450.974 123.44 448.542 123.44C446.11 123.44 444.158 124.208 442.686 125.744C441.278 127.28 440.574 129.52 440.574 132.464V158H425.214V132.08C425.214 129.2 424.51 127.056 423.102 125.648C421.694 124.176 419.774 123.44 417.342 123.44C414.91 123.44 412.958 124.208 411.486 125.744C410.078 127.28 409.374 129.52 409.374 132.464V158H394.014V110.48H409.374V114.416C412.51 111.152 416.798 109.52 422.238 109.52C429.662 109.52 434.974 112.208 438.174 117.584C441.246 112.208 446.334 109.52 453.438 109.52Z" fill="#02021E"/>
<path d="M501.583 159.056C494.287 159.056 488.239 156.784 483.439 152.24C478.639 147.632 476.239 141.648 476.239 134.288C476.239 126.992 478.607 121.04 483.343 116.432C488.143 111.824 494.063 109.52 501.103 109.52C508.015 109.52 513.743 111.696 518.287 116.048C522.831 120.336 525.103 126 525.103 133.04C525.103 134.32 525.007 135.92 524.815 137.84H491.695C492.207 140.848 493.327 143.12 495.055 144.656C496.847 146.192 498.991 146.96 501.487 146.96C503.599 146.96 505.423 146.448 506.959 145.424C508.495 144.336 509.455 142.896 509.839 141.104L523.183 144.656C521.903 149.392 519.279 152.976 515.311 155.408C511.407 157.84 506.831 159.056 501.583 159.056ZM492.175 128.24H510.415C510.031 126.512 509.007 125.008 507.343 123.728C505.743 122.384 503.695 121.712 501.199 121.712C496.719 121.712 493.711 123.888 492.175 128.24Z" fill="#02021E"/>
<path d="M558.113 109.52C563.489 109.52 567.873 111.088 571.265 114.224C574.721 117.36 576.449 121.744 576.449 127.376V158H561.089V132.08C561.089 129.2 560.385 127.056 558.977 125.648C557.569 124.176 555.649 123.44 553.217 123.44C550.785 123.44 548.833 124.208 547.361 125.744C545.953 127.28 545.249 129.52 545.249 132.464V158H529.889V110.48H545.249V114.416C548.385 111.152 552.673 109.52 558.113 109.52Z" fill="#02021E"/>
<path d="M607.869 158.96C602.429 158.96 597.821 157.488 594.045 154.544C590.333 151.6 588.477 146.96 588.477 140.624V123.536H579.933V110.48H585.885C587.613 108.432 588.477 103.952 588.477 97.04H603.837V110.48H617.373V123.536H603.837V139.76C603.837 144.176 606.173 146.384 610.845 146.384C613.021 146.384 614.941 146 616.605 145.232L618.525 157.136C615.261 158.352 611.709 158.96 607.869 158.96Z" fill="#02021E"/>
<path d="M666.376 158.96C659.016 158.96 652.872 156.688 647.944 152.144C643.016 147.536 640.552 141.616 640.552 134.384C640.552 127.024 643.016 121.04 647.944 116.432C652.872 111.824 659.016 109.52 666.376 109.52C673.8 109.52 679.976 111.824 684.904 116.432C689.832 121.04 692.296 127.024 692.296 134.384C692.296 141.616 689.832 147.536 684.904 152.144C679.976 156.688 673.8 158.96 666.376 158.96ZM659.08 142.352C661 144.272 663.432 145.232 666.376 145.232C669.32 145.232 671.752 144.272 673.672 142.352C675.592 140.368 676.552 137.68 676.552 134.288C676.552 130.832 675.592 128.144 673.672 126.224C671.752 124.24 669.32 123.248 666.376 123.248C663.432 123.248 661 124.24 659.08 126.224C657.224 128.144 656.296 130.832 656.296 134.288C656.296 137.68 657.224 140.368 659.08 142.352Z" fill="#02021E"/>
<path d="M701.524 158V123.536H693.652V110.48H701.524V107.504C701.524 104.368 702.068 101.616 703.156 99.248C704.244 96.88 705.716 95.056 707.572 93.776C709.492 92.432 711.572 91.44 713.812 90.8C716.052 90.16 718.42 89.84 720.916 89.84C724.948 89.84 728.948 90.384 732.916 91.472L730.996 103.376C728.692 102.608 726.356 102.224 723.988 102.224C719.252 102.224 716.884 104.368 716.884 108.656V110.48H731.764V123.536H716.884V158H701.524Z" fill="#02021E"/>
<path d="M39.0073 196.48H55.1353L27.0073 263.2H12.5113L20.9593 244L0.127258 196.48H16.3513L27.6793 225.76L39.0073 196.48Z" fill="#02021E"/>
<path d="M79.3133 244.96C71.9533 244.96 65.8093 242.688 60.8813 238.144C55.9533 233.536 53.4893 227.616 53.4893 220.384C53.4893 213.024 55.9533 207.04 60.8813 202.432C65.8093 197.824 71.9533 195.52 79.3133 195.52C86.7373 195.52 92.9133 197.824 97.8413 202.432C102.769 207.04 105.233 213.024 105.233 220.384C105.233 227.616 102.769 233.536 97.8413 238.144C92.9133 242.688 86.7373 244.96 79.3133 244.96ZM72.0173 228.352C73.9373 230.272 76.3693 231.232 79.3133 231.232C82.2573 231.232 84.6893 230.272 86.6093 228.352C88.5293 226.368 89.4893 223.68 89.4893 220.288C89.4893 216.832 88.5293 214.144 86.6093 212.224C84.6893 210.24 82.2573 209.248 79.3133 209.248C76.3693 209.248 73.9373 210.24 72.0173 212.224C70.1613 214.144 69.2333 216.832 69.2333 220.288C69.2333 223.68 70.1613 226.368 72.0173 228.352Z" fill="#02021E"/>
<path d="M140.958 196.48H156.318V244H140.958V240.064C137.822 243.328 133.534 244.96 128.094 244.96C122.974 244.96 118.622 243.328 115.038 240.064C111.518 236.736 109.758 232.096 109.758 226.144V196.48H125.118V222.784C125.118 225.536 125.822 227.616 127.23 229.024C128.638 230.368 130.558 231.04 132.99 231.04C135.422 231.04 137.342 230.272 138.75 228.736C140.222 227.2 140.958 224.96 140.958 222.016V196.48Z" fill="#02021E"/>
<path d="M191.2 195.52C194.016 195.52 196.288 195.84 198.016 196.48L195.808 211.072C193.504 210.24 190.976 209.824 188.224 209.824C185.536 209.824 183.264 210.688 181.408 212.416C179.552 214.08 178.624 216.64 178.624 220.096V244H163.264V196.48H178.624V200.512C181.824 197.184 186.016 195.52 191.2 195.52Z" fill="#02021E"/>
<g class="gradient">
    <path d="M284.928 196.48H300.96L286.368 244H269.088L260.16 215.296L251.232 244H233.856L219.36 196.48H235.392L243.84 227.488L252.96 196.48H267.359L276.48 227.488L284.928 196.48Z" fill="#02021E"/>
    <path d="M326.271 245.056C318.975 245.056 312.927 242.784 308.127 238.24C303.327 233.632 300.927 227.648 300.927 220.288C300.927 212.992 303.295 207.04 308.031 202.432C312.831 197.824 318.751 195.52 325.791 195.52C332.703 195.52 338.431 197.696 342.975 202.048C347.519 206.336 349.791 212 349.791 219.04C349.791 220.32 349.695 221.92 349.503 223.84H316.383C316.895 226.848 318.015 229.12 319.743 230.656C321.535 232.192 323.679 232.96 326.175 232.96C328.287 232.96 330.111 232.448 331.647 231.424C333.183 230.336 334.143 228.896 334.527 227.104L347.871 230.656C346.591 235.392 343.967 238.976 339.999 241.408C336.095 243.84 331.519 245.056 326.271 245.056ZM316.863 214.24H335.103C334.719 212.512 333.695 211.008 332.031 209.728C330.431 208.384 328.383 207.712 325.887 207.712C321.407 207.712 318.399 209.888 316.863 214.24Z" fill="#02021E"/>
    <path d="M383.665 195.52C390.193 195.52 395.729 197.856 400.273 202.528C404.817 207.136 407.089 213.056 407.089 220.288C407.089 227.392 404.849 233.28 400.369 237.952C395.889 242.624 390.353 244.96 383.761 244.96C378.129 244.96 373.521 243.232 369.937 239.776V244H354.577V176.8H369.937V200.608C373.457 197.216 378.033 195.52 383.665 195.52ZM380.593 231.616C383.537 231.616 386.033 230.592 388.081 228.544C390.129 226.432 391.153 223.68 391.153 220.288C391.153 216.832 390.129 214.08 388.081 212.032C386.097 209.92 383.601 208.864 380.593 208.864C377.521 208.864 374.961 209.92 372.913 212.032C370.929 214.08 369.937 216.832 369.937 220.288C369.937 223.68 370.929 226.432 372.913 228.544C374.961 230.592 377.521 231.616 380.593 231.616Z" fill="#02021E"/>
    <path d="M462.54 195.52C469.068 195.52 474.604 197.856 479.148 202.528C483.692 207.136 485.964 213.056 485.964 220.288C485.964 227.392 483.724 233.28 479.244 237.952C474.764 242.624 469.228 244.96 462.636 244.96C457.004 244.96 452.396 243.232 448.812 239.776V263.2H433.452V196.48H448.812V200.608C452.332 197.216 456.908 195.52 462.54 195.52ZM459.468 231.616C462.412 231.616 464.908 230.592 466.956 228.544C469.004 226.432 470.028 223.68 470.028 220.288C470.028 216.832 469.004 214.08 466.956 212.032C464.972 209.92 462.476 208.864 459.468 208.864C456.396 208.864 453.836 209.92 451.788 212.032C449.804 214.08 448.812 216.832 448.812 220.288C448.812 223.68 449.804 226.432 451.788 228.544C453.836 230.592 456.396 231.616 459.468 231.616Z" fill="#02021E"/>
    <path d="M518.732 195.52C521.548 195.52 523.819 195.84 525.547 196.48L523.34 211.072C521.036 210.24 518.507 209.824 515.755 209.824C513.067 209.824 510.796 210.688 508.94 212.416C507.084 214.08 506.156 216.64 506.156 220.096V244H490.796V196.48H506.156V200.512C509.356 197.184 513.548 195.52 518.732 195.52Z" fill="#02021E"/>
    <path d="M552.251 244.96C544.891 244.96 538.747 242.688 533.819 238.144C528.891 233.536 526.427 227.616 526.427 220.384C526.427 213.024 528.891 207.04 533.819 202.432C538.747 197.824 544.891 195.52 552.251 195.52C559.675 195.52 565.851 197.824 570.779 202.432C575.707 207.04 578.171 213.024 578.171 220.384C578.171 227.616 575.707 233.536 570.779 238.144C565.851 242.688 559.675 244.96 552.251 244.96ZM544.955 228.352C546.875 230.272 549.307 231.232 552.251 231.232C555.195 231.232 557.627 230.272 559.547 228.352C561.467 226.368 562.427 223.68 562.427 220.288C562.427 216.832 561.467 214.144 559.547 212.224C557.627 210.24 555.195 209.248 552.251 209.248C549.307 209.248 546.875 210.24 544.955 212.224C543.099 214.144 542.171 216.832 542.171 220.288C542.171 223.68 543.099 226.368 544.955 228.352Z" fill="#02021E"/>
    <path d="M617.735 176.8H633.095V244H617.735V239.776C614.279 243.232 609.671 244.96 603.911 244.96C597.319 244.96 591.783 242.624 587.303 237.952C582.823 233.28 580.583 227.392 580.583 220.288C580.583 213.056 582.855 207.136 587.399 202.528C591.943 197.856 597.511 195.52 604.103 195.52C609.671 195.52 614.215 197.216 617.735 200.608V176.8ZM599.591 228.544C601.639 230.592 604.167 231.616 607.175 231.616C610.183 231.616 612.679 230.592 614.663 228.544C616.711 226.432 617.735 223.68 617.735 220.288C617.735 216.832 616.711 214.08 614.663 212.032C612.679 209.92 610.183 208.864 607.175 208.864C604.167 208.864 601.639 209.92 599.591 212.032C597.543 214.08 596.519 216.832 596.519 220.288C596.519 223.68 597.543 226.432 599.591 228.544Z" fill="#02021E"/>
    <path d="M671.239 196.48H686.599V244H671.239V240.064C668.103 243.328 663.815 244.96 658.375 244.96C653.255 244.96 648.903 243.328 645.319 240.064C641.799 236.736 640.039 232.096 640.039 226.144V196.48H655.399V222.784C655.399 225.536 656.103 227.616 657.511 229.024C658.919 230.368 660.839 231.04 663.271 231.04C665.703 231.04 667.623 230.272 669.031 228.736C670.503 227.2 671.239 224.96 671.239 222.016V196.48Z" fill="#02021E"/>
    <path d="M715.914 244.96C708.746 244.96 702.826 242.688 698.154 238.144C693.482 233.6 691.146 227.68 691.146 220.384C691.146 213.024 693.482 207.04 698.154 202.432C702.826 197.824 708.746 195.52 715.914 195.52C721.482 195.52 726.442 196.928 730.794 199.744C735.146 202.56 737.833 206.624 738.857 211.936L725.417 215.776C724.969 213.728 723.946 212.128 722.346 210.976C720.746 209.824 718.858 209.248 716.682 209.248C713.866 209.248 711.53 210.24 709.674 212.224C707.818 214.208 706.89 216.896 706.89 220.288C706.89 223.616 707.818 226.272 709.674 228.256C711.594 230.24 713.962 231.232 716.778 231.232C718.954 231.232 720.81 230.656 722.346 229.504C723.946 228.352 724.969 226.72 725.417 224.608L738.857 228.544C737.833 233.856 735.146 237.92 730.794 240.736C726.442 243.552 721.482 244.96 715.914 244.96Z" fill="#02021E"/>
    <path d="M767.026 244.96C761.586 244.96 756.978 243.488 753.202 240.544C749.49 237.6 747.633 232.96 747.633 226.624V209.536H739.09V196.48H745.042C746.77 194.432 747.633 189.952 747.633 183.04H762.994V196.48H776.529V209.536H762.994V225.76C762.994 230.176 765.33 232.384 770.002 232.384C772.178 232.384 774.098 232 775.762 231.232L777.682 243.136C774.418 244.352 770.866 244.96 767.026 244.96Z" fill="#02021E"/>
</g>
<path d="M201.165 330V295.536H193.293V282.48H201.165V279.504C201.165 276.368 201.709 273.616 202.797 271.248C203.885 268.88 205.357 267.056 207.213 265.776C209.133 264.432 211.213 263.44 213.453 262.8C215.693 262.16 218.061 261.84 220.557 261.84C224.589 261.84 228.589 262.384 232.557 263.472L230.637 275.376C228.333 274.608 225.997 274.224 223.629 274.224C218.893 274.224 216.525 276.368 216.525 280.656V282.48H231.405V295.536H216.525V330H201.165Z" fill="#02021E"/>
<path d="M258.954 330.96C251.594 330.96 245.45 328.688 240.522 324.144C235.594 319.536 233.13 313.616 233.13 306.384C233.13 299.024 235.594 293.04 240.522 288.432C245.45 283.824 251.594 281.52 258.954 281.52C266.378 281.52 272.554 283.824 277.482 288.432C282.41 293.04 284.874 299.024 284.874 306.384C284.874 313.616 282.41 319.536 277.482 324.144C272.554 328.688 266.378 330.96 258.954 330.96ZM251.658 314.352C253.578 316.272 256.01 317.232 258.954 317.232C261.898 317.232 264.33 316.272 266.25 314.352C268.17 312.368 269.13 309.68 269.13 306.288C269.13 302.832 268.17 300.144 266.25 298.224C264.33 296.24 261.898 295.248 258.954 295.248C256.01 295.248 253.578 296.24 251.658 298.224C249.802 300.144 248.874 302.832 248.874 306.288C248.874 309.68 249.802 312.368 251.658 314.352Z" fill="#02021E"/>
<path d="M317.622 281.52C320.438 281.52 322.71 281.84 324.438 282.48L322.23 297.072C319.926 296.24 317.398 295.824 314.646 295.824C311.958 295.824 309.686 296.688 307.83 298.416C305.974 300.08 305.046 302.64 305.046 306.096V330H289.686V282.48H305.046V286.512C308.246 283.184 312.438 281.52 317.622 281.52Z" fill="#02021E"/>
<path d="M384.085 282.48H400.213L372.085 349.2H357.589L366.037 330L345.205 282.48H361.429L372.757 311.76L384.085 282.48Z" fill="#02021E"/>
<path d="M423.911 331.056C416.615 331.056 410.567 328.784 405.767 324.24C400.967 319.632 398.567 313.648 398.567 306.288C398.567 298.992 400.935 293.04 405.671 288.432C410.471 283.824 416.391 281.52 423.431 281.52C430.343 281.52 436.071 283.696 440.615 288.048C445.159 292.336 447.431 298 447.431 305.04C447.431 306.32 447.335 307.92 447.143 309.84H414.023C414.535 312.848 415.655 315.12 417.383 316.656C419.175 318.192 421.319 318.96 423.815 318.96C425.927 318.96 427.751 318.448 429.287 317.424C430.823 316.336 431.783 314.896 432.167 313.104L445.511 316.656C444.231 321.392 441.607 324.976 437.639 327.408C433.735 329.84 429.159 331.056 423.911 331.056ZM414.503 300.24H432.743C432.359 298.512 431.335 297.008 429.671 295.728C428.071 294.384 426.023 293.712 423.527 293.712C419.047 293.712 416.039 295.888 414.503 300.24Z" fill="#02021E"/>
<path d="M496.473 317.712C496.985 317.712 497.721 317.552 498.681 317.232V330.192C497.337 330.704 495.449 330.96 493.017 330.96C486.873 330.96 482.713 329.232 480.537 325.776C477.209 329.232 472.441 330.96 466.233 330.96C461.369 330.96 457.401 329.68 454.329 327.12C451.321 324.56 449.817 321.04 449.817 316.56C449.817 312.4 451.193 309.04 453.945 306.48C456.697 303.92 460.409 302.416 465.081 301.968L478.809 300.72V299.76C478.809 297.904 478.169 296.432 476.889 295.344C475.609 294.192 473.977 293.616 471.993 293.616C468.409 293.616 466.265 295.344 465.561 298.8L451.833 296.88C452.665 291.504 455.033 287.6 458.937 285.168C462.905 282.736 467.641 281.52 473.145 281.52C479.673 281.52 484.793 283.088 488.505 286.224C492.281 289.296 494.169 293.68 494.169 299.376V315.12C494.169 316.848 494.937 317.712 496.473 317.712ZM478.809 311.376V310.32L469.785 311.376C468.249 311.568 467.033 312.08 466.137 312.912C465.241 313.68 464.793 314.608 464.793 315.696C464.793 316.976 465.337 317.968 466.425 318.672C467.577 319.376 469.017 319.696 470.745 319.632C473.049 319.504 474.969 318.736 476.505 317.328C478.041 315.92 478.809 313.936 478.809 311.376Z" fill="#02021E"/>
<path d="M530.935 281.52C533.751 281.52 536.023 281.84 537.751 282.48L535.543 297.072C533.239 296.24 530.711 295.824 527.959 295.824C525.271 295.824 522.999 296.688 521.143 298.416C519.287 300.08 518.359 302.64 518.359 306.096V330H502.999V282.48H518.359V286.512C521.559 283.184 525.751 281.52 530.935 281.52Z" fill="#02021E"/>
<path d="M575.579 326.64C571.483 329.52 566.619 330.96 560.987 330.96C555.355 330.96 550.587 329.808 546.683 327.504C542.779 325.2 540.315 321.872 539.291 317.52L552.059 314.256C552.571 315.728 553.563 316.88 555.035 317.712C556.571 318.48 558.267 318.864 560.123 318.864C561.787 318.864 563.163 318.576 564.251 318C565.403 317.36 565.979 316.496 565.979 315.408C565.979 314.448 565.499 313.744 564.539 313.296C563.643 312.848 562.235 312.496 560.315 312.24C558.651 312.048 557.435 311.888 556.667 311.76C555.963 311.632 554.715 311.408 552.923 311.088C551.131 310.704 549.755 310.32 548.795 309.936C547.835 309.488 546.619 308.88 545.147 308.112C543.739 307.28 542.651 306.384 541.883 305.424C541.179 304.464 540.539 303.28 539.963 301.872C539.387 300.4 539.099 298.8 539.099 297.072C539.099 292.08 541.019 288.24 544.859 285.552C548.763 282.864 553.659 281.52 559.547 281.52C564.667 281.52 569.051 282.64 572.699 284.88C576.411 287.12 578.779 290.448 579.803 294.864L566.843 298.224C566.459 296.688 565.531 295.536 564.059 294.768C562.587 294 560.987 293.616 559.259 293.616C556.315 293.616 554.843 294.64 554.843 296.688C554.843 298.288 556.315 299.344 559.259 299.856C559.515 299.92 560.475 300.048 562.139 300.24C563.867 300.432 565.211 300.624 566.171 300.816C567.195 301.008 568.603 301.328 570.395 301.776C572.187 302.224 573.627 302.8 574.715 303.504C575.867 304.144 577.019 304.976 578.171 306C579.387 306.96 580.283 308.208 580.859 309.744C581.435 311.216 581.723 312.88 581.723 314.736C581.723 319.792 579.675 323.76 575.579 326.64Z" fill="#02021E"/>
</svg>
