<svg width="71" height="19" viewBox="0 0 71 19" fill="none" xmlns="http://www.w3.org/2000/svg">
<path fill-rule="evenodd" clip-rule="evenodd" d="M39.8234 0.156006C39.8244 0.156006 39.8244 0.156006 39.8244 0.156006C39.8734 0.156006 39.8784 0.82155 39.8554 3.11398C39.8374 4.73985 39.8354 6.06993 39.8494 6.06993C39.8644 6.06993 40.0526 5.98787 40.2677 5.88759C40.9182 5.58267 41.5156 5.45199 42.3843 5.42059C42.9617 5.40134 43.2289 5.4135 43.5271 5.47529C45.4676 5.88252 46.9036 7.48813 47.404 9.81804C47.5351 10.4248 47.5831 11.9342 47.4971 12.6899C47.422 13.3332 47.2118 14.2013 46.9907 14.7645C46.1621 16.8898 44.3818 18.2766 42.02 18.6362C41.4756 18.7193 39.7673 18.7305 39.0348 18.6555C38.5344 18.6028 37.0083 18.3465 36.4739 18.2229L36.1056 18.1379L36.1347 16.1453C36.2047 11.3436 36.2117 8.72197 36.1667 6.17123C36.1237 3.67518 36.1117 3.40978 36.0166 3.04104C35.8945 2.57202 35.7224 2.24685 35.5122 2.09692C35.4311 2.03614 35.21 1.95308 35.0198 1.91053C34.3934 1.7677 34.4284 1.791 34.4114 1.50229C34.4014 1.33514 34.4194 1.22473 34.4624 1.1913C34.5175 1.14672 39.6433 0.156006 39.8234 0.156006ZM40.2285 17.6547C40.4477 17.6729 40.5838 17.682 40.6918 17.682C40.8189 17.682 40.909 17.6699 41.0521 17.6425C41.4184 17.5716 41.7036 17.4237 42.0088 17.1461C42.7734 16.4502 43.3478 15.0128 43.574 13.2329C43.667 12.5066 43.653 10.8544 43.5519 10.2496C43.2757 8.6136 42.6813 7.53779 41.8167 7.10321C41.4574 6.92391 41.4024 6.91074 40.975 6.91074C40.6718 6.91074 40.4096 6.94316 40.1875 7.01103L39.8532 7.1103L39.8282 8.97322C39.7972 11.3599 39.8732 17.3346 39.9373 17.5078C39.9793 17.6152 40.0233 17.6405 40.2285 17.6547ZM0.166123 0.488358C0.229169 0.477215 1.82835 0.471137 4.09903 0.471137C5.06074 0.471137 6.14253 0.47215 7.27937 0.474176L14.2285 0.487345L14.2605 0.691972C14.2785 0.803403 14.3086 1.95418 14.3266 3.2488L14.3596 5.60099L14.0003 5.70938C13.4619 5.87653 13.4659 5.87856 13.2218 5.22821C12.6273 3.63374 11.9438 2.7119 11.0081 2.24896C10.3626 1.92885 10.0644 1.88934 8.24509 1.88934H6.65992L6.63089 2.15678C6.58086 2.66024 6.4998 5.88767 6.4998 7.40819V8.92365L6.96714 8.92162C7.22333 8.9196 7.7277 8.90238 8.08997 8.88009C8.63237 8.84767 8.79349 8.8183 9.02166 8.71092C9.58007 8.44956 9.95835 7.87418 10.1915 6.93613L10.3126 6.45293L10.7229 6.43875L11.1342 6.42254V12.5482L10.7229 12.534L10.3126 12.5188L10.1955 12.0346C9.97636 11.1239 9.55305 10.4735 9.03267 10.2395C8.79149 10.1322 8.19405 10.0704 7.0422 10.0359L6.4998 10.0177V11.1695C6.4998 12.4226 6.56785 14.1194 6.65591 15.0392C6.778 16.3226 7.10124 17.0317 7.68267 17.2901C7.79375 17.3367 8.14601 17.4187 8.46525 17.4663C8.78348 17.5129 9.08471 17.5747 9.13274 17.6C9.25483 17.6639 9.26184 18.3284 9.13975 18.376C9.04468 18.4125 0.157116 18.4104 0.0680502 18.374C0.0250185 18.3557 0.00300222 18.2291 0.00300222 17.9931C0.00300222 17.5717 -0.0220163 17.5889 0.783578 17.439C1.40304 17.3225 1.6252 17.2029 1.8984 16.8413C2.42779 16.1362 2.54288 14.7829 2.54488 9.20526C2.54488 3.96803 2.44581 2.86487 1.8964 2.05649C1.65422 1.69687 1.24492 1.50238 0.557411 1.41931L0.0300222 1.35346L0.0140103 0.936106L0 0.517735L0.166123 0.488358ZM32.545 5.48857C33.0193 5.26875 33.3346 5.2029 33.92 5.2029C34.6145 5.2029 35.307 5.43184 35.307 5.66078C35.307 5.81476 34.0851 9.08676 34.0171 9.1131C33.9851 9.12526 33.7459 9.03307 33.4877 8.90746C32.9473 8.64408 32.4409 8.51644 31.9496 8.51644C31.3371 8.51847 30.6516 8.74741 30.3824 9.04017C30.2673 9.16578 30.2663 9.17287 30.2373 11.0459C30.2083 12.9007 30.2693 15.1638 30.3734 16.0745C30.4615 16.8484 30.6646 17.2313 31.0839 17.4076C31.224 17.4674 32.1127 17.5909 32.4019 17.5909C32.4229 17.5909 32.4339 17.7692 32.4269 17.986L32.4129 18.3821L28.6851 18.3922C26.6356 18.4003 24.9284 18.3872 24.8923 18.3639C24.8473 18.3345 24.8313 18.217 24.8423 17.9688L24.8583 17.6173L25.0344 17.5788C25.1315 17.5565 25.3397 17.515 25.4978 17.4856C25.9841 17.3934 26.2634 17.126 26.4215 16.6012C26.5506 16.1737 26.6086 14.8062 26.6096 12.0589C26.6136 8.70081 26.5436 7.90864 26.2103 7.45785C26.0272 7.21372 25.8961 7.14483 25.4548 7.05974C25.2376 7.01618 25.0074 6.97262 24.9464 6.95844C24.8463 6.93818 24.8313 6.90374 24.8313 6.65454C24.8313 6.41142 24.8473 6.36786 24.9464 6.32531C25.0975 6.26453 30.0862 5.25355 30.2443 5.25355H30.3704L30.3454 6.00622C30.3304 6.42054 30.3103 7.02125 30.2963 7.34541L30.2753 7.92991L30.4545 7.6017C31.0339 6.54412 31.6824 5.88769 32.545 5.48857ZM15.8076 5.89675C16.6973 5.44495 17.7601 5.22108 18.8169 5.22108C19.9877 5.22108 21.1486 5.4956 22.0622 6.03858C23.6274 6.97054 24.5731 8.62579 24.8373 10.8899C24.9174 11.5797 24.8653 13.0384 24.7382 13.6402C24.2208 16.1058 22.7087 17.8279 20.4951 18.4762C20.2569 18.5451 19.8866 18.6272 19.6735 18.6576C19.2211 18.7214 17.8431 18.7214 17.4048 18.6556C16.1849 18.4762 15.1151 17.9525 14.2995 17.135C13.62 16.4523 13.1787 15.7016 12.8534 14.6755C12.3451 13.0698 12.3451 11.0053 12.8534 9.43417C13.3448 7.91162 14.4526 6.5856 15.8076 5.89675ZM18.1374 17.7418C18.2965 17.8148 18.5197 17.8512 18.7479 17.8512C18.993 17.8492 19.2462 17.8077 19.4254 17.7226C20.3771 17.2748 20.8864 15.9853 21.0536 13.6057C21.2847 10.2902 20.7483 7.52265 19.6846 6.54915C19.2052 6.11153 18.4606 5.96768 17.9223 6.21182C17.1377 6.56434 16.6333 7.61179 16.3941 9.38354C16.226 10.6457 16.244 13.2218 16.4282 14.3797C16.7234 16.2051 17.3098 17.3609 18.1374 17.7418ZM65.025 5.25041C63.6189 5.37906 62.5872 5.83187 61.7926 6.66558C61.003 7.49219 60.6467 8.46366 60.7098 9.61545C60.7618 10.5697 61.04 11.2545 61.6215 11.8562C62.1599 12.4134 62.6122 12.6767 63.9081 13.1893C65.9987 14.0159 66.5541 14.5062 66.5481 15.5253C66.5451 16.3864 66.0948 17.0175 65.2701 17.3112C64.9779 17.4156 64.2354 17.4156 63.8381 17.3102C62.7993 17.0317 62.0027 16.122 61.3242 14.4303L61.1501 13.9977L60.947 14.0068C60.8339 14.0129 60.6798 14.0463 60.6027 14.0838L60.4646 14.1517L60.4766 14.8902C60.4836 15.2964 60.5036 16.1524 60.5216 16.7916L60.5517 17.9586L60.7858 18.0578C61.2612 18.2655 62.6892 18.5816 63.5849 18.6798C63.697 18.6899 64.3084 18.696 64.9459 18.6889C66.0507 18.6758 66.1298 18.6687 66.6862 18.5218C68.3274 18.0872 69.3892 17.1623 69.8615 15.7563C70.0046 15.3237 70.0267 15.1931 70.0467 14.5498C70.0747 13.6948 69.9956 13.2491 69.7214 12.693C69.2981 11.836 68.5175 11.2494 66.8843 10.5586C65.5504 9.9933 64.8809 9.60329 64.4736 9.15048C64.1413 8.78377 64.0442 8.48797 64.0773 7.9369C64.1053 7.4304 64.2294 7.12852 64.5436 6.78916C64.9459 6.35357 65.5003 6.20061 66.1628 6.34243C67.2496 6.57441 67.9501 7.3372 68.5516 8.95092C68.7647 9.52529 68.7897 9.54352 69.176 9.39765L69.4202 9.30749L69.4112 8.64398C69.4052 8.27929 69.3872 7.51448 69.3692 6.94314L69.3372 5.90582L69.156 5.82782C68.3184 5.46821 66.8393 5.22306 65.6544 5.22306C65.4323 5.22306 65.2201 5.23218 65.025 5.25041ZM51.9465 5.83904C52.7742 5.43181 53.7609 5.22516 54.7126 5.22516C55.5592 5.22516 56.3778 5.38826 57.0293 5.71951C58.5874 6.50864 59.5021 8.08589 59.7343 10.3773C59.7663 10.6863 59.7843 11.053 59.7753 11.1928L59.7593 11.4491L56.0316 11.4622L52.3058 11.4744L52.3198 11.9191C52.3518 12.9534 52.571 13.8651 52.9763 14.6593C53.1614 15.0209 53.3085 15.2185 53.6638 15.5821C54.4704 16.4057 55.272 16.7228 56.5359 16.7228C57.4506 16.7228 58.1111 16.5374 58.8006 16.0876C58.9927 15.96 59.1879 15.8577 59.2349 15.8577C59.341 15.8577 59.5812 16.1737 59.5812 16.3105C59.5812 16.5354 58.8596 17.2586 58.1541 17.7418C57.5787 18.1359 56.663 18.4945 55.8684 18.6343C55.313 18.7326 54.0641 18.7305 53.5137 18.6303C51.0149 18.1744 49.2275 16.3794 48.6441 13.7435C48.569 13.4042 48.537 13.0243 48.517 12.2899C48.488 11.1279 48.5811 10.4067 48.8773 9.51017C49.4467 7.79009 50.4654 6.57043 51.9465 5.83904ZM52.2117 10.4664C52.2207 10.4826 52.4779 10.4877 52.8552 10.4877C53.6107 10.4877 54.8466 10.4604 55.5482 10.4229L56.0725 10.3915L56.0425 9.59423C55.9795 7.97951 55.6692 6.88749 55.1228 6.38098C54.9207 6.18953 54.6475 6.071 54.4163 6.06999C54.3603 6.06999 54.1902 6.10646 54.041 6.15103C53.8239 6.21688 53.7038 6.29994 53.4376 6.57244C52.9442 7.07591 52.585 7.8934 52.3608 9.02695C52.2677 9.49597 52.1747 10.4046 52.2117 10.4664Z" fill="#80808E"/>
</svg>
