<?xml version="1.0" encoding="UTF-8"?>
<svg width="10px" height="19px" viewBox="0 0 10 19" version="1.1" xmlns="http://www.w3.org/2000/svg" xmlns:xlink="http://www.w3.org/1999/xlink">
    <!-- Generator: Sketch 52.2 (67145) - http://www.bohemiancoding.com/sketch -->
    <title>Path</title>
    <desc>Created with Sketch.</desc>
    <g id="Desktop-Pages" stroke="none" stroke-width="1" fill="none" fill-rule="evenodd">
        <g id="Contact-Us-1-Copy" transform="translate(-920.000000, -1285.000000)" fill="#FFFFFF">
            <g id="Money" transform="translate(320.000000, 1049.000000)">
                <g id="Attach" transform="translate(585.000000, 225.000000)">
                    <path d="M20,29.3835217 C22.7614237,29.3835217 25,27.1449454 25,24.3835217 L25,14.4785787 C24.8600908,12.5185991 23.2292254,11 21.2642586,11 C19.2992917,11 17.6684263,12.5185991 17.5285171,14.4785787 L17.5285171,22.7295293 C17.5285171,24.0944916 18.6350377,25.2010122 20,25.2010122 C21.3649623,25.2010122 22.4714829,24.0944916 22.4714829,22.7295293 L22.4714829,17.7865635 L20.9505703,17.7865635 L20.9505703,22.7295293 C20.9505703,23.2545148 20.5249855,23.6800996 20,23.6800996 C19.4750145,23.6800996 19.0494297,23.2545148 19.0494297,22.7295293 L19.0494297,14.4785787 C19.1555299,13.3346103 20.1153804,12.4596641 21.2642586,12.4596641 C22.4131367,12.4596641 23.3729872,13.3346103 23.4790875,14.4785787 L23.4790875,24.3835217 C23.4790875,26.3049686 21.9214469,27.8626091 20,27.8626091 C18.0785531,27.8626091 16.5209125,26.3049686 16.5209125,24.3835217 L16.5209125,17.7865635 L15,17.7865635 L15,24.3835217 C15,27.1449454 17.2385763,29.3835217 20,29.3835217 Z" id="Path"></path>
                </g>
            </g>
        </g>
    </g>
</svg>