<?xml version="1.0" encoding="UTF-8"?>
<svg width="382px" height="255px" viewBox="0 0 382 255" version="1.1" xmlns="http://www.w3.org/2000/svg" xmlns:xlink="http://www.w3.org/1999/xlink">
    <!-- Generator: Sketch 52.2 (67145) - http://www.bohemiancoding.com/sketch -->
    <title>Fill 1</title>
    <desc>Created with Sketch.</desc>
    <g id="Desktop-Pages" stroke="none" stroke-width="1" fill="none" fill-rule="evenodd">
        <g id="Contact-Us-1-Copy" transform="translate(-99.000000, -1600.000000)" stroke="#32344D" stroke-width="2">
            <g id="Ukraine" transform="translate(100.000000, 1601.000000)">
                <g id="UA-map-2">
                    <g id="UA-map">
                        <path d="M261.238084,200.40633 C260.927734,200.320595 260.72042,200.12692 260.699316,199.80495 C260.683178,199.555146 260.832767,199.442889 261.025805,199.545894 C261.293947,199.687758 261.502503,199.899321 261.44664,200.236094 C261.435467,200.303325 261.309465,200.350818 261.238084,200.40633 M260.72042,206.672403 C260.429311,206.974635 260.071788,207.136236 259.78192,206.632311 C259.592607,206.30294 259.393362,205.990222 258.945216,206.060537 C258.910456,206.082125 258.873835,206.103096 258.839076,206.125918 C258.853973,206.089527 258.863283,206.055603 258.876318,206.021062 C257.962646,203.991173 256.360617,203.126419 254.133543,202.964817 C252.986488,202.882166 251.784811,202.455957 250.773689,201.892819 C249.790499,201.344483 248.980484,201.337699 247.978673,201.693592 C246.955138,202.056887 246.574027,201.747871 246.45237,200.690675 C246.430645,200.501318 246.54982,200.295306 246.523751,200.108416 C246.388438,199.136339 245.936568,199.006194 245.005516,199.654451 C244.423299,200.059072 243.801977,199.832706 243.77777,199.180132 C243.764115,198.793398 243.850392,198.40358 243.90191,198.01623 C243.969567,197.508603 244.435092,197.313078 244.751029,197.455559 C245.679597,197.87745 246.636718,198.008212 247.632943,198.041519 C248.314472,198.06434 248.754549,198.534342 248.960001,199.078977 C249.496287,200.500701 250.638376,200.812802 251.960469,200.88435 C253.010074,200.941713 253.896435,199.719215 253.51967,198.724933 C253.311114,198.175981 253.0858,197.634431 252.880968,197.084245 C252.851795,197.005911 252.90021,196.899205 252.912624,196.805451 C254.296166,197.932962 254.296166,197.932962 255.71633,201.135388 C256.679658,200.710413 256.188683,199.524306 256.875178,198.97042 C257.440637,198.866797 257.747263,199.281904 258.097959,199.606341 C258.407689,199.892536 258.661555,200.303942 258.328239,200.61851 C256.942835,201.930443 257.76216,203.154792 258.538036,204.244061 C258.98432,204.870113 259.106598,205.38144 258.876318,206.021062 C258.883145,206.036482 258.892456,206.049435 258.899284,206.064855 C258.915422,206.061771 258.929698,206.062387 258.945216,206.060537 C259.240048,205.874263 259.552261,205.705877 259.801783,205.47211 C260.220756,205.081058 260.514968,205.317293 260.762007,205.621992 C261.032012,205.956298 261.018356,206.363386 260.72042,206.672403 M252.998281,205.591769 C252.948625,205.531939 252.857382,205.467175 252.862347,205.411047 C252.867313,205.355535 252.969108,205.307424 253.028695,205.25623 C253.078351,205.317293 253.127387,205.378973 253.176422,205.440036 C253.117455,205.490614 253.057868,205.541808 252.998281,205.591769 M167.198805,192.503887 C167.140459,192.50142 167.086458,192.399648 167.031216,192.341669 C167.091424,192.288007 167.154115,192.191786 167.21246,192.194254 C167.270186,192.196104 167.324187,192.297876 167.38005,192.357089 C167.3186,192.410134 167.25653,192.506354 167.198805,192.503887 M379.950222,103.516284 C379.327659,101.841671 379.377936,99.787727 377.363761,98.868078 C377.204862,98.7946788 377.111136,98.5713972 376.996307,98.4110291 C375.979599,96.9936225 376.146567,95.9586319 377.566731,94.9162397 C377.8057,94.7410684 378.060188,94.585018 378.317779,94.4363692 C378.69082,94.2192555 378.944686,93.9349107 378.767166,93.4889642 C378.590266,93.0424009 378.404056,92.3892096 377.847908,92.4940656 C376.603403,92.7284496 375.20993,92.2510463 374.113151,93.1657609 C372.83637,94.2309747 371.634072,94.2211059 370.399498,93.0972961 C370.120183,92.8431745 369.725417,92.6772552 369.354238,92.5662312 C368.500774,92.310876 368.065042,91.6953094 367.77952,90.9243093 C367.574689,90.3710396 367.311512,89.8251715 367.204751,89.2515474 C367.096128,88.6711385 366.784537,88.444156 366.260665,88.2948904 C365.135955,87.9747711 364.129178,87.5010686 362.817637,87.7971327 C360.828291,88.24678 360.108278,87.6287463 359.334885,85.5815867 C359.129433,85.037569 358.874325,84.5015697 358.566458,84.0087464 C358.317556,83.6102935 357.769478,83.5745191 357.547887,83.8866199 C356.475316,85.3946962 354.888184,85.7851307 353.048427,86.0694756 C352.91808,84.7883817 352.264482,83.9557016 350.884043,83.8206223 C350.511002,83.7842311 350.106926,83.5948735 349.806507,83.3611062 C348.965457,82.7066813 347.950611,82.1324404 348.196409,80.7859657 C348.260962,80.4325393 348.036889,80.2160424 347.707296,80.3387857 C346.006576,80.9697722 344.352408,81.1696154 342.796311,79.9711728 C341.33332,80.2215936 340.940416,79.3019447 340.682204,78.1392764 C340.547512,77.5354291 340.171368,77.174601 339.407906,77.2023571 C336.945585,77.2948771 336.944344,77.2621867 337.255936,79.6430351 C337.268971,79.7404895 337.31304,79.8342432 337.322972,79.9316976 C337.404904,80.7841153 336.994,81.5082387 336.168468,81.7426227 C335.303211,81.9899596 334.41623,82.1978212 333.769459,81.2060066 C333.510006,80.8081705 332.870064,80.5953745 332.73351,80.1882864 C332.153154,78.4649469 330.656645,77.8561652 329.209791,77.2547851 C328.530124,76.9729074 328.072667,76.6003601 327.600314,76.066828 C326.234772,74.5242109 325.203788,72.925465 325.73697,70.731507 C325.903318,70.0474757 325.545794,69.6262012 324.819574,69.500374 C324.539638,69.4516468 324.276461,69.2801763 324.019491,69.1395459 C322.764434,68.4536642 322.0438,67.5118104 322.490084,65.9987997 C322.539119,65.8316469 322.485118,65.6256356 322.442911,65.44553 C322.427393,65.3770652 322.286494,65.2678916 322.244286,65.2845452 C321.150611,65.7052028 319.730448,65.2092955 318.881329,66.0783669 C316.980743,68.0262217 314.669253,68.5104098 312.108242,68.3963018 C311.080361,68.3506585 310.144965,68.6417882 309.266673,69.1309107 C307.72237,69.9913469 306.078754,70.7043678 305.031011,72.2611713 C304.819973,72.573889 304.247066,72.4844529 304.025475,72.0897009 C303.802023,71.6906312 303.822506,70.9190142 303.551881,70.8234102 C302.088268,70.3046813 300.801555,68.6047802 298.956212,70.0900349 C298.498135,70.4576478 297.742121,70.2744581 297.493841,69.5879596 C297.040729,68.3346217 296.009745,67.5185952 295.259318,66.4940902 C294.834758,65.9155317 294.266196,65.371514 293.557977,65.4196244 C291.029241,65.5929452 288.154776,64.6103826 286.383296,67.506876 C285.868735,68.3475745 284.88989,68.4524306 283.973114,68.2149625 C283.201583,68.0145025 282.974407,67.3187519 282.831025,66.6260854 C282.772058,66.3392734 282.811783,66.0314901 282.750334,65.7440612 C282.66716,65.3573276 282.518812,64.9786123 282.103564,64.8219451 C279.782142,63.9454721 279.368135,61.9908325 279.132889,59.8560873 C279.045371,59.0597984 279.289927,58.7507815 279.985112,58.6705975 C280.474224,58.6144687 280.793264,58.283247 280.657331,57.9162509 C280.371808,57.1458676 280.164494,56.4020066 280.508983,55.6273057 C281.040303,54.4344143 279.696486,54.2351878 279.407239,53.4833085 C279.337721,53.3032029 279.334617,53.0978084 279.273168,52.914002 C278.82378,51.5644433 279.107441,49.9774166 277.83997,48.86841 C277.616517,48.6728844 277.782865,47.9074354 277.934316,47.4614889 C278.049766,47.1216321 278.463774,46.893416 278.679157,46.5720632 C279.064612,45.998439 278.887092,45.4285157 278.275702,45.1077797 C277.553826,44.7290644 276.815813,44.4983812 275.99835,44.8055476 C275.539652,44.977018 275.089023,45.2157197 274.41246,45.0405485 C274.089074,43.4269993 273.116436,41.8874663 273.393269,40.0420003 C273.418097,39.8797819 272.980503,39.459741 272.824707,39.4899642 C271.432475,39.7656738 269.971345,39.0304481 268.583458,40.0888771 C267.61082,40.8315044 266.299279,41.2200885 264.947393,41.0868597 C264.295036,41.0220957 263.711577,40.817318 263.601092,40.1573419 C263.380744,38.8417073 262.624109,38.660368 261.460916,38.8435577 C260.797387,38.9484137 260.050063,38.8855001 259.405776,38.688124 C258.250651,38.3340808 257.17808,37.8622287 256.083164,38.8774817 C255.838608,39.1044641 255.302322,38.8312217 255.036662,38.5222048 C254.736243,38.1718623 254.876522,37.7660079 255.095629,37.4298518 C255.417773,36.9357949 255.788952,36.472578 256.13282,35.9927075 C256.466757,35.5264066 256.43386,35.0699745 256.024818,34.6739889 C255.81378,34.469828 255.572948,34.2736856 255.30915,34.1497088 C254.492928,33.7666759 254.418444,33.173931 254.773485,32.4473404 C254.945419,32.0963812 255.150251,31.7620755 255.337702,31.4172842 C255.793917,30.5790529 255.739296,29.9283288 255.186251,29.0062126 C254.279407,27.4938187 252.862347,26.3891297 251.97909,24.7361054 C252.425995,24.6065773 252.78476,24.4930861 253.14849,24.3980989 C254.579206,24.027402 255.976403,23.5339619 257.472292,23.4124523 C258.097959,23.3612579 258.75404,22.9079098 258.60383,22.2800073 C258.296583,20.993979 258.448655,19.4575299 257.155114,18.5773562 C255.587224,17.5096752 254.430238,16.0379901 253.080834,14.7642978 C251.576255,13.344424 251.124385,11.9128309 251.635843,10.0433097 C251.802811,9.4332944 251.817708,8.8905103 251.304388,8.42235901 C250.790448,7.95420772 250.709136,7.21898198 250.155471,6.72615868 C249.444148,6.09208816 248.434888,5.61345127 248.335576,4.49889345 C248.227574,3.27947962 246.701271,3.41887645 246.405817,2.44556586 C246.019741,1.17125681 245.139588,1.20579762 244.055844,1.33039124 C243.239622,1.42414486 242.552507,1.73131132 241.816976,2.01750658 C241.116826,2.29074903 240.480607,2.95010836 239.60666,2.58311229 C239.622178,2.60284989 239.636454,2.62443789 239.653213,2.6441755 C239.633971,2.6380075 239.617212,2.6355403 239.598591,2.63122269 C239.627144,2.82551473 239.463899,3.02042357 239.403071,2.95010836 C239.125617,2.62813869 239.294448,2.55720668 239.598591,2.63122269 C239.596109,2.61395229 239.601695,2.59668189 239.595488,2.58002828 C239.599212,2.58126189 239.602936,2.58187869 239.60666,2.58311229 C239.267758,2.1538194 239.149204,1.50741288 238.467674,1.41612646 C237.69304,1.31188724 236.825921,0.974497576 236.157426,1.20086322 C235.004164,1.59129769 234.033388,1.41736006 233.006749,0.962778373 C232.628742,0.795625541 232.142112,0.795008741 231.914936,1.13301521 C230.937953,2.58989709 229.041091,2.79220753 227.933761,4.09057178 C227.592996,4.48964145 226.833879,5.00096875 226.361525,4.70552149 C225.157366,3.95487575 224.056243,4.64815908 222.921601,4.70737189 C222.388419,4.7363615 221.939032,4.68269989 221.55606,4.32742302 C219.943479,2.82674833 217.882131,2.56769228 215.834439,2.27286183 C214.979114,2.1495018 214.56883,2.58742989 214.679936,3.48549086 C214.750075,4.05233017 215.41919,4.79680791 214.91394,5.12802958 C213.777437,5.87065692 214.283929,6.87480751 214.174685,7.79075569 C214.009579,9.16621995 213.344188,10.1882577 212.03575,10.7587979 C211.402015,11.0351243 210.773245,11.32317 210.152544,11.6278692 C208.544308,12.4167566 207.777122,12.3624782 206.497857,11.1177755 C205.661153,10.3042162 204.774171,10.1475489 203.614081,10.0248057 C200.904102,9.73799366 198.105982,9.98039611 195.483521,8.95959191 C195.176274,8.83931589 194.653644,8.94540551 194.370605,9.14401515 C193.571142,9.70530326 192.800852,10.2776938 192.476846,11.3305716 C192.254635,12.0534613 191.692281,12.1521493 191.100132,11.6105988 C189.900317,10.511461 188.620432,10.0692153 187.047576,10.6940338 C186.780054,10.8001235 186.451703,10.8562523 186.171767,10.8124595 C185.136438,10.6496242 184.655395,11.2195475 184.552359,12.0947869 C184.319596,14.0728649 182.329008,14.9943643 181.793964,16.7738326 C179.752479,17.6324184 179.164676,19.5845908 178.509216,21.3739279 C178.143002,22.3731441 177.895963,23.3649587 177.058017,24.0711948 C175.72289,25.1956214 175.686889,26.6087105 176.202071,28.0803956 C176.743942,29.6273303 177.792927,31.0175978 177.524784,32.8032341 C177.495611,32.9975261 177.843204,33.2689182 178.048035,33.4736958 C178.69046,34.115168 178.740737,34.8281889 178.4248,35.6460659 C177.319332,38.5055512 177.329263,38.5080184 174.575214,36.9160573 C174.405762,36.8179861 174.195965,36.7896133 174.023411,36.6958597 C173.187327,36.2400444 172.784492,35.6547011 172.770216,34.583936 C172.743526,32.4448732 170.646177,30.4322544 168.62952,30.3403512 C166.99025,30.2644848 164.535998,30.7955497 162.5001,31.6806579 C161.839674,31.9680867 161.128972,32.0242156 160.479719,31.8373251 C159.71067,31.6165107 160.078746,30.8498281 159.953364,30.3138288 C159.890673,30.0473712 159.69267,29.8129871 159.521356,29.5015031 C158.943484,29.7673439 158.389819,29.983224 157.875258,30.2688024 C157.296144,30.5895385 156.792135,31.1477426 156.183848,31.2815882 C155.491767,31.433321 155.080863,31.6806579 155.004516,32.3517364 C154.910791,33.1733142 154.55575,33.6599695 153.665044,33.4773966 C152.941928,33.3299814 152.292054,33.9190255 151.685629,33.7759279 C150.812303,33.5705335 151.056859,32.4214348 150.487056,31.8656979 C149.884355,31.2778874 149.665248,30.5568481 149.770146,29.7068975 C149.857665,28.9914094 149.581453,28.4097669 149.075582,27.8466283 C148.626195,27.3464035 148.387225,26.6605217 148.04646,26.0603752 C147.574728,25.230779 146.834852,25.0987838 146.139047,25.7661615 C145.712625,26.1738664 145.360067,26.6580545 144.968405,27.1033842 C144.622674,27.4975195 144.221702,27.6751579 143.66183,27.5795539 C141.695449,27.242781 140.495635,28.2870236 139.624791,29.8746671 C139.248647,30.5599321 138.883675,31.251365 138.513737,31.9397139 C138.57891,31.9261443 138.644705,31.9125747 138.709878,31.8977715 C138.659602,31.9193595 138.609945,31.9397139 138.554703,31.9637691 C138.292147,31.8552123 137.869449,31.8015507 137.804276,31.6214451 C137.50696,30.7936993 137.262404,29.9388144 137.092332,29.075911 C136.98433,28.5300429 136.795637,28.2130076 136.21342,28.088414 C135.543063,27.9459332 134.899396,27.6819427 134.238349,27.4913515 C133.750479,27.3501043 133.27378,27.3778603 132.792117,27.5851051 C132.188175,27.8441611 131.789685,28.8174717 131.049809,28.4005149 C130.495523,28.0871804 130.274554,27.218109 129.73082,26.854197 C128.877356,26.2842736 129.257846,25.1616974 128.534109,24.5967085 C127.686232,24.7922342 127.064289,25.2412646 126.683179,25.9882096 C126.259861,26.8159554 125.575849,27.3784771 124.769558,27.7775467 C124.051407,28.1322068 123.336981,28.3992813 122.629382,27.6066931 C122.185581,27.1077018 121.57357,26.7388553 120.992594,26.3829617 C120.321616,25.9727896 119.498567,26.3737097 119.546982,27.1360746 C119.625811,28.3684412 119.269528,29.3923294 118.481859,30.3169128 C118.219923,30.6240793 117.980333,30.9725714 117.537152,30.7721113 C117.059833,30.5556145 116.73769,30.1596288 116.857485,29.5983407 C116.915831,29.322631 117.131214,29.0833126 117.240457,28.8143877 C117.816468,27.3988315 117.640809,26.9886594 116.288923,26.7135665 C115.716016,26.5976081 115.113315,26.6870441 114.575168,26.3410193 C113.951984,25.9400992 113.348042,25.9629208 112.622443,26.2873576 C111.931603,26.5951409 111.101105,26.6000753 110.328333,26.7166505 C109.939774,26.7746297 109.540043,26.7567425 109.152725,26.820273 C108.309814,26.9578194 107.962842,26.7635273 107.877185,25.7791144 C107.790908,24.7934678 106.603507,24.2377309 106.674267,22.959721 C106.757441,21.4695319 106.430952,21.3202663 104.915201,21.3720775 C103.93139,21.4053847 102.852612,21.3356863 101.996045,21.7150184 C101.086097,22.1184056 100.335049,22.2442329 99.4772409,21.81494 C98.7249514,21.4374583 97.8125212,21.6366848 97.1769236,20.704083 C96.2185615,19.2977787 94.5594282,19.1694843 93.1777481,19.864618 C91.9127598,20.5023893 91.0146057,20.2655381 90.3523179,19.3138155 C89.6267187,18.2708065 88.7471856,18.0728137 87.5951648,18.0981025 C85.9025137,18.1344937 84.2930364,17.88654 82.9399086,16.6480054 C82.2925176,16.0552605 81.4123639,15.8122412 80.439105,16.1545653 C79.3541199,16.5363646 78.3032734,16.3772301 77.3467734,15.6611252 C77.1599425,15.5204948 76.6869684,15.4730012 76.5448279,15.6006788 C75.2140454,16.7954206 73.741743,16.2470853 72.3097862,15.9713757 C71.8132255,15.8757716 71.3545276,15.7536452 70.8722431,15.9645909 C69.5538745,16.5431494 68.2553684,16.2082269 67.1660384,15.5377652 C65.1810371,14.3158841 63.3027964,14.809941 61.5375233,15.7554956 C60.1837747,16.4808526 58.8896135,17.0199359 57.3391028,16.8262606 C56.9542683,16.778767 56.4626733,16.7072182 56.1783923,16.8904078 C55.2361684,17.4961056 54.27222,17.2863935 53.3057888,17.1180071 C52.7105367,17.0131511 52.158113,17.0150015 51.5547918,17.1432959 C50.5927055,17.3493071 49.5939979,17.522628 48.6176355,17.4942552 C47.0640213,17.4479951 46.2875245,18.2399665 45.7158591,19.5444988 C45.4210262,20.2180445 45.3235762,20.8422462 45.4247504,21.5398471 C45.53958,22.3324353 45.1168828,22.9202458 44.4887335,23.2459163 C42.8035308,24.1217724 41.2728825,25.1592302 40.1208618,26.6919785 C40.0085149,26.8412442 39.7987181,26.9177274 39.634853,27.0287514 C38.7546993,27.6282811 38.1321363,27.5308267 37.3401221,26.6673065 C36.0422366,25.2529838 34.0628217,24.7348718 32.3887915,25.4386407 C31.9480939,25.6230639 31.5191897,25.9419496 31.2125635,26.3052449 C30.8333153,26.7548921 31.2504262,27.1983714 31.3894632,27.6560371 C31.5551903,28.2031388 31.7085034,28.8353589 31.5905703,29.3695078 C31.3286345,30.5506801 31.476982,31.6294635 32.0145089,32.6780237 C32.2423061,33.1239702 32.4266543,33.5458614 32.3136867,34.0756927 C32.1206488,34.9817721 32.9263185,37.8973863 33.1826679,38.8756313 C33.518467,40.1536411 34.4668979,40.8191684 35.267602,41.6703526 C35.589125,42.0108263 35.9758216,42.2649479 36.0217535,42.857076 C36.1508593,44.532922 37.1725328,45.9034518 37.7981993,47.4047433 C38.4797288,49.0398804 39.4020902,50.5689279 41.1468803,51.3738521 C41.2691583,51.4299809 41.3510908,51.7229609 41.329987,51.8907306 C41.3119867,52.0319778 41.1332248,52.241073 40.9979121,52.2632779 C40.6118361,52.3292755 40.2065185,52.2799315 39.8192012,52.3391443 C38.3344848,52.5667435 37.8354413,53.6251725 38.6702839,54.8322503 C39.3853313,55.8666241 40.1680351,56.8405515 40.6062498,58.0531806 C41.4839208,60.4827562 40.7725977,62.7272919 39.8359601,64.9193995 C39.4387116,65.8513845 38.6560078,66.4558486 37.495918,66.4385782 C36.7076279,66.4262422 35.8988547,66.4990246 35.1322892,66.673579 C34.0764771,66.9135143 33.2143236,67.3335552 32.5085868,68.3642281 C31.5285002,69.7970548 30.3466858,71.1318103 28.8712799,72.1791369 C26.9303484,73.5576851 25.2799049,75.2939775 23.8131889,77.140677 C20.3862996,81.4539603 17.0605845,85.8492779 13.7541112,90.255698 C12.7516793,91.591687 11.9484925,93.0744745 11.0472349,94.4857132 C10.6928147,95.0402165 10.6959182,95.5219374 11.0894425,96.1023463 C12.7262306,98.516502 13.0943062,101.196498 12.3929143,103.970249 C11.9745619,105.626974 11.8007657,107.021559 13.7839048,107.733963 C13.9527355,107.795026 14.0613581,108.010906 14.2084642,108.141668 C15.5913856,109.3691 15.5982134,109.383903 14.6274373,111.345328 C14.6299201,111.349645 14.6330236,111.355196 14.6355064,111.360748 C14.6913694,111.343477 14.7472325,111.326824 14.8037163,111.308936 C14.7515774,111.334842 14.6994386,111.360748 14.6485411,111.388504 C14.6448169,111.378635 14.6392306,111.37 14.6355064,111.360748 C14.6292994,111.361364 14.6237131,111.363832 14.617506,111.365682 C14.6212302,111.35828 14.6243338,111.352112 14.6274373,111.345328 C14.4170197,110.88026 14.0253575,110.469471 13.5809357,110.457752 C12.1545651,110.420744 10.9144049,110.066701 9.85797207,109.059466 C9.54141465,108.757234 8.91823101,109.1378 8.71588254,109.670099 C8.44339488,110.38497 8.62898443,111.257742 7.88600553,111.814096 C5.92521161,113.280846 5.544722,115.559923 4.96312532,117.694051 C4.38587355,119.813376 4.3535971,122.123293 2.08741837,123.43646 C0.67532398,124.254337 0.262557927,125.698266 0.163245794,127.23965 C0.118555334,127.929232 0.042209132,128.616348 0.0117947913,129.30593 C-0.0316542669,130.287259 -0.0198609511,130.287876 1.24078244,130.635751 C1.42202708,130.686329 1.72430838,130.684479 1.76837814,130.789951 C2.3319745,132.151846 3.80427687,132.919762 4.13448971,134.437707 C4.37159743,135.53006 4.94202149,136.124656 6.23245852,135.91556 C7.53344746,135.705232 8.1578725,136.77538 8.74071058,137.667889 C9.10940687,138.233495 9.2838238,138.935414 9.48679298,139.593539 C9.74065962,140.417584 10.3868092,140.607559 11.1055807,140.594606 C11.480484,140.587821 11.8597323,140.388595 12.2216008,140.238712 C13.0688575,139.88652 13.7702494,140.132623 14.3859846,140.732152 C15.0613071,141.388428 15.5311777,142.105766 15.0414447,143.09203 C14.8074405,143.563265 14.7435083,143.999343 15.2692419,144.379908 C15.7937341,144.758007 16.6124385,145.082444 16.8507876,144.587153 C17.3759005,143.498501 18.2883308,143.78593 19.0809657,143.621861 C19.8047029,143.471979 20.3856789,143.227109 20.5613372,142.410466 C20.6637528,141.932446 20.8139624,141.450725 21.0299663,141.012797 C21.2596256,140.548346 21.6332875,140.270169 22.2229533,140.490984 C22.8504819,140.726601 23.5574601,140.705013 23.9528465,141.46121 C24.6765837,142.841609 26.0669536,143.462727 27.3642183,144.177598 C28.0500927,144.556313 28.6621037,144.645132 29.1890788,143.95555 C29.5403954,143.4948 30.0673704,143.4177 30.5279304,143.537359 C31.76747,143.859946 32.9933541,144.056088 34.286274,143.916075 C34.7797311,143.862413 35.2148424,144.249147 35.4699505,144.700644 C35.8678197,145.403797 36.4301746,145.691842 37.1948781,145.378508 C38.6771117,144.771576 39.9209961,144.997942 41.3436424,145.849126 C43.2100898,146.964918 45.4321988,146.948881 47.1999548,145.655451 C48.118592,144.983756 48.821846,145.036184 49.7963463,144.950448 C51.6553453,144.78638 52.6168109,145.495083 53.0761295,147.140706 C53.2493051,147.759973 53.5956561,148.307692 54.1691837,148.442154 C55.7916957,148.82272 56.6079173,150.005125 57.3521376,151.304723 C57.5513825,151.653215 57.7878695,152.007259 58.2105668,152.055369 C60.0428757,152.261997 61.8007004,152.135553 63.1122413,150.616374 C63.561008,150.097029 64.0209473,149.544376 64.2977799,148.927576 C65.1692438,146.99144 66.7452032,146.140256 68.7494462,146.03355 C71.1217648,145.907722 73.4295305,145.085528 75.8421946,145.424768 C76.1264756,145.464243 76.44924,145.425385 76.721107,145.330397 C78.9767338,144.538426 81.306224,144.207204 83.6878531,144.148608 C84.4041419,144.129488 85.1918112,143.959868 85.4388502,143.244996 C85.932928,141.81587 87.2786074,140.962219 87.7596506,139.510888 C88.1469679,138.340818 89.0742949,137.667889 90.3970084,137.425487 C91.0499857,137.305211 91.7271703,137.128806 92.3826304,136.953018 C93.4309941,136.673608 94.2739058,136.161047 94.7512247,134.991594 C95.4184781,133.358307 95.5798603,133.399633 97.4171348,134.160764 C97.5083778,134.198389 97.5990001,134.239714 97.6858983,134.285974 C98.0074213,134.453744 98.2513567,134.305712 98.4642571,134.086131 C98.771504,133.769096 98.8044011,133.390997 98.6523294,132.996245 C98.4537052,132.481217 97.923006,132.380062 97.530723,132.099418 C97.3352023,131.959404 97.1794064,131.559718 97.2358902,131.333969 C97.2948567,131.098968 97.5996208,130.835595 97.8516254,130.756027 C98.667847,130.497588 99.3015825,130.698665 99.9495942,131.376528 C101.100374,132.580522 101.664591,132.558934 103.000339,131.641136 C103.156755,131.533196 103.272206,131.358024 103.383932,131.197656 C103.588763,130.906527 103.990977,130.834361 104.128773,131.024952 C104.866165,132.045756 105.953633,131.49187 106.861098,131.715152 C107.933669,131.979142 108.536369,131.55355 108.903204,130.576539 C109.055896,130.170684 109.440731,129.954804 109.841083,130.263204 C110.872687,131.057026 111.513871,130.719636 112.312093,129.793819 C112.989277,129.007399 113.97495,128.356675 115.103384,129.432374 C115.634083,129.93815 116.387614,129.956654 117.071627,129.661207 C117.826399,129.335537 118.417306,129.58349 118.964764,130.082482 C119.540154,130.607379 120.288719,130.919479 120.65245,131.704049 C121.199287,132.882754 122.193029,133.375577 123.50457,133.500788 C124.689488,133.614279 124.678936,133.726537 124.846525,134.977407 C124.988045,136.031519 124.988045,136.033986 126.22386,136.025351 C126.503176,136.0235 126.817871,135.879786 126.947598,136.291192 C127.178498,137.025801 127.689956,137.122021 128.342933,136.880853 C128.803493,136.711233 129.254743,136.4861 129.731441,136.399748 C129.96979,136.356572 130.373866,136.49967 130.485592,136.686561 C130.604146,136.884553 130.525317,137.260801 130.417936,137.510605 C130.304968,137.771512 130.064136,137.981841 129.86365,138.199571 C129.533437,138.557932 129.563852,138.950834 129.910823,139.202488 C130.086482,139.329549 130.488075,139.277738 130.720217,139.166714 C131.052913,139.008196 131.330366,138.520307 131.618992,138.530176 C132.361971,138.556082 132.02431,139.217908 132.135415,139.642267 C132.25521,140.099316 132.512801,140.529842 132.762944,140.940631 C132.978327,141.294057 133.576682,141.234228 133.721926,140.853045 C133.862205,140.486666 133.898205,140.077111 134.057105,139.7206 C134.624425,138.446291 135.099882,138.20944 136.333215,138.821306 C137.33875,139.321531 138.364148,139.52014 139.462168,139.621295 C140.511152,139.717516 140.589981,139.908724 140.768122,141.138007 C141.034403,142.979155 141.582482,144.584686 143.876592,144.690159 C144.055354,144.698794 144.232874,144.855461 144.401084,144.959084 C145.324066,145.523456 146.067045,145.366172 146.704505,144.476746 C146.846645,144.278136 147.209755,144.235577 147.443139,144.133188 C148.047702,144.562481 147.989976,145.207654 148.12591,145.758457 C148.366742,146.731767 149.198481,147.631062 148.500192,148.748087 C148.403984,148.902287 148.567849,149.398811 148.750335,149.510452 C149.53428,149.986005 149.656558,150.510285 148.99427,151.144972 C148.389087,151.725381 148.696955,152.406328 148.650402,153.07494 C148.564125,154.31039 148.729852,155.623558 147.569141,156.607354 C146.641814,157.39254 146.651745,157.517751 147.304723,158.448502 C147.670315,158.968465 147.858388,159.40886 147.777697,160.051566 C147.687695,160.766437 148.176807,161.08964 148.859578,161.154404 C149.15317,161.183394 149.462899,161.329576 149.732284,161.270363 C150.454779,161.114312 150.732233,161.407292 151.043824,162.048148 C151.498177,162.98075 152.309433,163.698705 152.612335,164.773788 C152.813443,165.489892 153.827047,165.510864 154.313676,164.909484 C154.498025,164.682501 154.632717,164.411726 154.76865,164.149586 C154.98962,163.72276 155.147278,163.115212 155.772323,163.318756 C156.293712,163.488993 156.281298,164.101475 156.358886,164.574561 C156.420956,164.958211 156.622684,165.536152 156.447025,165.706389 C155.34404,166.769136 156.088881,167.945374 156.118674,169.074735 C156.132951,169.626771 155.908878,170.012271 155.334729,170.159069 C154.876031,170.276261 154.679269,170.559989 154.867962,171.028141 C155.058517,171.497526 155.289418,172.011937 155.91943,171.75103 C156.742479,171.410557 157.104968,171.78187 157.012484,172.493658 C156.865378,173.627336 156.54882,174.73881 156.308609,175.841032 C157.103106,176.172254 157.806981,176.526914 158.54996,176.752663 C159.076314,176.912414 159.463011,177.177021 159.620669,177.665527 C159.904329,178.545701 160.545513,178.548168 161.279802,178.455648 C161.744086,178.397669 162.29651,178.139229 162.624861,178.672761 C163.329977,179.817542 164.437928,180.769882 164.499377,182.236632 C164.570758,183.921114 164.099646,185.530962 163.681914,187.137109 C163.547222,187.655838 162.686931,187.913044 162.994178,188.625448 C163.23501,189.184269 163.748329,189.500687 164.262269,189.826975 C164.659518,190.078629 164.97111,190.482633 165.273391,190.857648 C165.620363,191.286941 166.516034,191.438057 166.263409,192.147377 C166.02506,192.815371 165.271529,192.667956 164.707312,192.558166 C164.196475,192.458244 163.768192,192.519924 163.279079,192.697562 C162.038919,193.148443 162.014091,193.120071 161.444288,192.246682 C161.124006,191.754475 160.88876,191.203056 160.532478,190.741689 C160.394062,190.561584 159.836052,190.427738 159.795086,190.488801 C159.252593,191.295576 157.648081,191.291258 158.003122,192.796251 C158.074503,193.099716 157.772842,193.362473 157.464354,193.34767 C157.199315,193.335334 156.820687,193.223076 156.703995,193.029401 C156.292471,192.346603 155.500456,191.895106 155.191968,191.310996 C154.540232,190.079246 153.995878,189.331067 152.567645,190.197672 C152.507437,190.234063 152.341089,190.191504 152.28833,190.131057 C151.328726,189.0202 151.0221,189.920728 150.70368,190.653487 C150.510642,191.096966 150.47278,191.620013 149.957598,191.867966 C149.488969,191.590406 149.202826,191.153712 149.365449,190.648552 C149.55228,190.067527 149.611868,189.529677 149.520004,188.924596 C149.330069,187.676193 148.842819,187.409118 147.721213,188.136942 C147.227756,188.457062 146.837956,188.897457 146.18622,188.931998 C145.128546,188.986893 144.411015,189.697447 143.594794,190.259352 C142.879746,190.750941 142.756848,191.283857 143.054784,192.011681 C143.625829,193.405032 144.080803,194.793449 143.285064,196.27562 C143.186993,196.458193 143.338444,196.869598 143.501689,197.073143 C143.807694,197.453708 144.22046,197.747305 144.562466,198.102582 C144.947922,198.501035 145.030475,198.950065 144.669227,199.41945 C144.367566,199.811118 144.075837,200.210805 143.756176,200.587053 C143.266443,201.163761 143.16589,201.657818 143.549483,202.431285 C144.173908,203.688941 143.853626,204.155858 142.51105,204.50065 C142.319874,204.549377 142.118147,204.56233 141.92635,204.609823 C138.982366,205.338264 138.978642,205.339498 139.292096,208.274849 C139.334924,208.678237 139.409408,209.150089 138.99478,209.321559 C137.917864,209.762571 137.627997,211.112747 136.236385,211.332328 C135.285472,211.482827 134.361869,212.324142 133.786479,213.25551 C133.594062,213.566995 133.391714,214.191813 133.536337,214.337995 C134.817463,215.630191 133.772824,216.87366 133.553096,218.132549 C133.489784,218.495227 133.692133,218.938707 133.239021,219.173708 C132.585423,219.513564 132.457559,218.828916 132.080173,218.608102 C131.667407,218.368167 131.126156,218.357681 130.660009,218.192379 C129.464539,217.768637 128.832666,218.510647 128.170999,219.29275 C127.433606,220.164905 127.919615,220.654645 128.601765,221.223951 C128.858735,221.438598 128.871149,221.939439 129.002738,222.307052 C129.596128,223.965628 130.597939,225.228834 132.348936,225.81171 C132.909429,225.997984 133.434542,226.295899 133.966483,226.561123 C135.321472,227.238369 136.839707,227.261191 138.275388,227.608449 C139.08354,227.803358 139.554652,227.380233 139.75638,226.604299 C140.238044,224.749581 140.279631,224.732927 142.002696,225.581644 C142.263391,225.709938 142.542085,225.801225 142.875402,225.935687 C143.711486,224.637323 144.959715,223.891612 146.335188,223.313053 C146.881405,223.082987 147.457415,222.888695 147.950872,222.571659 C150.330019,221.043229 152.773097,221.059266 155.262107,222.226868 C156.988897,223.036727 158.211057,224.228385 158.058985,226.31687 C158.022985,226.814627 157.998157,227.287713 158.279334,227.739828 C158.459958,228.02849 159.09928,228.186391 159.307835,227.913148 C159.538736,227.612767 159.762809,227.280312 159.881984,226.925651 C160.522547,225.014805 160.270542,223.029325 160.320198,221.070368 C160.33075,220.638608 160.054538,220.333292 159.635565,220.219801 C159.255696,220.116178 158.852241,220.095207 158.472993,219.989734 C157.888293,219.826282 157.644357,219.322973 157.986363,218.922053 C158.624444,218.172024 159.271835,217.417061 160.0024,216.760169 C160.957658,215.901583 161.993608,215.129349 163.002247,214.329359 C166.801556,211.319375 170.759145,208.475926 173.495815,204.360019 C173.603817,204.198418 173.763958,204.070123 173.901133,203.927642 C175.9091,201.846559 177.466438,199.455225 178.76991,196.894887 C179.352127,195.752573 179.846826,194.575102 180.760497,193.620295 C181.479269,192.868416 181.620168,191.875368 181.623892,190.86875 C181.626996,190.090348 180.813257,189.424821 181.237196,188.613729 C181.758584,187.615746 182.859708,188.135092 183.649239,187.805104 C184.563531,187.424538 185.493962,187.07728 186.429979,186.752226 C188.130699,186.163799 189.846937,185.786317 191.672418,186.210676 C192.735058,186.457396 193.813215,186.497488 194.860958,185.990478 C195.512073,185.675293 196.238914,185.707367 196.875753,186.062027 C197.618732,186.4759 198.138879,186.264954 198.693786,185.701199 C199.231933,185.154714 199.927118,185.159648 200.635338,185.424255 C201.099002,185.59881 201.607976,185.668508 202.048674,185.883155 C202.958001,186.32355 203.851189,186.234731 204.571823,185.641986 C205.833708,184.602061 206.882071,184.909844 208.026644,185.823325 C208.623137,186.299495 209.487153,186.406818 209.846538,187.233947 C210.10475,187.826692 210.606897,187.691613 211.107182,187.517675 C211.570845,187.355457 212.053751,187.229629 212.538518,187.152529 C212.691831,187.128474 212.905973,187.283291 213.04563,187.407268 C213.365291,187.691613 213.382671,188.846263 213.062389,189.347104 C212.838937,189.697447 212.487,189.848563 212.053751,189.846712 C210.964421,189.842395 209.96323,189.099767 208.842865,189.446409 C207.819329,189.762828 206.896347,189.45011 205.947916,189.125056 C204.828172,188.742023 203.689807,188.408951 202.551442,188.082047 C201.696116,187.835944 199.050689,188.019134 197.773287,188.378111 C197.984946,188.600776 198.175501,188.828375 198.392125,189.026985 C199.750839,190.274772 199.752081,190.243932 202.128124,190.19212 C202.703513,190.179784 203.301869,190.369759 203.858637,190.556649 C204.975278,190.933514 206.025504,191.513306 207.270009,191.451626 C207.478565,191.441757 207.770915,191.741522 207.906848,191.967271 C208.13899,192.354005 207.940366,192.722234 207.667878,193.031868 C206.972073,193.820139 206.037918,194.114352 205.037348,194.267936 C204.354577,194.372792 203.650703,194.412884 203.000208,194.619512 C202.544614,194.763226 202.121917,195.142558 202.311851,195.737153 C202.473233,196.240462 202.831378,196.571067 203.410491,196.546395 C203.805878,196.530358 204.262093,196.605608 204.582995,196.437222 C205.266387,196.078244 205.807017,195.941314 206.397304,196.61671 C206.629446,196.881934 207.083178,197.018247 207.459323,197.086712 C209.199147,197.402514 210.2022,198.890852 211.664571,199.640265 C211.891127,201.028065 213.12508,201.078643 214.107029,201.400612 C215.88844,201.985339 217.6953,202.492965 219.491609,203.032665 L219.482919,203.017245 C219.921754,202.240077 220.343831,201.66892 221.461713,201.565298 C223.031465,201.42035 224.569562,201.308709 226.146142,201.432069 C227.167816,201.511636 228.330388,201.884183 229.106264,200.715347 C229.211784,200.55683 229.67793,200.486514 229.892692,200.575334 C230.474289,200.816502 231.05961,201.008327 231.569826,200.570399 C232.261908,199.976421 232.589638,201.451807 233.378548,200.775177 C233.814901,200.399546 234.268013,200.89792 234.303393,201.488815 C234.322014,201.787963 234.328841,202.159276 234.72609,202.026047 C235.448586,201.783645 235.840248,202.14324 236.213289,202.642848 C236.331222,202.801365 236.475225,202.939528 236.596261,203.096196 C237.113926,203.765424 237.898492,203.484163 238.542779,203.554478 C239.174653,203.622943 238.904648,202.739068 239.255344,202.478162 C239.813354,202.063672 239.547694,201.354969 239.927563,200.921975 C240.095152,200.730767 240.431572,200.523522 240.635162,200.569782 C240.867304,200.62221 241.131722,200.918274 241.210551,201.163144 C241.326002,201.519038 241.42221,201.979787 241.290001,202.29929 C240.916339,203.196734 241.204344,204.054086 241.29807,204.924391 C241.337795,205.301256 241.332209,205.833555 241.564351,206.005642 C241.913185,206.265315 242.453815,206.269016 242.915617,206.382507 C242.870926,207.133769 242.512161,207.975085 241.823183,207.860977 C240.484331,207.639545 239.768663,208.868211 238.515468,208.892266 C237.337378,208.915705 236.474604,209.97105 235.501966,210.643979 C234.579604,211.281133 233.53062,212.091609 232.24639,211.19108 C232.02542,211.035647 231.603965,211.254611 231.552446,211.539573 C231.354443,212.626991 230.38677,212.794761 229.633239,213.214802 C227.991486,214.130133 226.139315,214.809847 224.940121,216.279681 C224.210176,217.174658 223.306436,217.648361 222.395868,218.195463 C221.548611,218.704323 220.654181,219.133616 219.800718,219.63384 C218.931116,220.143317 218.236552,220.850787 217.720128,221.70999 C217.137911,222.678366 217.582333,224.050129 218.605869,224.414658 C219.929203,224.885277 221.174949,225.171472 222.505111,224.164854 C224.016518,223.02069 225.673789,223.302568 227.222437,224.298083 C228.231076,224.946957 229.155921,225.709938 229.873451,226.65611 C230.975195,228.108674 232.315908,229.21213 234.006698,229.885675 C234.562845,229.64574 235.143821,229.470569 235.641624,229.162786 C236.593779,228.574975 237.331792,228.939504 238.060495,229.554454 C240.595437,231.69475 241.010065,234.558553 240.807717,237.611097 C240.78413,237.96514 240.553229,238.389498 240.281362,238.62635 C239.512314,239.296811 239.354035,240.200424 239.488727,241.051608 C239.874183,243.487968 239.393139,245.33035 236.703643,246.064959 C236.309498,246.173516 236.226324,246.701497 236.539778,247.051223 C237.536002,248.159612 238.604229,249.182267 240.201292,249.341401 C240.839993,249.404932 241.196275,249.704697 241.574903,250.257966 C242.485471,251.590871 243.663561,252.55678 245.488422,251.973287 C246.367334,251.692027 247.272936,252.036818 248.145642,251.957251 C249.88919,251.797499 251.778604,251.823405 252.712138,249.865681 C252.997039,249.268002 253.614637,249.185351 254.12237,248.896072 C255.738054,247.97704 257.227736,246.907508 257.804367,244.981858 C258.091131,244.023968 258.622451,243.203007 259.48026,242.605944 C262.578798,240.451461 266.072102,239.531812 269.793204,239.332586 C270.287903,239.30668 270.711841,239.554017 271.157504,239.806288 C272.231317,240.413836 272.690635,240.239282 273.194645,239.175919 C273.485753,238.560352 273.42058,237.561136 274.075419,237.377946 C275.446547,236.99368 275.791036,234.719538 277.72514,235.48252 C277.825073,235.521995 278.157768,235.309815 278.156527,235.217295 C278.149699,234.490088 279.239029,234.265573 278.951645,233.422407 C278.623294,232.458349 279.291789,231.931601 279.946007,231.493673 C281.15265,230.685048 282.435638,230.372947 283.885596,230.955823 C285.200861,231.485655 286.436055,232.087652 287.161655,233.35826 C287.575041,234.081766 288.119396,234.262489 288.894651,234.091018 C289.472524,233.963958 290.218606,234.11384 290.627648,233.801739 C291.743047,232.948705 292.880171,233.210228 294.034054,233.46805 C296.081746,233.924482 297.876192,232.877773 299.794779,232.574307 C299.88478,232.560121 299.961126,232.470685 300.047404,232.421957 C300.92073,231.935302 301.09825,231.579408 300.737002,230.516662 C300.308719,229.257156 300.352168,228.097572 300.687346,226.77947 C300.923213,225.852419 301.966611,225.507011 301.893989,224.53185 C301.862333,224.106258 302.199994,224.08467 302.475586,224.054447 C302.964698,223.998935 303.475535,224.055681 303.946646,223.942189 C304.619486,223.780588 304.946596,222.936188 304.618245,222.281763 C304.359413,221.766735 304.110512,221.286248 303.388636,221.157954 C301.95668,220.903215 300.538999,220.551022 299.134974,220.16984 C297.552807,219.739313 295.994848,219.798526 294.443096,220.245089 C293.576598,220.494893 292.913689,220.853871 292.537545,221.868507 C292.094364,223.060782 290.927447,223.255074 289.856117,222.551922 C289.450179,222.286698 289.143552,221.874675 288.765546,221.560724 C288.345952,221.212232 288.867961,220.201913 287.961117,220.2932 C287.296967,220.359197 287.336072,221.242455 286.871167,221.602666 C286.302605,222.044912 286.00591,222.654311 285.724732,223.290232 C285.516797,223.759 285.12079,224.0674 284.643471,224.253057 C282.616883,225.041944 280.58595,225.938771 278.613983,224.117977 C278.56619,224.074185 278.465636,224.086521 278.375634,224.087754 C278.340875,224.595997 278.666743,224.940789 278.936127,225.328756 C279.075785,225.529216 279.181304,225.896212 279.087578,226.081252 C278.942334,226.369915 278.5755,226.308235 278.309219,226.162053 C277.369478,225.644558 276.434082,225.119661 275.509238,224.577493 C274.999643,224.278962 274.505565,223.926769 273.887347,223.958226 C272.850776,224.011888 272.276628,223.398788 271.786274,222.622854 C271.278541,221.819163 271.25992,221.454634 272.055038,220.658345 C272.603117,220.11001 272.847673,219.597449 272.598151,218.851121 C272.485183,218.511881 272.406975,218.131315 272.737188,217.776655 C273.182851,218.055449 273.626032,218.334243 274.069212,218.612419 C273.788655,217.599017 273.32375,216.725628 272.235041,216.328409 C272.236282,216.361716 272.231938,216.383304 272.228834,216.406742 C272.380906,216.39564 272.369112,216.508514 272.249317,216.478291 C272.232558,216.473357 272.224489,216.473973 272.210213,216.471506 C272.141936,216.599184 271.969381,216.424629 272.210213,216.471506 C272.218903,216.455469 272.224489,216.433881 272.228834,216.406742 C272.209592,216.407976 272.197799,216.404275 272.173592,216.409826 C272.07428,214.861041 271.287231,213.633609 270.293489,212.504865 C270.274247,212.496846 270.25935,212.485127 270.240109,212.476492 C269.739203,212.865076 269.926034,213.241324 270.253764,213.615105 C270.255005,213.614488 270.256247,213.614488 270.258109,213.614488 C270.257488,213.615722 270.257488,213.616955 270.256867,213.618806 C270.264316,213.627441 270.271144,213.636076 270.278592,213.644095 C270.251902,213.724895 270.225212,213.80693 270.199142,213.887731 C270.219005,213.800762 270.238246,213.712559 270.256867,213.618806 C270.255626,213.616955 270.255005,213.615722 270.253764,213.615105 C269.438163,213.693439 268.508353,214.168375 267.981378,213.111179 C267.378057,211.900401 266.3359,212.149588 265.333468,212.216202 C265.337193,212.238407 265.342158,212.260612 265.344641,212.282817 C265.30802,212.281583 265.271398,212.278499 265.234156,212.275415 C265.139189,212.37472 265.046705,212.477109 264.939944,212.563461 C264.913254,212.585049 264.757458,212.497463 264.758079,212.494379 C264.848701,212.242725 265.040498,212.258761 265.234156,212.275415 C265.251536,212.256911 265.268916,212.23779 265.286916,212.219903 C265.302433,212.218669 265.317951,212.217436 265.333468,212.216202 C265.319813,212.14342 265.304296,212.069404 265.306778,211.996005 C265.320434,211.436567 265.987687,211.016526 265.641336,210.376287 C265.294985,209.736049 264.68856,209.825485 264.108826,209.786627 C263.979099,209.777375 263.779234,209.584933 263.761854,209.456639 C263.739509,209.291336 263.817717,209.039065 263.943099,208.945311 C264.167172,208.780009 264.452073,208.678854 264.726423,208.60052 C265.008842,208.519719 265.353331,208.46359 265.300571,208.110164 C265.216777,207.547025 264.83877,207.667301 264.444625,207.825819 C263.925098,208.035531 263.388813,208.23044 262.83763,207.936226 C262.83763,207.949796 262.834527,207.964599 262.834527,207.978785 C262.797285,208.006541 262.769353,208.036148 262.740801,208.065754 C262.678731,208.396359 262.61604,208.726964 262.55397,209.062503 C262.551487,209.062503 262.549625,209.06312 262.547142,209.06312 C262.546522,209.070522 262.547142,209.07854 262.545901,209.085942 C262.511142,209.07854 262.486934,209.073606 262.454037,209.066204 C261.845751,209.074839 261.540986,209.437518 261.347948,209.930341 C261.348569,209.938976 261.34919,209.945761 261.34919,209.955013 C261.406294,209.950079 261.456571,210.018543 261.351052,209.998806 C261.352914,210.027795 261.353535,210.04815 261.354776,210.078373 C261.329948,210.07899 261.318776,210.071588 261.298913,210.069738 C261.289603,210.095643 261.279671,210.120932 261.270982,210.148071 C261.269119,210.112914 261.272844,210.090092 261.276568,210.066037 C261.120772,210.035814 261.135048,209.927257 261.250498,209.969816 C261.273464,209.978451 261.285878,209.980302 261.303258,209.985236 C261.31381,209.971667 261.324983,209.964265 261.337397,209.960564 C261.341121,209.950695 261.344224,209.94021 261.347948,209.930341 C261.29643,208.857726 261.353535,208.827502 262.454037,209.066204 C262.485693,209.066204 262.514245,209.061886 262.547142,209.06312 C262.577557,208.72203 262.475141,208.347632 262.740801,208.065754 C262.751353,208.012093 262.761284,207.957197 262.771836,207.902919 C262.793561,207.917105 262.815906,207.924507 262.83763,207.936226 C262.858114,207.183113 263.370812,206.283202 262.608592,205.753371 C261.433605,204.937344 261.952511,204.137354 262.35038,203.23806 C262.661351,202.535524 263.19143,201.879249 262.923287,201.016346 C262.747629,200.45074 262.55397,199.792614 263.188326,199.438571 C263.833235,199.07836 265.47685,199.674805 265.767959,200.328614 C265.855478,200.525373 265.728234,200.995374 265.555679,201.095296 C264.976566,201.428985 264.183931,201.181648 263.65199,201.721348 C263.845028,202.652716 264.840011,203.478612 264.031238,204.561713 C264.002065,204.601805 264.355865,205.004575 264.589869,205.13472 C264.863598,205.286453 265.151603,205.16371 265.335331,204.894785 C265.542024,204.590086 265.463816,204.085543 266.142862,203.996724 C266.897014,205.558462 267.191226,207.176328 266.560594,208.939143 C266.334038,209.573831 266.676044,209.963648 267.271296,209.7416 C267.944757,209.491796 268.382972,209.467124 268.661666,210.177061 C269.011121,211.06402 269.25816,212.017593 270.240109,212.476492 C270.246936,212.472174 270.25004,212.466006 270.256867,212.461689 C270.269281,212.476492 270.281075,212.491295 270.293489,212.504865 C270.297834,212.506715 270.300937,212.509799 270.304661,212.511033 C270.072519,211.878813 269.852171,211.230556 269.588373,210.600186 C268.216003,207.328061 267.240261,203.952931 266.83184,200.421134 C266.651837,198.863096 267.108673,197.979839 268.542492,197.454325 C269.186779,197.218091 269.86955,197.078077 270.541769,196.923877 C271.134538,196.787564 271.704342,196.579702 272.080487,196.107234 C272.868777,195.120353 273.49196,194.003328 274.505565,193.19532 C275.05923,192.753074 274.490047,191.824174 275.303165,191.352938 C275.735794,191.890171 275.372684,192.489084 275.478824,193.013364 C275.609791,193.662238 276.306838,193.862698 276.471945,194.418435 C276.57374,194.757058 276.52098,195.140708 276.522842,195.508937 C277.531481,195.346719 277.628311,194.323448 278.166458,193.721451 C278.947921,192.847445 279.413446,191.618779 280.566088,191.165431 C282.482812,190.410468 283.786283,188.969623 285.201481,187.589841 C286.69737,186.131108 288.511058,185.117706 290.605303,184.676077 C292.061467,184.36891 293.520735,184.934516 294.999244,184.594659 C295.531805,184.47315 296.081746,185.012233 296.302716,185.620398 C296.480857,186.10952 296.442994,186.557934 295.964434,186.870035 C296.683205,186.581373 297.277837,186.203891 297.675706,185.460647 C299.224975,182.560453 302.145993,181.881972 305.008045,181.288611 C306.821733,180.912979 307.912925,181.849282 308.323208,183.682412 C308.403899,184.039539 308.469073,184.400367 308.540453,184.759962 C308.799286,183.097685 309.571437,181.634019 310.476419,180.262255 C310.891047,179.633736 311.539059,179.050243 312.216244,178.720255 C313.803376,177.946788 315.411612,177.228216 316.936053,176.32522 C317.703239,175.869405 318.310284,176.407255 318.494633,177.581642 L318.550496,177.518112 C319.040229,177.796288 319.500168,177.791354 319.858933,177.317652 C320.931504,175.902712 322.020834,174.500109 323.046852,173.051245 C323.815901,171.96506 324.79847,171.509245 326.101942,171.788038 C327.399207,172.064365 328.656747,171.986031 329.903114,171.520964 C331.652249,170.867156 333.431798,171.854036 335.202037,171.474087 C335.372109,171.437696 335.644597,171.819495 335.853773,172.023039 C336.433507,172.587411 336.917654,172.328355 337.367662,171.853419 C338.06533,171.11696 338.619616,170.287364 338.573684,169.234486 C338.522166,168.035427 339.011899,167.255791 340.004399,166.547088 C340.875863,165.925353 340.558685,165.115495 339.448251,164.755284 C338.489268,164.443799 338.192573,163.895464 338.864172,163.389688 C339.932398,162.585997 339.915018,161.565193 339.88088,160.478391 C339.862879,159.889347 339.727567,159.303387 339.707704,158.713726 C339.660531,157.268564 340.576685,156.158323 341.657946,155.664883 C342.660378,155.208451 343.758398,154.563895 345.022145,154.716245 C345.971817,154.830353 346.7719,154.443619 347.366532,153.692357 C347.695503,153.276016 348.060475,152.976252 348.616002,153.23284 C349.411741,153.59922 349.678022,153.175478 349.811472,152.493914 C349.94244,151.822219 350.111271,151.157308 350.231066,150.484996 C350.617763,148.314476 351.36819,147.639697 353.432641,147.675471 C354.124102,147.686574 354.916116,147.547177 355.485919,147.828438 C356.96567,148.559963 358.313212,148.302757 359.786755,147.838923 C360.788566,147.523739 361.945553,147.373239 362.81081,148.373689 C362.921915,148.501984 363.24468,148.638913 363.316681,148.582168 C364.345803,147.767375 365.128507,149.05772 366.130318,148.87268 C367.084335,148.697509 368.100422,148.827037 369.087337,148.868363 C369.758314,148.896736 370.181632,148.604372 370.565225,148.08441 C371.495656,146.824287 371.482621,145.310043 371.652693,143.886468 C371.743315,143.135206 371.175995,142.290806 372.534088,142.252565 C372.922026,142.242079 372.815886,141.854729 372.804714,141.572851 C372.724023,139.580587 373.735144,138.004046 374.95358,136.60576 C375.956633,135.453577 376.065876,135.470231 375.525246,134.182352 C375.270758,133.57357 374.885303,133.518058 374.36888,133.783899 C373.972873,133.988677 373.585556,134.016433 373.369552,133.58899 C373.231756,133.316365 373.419208,133.065327 373.696661,132.89324 C374.458261,132.420154 374.355845,131.772514 374.022529,131.096501 C373.250998,129.534763 372.378292,128.02792 372.450294,126.170735 C372.479467,125.428725 371.815937,124.997581 371.079786,124.812541 C370.363497,124.632436 369.493275,125.017936 368.892437,124.217946 C369.093544,123.671461 369.474033,123.118191 369.465964,122.570473 C369.439895,120.877973 370.478948,119.624019 371.105235,118.202911 C371.339239,117.670613 371.773109,117.538001 372.321809,117.772385 C372.68616,117.928435 373.061684,118.05858 373.435346,118.191809 C375.057237,118.768517 375.064686,118.772835 376.163326,117.44178 C376.474918,117.063682 376.784648,116.665845 376.996307,116.229768 C377.246449,115.71474 376.918098,115.25399 376.592851,114.902414 C376.301122,114.585995 375.895183,114.610667 375.560005,114.946824 C375.35207,115.155919 375.107514,115.545736 374.921924,115.522298 C373.960459,115.400788 373.002717,115.213898 372.064838,114.967178 C371.442896,114.803726 371.181581,114.228251 370.915921,113.687318 C370.657089,113.159337 370.424326,112.598665 369.883075,112.274229 C369.462861,112.023191 368.906713,111.797442 369.123958,111.202847 C369.26734,110.809328 369.790591,110.938856 370.163632,110.86484 C370.931439,110.713108 371.724074,110.254208 372.440362,110.360915 C373.884733,110.576178 374.306189,109.734246 374.826957,108.718993 C375.83932,106.745232 377.405969,105.311789 379.47911,104.457521 C379.928497,104.272481 380.092362,103.896849 379.950222,103.516284" id="Fill-1"></path>
                    </g>
                </g>
            </g>
        </g>
    </g>
</svg>