<svg xmlns="http://www.w3.org/2000/svg" width="1871.781" height="1146"><path data-name="big stars" d="M809.606 412.167a1.114 1.114 0 11-.934 1.1 1.027 1.027 0 01.934-1.1zm-212.951-52.985a1.211 1.211 0 01.291 1.521.876.876 0 01-1.3.364 1.209 1.209 0 01-.291-1.521.876.876 0 011.3-.364zM446.881 209.416a1.1 1.1 0 11-.944 1.088 1.023 1.023 0 01.944-1.088zm324.407-45.3a1.222 1.222 0 01.305 1.532.884.884 0 01-1.319.354 1.221 1.221 0 01-.306-1.532.885.885 0 011.323-.353zm-469.39 95.859a1.966 1.966 0 11-1.654 1.941 1.815 1.815 0 011.654-1.941zm738.253-47.26a1.136 1.136 0 11-.96 1.122 1.058 1.058 0 01.96-1.122zm-352.37 70.306a2.222 2.222 0 11-1.906 2.2 2.069 2.069 0 011.906-2.2zm827.77 445.635a2.229 2.229 0 11-1.89 2.2 2.068 2.068 0 011.89-2.2zm171.46 275.154a2.249 2.249 0 11-1.89 2.22 2.075 2.075 0 011.89-2.22zm-367.78 57.6a1.118 1.118 0 11-.95 1.11 1.039 1.039 0 01.95-1.11zm-322.9 14.5a1.1 1.1 0 11-.96 1.09 1.032 1.032 0 01.96-1.09zm853.56-349.41a2.229 2.229 0 11-1.89 2.2 2.067 2.067 0 011.89-2.2zm-300.6 396.38a1.2 1.2 0 00.3-1.53.872.872 0 00-1.31-.35 1.217 1.217 0 00-.31 1.53.88.88 0 001.32.35zm268.87-50.85a1.137 1.137 0 11-.97 1.13 1.052 1.052 0 01.97-1.13zm-352.38-72.44a2.211 2.211 0 11-1.91 2.19 2.067 2.067 0 011.91-2.19zm-626.729 82.1a1.125 1.125 0 11-1.4.37 1.038 1.038 0 011.4-.37zm-354.387-94.623a2.244 2.244 0 11-2.833.727 2.08 2.08 0 012.833-.727zm-61.9-483.391a2.247 2.247 0 11-2.821.735 2.074 2.074 0 012.818-.735zm193.609 378.471a2.494 2.494 0 11-3.169.8 2.321 2.321 0 013.169-.8zM338.514 657.8a1.107 1.107 0 11-1.395.359 1.026 1.026 0 011.395-.359zm679.387 262.279a1.019 1.019 0 01.16 1.442.962.962 0 11-1.56-1.092 1.02 1.02 0 011.4-.35zM841.287 711.568a1.107 1.107 0 11-1.395.36 1.026 1.026 0 011.395-.36zm89.862 124.488a1.962 1.962 0 11-2.467.64 1.813 1.813 0 012.467-.64zm-329.5-202.14a2.208 2.208 0 11-2.815.7 2.062 2.062 0 012.814-.7zm2.468 489.734a1.1 1.1 0 11-1.42.34 1.036 1.036 0 011.419-.34zm1200.614-618.188a2.232 2.232 0 102.81.723 2.067 2.067 0 00-2.81-.723zM123.353 709.689a1.125 1.125 0 101.4.372 1.035 1.035 0 00-1.4-.372zm1144.6-411.561a1.109 1.109 0 001.25 1.793 1.109 1.109 0 00-1.252-1.793zm90.79 362.939a2.244 2.244 0 102.83.727 2.084 2.084 0 00-2.832-.727zm95.72-314.1a1.121 1.121 0 101.42.363 1.042 1.042 0 00-1.422-.364zm14.73 217.388a1.059 1.059 0 00-.14 1.477.977.977 0 10.138-1.478zM571.42 47.731a1.107 1.107 0 101.394.359 1.024 1.024 0 00-1.394-.359zm1211.161 300.237a1.128 1.128 0 001.27 1.819 1.128 1.128 0 00-1.27-1.819zm89.31-12.165a1.1 1.1 0 101.4.359 1.025 1.025 0 00-1.4-.362zm-245.07 57.277a2.225 2.225 0 102.82.714 2.071 2.071 0 00-2.82-.714zm-49.13 33.455a1.216 1.216 0 011.11 1.08.885.885 0 01-.87 1.047 1.217 1.217 0 01-1.11-1.081.885.885 0 01.87-1.046zm-396.19 93.544a1.1 1.1 0 101.41.35 1.037 1.037 0 00-1.41-.35zm427.59-353.47a1.227 1.227 0 011.13 1.08.891.891 0 01-.88 1.046 1.218 1.218 0 01-1.13-1.08.881.881 0 01.88-1.046zm-329.83 347.447a1.963 1.963 0 102.46.64 1.816 1.816 0 00-2.46-.64zm578.05-461.626a1.138 1.138 0 101.44.367 1.051 1.051 0 00-1.44-.367zm-553.02 700.219a1.1 1.1 0 001.25 1.793 1.1 1.1 0 00-1.25-1.793zm110.44-545.187a2.232 2.232 0 102.81.723 2.067 2.067 0 00-2.81-.723zm-433.38 254.227a1.124 1.124 0 101.41.372 1.039 1.039 0 00-1.41-.372zm132.96-40.155a1.1 1.1 0 101.41.351 1.029 1.029 0 00-1.41-.351zM877.947.128a1.019 1.019 0 00-.129 1.425 1.019 1.019 0 001.382.368A1.019 1.019 0 00879.329.5a1.019 1.019 0 00-1.382-.372zm90.794 362.939a2.244 2.244 0 102.83.727 2.084 2.084 0 00-2.83-.727zM335.464 93.966a1.122 1.122 0 101.417.363 1.041 1.041 0 00-1.417-.363zm661.727 544.388a1.059 1.059 0 00-.14 1.477.977.977 0 10.14-1.477zM179.42 412.731a1.107 1.107 0 101.394.36 1.025 1.025 0 00-1.394-.36zM1392.581 49.968a1.128 1.128 0 001.27 1.819 1.128 1.128 0 00-1.27-1.819zm-155.76 45.112a2.225 2.225 0 102.82.714 2.071 2.071 0 00-2.82-.714zm-257.7-3.512a1.106 1.106 0 101.39.359 1.016 1.016 0 00-1.39-.359zm710.9-73.868a2.058 2.058 0 00-.29 2.889 1.913 1.913 0 10.29-2.889zm-471.26-3.788a2.057 2.057 0 00-.31 2.885 1.922 1.922 0 10.31-2.881zM152.92 164.774a2.229 2.229 0 102.74-.962 2.065 2.065 0 00-2.74.962zM8.154 327.342a2.494 2.494 0 103.078-1.1 2.322 2.322 0 00-3.078 1.1zm616.143 414.934a1.144 1.144 0 101.413.385 1.043 1.043 0 00-1.413-.385zM.741 1142.07a2.241 2.241 0 102.833.72 2.078 2.078 0 00-2.833-.72zm296.291-57.92a2.49 2.49 0 103.169.79 2.321 2.321 0 00-3.169-.79zM76.464 610.966a1.122 1.122 0 101.417.363 1.04 1.04 0 00-1.417-.363zm34.732 434.384a1.14 1.14 0 101.438.37 1.059 1.059 0 00-1.438-.37zM11.119 870.568a1.107 1.107 0 101.395.36 1.025 1.025 0 00-1.395-.36zm239.639-77.652a2.208 2.208 0 102.815.7 2.062 2.062 0 00-2.815-.7z" fill="#fff" fill-rule="evenodd"/></svg>