<svg xmlns="http://www.w3.org/2000/svg" width="1824.16" height="1129.809"><path data-name="small stars" d="M509.153 522.053a.723.723 0 11-.71.722.716.716 0 01.71-.722zm256.909 84.041a1.25 1.25 0 11-1.281 1.25 1.267 1.267 0 011.281-1.25zm-434.421 45.825a.733.733 0 11-.746.732.739.739 0 01.746-.732zm372.7 410.864a.735.735 0 11-.75.74.744.744 0 01.753-.744zm-408.95-925.97a.719.719 0 11-.735.718.727.727 0 01.735-.718zM3.927 138.084a1.425 1.425 0 11-1.468 1.425 1.447 1.447 0 011.468-1.425zm1578.553 11.385a.609.609 0 01-.1-.942.881.881 0 011.08-.242.6.6 0 01.1.942.881.881 0 01-1.08.242zM561.817 214.68a.619.619 0 01-.115-.962.9.9 0 011.108-.239.619.619 0 01.115.962.9.9 0 01-1.108.239zm-77.055 113.828a.6.6 0 01-.109-.934.877.877 0 011.074-.234.6.6 0 01.109.934.876.876 0 01-1.074.234zm184.512 50.57a1.208 1.208 0 01-.238-1.879 1.763 1.763 0 012.168-.456 1.207 1.207 0 01.238 1.878 1.764 1.764 0 01-2.168.457zm-1.9-318.935a.608.608 0 01-.129-.945.888.888 0 011.094-.222.609.609 0 01.129.945.888.888 0 01-1.094.222zm370.166 269.589a.6.6 0 00.1-.942.882.882 0 00-1.08-.243.609.609 0 00-.1.942.884.884 0 001.08.243zm-951.2 31.664a1.218 1.218 0 00.224-1.9 1.778 1.778 0 00-2.182-.473 1.218 1.218 0 00-.224 1.895 1.778 1.778 0 002.186.478zm-73.7 204.557a.609.609 0 00.112-.948.89.89 0 00-1.091-.237.609.609 0 00-.112.948.89.89 0 001.091.237zM1.3 424.38a.618.618 0 00.115-.962.9.9 0 00-1.108-.239.618.618 0 00-.115.962.9.9 0 001.108.239zm691.249 336.447a.6.6 0 00.109-.934.876.876 0 00-1.074-.234.6.6 0 00-.109.934.877.877 0 001.074.234zM222.812 453.219a.6.6 0 00.119-.939.882.882 0 00-1.084-.229.605.605 0 00-.119.94.883.883 0 001.084.228zm-94.581 198.584a1.208 1.208 0 00.221-1.881 1.765 1.765 0 00-2.164-.471 1.21 1.21 0 00-.222 1.882 1.765 1.765 0 002.165.47zm146.313-134.412a.605.605 0 00.119-.94.882.882 0 00-1.084-.228.6.6 0 00-.119.939.882.882 0 001.084.229zm187.991 334.438a.6.6 0 00.1-.928.869.869 0 00-1.064-.24.6.6 0 00-.1.928.872.872 0 001.064.24zM116.286 806.37a.6.6 0 00.092-.936.877.877 0 00-1.071-.248.6.6 0 00-.092.936.877.877 0 001.071.248zm181.351 11.908a.6.6 0 00.109-.933.875.875 0 00-1.074-.234.6.6 0 00-.109.933.874.874 0 001.074.234zm-72.512 112.571a1.208 1.208 0 00.238-1.879 1.765 1.765 0 00-2.168-.457 1.208 1.208 0 00-.238 1.879 1.765 1.765 0 002.168.457zm789.655-246.245a1.318 1.318 0 00-1.06-1.668 1.712 1.712 0 00-2.1.626 1.3 1.3 0 001.05 1.668 1.729 1.729 0 002.11-.626zm111.46-105.872a1.475 1.475 0 00-1.17-1.882 1.935 1.935 0 00-2.37.715 1.476 1.476 0 001.17 1.883 1.936 1.936 0 002.37-.716zM903.817 85.869a1.362 1.362 0 00.262-2.117 1.987 1.987 0 00-2.44-.519 1.36 1.36 0 00-.262 2.116 1.986 1.986 0 002.44.52zm59.553 115.017a.889.889 0 01-.86-.7.614.614 0 01.67-.681.87.87 0 01.85.7.6.6 0 01-.66.681zm297.26 469a.723.723 0 010 1.445.723.723 0 010-1.446zm279.29 132.06a.712.712 0 11-.72.712.723.723 0 01.72-.713zm111.62-34.027a1.262 1.262 0 11-1.27 1.262 1.269 1.269 0 011.27-1.262zm-568.42 31.83a.733.733 0 110 1.465.734.734 0 110-1.467zm271.32-47.174a1.425 1.425 0 11-1.47 1.424 1.44 1.44 0 011.47-1.426zM717.09 462.342a1.435 1.435 0 11-1.456 1.435 1.445 1.445 0 011.456-1.435zM253.078 294.125a1.453 1.453 0 11-1.453 1.453 1.453 1.453 0 011.453-1.453zm502.33-8.209a1.425 1.425 0 11-1.468 1.425 1.447 1.447 0 011.468-1.422zm482.552-50.615a.609.609 0 01-.1-.942.884.884 0 011.08-.242.6.6 0 01.1.942.88.88 0 01-1.08.242zm272.87 61.618a1.215 1.215 0 01-.23-1.895 1.777 1.777 0 012.18-.473 1.215 1.215 0 01.23 1.895 1.777 1.777 0 01-2.18.473zm-101.41 68.329a1.36 1.36 0 01-.27-2.116 1.99 1.99 0 012.44-.52 1.361 1.361 0 01.27 2.117 1.988 1.988 0 01-2.44.523zm213.94 146.1a.6.6 0 01-.11-.933.873.873 0 011.07-.235.6.6 0 01.11.934.87.87 0 01-1.07.24zm-387.12-35.014a.609.609 0 01-.11-.934.885.885 0 011.08-.234.609.609 0 01.11.934.885.885 0 01-1.08.24zm184.77 145.2a.883.883 0 00.87-.7.617.617 0 00-.68-.681.9.9 0 00-.87.7.617.617 0 00.68.688zm-253.96-226.266a1.067 1.067 0 01-.19-1.652 1.55 1.55 0 011.9-.417 1.061 1.061 0 01.19 1.652 1.548 1.548 0 01-1.9.417zm253.7 131.642a1.206 1.206 0 01-.23-1.879 1.753 1.753 0 012.16-.456 1.2 1.2 0 01.24 1.879 1.764 1.764 0 01-2.17.456zm-1.9-318.935a.609.609 0 01-.12-.945.881.881 0 011.09-.222.61.61 0 01.13.945.9.9 0 01-1.1.222zm-969.423 504.59a1.209 1.209 0 00.222-1.881 1.765 1.765 0 00-2.165-.471 1.209 1.209 0 00-.222 1.881 1.764 1.764 0 002.165.471zm1339.593-235a.6.6 0 00.11-.942.9.9 0 00-1.09-.243.61.61 0 00-.1.942.884.884 0 001.08.242zm-922.2 59.665a1.219 1.219 0 00.225-1.9 1.779 1.779 0 00-2.182-.473 1.218 1.218 0 00-.224 1.895 1.778 1.778 0 002.185.477zm-102.7 176.556a.61.61 0 00.112-.948.888.888 0 00-1.091-.236.609.609 0 00-.112.947.89.89 0 001.092.236zM22.778 1065.209a.616.616 0 00.115-.96.9.9 0 00-1.108-.24.616.616 0 00-.115.96.892.892 0 001.108.24zm95.94 15.85a.608.608 0 00.11-.94.869.869 0 00-1.074-.23.6.6 0 00-.11.93.886.886 0 001.074.24zm215.228-169.46a.619.619 0 00.115-.962.9.9 0 00-1.108-.239.618.618 0 00-.115.962.9.9 0 001.108.239zm874.074 28.062a.6.6 0 00.1-.928.878.878 0 00-1.07-.24.6.6 0 00-.1.928.877.877 0 001.07.24zM990.11 512.299a1.22 1.22 0 00.22-1.9 1.775 1.775 0 00-2.18-.474 1.221 1.221 0 00-.22 1.9 1.774 1.774 0 002.18.474zm126.09 11.72a.612.612 0 00.11-.961.894.894 0 00-1.1-.24.62.62 0 00-.12.962.906.906 0 001.11.239zm-422.434 462.18a.6.6 0 00.093-.93.874.874 0 00-1.071-.25.605.605 0 00-.093.94.884.884 0 001.071.24zM1766.26 832.436a1.318 1.318 0 00-1.05-1.668 1.721 1.721 0 00-2.11.626 1.312 1.312 0 001.05 1.669 1.726 1.726 0 002.11-.627zM1655.3 233.701a1.366 1.366 0 00.26-2.117 1.986 1.986 0 00-2.44-.519 1.359 1.359 0 00-.26 2.117 1.986 1.986 0 002.44.519zm168.85 306.971a.606.606 0 00-.12.948m-133.1-118.257a1.206 1.206 0 00.23-1.879 1.753 1.753 0 00-2.16-.457 1.207 1.207 0 00-.24 1.879 1.766 1.766 0 002.17.457zm-579.7-398.734a.716.716 0 01-.23-.991.746.746 0 011.01-.237.7.7 0 01.22.991.732.732 0 01-1 .237zm226.94 62.09a1.262 1.262 0 11-1.27 1.262 1.269 1.269 0 011.27-1.262zM992.06 44.375a1.423 1.423 0 11-1.47 1.422 1.448 1.448 0 011.47-1.422zm-862.715-4.521a.6.6 0 00.109-.934.876.876 0 00-1.074-.234.6.6 0 00-.109.934.876.876 0 001.074.234zm188.7-37.3a1.213 1.213 0 00.231-1.887 1.771 1.771 0 00-2.175-.465 1.213 1.213 0 00-.231 1.887 1.771 1.771 0 002.17.464zm198.42 2.287a.6.6 0 00.109-.933.876.876 0 00-1.074-.234.6.6 0 00-.109.934.875.875 0 001.069.232zM140.572 224.399a.618.618 0 00.115-.962.9.9 0 00-1.107-.239.618.618 0 00-.116.962.9.9 0 001.108.239zm340.766-100.964a1.209 1.209 0 00.221-1.881 1.764 1.764 0 00-2.164-.471 1.21 1.21 0 00-.222 1.882 1.765 1.765 0 002.165.47zM824.735 22.099a1.218 1.218 0 00.224-1.9 1.777 1.777 0 00-2.181-.473 1.218 1.218 0 00-.225 1.9 1.779 1.779 0 002.182.473zm739.615 23.265a1.482 1.482 0 00-1.18-1.883 1.926 1.926 0 00-2.36.715 1.475 1.475 0 001.17 1.883 1.936 1.936 0 002.37-.715zM899.522 1128.359a.714.714 0 01.71.72.71.71 0 11-1.419 0 .713.713 0 01.709-.72zm787.2-63.96a1.22 1.22 0 01-.23-1.9 1.785 1.785 0 012.18-.47 1.22 1.22 0 01.23 1.9 1.785 1.785 0 01-2.182.47zm-424.47-94.57a.6.6 0 01-.11-.933.866.866 0 011.07-.234.6.6 0 01.11.933.872.872 0 01-1.072.234zm-202.352 110.19a.894.894 0 00.87-.71.62.62 0 00-.68-.68.894.894 0 00-.87.71.62.62 0 00.68.68zM805.942 853.743a1.061 1.061 0 01-.191-1.652 1.549 1.549 0 011.9-.416 1.062 1.062 0 01.19 1.652 1.549 1.549 0 01-1.899.416zm621.968 82.3a.6.6 0 00.1-.942.88.88 0 00-1.08-.242.609.609 0 00-.1.942.881.881 0 001.08.238zm-891.2-1.335a1.219 1.219 0 00.225-1.9 1.779 1.779 0 00-2.182-.473 1.219 1.219 0 00-.224 1.9 1.777 1.777 0 002.184.469zm1.954 184.985a.616.616 0 00.115-.96.891.891 0 00-1.107-.24.616.616 0 00-.115.96.9.9 0 001.11.236zm-230.533.75a.872.872 0 01-.855-.7.607.607 0 01.664-.68.871.871 0 01.854.7.607.607 0 01-.66.676z" fill="#fff" fill-rule="evenodd"/></svg>