<svg width="90" height="40" viewBox="0 0 90 40" fill="none" xmlns="http://www.w3.org/2000/svg">
<path fill-rule="evenodd" clip-rule="evenodd" d="M59.0186 5.74548C55.3661 8.72898 51.3851 11.1555 47.1616 12.959C44.8891 8.72748 42.0317 4.73149 38.6527 1.045C40.6482 0.377499 42.7772 0 44.9966 0C50.4591 0 55.4086 2.19549 59.0186 5.74548ZM45.5599 17.1353C46.1069 18.2973 46.6014 19.4838 47.0669 20.6803C40.3285 22.9118 34.437 27.5533 30.7615 34.0412C27.22 30.4518 25.026 25.5323 25 20.0958C32.1925 20.4958 39.147 19.4303 45.5599 17.1353ZM48.6586 15.926C49.2516 17.199 49.7816 18.493 50.2796 19.7965C55.158 18.7754 60.2166 19.0195 64.974 20.5055C64.9766 20.4382 64.9813 20.3714 64.986 20.3045C64.993 20.2037 65 20.1027 65 20C65 15.6185 63.574 11.577 61.1831 8.28099C57.3976 11.3835 53.1921 13.9715 48.6586 15.926ZM54.0477 37.8185C53.7907 32.7975 52.9212 27.8056 51.3882 22.9706C55.7862 22.1211 60.3177 22.4286 64.6157 23.8886C63.4117 29.9881 59.4322 35.079 54.0477 37.8185ZM44.0299 14.1554C41.7154 9.93488 38.8169 6.01039 35.4099 2.4464C32.7426 3.90756 30.4437 5.95778 28.688 8.44111C26.9323 10.9244 25.766 13.7755 25.278 16.7774C31.7319 17.1239 38.0759 16.2239 44.0299 14.1554ZM46.3165 24.4896C46.93 24.2356 47.555 24.0266 48.18 23.8216C49.7495 28.7256 50.6055 33.8756 50.7665 39.1471C48.8953 39.7124 46.9512 39.9998 44.9965 40.0001C40.643 40.0001 36.6275 38.5941 33.343 36.2321C36.165 30.9361 40.6965 26.8166 46.3165 24.4896Z" fill="white"/>
<path d="M10.8191 4.57745C11.6706 3.23011 12.0385 1.97534 12.0385 1.97534C12.0385 1.97534 10.9224 2.35109 9.55122 3.44355C8.29738 4.58077 6.84562 6.56109 6.94786 9.15211C8.82267 7.64575 10.06 6.03269 10.8191 4.57745Z" fill="white"/>
<path d="M3.66147 19.5447L3.58872 20.6031C3.57571 20.8285 3.72948 21.0284 3.95399 21.034C4.16989 21.0519 4.3649 20.869 4.37686 20.6512L4.45032 19.5959C5.99031 18.6653 7.04656 17.3375 7.7115 16.1536C8.04659 15.4974 8.34733 14.9064 8.56332 14.4822C8.73811 14.032 8.85198 13.7593 8.85198 13.7593C8.85198 13.7593 7.85051 13.8564 6.61891 14.6608C5.74747 15.3261 4.576 16.5404 4.14217 18.4746C4.13936 18.4741 4.1368 18.4719 4.13343 18.4713C4.14753 16.4766 3.90707 14.8901 3.40928 13.6284C2.95484 12.1381 2.29975 11.2176 2.29975 11.2176C2.29975 11.2176 2.19377 11.5822 2.02489 12.1633C1.87974 12.7555 1.69142 13.5668 1.74714 14.5158C1.75944 16.2343 2.19064 18.2504 3.66147 19.5447Z" fill="white"/>
<path d="M4.6242 14.0659C4.54467 14.286 4.66863 14.5142 4.88429 14.5833C5.08777 14.6491 5.30044 14.5169 5.37818 14.3096L5.70989 13.3353C7.38815 12.8313 8.48211 11.7196 9.43199 10.8089C9.92399 10.2887 10.2771 9.77144 10.5125 9.38925C10.7701 9.01734 10.939 8.79911 10.939 8.79911C10.939 8.79911 9.90128 8.61193 8.70806 9.18205C7.71484 9.61602 6.46507 10.4971 5.6493 12.149C5.64104 12.1464 5.63398 12.1434 5.6262 12.1415C6.03797 10.3162 6.05145 8.80043 5.88368 7.54606C5.62406 5.99799 5.26921 5.0428 5.26921 5.0428C5.13228 4.90774 2.62377 9.91076 4.93998 13.1235L4.6242 14.0659Z" fill="white"/>
<path d="M6.93163 32.6419C7.22316 33.0657 7.76413 33.8359 7.80599 33.7953C7.97031 33.9648 8.22978 33.9834 8.38351 33.8288C8.53628 33.6728 8.5475 33.4149 8.39383 33.2598C8.35165 33.2902 7.80908 32.5232 7.53547 32.1316C8.95033 27.7059 8.0746 24.1697 8.2295 23.9324C8.2295 23.9324 7.10409 24.5479 6.48936 25.9613C5.83349 27.1956 5.47576 29.487 6.85266 31.7855C6.84366 31.7924 6.83403 31.7955 6.82559 31.8024C6.81097 31.8125 6.80349 31.8291 6.79151 31.8408C5.18729 29.7054 3.81875 28.1595 2.54182 26.9502C1.03156 25.6254 0.0120641 24.9485 0.0129563 24.9421C-0.0703649 24.909 0.230113 26.9311 1.4433 29.0805C2.56039 31.0452 4.65788 32.7298 6.93163 32.6419Z" fill="white"/>
<path d="M11.8721 37.314L14.4286 38.9169C14.6226 39.0466 14.8739 38.9465 14.9635 38.7531C15.0569 38.5365 14.9622 38.3126 14.7798 38.1907L12.258 36.6026C12.1476 34.1568 11.489 32.168 10.9289 30.7684C10.408 29.2144 9.78455 28.2152 9.82763 28.1701C9.82763 28.1701 8.96421 29.1657 8.8503 30.8784C8.60278 32.4901 9.30118 34.8323 11.6189 36.5945C11.6033 36.6116 11.5847 36.6257 11.5708 36.6466C9.15706 35.1036 7.01311 34.2393 5.34064 33.4847C3.40862 32.7699 2.08516 32.4762 2.08516 32.4762C2.08516 32.4762 2.26448 32.9795 2.79474 33.6657C3.33482 34.3268 4.06033 35.2657 5.05994 36.044C6.98546 37.5192 9.66597 38.3976 11.8721 37.314Z" fill="white"/>
<path d="M4.11147 26.4709L4.49925 27.8952C4.56215 28.1202 4.77459 28.2537 4.97973 28.1714C5.18543 28.0893 5.30109 27.849 5.24387 27.6326L4.87206 26.2629C6.29066 24.6237 7.19527 22.8498 7.6129 21.4032C8.24504 19.8236 8.25448 18.5472 8.3256 18.5276C8.3256 18.5276 7.18269 18.8273 6.07118 20.0278C5.03879 21.0647 3.97937 23.0217 4.38748 25.6737C4.35899 25.6719 4.33108 25.666 4.30283 25.6708C3.62677 23.0857 2.82151 21.1145 2.00388 19.6364C1.04423 17.9895 0.13023 17.0504 0.13023 17.0504C0.13023 17.0504 0.0183529 17.4987 0.0381064 18.248C0.0338757 18.992 0.0843316 20.0324 0.262122 21.1323C0.769885 23.2465 1.87999 25.649 4.11147 26.4709Z" fill="white"/>
<path d="M79.1809 4.57745C78.3294 3.23011 77.9615 1.97534 77.9615 1.97534C77.9615 1.97534 79.0776 2.35109 80.4488 3.44355C81.7026 4.58077 83.1544 6.56109 83.0521 9.15211C81.1773 7.64575 79.94 6.03269 79.1809 4.57745Z" fill="white"/>
<path d="M86.3385 19.5447L86.4113 20.6031C86.4243 20.8285 86.2705 21.0284 86.046 21.034C85.8301 21.0519 85.6351 20.869 85.6231 20.6512L85.5497 19.5959C84.0097 18.6653 82.9534 17.3375 82.2885 16.1536C81.9534 15.4974 81.6527 14.9064 81.4367 14.4822C81.2619 14.032 81.148 13.7593 81.148 13.7593C81.148 13.7593 82.1495 13.8564 83.3811 14.6608C84.2525 15.3261 85.424 16.5404 85.8578 18.4746C85.8606 18.4741 85.8632 18.4719 85.8666 18.4713C85.8525 16.4766 86.0929 14.8901 86.5907 13.6284C87.0452 12.1381 87.7003 11.2176 87.7003 11.2176C87.7003 11.2176 87.8062 11.5822 87.9751 12.1633C88.1203 12.7555 88.3086 13.5668 88.2529 14.5158C88.2406 16.2343 87.8094 18.2504 86.3385 19.5447Z" fill="white"/>
<path d="M85.3758 14.0659C85.4553 14.286 85.3314 14.5142 85.1157 14.5833C84.9122 14.6491 84.6996 14.5169 84.6218 14.3096L84.2901 13.3353C82.6118 12.8313 81.5179 11.7196 80.568 10.8089C80.076 10.2887 79.7229 9.77144 79.4875 9.38925C79.2299 9.01734 79.061 8.79911 79.061 8.79911C79.061 8.79911 80.0987 8.61193 81.2919 9.18205C82.2852 9.61602 83.5349 10.4971 84.3507 12.149C84.359 12.1464 84.366 12.1434 84.3738 12.1415C83.962 10.3162 83.9485 8.80043 84.1163 7.54606C84.3759 5.99799 84.7308 5.0428 84.7308 5.0428C84.8677 4.90774 87.3762 9.91076 85.06 13.1235L85.3758 14.0659Z" fill="white"/>
<path d="M83.0684 32.6419C82.7768 33.0657 82.2359 33.8359 82.194 33.7953C82.0297 33.9648 81.7702 33.9834 81.6165 33.8288C81.4637 33.6728 81.4525 33.4149 81.6062 33.2598C81.6483 33.2902 82.1909 32.5232 82.4645 32.1316C81.0497 27.7059 81.9254 24.1697 81.7705 23.9324C81.7705 23.9324 82.8959 24.5479 83.5106 25.9613C84.1665 27.1956 84.5242 29.487 83.1473 31.7855C83.1563 31.7924 83.166 31.7955 83.1744 31.8024C83.189 31.8125 83.1965 31.8291 83.2085 31.8408C84.8127 29.7054 86.1813 28.1595 87.4582 26.9502C88.9684 25.6254 89.9879 24.9485 89.987 24.9421C90.0704 24.909 89.7699 26.9311 88.5567 29.0805C87.4396 31.0452 85.3421 32.7298 83.0684 32.6419Z" fill="white"/>
<path d="M78.1279 37.314L75.5714 38.9169C75.3774 39.0466 75.1261 38.9465 75.0365 38.7531C74.9431 38.5365 75.0378 38.3126 75.2202 38.1907L77.742 36.6026C77.8524 34.1568 78.511 32.168 79.0711 30.7684C79.592 29.2144 80.2154 28.2152 80.1724 28.1701C80.1724 28.1701 81.0358 29.1657 81.1497 30.8784C81.3972 32.4901 80.6988 34.8323 78.3811 36.5945C78.3967 36.6116 78.4153 36.6257 78.4292 36.6466C80.8429 35.1036 82.9869 34.2393 84.6594 33.4847C86.5914 32.7699 87.9148 32.4762 87.9148 32.4762C87.9148 32.4762 87.7355 32.9795 87.2053 33.6657C86.6652 34.3268 85.9397 35.2657 84.9401 36.044C83.0145 37.5192 80.334 38.3976 78.1279 37.314Z" fill="white"/>
<path d="M85.8885 26.4709L85.5007 27.8952C85.4378 28.1202 85.2254 28.2537 85.0203 28.1714C84.8146 28.0893 84.6989 27.849 84.7561 27.6326L85.1279 26.2629C83.7093 24.6237 82.8047 22.8498 82.3871 21.4032C81.755 19.8236 81.7455 18.5472 81.6744 18.5276C81.6744 18.5276 82.8173 18.8273 83.9288 20.0278C84.9612 21.0647 86.0206 23.0217 85.6125 25.6737C85.641 25.6719 85.6689 25.666 85.6972 25.6708C86.3732 23.0857 87.1785 21.1145 87.9961 19.6364C88.9558 17.9895 89.8698 17.0504 89.8698 17.0504C89.8698 17.0504 89.9816 17.4987 89.9619 18.248C89.9661 18.992 89.9157 20.0324 89.7379 21.1323C89.2301 23.2465 88.12 25.649 85.8885 26.4709Z" fill="white"/>
</svg>
