<svg fill="none" viewBox="0 0 778 350" width="778" xmlns="http://www.w3.org/2000/svg" xmlns:xlink="http://www.w3.org/1999/xlink"><linearGradient id="a"><stop offset=".015625" stop-color="#e7a28f"/><stop offset=".5" stop-color="#fbddb0"/><stop offset=".984375" stop-color="#fbfefd"/></linearGradient><linearGradient id="b" gradientUnits="userSpaceOnUse" x1="59.5" x2="690.604" xlink:href="#a" y1="46.3499" y2="46.3499"/><linearGradient id="c" gradientUnits="userSpaceOnUse" x1="191.5" x2="777.419" xlink:href="#a" y1="220" y2="220"/><path d="m88.3 71.9999v-67.2h24.3c10.8 0 19.2 2.9 25.2 8.8 6 5.8 9 14 9 24.6s-3 18.8-9.1 24.9c-6 6-14.4 8.9-25.2 8.9zm15.8-14.5h8.4c5.6 0 10-1.7 13.2-5.2s4.8-8.2 4.8-14.1c0-6-1.6-10.7-4.8-13.9-3.1-3.3-7.6-5-13.2-5h-8.4z" fill="url(#b)"/><path d="m175.2 73.0999c-7.3 0-13.3-2.3-18.1-6.8-4.8-4.6-7.2-10.6-7.2-18 0-7.3 2.4-13.2 7.1-17.9 4.8-4.6 10.7-6.9 17.8-6.9 6.9 0 12.6 2.2 17.2 6.5 4.5 4.3 6.8 10 6.8 17 0 1.3-.1 2.9-.3 4.8h-33.1c.5 3 1.6 5.3 3.4 6.8s3.9 2.3 6.4 2.3c2.1 0 3.9-.5 5.5-1.5 1.5-1.1 2.5-2.5 2.9-4.3l13.3 3.6c-1.3 4.7-3.9 8.3-7.9 10.8-4 2.3-8.6 3.6-13.8 3.6zm-9.4-30.9h18.2c-.4-1.7-1.4-3.2-3.1-4.5-1.6-1.3-3.6-2-6.1-2-4.5 0-7.5 2.2-9 6.5z" fill="url(#b)"/><path d="m237.5 68.5999c-4.1 2.9-9 4.3-14.6 4.3s-10.4-1.2-14.3-3.5-6.4-5.6-7.4-10l12.8-3.3c.5 1.5 1.5 2.6 3 3.5 1.5.8 3.2 1.2 5.1 1.2 1.7 0 3-.3 4.1-.9 1.2-.6 1.7-1.5 1.7-2.6 0-1-.5-1.7-1.4-2.1s-2.3-.8-4.2-1.1c-1.7-.2-2.9-.4-3.6-.5s-2-.4-3.7-.7c-1.8-.4-3.2-.8-4.1-1.2-1-.4-2.2-1.1-3.6-1.8-1.4-.8-2.5-1.7-3.3-2.7-.7-1-1.3-2.1-1.9-3.6s-.9-3.1-.9-4.8c0-5 1.9-8.8 5.8-11.5s8.8-4 14.7-4c5.1 0 9.5 1.1 13.2 3.4 3.7 2.2 6.1 5.6 7.1 10l-13 3.4c-.4-1.5-1.3-2.7-2.8-3.5s-3.1-1.2-4.8-1.2c-2.9 0-4.4 1-4.4 3.1 0 1.6 1.5 2.7 4.4 3.2.3.1 1.2.2 2.9.4s3.1.4 4 .6c1 .2 2.4.5 4.2 1 1.8.4 3.2 1 4.3 1.7 1.2.6 2.3 1.5 3.5 2.5s2.1 2.2 2.7 3.7.9 3.1.9 5c-.2 5.2-2.3 9.2-6.4 12z" fill="url(#b)"/><path d="m263.6 16.4999c-1.9 1.8-4.1 2.7-6.8 2.7s-5-.9-6.8-2.7c-1.9-1.9-2.8-4.1-2.8-6.6 0-2.6.9-4.9 2.8-6.7 1.9-1.9 4.1-2.799998 6.8-2.799998s5 .899998 6.8 2.799998c1.9 1.9 2.9 4.1 2.9 6.7 0 2.5-1 4.8-2.9 6.6zm-14.5 55.5v-47.5h15.4v47.5z" fill="url(#b)"/><path d="m307.3 24.4999h15.4v43.8c0 6.8-2.3 12.5-6.8 17.1s-11 6.9-19.5 6.9c-5.7 0-10.8-1.2-15.5-3.7-4.6-2.4-7.8-6-9.5-10.8l13.2-3.8c.4 1.8 1.7 3.2 3.7 4.3 2.1 1.1 4.6 1.6 7.4 1.6 3.3 0 6-.9 8.3-2.6 2.2-1.7 3.4-4.2 3.4-7.6v-1.8c-3.5 3.5-8.1 5.2-13.8 5.2-6.6 0-12.1-2.3-16.6-7s-6.7-10.6-6.7-17.7c0-7.2 2.3-13.2 6.8-17.8 4.5-4.7 10.1-7 16.7-7 5.6 0 10.1 1.7 13.6 5.1v-4.2zm-18.2 32c2 2 4.6 3.1 7.6 3.1s5.5-1 7.5-3.1 3.1-4.9 3.1-8.3c0-3.5-1-6.2-3.1-8.3-2-2.1-4.5-3.2-7.5-3.2s-5.5 1.1-7.6 3.2c-2 2-3.1 4.8-3.1 8.3s1.1 6.2 3.1 8.3z" fill="url(#b)"/><path d="m358.1 23.4999c5.4 0 9.8 1.6 13.2 4.7 3.5 3.1 5.2 7.5 5.2 13.2v30.6h-15.5v-25.9c0-2.9-.7-5-2.1-6.4-1.4-1.5-3.3-2.2-5.8-2.2-2.4 0-4.4.8-5.9 2.3-1.4 1.5-2.1 3.8-2.1 6.7v25.5h-15.4v-47.5h15.4v3.9c3.2-3.2 7.5-4.9 13-4.9z" fill="url(#b)"/><path d="m384.1 52.7999v-13.3h29.6v13.3z" fill="url(#b)"/><path d="m456.4 4.7999h15.4v67.2h-15.4v-4.2c-3.5 3.5-8.1 5.2-13.8 5.2-6.6 0-12.1-2.3-16.6-7s-6.7-10.6-6.7-17.7c0-7.2 2.3-13.2 6.8-17.8 4.5-4.7 10.1-7 16.7-7 5.6 0 10.1 1.7 13.6 5.1zm-18.1 51.7c2 2 4.6 3.1 7.6 3.1s5.5-1 7.5-3.1 3.1-4.9 3.1-8.3c0-3.5-1-6.2-3.1-8.3-2-2.1-4.5-3.2-7.5-3.2s-5.5 1.1-7.6 3.2c-2 2-3.1 4.8-3.1 8.3s1 6.2 3.1 8.3z" fill="url(#b)"/><path d="m506.9 23.4999c2.8 0 5.1.3 6.8 1l-2.2 14.6c-2.3-.8-4.8-1.2-7.6-1.2-2.7 0-5 .9-6.8 2.6-1.9 1.7-2.8 4.2-2.8 7.7v23.8h-15.3v-47.5h15.4v4c3.2-3.3 7.4-5 12.5-5z" fill="url(#b)"/><path d="m532.7 16.4999c-1.9 1.8-4.1 2.7-6.8 2.7s-5-.9-6.8-2.7c-1.9-1.9-2.8-4.1-2.8-6.6 0-2.6.9-4.9 2.8-6.7 1.9-1.9 4.1-2.799998 6.8-2.799998s5 .899998 6.8 2.799998c1.9 1.9 2.9 4.1 2.9 6.7-.1 2.5-1 4.8-2.9 6.6zm-14.5 55.5v-47.5h15.4v47.5z" fill="url(#b)"/><path d="m575.9 24.4999h15.9l-19 47.5h-16.5l-19-47.5h16l11.3 31z" fill="url(#b)"/><path d="m615.8 73.0999c-7.3 0-13.3-2.3-18.1-6.8-4.8-4.6-7.2-10.6-7.2-18 0-7.3 2.4-13.2 7.1-17.9 4.8-4.6 10.7-6.9 17.8-6.9 6.9 0 12.6 2.2 17.2 6.5 4.5 4.3 6.8 10 6.8 17 0 1.3-.1 2.9-.3 4.8h-33.1c.5 3 1.6 5.3 3.4 6.8s3.9 2.3 6.4 2.3c2.1 0 3.9-.5 5.5-1.5 1.5-1.1 2.5-2.5 2.9-4.3l13.3 3.6c-1.3 4.7-3.9 8.3-7.9 10.8-3.9 2.3-8.5 3.6-13.8 3.6zm-9.4-30.9h18.2c-.4-1.7-1.4-3.2-3.1-4.5-1.6-1.3-3.6-2-6.1-2-4.4 0-7.4 2.2-9 6.5z" fill="url(#b)"/><path d="m672.4 23.4999c5.4 0 9.8 1.6 13.2 4.7 3.5 3.1 5.2 7.5 5.2 13.2v30.6h-15.4v-25.9c0-2.9-.7-5-2.1-6.4-1.4-1.5-3.3-2.2-5.8-2.2-2.4 0-4.4.8-5.9 2.3-1.4 1.5-2.1 3.8-2.1 6.7v25.5h-15.4v-47.5h15.4v3.9c3.2-3.2 7.4-4.9 12.9-4.9z" fill="url(#b)"/><path d="m284.9 196.5-8.4 31-9.1-31h-14.4l-9.2 31-8.4-31h-16l14.5 47.5h17.3l9-28.7 8.9 28.7h17.3l14.6-47.5z" fill="url(#c)"/><path d="m325.8 195.5c-7 0-13 2.3-17.8 6.9-4.7 4.6-7.1 10.6-7.1 17.9 0 7.4 2.4 13.3 7.2 18 4.8 4.5 10.8 6.8 18.1 6.8 5.2 0 9.8-1.2 13.7-3.6 4-2.4 6.6-6 7.9-10.8l-13.3-3.6c-.4 1.8-1.3 3.2-2.9 4.3-1.5 1-3.4 1.5-5.5 1.5-2.5 0-4.6-.8-6.4-2.3-1.7-1.5-2.8-3.8-3.4-6.8h33.1c.2-1.9.3-3.5.3-4.8 0-7-2.3-12.7-6.8-17s-10.2-6.5-17.1-6.5zm-8.9 18.7c1.5-4.4 4.5-6.5 9-6.5 2.5 0 4.5.7 6.1 2 1.7 1.3 2.7 2.8 3.1 4.5z" fill="url(#c)"/><path d="m383.7 195.5c-5.6 0-10.2 1.7-13.7 5.1v-23.8h-15.4v67.2h15.4v-4.2c3.6 3.5 8.2 5.2 13.8 5.2 6.6 0 12.1-2.3 16.6-7s6.7-10.6 6.7-17.7c0-7.2-2.3-13.2-6.8-17.8-4.6-4.6-10.1-7-16.6-7zm4.4 33c-2 2-4.5 3.1-7.5 3.1-3.1 0-5.6-1-7.7-3.1-2-2.1-3-4.9-3-8.3 0-3.5 1-6.2 3-8.3s4.6-3.2 7.7-3.2c3 0 5.5 1.1 7.5 3.2 2 2 3.1 4.8 3.1 8.3s-1.1 6.2-3.1 8.3z" fill="url(#c)"/><path d="m462.5 195.5c-5.6 0-10.2 1.7-13.7 5.1v-4.1h-15.4v66.7h15.4v-23.4c3.6 3.5 8.2 5.2 13.8 5.2 6.6 0 12.1-2.3 16.6-7s6.7-10.6 6.7-17.7c0-7.2-2.3-13.2-6.8-17.8s-10-7-16.6-7zm4.5 33c-2 2-4.5 3.1-7.5 3.1-3.1 0-5.6-1-7.7-3.1-2-2.1-3-4.9-3-8.3 0-3.5 1-6.2 3-8.3s4.6-3.2 7.7-3.2c3 0 5.5 1.1 7.5 3.2 2 2 3.1 4.8 3.1 8.3-.1 3.5-1.1 6.2-3.1 8.3z" fill="url(#c)"/><path d="m506.2 200.5v-4h-15.4v47.5h15.4v-23.9c0-3.5.9-6 2.8-7.7s4.1-2.6 6.8-2.6c2.8 0 5.3.4 7.6 1.2l2.2-14.6c-1.7-.6-4-1-6.8-1-5.3.1-9.4 1.8-12.6 5.1z" fill="url(#c)"/><path d="m570.8 202.4c-4.9-4.6-11.1-6.9-18.5-6.9s-13.5 2.3-18.4 6.9-7.4 10.6-7.4 18c0 7.2 2.5 13.2 7.4 17.8 4.9 4.5 11.1 6.8 18.4 6.8 7.4 0 13.6-2.3 18.5-6.8 4.9-4.6 7.4-10.5 7.4-17.8 0-7.4-2.5-13.4-7.4-18zm-11.3 26c-1.9 1.9-4.4 2.9-7.3 2.9s-5.4-1-7.3-2.9c-1.9-2-2.8-4.7-2.8-8.1 0-3.5.9-6.1 2.8-8.1s4.4-3 7.3-3 5.4 1 7.3 3c1.9 1.9 2.9 4.6 2.9 8.1 0 3.4-.9 6.1-2.9 8.1z" fill="url(#c)"/><path d="m617.7 200.6c-3.5-3.4-8.1-5.1-13.6-5.1-6.6 0-12.2 2.3-16.7 7-4.5 4.6-6.8 10.5-6.8 17.8 0 7.1 2.2 13 6.7 17.7s10 7 16.6 7c5.8 0 10.4-1.7 13.8-5.2v4.2h15.4v-67.2h-15.4zm-3 27.9c-2 2-4.5 3.1-7.5 3.1s-5.5-1-7.6-3.1c-2-2.1-3.1-4.9-3.1-8.3 0-3.5 1-6.2 3.1-8.3 2-2.1 4.6-3.2 7.6-3.2s5.5 1.1 7.5 3.2c2 2 3.1 4.8 3.1 8.3-.1 3.5-1.1 6.2-3.1 8.3z" fill="url(#c)"/><path d="m671.2 222c0 2.9-.7 5.2-2.2 6.7-1.4 1.5-3.3 2.3-5.8 2.3s-4.4-.7-5.8-2c-1.4-1.4-2.1-3.5-2.1-6.2v-26.3h-15.3v29.7c0 6 1.8 10.6 5.3 13.9 3.6 3.3 7.9 4.9 13.1 4.9 5.4 0 9.7-1.6 12.9-4.9v3.9h15.4v-47.5h-15.4v25.5z" fill="url(#c)"/><path d="m716.7 209.2c2.2 0 4.1.6 5.7 1.7 1.6 1.2 2.6 2.8 3.1 4.8l13.4-3.8c-1-5.3-3.7-9.4-8.1-12.2s-9.3-4.2-14.9-4.2c-7.2 0-13.1 2.3-17.8 6.9s-7 10.6-7 18c0 7.3 2.3 13.2 7 17.8s10.6 6.8 17.8 6.8c5.6 0 10.5-1.4 14.9-4.2s7-6.9 8.1-12.2l-13.4-3.9c-.4 2.1-1.5 3.7-3.1 4.9-1.5 1.2-3.4 1.7-5.6 1.7-2.8 0-5.2-1-7.1-3s-2.8-4.6-2.8-8 .9-6.1 2.8-8.1c1.8-2 4.2-3 7-3z" fill="url(#c)"/><path d="m775.8 231.2c-1.7.8-3.6 1.2-5.8 1.2-4.7 0-7-2.2-7-6.6v-16.2h13.5v-13.1h-13.5v-13.5h-15.4c0 6.9-.9 11.4-2.6 13.4h-6v13.1h8.5v17.1c0 6.3 1.9 11 5.6 13.9 3.8 2.9 8.4 4.4 13.8 4.4 3.8 0 7.4-.6 10.7-1.8z" fill="url(#c)"/><g fill="#fff"><path d="m70 159c5.8 0 10.4-1.7 13.8-5.2v4.2h15.4v-67.2h-15.4v23.8c-3.5-3.4-8.1-5.1-13.6-5.1-6.6 0-12.2 2.3-16.7 7-4.5 4.6-6.8 10.5-6.8 17.8 0 7.1 2.2 13 6.7 17.7 4.4 4.6 10 7 16.6 7zm-4.3-33c2-2.1 4.6-3.2 7.6-3.2s5.5 1.1 7.5 3.2c2 2 3.1 4.8 3.1 8.3 0 3.4-1 6.1-3.1 8.3-2 2-4.5 3.1-7.5 3.1s-5.5-1-7.6-3.1c-2-2.1-3.1-4.9-3.1-8.3 0-3.5 1-6.2 3.1-8.3z"/><path d="m129.3 159.1c5.2 0 9.8-1.2 13.7-3.6 4-2.4 6.6-6 7.9-10.8l-13.3-3.6c-.4 1.8-1.3 3.2-2.9 4.3-1.5 1-3.4 1.5-5.5 1.5-2.5 0-4.6-.8-6.4-2.3-1.7-1.5-2.8-3.8-3.4-6.8h33.1c.2-1.9.3-3.5.3-4.8 0-7-2.3-12.7-6.8-17-4.5-4.4-10.3-6.5-17.2-6.5-7 0-13 2.3-17.8 6.9-4.7 4.6-7.1 10.6-7.1 17.9 0 7.4 2.4 13.3 7.2 18 4.9 4.5 10.9 6.8 18.2 6.8zm-.4-37.4c2.5 0 4.5.7 6.1 2 1.7 1.3 2.7 2.8 3.1 4.5h-18.2c1.6-4.3 4.6-6.5 9-6.5z"/><path d="m188.6 158 19.1-47.5h-16l-11.3 31-11.3-31h-16.1l19 47.5z"/><path d="m213.5 152.2c4.8 4.5 10.8 6.8 18.1 6.8 5.2 0 9.8-1.2 13.7-3.6 4-2.4 6.6-6 7.9-10.8l-13.3-3.6c-.4 1.8-1.3 3.2-2.9 4.3-1.5 1-3.4 1.5-5.5 1.5-2.5 0-4.6-.8-6.4-2.3-1.7-1.5-2.8-3.8-3.4-6.8h33.1c.2-1.9.3-3.5.3-4.8 0-7-2.3-12.7-6.8-17-4.5-4.4-10.3-6.5-17.2-6.5-7 0-13 2.3-17.8 6.9-4.7 4.6-7.1 10.6-7.1 17.9.1 7.4 2.5 13.4 7.3 18zm17.8-30.5c2.5 0 4.5.7 6.1 2 1.7 1.3 2.7 2.8 3.1 4.5h-18.2c1.5-4.3 4.5-6.5 9-6.5z"/><path d="m275.4 90.8h-15.4v67.2h15.4z"/><path d="m324.5 116.4c-4.9-4.6-11.1-6.9-18.5-6.9s-13.5 2.3-18.4 6.9-7.4 10.6-7.4 18c0 7.2 2.5 13.2 7.4 17.8 4.9 4.5 11.1 6.8 18.4 6.8 7.4 0 13.6-2.3 18.5-6.8 4.9-4.6 7.4-10.5 7.4-17.8 0-7.4-2.5-13.4-7.4-18zm-11.3 26c-1.9 1.9-4.4 2.9-7.3 2.9s-5.4-1-7.3-2.9c-1.9-2-2.8-4.7-2.8-8.1 0-3.5.9-6.1 2.8-8.1s4.4-3 7.3-3 5.4 1 7.3 3c1.9 1.9 2.9 4.6 2.9 8.1 0 3.4-.9 6.1-2.9 8.1z"/><path d="m352 153.8c3.6 3.5 8.2 5.2 13.8 5.2 6.6 0 12.1-2.3 16.6-7s6.7-10.6 6.7-17.7c0-7.2-2.3-13.2-6.8-17.8-4.5-4.7-10.1-7-16.6-7-5.6 0-10.2 1.7-13.7 5.1v-4.1h-15.4v66.7h15.4zm3-27.8c2-2.1 4.6-3.2 7.7-3.2 3 0 5.5 1.1 7.5 3.2 2 2 3.1 4.8 3.1 8.3 0 3.4-1 6.1-3.1 8.3-2 2-4.5 3.1-7.5 3.1-3.1 0-5.6-1-7.7-3.1-2-2.1-3-4.9-3-8.3 0-3.5 1-6.2 3-8.3z"/><path d="m456.4 132.1v25.9h15.4v-30.6c0-5.6-1.7-10-5.2-13.2-3.4-3.1-7.8-4.7-13.2-4.7-7.1 0-12.2 2.7-15.3 8.1-3.2-5.4-8.5-8.1-15.9-8.1-5.4 0-9.7 1.6-12.9 4.9v-3.9h-15.3v47.5h15.4v-25.5c0-2.9.7-5.2 2.1-6.7 1.5-1.5 3.4-2.3 5.9-2.3 2.4 0 4.4.7 5.8 2.2 1.4 1.4 2.1 3.6 2.1 6.4v25.9h15.4v-25.5c0-2.9.7-5.2 2.1-6.7 1.5-1.5 3.4-2.3 5.9-2.3s4.4.7 5.8 2.2c1.2 1.4 1.9 3.5 1.9 6.4z"/><path d="m523.2 144.7-13.3-3.6c-.4 1.8-1.3 3.2-2.9 4.3-1.5 1-3.4 1.5-5.5 1.5-2.5 0-4.6-.8-6.4-2.3-1.7-1.5-2.8-3.8-3.4-6.8h33.1c.2-1.9.3-3.5.3-4.8 0-7-2.3-12.7-6.8-17-4.5-4.4-10.3-6.5-17.2-6.5-7 0-13 2.3-17.8 6.9-4.7 4.6-7.1 10.6-7.1 17.9 0 7.4 2.4 13.3 7.2 18 4.8 4.5 10.8 6.8 18.1 6.8 5.2 0 9.8-1.2 13.7-3.6 4.1-2.5 6.7-6.1 8-10.8zm-22-23c2.5 0 4.5.7 6.1 2 1.7 1.3 2.7 2.8 3.1 4.5h-18.2c1.5-4.3 4.5-6.5 9-6.5z"/><path d="m545.2 132.5c0-2.9.7-5.2 2.1-6.7 1.5-1.5 3.4-2.3 5.9-2.3s4.4.7 5.8 2.2c1.4 1.4 2.1 3.6 2.1 6.4v25.9h15.4v-30.6c0-5.6-1.7-10-5.2-13.2-3.4-3.1-7.8-4.7-13.2-4.7s-9.7 1.6-12.9 4.9v-3.9h-15.4v47.5h15.4z"/><path d="m610.8 146.4c-4.7 0-7-2.2-7-6.6v-16.2h13.5v-13.1h-13.5v-13.5h-15.4c0 6.9-.9 11.4-2.6 13.4h-6v13.1h8.5v17.1c0 6.3 1.9 11 5.6 13.9 3.8 2.9 8.4 4.4 13.8 4.4 3.8 0 7.4-.6 10.7-1.8l-1.9-11.9c-1.6.8-3.5 1.2-5.7 1.2z"/><path d="m684.9 116.4c-4.9-4.6-11.1-6.9-18.5-6.9s-13.5 2.3-18.4 6.9-7.4 10.6-7.4 18c0 7.2 2.5 13.2 7.4 17.8 4.9 4.5 11.1 6.8 18.4 6.8 7.4 0 13.6-2.3 18.5-6.8 4.9-4.6 7.4-10.5 7.4-17.8 0-7.4-2.5-13.4-7.4-18zm-11.2 26c-1.9 1.9-4.4 2.9-7.3 2.9s-5.4-1-7.3-2.9c-1.9-2-2.8-4.7-2.8-8.1 0-3.5.9-6.1 2.8-8.1s4.4-3 7.3-3 5.4 1 7.3 3c1.9 1.9 2.9 4.6 2.9 8.1 0 3.4-1 6.1-2.9 8.1z"/><path d="m716.9 108.7c0-4.3 2.4-6.4 7.1-6.4 2.4 0 4.7.4 7 1.2l1.9-11.9c-4-1.1-8-1.6-12-1.6-2.5 0-4.9.3-7.1 1s-4.3 1.6-6.2 3c-1.9 1.3-3.3 3.1-4.4 5.5s-1.6 5.1-1.6 8.3v3h-7.9v13.1h7.9v34.1h15.4v-34.5h14.9v-13.1h-14.9v-1.7z"/><path d="m39 196.5-11.3 29.3-11.3-29.3h-16.3000244l20.9000244 47.5-8.5 19.2h14.5l28.1-66.7z"/><path d="m97.8 202.4c-4.9-4.6-11.1-6.9-18.5-6.9s-13.5 2.3-18.4 6.9-7.4 10.6-7.4 18c0 7.2 2.5 13.2 7.4 17.8 4.9 4.5 11.1 6.8 18.4 6.8 7.4 0 13.6-2.3 18.5-6.8 4.9-4.6 7.4-10.5 7.4-17.8 0-7.4-2.4-13.4-7.4-18zm-11.2 26c-1.9 1.9-4.4 2.9-7.3 2.9s-5.4-1-7.3-2.9c-1.9-2-2.8-4.7-2.8-8.1 0-3.5.9-6.1 2.8-8.1s4.4-3 7.3-3 5.4 1 7.3 3c1.9 1.9 2.9 4.6 2.9 8.1 0 3.4-1 6.1-2.9 8.1z"/><path d="m141 222c0 2.9-.7 5.2-2.2 6.7-1.4 1.5-3.3 2.3-5.8 2.3s-4.4-.7-5.8-2c-1.4-1.4-2.1-3.5-2.1-6.2v-26.3h-15.4v29.7c0 6 1.8 10.6 5.3 13.9 3.6 3.3 7.9 4.9 13.1 4.9 5.4 0 9.7-1.6 12.9-4.9v3.9h15.4v-47.5h-15.4z"/><path d="m198 196.5c-1.7-.6-4-1-6.8-1-5.2 0-9.4 1.7-12.6 5v-4h-15.4v47.5h15.4v-23.9c0-3.5.9-6 2.8-7.7s4.1-2.6 6.8-2.6c2.8 0 5.3.4 7.6 1.2z"/><path d="m223.6 274.2c2.4 0 4.7.4 7 1.2l1.9-11.9c-4-1.1-8-1.6-12-1.6-2.5 0-4.9.3-7.1 1s-4.3 1.6-6.2 3c-1.9 1.3-3.3 3.1-4.4 5.5s-1.6 5.1-1.6 8.3v3h-7.9v13.1h7.9v34.2h15.4v-34.5h14.9v-13.1h-14.9v-1.8c-.1-4.2 2.3-6.4 7-6.4z"/><path d="m277.5 288.4c-4.9-4.6-11.1-6.9-18.5-6.9s-13.5 2.3-18.4 6.9-7.4 10.6-7.4 18c0 7.2 2.5 13.2 7.4 17.8 4.9 4.5 11.1 6.8 18.4 6.8 7.4 0 13.6-2.3 18.5-6.8 4.9-4.6 7.4-10.5 7.4-17.8 0-7.4-2.5-13.4-7.4-18zm-11.3 26c-1.9 1.9-4.4 2.9-7.3 2.9s-5.4-1-7.3-2.9c-1.9-2-2.8-4.7-2.8-8.1 0-3.5.9-6.1 2.8-8.1s4.4-3 7.3-3 5.4 1 7.3 3c1.9 1.9 2.9 4.6 2.9 8.1 0 3.4-.9 6.1-2.9 8.1z"/><path d="m305 286.5v-4h-15.4v47.5h15.4v-23.9c0-3.5.9-6 2.8-7.7s4.1-2.6 6.8-2.6c2.8 0 5.3.4 7.6 1.2l2.2-14.6c-1.7-.6-4-1-6.8-1-5.2.1-9.4 1.8-12.6 5.1z"/><path d="m384.1 282.5-11.3 29.3-11.4-29.3h-16.2l20.8 47.5-8.4 19.2h14.5l28.1-66.7z"/><path d="m423.4 281.5c-7 0-13 2.3-17.8 6.9-4.7 4.6-7.1 10.6-7.1 17.9 0 7.4 2.4 13.3 7.2 18 4.8 4.5 10.8 6.8 18.1 6.8 5.2 0 9.8-1.2 13.7-3.6 4-2.4 6.6-6 7.9-10.8l-13.3-3.6c-.4 1.8-1.3 3.2-2.9 4.3-1.5 1-3.4 1.5-5.5 1.5-2.5 0-4.6-.8-6.4-2.3-1.7-1.5-2.8-3.8-3.4-6.8h33.1c.2-1.9.3-3.5.3-4.8 0-7-2.3-12.7-6.8-17-4.4-4.3-10.2-6.5-17.1-6.5zm-8.9 18.7c1.5-4.4 4.5-6.5 9-6.5 2.5 0 4.5.7 6.1 2 1.7 1.3 2.7 2.8 3.1 4.5z"/><path d="m494.2 315.1v-15.7c0-5.7-1.9-10.1-5.7-13.2-3.7-3.1-8.8-4.7-15.4-4.7-5.5 0-10.2 1.2-14.2 3.6-3.9 2.4-6.3 6.3-7.1 11.7l13.7 1.9c.7-3.5 2.8-5.2 6.4-5.2 2 0 3.6.6 4.9 1.7s1.9 2.6 1.9 4.4v1l-13.7 1.2c-4.7.4-8.4 2-11.1 4.5s-4.1 5.9-4.1 10.1c0 4.5 1.5 8 4.5 10.6 3.1 2.6 7 3.8 11.9 3.8 6.2 0 11-1.7 14.3-5.2 2.2 3.5 6.3 5.2 12.5 5.2 2.4 0 4.3-.3 5.7-.8v-13c-1 .3-1.7.5-2.2.5-1.6.2-2.3-.7-2.3-2.4zm-15.4-3.7c0 2.6-.8 4.5-2.3 6-1.5 1.4-3.5 2.2-5.8 2.3-1.7.1-3.2-.3-4.3-1s-1.6-1.7-1.6-3c0-1.1.4-2 1.3-2.8s2.1-1.3 3.6-1.5l9-1.1v1.1z"/><path d="m518.4 286.5v-4h-15.4v47.5h15.4v-23.9c0-3.5.9-6 2.8-7.7s4.1-2.6 6.8-2.6c2.8 0 5.3.4 7.6 1.2l2.2-14.6c-1.7-.6-4-1-6.8-1-5.2.1-9.4 1.8-12.6 5.1z"/><path d="m578.2 306c-1.2-1-2.3-1.9-3.5-2.5-1.1-.7-2.5-1.3-4.3-1.7s-3.2-.8-4.2-1-2.3-.4-4-.6-2.6-.3-2.9-.4c-2.9-.5-4.4-1.6-4.4-3.2 0-2 1.5-3.1 4.4-3.1 1.7 0 3.3.4 4.8 1.2s2.4 1.9 2.8 3.5l13-3.4c-1-4.4-3.4-7.7-7.1-10-3.6-2.2-8-3.4-13.2-3.4-5.9 0-10.8 1.3-14.7 4-3.8 2.7-5.8 6.5-5.8 11.5 0 1.7.3 3.3.9 4.8.6 1.4 1.2 2.6 1.9 3.6.8 1 1.9 1.9 3.3 2.7 1.5.8 2.7 1.4 3.6 1.8 1 .4 2.3.8 4.1 1.2 1.8.3 3 .5 3.7.7.8.1 2 .3 3.6.5 1.9.3 3.3.6 4.2 1.1 1 .4 1.4 1.2 1.4 2.1 0 1.1-.6 2-1.7 2.6s-2.5.9-4.1.9c-1.9 0-3.6-.4-5.1-1.2s-2.5-2-3-3.5l-12.8 3.3c1 4.4 3.5 7.7 7.4 10s8.7 3.5 14.3 3.5 10.5-1.4 14.6-4.3 6.1-6.8 6.1-11.9c0-1.9-.3-3.5-.9-5-.3-1.6-1.2-2.8-2.4-3.8z"/></g></svg>