<svg fill="none" height="38" viewBox="0 0 90 38" width="90" xmlns="http://www.w3.org/2000/svg"><g fill="#fff"><path d="m10.8191 3.57745c.8515-1.34734 1.2194-2.602108 1.2194-2.602108s-1.1161.375748-2.48728 1.468208c-1.25384 1.13722-2.7056 3.11754-2.60336 5.70856 1.87481-1.50636 3.11214-3.11942 3.87124-4.57466z"/><path d="m3.66147 18.5447-.07275 1.0584c-.01301.2254.14076.4253.36527.4309.2159.0179.41091-.165.42287-.3828l.07346-1.0553c1.53999-.9306 2.59624-2.2584 3.26118-3.4423.33509-.6562.63583-1.2472.85182-1.6714.17479-.4502.28866-.7229.28866-.7229s-1.00147.0971-2.23307.9015c-.87144.6653-2.04291 1.8796-2.47674 3.8138-.00281-.0005-.00537-.0027-.00874-.0033.0141-1.9947-.22636-3.5812-.72415-4.8429-.45444-1.4903-1.10953-2.4108-1.10953-2.4108s-.10598.3646-.27486.9457c-.14515.5922-.33347 1.4035-.27775 2.3525.0123 1.7185.4435 3.7346 1.91433 5.0289z"/><path d="m4.6242 13.0659c-.07953.2201.04443.4483.26009.5174.20348.0658.41615-.0664.49389-.2737l.33171-.9743c1.67826-.504 2.77222-1.6157 3.7221-2.52644.492-.52013.84511-1.03742 1.08051-1.41961.2576-.37191.4265-.59014.4265-.59014s-1.03772-.18718-2.23094.38294c-.99322.43397-2.24299 1.3151-3.05876 2.96695-.00826-.0026-.01532-.0056-.0231-.0075.41177-1.82527.42525-3.34107.25748-4.59544-.25962-1.54807-.61447-2.50326-.61447-2.50326-.13693-.13506-2.64544 4.86796-.32923 8.0807z"/><path d="m6.93163 31.6419c.29153.4238.8325 1.194.87436 1.1534.16432.1695.42379.1881.57752.0335.15277-.156.16399-.4139.01032-.569-.04218.0304-.58475-.7366-.85836-1.1282 1.41486-4.4257.53913-7.9619.69403-8.1992 0 0-1.12541.6155-1.74014 2.0289-.65587 1.2343-1.0136 3.5257.3633 5.8242-.009.0069-.01863.01-.02707.0169-.01462.0101-.0221.0267-.03408.0384-1.60422-2.1354-2.97276-3.6813-4.24969-4.8906-1.51026-1.3248-2.5297559-2.0017-2.5288637-2.0081-.0833212-.0331.2171567 1.989 1.4303437 4.1384 1.11709 1.9647 3.21458 3.6493 5.48833 3.5614z"/><path d="m11.8721 36.314 2.5565 1.6029c.194.1297.4453.0296.5349-.1638.0934-.2166-.0013-.4405-.1837-.5624l-2.5218-1.5881c-.1104-2.4458-.769-4.4346-1.3291-5.8342-.5209-1.554-1.14435-2.5532-1.10127-2.5983 0 0-.86342.9956-.97733 2.7083-.24752 1.6117.45088 3.9539 2.7686 5.7161-.0156.0171-.0342.0312-.0481.0521-2.41374-1.543-4.55769-2.4073-6.23016-3.1619-1.93202-.7148-3.25548-1.0085-3.25548-1.0085s.17932.5033.70958 1.1895c.54008.6611 1.26559 1.6 2.2652 2.3783 1.92552 1.4752 4.60603 2.3536 6.81216 1.27z"/><path d="m4.11147 25.4709.38778 1.4243c.0629.225.27534.3585.48048.2762.2057-.0821.32136-.3224.26414-.5388l-.37181-1.3697c1.4186-1.6392 2.32321-3.4131 2.74084-4.8597.63214-1.5796.64158-2.856.7127-2.8756 0 0-1.14291.2997-2.25442 1.5002-1.03239 1.0369-2.09181 2.9939-1.6837 5.6459-.02849-.0018-.0564-.0077-.08465-.0029-.67606-2.5851-1.48132-4.5563-2.29895-6.0344-.95965-1.6469-1.87365-2.586-1.87365-2.586s-.1118771.4483-.0921236 1.1976c-.0042307.744.0462252 1.7844.2240156 2.8843.507763 2.1142 1.617868 4.5167 3.849348 5.3386z"/><path d="m79.1809 3.57745c-.8515-1.34734-1.2194-2.602108-1.2194-2.602108s1.1161.375748 2.4873 1.468208c1.2538 1.13722 2.7056 3.11754 2.6033 5.70856-1.8748-1.50636-3.1121-3.11942-3.8712-4.57466z"/><path d="m86.3385 18.5447.0728 1.0584c.013.2254-.1408.4253-.3653.4309-.2159.0179-.4109-.165-.4229-.3828l-.0734-1.0553c-1.54-.9306-2.5963-2.2584-3.2612-3.4423-.3351-.6562-.6358-1.2472-.8518-1.6714-.1748-.4502-.2887-.7229-.2887-.7229s1.0015.0971 2.2331.9015c.8714.6653 2.0429 1.8796 2.4767 3.8138.0028-.0005.0054-.0027.0088-.0033-.0141-1.9947.2263-3.5812.7241-4.8429.4545-1.4903 1.1096-2.4108 1.1096-2.4108s.1059.3646.2748.9457c.1452.5922.3335 1.4035.2778 2.3525-.0123 1.7185-.4435 3.7346-1.9144 5.0289z"/><path d="m85.3758 13.0659c.0795.2201-.0444.4483-.2601.5174-.2035.0658-.4161-.0664-.4939-.2737l-.3317-.9743c-1.6783-.504-2.7722-1.6157-3.7221-2.52644-.492-.52013-.8451-1.03742-1.0805-1.41961-.2576-.37191-.4265-.59014-.4265-.59014s1.0377-.18718 2.2309.38294c.9933.43397 2.243 1.3151 3.0588 2.96695.0083-.0026.0153-.0056.0231-.0075-.4118-1.82527-.4253-3.34107-.2575-4.59544.2596-1.54807.6145-2.50326.6145-2.50326.1369-.13506 2.6454 4.86796.3292 8.0807z"/><path d="m83.0684 31.6419c-.2916.4238-.8325 1.194-.8744 1.1534-.1643.1695-.4238.1881-.5775.0335-.1528-.156-.164-.4139-.0103-.569.0421.0304.5847-.7366.8583-1.1282-1.4148-4.4257-.5391-7.9619-.694-8.1992 0 0 1.1254.6155 1.7401 2.0289.6559 1.2343 1.0136 3.5257-.3633 5.8242.009.0069.0187.01.0271.0169.0146.0101.0221.0267.0341.0384 1.6042-2.1354 2.9728-3.6813 4.2497-4.8906 1.5102-1.3248 2.5297-2.0017 2.5288-2.0081.0834-.0331-.2171 1.989-1.4303 4.1384-1.1171 1.9647-3.2146 3.6493-5.4883 3.5614z"/><path d="m78.1279 36.314-2.5565 1.6029c-.194.1297-.4453.0296-.5349-.1638-.0934-.2166.0013-.4405.1837-.5624l2.5218-1.5881c.1104-2.4458.769-4.4346 1.3291-5.8342.5209-1.554 1.1443-2.5532 1.1013-2.5983 0 0 .8634.9956.9773 2.7083.2475 1.6117-.4509 3.9539-2.7686 5.7161.0156.0171.0342.0312.0481.0521 2.4137-1.543 4.5577-2.4073 6.2302-3.1619 1.932-.7148 3.2554-1.0085 3.2554-1.0085s-.1793.5033-.7095 1.1895c-.5401.6611-1.2656 1.6-2.2652 2.3783-1.9256 1.4752-4.6061 2.3536-6.8122 1.27z"/><path d="m85.8885 25.4709-.3878 1.4243c-.0629.225-.2753.3585-.4804.2762-.2057-.0821-.3214-.3224-.2642-.5388l.3718-1.3697c-1.4186-1.6392-2.3232-3.4131-2.7408-4.8597-.6321-1.5796-.6416-2.856-.7127-2.8756 0 0 1.1429.2997 2.2544 1.5002 1.0324 1.0369 2.0918 2.9939 1.6837 5.6459.0285-.0018.0564-.0077.0847-.0029.676-2.5851 1.4813-4.5563 2.2989-6.0344.9597-1.6469 1.8737-2.586 1.8737-2.586s.1118.4483.0921 1.1976c.0042.744-.0462 1.7844-.224 2.8843-.5078 2.1142-1.6179 4.5167-3.8494 5.3386z"/></g></svg>