<svg width="90" height="38" viewBox="0 0 90 38" fill="none" xmlns="http://www.w3.org/2000/svg">
<path fill-rule="evenodd" clip-rule="evenodd" d="M28.8074 0H61.1941C62.7445 0 64 1.21904 64 2.72232V35.2762C64 36.7794 62.7445 38 61.1941 38H28.8074C27.257 38 26 36.781 26 35.2762V2.72232C26 1.21904 27.257 0 28.8074 0ZM49.7921 20.4957C51.0699 21.531 52.4743 22.1669 53.9747 22.1669C55.9951 22.1669 57.6435 20.5155 57.6496 18.4935C57.6496 16.4655 56.0012 14.8141 53.9747 14.8141C51.2727 14.8141 50.3944 17.4261 50.1169 18.9815L50.1032 19.0349L49.7921 20.4957ZM46.7592 17.0251C47.8464 13.3319 50.5225 11.0859 53.9747 11.0859C58.0491 11.0859 61.3656 14.407 61.3687 18.4783C61.3687 22.5572 58.0522 25.8997 53.9778 25.8997C52.0717 25.8997 50.4096 25.3187 48.9641 24.3916L47.3157 32.1638H43.5113L45.7878 21.4487C44.7128 20.0946 43.8284 18.5728 43.1056 17.0648V18.6887C43.1056 22.6533 39.8821 25.9073 35.9236 25.9073C31.9651 25.9073 28.7416 22.6533 28.7554 18.6887V9.00901H32.4714V18.6887C32.4714 20.5963 34.0237 22.1516 35.9297 22.1516C37.8358 22.1516 39.3896 20.5963 39.3896 18.6887V9.00901H43.1041C43.8406 11.5326 45.0971 14.5289 46.7592 17.0251Z" fill="white"/>
<path d="M10.8191 2.70489C11.6706 1.35755 12.0385 0.102783 12.0385 0.102783C12.0385 0.102783 10.9224 0.478533 9.55122 1.57099C8.29738 2.70822 6.84562 4.68853 6.94786 7.27955C8.82267 5.77319 10.06 4.16014 10.8191 2.70489Z" fill="white"/>
<path d="M3.66147 17.6722L3.58872 18.7306C3.57571 18.956 3.72948 19.1558 3.95399 19.1614C4.16989 19.1793 4.3649 18.9964 4.37686 18.7786L4.45032 17.7233C5.99031 16.7927 7.04656 15.465 7.7115 14.281C8.04659 13.6249 8.34733 13.0338 8.56332 12.6097C8.73811 12.1595 8.85198 11.8867 8.85198 11.8867C8.85198 11.8867 7.85051 11.9839 6.61891 12.7882C5.74747 13.4536 4.576 14.6678 4.14217 16.602C4.13936 16.6015 4.1368 16.5993 4.13343 16.5988C4.14753 14.6041 3.90707 13.0175 3.40928 11.7558C2.95484 10.2655 2.29975 9.34501 2.29975 9.34501C2.29975 9.34501 2.19377 9.70967 2.02489 10.2907C1.87974 10.8829 1.69142 11.6943 1.74714 12.6432C1.75944 14.3618 2.19064 16.3778 3.66147 17.6722Z" fill="white"/>
<path d="M4.6242 12.1933C4.54467 12.4135 4.66863 12.6417 4.88429 12.7108C5.08777 12.7766 5.30044 12.6444 5.37818 12.437L5.70989 11.4627C7.38815 10.9588 8.48211 9.84705 9.43199 8.9363C9.92399 8.41617 10.2771 7.89888 10.5125 7.51669C10.7701 7.14478 10.939 6.92655 10.939 6.92655C10.939 6.92655 9.90128 6.73938 8.70806 7.30949C7.71484 7.74346 6.46507 8.62459 5.6493 10.2764C5.64104 10.2739 5.63398 10.2709 5.6262 10.269C6.03797 8.44367 6.05145 6.92787 5.88368 5.6735C5.62406 4.12544 5.26921 3.17024 5.26921 3.17024C5.13228 3.03518 2.62377 8.03821 4.93998 11.2509L4.6242 12.1933Z" fill="white"/>
<path d="M6.93163 30.7693C7.22316 31.1931 7.76413 31.9634 7.80599 31.9228C7.97031 32.0922 8.22978 32.1109 8.38351 31.9562C8.53628 31.8002 8.5475 31.5423 8.39383 31.3872C8.35165 31.4176 7.80908 30.6507 7.53547 30.2591C8.95033 25.8334 8.0746 22.2971 8.2295 22.0599C8.2295 22.0599 7.10409 22.6754 6.48936 24.0888C5.83349 25.3231 5.47576 27.6144 6.85266 29.913C6.84366 29.9198 6.83403 29.923 6.82559 29.9299C6.81097 29.9399 6.80349 29.9565 6.79151 29.9682C5.18729 27.8328 3.81875 26.2869 2.54182 25.0776C1.03156 23.7528 0.0120641 23.076 0.0129563 23.0696C-0.0703649 23.0365 0.230113 25.0585 1.4433 27.208C2.56039 29.1726 4.65788 30.8573 6.93163 30.7693Z" fill="white"/>
<path d="M11.8721 35.4414L14.4286 37.0443C14.6226 37.1741 14.8739 37.074 14.9635 36.8805C15.0569 36.6639 14.9622 36.44 14.7798 36.3182L12.258 34.73C12.1476 32.2842 11.489 30.2955 10.9289 28.8958C10.408 27.3419 9.78455 26.3427 9.82763 26.2975C9.82763 26.2975 8.96421 27.2931 8.8503 29.0059C8.60278 30.6175 9.30118 32.9598 11.6189 34.722C11.6033 34.739 11.5847 34.7532 11.5708 34.7741C9.15706 33.231 7.01311 32.3667 5.34064 31.6122C3.40862 30.8973 2.08516 30.6037 2.08516 30.6037C2.08516 30.6037 2.26448 31.1069 2.79474 31.7931C3.33482 32.4542 4.06033 33.3931 5.05994 34.1715C6.98546 35.6466 9.66597 36.525 11.8721 35.4414Z" fill="white"/>
<path d="M4.11147 24.5983L4.49925 26.0226C4.56215 26.2477 4.77459 26.3811 4.97973 26.2989C5.18543 26.2167 5.30109 25.9764 5.24387 25.7601L4.87206 24.3903C6.29066 22.7512 7.19527 20.9773 7.6129 19.5307C8.24504 17.951 8.25448 16.6746 8.3256 16.655C8.3256 16.655 7.18269 16.9548 6.07118 18.1553C5.03879 19.1921 3.97937 21.1491 4.38748 23.8012C4.35899 23.7993 4.33108 23.7934 4.30283 23.7982C3.62677 21.2131 2.82151 19.2419 2.00388 17.7638C1.04423 16.117 0.13023 15.1779 0.13023 15.1779C0.13023 15.1779 0.0183529 15.6261 0.0381064 16.3754C0.0338757 17.1194 0.0843316 18.1598 0.262122 19.2598C0.769885 21.3739 1.87999 23.7765 4.11147 24.5983Z" fill="white"/>
<path d="M79.1809 2.70489C78.3294 1.35755 77.9615 0.102783 77.9615 0.102783C77.9615 0.102783 79.0776 0.478533 80.4488 1.57099C81.7026 2.70822 83.1544 4.68853 83.0521 7.27955C81.1773 5.77319 79.94 4.16014 79.1809 2.70489Z" fill="white"/>
<path d="M86.3385 17.6722L86.4113 18.7306C86.4243 18.956 86.2705 19.1558 86.046 19.1614C85.8301 19.1793 85.6351 18.9964 85.6231 18.7786L85.5497 17.7233C84.0097 16.7927 82.9534 15.465 82.2885 14.281C81.9534 13.6249 81.6527 13.0338 81.4367 12.6097C81.2619 12.1595 81.148 11.8867 81.148 11.8867C81.148 11.8867 82.1495 11.9839 83.3811 12.7882C84.2525 13.4536 85.424 14.6678 85.8578 16.602C85.8606 16.6015 85.8632 16.5993 85.8666 16.5988C85.8525 14.6041 86.0929 13.0175 86.5907 11.7558C87.0452 10.2655 87.7003 9.34501 87.7003 9.34501C87.7003 9.34501 87.8062 9.70967 87.9751 10.2907C88.1203 10.8829 88.3086 11.6943 88.2529 12.6432C88.2406 14.3618 87.8094 16.3778 86.3385 17.6722Z" fill="white"/>
<path d="M85.3758 12.1933C85.4553 12.4135 85.3314 12.6417 85.1157 12.7108C84.9122 12.7766 84.6996 12.6444 84.6218 12.437L84.2901 11.4627C82.6118 10.9588 81.5179 9.84705 80.568 8.9363C80.076 8.41617 79.7229 7.89888 79.4875 7.51669C79.2299 7.14478 79.061 6.92655 79.061 6.92655C79.061 6.92655 80.0987 6.73938 81.2919 7.30949C82.2852 7.74346 83.5349 8.62459 84.3507 10.2764C84.359 10.2739 84.366 10.2709 84.3738 10.269C83.962 8.44367 83.9485 6.92787 84.1163 5.6735C84.3759 4.12544 84.7308 3.17024 84.7308 3.17024C84.8677 3.03518 87.3762 8.03821 85.06 11.2509L85.3758 12.1933Z" fill="white"/>
<path d="M83.0684 30.7693C82.7768 31.1931 82.2359 31.9634 82.194 31.9228C82.0297 32.0922 81.7702 32.1109 81.6165 31.9562C81.4637 31.8002 81.4525 31.5423 81.6062 31.3872C81.6483 31.4176 82.1909 30.6507 82.4645 30.2591C81.0497 25.8334 81.9254 22.2971 81.7705 22.0599C81.7705 22.0599 82.8959 22.6754 83.5106 24.0888C84.1665 25.3231 84.5242 27.6144 83.1473 29.913C83.1563 29.9198 83.166 29.923 83.1744 29.9299C83.189 29.9399 83.1965 29.9565 83.2085 29.9682C84.8127 27.8328 86.1813 26.2869 87.4582 25.0776C88.9684 23.7528 89.9879 23.076 89.987 23.0696C90.0704 23.0365 89.7699 25.0585 88.5567 27.208C87.4396 29.1726 85.3421 30.8573 83.0684 30.7693Z" fill="white"/>
<path d="M78.1279 35.4414L75.5714 37.0443C75.3774 37.1741 75.1261 37.074 75.0365 36.8805C74.9431 36.6639 75.0378 36.44 75.2202 36.3182L77.742 34.73C77.8524 32.2842 78.511 30.2955 79.0711 28.8958C79.592 27.3419 80.2154 26.3427 80.1724 26.2975C80.1724 26.2975 81.0358 27.2931 81.1497 29.0059C81.3972 30.6175 80.6988 32.9598 78.3811 34.722C78.3967 34.739 78.4153 34.7532 78.4292 34.7741C80.8429 33.231 82.9869 32.3667 84.6594 31.6122C86.5914 30.8973 87.9148 30.6037 87.9148 30.6037C87.9148 30.6037 87.7355 31.1069 87.2053 31.7931C86.6652 32.4542 85.9397 33.3931 84.9401 34.1715C83.0145 35.6466 80.334 36.525 78.1279 35.4414Z" fill="white"/>
<path d="M85.8885 24.5983L85.5007 26.0226C85.4378 26.2477 85.2254 26.3811 85.0203 26.2989C84.8146 26.2167 84.6989 25.9764 84.7561 25.7601L85.1279 24.3903C83.7093 22.7512 82.8047 20.9773 82.3871 19.5307C81.755 17.951 81.7455 16.6746 81.6744 16.655C81.6744 16.655 82.8173 16.9548 83.9288 18.1553C84.9612 19.1921 86.0206 21.1491 85.6125 23.8012C85.641 23.7993 85.6689 23.7934 85.6972 23.7982C86.3732 21.2131 87.1785 19.2419 87.9961 17.7638C88.9558 16.117 89.8698 15.1779 89.8698 15.1779C89.8698 15.1779 89.9816 15.6261 89.9619 16.3754C89.9661 17.1194 89.9157 18.1598 89.7379 19.2598C89.2301 21.3739 88.12 23.7765 85.8885 24.5983Z" fill="white"/>
</svg>
