<svg width="77" height="76" viewBox="0 0 77 76" fill="none" xmlns="http://www.w3.org/2000/svg">
<path fill-rule="evenodd" clip-rule="evenodd" d="M62.9315 31.8621C63.9775 31.8621 65.0026 31.7725 65.9995 31.6006V66C65.9995 71.5228 61.5223 76 55.9995 76H10.17C4.58097 76 0.076909 71.4191 0.171381 65.831L0.947616 19.9155C0.993737 17.1874 3.21843 15 5.9469 15H45.0318C45.5848 24.4054 53.3873 31.8621 62.9315 31.8621ZM49.9578 42.8871C52.5236 42.8871 54.6036 40.7278 54.6036 38.0641C54.6036 35.4005 52.5236 33.2412 49.9578 33.2412C47.392 33.2412 45.312 35.4005 45.312 38.0641C45.312 39.3232 45.7767 40.4695 46.5378 41.3285C45.9636 42.2335 45.2249 43.2766 44.3238 44.316C41.8448 47.1755 38.3025 49.8273 33.6975 49.8273C29.1061 49.8273 25.715 47.1895 23.3887 44.3484C22.4243 43.1704 21.6692 41.9873 21.1169 41.0071C21.7218 40.1928 22.0816 39.1722 22.0816 38.0643C22.0816 35.4007 20.0017 33.2414 17.4358 33.2414C14.87 33.2414 12.79 35.4007 12.79 38.0643C12.79 40.7279 14.87 42.8872 17.4358 42.8872C17.853 42.8872 18.2573 42.8302 18.642 42.7231C19.2468 43.7716 20.0515 45.008 21.0675 46.2489C23.6774 49.4364 27.8358 52.8273 33.6975 52.8273C39.5455 52.8273 43.843 49.4505 46.5905 46.2812C47.6465 45.0632 48.4981 43.8492 49.1477 42.814C49.4108 42.862 49.6814 42.8871 49.9578 42.8871Z" fill="white"/>
<path fill-rule="evenodd" clip-rule="evenodd" d="M63 28C70.732 28 77 21.732 77 14C77 6.26801 70.732 0 63 0C55.268 0 49 6.26801 49 14C49 21.732 55.268 28 63 28ZM61.879 8.41349C61.879 7.65172 62.4966 7.03418 63.2584 7.03418C64.0201 7.03418 64.6377 7.65172 64.6377 8.41349V12.5518H68.7761C69.5379 12.5518 70.1554 13.1693 70.1554 13.9311C70.1554 14.6928 69.5379 15.3104 68.7761 15.3104H64.6377V19.448C64.6377 20.2097 64.0201 20.8273 63.2584 20.8273C62.4966 20.8273 61.879 20.2097 61.879 19.448V15.3104H57.7416C56.9798 15.3104 56.3623 14.6928 56.3623 13.9311C56.3623 13.1693 56.9798 12.5518 57.7416 12.5518H61.879V8.41349Z" fill="white"/>
</svg>
