<svg width="118" height="67" viewBox="0 0 118 67" fill="none" xmlns="http://www.w3.org/2000/svg">
<path d="M5.49908 17.7605C5.33966 17.9268 5.2147 18.1228 5.13136 18.3373C4.95621 18.7628 4.95621 19.2401 5.13136 19.6657C5.2147 19.8802 5.33966 20.0762 5.49908 20.2425L10.7524 25.486C11.0821 25.8151 11.5293 26 11.9956 26C12.462 26 12.9092 25.8151 13.2389 25.486C13.5686 25.1569 13.7539 24.7105 13.7539 24.245C13.7539 23.7796 13.5686 23.3332 13.2389 23.004L10.9625 20.7493H17.2489C17.7133 20.7493 18.1587 20.5652 18.4871 20.2374C18.8155 19.9096 19 19.465 19 19.0015C19 18.5379 18.8155 18.0934 18.4871 17.7656C18.1587 17.4378 17.7133 17.2537 17.2489 17.2537H10.9625L13.2389 14.9989C13.403 14.8365 13.5333 14.6431 13.6222 14.4302C13.7111 14.2172 13.7569 13.9887 13.7569 13.758C13.7569 13.5272 13.7111 13.2988 13.6222 13.0858C13.5333 12.8728 13.403 12.6795 13.2389 12.517C13.0761 12.3532 12.8825 12.2232 12.6691 12.1344C12.4557 12.0457 12.2268 12 11.9956 12C11.7645 12 11.5356 12.0457 11.3222 12.1344C11.1088 12.2232 10.9151 12.3532 10.7524 12.517L5.49908 17.7605Z" fill="white"/>
<path d="M18.5009 49.2395C18.6603 49.0732 18.7853 48.8772 18.8686 48.6627C19.0438 48.2372 19.0438 47.7599 18.8686 47.3343C18.7853 47.1198 18.6603 46.9238 18.5009 46.7575L13.2476 41.514C12.9179 41.1849 12.4707 41 12.0044 41C11.538 41 11.0908 41.1849 10.7611 41.514C10.4314 41.8431 10.2461 42.2895 10.2461 42.755C10.2461 43.2204 10.4314 43.6668 10.7611 43.996L13.0375 46.2507L6.75109 46.2507C6.28667 46.2507 5.84128 46.4348 5.51288 46.7626C5.18449 47.0904 5 47.535 5 47.9985C5 48.4621 5.18449 48.9066 5.51288 49.2344C5.84128 49.5622 6.28667 49.7463 6.75109 49.7463L13.0375 49.7463L10.7611 52.0011C10.597 52.1635 10.4667 52.3569 10.3778 52.5698C10.2889 52.7828 10.2431 53.0113 10.2431 53.242C10.2431 53.4728 10.2889 53.7012 10.3778 53.9142C10.4667 54.1272 10.597 54.3205 10.7611 54.483C10.9239 54.6468 11.1175 54.7768 11.3309 54.8656C11.5443 54.9543 11.7732 55 12.0044 55C12.2355 55 12.4644 54.9543 12.6778 54.8656C12.8912 54.7768 13.0849 54.6468 13.2476 54.483L18.5009 49.2395Z" fill="white"/>
<path d="M112.501 18.2395C112.66 18.0732 112.785 17.8772 112.869 17.6627C113.044 17.2372 113.044 16.7599 112.869 16.3343C112.785 16.1198 112.66 15.9238 112.501 15.7575L107.248 10.514C106.918 10.1849 106.471 10 106.004 10C105.538 10 105.091 10.1849 104.761 10.514C104.431 10.8431 104.246 11.2895 104.246 11.755C104.246 12.2204 104.431 12.6668 104.761 12.996L107.038 15.2507L100.751 15.2507C100.287 15.2507 99.8413 15.4348 99.5129 15.7626C99.1845 16.0904 99 16.535 99 16.9985C99 17.4621 99.1845 17.9066 99.5129 18.2344C99.8413 18.5622 100.287 18.7463 100.751 18.7463L107.038 18.7463L104.761 21.0011C104.597 21.1635 104.467 21.3569 104.378 21.5698C104.289 21.7828 104.243 22.0113 104.243 22.242C104.243 22.4728 104.289 22.7012 104.378 22.9142C104.467 23.1272 104.597 23.3205 104.761 23.483C104.924 23.6468 105.118 23.7768 105.331 23.8656C105.544 23.9543 105.773 24 106.004 24C106.236 24 106.464 23.9543 106.678 23.8656C106.891 23.7768 107.085 23.6468 107.248 23.483L112.501 18.2395Z" fill="white"/>
<path d="M99.4991 46.7605C99.3397 46.9268 99.2147 47.1228 99.1314 47.3373C98.9562 47.7628 98.9562 48.2401 99.1314 48.6657C99.2147 48.8802 99.3397 49.0762 99.4991 49.2425L104.752 54.486C105.082 54.8151 105.529 55 105.996 55C106.462 55 106.909 54.8151 107.239 54.486C107.569 54.1569 107.754 53.7105 107.754 53.245C107.754 52.7796 107.569 52.3332 107.239 52.004L104.962 49.7493H111.249C111.713 49.7493 112.159 49.5652 112.487 49.2374C112.816 48.9096 113 48.465 113 48.0015C113 47.5379 112.816 47.0934 112.487 46.7656C112.159 46.4378 111.713 46.2537 111.249 46.2537H104.962L107.239 43.9989C107.403 43.8365 107.533 43.6431 107.622 43.4302C107.711 43.2172 107.757 42.9887 107.757 42.758C107.757 42.5272 107.711 42.2988 107.622 42.0858C107.533 41.8728 107.403 41.6795 107.239 41.517C107.076 41.3532 106.882 41.2232 106.669 41.1344C106.456 41.0457 106.227 41 105.996 41C105.764 41 105.536 41.0457 105.322 41.1344C105.109 41.2232 104.915 41.3532 104.752 41.517L99.4991 46.7605Z" fill="white"/>
<path fill-rule="evenodd" clip-rule="evenodd" d="M43 0C37.4772 0 33 4.47715 33 10V57C33 62.5228 37.4772 67 43 67H75C80.5228 67 85 62.5228 85 57V10C85 4.47715 80.5228 0 75 0H43ZM60.676 30.6617C64.708 31.7957 68.236 33.9377 68.236 38.3897C68.236 43.1357 64.414 45.9077 59.92 46.3277V48.7216C59.92 49.5532 59.2396 50.2241 58.408 50.2124C57.5928 50.201 56.938 49.5368 56.938 48.7216V46.2857C53.2534 45.8372 50.571 43.7999 49.5059 40.9757C48.9411 39.4781 50.2975 38.1377 51.898 38.1377C53.1524 38.1377 54.1579 39.0821 55.1224 39.9881C55.3886 40.2381 55.6516 40.4851 55.9159 40.7086C56.6015 41.2884 57.5866 41.6237 58.828 41.6237C61.096 41.6237 62.398 40.3637 62.398 38.6837C62.398 37.5497 61.684 36.4157 59.29 35.7017L56.14 34.7777C50.26 33.1817 49.21 29.6957 49.21 27.3017C49.21 23.1437 52.486 20.1617 56.938 19.5737V17.1587C56.938 16.3353 57.6055 15.6677 58.429 15.6677C59.2525 15.6677 59.92 16.3353 59.92 17.1587V19.5737C63.4183 19.9948 66.0173 21.9398 67.0041 24.8307C67.5146 26.3262 66.1649 27.6377 64.5846 27.6377C63.3682 27.6377 62.4073 26.7285 61.4723 25.8436C61.1659 25.5537 60.8623 25.2664 60.5534 25.0146C60.0087 24.5705 59.2789 24.3197 58.408 24.3197C56.392 24.3197 55.048 25.5797 55.048 27.2177C55.048 27.8477 55.258 29.1497 57.778 29.8217L60.676 30.6617Z" fill="white"/>
</svg>
