<svg width="78" height="78" viewBox="0 0 78 78" fill="none" xmlns="http://www.w3.org/2000/svg">
<path d="M68.5868 13.997C65.5 10.9825 61 9 54 9C47 9 42.9533 13.4027 39.0159 16.571C28.5 7 15.4716 6.31384 7.75745 15.7396C2.05218 22.7099 1.24862 32.5317 5.74855 40.2941H16.5162L27.6857 21.205L34.9981 43.0664L43.1944 28.7297L50.105 40.3733H56.6942C58.0602 40.3733 59.1048 41.403 59.1048 42.7495C59.1048 44.0961 58.0602 45.1258 56.6942 45.1258H47.3729L43.2747 38.3139L33.7927 54.71L26.4 32.7693L19.2483 45.0466H9.44492L39.0159 74.1952L68.7475 44.8882C77.3456 36.3337 77.2653 22.4723 68.5868 13.997Z" fill="white"/>
</svg>
