<svg width="58" height="80" viewBox="0 0 58 80" fill="none" xmlns="http://www.w3.org/2000/svg">
<path d="M14.574 24.5032C18.4275 20.6494 23.5507 18.5274 29.0001 18.5274C34.4493 18.5274 39.5728 20.6494 43.4263 24.5032C43.9758 25.0527 44.6958 25.3272 45.416 25.3272C46.136 25.3272 46.8563 25.0524 47.4061 24.5032C48.5051 23.4045 48.5051 21.6226 47.4061 20.5234C42.4897 15.607 35.9531 12.8994 29.0004 12.8994C22.0474 12.8994 15.5111 15.607 10.5948 20.5234C9.49576 21.6224 9.49576 23.4042 10.5948 24.5032C11.6937 25.6019 13.475 25.6019 14.574 24.5032Z" fill="white"/>
<path d="M56.527 11.402C49.1743 4.04929 39.3981 0 29 0C18.6019 0 8.8252 4.04929 1.47248 11.402C0.373757 12.501 0.373757 14.2828 1.47248 15.3818C2.02224 15.931 2.74224 16.2061 3.46251 16.2061C4.18278 16.2061 4.90278 15.931 5.45254 15.3818C11.7424 9.09145 20.1049 5.62774 29 5.62774C37.8951 5.62774 46.2577 9.09145 52.5472 15.3818C53.6465 16.4803 55.4278 16.4808 56.527 15.3818C57.6257 14.2828 57.6257 12.501 56.527 11.402Z" fill="white"/>
<path fill-rule="evenodd" clip-rule="evenodd" d="M30.8733 28.5719L54.0469 49.2272C54.6459 49.7611 54.9885 50.5253 54.9885 51.328V77.186C54.9885 78.74 53.7288 80 52.1748 80H5.82546C4.27179 80 3.01172 78.7402 3.01172 77.186V51.328C3.01172 50.5253 3.35408 49.7608 3.9534 49.227L27.1289 28.5716C28.1956 27.6208 29.8063 27.6205 30.8733 28.5719ZM26 61C23.2386 61 21 63.2386 21 66V80H36V66C36 63.2386 33.7614 61 31 61H26Z" fill="white"/>
</svg>
