<svg width="80" height="23" viewBox="0 0 80 23" fill="none" xmlns="http://www.w3.org/2000/svg">
<path d="M24.9237 0H21.2903V22.5958H24.9237V0Z" fill="white"/>
<path d="M37.6459 15.4061C37.6459 18.8028 34.7227 19.1194 33.9327 19.1194C31.7995 19.1194 31.326 17.0659 31.326 15.7998V7.26953H27.6926V15.8796C27.6926 18.0128 28.4028 19.7497 29.5093 21.0159C30.536 22.0426 32.116 22.5958 33.8556 22.5958C35.119 22.5958 36.7788 22.2793 37.5688 21.3324V22.5958H41.2022V7.26953H37.5688V15.4061H37.6459Z" fill="white"/>
<path d="M48.3891 1.81641H44.7557V7.26918H42.0692V10.9026H44.7557V22.5955H48.3891V10.9026H51.0756V7.26918H48.3891V1.81641Z" fill="white"/>
<path d="M62.452 18.0129C61.662 18.7231 60.6353 19.1194 59.5288 19.1194C57.0019 19.1194 55.1825 17.3027 55.1825 14.696C55.1825 12.0894 56.9992 10.3498 59.5288 10.3498C60.6353 10.3498 61.662 10.6663 62.452 11.4563L63.0053 11.9298L65.3752 9.5598L64.822 9.00654C63.3218 7.74309 61.5024 6.9531 59.5288 6.9531C55.0256 6.87331 51.7061 10.1131 51.7061 14.696C51.7061 19.1194 55.1027 22.5188 59.5288 22.5188C61.5822 22.5188 63.4787 21.8086 64.9816 20.4654L65.5348 19.9121L63.0079 17.3852L62.452 18.0129Z" fill="white"/>
<path d="M78.4115 8.61273C77.3848 7.58601 76.1213 7.03276 74.4615 7.03276C73.1981 7.03276 71.8548 7.34928 70.9053 8.2962V0H67.2719V22.5958H70.9053V14.0629C70.9053 10.6662 73.4322 10.3496 74.2248 10.3496C76.358 10.3496 76.358 12.4031 76.358 13.6692V22.5958H79.9915V13.5894C80.0713 11.6131 79.5978 9.79638 78.4115 8.61273Z" fill="white"/>
<path d="M59.3718 17.3794C60.8115 17.3794 61.9785 16.2123 61.9785 14.7727C61.9785 13.3331 60.8115 12.166 59.3718 12.166C57.9322 12.166 56.7651 13.3331 56.7651 14.7727C56.7651 16.2123 57.9322 17.3794 59.3718 17.3794Z" fill="#FF3D2E"/>
<path d="M16.3136 16.9065C14.9703 18.2498 12.994 19.0398 11.1002 19.0398C6.99064 19.0398 4.06742 15.8798 4.06742 11.5335C4.06742 7.18728 6.99064 4.02732 11.0204 4.02732C12.9169 4.02732 14.7336 4.81731 16.2338 6.16056L16.787 6.71381L19.157 4.34385L18.6037 3.79059C16.5503 1.73716 13.8638 0.633301 11.0204 0.633301C5.01434 0.710438 0.590942 5.37323 0.590942 11.6133C0.590942 17.8561 5.01434 22.5162 11.0204 22.5162C13.9436 22.5162 16.7099 21.4097 18.6037 19.3563L19.157 18.803L16.787 16.2761L16.3136 16.9065Z" fill="white"/>
</svg>
