<svg width="105" height="40" viewBox="0 0 105 40" fill="none" xmlns="http://www.w3.org/2000/svg">
<path d="M41.6045 7.78064C37.2258 7.78064 33.662 11.5611 33.6494 16.2133C33.6495 16.2154 33.6498 16.2462 33.6498 16.2462V16.2728C33.6615 20.9305 37.2255 24.7118 41.6045 24.7118C43.0049 24.7118 44.3895 24.3111 45.6091 23.553L46.5545 22.9651L46.5632 24.7005H49.592L49.5909 7.77515L46.5861 7.77002V9.56994C46.5862 9.56994 44.6947 7.78064 41.6045 7.78064ZM41.6045 21.5247C38.8677 21.5247 36.6372 19.1572 36.6324 16.2474C36.6372 13.3352 38.8677 10.9679 41.6045 10.9679C44.3413 10.9679 46.5717 13.3352 46.5766 16.245C46.5717 19.1572 44.3413 21.5247 41.6045 21.5247Z" fill="white"/>
<path d="M83.0683 13.7552L86.0658 12.3195C84.6996 9.54504 81.9967 7.78564 79.0184 7.78564C74.632 7.78564 71.0635 11.5797 71.0635 16.2432C71.0635 20.9067 74.632 24.7007 79.0184 24.7007C81.8827 24.7007 84.5327 23.0342 85.9359 20.4029L82.911 18.9558C82.0342 20.2492 80.6382 21.474 79.0184 21.474C76.3056 21.474 74.0984 19.1275 74.0984 16.2432C74.0984 13.359 76.3056 11.0123 79.0184 11.0123C80.7874 11.0123 82.2346 12.3899 83.0683 13.7552Z" fill="white"/>
<path d="M60.6424 7.76904C59.2349 7.76904 57.85 8.16715 56.6373 8.92021L55.692 9.50738L55.6959 7.76996H52.6865V24.7005H55.7221L55.7222 16.2266C55.7222 13.3424 57.9295 10.9957 60.6423 10.9957C63.3553 10.9957 65.5624 13.3424 65.5624 16.2266V24.7005H68.5974V16.2048L68.566 15.5799C68.2539 11.2 64.7733 7.76904 60.6424 7.76904Z" fill="white"/>
<path d="M13.683 31.2728L12.5732 34.5141C15.006 34.458 17.5017 34.1231 18.867 32.6688C19.6821 31.8002 20.0768 30.5813 20.0736 28.9421L20.0735 28.9239L20.0745 28.9057L20.0842 28.7091C20.0845 28.6009 20.0845 27.5202 20.0845 26.0347C19.1814 26.8644 18.1631 27.5546 17.0571 28.0749C17.0441 30.6382 15.8259 31.1718 13.683 31.2728Z" fill="white"/>
<path d="M12.1481 3.34619C5.43892 3.34619 0 9.1285 0 16.2615C0 23.3945 5.43898 29.1769 12.1481 29.1769C13.8957 29.1769 15.5556 28.7814 17.0572 28.0751C18.1632 27.5548 19.1816 26.8646 20.0846 26.0349C19.1816 26.8646 18.1632 27.5548 17.0573 28.0695L17.0576 24.1471C17.0576 24.1471 17.0577 22.9821 17.0496 22.9871V16.2576C17.0496 13.3734 14.8425 11.0268 12.1295 11.0268C9.41665 11.0268 7.20947 13.3734 7.20947 16.2576C7.20947 19.1419 9.41665 21.4884 12.1295 21.4884C12.8626 21.4884 13.5833 21.3131 14.2381 20.9832V24.4075C13.5447 24.6119 12.8374 24.7151 12.1295 24.7151C7.74305 24.7151 4.1744 20.9211 4.1744 16.2576C4.1744 11.5942 7.74305 7.80022 12.1295 7.80022C16.5117 7.80022 20.0776 11.5872 20.0842 16.2547V16.272C20.0843 17.318 20.0846 22.6998 20.0846 26.0349C22.6626 23.6666 24.2962 20.1679 24.2962 16.2615C24.2962 9.1285 18.8572 3.34619 12.1481 3.34619Z" fill="white"/>
<path d="M27.4336 0V24.7008H30.4385V1.16282L27.4336 0Z" fill="white"/>
<path d="M96.5779 21.4919C94.9772 21.4919 93.5567 20.6858 92.6455 19.4384L104.477 14.8599C103.874 10.7985 100.568 7.69238 96.5779 7.69238C92.1603 7.69238 88.5791 11.4998 88.5791 16.1964C88.5791 20.8928 92.1603 24.7002 96.5779 24.7002C99.3985 24.7002 101.876 23.1467 103.3 20.8019L100.342 19.6572C99.4289 20.7792 98.0829 21.4919 96.5779 21.4919ZM96.5779 10.901C98.1922 10.901 99.6212 11.7215 100.53 12.9879L91.6085 16.44C91.605 16.3586 91.5969 16.2787 91.5969 16.1964C91.597 13.2717 93.8269 10.901 96.5779 10.901Z" fill="white"/>
<path d="M74.3232 39.9996C73.8199 39.9996 73.3545 39.8981 72.927 39.6966C72.4994 39.4952 72.1296 39.2246 71.8174 38.8812C71.5035 38.5397 71.2595 38.1383 71.0837 37.679C70.9063 37.2198 70.8184 36.7377 70.8184 36.2318V36.2026C70.8184 35.6886 70.9063 35.2002 71.0837 34.7409C71.2595 34.2815 71.5035 33.8787 71.8174 33.5322C72.1297 33.1857 72.4995 32.9117 72.927 32.7102C73.3545 32.5088 73.8199 32.4072 74.3232 32.4072C74.6491 32.4072 74.9447 32.4412 75.2084 32.5055C75.4737 32.5717 75.7162 32.6636 75.936 32.7796C76.156 32.8972 76.3591 33.0357 76.544 33.1953C76.7288 33.355 76.9016 33.5225 77.0593 33.7014L76.3863 34.4605C76.1118 34.1608 75.8148 33.9029 75.4934 33.687C75.1705 33.4709 74.7763 33.363 74.3095 33.363C73.9654 33.363 73.644 33.4354 73.3438 33.5821C73.0436 33.7272 72.7844 33.9254 72.5646 34.1785C72.3432 34.4315 72.172 34.7296 72.0476 35.0713C71.9248 35.4146 71.8629 35.782 71.8629 36.1753V36.2026C71.8629 36.5975 71.9265 36.9649 72.0553 37.3066C72.1826 37.6498 72.3585 37.9496 72.5843 38.2059C72.8086 38.4637 73.0724 38.6652 73.3772 38.8119C73.6818 38.957 74.0138 39.0294 74.3762 39.0294C74.8158 39.0294 75.2069 38.9263 75.5464 38.7201C75.8845 38.5137 76.1923 38.2558 76.4651 37.9463L77.1125 38.5928C76.7699 39.0051 76.3787 39.3437 75.9421 39.6048C75.5056 39.8676 74.9658 39.9996 74.3232 39.9996Z" fill="white"/>
<path d="M78.8845 29.5679H79.9031V39.8309H78.8845V29.5679Z" fill="white"/>
<path d="M85.3908 39.9997C84.8801 39.9997 84.4071 39.8981 83.9765 39.6967C83.543 39.4953 83.1685 39.2246 82.8518 38.8813C82.5348 38.5397 82.2879 38.1416 82.112 37.6871C81.9346 37.2325 81.8467 36.7475 81.8467 36.2318V36.2026C81.8467 35.6886 81.9346 35.2002 82.112 34.7409C82.2879 34.2815 82.5349 33.8787 82.8518 33.5322C83.1685 33.1857 83.546 32.9117 83.9826 32.7102C84.4192 32.5088 84.8967 32.4072 85.4166 32.4072C85.9291 32.4072 86.402 32.5088 86.8386 32.7102C87.2752 32.9117 87.6526 33.1825 87.9694 33.5257C88.2863 33.8674 88.5333 34.2656 88.7092 34.7199C88.8865 35.1744 88.9745 35.6596 88.9745 36.1753V36.2026C88.9745 36.7185 88.8836 37.2068 88.7031 37.6661C88.5228 38.1254 88.2742 38.5282 87.9558 38.8747C87.639 39.2214 87.2601 39.4953 86.8189 39.6967C86.3778 39.8981 85.9017 39.9997 85.3908 39.9997ZM85.4166 39.0295C85.788 39.0295 86.1261 38.9538 86.4353 38.8039C86.7446 38.654 87.0084 38.4526 87.2282 38.1995C87.4496 37.9464 87.6208 37.6516 87.7452 37.3147C87.868 36.9764 87.93 36.6153 87.93 36.2318V36.2027C87.93 35.8094 87.8663 35.442 87.7375 35.1003C87.6102 34.7571 87.4313 34.4573 87.2024 34.1995C86.9735 33.9416 86.7037 33.7384 86.3959 33.5887C86.0867 33.4386 85.7517 33.363 85.3908 33.363C85.021 33.363 84.6815 33.4386 84.3723 33.5887C84.0645 33.7385 83.8022 33.9399 83.5855 34.193C83.3702 34.4461 83.2005 34.7442 83.0761 35.0859C82.9532 35.4276 82.8912 35.7918 82.8912 36.1754V36.2027C82.8912 36.5975 82.9549 36.965 83.0837 37.3067C83.211 37.6499 83.3869 37.9464 83.6128 38.1995C83.837 38.4526 84.1039 38.654 84.4117 38.8039C84.7209 38.9538 85.0559 39.0295 85.4166 39.0295Z" fill="white"/>
<path d="M93.8935 39.9996C93.3902 39.9996 92.9248 39.8981 92.4973 39.6966C92.0698 39.4952 91.7 39.2246 91.3877 38.8812C91.0739 38.5397 90.8299 38.1383 90.654 37.679C90.4765 37.2198 90.3887 36.7377 90.3887 36.2318V36.2026C90.3887 35.6886 90.4765 35.2002 90.654 34.7409C90.8298 34.2815 91.0738 33.8787 91.3877 33.5322C91.7 33.1857 92.0698 32.9117 92.4973 32.7102C92.9249 32.5088 93.3902 32.4072 93.8935 32.4072C94.2194 32.4072 94.515 32.4412 94.7787 32.5055C95.0441 32.5717 95.2866 32.6636 95.5065 32.7796C95.7263 32.8972 95.9294 33.0357 96.1144 33.1953C96.2992 33.355 96.472 33.5225 96.6298 33.7014L95.9567 34.4605C95.6824 34.1608 95.3852 33.9029 95.0638 33.687C94.741 33.4709 94.3468 33.363 93.88 33.363C93.5359 33.363 93.2144 33.4354 92.9143 33.5821C92.6141 33.7272 92.3549 33.9254 92.1351 34.1785C91.9138 34.4315 91.7425 34.7296 91.6182 35.0713C91.4954 35.4146 91.4333 35.782 91.4333 36.1753V36.2026C91.4333 36.5975 91.497 36.9649 91.6259 37.3066C91.7531 37.6498 91.929 37.9496 92.1549 38.2059C92.3793 38.4637 92.643 38.6652 92.9477 38.8119C93.2524 38.957 93.5845 39.0294 93.9467 39.0294C94.3863 39.0294 94.7774 38.9263 95.117 38.7201C95.455 38.5137 95.7628 38.2558 96.0356 37.9463L96.6829 38.5928C96.3403 39.0051 95.9492 39.3437 95.5126 39.6048C95.076 39.8676 94.5363 39.9996 93.8935 39.9996Z" fill="white"/>
<path d="M98.3623 29.5679H99.381V36.6543L103.071 32.5624H104.339L101.47 35.6841L104.432 39.8309H103.216L100.77 36.4432L99.381 37.9324V39.8309H98.3623V29.5679Z" fill="white"/>
</svg>
