<svg width="382" height="255" xmlns="http://www.w3.org/2000/svg"><path d="M262.238 201.406c-.31-.085-.518-.28-.539-.601-.016-.25.134-.362.327-.26.268.143.477.354.42.691-.01.067-.137.115-.208.17m-.518 6.266c-.29.303-.648.464-.938-.04-.19-.33-.389-.642-.837-.571-.035.021-.071.042-.106.065.015-.036.024-.07.037-.105-.913-2.03-2.515-2.895-4.742-3.056-1.148-.083-2.35-.509-3.36-1.072-.984-.549-1.794-.555-2.795-.2-1.024.364-1.405.055-1.527-1.002-.021-.19.098-.396.072-.583-.136-.972-.587-1.102-1.518-.454-.583.405-1.204.179-1.228-.474-.014-.387.072-.776.124-1.164.068-.507.533-.703.849-.56.929.421 1.886.552 2.882.586.681.022 1.122.492 1.327 1.037.536 1.422 1.678 1.734 3 1.805 1.05.058 1.936-1.165 1.56-2.16-.209-.548-.434-1.09-.639-1.64-.03-.078.02-.185.032-.279 1.383 1.128 1.383 1.128 2.803 4.33.964-.425.473-1.61 1.16-2.165.565-.103.871.312 1.222.636.31.287.564.698.23 1.013-1.385 1.311-.566 2.536.21 3.625.446.626.569 1.137.338 1.777.007.015.016.028.023.044.016-.003.03-.003.046-.004.295-.187.607-.355.857-.589.419-.39.713-.155.96.15.27.334.256.741-.042 1.05m-7.722-1.08c-.05-.06-.14-.125-.136-.181.005-.055.107-.104.167-.155l.147.184-.178.152m-85.8-13.088c-.058-.003-.112-.104-.167-.162.06-.054.123-.15.181-.148.058.002.112.104.168.163-.061.053-.123.15-.181.147m212.751-88.988c-.622-1.674-.572-3.728-2.586-4.648-.16-.073-.253-.297-.368-.457-1.016-1.417-.85-2.452.57-3.495.24-.175.494-.331.752-.48.373-.217.627-.501.45-.947-.178-.447-.364-1.1-.92-.995-1.245.234-2.638-.243-3.735.672-1.277 1.065-2.479 1.055-3.714-.069-.279-.254-.674-.42-1.045-.53-.853-.256-1.289-.872-1.574-1.643-.205-.553-.468-1.099-.575-1.672-.109-.58-.42-.808-.944-.957-1.125-.32-2.132-.794-3.443-.498-1.99.45-2.71-.168-3.483-2.215a8.943 8.943 0 00-.769-1.573c-.248-.399-.797-.434-1.018-.122-1.073 1.508-2.66 1.898-4.5 2.182-.13-1.28-.784-2.113-2.164-2.248-.373-.037-.777-.226-1.077-.46-.842-.654-1.856-1.229-1.61-2.575.064-.353-.16-.57-.49-.447-1.7.63-3.355.83-4.91-.368-1.464.25-1.857-.67-2.115-1.832-.134-.604-.51-.964-1.274-.937-2.462.093-2.464.06-2.152 2.441.013.097.057.191.067.289.082.852-.329 1.576-1.155 1.81-.865.248-1.752.456-2.399-.536-.259-.398-.899-.61-1.035-1.018-.58-1.723-2.077-2.332-3.524-2.933-.68-.282-1.137-.655-1.61-1.188-1.365-1.543-2.396-3.142-1.863-5.335.166-.685-.191-1.106-.917-1.232-.28-.048-.544-.22-.8-.36-1.256-.686-1.976-1.628-1.53-3.141.05-.167-.005-.373-.047-.553-.016-.069-.157-.178-.199-.161-1.093.42-2.514-.076-3.363.793-1.9 1.948-4.212 2.432-6.773 2.318-1.028-.045-1.963.246-2.841.735-1.545.86-3.188 1.573-4.236 3.13-.211.313-.784.223-1.006-.171-.223-.4-.202-1.171-.473-1.267-1.464-.518-2.75-2.218-4.596-.733-.458.368-1.214.184-1.462-.502-.453-1.253-1.484-2.07-2.235-3.094-.424-.578-.993-1.122-1.701-1.074-2.529.173-5.403-.81-7.175 2.087-.514.84-1.493.945-2.41.708-.771-.2-.999-.896-1.142-1.589-.059-.287-.02-.595-.08-.882-.084-.387-.232-.765-.647-.922-2.322-.877-2.736-2.831-2.971-4.966-.088-.796.157-1.105.852-1.185.49-.057.808-.388.672-.755-.285-.77-.493-1.514-.148-2.289.531-1.193-.813-1.392-1.102-2.144-.07-.18-.072-.385-.134-.569-.45-1.35-.166-2.937-1.433-4.046-.223-.195-.057-.96.094-1.407.116-.34.53-.568.745-.889.386-.574.208-1.143-.403-1.464-.722-.379-1.46-.61-2.278-.302-.458.171-.909.41-1.586.235-.323-1.614-1.296-3.154-1.019-4.999.025-.162-.412-.582-.568-.552-1.393.276-2.854-.46-4.242.599-.972.743-2.284 1.131-3.636.998-.652-.065-1.235-.27-1.346-.93-.22-1.315-.977-1.497-2.14-1.313a4.733 4.733 0 01-2.055-.156c-1.155-.354-2.228-.826-3.323.19-.244.226-.78-.047-1.046-.356-.3-.35-.16-.756.059-1.092.322-.494.693-.957 1.037-1.437.334-.467.3-.923-.108-1.319a2.755 2.755 0 00-.716-.524c-.816-.383-.89-.976-.536-1.703.172-.35.377-.685.565-1.03.456-.838.401-1.489-.152-2.41-.907-1.513-2.324-2.618-3.207-4.27.447-.13.806-.244 1.17-.339 1.43-.37 2.827-.864 4.323-.986.626-.05 1.282-.504 1.132-1.132-.307-1.286-.155-2.822-1.449-3.703-1.568-1.067-2.725-2.539-4.074-3.813-1.505-1.42-1.957-2.851-1.445-4.72.167-.61.182-1.153-.332-1.622-.514-.468-.595-1.203-1.149-1.696-.71-.634-1.72-1.113-1.82-2.227-.107-1.22-1.634-1.08-1.93-2.053-.385-1.275-1.265-1.24-2.35-1.116-.815.094-1.502.401-2.238.688-.7.273-1.336.932-2.21.565l.046.061c-.019-.006-.036-.008-.054-.013.028.195-.135.39-.196.32-.277-.323-.109-.394.196-.32-.003-.017.003-.034-.004-.051l.012.003c-.34-.43-.458-1.076-1.14-1.167-.774-.104-1.641-.442-2.31-.215-1.153.39-2.124.216-3.15-.238-.378-.167-.865-.168-1.092.17-.977 1.457-2.874 1.66-3.981 2.958-.341.399-1.1.91-1.572.615-1.205-.751-2.306-.058-3.44.001-.534.03-.983-.024-1.366-.38-1.613-1.5-3.674-1.76-5.722-2.054-.855-.123-1.265.314-1.154 1.212.07.567.74 1.312.234 1.643-1.137.743-.63 1.747-.74 2.663-.164 1.375-.83 2.397-2.138 2.968a45.93 45.93 0 00-1.883.869c-1.609.789-2.376.734-3.655-.51-.837-.814-1.724-.97-2.884-1.093-2.71-.287-5.508-.045-8.13-1.065-.308-.12-.83-.015-1.113.184-.8.561-1.57 1.134-1.894 2.187-.222.722-.785.821-1.377.28-1.2-1.1-2.48-1.542-4.052-.917a1.762 1.762 0 01-.876.118c-1.036-.162-1.517.408-1.62 1.283-.232 1.978-2.223 2.9-2.758 4.679-2.042.858-2.63 2.81-3.285 4.6-.366 1-.613 1.991-1.451 2.697-1.335 1.125-1.371 2.538-.856 4.01.542 1.546 1.59 2.937 1.323 4.722-.03.195.318.466.523.67.642.642.693 1.355.377 2.173-1.106 2.86-1.096 2.862-3.85 1.27-.17-.098-.379-.126-.552-.22-.836-.456-1.239-1.041-1.253-2.112-.026-2.14-2.124-4.152-4.14-4.244-1.64-.076-4.094.456-6.13 1.34-.66.288-1.371.344-2.02.157-.77-.22-.401-.987-.527-1.523-.062-.267-.26-.501-.432-.812-.578.265-1.131.481-1.646.767-.579.32-1.083.879-1.691 1.013-.692.151-1.103.399-1.18 1.07-.093.821-.448 1.308-1.339 1.125-.723-.147-1.373.442-1.98.299-.873-.205-.628-1.355-1.198-1.91-.603-.588-.822-1.31-.717-2.16.088-.715-.189-1.296-.694-1.86-.45-.5-.689-1.185-1.03-1.786-.471-.83-1.211-.961-1.907-.294-.426.408-.779.892-1.17 1.337-.346.395-.747.572-1.307.477-1.967-.337-3.166.707-4.037 2.295-.376.685-.741 1.376-1.111 2.065l.196-.042-.155.066c-.263-.109-.686-.162-.75-.343a17.666 17.666 0 01-.713-2.545c-.108-.546-.296-.863-.879-.988-.67-.142-1.314-.406-1.975-.597a2.076 2.076 0 00-1.446.094c-.604.26-1.002 1.232-1.742.816-.554-.314-.775-1.183-1.32-1.547-.853-.57-.472-1.692-1.196-2.257-.848.195-1.47.644-1.85 1.391-.424.828-1.108 1.39-1.914 1.79-.719.354-1.433.621-2.14-.171-.444-.5-1.056-.868-1.637-1.224-.671-.41-1.494-.01-1.446.753.079 1.232-.277 2.256-1.065 3.18-.262.308-.502.657-.945.456-.477-.216-.8-.612-.68-1.174.059-.275.274-.515.383-.784.576-1.415.4-1.825-.951-2.1-.573-.116-1.176-.027-1.714-.373-.623-.4-1.227-.378-1.953-.054-.69.308-1.52.313-2.294.43-.388.058-.788.04-1.175.103-.843.138-1.19-.056-1.276-1.04-.086-.987-1.273-1.542-1.203-2.82.083-1.49-.243-1.64-1.759-1.588-.984.033-2.062-.036-2.919.343-.91.403-1.661.53-2.519.1-.752-.378-1.664-.178-2.3-1.11-.958-1.407-2.618-1.536-4-.84-1.264.637-2.162.4-2.825-.551-.725-1.043-1.605-1.241-2.757-1.216-1.692.036-3.302-.211-4.655-1.45-.647-.593-1.528-.836-2.5-.493-1.086.381-2.137.222-3.093-.494-.187-.14-.66-.188-.802-.06-1.331 1.194-2.803.646-4.235.37-.497-.095-.955-.217-1.438-.006-1.318.578-2.617.243-3.706-.427-1.985-1.222-3.863-.728-5.628.217-1.354.726-2.648 1.265-4.199 1.071-.385-.047-.876-.119-1.16.064-.943.606-1.907.396-2.873.228a4.43 4.43 0 00-1.751.025c-.962.206-1.961.38-2.937.351-1.554-.046-2.33.746-2.902 2.05-.295.674-.392 1.298-.291 1.996.115.792-.308 1.38-.936 1.706-1.685.876-3.216 1.913-4.368 3.446-.112.15-.322.226-.486.337-.88.6-1.503.502-2.295-.362-1.298-1.414-3.277-1.932-4.951-1.228-.44.184-.87.503-1.176.866-.38.45.037.893.176 1.351.166.547.32 1.18.202 1.714a4.731 4.731 0 00.424 3.308c.227.446.412.868.299 1.398-.193.906.612 3.821.869 4.8.335 1.278 1.284 1.943 2.085 2.794.321.34.708.595.754 1.187.129 1.676 1.15 3.046 1.776 4.548.682 1.635 1.604 3.164 3.349 3.969.122.056.204.349.183.517-.018.141-.197.35-.332.372-.386.066-.791.017-1.179.076-1.485.228-1.984 1.286-1.149 2.493.715 1.035 1.498 2.009 1.936 3.221.878 2.43.167 4.674-.77 6.866-.397.932-1.18 1.537-2.34 1.52-.788-.013-1.597.06-2.364.235-1.056.24-1.918.66-2.623 1.69-.98 1.433-2.162 2.768-3.638 3.815-1.94 1.379-3.591 3.115-5.058 4.962-3.427 4.313-6.752 8.708-10.059 13.115-1.002 1.336-1.806 2.818-2.707 4.23-.354.554-.351 1.036.042 1.616 1.637 2.415 2.005 5.094 1.304 7.868-.418 1.657-.592 3.052 1.39 3.764.17.061.278.277.425.408 1.383 1.227 1.39 1.242.42 3.203l.008.016.168-.052a4.582 4.582 0 00-.155.08c-.004-.01-.01-.019-.013-.028-.007 0-.012.003-.018.005l.01-.02c-.211-.466-.603-.877-1.047-.888-1.426-.037-2.667-.391-3.723-1.399-.317-.302-.94.079-1.142.611-.273.715-.087 1.588-.83 2.144-1.96 1.467-2.341 3.746-2.923 5.88-.577 2.12-.61 4.43-2.876 5.742-1.412.818-1.824 2.262-1.924 3.804-.044.69-.12 1.376-.151 2.066-.044.981-.032.982 1.229 1.33.181.05.483.048.527.154.564 1.362 2.036 2.13 2.366 3.648.238 1.092.808 1.687 2.098 1.478 1.301-.21 1.926.86 2.509 1.752.368.565.543 1.267.746 1.926.254.824.9 1.014 1.619 1 .374-.006.754-.205 1.116-.355.847-.352 1.548-.106 2.164.493.675.656 1.145 1.374.655 2.36-.234.471-.297.907.228 1.288.525.378 1.343.702 1.582.207.525-1.088 1.437-.801 2.23-.965.724-.15 1.305-.395 1.48-1.212.103-.478.253-.96.469-1.397.23-.465.603-.743 1.193-.522.627.236 1.334.214 1.73.97.724 1.38 2.114 2.002 3.411 2.717.686.378 1.298.467 1.825-.222.351-.461.878-.538 1.339-.419 1.24.323 2.465.52 3.758.38.494-.055.929.332 1.184.784.398.703.96.99 1.725.678 1.482-.607 2.726-.381 4.149.47 1.866 1.116 4.088 1.1 5.856-.194.919-.671 1.622-.619 2.596-.705 1.86-.164 2.82.545 3.28 2.19.173.62.52 1.168 1.093 1.302 1.623.38 2.439 1.563 3.183 2.863.2.348.436.702.859.75 1.832.207 3.59.08 4.901-1.439.449-.519.909-1.072 1.186-1.688.871-1.937 2.447-2.788 4.451-2.894 2.373-.126 4.68-.948 7.093-.61.284.04.607.001.88-.094 2.255-.792 4.584-1.123 6.966-1.181.716-.02 1.504-.19 1.75-.904.495-1.43 1.84-2.283 2.322-3.734.387-1.17 1.314-1.843 2.637-2.086a26 26 0 001.986-.472c1.048-.28 1.89-.792 2.368-1.961.667-1.634.829-1.592 2.666-.831.091.037.182.079.269.125.321.168.565.02.778-.2.308-.317.34-.695.188-1.09-.198-.515-.729-.616-1.121-.897-.196-.14-.352-.54-.295-.765.059-.235.364-.498.616-.578.816-.258 1.45-.057 2.098.62 1.15 1.205 1.715 1.183 3.05.265.157-.108.272-.283.384-.443.205-.291.607-.364.745-.173.737 1.02 1.825.467 2.732.69 1.073.264 1.675-.161 2.042-1.138.153-.406.538-.622.938-.314 1.032.794 1.673.457 2.471-.47.677-.786 1.663-1.436 2.791-.36.531.505 1.285.524 1.969.228.754-.325 1.345-.078 1.893.421.575.525 1.324.837 1.687 1.622.547 1.179 1.541 1.672 2.853 1.797 1.184.113 1.174.226 1.342 1.476.141 1.055.141 1.057 1.377 1.048.28-.001.594-.145.724.266.23.735.742.831 1.395.59.46-.17.912-.395 1.388-.481.239-.043.643.1.755.287.118.198.04.574-.068.824-.113.26-.354.47-.554.689-.33.358-.3.75.047 1.002.175.128.577.076.81-.035.332-.159.61-.647.898-.637.743.026.405.688.516 1.112.12.457.378.888.628 1.299.215.353.814.293.959-.088.14-.366.176-.776.335-1.132.567-1.275 1.043-1.512 2.276-.9 1.006.5 2.031.7 3.13.8 1.048.097 1.127.288 1.305 1.517.266 1.841.814 3.447 3.109 3.552.178.009.356.165.524.27.923.563 1.666.406 2.304-.483.142-.199.505-.241.738-.344.605.43.547 1.075.683 1.625.24.974 1.072 1.873.374 2.99-.096.154.068.65.25.762.784.476.907 1 .244 1.635-.605.58-.297 1.261-.344 1.93-.086 1.235.08 2.549-1.08 3.532-.928.786-.918.91-.265 1.842.365.52.553.96.473 1.603-.09.714.399 1.038 1.082 1.102.293.03.603.176.872.116.723-.156 1 .137 1.312.778.454.933 1.265 1.65 1.568 2.726.201.716 1.215.737 1.702.135.184-.226.319-.497.455-.76.22-.426.378-1.034 1.003-.83.522.17.51.782.587 1.256.062.383.264.961.088 1.131-1.103 1.063-.358 2.24-.328 3.369.014.552-.21.937-.784 1.084-.459.117-.656.401-.467.87.19.469.421.983 1.051.722.823-.34 1.186.03 1.093.743-.147 1.133-.463 2.245-.703 3.347.794.331 1.498.686 2.241.912.526.16.913.424 1.07.913.284.88.926.882 1.66.79.464-.058 1.017-.317 1.345.217.705 1.145 1.813 2.097 1.874 3.564.072 1.684-.4 3.294-.817 4.9-.135.519-.995.776-.688 1.488.241.56.754.876 1.268 1.202.398.252.71.656 1.011 1.03.347.43 1.243.581.99 1.29-.238.668-.991.521-1.556.411-.51-.1-.939-.038-1.428.14-1.24.45-1.265.422-1.835-.451-.32-.493-.555-1.044-.912-1.505-.138-.18-.696-.314-.737-.253-.542.807-2.147.802-1.792 2.307.072.304-.23.566-.539.552-.265-.013-.643-.125-.76-.319-.412-.682-1.204-1.134-1.512-1.718-.652-1.232-1.196-1.98-2.624-1.113-.06.036-.227-.006-.28-.067-.96-1.11-1.266-.21-1.584.522-.193.444-.231.967-.746 1.215-.469-.278-.755-.714-.593-1.22a3.622 3.622 0 00.155-1.723c-.19-1.249-.677-1.516-1.799-.788-.493.32-.883.76-1.535.795-1.057.055-1.775.765-2.591 1.327-.715.492-.838 1.025-.54 1.753.57 1.393 1.026 2.781.23 4.264-.098.182.053.594.217.797.306.38.718.674 1.06 1.03.386.398.468.847.107 1.316-.301.392-.593.792-.913 1.168-.49.577-.59 1.07-.207 1.844.625 1.258.305 1.725-1.038 2.07-.191.048-.393.061-.585.109-2.944.728-2.947.73-2.634 3.665.043.403.117.875-.297 1.047-1.077.44-1.367 1.79-2.759 2.01-.95.15-1.874.992-2.45 1.924-.192.311-.394.936-.25 1.082 1.281 1.292.237 2.536.017 3.795-.063.362.14.806-.314 1.04-.654.34-.781-.344-1.159-.565-.413-.24-.954-.25-1.42-.416-1.195-.423-1.827.319-2.489 1.1-.737.873-.251 1.363.43 1.932.258.215.27.715.402 1.083.593 1.659 1.595 2.922 3.346 3.505.56.186 1.086.484 1.617.75 1.355.676 2.874.7 4.31 1.046.808.195 1.279-.228 1.48-1.004.482-1.854.524-1.871 2.247-1.022.26.128.54.22.872.354.836-1.299 2.085-2.044 3.46-2.623.546-.23 1.122-.424 1.616-.741 2.379-1.529 4.822-1.513 7.311-.345 1.727.81 2.95 2.001 2.797 4.09-.036.498-.06.97.22 1.423.181.288.82.446 1.029.173.23-.3.455-.633.574-.987.64-1.911.389-3.897.438-5.856.01-.431-.265-.737-.684-.85-.38-.104-.784-.125-1.163-.23-.585-.164-.829-.667-.487-1.068.638-.75 1.286-1.505 2.016-2.162.956-.858 1.992-1.63 3-2.43 3.8-3.01 7.757-5.854 10.494-9.97.108-.162.268-.29.405-.432 2.008-2.081 3.565-4.473 4.869-7.033.582-1.142 1.077-2.32 1.99-3.275.72-.752.86-1.745.864-2.751.003-.779-.81-1.444-.387-2.255.522-.998 1.623-.479 2.412-.809.915-.38 1.845-.728 2.781-1.053 1.7-.588 3.417-.966 5.242-.541 1.063.246 2.141.286 3.189-.22a2.148 2.148 0 012.015.071c.743.414 1.263.203 1.818-.36.538-.547 1.233-.542 1.941-.278.464.175.973.245 1.414.46.909.44 1.802.35 2.523-.242 1.262-1.04 2.31-.732 3.455.181.596.476 1.46.584 1.82 1.41.258.594.76.459 1.26.285a8.31 8.31 0 011.432-.365c.153-.025.367.13.507.254.32.285.337 1.44.016 1.94-.223.35-.575.502-1.008.5-1.09-.005-2.09-.747-3.211-.4-1.024.316-1.947.003-2.895-.322a71.185 71.185 0 00-3.397-1.043c-.855-.246-3.5-.063-4.778.296.212.223.403.45.62.649 1.358 1.248 1.36 1.217 3.735 1.165.576-.012 1.174.178 1.73.365 1.117.377 2.168.956 3.412.895.209-.01.5.29.637.515.232.387.033.755-.24 1.065-.695.788-1.63 1.082-2.63 1.236-.682.105-1.386.145-2.037.352-.455.143-.878.523-.688 1.117.161.503.52.834 1.098.81.396-.017.852.059 1.173-.11.683-.359 1.224-.496 1.814.18.232.265.686.401 1.062.47 1.74.316 2.743 1.804 4.206 2.553.226 1.388 1.46 1.439 2.442 1.76 1.781.585 3.588 1.093 5.385 1.633l-.01-.016c.44-.777.862-1.348 1.98-1.452 1.57-.145 3.108-.256 4.684-.133 1.022.08 2.184.452 2.96-.717.106-.158.572-.228.787-.14.581.242 1.167.433 1.677-.005.692-.594 1.02.882 1.809.205.436-.375.889.123.924.714.019.299.026.67.423.537.723-.242 1.114.117 1.487.617.118.158.262.297.383.453.518.67 1.302.388 1.947.458.632.069.362-.815.712-1.076.558-.414.293-1.123.673-1.556.167-.191.504-.398.707-.352.232.052.497.348.576.593.115.356.211.817.079 1.136-.374.898-.086 1.755.008 2.625.04.377.034.91.266 1.082.35.26.89.263 1.352.377-.045.75-.404 1.592-1.093 1.478-1.339-.221-2.054 1.007-3.308 1.031-1.178.024-2.04 1.079-3.013 1.752-.922.637-1.971 1.448-3.256.547-.22-.155-.642.064-.694.349-.198 1.087-1.165 1.255-1.919 1.675-1.642.915-3.494 1.595-4.693 3.065-.73.895-1.634 1.368-2.544 1.915-.847.51-1.742.939-2.595 1.439a5.887 5.887 0 00-2.08 2.076c-.583.968-.139 2.34.885 2.705 1.323.47 2.569.756 3.9-.25 1.51-1.144 3.168-.862 4.716.133 1.01.649 1.934 1.412 2.651 2.358 1.102 1.453 2.443 2.556 4.134 3.23.556-.24 1.137-.415 1.635-.723.952-.588 1.69-.223 2.418.391 2.535 2.14 2.95 5.005 2.748 8.057-.024.354-.255.778-.527 1.015-.769.67-.927 1.574-.792 2.426.385 2.436-.096 4.278-2.785 5.013-.395.109-.478.636-.164.986.996 1.109 2.064 2.131 3.661 2.29.639.064.995.364 1.374.917.91 1.333 2.089 2.299 3.913 1.715.88-.281 1.785.064 2.658-.016 1.743-.16 3.633-.134 4.566-2.091.285-.598.903-.68 1.41-.97 1.616-.919 3.106-1.988 3.682-3.914.287-.958.818-1.779 1.676-2.376 3.099-2.155 6.592-3.074 10.313-3.273.495-.026.919.221 1.365.473 1.073.608 1.533.433 2.037-.63.29-.616.226-1.615.88-1.798 1.372-.384 1.716-2.658 3.65-1.895.1.039.433-.173.432-.266-.007-.727 1.082-.951.795-1.795-.329-.964.34-1.49.994-1.928 1.207-.809 2.49-1.121 3.94-.538 1.315.53 2.55 1.132 3.276 2.402.413.724.957.904 1.733.733.578-.127 1.324.023 1.733-.29 1.115-.852 2.252-.59 3.406-.333 2.048.456 3.842-.59 5.76-.894.09-.014.167-.103.253-.152.874-.487 1.051-.843.69-1.905-.428-1.26-.385-2.42-.05-3.738.236-.927 1.28-1.272 1.207-2.247-.032-.426.306-.447.582-.478.489-.055 1 .002 1.47-.112.673-.161 1-1.006.672-1.66-.259-.515-.507-.996-1.23-1.124-1.431-.255-2.849-.607-4.253-.988-1.582-.43-3.14-.371-4.692.075-.866.25-1.53.609-1.905 1.624-.444 1.192-1.61 1.386-2.682.683-.406-.265-.712-.677-1.09-.991-.42-.349.102-1.36-.805-1.268-.664.066-.625.95-1.09 1.31-.568.442-.865 1.051-1.146 1.687-.208.469-.604.777-1.082.963-2.026.789-4.057 1.686-6.029-.135-.048-.044-.148-.031-.238-.03-.035.508.29.853.56 1.24.14.201.245.568.152.753-.146.289-.513.227-.779.081-.94-.517-1.875-1.042-2.8-1.585-.51-.298-1.003-.65-1.622-.619-1.036.054-1.61-.56-2.1-1.335-.508-.804-.527-1.168.268-1.965.548-.548.793-1.06.543-1.807-.113-.34-.191-.72.14-1.074l1.331.835c-.28-1.013-.745-1.886-1.834-2.284.001.034-.003.055-.006.079.152-.011.14.102.02.071-.016-.005-.025-.004-.039-.006-.068.127-.24-.047 0 0a.208.208 0 00.019-.065c-.02.001-.031-.003-.055.003-.1-1.549-.887-2.776-1.88-3.905-.02-.008-.035-.02-.054-.029-.5.39-.314.765.014 1.14.001-.002.002-.002.004-.002l-.001.005.022.025-.08.244c.02-.087.04-.175.058-.27l-.003-.003c-.816.078-1.746.553-2.273-.504-.603-1.21-1.645-.961-2.648-.895.004.022.01.045.012.067-.037-.001-.074-.005-.11-.008-.096.1-.188.202-.295.288-.027.022-.183-.066-.182-.069.09-.251.282-.235.476-.219l.053-.055.046-.004c-.013-.073-.029-.147-.026-.22.013-.56.68-.98.334-1.62-.346-.64-.952-.55-1.532-.59-.13-.009-.33-.201-.347-.33-.022-.165.056-.417.181-.51.224-.166.51-.267.783-.345.283-.081.627-.137.575-.49-.084-.564-.462-.444-.856-.285-.52.21-1.056.404-1.607.11l-.003.043c-.038.028-.066.057-.094.087-.062.33-.125.661-.187.997h-.007l-.001.023c-.035-.007-.06-.012-.092-.02-.608.009-.913.372-1.106.864l.001.025c.057-.005.108.064.002.044l.004.08c-.025 0-.036-.007-.056-.01-.01.027-.02.052-.028.08-.002-.036.002-.059.006-.083-.156-.03-.142-.139-.027-.096.023.008.036.01.053.015a.066.066 0 01.034-.024l.01-.03c-.05-1.073.007-1.103 1.107-.865.032 0 .06-.004.093-.003.03-.341-.072-.715.194-.997l.03-.163c.023.014.045.022.067.033.02-.753.533-1.653-.23-2.183-1.174-.816-.655-1.616-.258-2.515.311-.702.841-1.359.573-2.222-.175-.565-.369-1.223.265-1.577.645-.36 2.289.236 2.58.89.087.196-.04.666-.212.766-.58.334-1.372.087-1.904.626.193.932 1.188 1.758.38 2.84-.03.04.324.444.558.574.274.151.562.029.745-.24.207-.305.129-.81.808-.898.754 1.561 1.048 3.18.418 4.942-.227.635.115 1.025.71.803.674-.25 1.112-.275 1.39.435.35.887.597 1.84 1.58 2.3.006-.005.009-.011.016-.015l.036.043.012.006c-.232-.632-.453-1.28-.717-1.91-1.372-3.273-2.348-6.648-2.756-10.18-.18-1.558.277-2.441 1.71-2.967.645-.236 1.328-.376 2-.53.593-.136 1.162-.344 1.538-.817.789-.987 1.412-2.104 2.426-2.912.553-.442-.016-1.37.797-1.842.433.537.07 1.136.176 1.66.13.65.828.85.993 1.405.102.34.049.723.05 1.09 1.01-.161 1.106-1.185 1.644-1.787.782-.874 1.247-2.102 2.4-2.556 1.917-.755 3.22-2.195 4.635-3.575 1.496-1.459 3.31-2.472 5.404-2.914 1.456-.307 2.916.259 4.394-.081.533-.122 1.083.417 1.304 1.025.178.49.14.938-.339 1.25.72-.289 1.314-.666 1.712-1.41 1.549-2.9 4.47-3.578 7.332-4.171 1.814-.376 2.905.56 3.315 2.393.08.358.146.718.217 1.078.26-1.662 1.031-3.126 1.936-4.498a4.606 4.606 0 011.74-1.542c1.587-.773 3.196-1.492 4.72-2.395.767-.456 1.374.082 1.559 1.257l.055-.064c.49.278.95.273 1.309-.2 1.073-1.415 2.162-2.818 3.188-4.267.769-1.086 1.751-1.542 3.055-1.263 1.297.276 2.555.198 3.801-.267 1.75-.654 3.529.333 5.299-.047.17-.036.443.345.652.549.58.564 1.064.305 1.514-.17.697-.736 1.252-1.566 1.206-2.619-.052-1.199.438-1.978 1.43-2.687.872-.622.555-1.432-.556-1.792-.959-.311-1.255-.86-.584-1.365 1.068-.804 1.051-1.825 1.017-2.912-.018-.589-.153-1.175-.173-1.764-.047-1.445.869-2.556 1.95-3.05 1.002-.456 2.1-1.1 3.364-.948.95.114 1.75-.272 2.345-1.024.329-.416.693-.716 1.249-.46.796.367 1.062-.057 1.195-.738.131-.672.3-1.337.42-2.009.387-2.17 1.137-2.845 3.202-2.81.691.012 1.483-.128 2.053.153 1.48.732 2.827.475 4.3.01 1.003-.314 2.16-.465 3.025.536.11.128.434.265.506.208 1.029-.815 1.812.476 2.813.29.954-.174 1.97-.045 2.957-.004.671.029 1.095-.264 1.478-.784.93-1.26.918-2.774 1.088-4.198.09-.75-.477-1.595.881-1.633.388-.01.282-.398.27-.68-.08-1.992.931-3.569 2.15-4.967 1.003-1.152 1.112-1.136.571-2.424-.254-.608-.64-.664-1.156-.398-.396.205-.783.232-1-.195-.137-.273.05-.524.328-.696.761-.473.659-1.12.326-1.796-.772-1.562-1.645-3.07-1.573-4.926.03-.742-.634-1.173-1.37-1.358-.717-.18-1.587.205-2.188-.595.202-.547.582-1.1.574-1.648-.026-1.692 1.013-2.946 1.64-4.367.233-.532.667-.665 1.216-.43.364.155.74.286 1.113.419 1.622.577 1.63.58 2.728-.75.312-.378.622-.776.833-1.212.25-.515-.078-.976-.403-1.328-.292-.316-.698-.291-1.033.045-.208.209-.452.599-.638.575a22.186 22.186 0 01-2.857-.555c-.622-.163-.883-.739-1.15-1.28-.258-.528-.49-1.088-1.032-1.413-.42-.25-.976-.477-.759-1.071.143-.394.667-.264 1.04-.338.767-.152 1.56-.61 2.276-.504 1.445.215 1.866-.627 2.387-1.642 1.012-1.974 2.579-3.407 4.652-4.261.45-.186.613-.561.471-.942" stroke="#32344D" stroke-width="2" fill="none" fill-rule="evenodd"/></svg>