<svg width="70" height="50" viewBox="0 0 70 50" fill="none" xmlns="http://www.w3.org/2000/svg">
<path d="M12.3557 20.7207C11.6628 22.0721 11.3164 23.0856 11.3164 23.7613C11.3164 24.3619 11.5473 24.6622 12.0092 24.6622C12.4711 24.6622 12.856 24.512 13.164 24.2117C13.5489 23.9114 13.9723 23.5736 14.4342 23.1982C15.7429 22.2222 17.2825 21.7342 19.0531 21.7342C20.8237 21.7342 22.4403 21.997 23.903 22.5225C25.3657 23.048 26.7514 23.8739 28.0601 25C30.9854 27.6276 32.448 30.5931 32.448 33.8964C32.448 37.1997 31.9862 39.7898 31.0624 41.6667C30.1386 43.4685 28.9069 44.97 27.3672 46.1712C24.3649 48.7237 21.4011 50 18.4758 50C15.5504 50 13.0485 49.6622 10.97 48.9865C8.96844 48.3108 7.15936 47.2598 5.54273 45.8333C1.84758 42.6051 0 38.476 0 33.4459C0 28.4159 0.769823 24.2492 2.30947 20.9459C3.84912 17.6426 5.88915 14.7147 8.42956 12.1622C12.4326 7.95796 18.5142 3.9039 26.6744 0L30.9469 6.86937C21.4781 10.2477 15.281 14.8649 12.3557 20.7207Z" fill="#32344D"/>
<path d="M49.9075 20.7207C49.2147 22.0721 48.8683 23.0856 48.8683 23.7613C48.8683 24.3619 49.0992 24.6622 49.5611 24.6622C50.023 24.6622 50.4079 24.512 50.7159 24.2117C51.1008 23.9114 51.5242 23.5736 51.9861 23.1982C53.2948 22.2222 54.8344 21.7342 56.605 21.7342C58.3756 21.7342 59.9922 21.997 61.4549 22.5225C62.9176 23.048 64.3032 23.8739 65.6119 25C68.5373 27.6276 69.9999 30.5931 69.9999 33.8964C69.9999 37.1997 69.538 39.7898 68.6142 41.6667C67.6905 43.4685 66.4587 44.97 64.9191 46.1712C61.9168 48.7237 58.953 50 56.0276 50C53.1023 50 50.6004 49.6622 48.5219 48.9865C46.5203 48.3108 44.7112 47.2598 43.0946 45.8333C39.3995 42.6051 37.5519 38.476 37.5519 33.4459C37.5519 28.4159 38.3217 24.2492 39.8613 20.9459C41.401 17.6426 43.441 14.7147 45.9814 12.1622C49.9845 7.95796 56.0661 3.9039 64.2263 0L68.4988 6.86937C59.0299 10.2477 52.8329 14.8649 49.9075 20.7207Z" fill="#32344D"/>
</svg>
