<svg xmlns="http://www.w3.org/2000/svg" xmlns:xlink="http://www.w3.org/1999/xlink" viewBox="0 0 226.17 177.71"><defs><style>.cls-1{fill:#ffe336;}.cls-2{fill:url(#Безымянный_градиент_136);}</style><radialGradient id="Безымянный_градиент_136" cx="167.17" cy="24.21" r="197.23" gradientTransform="matrix(-0.74, 0.68, -0.62, -0.68, 305.38, -72.41)" gradientUnits="userSpaceOnUse"><stop offset="0" stop-color="#9d60fd" stop-opacity="0"/><stop offset="0.07" stop-color="#9d60fd" stop-opacity="0.01"/><stop offset="0.14" stop-color="#9d60fd" stop-opacity="0.06"/><stop offset="0.2" stop-color="#9d60fd" stop-opacity="0.13"/><stop offset="0.25" stop-color="#9d60fd" stop-opacity="0.23"/><stop offset="0.31" stop-color="#9d60fd" stop-opacity="0.36"/><stop offset="0.36" stop-color="#9d60fd" stop-opacity="0.51"/><stop offset="0.39" stop-color="#9d60fd" stop-opacity="0.6"/><stop offset="0.48" stop-color="#8676fd" stop-opacity="0.69"/><stop offset="0.65" stop-color="#6198fe" stop-opacity="0.82"/><stop offset="0.8" stop-color="#47b0fe" stop-opacity="0.92"/><stop offset="0.92" stop-color="#37c0fe" stop-opacity="0.98"/><stop offset="1" stop-color="#31c5fe"/></radialGradient></defs><title>Ресурс 1NEW</title><g id="Слой_2" data-name="Слой 2"><g id="Слой_1-2" data-name="Слой 1"><path class="cls-1" d="M147.5,79.41a46.94,46.94,0,0,0-31.39,31.39,2.37,2.37,0,0,1-4.64,0A46.91,46.91,0,0,0,80.13,79.41a2.37,2.37,0,0,1,0-4.63A46.93,46.93,0,0,0,111.5,43.39a2.37,2.37,0,0,1,4.64,0A47,47,0,0,0,147.5,74.78C150,75.13,150,78.7,147.5,79.41Z"/><path class="cls-2" d="M223.61,118.69,189.2,92.43A77.21,77.21,0,1,0,36.29,77.21a77,77,0,0,0,1.47,15L2.56,119a6.5,6.5,0,0,0,1.77,11.3L31.61,140l4.45,32.08a6.49,6.49,0,0,0,4,5.15,6.39,6.39,0,0,0,2.39.46,6.49,6.49,0,0,0,4.08-1.44L82.05,147.7a76.95,76.95,0,0,0,62.65.11l34.89,28.11a6.5,6.5,0,0,0,10.51-4.17l4.46-32.09L221.84,130a6.5,6.5,0,0,0,1.77-11.29ZM47.36,159l-3.42-24.63a6.52,6.52,0,0,0-4.27-5.24L20,122.1l21.71-16.57a77.55,77.55,0,0,0,28.15,35.31Zm1.93-81.74a64.21,64.21,0,1,1,64.21,64.21A64.28,64.28,0,0,1,49.29,77.21Zm137.2,51.52a6.5,6.5,0,0,0-4.26,5.23l-3.42,24.64L157,141a77.59,77.59,0,0,0,28.27-35.24l21,16Z"/></g></g></svg>