<svg width="41" height="40" viewBox="0 0 41 40" fill="none" xmlns="http://www.w3.org/2000/svg">
<path fill-rule="evenodd" clip-rule="evenodd" d="M29.3112 5.00011L21.7121 20.6272C21.6927 20.6664 21.6736 20.7057 21.6547 20.7451L21.3687 21.3334H21.3967C20.9421 22.4687 20.6924 23.7057 20.6924 25C20.6924 30.5229 25.2384 35 30.8462 35C36.454 35 41.0001 30.5229 41.0001 25C41.0001 20.8403 38.4212 17.2738 34.7521 15.7667C34.4003 15.5645 33.9261 15.2163 33.5541 14.6667C32.9516 13.7766 33.4218 11.8299 33.5323 11.413L36.261 5.00011L29.3112 5.00011Z" fill="url(#paint0_linear)"/>
<mask id="path-2-outside-1" maskUnits="userSpaceOnUse" x="0" y="0" width="31" height="40" fill="black">
<rect fill="white" width="31" height="40"/>
<path fill-rule="evenodd" clip-rule="evenodd" d="M13.6196 5L6.31613 19.8996C6.22008 20.0956 6.14403 20.2943 6.08683 20.4939C5.39164 21.848 5 23.3789 5 24.9999C5 30.5228 9.54603 34.9999 15.1538 34.9999C20.7617 34.9999 25.3077 30.5228 25.3077 24.9999C25.3077 20.7324 22.5933 17.0892 18.7721 15.6535C18.3315 15.415 17.8026 15.0495 17.4614 14.5454C17.076 13.976 17.2791 12.8762 17.5255 12.0345L17.7461 11.4098L20.5694 5H13.6196Z"/>
</mask>
<path fill-rule="evenodd" clip-rule="evenodd" d="M13.6196 5L6.31613 19.8996C6.22008 20.0956 6.14403 20.2943 6.08683 20.4939C5.39164 21.848 5 23.3789 5 24.9999C5 30.5228 9.54603 34.9999 15.1538 34.9999C20.7617 34.9999 25.3077 30.5228 25.3077 24.9999C25.3077 20.7324 22.5933 17.0892 18.7721 15.6535C18.3315 15.415 17.8026 15.0495 17.4614 14.5454C17.076 13.976 17.2791 12.8762 17.5255 12.0345L17.7461 11.4098L20.5694 5H13.6196Z" fill="url(#paint1_linear)"/>
<path d="M6.31613 19.8996L10.6697 22.0337L10.6697 22.0337L6.31613 19.8996ZM13.6196 5V0.151515H10.5966L9.26605 2.86596L13.6196 5ZM6.08683 20.4939L10.4001 22.7083L10.6169 22.2859L10.7477 21.8295L6.08683 20.4939ZM18.7721 15.6535L16.4639 19.9173L16.756 20.0755L17.0669 20.1923L18.7721 15.6535ZM17.4614 14.5454L13.4463 17.2633L13.4463 17.2633L17.4614 14.5454ZM17.5255 12.0345L12.9537 10.42L12.9095 10.545L12.8723 10.6723L17.5255 12.0345ZM17.7461 11.4098L13.309 9.45541L13.2352 9.62279L13.1743 9.79524L17.7461 11.4098ZM20.5694 5L25.0065 6.9544L28.0029 0.151515L20.5694 0.151515V5ZM10.6697 22.0337L17.9732 7.13404L9.26605 2.86596L1.96255 17.7656L10.6697 22.0337ZM10.7477 21.8295C10.7259 21.9056 10.699 21.974 10.6697 22.0337L1.96255 17.7656C1.74121 18.2171 1.56215 18.6829 1.42594 19.1582L10.7477 21.8295ZM9.84848 24.9999C9.84848 24.169 10.0474 23.3952 10.4001 22.7083L1.77357 18.2795C0.735865 20.3007 0.151515 22.5888 0.151515 24.9999H9.84848ZM15.1538 30.1514C12.1537 30.1514 9.84848 27.7755 9.84848 24.9999H0.151515C0.151515 33.27 6.93836 39.8484 15.1538 39.8484V30.1514ZM20.4592 24.9999C20.4592 27.7755 18.154 30.1514 15.1538 30.1514V39.8484C23.3693 39.8484 30.1562 33.27 30.1562 24.9999H20.4592ZM17.0669 20.1923C19.0945 20.954 20.4592 22.8544 20.4592 24.9999H30.1562C30.1562 18.6104 26.0921 13.2243 20.4773 11.1148L17.0669 20.1923ZM13.4463 17.2633C14.4219 18.7046 15.7366 19.5236 16.4639 19.9173L21.0803 11.3897C21.0475 11.372 21.0616 11.3757 21.1107 11.415C21.155 11.4504 21.3079 11.5785 21.4765 11.8275L13.4463 17.2633ZM12.8723 10.6723C12.7036 11.2484 12.4903 12.1012 12.4212 13.0343C12.3666 13.7728 12.3073 15.5808 13.4463 17.2633L21.4765 11.8275C21.8907 12.4395 22.0187 12.9952 22.0621 13.2677C22.1069 13.5486 22.0935 13.7268 22.0918 13.7499C22.0895 13.7803 22.1009 13.6623 22.1787 13.3967L12.8723 10.6723ZM13.1743 9.79524L12.9537 10.42L22.0972 13.6491L22.3178 13.0244L13.1743 9.79524ZM16.1322 3.0456L13.309 9.45541L22.1832 13.3642L25.0065 6.9544L16.1322 3.0456ZM13.6196 9.84848H20.5694V0.151515H13.6196V9.84848Z" mask="url(#path-2-outside-1)"/>
<defs>
<linearGradient id="paint0_linear" x1="21.2001" y1="8.37514" x2="42.4727" y2="10.2817" gradientUnits="userSpaceOnUse">
<stop stop-color="#E7A28F"/>
<stop offset="0.411458" stop-color="#F9D6AC"/>
<stop offset="1" stop-color="#FBFEFC"/>
</linearGradient>
<linearGradient id="paint1_linear" x1="5.50769" y1="8.37503" x2="26.7803" y2="10.2816" gradientUnits="userSpaceOnUse">
<stop stop-color="#E7A28F"/>
<stop offset="0.411458" stop-color="#F9D6AC"/>
<stop offset="1" stop-color="#FBFEFC"/>
</linearGradient>
</defs>
</svg>
