<svg width="70" height="50" fill="none" xmlns="http://www.w3.org/2000/svg"><path d="M12.356 20.72c-.693 1.352-1.04 2.366-1.04 3.041 0 .6.231.901.693.901.462 0 .847-.15 1.155-.45.385-.3.808-.638 1.27-1.014 1.309-.976 2.848-1.464 4.62-1.464 1.77 0 3.386.263 4.849.788 1.463.526 2.848 1.352 4.157 2.478 2.925 2.628 4.388 5.593 4.388 8.896 0 3.304-.462 5.894-1.386 7.77-.923 1.803-2.155 3.304-3.695 4.505C24.365 48.724 21.401 50 18.476 50c-2.926 0-5.427-.338-7.506-1.014a15.744 15.744 0 01-5.427-3.153C1.848 42.605 0 38.476 0 33.446s.77-9.197 2.31-12.5a30.789 30.789 0 016.12-8.784C12.433 7.958 18.514 3.904 26.674 0l4.273 6.87c-9.469 3.378-15.666 7.995-18.591 13.85zM49.907 20.72c-.692 1.352-1.039 2.366-1.039 3.041 0 .6.231.901.693.901.462 0 .847-.15 1.155-.45.385-.3.808-.638 1.27-1.014 1.309-.976 2.848-1.464 4.619-1.464 1.77 0 3.387.263 4.85.788 1.463.526 2.848 1.352 4.157 2.478C68.537 27.628 70 30.593 70 33.896c0 3.304-.462 5.894-1.386 7.77-.924 1.803-2.155 3.304-3.695 4.505C61.917 48.724 58.953 50 56.028 50c-2.926 0-5.428-.338-7.506-1.014a15.744 15.744 0 01-5.427-3.153c-3.695-3.228-5.543-7.357-5.543-12.387s.77-9.197 2.31-12.5a30.79 30.79 0 016.12-8.784C49.983 7.958 56.065 3.904 64.225 0L68.5 6.87c-9.47 3.378-15.666 7.995-18.591 13.85z" fill="#32344D"/></svg>