<svg width="81" height="18" viewBox="0 0 81 18" fill="none" xmlns="http://www.w3.org/2000/svg">
<path fill-rule="evenodd" clip-rule="evenodd" d="M5.60281 0.0781505L0.631348 13.7221H3.54058L4.5717 10.6838H9.48792L10.4822 13.7221H13.4835L8.56728 0.0781505H5.60281ZM7.03905 3.44181H7.07588L8.73304 8.44816H5.32666L7.03905 3.44181ZM16.8143 3.84278V5.21864H16.8696C17.201 4.64536 17.6306 4.22841 18.1585 3.96699C18.6861 3.70609 19.2264 3.57525 19.7788 3.57525C20.4785 3.57525 21.0521 3.67398 21.5004 3.87144C21.9485 4.06917 22.3014 4.3428 22.5592 4.69314C22.8169 5.04374 22.998 5.47025 23.1023 5.97346C23.2064 6.47693 23.2588 7.03402 23.2588 7.64551V13.7223H20.6442V8.14235C20.6442 7.32729 20.5215 6.71872 20.276 6.31742C20.0302 5.91613 19.5947 5.71548 18.9686 5.71548C18.2567 5.71548 17.7411 5.93524 17.422 6.37475C17.1026 6.81426 16.9432 7.53749 16.9432 8.54365V13.7223H14.3286V3.84278H16.8143ZM30.4156 11.1616C30.698 11.0088 30.9312 10.8052 31.1153 10.5501C31.2994 10.2953 31.4375 10.0055 31.5296 9.68067C31.6217 9.35581 31.6677 9.01503 31.6677 8.65832C31.6677 8.25066 31.6309 7.86529 31.5572 7.50221C31.4836 7.13914 31.3606 6.81746 31.189 6.5372C31.0169 6.25719 30.7898 6.03399 30.5077 5.86837C30.2251 5.70302 29.8691 5.61995 29.4397 5.61995C29.0715 5.61995 28.7551 5.69639 28.4915 5.84926C28.2273 6.00214 28.0064 6.20942 27.8286 6.47031C27.6504 6.73147 27.5217 7.03112 27.4419 7.36845C27.3619 7.70604 27.3223 8.05957 27.3223 8.42901C27.3223 8.78572 27.356 9.13924 27.4235 9.48957C27.4908 9.84017 27.6077 10.1552 27.7734 10.4355C27.9391 10.7157 28.1567 10.9451 28.427 11.1234C28.6968 11.302 29.0347 11.3909 29.4397 11.3909C29.808 11.3909 30.133 11.3145 30.4156 11.1616ZM33.9973 14.4484C33.8929 14.958 33.6687 15.4325 33.3252 15.872C32.9813 16.3113 32.4841 16.6842 31.8338 16.9899C31.1829 17.2957 30.3114 17.4486 29.2192 17.4486C28.7524 17.4486 28.2768 17.388 27.7922 17.267C27.307 17.146 26.8651 16.9578 26.4664 16.7033C26.0675 16.4482 25.7361 16.1207 25.4721 15.7192C25.208 15.3179 25.0579 14.837 25.021 14.2762H27.6172C27.7397 14.7857 27.9791 15.1393 28.3353 15.3367C28.6911 15.5344 29.1023 15.6334 29.569 15.6334C30.3055 15.6334 30.8423 15.4036 31.1801 14.9452C31.5177 14.4866 31.6801 13.9067 31.6681 13.2063V11.9069H31.6312C31.3486 12.4295 30.9469 12.8146 30.4252 13.063C29.9032 13.3117 29.3542 13.4353 28.7772 13.4353C28.0653 13.4353 27.4515 13.305 26.936 13.0439C26.4204 12.7827 25.9969 12.426 25.6655 11.9738C25.334 11.5218 25.0916 10.9928 24.9382 10.3877C24.7845 9.78283 24.708 9.14267 24.708 8.46721C24.708 7.83024 24.7967 7.21556 24.975 6.62317C25.1527 6.03078 25.4136 5.50846 25.7575 5.05621C26.101 4.60396 26.5276 4.24407 27.0372 3.97654C27.5464 3.70901 28.1328 3.57525 28.7957 3.57525C29.4217 3.57525 29.9708 3.69654 30.4436 3.93832C30.9159 4.18037 31.3118 4.58804 31.6312 5.16131H31.6681V3.84278H34.1538V13.0916C34.1538 13.4868 34.1014 13.9388 33.9973 14.4484ZM41.7814 6.15501C41.4681 5.79857 40.9924 5.61995 40.3544 5.61995C39.9367 5.61995 39.5902 5.69347 39.314 5.83971C39.0376 5.98648 38.8169 6.16775 38.6512 6.38432C38.4852 6.60116 38.3686 6.83047 38.3013 7.07225C38.2336 7.31457 38.1937 7.53088 38.1816 7.72197H42.435C42.3123 7.03404 42.0944 6.51198 41.7814 6.15501ZM38.8262 11.3527C39.219 11.7479 39.7839 11.9451 40.5204 11.9451C41.048 11.9451 41.5022 11.8084 41.883 11.5342C42.2633 11.2606 42.4965 10.9705 42.5827 10.6648H44.8843C44.5158 11.8495 43.9511 12.6967 43.1903 13.2063C42.429 13.7159 41.5086 13.9707 40.4284 13.9707C39.6793 13.9707 39.0042 13.8465 38.403 13.5983C37.8015 13.3496 37.2918 12.9961 36.8747 12.5377C36.4571 12.0789 36.1349 11.5313 35.908 10.8941C35.6807 10.2574 35.5674 9.55644 35.5674 8.79207C35.5674 8.05344 35.6837 7.36551 35.9172 6.72827C36.1502 6.09156 36.4816 5.54058 36.9115 5.07532C37.3409 4.6106 37.8534 4.24407 38.449 3.97654C39.0441 3.70901 39.7039 3.57525 40.4284 3.57525C41.2385 3.57525 41.9441 3.73768 42.5458 4.06253C43.1471 4.38739 43.6412 4.82398 44.0278 5.37152C44.4148 5.91958 44.6938 6.54381 44.8661 7.24422C45.0375 7.94516 45.0988 8.67741 45.0497 9.44178H38.182C38.2188 10.3208 38.4334 10.958 38.8262 11.3527ZM46.4415 13.7221H49.0561V0.078125H46.4415V13.7221ZM54.0317 0.078125V11.1997H60.4391V13.7221H51.1406V0.078125H54.0317ZM61.521 13.7221H64.1359V3.84263H61.521V13.7221ZM61.521 2.31391H64.1359V0.078125H61.521V2.31391ZM68.2144 11.2667C68.3307 11.4769 68.4816 11.6489 68.6655 11.7827C68.8496 11.9164 69.0616 12.0152 69.3007 12.0789C69.5401 12.1428 69.7887 12.1744 70.0464 12.1744C70.2308 12.1744 70.4242 12.1524 70.6264 12.1075C70.8292 12.0629 71.0129 11.9929 71.1788 11.8973C71.3446 11.8018 71.4829 11.6746 71.5934 11.5151C71.7039 11.3559 71.7586 11.1555 71.7586 10.9132C71.7586 10.5055 71.498 10.1998 70.9765 9.99595C70.4546 9.79238 69.7273 9.58829 68.7944 9.38445C68.4136 9.29554 68.0425 9.19044 67.6804 9.06915C67.3183 8.94813 66.996 8.78915 66.714 8.59142C66.4311 8.39396 66.2046 8.14554 66.0327 7.84616C65.8603 7.54705 65.7749 7.18052 65.7749 6.74738C65.7749 6.11041 65.8943 5.58809 66.134 5.18042C66.3733 4.77276 66.6889 4.45135 67.082 4.21541C67.4745 3.97973 67.9167 3.81411 68.4077 3.71857C68.8987 3.62302 69.4023 3.57525 69.9176 3.57525C70.4331 3.57525 70.9331 3.62621 71.4179 3.72812C71.9031 3.83004 72.3355 4.00229 72.7163 4.24407C73.0968 4.48612 73.4129 4.80779 73.6646 5.20909C73.916 5.61038 74.0668 6.11678 74.1157 6.72827H71.6297C71.5934 6.20595 71.4026 5.85243 71.0594 5.66771C70.7152 5.48299 70.3101 5.39062 69.8442 5.39062C69.6969 5.39062 69.537 5.40018 69.3652 5.41929C69.1933 5.4384 69.0366 5.4798 68.8956 5.5435C68.7542 5.60746 68.635 5.69956 68.5366 5.82058C68.4381 5.94187 68.3893 6.1043 68.3893 6.30787C68.3893 6.55018 68.4752 6.74738 68.6468 6.90025C68.8187 7.05313 69.0429 7.17734 69.3191 7.27288C69.5953 7.36843 69.9112 7.45442 70.2671 7.53086C70.6234 7.6073 70.9855 7.69037 71.3535 7.77928C71.7343 7.86846 72.1059 7.97674 72.468 8.10414C72.8296 8.23153 73.1518 8.40033 73.4344 8.61053C73.7167 8.82073 73.9438 9.08216 74.1157 9.39401C74.2875 9.70639 74.3735 10.0915 74.3735 10.5501C74.3735 11.1998 74.2476 11.7444 73.9957 12.184C73.7441 12.6235 73.416 12.977 73.0109 13.2448C72.6058 13.512 72.1422 13.7002 71.6207 13.8082C71.0988 13.9165 70.5679 13.9707 70.028 13.9707C69.4756 13.9707 68.9355 13.9133 68.4077 13.799C67.8796 13.684 67.4101 13.4929 66.9991 13.2254C66.5876 12.9581 66.2503 12.6046 65.9867 12.1648C65.7225 11.7253 65.578 11.1744 65.5537 10.5119H68.0394C68.0394 10.8052 68.0975 11.0565 68.2144 11.2667ZM81.0003 3.84278V5.65816H79.0853V10.5501C79.0853 11.0087 79.1592 11.3145 79.3065 11.4674C79.4538 11.6202 79.7485 11.6967 80.1901 11.6967C80.3374 11.6967 80.4783 11.6903 80.6136 11.6776C80.7486 11.6651 80.8775 11.646 81.0003 11.6202V13.7223C80.7796 13.7605 80.5338 13.786 80.264 13.799C79.9937 13.8114 79.73 13.8178 79.4723 13.8178C79.0672 13.8178 78.6831 13.7891 78.3215 13.7321C77.9588 13.6745 77.6402 13.563 77.364 13.3974C77.0878 13.2321 76.8697 12.9961 76.7103 12.6904C76.5505 12.3846 76.471 11.9833 76.471 11.4865V5.65816H74.8872V3.84278H76.471V0.880853H79.0853V3.84278H81.0003Z" fill="#80808E"/>
</svg>
