<svg xmlns="http://www.w3.org/2000/svg" width="18" height="18" viewBox="0 0 18 18">
  <metadata><?xpacket begin="﻿" id="W5M0MpCehiHzreSzNTczkc9d"?>
<x:xmpmeta xmlns:x="adobe:ns:meta/" x:xmptk="Adobe XMP Core 5.6-c138 79.159824, 2016/09/14-01:09:01        ">
   <rdf:RDF xmlns:rdf="http://www.w3.org/1999/02/22-rdf-syntax-ns#">
      <rdf:Description rdf:about=""/>
   </rdf:RDF>
</x:xmpmeta>
                                                                                                    
                                                                                                    
                                                                                                    
                                                                                                    
                                                                                                    
                                                                                                    
                                                                                                    
                                                                                                    
                                                                                                    
                                                                                                    
                                                                                                    
                                                                                                    
                                                                                                    
                                                                                                    
                                                                                                    
                                                                                                    
                                                                                                    
                                                                                                    
                                                                                                    
                                                                                                    
                           
<?xpacket end="w"?></metadata>
<defs>
    <style>
      .cls-1 {
        fill: #fff;
        fill-rule: evenodd;
      }
    </style>
  </defs>
  <path id="dribbble_logo" class="cls-1" d="M1132.95,792.152a10.233,10.233,0,0,1-4.29,3.03q0.27,0.549.51,1.114c0.05,0.132.11,0.263,0.16,0.395a18.04,18.04,0,0,1,5.36.248A7.67,7.67,0,0,0,1132.95,792.152Zm-7.75-2.613a41.427,41.427,0,0,1,2.87,4.5,8.735,8.735,0,0,0,4.03-2.776A7.687,7.687,0,0,0,1125.2,789.539Zm-5.73,5.9a28.669,28.669,0,0,0,7.11-.937,48.859,48.859,0,0,0-2.85-4.444A7.723,7.723,0,0,0,1119.47,795.438Zm1.82,6.712a12.159,12.159,0,0,1,6.25-5.071c0.1-.033.2-0.063,0.3-0.091-0.19-.437-0.4-0.874-0.62-1.3a28.48,28.48,0,0,1-7.9,1.093,1.832,1.832,0,0,0-.01.234A7.644,7.644,0,0,0,1121.29,802.15Zm8.71,1.937a31.5,31.5,0,0,0-1.64-5.829,0.378,0.378,0,0,1-.05.018,10.565,10.565,0,0,0-6.03,4.8A7.673,7.673,0,0,0,1130,804.087Zm4.59-5.855a11.29,11.29,0,0,0-4.79-.329,33.136,33.136,0,0,1,1.5,5.48A7.7,7.7,0,0,0,1134.59,798.232ZM1127,806a9,9,0,1,1,9-9A9.011,9.011,0,0,1,1127,806Z" transform="translate(-1118 -788)"/>
</svg>
