<svg width="69" height="37" viewBox="0 0 69 37" fill="none" xmlns="http://www.w3.org/2000/svg">
<path fill-rule="evenodd" clip-rule="evenodd" d="M0.356934 0V37H36.9089V32.3351H34.6042V34.6681H2.66063V2.33396H34.6042V21.3146H36.9089V0H0.356934ZM8.38721 31.1906H10.6929V22.4565H8.38721V31.1906ZM16.6207 26.4997V22.4568H18.8193V31.1909H16.7018L14.0598 26.6526H14.0228V31.1909H11.8362V22.4568H14.257L16.5867 26.4997H16.6207ZM19.9719 22.4575H22.834C25.5821 22.4575 26.898 23.2112 26.898 26.8175C26.898 30.4947 25.6051 31.1906 22.8701 31.1906H19.9719V22.4575ZM22.2766 29.1737V24.5787H22.9851C23.9649 24.5787 24.5573 24.6375 24.5573 26.8286C24.5573 29.0339 23.9418 29.1737 23.0782 29.1737H22.2766ZM27.7234 31.1906H30.0271V22.4565H27.7234V31.1906ZM49.0711 22.3521C45.8587 22.3521 45.2883 24.4825 45.2883 26.8286C45.2883 29.1626 45.8587 31.296 49.0711 31.296C52.2735 31.296 52.8439 29.1626 52.8439 26.8286C52.8439 24.4825 52.2855 22.3521 49.0711 22.3521ZM47.6282 26.9117C47.6282 28.3492 47.8023 29.2335 49.0712 29.2335C50.3292 29.2335 50.5053 28.3492 50.5053 26.9117C50.5053 25.4854 50.3292 24.6031 49.0712 24.6031C47.8023 24.6031 47.6282 25.4854 47.6282 26.9117ZM65.2311 22.3521C62.0167 22.3521 61.4463 24.4825 61.4463 26.8286C61.4463 29.1626 62.0167 31.296 65.2311 31.296C68.4314 31.296 68.9999 29.1626 68.9999 26.8286C68.9999 24.4825 68.4415 22.3521 65.2311 22.3521ZM63.7861 26.9117C63.7861 28.3492 63.9603 29.2335 65.2312 29.2335C66.4861 29.2335 66.6613 28.3492 66.6613 26.9117C66.6613 25.4854 66.4861 24.6031 65.2312 24.6031C63.9603 24.6031 63.7861 25.4854 63.7861 26.9117ZM41.0403 31.296C38.2112 31.296 37.5137 29.4685 37.5137 26.8286C37.5137 23.8017 38.4684 22.3521 41.4476 22.3521C42.5184 22.3521 43.4741 22.6338 44.1256 23.0582L42.8916 25.0022C42.4953 24.7793 42.018 24.603 41.3435 24.603C40.4348 24.603 39.8304 24.8502 39.8304 26.9005C39.8304 28.8688 40.1906 29.3631 41.2494 29.3631C42.3564 29.3631 42.3561 28.9597 42.3553 28.0463L42.3552 27.9713V27.8183H40.8691L41.1243 25.922H44.4628V31.1906H42.3432C41.971 31.2615 41.5426 31.296 41.0403 31.296ZM53.6697 26.8286C53.6697 29.4685 54.3692 31.296 57.1983 31.296C57.6987 31.296 58.129 31.2615 58.4992 31.1906H60.6208V25.922H57.2803L57.0262 27.8183H58.5133V27.9713L58.5133 28.0419C58.514 28.9584 58.5143 29.3631 57.4084 29.3631C56.3477 29.3631 55.9864 28.8688 55.9864 26.9005C55.9864 24.8502 56.5918 24.603 57.4995 24.603C58.176 24.603 58.6534 24.7793 59.0486 25.0022L60.2836 23.0582C59.6301 22.6338 58.6754 22.3521 57.6056 22.3521C54.6244 22.3521 53.6697 23.8017 53.6697 26.8286ZM31.1804 31.1909V22.4568H36.9066V24.5901H33.4371V25.7348H35.993L35.7148 27.8054H33.4371V29.1152H36.9066V31.1909H31.1804Z" fill="#80808E"/>
</svg>
