<svg width="134" height="12" viewBox="0 0 134 12" fill="none" xmlns="http://www.w3.org/2000/svg">
<path id="jackandjones" fill-rule="evenodd" clip-rule="evenodd" d="M40.097 5.26465L38.4699 11.0182H35.1974L38.2545 0.195312H41.5278L40.1853 4.95032L40.097 5.26465ZM40.8231 4.96631L45.9046 0.195312H49.7235L44.3627 4.96405L46.9898 11.0182H42.9905L40.8231 4.96631ZM3.72673 6.64844C3.70858 6.71283 3.67034 6.8139 3.62285 6.93939C3.33986 7.68738 2.72878 9.30237 4.08823 9.18958C5.26025 9.09143 5.56239 8.13934 5.72297 7.57086L7.77628 0.299011H11.0503L9.02516 7.46582C8.89807 7.91486 8.46884 9.26416 7.4985 10.0732C6.17808 11.1516 4.55399 11.3616 3.47483 11.3616C2.08743 11.3616 0.676445 11.0496 0.132294 9.89435C-0.201046 9.18958 0.161975 7.47266 0.489227 6.64844H3.72673ZM72.5174 6.64844C72.4993 6.7121 72.4615 6.81165 72.4147 6.93518C72.1318 7.68121 71.5169 9.30255 72.8789 9.18958C74.0502 9.09143 74.3531 8.13934 74.5129 7.57086L76.5662 0.299011H79.8403L77.8151 7.46582C77.6888 7.91486 77.2588 9.26416 76.2884 10.0732C74.9688 11.1516 73.3455 11.3616 72.264 11.3616C70.8781 11.3616 69.4664 11.0496 68.9222 9.89435C68.5889 9.18958 68.9527 7.47266 69.2792 6.64844H72.5174ZM14.7728 6.95654L17.6693 2.41461H17.718L17.9334 6.95654H14.7728ZM8.8244 11.1218H12.049L13.4531 8.94818H18.113L18.304 11.1218H21.9495L20.4099 0.298889H16.4775L8.8244 11.1218ZM32.0644 3.70428C32.228 2.6076 31.521 2.20575 30.5993 2.20575C28.6488 2.20575 27.5802 3.86938 27.0209 5.84583C26.8352 6.50647 26.0802 9.23254 28.578 9.23254C30.2888 9.23254 30.7942 8.08032 30.9768 7.66174H34.3315C33.3581 11.0491 29.5689 11.3315 28.0521 11.3315C26.9227 11.3315 24.9767 11.1511 24.0398 9.89465C23.1228 8.63586 23.3838 6.91132 23.7019 5.78571C24.1205 4.30322 24.9112 2.81995 26.3336 1.66388C27.8824 0.404358 29.5072 0.0770874 31.2028 0.0770874C33.0895 0.0770874 34.4061 0.497192 35.0697 1.3952C35.7278 2.3053 35.4952 3.25385 35.3919 3.67535L35.3848 3.70428H32.0644ZM83.2657 5.74286C83.7878 3.87982 84.8548 2.17432 86.9819 2.17432C87.689 2.17432 88.399 2.35547 88.6981 2.95441C88.9158 3.43463 89.0954 4.18274 88.6639 5.69647C88.2354 7.19421 87.2932 9.17371 84.9872 9.17371C82.8418 9.17371 82.7764 7.46588 83.2657 5.74286ZM79.9384 5.75885C78.8007 9.79016 81.2375 11.377 84.3343 11.377C87.106 11.377 90.7697 10.055 91.9889 5.74286C92.7317 3.10358 92.3527 0 87.708 0C86.8541 0 84.5968 0.121765 82.7414 1.50153C80.8806 2.87982 80.1409 5.03589 79.9384 5.75885ZM95.3482 0.298889H99.7973L101.453 8.36371L103.701 0.298889H106.525L103.463 11.1218H99.1093L97.47 2.71216L95.1267 11.1218H92.2895L95.3482 0.298889ZM108.804 0.333008H117.541L116.959 2.3985H111.409L110.774 4.64893H115.999L115.414 6.71674H110.188L109.538 9.02423H115.214L114.621 11.1217H105.747L108.804 0.333008ZM120.287 7.67377L120.284 7.68677C120.176 8.13477 119.88 9.35339 121.778 9.35339C122.053 9.35339 123.507 9.35339 123.852 8.12579C123.995 7.61664 123.868 7.26813 123.147 7.07709L120.49 6.38831C119.739 6.19275 117.803 5.68054 118.442 3.4187C118.937 1.66376 120.819 0.0305176 124.301 0.0305176C128.851 0.0305176 128.391 2.32739 128.084 3.47809H124.813L124.817 3.46381C124.914 3.11682 125.231 1.98035 123.701 1.98035C122.77 1.98035 122.027 2.47351 121.852 3.11884C121.624 3.91418 122.277 4.10748 122.711 4.22925L124.742 4.75281C126.183 5.12878 127.894 5.5755 127.247 7.87317C126.562 10.2841 124.036 11.3618 121.116 11.3618C119.907 11.3618 118.007 11.1822 117.257 10.0734C116.658 9.2218 116.918 8.18616 117.039 7.70532L117.047 7.67377H120.287ZM132.429 0.578308C133.447 0.578308 133.935 1.17804 133.691 2.06543C133.446 2.95282 132.629 3.55249 131.606 3.55249C130.584 3.55249 129.839 2.95282 130.084 2.06543C130.331 1.17804 131.407 0.578308 132.429 0.578308ZM132.343 0.887329C131.502 0.887329 130.705 1.39191 130.518 2.06543C130.331 2.73816 130.854 3.242 131.693 3.242C132.521 3.242 133.072 2.73816 133.255 2.06543C133.443 1.39191 133.171 0.887329 132.343 0.887329ZM131.849 2.18036H131.505L131.3 2.91321H130.93L131.399 1.21759H132.024C132.62 1.21759 132.86 1.29828 132.85 1.66357C132.84 1.97711 132.504 2.13165 132.231 2.16895L132.658 2.91321H132.223L131.849 2.18036ZM131.965 1.94061C132.243 1.94061 132.491 1.92236 132.559 1.68488C132.613 1.48627 132.352 1.45508 132.131 1.45508H131.702L131.569 1.94061H131.965ZM65.2488 10.8948C65.7298 11.4451 49.1944 11.4451 49.9882 10.8948C49.1944 11.4451 52.473 -0.0939941 52.9548 0.455505C52.473 -0.0939941 69.0099 -0.0939941 68.2146 0.455505C69.0099 -0.0939941 65.7298 11.4451 65.2488 10.8948ZM52.1582 7.02637L53.0281 4.97461C53.0281 4.97461 53.503 3.93042 54.9071 3.95026H65.9804L65.5032 5.1131L58.1994 5.11462C56.8196 5.11005 56.6278 6.06445 56.6278 6.06445L56.2329 7.02637H52.1582ZM56.8598 6.44568L56.6216 7.02484L64.3843 7.02637C64.3843 7.02637 64.7648 7.01953 64.9026 6.63672L65.3546 5.51416H61.8766L61.6255 6.12756C61.4291 6.44037 61.143 6.44568 61.143 6.44568H56.8598Z" fill="#80808E"/>
</svg>
