<svg width="130" height="19" viewBox="0 0 130 19" fill="none" xmlns="http://www.w3.org/2000/svg">
<path fill-rule="evenodd" clip-rule="evenodd" d="M0.184326 6.35829V0.0395508H18.4537V6.35829H12.3643V18.9999H6.2758V6.35829H0.184326ZM68.6245 5.45582V15.8385H71.3649V11.0971C71.3649 10.0559 71.7153 9.77015 72.293 9.77015C72.8567 9.77015 73.2071 10.0559 73.2071 11.1293V15.8385H75.9635V10.7656C75.9635 8.58558 75.1265 7.3688 73.3743 7.3688C72.4292 7.3688 71.8675 7.70027 71.3649 8.09512V4.31801L68.6245 5.45582ZM42.9419 7.4469V4.77642H51.8638V7.4469H48.8802V15.8386H45.9266V7.4469H42.9419ZM55.2131 7.36889C53.1105 7.36889 51.5596 8.83713 51.5596 11.6978C51.5596 14.2404 52.8822 16.0131 55.2891 16.0131C56.5367 16.0131 57.5579 15.665 58.5461 15.0624L57.4969 13.246C56.7059 13.6731 56.1252 13.831 55.4273 13.831C54.6804 13.831 54.1628 13.4206 54.0717 12.5041H58.7614C58.7754 12.3628 58.7754 12.1872 58.7754 11.9503C58.7754 8.87038 57.4057 7.36889 55.2131 7.36889ZM55.1361 9.46889C54.5133 9.46889 54.1629 9.91155 54.0718 10.7335H56.3556C56.2174 9.897 55.9421 9.46889 55.1361 9.46889ZM63.8586 16.0131C61.5158 16.0131 60.113 14.4648 60.113 11.6655C60.113 9.12179 61.3636 7.36883 63.9197 7.36883C65.4286 7.36883 66.2956 8.09516 66.9965 9.2631L65.1092 10.749C64.7277 10.0216 64.4674 9.67563 63.8757 9.67563C63.1748 9.67563 62.8244 10.402 62.8244 11.7143C62.8244 13.0267 63.2058 13.7042 63.9507 13.7042C64.4674 13.7042 64.8338 13.4039 65.3364 12.6308L67.0736 14.0357C66.1434 15.4592 65.2754 16.0131 63.8586 16.0131ZM82.5245 16.0132C79.3566 16.0132 77.6655 13.5776 77.6655 10.3075C77.6655 6.75175 79.677 4.6029 82.5385 4.6029C85.1587 4.6029 86.193 5.77188 86.9239 7.85839L84.2446 8.9484C83.8641 7.92177 83.4977 7.27338 82.5245 7.27338C81.291 7.27338 80.7573 8.55354 80.7573 10.3075C80.7573 11.9971 81.275 13.3407 82.5545 13.3407C83.4837 13.3407 83.8782 12.819 84.4569 11.7779L86.9539 13.1526C86.24 14.6063 85.0506 16.0132 82.5245 16.0132ZM91.3373 8.14192V7.54132H88.595V15.8385H91.3373V11.3184C91.3373 10.3074 91.7488 9.97488 92.4187 9.97488C92.9513 9.97488 93.3468 10.2752 93.6972 10.67L94.338 7.71485C94.0186 7.51015 93.6211 7.36883 93.0434 7.36883C92.3426 7.36883 91.8099 7.66809 91.3373 8.14192ZM100.213 12.2827V7.54134H102.969V15.8385H100.213V15.2847C99.7244 15.6795 99.1467 16.0131 98.2176 16.0131C96.4674 16.0131 95.6284 14.7963 95.6284 12.6142V7.54134H98.3868V12.2526C98.3868 13.3239 98.7352 13.6117 99.2989 13.6117C99.8626 13.6117 100.213 13.3239 100.213 12.2827ZM107.686 8.09516V7.54132H104.946V15.8385H107.686V11.0971C107.686 10.0559 108.037 9.77018 108.617 9.77018C109.18 9.77018 109.529 10.0559 109.529 11.1293V15.8385H112.287V10.7656C112.287 8.58561 111.448 7.36883 109.698 7.36883C108.753 7.36883 108.189 7.7003 107.686 8.09516ZM117.626 16.0131C115.284 16.0131 113.881 14.4648 113.881 11.6655C113.881 9.12179 115.131 7.36883 117.688 7.36883C119.196 7.36883 120.063 8.09516 120.763 9.2631L118.877 10.749C118.496 10.0216 118.237 9.67563 117.642 9.67563C116.943 9.67563 116.592 10.402 116.592 11.7143C116.592 13.0267 116.974 13.7042 117.719 13.7042C118.237 13.7042 118.602 13.4039 119.104 12.6308L120.841 14.0357C119.912 15.4592 119.043 16.0131 117.626 16.0131ZM122.392 5.45582V15.8385H125.133V11.0971C125.133 10.0559 125.483 9.77015 126.061 9.77015C126.625 9.77015 126.975 10.0559 126.975 11.1293V15.8385H129.731V10.7656C129.731 8.58558 128.892 7.3688 127.142 7.3688C126.197 7.3688 125.633 7.70027 125.133 8.09512V4.31801L122.392 5.45582ZM18.4536 6.35891V18.9985H36.722V12.6797H24.5421V6.35891H18.4536ZM36.7222 6.35878H24.5423V0.0400391H36.7222V6.35878Z" fill="#80808E"/>
</svg>
