<svg width="80" height="27" viewBox="0 0 80 27" fill="none" xmlns="http://www.w3.org/2000/svg">
<path id="udemy" fill-rule="evenodd" clip-rule="evenodd" d="M19.5367 9.02395C18.7325 9.15334 17.9631 9.58325 17.504 10.2678C16.7986 11.3405 16.7026 12.6803 16.7332 13.9297C16.7819 15.0594 16.9572 16.2935 17.7669 17.1506C18.4848 17.906 19.6007 18.0577 20.5927 18.0438C21.6779 18.0187 22.8535 17.5846 23.3961 16.5843C24.1182 15.3516 23.7676 13.8768 23.8803 12.5273C23.961 11.634 23.73 10.6726 23.0692 10.034C22.1787 9.09491 20.7833 8.76795 19.5367 9.02395ZM26.2748 0H26.4835C26.8313 0.136348 26.9899 0.471652 26.9579 0.830609C26.9537 5.4247 26.9635 10.0202 26.9523 14.6143C26.9551 16.1377 26.6003 17.7308 25.5902 18.9134C24.3895 20.384 22.4222 20.9878 20.5774 20.9864C18.7422 21.0296 16.7638 20.5482 15.481 19.1541C14.0424 17.607 13.6514 15.392 13.6918 13.3482C13.7127 11.4115 14.1217 9.31618 15.5283 7.8887C16.7513 6.59896 18.5975 6.14122 20.3228 6.15235C21.5861 6.13426 22.8215 6.56557 23.8608 7.27096C23.8608 5.81705 23.8608 4.36452 23.8595 2.912C23.8608 2.18017 23.9638 1.38991 24.4563 0.813913C24.9001 0.278261 25.6083 0.0737392 26.2748 0ZM33.1214 9.33423C32.0654 9.77667 31.4894 10.8772 31.3252 11.9624C33.4094 11.9694 35.4935 11.961 37.5791 11.9666C37.8129 11.9777 38.0438 11.9179 38.2525 11.8121C38.1885 10.8007 37.7363 9.68206 36.7207 9.30084C35.5826 8.86954 34.2497 8.87093 33.1214 9.33423ZM30.1649 7.89972C31.2515 6.78807 32.8084 6.27467 34.3318 6.17589C35.9179 6.07711 37.6125 6.3025 38.9385 7.24441C40.3979 8.28094 41.2035 10.0576 41.3092 11.8148C41.3426 12.5105 41.3635 13.2521 41.0338 13.8879C40.7861 14.3818 40.2087 14.6142 39.68 14.6072C36.8863 14.6114 34.0925 14.6072 31.3002 14.6086C31.4018 15.5296 31.7106 16.4785 32.4299 17.1046C33.3955 17.9825 34.7979 18.1397 36.0445 17.9964C37.0616 17.8935 37.9785 17.3954 38.7924 16.8041C39.1611 16.5773 39.5479 16.2058 40.0181 16.3338C40.6025 16.5536 40.8376 17.259 40.7082 17.8336C40.5176 18.8062 39.7273 19.5227 38.912 20.0082C37.0435 21.1171 34.7158 21.2326 32.6609 20.6274C31.2654 20.2183 30.0021 19.3112 29.2633 18.0465C28.384 16.562 28.1767 14.7839 28.2171 13.0879C28.2838 11.2222 28.7833 9.23815 30.1649 7.89972ZM42.7478 6.94806C42.7019 6.55154 43.0497 6.20511 43.4295 6.16337C44.3422 6.16893 45.3078 6.47085 45.8963 7.20824C46.9022 6.47224 48.1586 6.12302 49.3982 6.15224C51.0469 6.15502 52.7694 6.5905 54.0076 7.72998C55.0539 6.66006 56.5621 6.15919 58.0368 6.14528C59.7676 6.10771 61.6389 6.39154 62.9969 7.55189C64.1976 8.55641 64.7054 10.162 64.729 11.6868C64.7332 14.5182 64.7276 17.3495 64.7318 20.1808C64.7471 20.5508 64.5704 21.0322 64.1447 21.0698C63.6257 21.0754 63.1123 20.9084 62.6421 20.6983C61.8629 20.3505 61.3732 19.5115 61.3913 18.667C61.3885 16.7095 61.3913 14.7519 61.3913 12.7943C61.3704 11.9262 61.3899 10.9759 60.8682 10.2343C60.441 9.64302 59.6842 9.42319 58.9913 9.36893C58.1036 9.30493 57.1464 9.29519 56.352 9.75154C55.6911 10.1397 55.417 10.9397 55.4101 11.6715C55.4045 14.5084 55.4142 17.3453 55.4059 20.1808C55.4532 20.6121 55.1555 21.1115 54.6699 21.042C53.8602 20.9502 52.985 20.6733 52.4883 19.9832C52.2031 19.602 52.0807 19.1234 52.0695 18.6531C52.064 16.5606 52.0793 14.4695 52.0626 12.3769C52.0278 11.5797 52.0209 10.6782 51.4602 10.0451C50.9537 9.45937 50.1287 9.34806 49.3982 9.32024C48.5064 9.2938 47.5214 9.35363 46.8048 9.94911C46.2414 10.4458 46.0828 11.2347 46.0855 11.9554C46.0897 14.4625 46.0842 16.971 46.0883 19.4795C46.0828 19.8427 46.1162 20.2114 46.0494 20.5703C45.9742 20.9293 45.5582 21.0879 45.2285 21.0155C44.5022 20.8931 43.7231 20.658 43.2487 20.0542C42.8577 19.5922 42.7367 18.9662 42.745 18.3748C42.7506 14.5668 42.745 10.7575 42.7478 6.94806ZM65.536 6.38613C66.7033 5.90891 68.4563 6.10926 68.9822 7.41431C70.1259 10.0675 71.2709 12.7194 72.4243 15.367C73.6514 12.6985 74.8688 10.0244 76.0904 7.35448C76.505 6.40978 77.6556 6.06752 78.6101 6.16909C79.1513 6.2317 79.8414 6.36109 80 6.97744V7.21117C77.7892 12.1253 75.4838 16.999 73.2382 21.8992C72.5788 23.3559 71.705 24.7903 70.3527 25.7002C69.5568 26.2498 68.594 26.5044 67.6382 26.574H67.2834C66.3095 26.5406 65.2911 26.0801 64.825 25.1882C64.5857 24.7263 64.4382 24.0766 64.8445 23.662C65.2271 23.2404 65.8518 23.3573 66.361 23.3392C67.1916 23.3767 68.1224 23.3197 68.7596 22.7145C69.6528 21.8602 70.0591 20.654 70.5558 19.5534C68.7805 15.5507 66.9871 11.5562 65.202 7.559C64.9697 7.15691 65.0574 6.55448 65.536 6.38613ZM9.83096 7.61466C10.279 7.00388 11.0539 6.73536 11.7844 6.69501C12.1377 6.6811 12.4146 7.00666 12.377 7.35171C12.391 10.0508 12.3784 12.75 12.3826 15.4477C12.3729 16.974 11.9652 18.638 10.7464 19.6536C9.43722 20.7653 7.63687 20.9948 5.97844 20.9768C4.33531 20.9489 2.54609 20.6053 1.36487 19.3698C0.346435 18.3388 0.0431304 16.8418 0 15.4435V9.30371C0.0528696 8.71379 0.154435 8.09466 0.524522 7.61327C0.983653 7.00249 1.77252 6.73258 2.5127 6.71727C2.84661 6.71588 3.08174 7.04145 3.0567 7.35727C3.07061 9.9604 3.05391 12.5649 3.06226 15.1681C3.07896 15.9124 3.18331 16.7333 3.71618 17.3009C4.28661 17.9089 5.1687 18.0425 5.96313 18.0661C6.81322 18.0787 7.74818 18.0369 8.45218 17.5027C9.11583 16.9907 9.31479 16.11 9.32035 15.3141C9.32592 13.4094 9.31896 11.5048 9.32174 9.60145C9.33148 8.91553 9.41218 8.18232 9.83096 7.61466Z" fill="#80808E"/>
</svg>
