<svg width="68" height="16" viewBox="0 0 68 16" fill="none" xmlns="http://www.w3.org/2000/svg">
<path fill-rule="evenodd" clip-rule="evenodd" d="M17.4925 4.8681C18.4018 2.49566 20.5249 0.672978 22.944 0.201138C25.373 -0.201617 28.0102 0.376057 29.9025 2.06057C29.8999 2.79709 29.9004 3.53362 29.9009 4.27014C29.9013 4.76099 29.9016 5.25184 29.9011 5.74269H27.4933L27.4931 5.10536V5.10523V5.10509V5.10495C27.4928 4.46841 27.4926 3.83229 27.4947 3.19534C25.5982 2.02088 22.927 2.06204 21.2628 3.66277C19.2049 5.59717 19.0052 9.26606 20.8917 11.396C21.8265 12.4984 23.2698 13.0937 24.6762 13.0026C26.1435 12.9305 27.557 12.1574 28.4436 10.9403C28.9525 11.35 29.4641 11.7539 29.9762 12.1583L30.3472 12.4514C29.2708 13.9301 27.6802 15.0325 25.9041 15.3324C24.1238 15.6734 22.2217 15.3823 20.6538 14.4284C19.2063 13.5582 18.0534 12.1677 17.4514 10.5478C16.756 8.74424 16.7758 6.65991 17.4925 4.8681ZM0.440918 0.414325H4.88539C5.38426 1.88965 5.87177 3.3693 6.35927 4.8489L6.35929 4.84896L6.35932 4.84905L6.35932 4.84906C7.07733 7.02829 7.79531 9.20743 8.54947 11.3725C9.45561 8.66879 10.3571 5.96348 11.2585 3.25835C11.5744 2.3103 11.8904 1.36226 12.2065 0.414325C13.5945 0.414325 14.9825 0.414325 16.3719 0.415795C16.3677 1.03093 16.3682 1.64607 16.3687 2.26121C16.3689 2.46628 16.3691 2.67135 16.3691 2.87642C15.5887 2.86907 14.8083 2.8676 14.0279 2.87642C12.5379 7.0245 11.0408 11.1711 9.52957 15.3133C8.96026 15.3089 8.39014 15.3095 7.82043 15.31H7.82023H7.8201H7.81996H7.81983C7.63006 15.3102 7.44032 15.3104 7.25068 15.3104C5.83434 11.1549 4.38543 7.0098 2.93651 2.86613C2.41143 2.87263 1.88579 2.87209 1.36029 2.87156H1.36027H1.36025H1.36023H1.3602H1.36017H1.36013C1.05363 2.87124 0.747178 2.87093 0.440918 2.87201V0.414325ZM40.6601 0.621658C39.5194 0.625713 38.3788 0.629767 37.2392 0.611394C37.2386 0.917311 37.2385 1.22346 37.2384 1.52966V1.5297V1.52973C37.2382 1.98857 37.238 2.44751 37.2363 2.90592C37.804 2.88988 38.3716 2.89251 38.9387 2.89513C39.1513 2.89612 39.3637 2.8971 39.5761 2.8971C39.5722 5.22755 39.5731 7.558 39.5739 9.88845C39.5743 10.8873 39.5747 11.8862 39.5747 12.8851C39.1675 12.8805 38.7608 12.8807 38.3542 12.8809C37.9814 12.8811 37.6089 12.8813 37.2363 12.8778C37.2394 13.4432 37.2388 14.0093 37.2382 14.5751V14.5767V14.5769C37.238 14.8034 37.2377 15.0298 37.2377 15.2561C40.1405 15.2408 43.0442 15.2443 45.9481 15.2479H45.9482H45.9487C46.6747 15.2487 47.4006 15.2496 48.1266 15.2502C48.1155 14.5741 48.1183 13.8992 48.1211 13.2234V13.2229L48.1223 12.9101C47.3926 12.9091 46.6631 12.9097 45.9337 12.9104H45.9336H45.9334C44.637 12.9115 43.3409 12.9127 42.0448 12.9042C42.0435 12.0402 42.0437 11.1763 42.0439 10.3123V10.3076C42.0441 9.27254 42.0443 8.2375 42.042 7.20246C42.0901 4.97849 43.8804 2.77804 46.1196 2.83683C46.1168 2.98391 46.1146 3.13115 46.1125 3.2785L46.1125 3.28007C46.1039 3.86998 46.0952 4.46139 46.0431 5.04905H48.4707C48.4701 4.40955 48.4703 3.77005 48.4705 3.13044V3.13036V3.13029C48.4707 2.27772 48.4709 1.42495 48.4693 0.571706C48.1514 0.583308 47.8311 0.578455 47.5105 0.573597C46.7343 0.561837 45.956 0.550045 45.2032 0.771614C43.7472 1.12733 42.5249 2.21506 41.8069 3.55709C41.753 2.98487 41.7224 2.41113 41.6918 1.83736C41.6701 1.431 41.6484 1.02462 41.6185 0.618743C41.299 0.619386 40.9796 0.620522 40.6601 0.621658L40.6601 0.621658ZM51.1971 0.617117C52.7452 0.624467 54.2947 0.630346 55.8441 0.612707C55.8411 2.73967 55.8417 4.86738 55.8423 6.99477V7.00135V7.0015C55.8425 7.85344 55.8427 8.70533 55.8427 9.5571C55.8781 10.5728 56.0283 11.6694 56.6854 12.4705C57.4375 13.3524 58.725 13.5214 59.7631 13.1598C61.4004 12.6101 62.491 10.8697 62.5278 9.11465C62.5395 7.61212 62.5369 6.10876 62.5342 4.60581V4.60484V4.60461C62.5333 4.10392 62.5324 3.60328 62.5321 3.10273C61.9605 3.10981 61.3882 3.10924 60.8162 3.10867H60.8162C60.5562 3.10841 60.2963 3.10815 60.0365 3.10861C60.0422 2.27664 60.0422 1.44468 60.0365 0.612707C61.0868 0.626552 62.1377 0.624749 63.1884 0.622946C63.811 0.621877 64.4336 0.620809 65.056 0.622997C65.0596 1.91847 65.0573 3.2141 65.0551 4.50973C65.0502 7.29064 65.0454 10.0716 65.0985 12.8512C65.5203 12.8892 65.9427 12.8852 66.3653 12.8812C66.5799 12.8791 66.7945 12.8771 67.0091 12.8806V15.2456C66.5428 15.2467 66.0765 15.2462 65.6102 15.2457H65.6093C64.7927 15.2449 63.9761 15.244 63.1595 15.2515C63.0774 14.6515 62.9882 14.0522 62.8989 13.4525L62.8989 13.4521C62.8681 13.2455 62.8373 13.0388 62.8069 12.8321C62.3253 13.7169 61.6851 14.5386 60.824 15.0487C59.9657 15.5808 58.9332 15.7351 57.9474 15.6366C56.6359 15.547 55.3258 14.9384 54.5099 13.8478C53.6516 12.7247 53.3429 11.2622 53.3301 9.85402C53.3234 8.66962 53.3246 7.48523 53.3257 6.30083V6.2987C53.3267 5.23338 53.3277 4.16806 53.323 3.10273C52.7898 3.10935 52.2574 3.10852 51.7251 3.10769H51.725C51.5476 3.10742 51.3702 3.10714 51.1929 3.10714C51.2004 2.37039 51.199 1.63247 51.1976 0.894422L51.1971 0.617117ZM34.7164 12.7763C33.8992 12.8175 33.0763 12.8189 32.2591 12.7734C32.2573 13.1329 32.2575 13.4925 32.2577 13.8521C32.258 14.3465 32.2583 14.841 32.2534 15.3354L32.2549 15.3354C33.0759 15.3325 33.8954 15.3296 34.7164 15.3369C34.7164 15.0528 34.7163 14.7686 34.7161 14.4842C34.7158 13.9152 34.7155 13.3458 34.7164 12.7763Z" fill="#80808E"/>
</svg>
