<svg width="20" height="20" viewBox="0 0 20 20" fill="none" xmlns="http://www.w3.org/2000/svg">
<circle cx="10" cy="10" r="9.25" stroke="white" stroke-width="1.5"/>
<path d="M12.9931 10.5778H5.58739C5.26298 10.5778 5 10.3064 5 9.99269C5 9.66955 5.2709 9.40758 5.58739 9.40758H12.9785L10.6783 7.10738C10.455 6.88407 10.4523 6.50975 10.6814 6.28056C10.9039 6.05807 11.2808 6.04996 11.5083 6.2774L14.7676 9.53673C14.7854 9.55071 14.8025 9.56584 14.8188 9.58211C14.934 9.69729 14.9906 9.84911 14.99 10C14.9906 10.1509 14.934 10.3027 14.8188 10.4179C14.8025 10.4342 14.7854 10.4493 14.7676 10.4633L11.5083 13.7226C11.2808 13.9501 10.9039 13.9419 10.6814 13.7194C10.4523 13.4903 10.455 13.1159 10.6783 12.8926L12.9931 10.5778Z" fill="white" stroke="white" stroke-width="0.5"/>
</svg>
