<svg width="20" height="20" viewBox="0 0 20 20" fill="none" xmlns="http://www.w3.org/2000/svg">
<circle cx="10" cy="9.99994" r="10" fill="white"/>
<path d="M14.1494 6.4493C13.9344 6.45589 13.7304 6.54596 13.5807 6.70042L9.36706 10.9141L7.34332 9.34827C7.16944 9.21457 6.9496 9.15533 6.73208 9.18355C6.51456 9.21176 6.31712 9.32513 6.1831 9.49877C6.04908 9.67241 5.98943 9.89214 6.01725 10.1097C6.04506 10.3273 6.15807 10.5249 6.33146 10.6593L8.9313 12.6682C9.09046 12.7908 9.28877 12.8513 9.48923 12.8383C9.68969 12.8254 9.8786 12.74 10.0207 12.5981L14.7477 7.87109C14.8676 7.75516 14.9497 7.60568 14.9832 7.44227C15.0166 7.27887 14.9999 7.10916 14.9352 6.95542C14.8706 6.80167 14.7609 6.67107 14.6207 6.58075C14.4804 6.49044 14.3162 6.44461 14.1494 6.4493V6.4493Z" fill="#7F5FFC"/>
</svg>
