<svg width="143" height="170" viewBox="0 0 143 170" fill="none" xmlns="http://www.w3.org/2000/svg">
<path opacity="0.6" fill-rule="evenodd" clip-rule="evenodd" d="M35.1131 42.1804V42.4208C35.1131 42.5589 35.0012 42.6708 34.8631 42.6708C34.7797 42.6708 34.7059 42.63 34.6604 42.5672C34.8107 42.4376 34.9616 42.3087 35.1131 42.1804ZM120.737 39.9308L120.928 39.7482C121.024 39.6561 121.174 39.6559 121.271 39.7452C113.193 32.1361 102.078 27.5053 87.9331 25.8492C69.5184 23.693 49.6178 29.8958 35.1131 42.1804V0.941406C35.1131 0.803335 35.0012 0.691406 34.8631 0.691406C34.725 0.691406 34.6131 0.803335 34.6131 0.941406V42.4208C34.6131 42.4755 34.6307 42.5261 34.6604 42.5672C31.0792 45.6558 27.8365 49.1195 25.0385 52.9232C20.5686 58.0636 17.3317 63.4118 15.342 68.9518C12.1931 76.026 10.3475 84.9891 9.80893 95.8245C9.27424 106.582 10.7043 115.803 14.1023 123.485C14.0961 123.497 14.0907 123.509 14.0864 123.522C14.0427 123.653 14.1134 123.795 14.2444 123.839L104.756 154.045C104.886 154.089 105.025 154.02 105.071 153.893C109.38 151.439 112.446 149.563 114.273 148.261C116.572 146.622 119.677 144.098 123.592 140.687C136.679 128.213 142.509 114.207 141.988 92.3529C140.732 71.681 132.3 55.7233 116.701 44.4916L121.273 40.1103C121.177 40.2008 121.026 40.202 120.929 40.1107C120.88 40.0636 120.83 40.0167 120.779 39.9699L120.737 39.9308ZM81.2575 78.335C81.2009 78.329 81.1461 78.3037 81.1036 78.2594C81.0081 78.1598 81.0115 78.0015 81.1112 77.906L120.737 39.9308C112.759 32.5067 101.808 27.9772 87.875 26.3458C64.8605 23.6511 39.4919 34.1185 25.4286 53.2354C21.081 58.2364 17.9191 63.4135 15.9351 68.7829L15.8902 68.7533C15.7751 68.6771 15.62 68.7087 15.5438 68.8238C15.4676 68.939 15.4992 69.0941 15.6144 69.1703L15.7513 69.2608C12.6562 76.2711 10.8409 85.1341 10.3083 95.8493C9.77361 106.607 11.2151 115.804 14.6295 123.44L14.4027 123.364C14.2848 123.325 14.1582 123.378 14.1023 123.485C14.1294 123.546 14.1566 123.607 14.184 123.669C14.2404 123.795 14.3883 123.851 14.5143 123.795C14.6403 123.738 14.6967 123.59 14.6403 123.464L14.6295 123.44L104.743 153.514C104.664 153.591 104.644 153.715 104.701 153.816C104.77 153.936 104.922 153.977 105.042 153.909L105.071 153.893L105.073 153.887C105.116 153.756 105.046 153.615 104.915 153.571L104.743 153.514C104.758 153.499 104.775 153.486 104.795 153.475C109.105 151.021 112.169 149.146 113.982 147.854C116.258 146.232 119.339 143.728 123.215 140.353L123.452 140.509C123.567 140.585 123.722 140.553 123.798 140.438C123.874 140.323 123.843 140.168 123.727 140.092L123.588 139.999C136.331 127.709 142.001 113.891 141.489 92.374C140.239 71.825 131.857 55.9884 116.334 44.8434L116.701 44.4916L116.619 44.4326C116.507 44.3521 116.351 44.3778 116.27 44.4899C116.19 44.6021 116.215 44.7583 116.327 44.8388L116.334 44.8434L81.7404 77.9955C81.704 77.9024 81.6134 77.8365 81.5075 77.8365C81.3694 77.8365 81.2575 77.9484 81.2575 78.0865V78.335ZM81.2846 84.0655C81.2673 84.0314 81.2575 83.9929 81.2575 83.952V78.335C81.3282 78.3426 81.4017 78.3201 81.4571 78.267L81.7404 77.9955C81.7514 78.0237 81.7575 78.0544 81.7575 78.0865V83.952C81.7575 83.9899 81.7491 84.0257 81.734 84.0579L81.6989 84.0578C81.5602 84.0578 81.4221 84.0604 81.2846 84.0655ZM81.3251 106.119C75.4044 105.922 70.6652 101.06 70.6652 95.0916C70.6652 89.1365 75.3828 84.2833 81.2846 84.0655C81.326 84.1465 81.4102 84.202 81.5075 84.202C81.6077 84.202 81.6942 84.143 81.734 84.0579C87.8116 84.0768 92.7326 89.0095 92.7326 95.0916C92.7326 101.185 87.7926 106.125 81.6989 106.125H81.6955C81.6497 106.073 81.5824 106.04 81.5075 106.04C81.4355 106.04 81.3707 106.07 81.3251 106.119ZM81.2575 111.996L15.9351 68.7829C15.8914 68.9012 15.8483 69.0195 15.8057 69.1379C15.7875 69.1788 15.7694 69.2198 15.7513 69.2608L123.215 140.353C123.229 140.341 123.242 140.329 123.255 140.318C123.367 140.212 123.477 140.105 123.588 139.999L81.6811 112.276C81.7282 112.231 81.7575 112.167 81.7575 112.097V106.29C81.7575 106.227 81.7341 106.169 81.6955 106.125C81.5715 106.125 81.448 106.123 81.3251 106.119C81.2831 106.164 81.2575 106.224 81.2575 106.29V111.996ZM81.2575 111.996L81.6811 112.276C81.6362 112.32 81.5749 112.347 81.5075 112.347C81.3694 112.347 81.2575 112.235 81.2575 112.097V111.996ZM3.34526 135.204C1.37556 134.564 0.29762 132.448 0.937615 130.479C1.57761 128.509 3.69319 127.431 5.66289 128.071L107.906 161.292C109.876 161.932 110.954 164.048 110.314 166.017C109.674 167.987 107.558 169.065 105.589 168.425L3.34526 135.204ZM108.061 160.816C110.293 161.542 111.515 163.939 110.789 166.172C110.064 168.404 107.666 169.626 105.434 168.9L3.19075 135.68C0.958425 134.954 -0.263241 132.557 0.462087 130.324C1.18741 128.092 3.58507 126.87 5.8174 127.596L108.061 160.816ZM92.2326 95.0916C92.2326 100.909 87.5165 105.625 81.6989 105.625C75.8813 105.625 71.1652 100.909 71.1652 95.0916C71.1652 89.2739 75.8813 84.5578 81.6989 84.5578C87.5165 84.5578 92.2326 89.2739 92.2326 95.0916Z" fill="white"/>
</svg>
