<svg width="143" height="170" fill="none" xmlns="http://www.w3.org/2000/svg"><path opacity=".6" fill-rule="evenodd" clip-rule="evenodd" d="M35.113 42.18v.24a.25.25 0 01-.453.147c.15-.13.302-.258.453-.387zm85.624-2.25l.191-.182a.25.25 0 01.343-.003c-8.078-7.609-19.193-12.24-33.338-13.896-18.415-2.156-38.315 4.047-52.82 16.331V.941a.25.25 0 10-.5 0v41.48a.25.25 0 00.047.146c-3.58 3.089-6.823 6.553-9.621 10.356-4.47 5.14-7.707 10.489-9.697 16.029-3.149 7.074-4.995 16.037-5.533 26.873-.535 10.757.895 19.978 4.293 27.66a.25.25 0 00.142.354l90.512 30.206a.25.25 0 00.315-.152c4.309-2.454 7.375-4.33 9.202-5.632 2.299-1.639 5.404-4.163 9.319-7.574 13.087-12.474 18.917-26.48 18.396-48.334-1.256-20.672-9.688-36.63-25.287-47.861l4.572-4.382a.251.251 0 01-.344 0 8.887 8.887 0 00-.15-.14l-.042-.04zm-39.48 38.405a.25.25 0 01-.146-.429l39.626-37.975c-7.978-7.424-18.929-11.954-32.862-13.585-23.014-2.695-48.383 7.772-62.446 26.89-4.348 5-7.51 10.178-9.494 15.547l-.045-.03a.25.25 0 10-.276.417l.137.09c-3.095 7.011-4.91 15.874-5.443 26.59-.534 10.757.907 19.954 4.322 27.59l-.227-.076a.25.25 0 00-.3.121l.081.184c.056.126.204.182.33.126.126-.057.183-.205.126-.331l-.01-.024 90.113 30.074a.25.25 0 00.299.395l.029-.016.002-.006a.25.25 0 00-.158-.316l-.172-.057a.228.228 0 01.052-.039c4.31-2.454 7.374-4.329 9.187-5.621 2.276-1.622 5.357-4.126 9.233-7.501l.237.156a.25.25 0 00.275-.417l-.139-.093c12.743-12.29 18.413-26.108 17.901-47.625-1.25-20.549-9.632-36.386-25.155-47.53l.367-.352-.082-.06a.25.25 0 00-.292.407l.007.004L81.74 77.996a.25.25 0 00-.483.09v.249zm.028 5.73a.25.25 0 01-.028-.113v-5.617a.25.25 0 00.2-.068l.283-.271a.25.25 0 01.017.09v5.866a.248.248 0 01-.023.106h-.035c-.139 0-.277.002-.414.007zm.04 22.054c-5.92-.197-10.66-5.059-10.66-11.027 0-5.956 4.718-10.809 10.62-11.026a.25.25 0 00.449-.008c6.078.019 10.999 4.951 10.999 11.034 0 6.093-4.94 11.033-11.034 11.033h-.004a.25.25 0 00-.37-.006zm-.068 5.877L15.935 68.783l-.13.355-.054.123 107.464 71.092.04-.035.333-.319-41.907-27.723a.248.248 0 00.076-.179v-5.807a.25.25 0 00-.062-.165c-.123 0-.247-.002-.37-.006a.25.25 0 00-.068.171v5.706zm0 0l.424.28a.25.25 0 01-.424-.179v-.101zM3.345 135.204a3.75 3.75 0 012.318-7.133l102.243 33.221a3.75 3.75 0 01-2.317 7.133L3.345 135.204zm104.716 25.612a4.25 4.25 0 01-2.627 8.084L3.191 135.68a4.25 4.25 0 012.626-8.084l102.244 33.22zM92.233 95.092c0 5.817-4.717 10.533-10.534 10.533-5.818 0-10.534-4.716-10.534-10.533 0-5.818 4.716-10.534 10.534-10.534 5.817 0 10.534 4.716 10.534 10.534z" fill="#fff"/></svg>