<svg width="118" height="146" fill="none" xmlns="http://www.w3.org/2000/svg"><path fill-rule="evenodd" clip-rule="evenodd" d="M58.793 1.638l20.349 41.721-.043-.01-.123.484.453.115 18.1 37.11-.174.358.45.219.002-.006 19.646 40.279a2.25 2.25 0 01-1.407 3.151c-11.322 3.222-23.837 2.647-37.541-1.72-15.924-5.075-27.824-13.823-36.612-26.676l.297-.162-.239-.44-.34.186a82.026 82.026 0 01-5.152-8.817 51.615 51.615 0 01-2.312-5.313l.222-.127-.25-.434-.147.085c-5.514-15.241-5.434-35.216.317-50.653 3.662-9.83 10.63-19.817 20.9-29.964a2.25 2.25 0 013.604.614zm-34.458 85.56l-.008-.014 9.645-5.543.175.476-9.414 5.41-.122-.21a.25.25 0 00-.276-.118zM22.572 101.5c-.82-.674-1.525-1.572-2.111-2.694-2.28-4.365-.998-8.248 3.791-11.57a.247.247 0 01.083-.037l.241.419.157-.09 1.595 2.767c-.15.076-.295.158-.434.248l-1.58-2.74c-4.41 3.149-5.529 6.713-3.41 10.771 2.116 4.052 5.828 4.991 11.237 2.804l-1.508-2.615c.15-.077.295-.16.433-.25l1.528 2.651-.214.117.24.439.003-.002a.668.668 0 01-.017.009l-.01.004c-4.184 1.752-7.48 1.724-9.846-.09v-.141h-.178zm-.322 10.773V101.5h.322c.059.048.118.095.178.141v10.632h-.5zm3.626 16.25v3a2.25 2.25 0 01-2.25 2.25h-5a2.25 2.25 0 01-2.25-2.25v-17a2.25 2.25 0 012.25-2.25h3.624v.227h.5v-.227h.876a2.25 2.25 0 012.25 2.25v14zm4.5 0a.25.25 0 00-.25-.25h-4a.25.25 0 000 .5h4a.25.25 0 00.25-.25zm0-9v12a2.25 2.25 0 002.25 2.25h5a2.25 2.25 0 002.25-2.25v-17a2.25 2.25 0 00-2.25-2.25H33.75v-11.17l8.143-4.44a77.567 77.567 0 01-.282-.416l-9.017 4.917.122.211a.25.25 0 01-.093.343l.627-.342v10.897h-.624a2.25 2.25 0 00-2.25 2.25v5zm0 0a.25.25 0 00-.25-.25h-4a.25.25 0 000 .5h4a.25.25 0 00.25-.25zm2.874-18.147l.5-.273v-.007h-.5v.28zm0 10.897h.5v.227h-.5v-.227zm-2.434-14.195l.25.434a4.75 4.75 0 00-4.683-8.244l-.055.027.25.434a4.291 4.291 0 00-.434.247l-.25-.433a4.75 4.75 0 004.653 8.263l.042-.02.044-.023-.25-.434c.15-.076.295-.16.433-.25zm0 0l-4.238-7.35.024-.011a4.25 4.25 0 014.214 7.361zm-.433.251l-.055.028a4.25 4.25 0 01-4.184-7.38l4.24 7.352zm81.542-46.414l.057-.224-32.84-8.332.287.59 31.637 8.025-21.963 10.712.22.45 22.106-10.782-.16-.328.354.09-14.094 28.942.278.57 14.402-29.574-.284-.139zm-.302.2l.137-.28.165.08-.066.26-.236-.06zm-.354-.09l-.203-.05.143-.07.06.12zM58.016 1.396c.133.135.244.29.328.462l58.659 120.27a1.75 1.75 0 01-1.093 2.451c-11.222 3.194-23.638 2.623-37.253-1.716-19.352-6.167-32.704-17.78-41.751-35.657-7.858-15.528-8.614-38.686-2.148-56.042 3.634-9.756 10.56-19.684 20.783-29.784a1.75 1.75 0 012.475.015zm-39.39 111.378a1.75 1.75 0 00-1.75 1.75v17c0 .967.783 1.75 1.75 1.75h5a1.75 1.75 0 001.75-1.75v-17a1.75 1.75 0 00-1.75-1.75h-5zm12.25 1.75c0-.966.783-1.75 1.75-1.75h5c.966 0 1.75.784 1.75 1.75v17a1.75 1.75 0 01-1.75 1.75h-5a1.75 1.75 0 01-1.75-1.75v-17zM.89 141.032a3.75 3.75 0 013.75-3.75h47.971a3.75 3.75 0 010 7.5H4.642a3.75 3.75 0 01-3.75-3.75zm3.75-4.25h47.971a4.25 4.25 0 110 8.5H4.642a4.25 4.25 0 010-8.5z" fill="#fff" fill-opacity=".6"/></svg>