<svg width="137" height="137" fill="none" xmlns="http://www.w3.org/2000/svg"><path opacity=".6" fill-rule="evenodd" clip-rule="evenodd" d="M68.5.75C31.083.75.75 31.083.75 68.5c0 .585.007 1.168.022 1.75H.5a.25.25 0 100 .5h.287c1.187 36.376 31.049 65.5 67.713 65.5 12.728 0 24.938-3.516 35.535-10.056v-.061l-.001-.028-.001-.033a60.226 60.226 0 008.57-6.286c3.903-3.43 6.528-5.976 7.879-7.646a.25.25 0 00-.194-.408H85.741a2.991 2.991 0 110-5.982h37.437a3.572 3.572 0 100-7.145h-20.015a3.18 3.18 0 010-6.359h28.397c.025 0 .05-.004.073-.01a.25.25 0 00.385-.113A67.614 67.614 0 00136.25 68.5c0-5.974-.773-11.845-2.284-17.51a.251.251 0 00-.226-.185.251.251 0 00-.24-.179h-16.452a2.325 2.325 0 110-4.65h9.314a3.536 3.536 0 000-7.074h-19.43a3.182 3.182 0 010-6.364h18.255c.046 0 .09-.013.128-.035l.004.006c-.002-.002-.002-.005-.002-.008a.263.263 0 00.041-.03c.043-.019.113-.037.184-.055.119-.031.237-.062.217-.091C112.176 12.175 91.902.75 68.5.75zm56.517 31.288l.298.465.002-.002c.001-.01.017-.02.041-.03a.25.25 0 00-.171-.432h-.17zM1.272 70.25h-.5c.004.167.01.334.015.5h.5c1.187 36.1 30.825 65 67.213 65 12.44 0 24.381-3.383 34.785-9.684a.25.25 0 00.378.228l.178-.106.192-.116c-.019-.345-.155-.369-.261-.303-.162.1-.324.199-.487.297a.255.255 0 01.122-.202 59.612 59.612 0 008.866-6.454c3.575-3.141 6.07-5.536 7.48-7.178H85.741a3.491 3.491 0 110-6.982h37.437a3.073 3.073 0 000-6.145h-20.015a3.68 3.68 0 010-7.359h28.397c.021 0 .042.003.061.008l-.072.194a.251.251 0 00.084.287.25.25 0 00-.012-.481A67.103 67.103 0 00135.75 68.5c0-5.927-.767-11.753-2.266-17.374h.016a.25.25 0 00.24-.32.25.25 0 00-.256.321h-16.436a2.826 2.826 0 110-5.651h9.314a3.036 3.036 0 000-6.074h-19.43a3.682 3.682 0 110-7.364h18.085C112.713 13.002 91.613 1.25 68.5 1.25 31.359 1.25 1.25 31.359 1.25 68.5c0 .585.007 1.168.022 1.75zm0 0l.015.5H68.69a.25.25 0 100-.5H1.272zM34.01 37.89c0 10.907 8.842 19.75 19.75 19.75 10.907 0 19.75-8.843 19.75-19.75 0-10.908-8.843-19.75-19.75-19.75a19.693 19.693 0 00-14.285 6.111.249.249 0 00-.224.238 19.68 19.68 0 00-5.241 13.4zm5.551-13l-.227-.204a.25.25 0 01-.083-.197l.224-.238a.25.25 0 01.193.063l.236.212c-.116.12-.23.242-.343.365zm-5.048 13.36l-.003-.36a19.18 19.18 0 015.051-13l6.18 5.566a10.895 10.895 0 00-2.91 7.794h-8.318zm.016.5h8.33a10.897 10.897 0 003.082 6.782l-5.733 6.03a19.188 19.188 0 01-5.68-12.812zm6.038 13.158c-.12-.114-.24-.23-.36-.347l-.157.167a.25.25 0 10.362.344l.155-.164zm5.731-6.026l-5.73 6.026a19.18 19.18 0 0012.683 5.225v.192a.25.25 0 10.5 0v-.185h.009c4.754 0 9.105-1.724 12.464-4.58l.087.102a.25.25 0 00.38-.324l-.09-.107a19.202 19.202 0 006.39-13.481h.22a.25.25 0 100-.5h-.204l.003-.36c0-5.14-2.014-9.808-5.295-13.26a.25.25 0 00-.338-.347 19.19 19.19 0 00-13.617-5.643h-.009v-.14a.25.25 0 10-.5 0v.146a19.192 19.192 0 00-13.347 5.88l6.185 5.572c-.119.117-.235.236-.348.358l.18.163a.25.25 0 00.335-.371l-.167-.15a10.897 10.897 0 017.162-3.13v.2a.25.25 0 10.5 0v-.212h.009a10.9 10.9 0 017.73 3.201l-.166.166a.25.25 0 00.354.354l.158-.158a10.895 10.895 0 012.852 7.731H64.5a.25.25 0 100 .5h.16a10.905 10.905 0 01-3.45 7.142l-.143-.169a.25.25 0 00-.38.324l.15.177a10.891 10.891 0 01-7.078 2.6h-.009v-.126a.25.25 0 10-.5 0v.114a10.894 10.894 0 01-6.953-2.93zm.261-.44a.25.25 0 01-.061.23l-.2.21c-.122-.114-.24-.23-.357-.35l.194-.204a.25.25 0 01.235-.072c.062.062.126.124.19.185zm0 0a10.4 10.4 0 007.2 2.882c5.763 0 10.435-4.672 10.435-10.434 0-5.763-4.672-10.434-10.434-10.434-5.763 0-10.434 4.671-10.434 10.434 0 2.875 1.163 5.478 3.044 7.366a.25.25 0 01.19.185zm6.692 3.37c.166.008.332.012.5.012v8.316c-.167 0-.334-.003-.5-.007v-8.32zm7.587-2.588c.127-.108.251-.219.373-.332l5.39 6.34a19.6 19.6 0 01-.377.328l-5.386-6.336zm3.822-7.474c.013-.166.023-.332.028-.5h8.319a19.71 19.71 0 01-.016.5h-8.33zm-2.824-8.231a11.014 11.014 0 00-.346-.362l5.834-5.834a.256.256 0 01.053-.04c.114.114.227.23.338.347a.252.252 0 01-.037.047l-5.842 5.842zm-8.085-3.563c-.168 0-.334.004-.5.011v-8.32c.166-.005.333-.007.5-.007v8.316zM34.528 38.75a19.71 19.71 0 01-.016-.5H34.5a.25.25 0 100 .5h.028zm8.33 0h.203a.25.25 0 100-.5h-.23c.005.168.014.334.027.5z" fill="#fff"/></svg>