<svg width="159" height="143" fill="none" xmlns="http://www.w3.org/2000/svg"><path opacity=".6" fill-rule="evenodd" clip-rule="evenodd" d="M118.105 139.095c-9.065 5.233-23.615-1.538-38.53-16.175l.351-.36c14.756 14.485 29.099 21.2 37.929 16.102 8.765-5.061 10.167-20.645 5.134-40.457l.488-.12c5.083 20.023 3.627 35.814-5.372 41.01zm5.247-41.497l.059.23.066.257c20.942-5.195 34.797-14.335 34.984-25.02.19-10.89-13.869-20.673-35.298-26.563 5.453-20.596 4.121-36.92-5.058-42.22C109.04-.95 94.49 5.822 79.575 20.458 64.028 4.557 48.647-3.005 39.21 2.444c-9.32 5.38-10.55 22.127-4.802 43.17C14.178 50.86.876 59.845.694 70.312.507 80.99 14.022 90.605 34.752 96.528c-6.136 21.621-5.043 38.92 4.458 44.406 9.437 5.448 24.818-2.114 40.365-18.014l-.13-.128-.125-.123-.103-.102.35-.36.211.208.148.145c5.61-5.782 11.236-12.644 16.607-20.368 9.583-.68 18.52-2.052 26.456-3.987l-.125-.487.488-.12zm-9.39-25.91c4.147 9.038 7.299 17.814 9.39 25.91 20.73-5.139 34.427-14.132 34.609-24.541.185-10.61-13.715-20.24-34.927-26.07l.129-.485c-.161-.044-.323-.089-.485-.132 5.397-20.38 4.118-36.492-4.823-41.654-8.83-5.098-23.173 1.616-37.929 16.101l-.35-.36-.359.353C63.827 5.067 48.654-2.432 39.46 2.877c-9.08 5.242-10.258 21.78-4.565 42.612l-.487.125.133.485C14.52 51.286 1.371 60.124 1.194 70.32 1.012 80.724 14.372 90.185 34.89 96.045l-.138.483.484.137c-6.077 21.406-5.034 38.491 4.224 43.836 9.194 5.308 24.366-2.191 39.757-17.934-5.91-5.849-11.873-12.927-17.566-20.977.22.024.442.047.663.069 5.603 7.88 11.457 14.811 17.254 20.548 5.506-5.676 11.035-12.402 16.323-19.971l.642-.044.236-.34.13-.189c9.405-.689 18.173-2.046 25.965-3.945-2.053-7.944-5.132-16.554-9.178-25.429l.276-.6zm-.276-.6l.276.6c3.942-8.59 6.984-16.942 9.072-24.7l-.485-.133.129-.485c-7.75-2.099-16.447-3.69-25.772-4.645-5.483-7.944-11.24-14.992-16.98-20.908l-.358.353-.35-.36c-5.774 5.713-11.596 12.598-17.17 20.417-9.88.731-19.06 2.2-27.153 4.262l.133.485-.487.125c2.231 8.044 5.475 16.704 9.668 25.59-3.98 8.432-7.104 16.663-9.319 24.356l.484.137-.138.483c7.894 2.222 16.817 3.911 26.415 4.925l-.385-.545.663.071.385.543c5.386.55 10.98.888 16.723.988 5.78.101 11.419-.044 16.854-.411l.367-.527.641-.046a199.48 199.48 0 008.573-13.573 198.602 198.602 0 008.214-15.801l-.275-.6.275-.6zm0 0a198.62 198.62 0 00-8.214-15.8 199.975 199.975 0 00-8.193-13.02c9.142.958 17.667 2.53 25.27 4.587-2.048 7.61-5.019 15.802-8.863 24.233zM96.626 42.2l.653.067-.373-.542c-.218-.023-.436-.045-.655-.066-5.396-7.78-11.052-14.684-16.683-20.489-5.665 5.607-11.384 12.353-16.87 20.01-.217.015-.433.03-.65.047l-.377.531c-9.694.74-18.7 2.192-26.643 4.215 2.192 7.897 5.363 16.4 9.459 25.13l-.278.586.278.586c-3.885 8.281-6.939 16.358-9.113 23.907 7.742 2.178 16.485 3.846 25.892 4.863a198.663 198.663 0 01-9.423-14.794 199.725 199.725 0 01-7.356-13.976l.276-.586A198.713 198.713 0 0052.276 86a197.795 197.795 0 009.653 15.115c5.505.575 11.233.928 17.117 1.031a198.42 198.42 0 0017.212-.438 198.344 198.344 0 008.781-13.87 197.716 197.716 0 008.372-16.15 197.748 197.748 0 00-8.372-16.151A198.579 198.579 0 0096.625 42.2zm-34.306-.49l.378-.53a198.767 198.767 0 0117.42-.45c5.533.097 10.929.414 16.133.929l.374.54c-5.32-.538-10.846-.87-16.516-.969a197.786 197.786 0 00-17.789.48zm0 0a197.346 197.346 0 00-10.044 15.667 198.713 198.713 0 00-7.513 14.312l-.276-.587c2.199-4.618 4.654-9.295 7.356-13.975a198.32 198.32 0 019.828-15.369c.216-.017.432-.033.65-.048zM79.5 89.606c-9.238 0-16.727-7.488-16.727-16.727 0-9.238 7.489-16.727 16.727-16.727s16.727 7.49 16.727 16.727c0 9.239-7.489 16.727-16.727 16.727zM95.727 72.88c0 8.962-7.265 16.227-16.227 16.227S63.273 81.841 63.273 72.88 70.538 56.652 79.5 56.652s16.227 7.265 16.227 16.227z" fill="#fff"/></svg>