<svg width="300" height="300" xmlns="http://www.w3.org/2000/svg" xmlns:xlink="http://www.w3.org/1999/xlink"><defs><filter x="-400%" y="-400%" width="900%" height="900%" filterUnits="objectBoundingBox" id="a"><feOffset in="SourceAlpha" result="shadowOffsetOuter1"/><feGaussianBlur stdDeviation="4" in="shadowOffsetOuter1" result="shadowBlurOuter1"/><feColorMatrix values="0 0 0 0 1 0 0 0 0 1 0 0 0 0 1 0 0 0 0.5 0" in="shadowBlurOuter1"/></filter><filter x="-300%" y="-300%" width="700%" height="700%" filterUnits="objectBoundingBox" id="c"><feOffset in="SourceAlpha" result="shadowOffsetOuter1"/><feGaussianBlur stdDeviation="4" in="shadowOffsetOuter1" result="shadowBlurOuter1"/><feColorMatrix values="0 0 0 0 1 0 0 0 0 1 0 0 0 0 1 0 0 0 0.5 0" in="shadowBlurOuter1"/></filter><filter x="-400%" y="-400%" width="900%" height="900%" filterUnits="objectBoundingBox" id="e"><feOffset in="SourceAlpha" result="shadowOffsetOuter1"/><feGaussianBlur stdDeviation="4" in="shadowOffsetOuter1" result="shadowBlurOuter1"/><feColorMatrix values="0 0 0 0 1 0 0 0 0 1 0 0 0 0 1 0 0 0 0.5 0" in="shadowBlurOuter1"/></filter><filter x="-600%" y="-600%" width="1300%" height="1300%" filterUnits="objectBoundingBox" id="g"><feOffset in="SourceAlpha" result="shadowOffsetOuter1"/><feGaussianBlur stdDeviation="4" in="shadowOffsetOuter1" result="shadowBlurOuter1"/><feColorMatrix values="0 0 0 0 1 0 0 0 0 1 0 0 0 0 1 0 0 0 0.5 0" in="shadowBlurOuter1"/></filter><filter x="-240%" y="-240%" width="580%" height="580%" filterUnits="objectBoundingBox" id="i"><feOffset in="SourceAlpha" result="shadowOffsetOuter1"/><feGaussianBlur stdDeviation="4" in="shadowOffsetOuter1" result="shadowBlurOuter1"/><feColorMatrix values="0 0 0 0 1 0 0 0 0 1 0 0 0 0 1 0 0 0 0.5 0" in="shadowBlurOuter1"/></filter><circle id="b" cx="43.5" cy="91.5" r="1.5"/><circle id="d" cx="44" cy="11" r="2"/><circle id="f" cx="109.596" cy="161.322" r="1.5"/><circle id="h" cx="202" cy="50" r="1"/><circle id="j" cx="141.818" cy="41.25" r="2.5"/></defs><g transform="translate(40 41)" fill="none" fill-rule="evenodd"><use fill="#000" filter="url(#a)" xlink:href="#b"/><use fill="#FFF" xlink:href="#b"/><use fill="#000" filter="url(#c)" xlink:href="#d"/><use fill="#FFF" xlink:href="#d"/><circle fill="#FFF" cx="150" cy="149" r="1"/><circle fill="#FFF" cx="175.27" cy="186.701" r="1"/><circle fill="#FFF" cx="120.879" cy=".537" r="1"/><circle fill="#FFF" cx="108.143" cy="218.121" r="1"/><circle fill="#FFF" cx="37.566" cy="205.145" r="1"/><circle fill="#FFF" cx="87.5" cy="177.5" r="1"/><circle fill="#FFF" cx="61.5" cy="165.5" r="1"/><circle fill="#FFF" cx="89.33" cy="42.59" r="1"/><circle fill="#FFF" cx="95.33" cy="102.59" r="1"/><circle fill="#FFF" transform="rotate(85 167.698 90.296)" cx="167.698" cy="90.296" r="1.5"/><use fill="#000" filter="url(#e)" xlink:href="#f"/><use fill="#FFF" xlink:href="#f"/><circle fill="#FFF" cx="115.32" cy="95.7" r="1.5"/><use fill="#000" filter="url(#g)" xlink:href="#h"/><use fill="#FFF" xlink:href="#h"/><g><use fill="#000" filter="url(#i)" xlink:href="#j"/><use fill="#FFF" xlink:href="#j"/></g><circle fill="#FFF" cx="1.5" cy="130.5" r="1.5"/><circle fill="#FFF" cx="92.33" cy="79.59" r="1"/></g></svg>