<svg xmlns="http://www.w3.org/2000/svg" width="1871.781" height="1146" viewBox="0 0 1871.781 1146">
  <defs>
    <style>
      .cls-1 {
        fill: #fff;
        fill-rule: evenodd;
      }
    </style>
  </defs>
  <path id="big_stars" data-name="big stars" class="cls-1" d="M857.825,413.667a1.114,1.114,0,1,1-.934,1.1A1.027,1.027,0,0,1,857.825,413.667ZM644.874,360.682a1.211,1.211,0,0,1,.291,1.521,0.876,0.876,0,0,1-1.3.364,1.209,1.209,0,0,1-.291-1.521A0.876,0.876,0,0,1,644.874,360.682ZM495.1,210.916a1.1,1.1,0,1,1-.944,1.088A1.023,1.023,0,0,1,495.1,210.916Zm324.407-45.3a1.222,1.222,0,0,1,.305,1.532,0.884,0.884,0,0,1-1.319.354,1.221,1.221,0,0,1-.306-1.532A0.885,0.885,0,0,1,819.51,165.617ZM350.117,261.475a1.966,1.966,0,1,1-1.654,1.941A1.815,1.815,0,0,1,350.117,261.475Zm738.253-47.26a1.136,1.136,0,1,1-.96,1.122A1.058,1.058,0,0,1,1088.37,214.215ZM736,284.521a2.222,2.222,0,1,1-1.906,2.2A2.069,2.069,0,0,1,736,284.521Zm827.77,445.635a2.229,2.229,0,1,1-1.89,2.2A2.068,2.068,0,0,1,1563.77,730.156Zm171.46,275.154a2.249,2.249,0,1,1-1.89,2.22A2.075,2.075,0,0,1,1735.23,1005.31Zm-367.78,57.6a1.118,1.118,0,1,1-.95,1.11A1.039,1.039,0,0,1,1367.45,1062.91Zm-322.9,14.5a1.1,1.1,0,1,1-.96,1.09A1.032,1.032,0,0,1,1044.55,1077.41ZM1898.11,728a2.229,2.229,0,1,1-1.89,2.2A2.067,2.067,0,0,1,1898.11,728Zm-300.6,396.38a1.2,1.2,0,0,0,.3-1.53,0.872,0.872,0,0,0-1.31-.35,1.217,1.217,0,0,0-.31,1.53A0.88,0.88,0,0,0,1597.51,1124.38Zm268.87-50.85a1.137,1.137,0,1,1-.97,1.13A1.052,1.052,0,0,1,1866.38,1073.53ZM1514,1001.09a2.211,2.211,0,1,1-1.91,2.19A2.067,2.067,0,0,1,1514,1001.09Zm-626.729,82.1a1.125,1.125,0,1,1-1.4.37A1.038,1.038,0,0,1,887.271,1083.19ZM532.884,988.567a2.244,2.244,0,1,1-2.833.727A2.08,2.08,0,0,1,532.884,988.567Zm-61.9-483.391a2.247,2.247,0,1,1-2.821.735A2.074,2.074,0,0,1,470.981,505.176ZM664.593,883.647a2.494,2.494,0,1,1-3.169.8A2.321,2.321,0,0,1,664.593,883.647ZM386.733,659.3a1.107,1.107,0,1,1-1.395.359A1.026,1.026,0,0,1,386.733,659.3ZM1066.12,921.579a1.019,1.019,0,0,1,.16,1.442,0.962,0.962,0,1,1-1.56-1.092A1.02,1.02,0,0,1,1066.12,921.579ZM889.506,713.068a1.107,1.107,0,1,1-1.395.36A1.026,1.026,0,0,1,889.506,713.068Zm89.862,124.488a1.962,1.962,0,1,1-2.467.64A1.813,1.813,0,0,1,979.368,837.556Zm-329.5-202.14a2.208,2.208,0,1,1-2.815.7A2.062,2.062,0,0,1,649.867,635.416Zm2.468,489.734a1.1,1.1,0,1,1-1.42.34A1.036,1.036,0,0,1,652.335,1125.15ZM1852.95,506.962a2.232,2.232,0,1,0,2.81.723A2.067,2.067,0,0,0,1852.95,506.962ZM171.572,711.189a1.125,1.125,0,1,0,1.4.372A1.035,1.035,0,0,0,171.572,711.189Zm1144.6-411.561a1.109,1.109,0,0,0,1.25,1.793A1.109,1.109,0,0,0,1316.17,299.628Zm90.79,362.939a2.244,2.244,0,1,0,2.83.727A2.084,2.084,0,0,0,1406.96,662.567Zm95.72-314.1a1.121,1.121,0,1,0,1.42.363A1.042,1.042,0,0,0,1502.68,348.466Zm14.73,217.388a1.059,1.059,0,0,0-.14,1.477A0.977,0.977,0,1,0,1517.41,565.854ZM619.639,49.231a1.107,1.107,0,1,0,1.394.359A1.024,1.024,0,0,0,619.639,49.231ZM1830.8,349.468a1.128,1.128,0,0,0,1.27,1.819A1.128,1.128,0,0,0,1830.8,349.468Zm89.31-12.165a1.1,1.1,0,1,0,1.4.359A1.025,1.025,0,0,0,1920.11,337.3ZM1675.04,394.58a2.225,2.225,0,1,0,2.82.714A2.071,2.071,0,0,0,1675.04,394.58Zm-49.13,33.455a1.216,1.216,0,0,1,1.11,1.08,0.885,0.885,0,0,1-.87,1.047,1.217,1.217,0,0,1-1.11-1.081A0.885,0.885,0,0,1,1625.91,428.035Zm-396.19,93.544a1.1,1.1,0,1,0,1.41.35A1.037,1.037,0,0,0,1229.72,521.579Zm427.59-353.47a1.227,1.227,0,0,1,1.13,1.08,0.891,0.891,0,0,1-.88,1.046,1.218,1.218,0,0,1-1.13-1.08A0.881,0.881,0,0,1,1657.31,168.109ZM1327.48,515.556a1.963,1.963,0,1,0,2.46.64A1.816,1.816,0,0,0,1327.48,515.556ZM1905.53,53.93a1.138,1.138,0,1,0,1.44.367A1.051,1.051,0,0,0,1905.53,53.93ZM1352.51,754.149a1.1,1.1,0,0,0,1.25,1.793A1.1,1.1,0,0,0,1352.51,754.149Zm110.44-545.187a2.232,2.232,0,1,0,2.81.723A2.067,2.067,0,0,0,1462.95,208.962ZM1029.57,463.189a1.124,1.124,0,1,0,1.41.372A1.039,1.039,0,0,0,1029.57,463.189Zm132.96-40.155a1.1,1.1,0,1,0,1.41.351A1.029,1.029,0,0,0,1162.53,423.034ZM926.166,1.628a1.019,1.019,0,0,0-.129,1.425,1.019,1.019,0,0,0,1.382.368A1.019,1.019,0,0,0,927.548,2,1.019,1.019,0,0,0,926.166,1.628Zm90.794,362.939a2.244,2.244,0,1,0,2.83.727A2.084,2.084,0,0,0,1016.96,364.567ZM383.683,95.466a1.122,1.122,0,1,0,1.417.363A1.041,1.041,0,0,0,383.683,95.466ZM1045.41,639.854a1.059,1.059,0,0,0-.14,1.477A0.977,0.977,0,1,0,1045.41,639.854ZM227.639,414.231a1.107,1.107,0,1,0,1.394.36A1.025,1.025,0,0,0,227.639,414.231ZM1440.8,51.468a1.128,1.128,0,0,0,1.27,1.819A1.128,1.128,0,0,0,1440.8,51.468ZM1285.04,96.58a2.225,2.225,0,1,0,2.82.714A2.071,2.071,0,0,0,1285.04,96.58Zm-257.7-3.512a1.106,1.106,0,1,0,1.39.359A1.016,1.016,0,0,0,1027.34,93.068ZM1738.24,19.2a2.058,2.058,0,0,0-.29,2.889A1.913,1.913,0,1,0,1738.24,19.2Zm-471.26-3.788a2.057,2.057,0,0,0-.31,2.885A1.922,1.922,0,1,0,1266.98,15.416ZM201.139,166.274a2.229,2.229,0,1,0,2.74-.962A2.065,2.065,0,0,0,201.139,166.274ZM56.373,328.842a2.494,2.494,0,1,0,3.078-1.1A2.322,2.322,0,0,0,56.373,328.842ZM672.516,743.776a1.144,1.144,0,1,0,1.413.385A1.043,1.043,0,0,0,672.516,743.776ZM48.96,1143.57a2.241,2.241,0,1,0,2.833.72A2.078,2.078,0,0,0,48.96,1143.57Zm296.291-57.92a2.49,2.49,0,1,0,3.169.79A2.321,2.321,0,0,0,345.251,1085.65ZM124.683,612.466a1.122,1.122,0,1,0,1.417.363A1.04,1.04,0,0,0,124.683,612.466Zm34.732,434.384a1.14,1.14,0,1,0,1.438.37A1.059,1.059,0,0,0,159.415,1046.85ZM59.338,872.068a1.107,1.107,0,1,0,1.395.36A1.025,1.025,0,0,0,59.338,872.068Zm239.639-77.652a2.208,2.208,0,1,0,2.815.7A2.062,2.062,0,0,0,298.977,794.416Z" transform="translate(-48.219 -1.5)"/>
</svg>
