<svg width="182" height="24" fill="none" xmlns="http://www.w3.org/2000/svg"><path d="M1.049 6.53C1.593 1.983 7.328-.647 11.156 1.81c2.276 1.647 3.993 3.928 6.074 5.82C20.185 5.133 22.471.805 26.85.9c4.277 0 6.528 4.158 9.418 6.624 1.707-1.637 3.29-3.404 5.056-4.987a6.808 6.808 0 019.394 9.838l-9.484 9.509A7.352 7.352 0 0136.601 24h-.768c-4.083-.345-6.27-4.238-9.1-6.674-2.73 2.356-4.761 5.99-8.58 6.674h-1.337a7.073 7.073 0 01-4.442-2.047c-2.895-2.89-5.775-5.824-8.705-8.704A7.218 7.218 0 011.05 6.53zM112.457 4.893c3.344-.783 7.352.05 9.484 2.935 2.59 3.384 1.826 8.795-1.812 11.12-4.118 2.431-10.637 1.718-12.813-2.994-2.276-4.258.335-10.157 5.141-11.06zm.469 2.92c-2.994.749-4.522 4.672-2.755 7.238 1.597 2.525 5.166 2.855 7.722 1.747a4.65 4.65 0 002.221-6.19c-1.133-2.69-4.567-3.633-7.188-2.795zM130.916 4.898c3.244-.764 7.042-.025 9.233 2.63 2.855 3.35 2.182 9.03-1.572 11.425-4.108 2.426-10.611 1.727-12.802-2.96-2.251-4.272.319-10.182 5.141-11.095zm.464 2.92c-3.279.803-4.657 5.335-2.311 7.791 2.76 3.2 9.583 2.067 9.952-2.59.405-3.953-4.197-6.489-7.641-5.201zM63.162 6.975c-.759-1.288 1.323-2.855 2.34-1.652 2.222 3.264 4.089 6.763 6.19 10.112.998-1.697 1.872-3.494 2.825-5.206a1.448 1.448 0 012.576 0c.998 1.707 1.896 3.494 2.904 5.196 1.84-3.22 3.624-6.47 5.351-9.748.789-1.467 3.39-.384 2.576 1.268-1.912 4.073-4.243 7.941-6.454 11.854-.38.998-1.807 1.558-2.56.634-1.144-1.707-2.027-3.569-3.07-5.336-.999 1.693-1.812 3.494-2.895 5.117a1.498 1.498 0 01-2.58-.315c-2.421-3.963-4.852-7.921-7.203-11.924zM89.783 6.031c.364-1.437 2.555-1.457 2.875 0 .175 1.947.03 3.909.08 5.865h8.6c.05-1.926-.075-3.853.045-5.775.234-1.457 2.65-1.542 2.86-.05-.07 4.303.03 8.615-.075 12.913-.33 1.337-2.431 1.287-2.78 0-.11-1.408-.025-2.82-.04-4.228h-8.61c0 1.523.1 3.07-.255 4.567-.743 1.023-2.795.639-2.72-.764-.025-4.172-.07-8.36.02-12.528zM147.31 5.318c3.534-.929 8.126-.56 10.452 2.61 1.063 1.403-1.208 3.155-2.281 1.747-1.692-1.887-4.457-2.211-6.823-1.732-.963.265-2.321.834-2.036 2.077 3.259 1.617 7.287.124 10.481 1.996 2.421 1.422 2.161 5.336-.169 6.718-2.811 1.772-6.434 1.677-9.559.924-1.767-.58-3.993-1.583-4.247-3.654-.285-1.403 1.871-2.116 2.535-.943 1.498 2.196 4.527 2.31 6.933 2.14 1.263-.214 3.304-.563 3.309-2.2-.813-1.188-2.545-.973-3.813-1.178-2.675-.295-6.114.2-7.916-2.281-1.532-2.516.464-5.66 3.134-6.224zM161.146 6.031c.095-1.462 2.686-1.447 2.791.04.124 1.942 0 3.884.049 5.83h8.605c.07-1.951-.144-3.918.125-5.86.32-1.612 3.08-1.218 2.87.46-.075 4.162.205 8.35-.165 12.478-.339 1.407-2.216 1.103-2.85.06.035-1.428.025-2.855 0-4.288h-8.61c0 1.378.08 2.765-.054 4.143-.405 1.497-2.995 1.248-2.91-.404.164-4.138.07-8.306.149-12.459zM179.714 5.109c.998-.4 2.36.164 2.156 1.402-.135 4.158.07 8.33-.115 12.478-.334 1.353-2.391 1.333-2.82.07-.34-3.494.18-7.023 0-10.536.145-1.133-.389-2.676.779-3.414z" fill="#80808E"/></svg>