<svg width="155" height="36" fill="none" xmlns="http://www.w3.org/2000/svg"><path d="M57.637 35.565c9.57 0 17.328-7.77 17.328-17.355 0-9.584-7.758-17.354-17.328-17.354S40.308 8.626 40.308 18.21c0 9.585 7.758 17.355 17.329 17.355zM137.369 35.565c9.57 0 17.328-7.77 17.328-17.355 0-9.584-7.758-17.354-17.328-17.354s-17.328 7.77-17.328 17.354c0 9.585 7.758 17.355 17.328 17.355zM27.319 1.904L17.76 6.686 8.216 1.91C4.752.168.58 2.566.446 6.442c-.007.083-.007.167-.007.244v21.937c0 3.83 3.104 6.942 6.929 6.942H28.16c3.83 0 6.928-3.111 6.928-6.942V6.686c0-.084 0-.16-.006-.244-.128-3.876-4.3-6.274-7.764-4.538zM107.051 1.904l-9.558 4.782-9.538-4.782c-3.464-1.736-7.642.655-7.777 4.537 0 .084-.007.161-.007.245v21.937c0 3.83 3.105 6.941 6.93 6.941h20.792c3.831 0 6.929-3.11 6.929-6.941V6.686c0-.084 0-.161-.007-.245-.122-3.875-4.293-6.273-7.764-4.537z" fill="#80808E"/></svg>