<svg width="160" height="24" fill="none" xmlns="http://www.w3.org/2000/svg"><path d="M31.65 22.899c-3.708 1.558-12.024-5.049-15.868-6.771C12.998 18.535 4.183 24.282.89 22.899c-.379-.16-.673-.4-.89-.712C0 22.187 13.52.861 16.27.861c2.749 0 16.235 21.273 16.235 21.273-.174.337-.454.596-.854.765z" fill="#80808E"/><path d="M.89 22.9c-.378-.16-.672-.4-.889-.712l3.234-5.03 1.197-1.733c1.201-.495 2.423-.794 3.407-.88 2.505-.216 5.174.342 7.943 1.583C12.998 18.535 4.183 24.283.89 22.899z" fill="#80808E"/><path opacity=".25" d="M4.432 15.425c1.2-.496 2.422-.795 3.406-.88 2.505-.216 5.174.341 7.943 1.583-.464.4-1.095.894-1.84 1.432-2.39-1.429-7.253-1.777-10.707-.402l1.198-1.733z" fill="#80808E"/><path d="M106.371 2.225c0-.244.079-.452.239-.623a.789.789 0 01.604-.256h8.464c5.351 0 8.026 2.282 8.026 6.844 0 3.294-1.454 5.417-4.361 6.368l4.728 8.161a.739.739 0 01.073.33c0 .341-.141.585-.422.732-.281.146-.531.22-.751.22-.22 0-.416-.135-.586-.404l-5.021-8.6c-.636.05-1.198.073-1.686.073h-7.33v8.051a.746.746 0 01-.293.604 1.071 1.071 0 01-.696.238 1.07 1.07 0 01-.696-.238.742.742 0 01-.293-.604V3.066l.001-.841zm1.977.842v10.32h7.33c4.031 0 6.047-1.732 6.047-5.197 0-1.83-.508-3.141-1.521-3.934-1.014-.793-2.523-1.19-4.527-1.19h-7.329zM42.379 3.067h-1.136a.816.816 0 01-.843-.842.88.88 0 01.238-.623.79.79 0 01.605-.256l1.897-.002-.761 1.723zm16.509-1.72l-.19 1.72h-7.084v20.055a.746.746 0 01-.293.604 1.072 1.072 0 01-.696.238c-.27 0-.501-.08-.697-.238a.742.742 0 01-.293-.604V3.067H42.38l.761-1.72h15.748zm0 0h1.118a.79.79 0 01.605.255.88.88 0 01.239.623c0 .244-.08.445-.239.604a.817.817 0 01-.604.238h-1.31M79.933 2.35l.21-.426c.149-.337.459-.529.93-.574h.111c.447.045.769.237.968.574l.275.562-2.494-.136zm2.494.136L92.44 22.719a.728.728 0 01.073.33c0 .414-.196.695-.587.842a1.301 1.301 0 01-.403.072c-.415 0-.696-.158-.843-.476l-3.408-6.88H74.994l-3.408 6.88c-.22.488-.635.623-1.245.404-.392-.147-.587-.415-.587-.806 0-.097.024-.207.073-.329L79.932 2.35l2.495.136zm-1.311 1.459l-5.314 10.979h10.664l-5.35-10.98zM146.487 2.348l.21-.426c.149-.338.459-.529.93-.574h.111c.447.045.769.236.968.574l.275.561-2.494-.135zm2.494.135l10.013 20.234a.725.725 0 01.073.33c0 .414-.195.695-.586.841a1.3 1.3 0 01-.403.073c-.416 0-.697-.158-.844-.475l-3.408-6.88h-12.277l-3.408 6.88c-.221.488-.636.622-1.246.402-.392-.146-.587-.414-.587-.805 0-.098.024-.207.073-.33l10.105-20.405 2.495.135zm-1.311 1.46l-5.314 10.979h10.665l-5.351-10.98z" fill="#80808E"/></svg>